# https://github.com/mikedh/trimesh
v -0.06387788 -0.14666323 0.12446201
v -0.06438745 -0.14837097 0.12459294
v -0.06588619 -0.14626847 0.12454258
v -0.06186956 -0.14634571 0.12457279
v -0.05794284 -0.14785607 0.12489507
v -0.06156980 -0.15033615 0.12493535
v -0.06387788 -0.15033615 0.12485478
v -0.06615597 -0.14013264 0.12766463
v -0.06414765 -0.15250729 0.12547919
v -0.21180411 -0.16447004 0.18080991
v -0.20967589 -0.15341695 0.18102139
v -0.15703992 -0.12653939 0.16399115
v -0.05836249 -0.14565061 0.12591225
v -0.06231918 -0.15188084 0.12523748
v 0.09441967 -0.16023930 0.18441537
v 0.09441967 -0.18798361 0.18229036
v 0.04684948 -0.20785858 0.16639814
v -0.06588619 -0.13857079 0.12883287
v 0.04475124 -0.20785858 0.16608592
v 0.04238321 -0.20785858 0.16599529
v 0.03965550 -0.20785858 0.16641827
v -0.20856681 -0.16436706 0.19207947
v -0.20784741 -0.15497021 0.19052853
v -0.20952601 -0.15806817 0.18588574
v -0.20970585 -0.15497021 0.18278383
v -0.21054516 -0.15755328 0.18100125
v 0.03698773 -0.20785858 0.16800951
v 0.03036327 -0.20750674 0.17104093
v 0.02865470 -0.20750674 0.17239045
v 0.01174885 -0.20750674 0.18788990
v -0.21003558 -0.15497021 0.18123289
v -0.20922626 -0.15296212 0.18301547
v -0.20895649 -0.15186367 0.18112210
v -0.20763759 -0.15007871 0.18102139
v -0.20227207 -0.14311903 0.18080991
v -0.18992242 -0.13211743 0.18080991
v -0.18818387 -0.13085594 0.18097103
v -0.18599570 -0.12964593 0.18080991
v -0.18239871 -0.12788670 0.18080991
v -0.17421555 -0.12529506 0.17868489
v -0.15709988 -0.12386193 0.16894613
v -0.15320313 -0.12337278 0.16927848
v -0.14454039 -0.12378470 0.16728440
v -0.05827256 -0.13857079 0.13103845
v 0.09441967 -0.16023930 0.19246218
v -0.05557482 -0.13857079 0.13281096
v -0.11108837 -0.12309817 0.18541240
v 0.09441967 -0.18798361 0.19083066
v 0.04684948 -0.20785858 0.17673110
v -0.14223232 -0.12310676 0.16856342
v -0.13162120 -0.12320115 0.16966117
v -0.12745469 -0.12329555 0.17007409
v -0.12547634 -0.12320973 0.17083950
v -0.20787739 -0.16376634 0.19349951
v -0.20739780 -0.15789654 0.19289524
v -0.20718796 -0.15497021 0.19238161
v -0.20823709 -0.15497021 0.18898765
v -0.20727789 -0.15328822 0.19139465
v -0.20889654 -0.15354567 0.18499950
v 0.03698773 -0.20785858 0.18581524
v 0.03491946 -0.20750674 0.18788990
v -0.11915162 -0.15735589 0.22703633
v -0.13060205 -0.15751894 0.22690541
v -0.15479180 -0.15609439 0.22378336
v -0.16627221 -0.15610299 0.22036924
v -0.16926969 -0.15610299 0.21944270
v -0.17247702 -0.15610299 0.21843559
v -0.17670347 -0.15610299 0.21706593
v -0.20745773 -0.15254163 0.19002497
v -0.20730787 -0.14971827 0.18278383
v -0.20251189 -0.14298172 0.18312626
v -0.20122296 -0.14175456 0.18122281
v -0.19073173 -0.13214317 0.18278383
v -0.18938286 -0.13107048 0.18278383
v -0.18746447 -0.12973175 0.18343847
v -0.18491660 -0.12862472 0.18278383
v -0.17871179 -0.12562117 0.18278383
v -0.17967099 -0.12653081 0.18107174
v -0.17715310 -0.12556967 0.18080991
v -0.17487500 -0.12472010 0.18080991
v -0.17427551 -0.12371605 0.18285435
v -0.16983922 -0.12373321 0.17868489
v -0.15709988 -0.12319257 0.17038630
v -0.15074520 -0.12298662 0.16992302
v -0.12835393 -0.12164788 0.17738573
v 0.09441967 -0.16508792 0.19298587
v -0.11264707 -0.12317541 0.18828267
v -0.11864206 -0.12311534 0.19315710
v -0.12026070 -0.12313250 0.19462747
v -0.12253880 -0.12313250 0.19598707
v -0.12442721 -0.12318399 0.19677262
v -0.12442721 -0.12430818 0.19876670
v -0.12592596 -0.12472010 0.19988460
v -0.13431894 -0.12962018 0.21027799
v -0.13461869 -0.13063281 0.21191959
v -0.13210079 -0.13215175 0.21350075
v -0.12283854 -0.13743802 0.21877802
v -0.12127985 -0.13836483 0.21964413
v -0.12071032 -0.13979796 0.22079224
v -0.12127985 -0.14155719 0.22187991
v -0.12274861 -0.14474953 0.22378336
v -0.10830071 -0.15425794 0.22540480
v -0.10557298 -0.15630036 0.22562638
v -0.10377450 -0.15721000 0.22551559
v -0.11660376 -0.12232584 0.18432472
v -0.13060205 -0.12044646 0.18277377
v -0.12901338 -0.12067817 0.18277377
v -0.11660376 -0.12231725 0.18586560
v -0.11348637 -0.12293512 0.18742662
v 0.09441967 -0.18612998 0.19133422
v -0.11297680 -0.15751894 0.22652270
v -0.14918651 -0.12294370 0.16987267
v -0.14454039 -0.12283215 0.16973168
v -0.14223232 -0.12264335 0.17039636
v -0.13992424 -0.12269484 0.17039636
v -0.13210079 -0.12060093 0.18121275
v -0.17883170 -0.15610299 0.21630052
v -0.18137956 -0.15610299 0.21521284
v -0.18494658 -0.15610299 0.21340004
v -0.18743449 -0.15610299 0.21193972
v -0.19007229 -0.15610299 0.21034848
v -0.19582747 -0.15553660 0.20661209
v -0.19765595 -0.15553660 0.20522229
v -0.19915469 -0.15610299 0.20363106
v -0.20751769 -0.16118328 0.19349951
v -0.20601895 -0.15398333 0.19387214
v -0.20592902 -0.15170062 0.19290532
v -0.11510502 -0.15751894 0.22672412
v -0.11903173 -0.15581979 0.22697590
v -0.12127985 -0.15651490 0.22714710
v -0.12283854 -0.15701263 0.22716726
v -0.12748465 -0.15701263 0.22713704
v -0.13413909 -0.15701263 0.22673420
v -0.15233387 -0.15609439 0.22428692
v -0.15233387 -0.15031899 0.22432719
v -0.15473185 -0.15031899 0.22372293
v -0.15695001 -0.15031899 0.22306830
v -0.17049867 -0.15186367 0.21904994
v -0.17484502 -0.15533923 0.21768026
v -0.17247702 -0.15186367 0.21836510
v -0.20122296 -0.14632855 0.19606764
v -0.19825544 -0.14261272 0.19736683
v -0.19792572 -0.14129973 0.19563458
v -0.19963430 -0.14180605 0.19129394
v -0.19963430 -0.14024420 0.18746692
v -0.20101313 -0.14127399 0.18499950
v -0.19996402 -0.13996101 0.18433480
v -0.20095319 -0.14119675 0.18278383
v -0.19819549 -0.13859653 0.18321689
v -0.19657685 -0.13711192 0.18342839
v -0.19097153 -0.13193722 0.18433480
v -0.18968261 -0.13086452 0.18433480
v -0.18746447 -0.12943997 0.18579511
v -0.18398738 -0.12791245 0.18395209
v -0.17625385 -0.12416229 0.18433480
v -0.17631381 -0.12457421 0.18275363
v -0.17304654 -0.12304668 0.18412329
v -0.17205736 -0.12312392 0.18242128
v -0.17016895 -0.12317541 0.18044734
v -0.16798076 -0.12313250 0.17871511
v -0.15703992 -0.12272916 0.17194733
v -0.14609908 -0.12270342 0.17039636
v -0.13060205 -0.12072108 0.18121275
v 0.09441967 -0.16730195 0.19309666
v -0.12127985 -0.12280640 0.19364051
v -0.12283854 -0.12260044 0.19364051
v -0.12517659 -0.12263477 0.19519146
v -0.13368947 -0.12284931 0.19728625
v -0.13060205 -0.12313250 0.19762866
v -0.12850380 -0.12320115 0.19746754
v -0.12592596 -0.12356158 0.19777973
v -0.12748465 -0.12484024 0.20043852
v -0.13677688 -0.12950004 0.21048949
v -0.13722651 -0.13096750 0.21298711
v -0.13060205 -0.12630769 0.20367133
v -0.12802421 -0.13568737 0.21754933
v -0.12592596 -0.13585900 0.21728749
v -0.13833558 -0.13248643 0.21537396
v -0.12442721 -0.13676866 0.21821403
v -0.12442721 -0.13731788 0.21898950
v -0.12592596 -0.13722348 0.21914057
v -0.12283854 -0.13821036 0.21971462
v -0.12283854 -0.13909427 0.22049011
v -0.12283854 -0.14164300 0.22212163
v -0.12442721 -0.14262130 0.22281653
v -0.12826400 -0.14376265 0.22370279
v -0.12592596 -0.14464655 0.22396463
v -0.12442721 -0.14499840 0.22401500
v -0.12283854 -0.14722103 0.22466960
v -0.12274861 -0.14884295 0.22522353
v -0.12283854 -0.15186367 0.22627092
v -0.12190932 -0.15474709 0.22705647
v -0.10890020 -0.15701263 0.22606950
v 0.09441967 -0.18442224 0.19172698
v 0.09441967 -0.18286898 0.19197876
v 0.09441967 -0.18133287 0.19217012
v 0.09441967 -0.17962513 0.19236147
v 0.09441967 -0.17808045 0.19251254
v 0.09441967 -0.17651001 0.19264346
v 0.09441967 -0.17426164 0.19280461
v -0.12133980 -0.12165647 0.18485849
v -0.12901338 -0.12059235 0.18432472
v -0.13060205 -0.12037781 0.18432472
v -0.13246049 -0.12019760 0.18338812
v -0.11798261 -0.12275491 0.19029689
v -0.12901338 -0.12073824 0.18586560
v -0.12598591 -0.12175944 0.19047817
v -0.14148294 -0.12233442 0.17194733
v -0.13707663 -0.12162213 0.17573405
v -0.14609908 -0.12207696 0.17348821
v -0.13365949 -0.12055803 0.18121275
v -0.17442539 -0.15250729 0.21767020
v -0.18260853 -0.14714380 0.21303747
v -0.18302818 -0.15600001 0.21441722
v -0.17247702 -0.15031899 0.21815360
v -0.18425715 -0.15230992 0.21308782
v -0.19262015 -0.15172637 0.20806235
v -0.19546777 -0.15322815 0.20663225
v -0.19420882 -0.15497021 0.20764942
v -0.19250026 -0.15553660 0.20876732
v -0.19693655 -0.15341695 0.20563520
v -0.19807558 -0.15293638 0.20412453
v -0.19924462 -0.15497021 0.20322821
v -0.20116301 -0.15442957 0.20056943
v -0.20089324 -0.15610299 0.20132476
v -0.20455017 -0.15309943 0.19560436
v -0.20464010 -0.15186367 0.19486919
v -0.19945444 -0.14523010 0.19789052
v -0.12442721 -0.15439525 0.22720754
v -0.12592596 -0.15497021 0.22733847
v -0.12511664 -0.15676377 0.22721760
v -0.13159122 -0.15574256 0.22698596
v -0.13833558 -0.15552802 0.22647234
v -0.13992424 -0.15552802 0.22632128
v -0.14142300 -0.15552802 0.22613999
v -0.14298169 -0.15552802 0.22590835
v -0.14555954 -0.15295354 0.22546523
v -0.15074520 -0.15031899 0.22455883
v -0.15320313 -0.14851685 0.22397470
v -0.15545125 -0.14877431 0.22342079
v -0.15934799 -0.14949516 0.22233311
v -0.17037877 -0.15031899 0.21893915
v -0.17247702 -0.15341695 0.21842551
v -0.19672673 -0.14150569 0.19869621
v -0.19651689 -0.14027853 0.19743732
v -0.19489825 -0.13728355 0.19562452
v -0.19813554 -0.13863086 0.18788990
v -0.19984411 -0.14000391 0.18588574
v -0.19831540 -0.13850214 0.18588574
v -0.19342948 -0.13403971 0.18513041
v -0.18974256 -0.13083019 0.18588574
v -0.19100151 -0.13189431 0.18588574
v -0.18398738 -0.12790387 0.18743670
v -0.18449695 -0.12798110 0.18553325
v -0.18914307 -0.13070147 0.18743670
v -0.17952112 -0.12627337 0.19253267
v -0.17592413 -0.12459137 0.19363044
v -0.17628383 -0.12411938 0.18588574
v -0.17307651 -0.12304668 0.18614760
v -0.17094828 -0.12262619 0.18433480
v -0.16938959 -0.12254895 0.18278383
v -0.16528303 -0.12260044 0.17868489
v -0.16321476 -0.12221427 0.17868489
v -0.15907822 -0.12144192 0.17893667
v -0.15709988 -0.12161355 0.17721452
v -0.14864695 -0.12224859 0.17290408
v -0.12442721 -0.12242022 0.19364051
v -0.12592596 -0.12229150 0.19364051
v -0.12901338 -0.12150200 0.19043790
v -0.13213076 -0.12132178 0.19029689
v -0.13524816 -0.12183669 0.19363044
v -0.14148294 -0.12168222 0.19417427
v -0.13680686 -0.12212845 0.19519146
v -0.13524816 -0.12260044 0.19674240
v -0.14457036 -0.12267768 0.19829337
v -0.14612906 -0.12299520 0.19946160
v -0.14457036 -0.12303810 0.19936089
v -0.14148294 -0.12314109 0.19914941
v -0.13210079 -0.12360449 0.19876670
v -0.12748465 -0.12394775 0.19876670
v -0.13677688 -0.12768932 0.20712573
v -0.14346128 -0.12626479 0.20530285
v -0.15386258 -0.12916536 0.21135560
v -0.14454039 -0.13118204 0.21414529
v -0.14067362 -0.13128501 0.21399422
v -0.13198090 -0.12658230 0.20438639
v -0.13009247 -0.13552432 0.21776083
v -0.14067362 -0.13290694 0.21607896
v -0.14298169 -0.13305283 0.21630052
v -0.14079351 -0.14057888 0.22256475
v -0.13833558 -0.14111952 0.22279639
v -0.13060205 -0.14366826 0.22375314
v -0.13602750 -0.14256123 0.22346107
v -0.12592596 -0.14722103 0.22488110
v -0.13428896 -0.14353095 0.22381358
v -0.12442721 -0.15186367 0.22644213
v -0.12592596 -0.15257595 0.22677448
v -0.13461869 -0.12034348 0.18586560
v -0.13135143 -0.12051512 0.18586560
v -0.15464194 -0.12040356 0.18277377
v -0.15542128 -0.12026625 0.18432472
v -0.13992424 -0.12024909 0.18586560
v -0.13833558 -0.12025767 0.18586560
v -0.12901338 -0.12096993 0.18742662
v -0.12592596 -0.12201690 0.19208955
v -0.14298169 -0.12205122 0.17348821
v -0.14918651 -0.12165647 0.17588512
v -0.18302818 -0.14053597 0.21150666
v -0.18119972 -0.14172882 0.21266484
v -0.17310649 -0.14901459 0.21761982
v -0.17778257 -0.14359960 0.21451794
v -0.17094828 -0.14877431 0.21842551
v -0.18722467 -0.14490400 0.20991542
v -0.19031208 -0.14651735 0.20835440
v -0.19468843 -0.15096261 0.20661209
v -0.19696652 -0.15176928 0.20493022
v -0.19199068 -0.14525585 0.20689409
v -0.19981414 -0.15186367 0.20132476
v -0.20281163 -0.15245581 0.19762866
v -0.19984411 -0.15346843 0.20200960
v -0.19843529 -0.14566777 0.19951196
v -0.19762597 -0.14383131 0.19939111
v -0.12748465 -0.15336546 0.22699604
v -0.12949298 -0.15405199 0.22700612
v -0.12748465 -0.15497021 0.22723776
v -0.15074520 -0.14876573 0.22433727
v -0.15386258 -0.14410592 0.22279639
v -0.15578098 -0.14305038 0.22228275
v -0.15545125 -0.14722961 0.22318915
v -0.16867019 -0.14867132 0.21925136
v -0.19031208 -0.13873384 0.20524243
v -0.19360932 -0.14002965 0.20176790
v -0.19160100 -0.13750667 0.20171754
v -0.19336953 -0.13642539 0.19740710
v -0.19306978 -0.13534411 0.19610792
v -0.19369925 -0.13532695 0.19363044
v -0.19079169 -0.13211743 0.18898765
v -0.17559440 -0.12391343 0.18743670
v -0.19202066 -0.13419418 0.19532239
v -0.18881334 -0.13246069 0.19602736
v -0.18098988 -0.12786095 0.19586622
v -0.17763270 -0.12583570 0.19542310
v -0.17565436 -0.12470293 0.19519146
v -0.17403571 -0.12394775 0.19357000
v -0.17406569 -0.12351009 0.18898765
v -0.17559440 -0.12417945 0.19052853
v -0.17244704 -0.12358733 0.19282475
v -0.16429386 -0.12169080 0.18777911
v -0.16321476 -0.12132178 0.18588574
v -0.16006740 -0.12072108 0.18433480
v -0.16450368 -0.12153633 0.18376075
v -0.15781928 -0.12051512 0.18278383
v -0.15709988 -0.12076398 0.18123289
v -0.15709988 -0.12109008 0.17968194
v -0.15542128 -0.12071250 0.18122281
v -0.12748465 -0.12176802 0.19136444
v -0.13428896 -0.12121881 0.19029689
v -0.14765777 -0.12095277 0.19207947
v -0.14921646 -0.12103860 0.19279453
v -0.14301167 -0.12165647 0.19431528
v -0.14924644 -0.12153633 0.19476848
v -0.14924644 -0.12248030 0.19829337
v -0.14768775 -0.12254037 0.19829337
v -0.14924644 -0.12310676 0.20003567
v -0.14768775 -0.12358733 0.20083128
v -0.14457036 -0.12343286 0.20013638
v -0.14609908 -0.12428243 0.20193910
v -0.14918651 -0.12380187 0.20140533
v -0.15074520 -0.12517492 0.20398354
v -0.15233387 -0.12648791 0.20644089
v -0.15611070 -0.12951720 0.21192965
v -0.15074520 -0.13111338 0.21435679
v -0.14918651 -0.13087310 0.21396402
v -0.14768775 -0.13113055 0.21428630
v -0.14594921 -0.14026137 0.22232305
v -0.15695001 -0.13531837 0.21792196
v -0.15718981 -0.13824469 0.22049011
v -0.15545125 -0.13861370 0.22084258
v -0.14067362 -0.14256123 0.22346107
v -0.13833558 -0.14302464 0.22369271
v -0.13060205 -0.14818217 0.22535446
v -0.13677688 -0.14382272 0.22396463
v -0.13210079 -0.14816501 0.22537458
v -0.14298169 -0.12057519 0.18897759
v -0.15464194 -0.12031773 0.18586560
v -0.15781928 -0.12037781 0.18433480
v -0.15152454 -0.12063525 0.19051845
v -0.14918651 -0.12064383 0.19051845
v -0.14765777 -0.12067817 0.19051845
v -0.17910147 -0.14062179 0.21328925
v -0.18128963 -0.13890547 0.21154694
v -0.18380754 -0.13843348 0.21012692
v -0.18674506 -0.13840774 0.20838462
v -0.18557605 -0.14050164 0.20985501
v -0.17196743 -0.14764154 0.21776083
v -0.16720143 -0.14624273 0.21927150
v -0.19345946 -0.14868849 0.20684373
v -0.19693655 -0.15031899 0.20417489
v -0.19061183 -0.14137697 0.20647111
v -0.18761435 -0.14101654 0.20863639
v -0.18848362 -0.13851072 0.20714587
v -0.19810556 -0.14951232 0.20220096
v -0.19708641 -0.14584798 0.20131470
v -0.19549774 -0.14265562 0.20132476
v -0.13368947 -0.14831948 0.22534438
v -0.14867692 -0.14636288 0.22389413
v -0.15545125 -0.14102512 0.22175906
v -0.14768775 -0.14410592 0.22336036
v -0.15913818 -0.14014122 0.22081238
v -0.18845364 -0.13721489 0.20607834
v -0.19196070 -0.13551574 0.19845449
v -0.19244031 -0.13421134 0.19357000
v -0.19097153 -0.13410835 0.19694383
v -0.18587580 -0.13082161 0.19621871
v -0.17757275 -0.12647074 0.19711503
v -0.17550447 -0.12600734 0.19824301
v -0.17427551 -0.12435967 0.19575545
v -0.17247702 -0.12393059 0.19519146
v -0.17037877 -0.12332988 0.19344915
v -0.16006740 -0.12081546 0.18588574
v -0.16165606 -0.12106434 0.18588574
v -0.15077518 -0.12099568 0.19282475
v -0.15233387 -0.12115873 0.19363044
v -0.15080515 -0.12187101 0.19619857
v -0.15155451 -0.12255753 0.19829337
v -0.15074520 -0.12343286 0.20066008
v -0.15233387 -0.12546670 0.20450724
v -0.15545125 -0.12847883 0.21001613
v -0.15542128 -0.13083877 0.21396402
v -0.15853868 -0.12944855 0.21134552
v -0.15695001 -0.13054700 0.21348061
v -0.14768775 -0.14079342 0.22239354
v -0.15695001 -0.13167118 0.21460857
v -0.15769937 -0.13665709 0.21902978
v -0.15985758 -0.13767830 0.21941249
v -0.16207572 -0.13927448 0.21951320
v -0.14298169 -0.14256123 0.22331002
v -0.15542128 -0.12047220 0.18741656
v -0.15386258 -0.12054945 0.18897759
v -0.15781928 -0.12049795 0.18588574
v -0.15227391 -0.12082405 0.19207947
v -0.15386258 -0.12069533 0.19051845
v -0.16354448 -0.14073335 0.21935207
v -0.17166769 -0.14033001 0.21609910
v -0.17724303 -0.13864802 0.21306768
v -0.18512642 -0.13701752 0.20847527
v -0.18695490 -0.13680298 0.20722644
v -0.14454039 -0.14256123 0.22317909
v -0.18854357 -0.13573028 0.20343969
v -0.18995240 -0.13541276 0.20102263
v -0.18347781 -0.13189431 0.20151612
v -0.18057025 -0.12961160 0.20013638
v -0.17808232 -0.12777515 0.19918969
v -0.18104984 -0.13092459 0.20220096
v -0.17871179 -0.12931983 0.20132476
v -0.17643369 -0.13246069 0.20840476
v -0.17196743 -0.12773223 0.20391305
v -0.17313647 -0.12631627 0.20056943
v -0.17232714 -0.12466002 0.19735675
v -0.17094828 -0.12423095 0.19674240
v -0.17094828 -0.12373321 0.19519146
v -0.16786088 -0.12305526 0.19398293
v -0.15709988 -0.12061809 0.18743670
v -0.15386258 -0.12090129 0.19207947
v -0.15446208 -0.12139044 0.19382178
v -0.15233387 -0.12193107 0.19616835
v -0.15233387 -0.12320115 0.19981409
v -0.15476183 -0.12316683 0.19909905
v -0.15221396 -0.12386193 0.20131470
v -0.15233387 -0.12471152 0.20300665
v -0.16396414 -0.12783521 0.20683367
v -0.16600244 -0.12929408 0.20935145
v -0.16006740 -0.12954295 0.21117431
v -0.15386258 -0.12459995 0.20246280
v -0.16780092 -0.12942281 0.20912987
v -0.16318478 -0.13056416 0.21186923
v -0.15880845 -0.13113055 0.21363167
v -0.15895832 -0.13512957 0.21738820
v -0.16555280 -0.13246069 0.21304755
v -0.16162609 -0.13771263 0.21878808
v -0.15542128 -0.12064383 0.18897759
v -0.17955110 -0.13399680 0.20842489
v -0.16480343 -0.13402255 0.21459849
v -0.18590577 -0.13564447 0.20628982
v -0.18710477 -0.13567021 0.20511151
v -0.17031881 -0.13064998 0.20960323
v -0.17271681 -0.13083877 0.20850547
v -0.17247702 -0.13016082 0.20759907
v -0.17025886 -0.12957728 0.20824363
v -0.16989918 -0.12787812 0.20520214
v -0.17094828 -0.12625620 0.20132476
v -0.16165606 -0.12329555 0.19718554
v -0.16627221 -0.12368172 0.19674240
v -0.16558278 -0.12314109 0.19539288
v -0.15742960 -0.12150200 0.19289524
v -0.15542128 -0.12109008 0.19207947
v -0.15709988 -0.12107292 0.19052853
v -0.15542128 -0.12084980 0.19051845
v -0.15386258 -0.12182810 0.19535260
v -0.15542128 -0.12468577 0.20227146
v -0.16780092 -0.12868479 0.20759907
v -0.16753115 -0.13079586 0.21086212
v -0.16471351 -0.13075296 0.21165773
f 1 2 3
f 1 3 4
f 1 4 5
f 1 5 2
f 2 5 6
f 2 6 7
f 2 7 3
f 3 8 4
f 3 7 9
f 3 9 10
f 3 10 11
f 3 11 12
f 3 12 8
f 4 13 5
f 4 8 13
f 5 14 6
f 5 13 15
f 5 15 16
f 5 16 17
f 5 17 14
f 6 14 7
f 7 14 9
f 8 18 13
f 8 12 18
f 9 14 19
f 9 19 20
f 9 20 21
f 9 21 10
f 10 22 23
f 10 23 24
f 10 24 25
f 10 25 26
f 10 26 11
f 10 21 27
f 10 27 28
f 10 28 29
f 10 29 30
f 10 30 22
f 11 26 31
f 11 31 32
f 11 32 33
f 11 33 12
f 12 33 34
f 12 34 35
f 12 35 36
f 12 36 37
f 12 37 38
f 12 38 39
f 12 39 40
f 12 40 41
f 12 41 42
f 12 42 43
f 12 43 18
f 13 18 44
f 13 44 15
f 14 17 19
f 15 45 86
f 15 86 164
f 15 164 200
f 15 200 199
f 15 199 198
f 15 198 197
f 15 197 196
f 15 196 195
f 15 195 194
f 15 194 110
f 15 110 48
f 15 48 16
f 15 44 46
f 15 46 47
f 15 47 45
f 16 48 49
f 16 49 17
f 17 49 60
f 17 60 27
f 17 27 21
f 17 21 20
f 17 20 19
f 18 43 50
f 18 50 51
f 18 51 52
f 18 52 53
f 18 53 44
f 22 54 55
f 22 55 56
f 22 56 23
f 22 30 54
f 23 57 24
f 23 56 58
f 23 58 57
f 24 57 25
f 25 31 26
f 25 57 59
f 25 59 32
f 25 32 31
f 27 29 28
f 27 60 30
f 27 30 29
f 30 60 61
f 30 61 62
f 30 62 63
f 30 63 64
f 30 64 65
f 30 65 66
f 30 66 67
f 30 67 68
f 30 68 54
f 32 59 69
f 32 69 70
f 32 70 33
f 33 70 71
f 33 71 34
f 34 71 35
f 35 71 72
f 35 72 36
f 36 72 73
f 36 73 74
f 36 74 37
f 37 75 38
f 37 74 75
f 38 75 76
f 38 76 39
f 39 76 77
f 39 77 78
f 39 78 40
f 40 78 79
f 40 79 80
f 40 80 81
f 40 81 82
f 40 82 41
f 41 82 83
f 41 83 42
f 42 84 50
f 42 50 43
f 42 83 84
f 44 53 85
f 44 85 46
f 45 47 87
f 45 87 88
f 45 88 89
f 45 89 90
f 45 90 91
f 45 91 92
f 45 92 93
f 45 93 94
f 45 94 95
f 45 95 96
f 45 96 97
f 45 97 98
f 45 98 99
f 45 99 100
f 45 100 101
f 45 101 102
f 45 102 103
f 45 103 104
f 45 104 86
f 46 105 47
f 46 85 106
f 46 106 107
f 46 107 105
f 47 105 108
f 47 108 109
f 47 109 87
f 48 110 104
f 48 104 111
f 48 111 61
f 48 61 60
f 48 60 49
f 50 84 112
f 50 112 113
f 50 113 114
f 50 114 115
f 50 115 51
f 51 53 52
f 51 115 116
f 51 116 53
f 53 116 85
f 54 68 117
f 54 117 118
f 54 118 119
f 54 119 120
f 54 120 121
f 54 121 122
f 54 122 123
f 54 123 124
f 54 124 125
f 54 125 55
f 55 126 56
f 55 125 126
f 56 126 127
f 56 127 58
f 57 58 69
f 57 69 59
f 58 127 69
f 61 111 128
f 61 128 62
f 62 128 129
f 62 129 130
f 62 130 131
f 62 131 63
f 63 131 132
f 63 132 133
f 63 133 134
f 63 134 64
f 64 134 135
f 64 135 136
f 64 136 137
f 64 137 65
f 65 137 138
f 65 138 66
f 66 138 67
f 67 138 139
f 67 139 68
f 68 139 140
f 68 140 117
f 69 127 141
f 69 141 142
f 69 142 143
f 69 143 144
f 69 144 145
f 69 145 146
f 69 146 70
f 70 146 71
f 71 146 147
f 71 147 148
f 71 148 72
f 72 148 147
f 72 147 149
f 72 149 150
f 72 150 151
f 72 151 73
f 73 151 152
f 73 152 74
f 74 152 75
f 75 152 153
f 75 153 154
f 75 154 76
f 76 154 77
f 77 155 156
f 77 156 78
f 77 154 155
f 78 156 79
f 79 156 81
f 79 81 80
f 81 156 155
f 81 155 157
f 81 157 158
f 81 158 159
f 81 159 82
f 82 159 160
f 82 160 83
f 83 161 84
f 83 160 161
f 84 162 112
f 84 161 162
f 85 163 106
f 85 116 163
f 86 104 164
f 87 109 165
f 87 165 88
f 88 165 89
f 89 165 166
f 89 166 90
f 90 166 167
f 90 167 91
f 91 167 168
f 91 168 169
f 91 169 170
f 91 170 171
f 91 171 172
f 91 172 93
f 91 93 92
f 93 172 94
f 94 173 174
f 94 174 95
f 94 172 175
f 94 175 173
f 95 174 96
f 96 176 177
f 96 177 97
f 96 174 178
f 96 178 176
f 97 177 179
f 97 179 180
f 97 180 98
f 98 180 181
f 98 181 182
f 98 182 183
f 98 183 99
f 99 183 184
f 99 184 100
f 100 184 101
f 101 184 185
f 101 185 186
f 101 186 187
f 101 187 188
f 101 188 189
f 101 189 102
f 102 190 191
f 102 191 192
f 102 192 103
f 102 189 190
f 103 193 104
f 103 192 129
f 103 129 193
f 104 193 111
f 104 110 194
f 104 194 195
f 104 195 196
f 104 196 197
f 104 197 198
f 104 198 199
f 104 199 200
f 104 200 164
f 105 201 108
f 105 107 106
f 105 106 202
f 105 202 201
f 106 203 202
f 106 163 116
f 106 116 204
f 106 204 203
f 108 205 109
f 108 201 202
f 108 202 203
f 108 203 206
f 108 206 207
f 108 207 205
f 109 205 165
f 111 193 129
f 111 129 128
f 112 162 113
f 113 162 114
f 114 208 209
f 114 209 115
f 114 162 210
f 114 210 208
f 115 209 116
f 116 209 211
f 116 211 204
f 117 140 212
f 117 212 118
f 118 213 214
f 118 214 119
f 118 212 215
f 118 215 213
f 119 214 216
f 119 216 120
f 120 216 217
f 120 217 218
f 120 218 121
f 121 219 220
f 121 220 122
f 121 218 219
f 122 218 221
f 122 221 123
f 122 220 219
f 122 219 218
f 123 221 124
f 124 221 222
f 124 222 223
f 124 223 224
f 124 224 225
f 124 225 125
f 125 225 126
f 126 226 127
f 126 225 224
f 126 224 226
f 127 226 227
f 127 227 228
f 127 228 141
f 129 192 229
f 129 229 230
f 129 230 130
f 130 230 131
f 131 230 231
f 131 231 132
f 132 232 133
f 132 231 230
f 132 230 232
f 133 233 234
f 133 234 235
f 133 235 236
f 133 236 134
f 133 232 233
f 134 236 135
f 135 236 237
f 135 237 238
f 135 238 239
f 135 239 136
f 136 239 240
f 136 240 241
f 136 241 137
f 137 241 138
f 138 242 140
f 138 140 243
f 138 243 139
f 138 241 242
f 139 243 140
f 140 242 215
f 140 215 212
f 141 228 142
f 142 228 244
f 142 244 245
f 142 245 143
f 143 245 246
f 143 246 145
f 143 145 144
f 145 247 248
f 145 248 146
f 145 246 247
f 146 248 147
f 147 248 249
f 147 249 250
f 147 250 151
f 147 151 149
f 149 151 150
f 151 251 152
f 151 250 252
f 151 252 251
f 152 251 153
f 153 253 254
f 153 254 154
f 153 251 255
f 153 255 256
f 153 256 257
f 153 257 253
f 154 254 155
f 155 258 157
f 155 254 258
f 157 259 260
f 157 260 261
f 157 261 158
f 157 258 259
f 158 261 262
f 158 262 159
f 159 262 160
f 160 262 161
f 161 262 263
f 161 263 264
f 161 264 265
f 161 265 266
f 161 266 162
f 162 266 210
f 165 205 166
f 166 207 267
f 166 267 167
f 166 205 207
f 167 267 268
f 167 268 269
f 167 269 270
f 167 270 271
f 167 271 272
f 167 272 273
f 167 273 274
f 167 274 168
f 168 274 275
f 168 275 276
f 168 276 277
f 168 277 169
f 169 277 278
f 169 278 279
f 169 279 170
f 170 279 280
f 170 280 171
f 171 280 172
f 172 280 175
f 173 281 282
f 173 282 283
f 173 283 284
f 173 284 285
f 173 285 174
f 173 175 286
f 173 286 281
f 174 285 178
f 175 280 286
f 176 178 287
f 176 287 180
f 176 180 179
f 176 179 177
f 178 285 284
f 178 284 288
f 178 288 287
f 180 287 181
f 181 183 182
f 181 287 288
f 181 288 289
f 181 289 290
f 181 290 183
f 183 290 291
f 183 291 184
f 184 291 185
f 185 291 186
f 186 292 187
f 186 291 293
f 186 293 292
f 187 294 188
f 187 292 295
f 187 295 294
f 188 296 189
f 188 294 297
f 188 297 296
f 189 296 190
f 190 296 191
f 191 296 192
f 192 296 229
f 203 204 298
f 203 298 299
f 203 299 206
f 204 211 300
f 204 300 301
f 204 301 302
f 204 302 303
f 204 303 298
f 206 299 304
f 206 304 207
f 207 305 267
f 207 304 305
f 208 210 306
f 208 306 211
f 208 211 209
f 210 266 307
f 210 307 300
f 210 300 306
f 211 306 300
f 213 308 216
f 213 216 214
f 213 215 309
f 213 309 308
f 215 310 311
f 215 311 309
f 215 242 312
f 215 312 310
f 216 308 313
f 216 313 217
f 217 313 218
f 218 313 314
f 218 314 315
f 218 315 221
f 221 316 222
f 221 315 317
f 221 317 316
f 222 316 318
f 222 318 319
f 222 319 226
f 222 226 320
f 222 320 223
f 223 320 224
f 224 320 226
f 226 319 227
f 227 319 318
f 227 318 228
f 228 318 321
f 228 321 322
f 228 322 244
f 229 296 297
f 229 297 323
f 229 323 230
f 230 323 324
f 230 324 325
f 230 325 232
f 232 325 233
f 233 237 234
f 233 325 324
f 233 324 237
f 234 237 235
f 235 237 236
f 237 324 326
f 237 326 238
f 238 326 239
f 239 327 328
f 239 328 329
f 239 329 240
f 239 326 327
f 240 329 241
f 241 330 242
f 241 329 330
f 242 330 312
f 244 322 331
f 244 331 332
f 244 332 333
f 244 333 245
f 245 333 334
f 245 334 246
f 246 334 335
f 246 335 247
f 247 249 248
f 247 335 336
f 247 336 249
f 249 336 252
f 249 252 250
f 251 252 337
f 251 337 255
f 252 336 337
f 253 257 254
f 254 257 338
f 254 338 258
f 255 337 339
f 255 339 340
f 255 340 341
f 255 341 256
f 256 341 342
f 256 342 343
f 256 343 257
f 257 343 344
f 257 344 345
f 257 345 346
f 257 346 338
f 258 338 259
f 259 338 345
f 259 345 344
f 259 344 347
f 259 347 348
f 259 348 349
f 259 349 350
f 259 350 260
f 260 350 351
f 260 351 261
f 261 351 352
f 261 352 263
f 261 263 262
f 263 352 264
f 264 352 353
f 264 353 354
f 264 354 265
f 265 354 266
f 266 355 307
f 266 354 355
f 267 305 268
f 268 305 356
f 268 356 269
f 269 356 299
f 269 299 298
f 269 298 270
f 270 298 357
f 270 357 271
f 271 357 358
f 271 358 359
f 271 359 272
f 272 360 273
f 272 359 360
f 273 360 361
f 273 361 274
f 274 361 362
f 274 362 363
f 274 363 275
f 275 363 276
f 276 363 362
f 276 362 364
f 276 364 365
f 276 365 277
f 277 365 366
f 277 366 278
f 278 366 279
f 279 366 286
f 279 286 280
f 281 366 367
f 281 367 282
f 281 286 366
f 282 367 368
f 282 368 369
f 282 369 283
f 283 369 370
f 283 370 371
f 283 371 372
f 283 372 373
f 283 373 284
f 284 373 374
f 284 374 288
f 288 374 372
f 288 372 289
f 289 375 290
f 289 372 376
f 289 376 377
f 289 377 378
f 289 378 375
f 290 375 379
f 290 379 380
f 290 380 293
f 290 293 291
f 292 293 295
f 293 380 295
f 294 381 297
f 294 295 381
f 295 380 382
f 295 382 381
f 297 381 383
f 297 383 323
f 298 303 384
f 298 384 358
f 298 358 357
f 299 356 305
f 299 305 304
f 300 307 355
f 300 355 353
f 300 353 352
f 300 352 301
f 301 385 302
f 301 352 386
f 301 386 385
f 302 385 387
f 302 387 388
f 302 388 303
f 303 388 389
f 303 389 384
f 308 309 390
f 308 390 391
f 308 391 392
f 308 392 393
f 308 393 394
f 308 394 314
f 308 314 313
f 309 311 390
f 310 312 395
f 310 395 311
f 311 395 390
f 312 330 396
f 312 396 395
f 314 394 317
f 314 317 397
f 314 397 315
f 315 397 317
f 316 398 318
f 316 317 399
f 316 399 398
f 317 394 400
f 317 400 393
f 317 393 401
f 317 401 399
f 318 398 402
f 318 402 321
f 321 402 398
f 321 398 403
f 321 403 322
f 322 403 404
f 322 404 331
f 323 383 405
f 323 405 406
f 323 406 326
f 323 326 324
f 326 406 327
f 327 407 328
f 327 406 408
f 327 408 407
f 328 407 409
f 328 409 329
f 329 409 330
f 330 409 396
f 331 333 332
f 331 404 399
f 331 399 401
f 331 401 410
f 331 410 333
f 333 411 334
f 333 410 411
f 334 411 335
f 335 411 339
f 335 339 336
f 336 339 412
f 336 412 337
f 337 412 339
f 338 346 345
f 339 411 413
f 339 413 340
f 340 413 414
f 340 414 341
f 341 415 342
f 341 414 415
f 342 415 343
f 343 415 416
f 343 416 417
f 343 417 344
f 344 417 418
f 344 418 419
f 344 419 347
f 347 419 348
f 348 420 421
f 348 421 349
f 348 419 420
f 349 421 350
f 350 421 420
f 350 420 386
f 350 386 352
f 350 352 351
f 353 355 354
f 358 384 389
f 358 389 422
f 358 422 359
f 359 422 361
f 359 361 360
f 361 422 423
f 361 423 424
f 361 424 362
f 362 424 425
f 362 425 364
f 364 425 426
f 364 426 368
f 364 368 365
f 365 368 367
f 365 367 366
f 368 426 427
f 368 427 369
f 369 427 370
f 370 427 428
f 370 428 371
f 371 429 372
f 371 428 430
f 371 430 431
f 371 431 429
f 372 374 373
f 372 429 376
f 375 378 432
f 375 432 379
f 376 433 434
f 376 434 377
f 376 429 433
f 377 434 435
f 377 435 436
f 377 436 409
f 377 409 407
f 377 407 378
f 378 407 432
f 379 405 383
f 379 383 380
f 379 432 437
f 379 437 406
f 379 406 405
f 380 383 382
f 381 382 383
f 385 386 438
f 385 438 439
f 385 439 387
f 386 420 440
f 386 440 438
f 387 441 388
f 387 439 442
f 387 442 441
f 388 441 389
f 389 441 422
f 390 395 396
f 390 396 443
f 390 443 444
f 390 444 436
f 390 436 445
f 390 445 391
f 391 445 392
f 392 446 393
f 392 445 446
f 393 446 447
f 393 447 401
f 393 400 394
f 396 409 443
f 398 404 403
f 398 399 404
f 401 447 410
f 406 437 408
f 407 408 432
f 408 437 448
f 408 448 432
f 409 436 443
f 410 447 449
f 410 449 450
f 410 450 411
f 411 450 413
f 413 450 414
f 414 450 451
f 414 451 415
f 415 451 452
f 415 452 453
f 415 453 416
f 416 453 454
f 416 454 455
f 416 455 456
f 416 456 457
f 416 457 458
f 416 458 417
f 417 458 459
f 417 459 460
f 417 460 418
f 418 460 461
f 418 461 462
f 418 462 419
f 419 462 463
f 419 463 440
f 419 440 420
f 422 441 423
f 423 464 465
f 423 465 466
f 423 466 424
f 423 441 464
f 424 466 425
f 425 467 426
f 425 466 468
f 425 468 467
f 426 467 469
f 426 469 470
f 426 470 427
f 427 470 428
f 428 470 469
f 428 469 430
f 429 431 433
f 430 471 472
f 430 472 473
f 430 473 431
f 430 469 474
f 430 474 471
f 431 473 475
f 431 475 476
f 431 476 477
f 431 477 433
f 432 448 437
f 433 477 478
f 433 478 434
f 434 478 435
f 435 478 479
f 435 479 480
f 435 480 436
f 436 480 445
f 436 444 443
f 438 481 442
f 438 442 439
f 438 440 481
f 440 463 481
f 441 442 464
f 442 481 464
f 445 482 446
f 445 480 483
f 445 483 482
f 446 482 447
f 447 484 485
f 447 485 449
f 447 482 484
f 449 485 450
f 450 485 451
f 451 485 452
f 452 485 453
f 453 485 454
f 454 456 455
f 454 485 484
f 454 484 456
f 456 484 482
f 456 482 486
f 456 486 487
f 456 487 488
f 456 488 457
f 457 488 489
f 457 489 490
f 457 490 458
f 458 490 491
f 458 491 459
f 459 491 468
f 459 468 460
f 460 468 492
f 460 492 493
f 460 493 494
f 460 494 461
f 461 494 495
f 461 495 462
f 462 495 496
f 462 496 497
f 462 497 463
f 463 497 498
f 463 498 481
f 464 481 498
f 464 498 496
f 464 496 495
f 464 495 465
f 465 499 466
f 465 495 494
f 465 494 492
f 465 492 499
f 466 499 468
f 467 468 469
f 468 500 469
f 468 499 492
f 468 491 471
f 468 471 500
f 469 500 471
f 469 471 474
f 471 491 501
f 471 501 472
f 472 501 475
f 472 475 473
f 475 501 490
f 475 490 489
f 475 489 486
f 475 486 502
f 475 502 503
f 475 503 476
f 476 503 477
f 477 503 478
f 478 503 479
f 479 503 502
f 479 502 486
f 479 486 482
f 479 482 483
f 479 483 480
f 486 489 487
f 487 489 488
f 490 501 491
f 492 494 493
f 496 498 497

