# https://github.com/mikedh/trimesh
v -0.14144518 0.13977940 0.01115745
v -0.23919864 0.13977940 0.01115745
v -0.14534547 0.12536217 0.01109923
v -0.14565620 0.12536217 0.00511703
v -0.14603123 0.12537694 -0.00028295
v -0.14771349 0.12539170 -0.01505651
v -0.14418824 0.17839276 -0.06544672
v -0.14350248 0.18480369 -0.06540306
v -0.14283815 0.19489280 -0.06735346
v -0.14284886 0.20162872 -0.06972596
v -0.14432754 0.20725676 -0.06078905
v -0.14490615 0.17526114 -0.00483874
v -0.14632054 0.18348901 -0.00483874
v -0.15577121 0.20276615 -0.00483874
v -0.17005439 0.21403699 -0.00483874
v -0.18130520 0.21826172 -0.00483874
v -0.20585340 0.22600211 -0.00607594
v -0.21777926 0.22653390 -0.00607594
v -0.24271320 0.18179025 -0.00502796
v -0.24357039 0.12536217 0.00792620
v -0.23204100 0.21377110 -0.00494063
v -0.23965941 0.19861528 -0.00549373
v -0.17362251 0.12537694 -0.06087638
v -0.16811497 0.12537694 -0.05672814
v -0.15540691 0.12537694 -0.03936375
v -0.15202095 0.12595303 -0.03214436
v -0.14649197 0.17786097 -0.07623215
v -0.14536690 0.17763940 -0.07107960
v -0.14628839 0.18735921 -0.08387365
v -0.14554905 0.19415422 -0.08547472
v -0.14337390 0.20446490 -0.07892487
v -0.14349176 0.20929527 -0.08182136
v -0.14398465 0.21443582 -0.07880842
v -0.14461684 0.21575052 -0.07161814
v -0.14479900 0.21637093 -0.07068660
v -0.14679200 0.22310686 -0.06848877
v -0.14959935 0.22860194 -0.06460252
v -0.15424967 0.23824790 -0.06639281
v -0.15673557 0.23776044 -0.05904242
v -0.15944649 0.23660823 -0.05237612
v -0.16434327 0.23635712 -0.04371576
v -0.16647555 0.23560375 -0.03907265
v -0.17131877 0.24335893 -0.04457453
v -0.19520264 0.25752504 -0.04196914
v -0.19993868 0.25142431 -0.03074705
v -0.20357109 0.24950397 -0.02761768
v -0.20718206 0.23476176 -0.01360099
v -0.21438258 0.23827744 -0.01576972
v -0.21802571 0.23263464 -0.01051528
v -0.23162312 0.22056611 -0.00857944
v -0.22364038 0.23165970 -0.01229102
v -0.24274534 0.18876253 -0.00738591
v -0.24463118 0.19802442 -0.01499830
v -0.24342039 0.12537694 -0.00195680
v -0.23939152 0.12537694 -0.01921931
v -0.23679848 0.12537694 -0.02485218
v -0.24613129 0.20802489 -0.02210125
v -0.25089950 0.22063997 -0.03993140
v -0.25085663 0.22050703 -0.04594272
v -0.24152382 0.23129040 -0.02662792
v -0.24346324 0.21870488 -0.02127160
v -0.24003444 0.20424332 -0.00875410
v -0.24142738 0.20673974 -0.01211636
v -0.18828070 0.12549512 -0.06901275
v -0.18415540 0.13279235 -0.07704724
v -0.18238741 0.13722388 -0.08158847
v -0.17491903 0.14836179 -0.09097660
v -0.17224026 0.15329555 -0.09519762
v -0.16807210 0.15753505 -0.09577983
v -0.16212524 0.15979512 -0.09021973
v -0.15431397 0.16189270 -0.07976907
v -0.15158162 0.16537883 -0.07863376
v -0.14898859 0.18583773 -0.09129682
v -0.15127089 0.17105120 -0.08358254
v -0.14835640 0.19099306 -0.09299978
v -0.14637411 0.19409513 -0.08866231
v -0.14592408 0.19409513 -0.08710490
v -0.14492759 0.20956115 -0.09176258
v -0.14514188 0.21109741 -0.09331999
v -0.14465970 0.21264845 -0.08866231
v -0.14478828 0.21806969 -0.08479063
v -0.14570978 0.22316594 -0.08725046
v -0.14535618 0.22263415 -0.07809522
v -0.14740276 0.22970982 -0.07936153
v -0.14869928 0.23035978 -0.07269523
v -0.15177450 0.23950350 -0.07844454
v -0.15339248 0.23950350 -0.07221490
v -0.15773207 0.24146815 -0.06343810
v -0.16248957 0.24443726 -0.06004674
v -0.16563979 0.23818880 -0.04457453
v -0.17109375 0.24978464 -0.05550550
v -0.19213812 0.26607787 -0.05939175
v -0.19482760 0.26485182 -0.05444297
v -0.20241386 0.26338942 -0.04665592
v -0.20186740 0.25762844 -0.03795189
v -0.20351752 0.25501383 -0.03400742
v -0.21580768 0.25081865 -0.02751579
v -0.21826143 0.24134996 -0.01812767
v -0.21922579 0.23622418 -0.01386299
v -0.22622272 0.23758317 -0.01802578
v -0.23041231 0.22708045 -0.01246569
v -0.23135523 0.24146815 -0.02387699
v -0.23578055 0.23948873 -0.02590016
v -0.24370969 0.18170164 -0.06960952
v -0.24269176 0.18158345 -0.07502406
v -0.23939152 0.16918995 -0.07286990
v -0.23539481 0.15827363 -0.07259334
v -0.23359468 0.14856859 -0.06426775
v -0.22919079 0.13738637 -0.05699014
v -0.22607271 0.13042887 -0.05307478
v -0.22220457 0.12590872 -0.05340955
v -0.24710637 0.21925143 -0.02932064
v -0.24861719 0.22146718 -0.03408020
v -0.24923865 0.22727248 -0.03997507
v -0.24999944 0.22660776 -0.04218746
v -0.24987084 0.22970982 -0.04760201
v -0.25082449 0.22325456 -0.04664136
v -0.24994585 0.22428859 -0.05608771
v -0.25034231 0.22155582 -0.05109527
v -0.24928152 0.21802536 -0.05696102
v -0.24382756 0.19542459 -0.08230168
v -0.24089163 0.23672640 -0.03004840
v -0.24561697 0.23510152 -0.03760257
v -0.24500621 0.22383066 -0.02757401
v -0.21818643 0.12629278 -0.05838744
v -0.20626057 0.12728249 -0.06908553
v -0.20336750 0.13325028 -0.07761490
v -0.19886718 0.13908513 -0.08470330
v -0.19178452 0.14601308 -0.09276689
v -0.18555907 0.14054753 -0.08640626
v -0.18432685 0.14218719 -0.08783267
v -0.17812283 0.14995714 -0.09404775
v -0.17414754 0.15688509 -0.09952052
v -0.16464328 0.17982561 -0.11145582
v -0.16236097 0.17379873 -0.10430919
v -0.16433255 0.16390167 -0.09773022
v -0.16206096 0.16976605 -0.10043750
v -0.15882500 0.16890929 -0.09448441
v -0.15548191 0.16695942 -0.08711947
v -0.15704632 0.16308922 -0.08556205
v -0.15158162 0.17468505 -0.08792000
v -0.15166735 0.18967838 -0.10097604
v -0.14645983 0.20622274 -0.09631837
v -0.14664199 0.21378588 -0.09976796
v -0.14687771 0.22010818 -0.09906931
v -0.14589193 0.21885258 -0.09331999
v -0.14678128 0.22702137 -0.09295611
v -0.14882786 0.23434815 -0.09487741
v -0.14926717 0.23514583 -0.08183591
v -0.15131376 0.24070000 -0.08730868
v -0.15281386 0.24179312 -0.08090437
v -0.16014296 0.25214811 -0.08540194
v -0.16190022 0.24813021 -0.06776101
v -0.16894002 0.25198563 -0.06285589
v -0.17501545 0.25753980 -0.06503918
v -0.18573052 0.26770277 -0.07238957
v -0.19058444 0.26844136 -0.06712057
v -0.20049587 0.27064234 -0.06316155
v -0.20398897 0.26906177 -0.05623326
v -0.21127522 0.26322693 -0.04421064
v -0.20863931 0.26064187 -0.04035351
v -0.21977225 0.24522016 -0.02199936
v -0.21652558 0.25851473 -0.03691847
v -0.21854003 0.25694894 -0.03506996
v -0.22523693 0.24715527 -0.02624949
v -0.23235173 0.24535311 -0.02809800
v -0.23533053 0.24600307 -0.03207158
v -0.23868432 0.24322599 -0.03329422
v -0.24008799 0.24155676 -0.03345433
v -0.23979869 0.17564521 -0.07841543
v -0.24169527 0.19487804 -0.09021973
v -0.23750568 0.16991377 -0.07969629
v -0.23057303 0.15777139 -0.08000195
v -0.23033730 0.14921854 -0.07075938
v -0.23361611 0.15317738 -0.06976963
v -0.23558769 0.16474366 -0.07914320
v -0.23351967 0.16580722 -0.08369899
v -0.22928723 0.13878969 -0.05872221
v -0.22292248 0.13746023 -0.06771734
v -0.22097233 0.13141858 -0.06231735
v -0.24749211 0.23718433 -0.04570983
v -0.24765283 0.24186698 -0.05691736
v -0.24804929 0.24161586 -0.06272490
v -0.24914223 0.23510152 -0.06102193
v -0.24994585 0.22970982 -0.05457397
v -0.24923865 0.22737589 -0.06307422
v -0.24300249 0.21264845 -0.09687147
v -0.24333466 0.20176166 -0.08876421
v -0.24417044 0.24148290 -0.04087750
v -0.22127236 0.13521492 -0.06685858
v -0.21979368 0.13849425 -0.07234590
v -0.21256103 0.13791816 -0.07776045
v -0.20432114 0.13802156 -0.08262190
v -0.20043157 0.13986802 -0.08540194
v -0.19964939 0.14899696 -0.09499384
v -0.19116306 0.15178883 -0.09841432
v -0.18652343 0.15102070 -0.09759923
v -0.18282674 0.14840610 -0.09404775
v -0.18186239 0.14704709 -0.09225746
v -0.18224813 0.16410848 -0.10867576
v -0.17496188 0.17167161 -0.11112104
v -0.16894002 0.18390262 -0.11704502
v -0.16555406 0.18552751 -0.11582238
v -0.15556763 0.19490757 -0.11066982
v -0.15326390 0.19356334 -0.10636148
v -0.15460327 0.18059374 -0.09831244
v -0.15703559 0.17238066 -0.09487741
v -0.15130305 0.20736015 -0.10947630
v -0.14942791 0.21575052 -0.10767145
v -0.14839925 0.21730154 -0.10524072
v -0.15013509 0.22609074 -0.10911242
v -0.14872071 0.23160060 -0.10174747
v -0.14755277 0.22815880 -0.09796311
v -0.15068157 0.23653437 -0.10598304
v -0.15139947 0.24037502 -0.09976796
v -0.14986722 0.23721387 -0.09331999
v -0.15285673 0.24397934 -0.09355288
v -0.15597480 0.24740638 -0.08653725
v -0.16334676 0.25343326 -0.07861921
v -0.16232883 0.25545699 -0.08943374
v -0.16734349 0.25821929 -0.08244724
v -0.17337606 0.25991805 -0.07401975
v -0.17485473 0.26152817 -0.07543161
v -0.17507975 0.25981466 -0.07068660
v -0.18375894 0.26678692 -0.07340844
v -0.18385538 0.26792435 -0.07624671
v -0.18420898 0.26839704 -0.07719279
v -0.19109876 0.27188317 -0.07720735
v -0.19885646 0.27316831 -0.07314644
v -0.20392469 0.27245927 -0.06582516
v -0.21117878 0.27034691 -0.05685914
v -0.21625772 0.26166112 -0.04147426
v -0.21670775 0.26615173 -0.04915942
v -0.22437974 0.25991805 -0.04143059
v -0.23110878 0.25533882 -0.03843222
v -0.23036944 0.25080388 -0.03246457
v -0.23512692 0.25202994 -0.03849043
v -0.23926294 0.25174928 -0.04306078
v -0.23883434 0.24780522 -0.03824300
v -0.23900578 0.19425761 -0.09724991
v -0.24156669 0.20548415 -0.09729357
v -0.23691635 0.18625133 -0.09570705
v -0.23530908 0.17320787 -0.08786178
v -0.22562269 0.15038551 -0.07955075
v -0.22835502 0.16540838 -0.09021973
v -0.22334038 0.14401888 -0.07546072
v -0.24466334 0.24917900 -0.05370065
v -0.24392400 0.25356620 -0.06327799
v -0.24578842 0.24863243 -0.06428231
v -0.24610988 0.24731775 -0.07161814
v -0.24795286 0.24074432 -0.06912920
v -0.24795286 0.23613554 -0.07179280
v -0.24808144 0.22968028 -0.07160359
v -0.24683849 0.23319596 -0.08013295
v -0.24219888 0.21515965 -0.10046661
v -0.24205957 0.25397981 -0.05317666
v -0.21900077 0.14294055 -0.07854643
v -0.20813571 0.14565855 -0.08902619
v -0.20484618 0.14802203 -0.09308711
v -0.20410684 0.15435912 -0.09937496
v -0.20043157 0.15858385 -0.10397442
v -0.19057373 0.15858385 -0.10478952
v -0.18498046 0.16892406 -0.11296955
v -0.17711561 0.18678311 -0.12238678
v -0.17209024 0.18836368 -0.12152803
v -0.16772923 0.19771421 -0.12397331
v -0.16394681 0.20400697 -0.12363853
v -0.15565334 0.20100831 -0.11375554
v -0.15551405 0.21112697 -0.11657925
v -0.15205309 0.21699135 -0.11302777
v -0.14974935 0.22063997 -0.10901053
v -0.15358534 0.22495331 -0.11631725
v -0.15442112 0.23954781 -0.11350810
v -0.15301745 0.24143859 -0.10640515
v -0.15696059 0.24845518 -0.10467307
v -0.15756064 0.25005052 -0.10055394
v -0.16208239 0.25584106 -0.09704613
v -0.16735420 0.25901698 -0.08505261
v -0.16550049 0.25851473 -0.09215557
v -0.17305460 0.26259174 -0.08221435
v -0.17890502 0.26588584 -0.07995829
v -0.19088447 0.27327173 -0.08653725
v -0.20018514 0.27556134 -0.08257823
v -0.20482475 0.27588631 -0.07812433
v -0.20459973 0.27398075 -0.07059928
v -0.21721137 0.27433530 -0.07029362
v -0.21962224 0.27291720 -0.06570872
v -0.21677203 0.27042076 -0.05745590
v -0.21980441 0.26368484 -0.04600093
v -0.22010442 0.26779140 -0.05364243
v -0.22524765 0.26189747 -0.04517129
v -0.23058375 0.25885448 -0.04288612
v -0.23530908 0.25530927 -0.04295889
v -0.23369112 0.26300535 -0.05231790
v -0.24018445 0.25870676 -0.05650981
v -0.23848074 0.20090492 -0.10193669
v -0.24049516 0.20978273 -0.10196580
v -0.23177313 0.18427192 -0.10126714
v -0.23491263 0.19659155 -0.10471673
v -0.23260889 0.19146575 -0.10502240
v -0.22788355 0.16958880 -0.09451353
v -0.22312606 0.16304491 -0.09445530
v -0.21904364 0.14647100 -0.08199602
v -0.23986299 0.26000669 -0.05859121
v -0.24367755 0.25412753 -0.07135615
v -0.23750568 0.26454161 -0.06298689
v -0.24038802 0.26044984 -0.07169092
v -0.24437402 0.25195608 -0.07601382
v -0.24642061 0.24467361 -0.07511139
v -0.24753496 0.23651960 -0.07445641
v -0.24465262 0.24629851 -0.08449952
v -0.24585272 0.23810018 -0.08285478
v -0.24154525 0.22207282 -0.10227146
v -0.23928438 0.21678454 -0.10759867
v -0.23791285 0.21105311 -0.10828277
v -0.21529336 0.15754981 -0.09535773
v -0.20517835 0.16685603 -0.10943263
v -0.20335678 0.16121321 -0.10553183
v -0.19702418 0.16139048 -0.10678358
v -0.19251315 0.16775710 -0.11192157
v -0.18929863 0.17241019 -0.11547305
v -0.18468045 0.17790529 -0.11868976
v -0.18419827 0.18985563 -0.12590916
v -0.17304389 0.20736015 -0.13024662
v -0.16857571 0.20640000 -0.12772856
v -0.16335748 0.20954638 -0.12458463
v -0.15888930 0.20759651 -0.12004339
v -0.15861071 0.21335750 -0.12091671
v -0.15533190 0.21730154 -0.11756900
v -0.15730348 0.22713954 -0.12152803
v -0.15618911 0.23241306 -0.11903909
v -0.15663915 0.23589919 -0.11838410
v -0.15774279 0.24304871 -0.11589515
v -0.15772136 0.24459975 -0.11442507
v -0.15654269 0.24584057 -0.11030594
v -0.16177164 0.25468886 -0.10420730
v -0.16690416 0.25996238 -0.09908386
v -0.16975436 0.26183839 -0.09331999
v -0.17492974 0.26458594 -0.08655181
v -0.17318318 0.26463024 -0.09707524
v -0.18061944 0.26867770 -0.10029195
v -0.18593410 0.27115936 -0.10026283
v -0.19040229 0.27315354 -0.09409142
v -0.19774211 0.27485229 -0.09295611
v -0.20590698 0.27559089 -0.09573616
v -0.21051444 0.27624084 -0.08090437
v -0.20970010 0.27559089 -0.07620304
v -0.22043658 0.27406939 -0.07161814
v -0.22509764 0.27098209 -0.06391842
v -0.22312606 0.26931289 -0.05832921
v -0.22750853 0.26237016 -0.04713624
v -0.23350896 0.26590062 -0.05796533
v -0.22586912 0.18425714 -0.10787523
v -0.22309392 0.17130231 -0.10141270
v -0.23054089 0.19517346 -0.10946174
v -0.24091306 0.25917947 -0.07936153
v -0.23144095 0.26860384 -0.06324889
v -0.23541624 0.26776185 -0.07314644
v -0.23690562 0.26612220 -0.07073028
v -0.23579126 0.26745165 -0.07956530
v -0.24303465 0.25417184 -0.08126826
v -0.24314180 0.24417137 -0.09119493
v -0.24283105 0.24981419 -0.08851677
v -0.23817001 0.22815880 -0.11020406
v -0.24140597 0.23979892 -0.09829789
v -0.23993800 0.23932623 -0.10326121
v -0.23722708 0.23601735 -0.11144125
v -0.23611271 0.22030022 -0.11330432
v -0.23434474 0.21155535 -0.11288222
v -0.21076090 0.17140571 -0.10978195
v -0.20947508 0.17274994 -0.11141214
v -0.20352822 0.17585201 -0.11605526
v -0.20254244 0.17477367 -0.11577871
v -0.19388468 0.17601451 -0.11752533
v -0.19116306 0.18567523 -0.12350754
v -0.18600911 0.19777329 -0.12985363
v -0.18098374 0.20870439 -0.13289566
v -0.17803710 0.21074289 -0.13276467
v -0.17215454 0.21716860 -0.13206602
v -0.16595053 0.21843897 -0.12855821
v -0.16285387 0.21552894 -0.12551616
v -0.16028226 0.22251598 -0.12420618
v -0.16160022 0.22739067 -0.12596737
v -0.15961793 0.23409704 -0.12308544
v -0.16442899 0.24538266 -0.12315821
v -0.16338962 0.24978464 -0.11804932
v -0.16482545 0.25392073 -0.11508007
v -0.16538262 0.25535360 -0.11326066
v -0.16778280 0.25926809 -0.10673991
v -0.17068658 0.26284287 -0.10196580
v -0.17645128 0.26542793 -0.10567738
v -0.18265530 0.26855953 -0.10630326
v -0.20352822 0.27336036 -0.10417819
v -0.18794853 0.26838228 -0.11264933
v -0.21466117 0.27545795 -0.08987040
v -0.21219671 0.27318309 -0.10216957
v -0.21589341 0.27429097 -0.09583804
v -0.22089733 0.27458641 -0.08067150
v -0.22369397 0.27336036 -0.07314644
v -0.22615842 0.27251835 -0.07314644
v -0.22512978 0.18740352 -0.11045150
v -0.22197955 0.18007674 -0.10879220
v -0.21485405 0.17651675 -0.11099004
v -0.22644774 0.20072764 -0.11637548
v -0.22479762 0.19498143 -0.11496362
v -0.22831215 0.20542506 -0.11653559
v -0.23924151 0.26078959 -0.08412108
v -0.23070161 0.27061281 -0.07247690
v -0.22801213 0.27231157 -0.07877932
v -0.22916936 0.27093778 -0.08764345
v -0.23329465 0.26826409 -0.08650815
v -0.24072018 0.25637284 -0.08770167
v -0.23600557 0.25582629 -0.10131081
v -0.23462333 0.24198514 -0.11356631
v -0.23085162 0.22818833 -0.11994151
v -0.23188028 0.22084677 -0.11759812
v -0.22877290 0.21074289 -0.11761268
v -0.21061088 0.18084487 -0.11583693
v -0.20829643 0.18001766 -0.11639003
v -0.20387112 0.18131756 -0.11912641
v -0.20279961 0.18554229 -0.12202290
v -0.19855645 0.17964836 -0.11943208
v -0.19299533 0.19238160 -0.12675336
v -0.18753065 0.20498190 -0.13266278
v -0.19964939 0.19495188 -0.12723368
v -0.18695203 0.21467218 -0.13526817
v -0.18176595 0.21710951 -0.13502072
v -0.17492974 0.23059613 -0.13440941
v -0.17114732 0.22854285 -0.13254634
v -0.16546835 0.22349091 -0.12902397
v -0.17183309 0.23697753 -0.13238624
v -0.16796495 0.24163062 -0.12852909
v -0.17100803 0.25485135 -0.12142614
v -0.17185452 0.25910561 -0.11540028
v -0.17182238 0.26148386 -0.10873398
v -0.17861572 0.26372917 -0.11480351
v -0.19693847 0.27003671 -0.11230001
v -0.20309962 0.27182410 -0.10903964
v -0.18772351 0.26535407 -0.11729246
v -0.18402683 0.26465980 -0.11742346
v -0.21128592 0.27065712 -0.10921430
v -0.21436114 0.26951969 -0.11043694
v -0.22360824 0.26922425 -0.10330488
v -0.22525836 0.27081961 -0.09630381
v -0.21896863 0.18490710 -0.11381376
v -0.21236815 0.18620701 -0.11816577
v -0.22149738 0.20244118 -0.12053827
v -0.21836858 0.19474508 -0.11896630
v -0.23725922 0.25892834 -0.09462996
v -0.23146238 0.26810160 -0.09222835
v -0.23208386 0.26384734 -0.09873453
v -0.23198742 0.25978511 -0.10403264
v -0.22820500 0.26002146 -0.10966552
v -0.23047661 0.25182314 -0.11323155
v -0.23433401 0.25027210 -0.10842832
v -0.23015515 0.24637237 -0.11684124
v -0.22445473 0.23969553 -0.12509406
v -0.22607271 0.23434815 -0.12438085
v -0.22913722 0.22270801 -0.12046549
v -0.22511908 0.23293008 -0.12502129
v -0.20690347 0.19267704 -0.12432263
v -0.20488905 0.19659155 -0.12710268
v -0.20223170 0.20390358 -0.13063960
v -0.19425971 0.21207235 -0.13435119
v -0.18883788 0.22388974 -0.13666547
v -0.18468045 0.23579579 -0.13733501
v -0.17968722 0.23705139 -0.13576305
v -0.17649415 0.24520539 -0.13221157
v -0.17801567 0.25683075 -0.12507950
v -0.17760850 0.25858859 -0.12229946
v -0.17767280 0.26166112 -0.11758356
v -0.18042656 0.25096637 -0.13098893
v -0.20084947 0.26501432 -0.12011618
v -0.20197454 0.26864817 -0.11503640
v -0.18504475 0.25801251 -0.12689890
v -0.18217312 0.26172022 -0.12080027
v -0.21015014 0.26736302 -0.11534205
v -0.21636486 0.26780618 -0.11280944
v -0.22115450 0.26777663 -0.10922885
v -0.20898220 0.20028449 -0.12666603
v -0.21407184 0.21084630 -0.12705901
v -0.21385755 0.20471602 -0.12561805
v -0.22220457 0.26262129 -0.11375554
v -0.22460474 0.25513202 -0.11761268
v -0.21944008 0.25124704 -0.12457007
v -0.22023299 0.23895695 -0.12820888
v -0.21968654 0.23124609 -0.12813610
v -0.21028943 0.20762606 -0.12812155
v -0.20228528 0.21027020 -0.13237167
v -0.20231744 0.23290052 -0.13631614
v -0.19105591 0.23359479 -0.13752422
v -0.20049587 0.24440772 -0.13608326
v -0.19229884 0.24985850 -0.13461318
v -0.18363036 0.24558946 -0.13474418
v -0.18785209 0.25347757 -0.13183313
v -0.19175238 0.25753980 -0.12832532
v -0.20266031 0.25411276 -0.13097438
v -0.20798570 0.25774660 -0.12662236
v -0.21474690 0.25959308 -0.12173180
v -0.21358967 0.22688842 -0.13079971
v -0.20577840 0.21885258 -0.13314310
v -0.21341822 0.25287193 -0.12748112
v -0.21467189 0.24660870 -0.12935874
v -0.21594698 0.24058183 -0.13040672
v -0.21498263 0.23903079 -0.13123636
v -0.21492905 0.23297438 -0.13094527
v -0.20771782 0.23589919 -0.13456952
v -0.20329250 0.23903079 -0.13615603
v -0.20728921 0.22458403 -0.13355065
v -0.20228528 0.24985850 -0.13394363
v -0.20897147 0.24074432 -0.13379809
v -0.20784639 0.25223675 -0.13094527
f 1 2 3
f 1 3 4
f 1 4 5
f 1 5 6
f 1 6 7
f 1 7 8
f 1 8 9
f 1 9 10
f 1 10 11
f 1 11 12
f 1 12 13
f 1 13 14
f 1 14 15
f 1 15 16
f 1 16 17
f 1 17 18
f 1 18 2
f 2 19 20
f 2 20 3
f 2 18 21
f 2 21 22
f 2 22 19
f 3 20 4
f 4 20 23
f 4 23 24
f 4 24 25
f 4 25 6
f 4 6 5
f 6 25 26
f 6 26 27
f 6 27 28
f 6 28 7
f 7 28 29
f 7 29 30
f 7 30 31
f 7 31 8
f 8 31 9
f 9 31 10
f 10 31 32
f 10 32 33
f 10 33 34
f 10 34 11
f 11 34 35
f 11 35 12
f 12 35 13
f 13 35 36
f 13 36 37
f 13 37 14
f 14 37 38
f 14 38 39
f 14 39 40
f 14 40 41
f 14 41 42
f 14 42 43
f 14 43 15
f 15 43 44
f 15 44 45
f 15 45 16
f 16 45 46
f 16 46 17
f 17 46 47
f 17 47 48
f 17 48 49
f 17 49 18
f 18 50 21
f 18 49 51
f 18 51 50
f 19 52 53
f 19 53 20
f 19 22 52
f 20 54 55
f 20 55 56
f 20 56 23
f 20 53 57
f 20 57 58
f 20 58 59
f 20 59 54
f 21 50 60
f 21 60 61
f 21 61 62
f 21 62 22
f 22 62 63
f 22 63 52
f 23 56 64
f 23 64 65
f 23 65 66
f 23 66 67
f 23 67 24
f 24 67 68
f 24 68 69
f 24 69 25
f 25 69 70
f 25 70 71
f 25 71 72
f 25 72 26
f 26 72 27
f 27 73 29
f 27 29 28
f 27 72 74
f 27 74 73
f 29 73 75
f 29 75 76
f 29 76 77
f 29 77 30
f 30 77 78
f 30 78 31
f 31 78 32
f 32 78 79
f 32 79 80
f 32 80 81
f 32 81 33
f 33 81 82
f 33 82 83
f 33 83 34
f 34 83 35
f 35 83 36
f 36 83 84
f 36 84 85
f 36 85 37
f 37 85 86
f 37 86 87
f 37 87 38
f 38 87 88
f 38 88 39
f 39 88 40
f 40 88 89
f 40 89 41
f 41 89 90
f 41 90 42
f 42 90 43
f 43 90 91
f 43 91 92
f 43 92 93
f 43 93 44
f 44 93 94
f 44 94 95
f 44 95 45
f 45 95 96
f 45 96 46
f 46 96 97
f 46 97 98
f 46 98 48
f 46 48 47
f 48 98 49
f 49 98 99
f 49 99 100
f 49 100 51
f 50 51 101
f 50 101 102
f 50 102 103
f 50 103 60
f 51 100 101
f 52 63 57
f 52 57 53
f 54 59 104
f 54 104 105
f 54 105 55
f 55 105 106
f 55 106 107
f 55 107 108
f 55 108 56
f 56 109 110
f 56 110 111
f 56 111 64
f 56 108 109
f 57 63 61
f 57 61 112
f 57 112 113
f 57 113 58
f 58 113 114
f 58 114 115
f 58 115 116
f 58 116 117
f 58 117 59
f 59 117 118
f 59 118 119
f 59 119 120
f 59 120 121
f 59 121 104
f 60 103 122
f 60 122 123
f 60 123 124
f 60 124 61
f 61 124 112
f 61 63 62
f 64 111 125
f 64 125 126
f 64 126 127
f 64 127 128
f 64 128 129
f 64 129 130
f 64 130 65
f 65 130 66
f 66 130 131
f 66 131 132
f 66 132 67
f 67 132 68
f 68 132 133
f 68 133 69
f 69 133 134
f 69 134 135
f 69 135 136
f 69 136 70
f 70 136 137
f 70 137 138
f 70 138 139
f 70 139 140
f 70 140 71
f 71 140 139
f 71 139 72
f 72 139 141
f 72 141 74
f 73 74 141
f 73 141 142
f 73 142 75
f 75 142 143
f 75 143 76
f 76 143 77
f 77 143 78
f 78 143 79
f 79 143 144
f 79 144 145
f 79 145 146
f 79 146 80
f 80 146 81
f 81 146 147
f 81 147 82
f 82 147 83
f 83 147 148
f 83 148 84
f 84 148 149
f 84 149 85
f 85 149 86
f 86 150 151
f 86 151 87
f 86 149 150
f 87 151 152
f 87 152 153
f 87 153 88
f 88 153 89
f 89 153 154
f 89 154 91
f 89 91 90
f 91 154 155
f 91 155 92
f 92 155 156
f 92 156 157
f 92 157 158
f 92 158 159
f 92 159 93
f 93 159 94
f 94 159 160
f 94 160 161
f 94 161 95
f 95 161 96
f 96 161 97
f 97 162 98
f 97 161 163
f 97 163 164
f 97 164 162
f 98 162 99
f 99 162 100
f 100 162 102
f 100 102 101
f 102 162 165
f 102 165 166
f 102 166 103
f 103 166 167
f 103 167 168
f 103 168 169
f 103 169 122
f 104 121 105
f 105 170 106
f 105 121 171
f 105 171 170
f 106 170 172
f 106 172 107
f 107 173 174
f 107 174 175
f 107 175 108
f 107 172 176
f 107 176 177
f 107 177 173
f 108 175 174
f 108 174 178
f 108 178 109
f 109 178 110
f 110 178 179
f 110 179 111
f 111 179 180
f 111 180 125
f 112 124 113
f 113 124 123
f 113 123 114
f 114 123 181
f 114 181 115
f 115 181 116
f 116 181 182
f 116 182 183
f 116 183 184
f 116 184 185
f 116 185 117
f 117 186 118
f 117 185 186
f 118 186 121
f 118 121 120
f 118 120 119
f 121 186 187
f 121 187 188
f 121 188 171
f 122 169 189
f 122 189 123
f 123 189 181
f 125 180 190
f 125 190 191
f 125 191 192
f 125 192 126
f 126 192 193
f 126 193 127
f 127 193 194
f 127 194 128
f 128 194 129
f 129 195 196
f 129 196 197
f 129 197 130
f 129 194 195
f 130 197 198
f 130 198 131
f 131 198 199
f 131 199 132
f 132 199 198
f 132 198 133
f 133 198 197
f 133 197 200
f 133 200 201
f 133 201 202
f 133 202 134
f 134 202 203
f 134 203 204
f 134 204 135
f 135 137 136
f 135 204 205
f 135 205 206
f 135 206 137
f 137 206 207
f 137 207 138
f 138 207 139
f 139 207 141
f 141 207 206
f 141 206 142
f 142 205 208
f 142 208 143
f 142 206 205
f 143 208 144
f 144 209 210
f 144 210 145
f 144 208 209
f 145 210 211
f 145 211 212
f 145 212 213
f 145 213 146
f 146 213 147
f 147 213 212
f 147 212 148
f 148 212 214
f 148 214 215
f 148 215 216
f 148 216 149
f 149 216 150
f 150 216 217
f 150 217 218
f 150 218 151
f 151 218 152
f 152 219 153
f 152 218 220
f 152 220 219
f 153 219 221
f 153 221 222
f 153 222 154
f 154 222 155
f 155 222 223
f 155 223 224
f 155 224 225
f 155 225 156
f 156 225 226
f 156 226 227
f 156 227 228
f 156 228 157
f 157 228 158
f 158 228 229
f 158 229 230
f 158 230 159
f 159 230 231
f 159 231 160
f 160 232 161
f 160 231 233
f 160 233 232
f 161 232 163
f 162 164 165
f 163 232 164
f 164 232 234
f 164 234 235
f 164 235 236
f 164 236 165
f 165 236 166
f 166 236 237
f 166 237 167
f 167 237 238
f 167 238 239
f 167 239 168
f 168 239 169
f 169 239 238
f 169 238 189
f 170 171 240
f 170 240 172
f 171 188 187
f 171 187 241
f 171 241 240
f 172 240 242
f 172 242 243
f 172 243 176
f 173 244 174
f 173 177 245
f 173 245 244
f 174 244 246
f 174 246 179
f 174 179 178
f 176 243 177
f 177 243 245
f 179 190 180
f 179 246 190
f 181 189 247
f 181 247 182
f 182 247 248
f 182 248 249
f 182 249 183
f 183 249 250
f 183 250 251
f 183 251 184
f 184 251 252
f 184 252 186
f 184 186 185
f 186 252 253
f 186 253 187
f 187 253 254
f 187 254 255
f 187 255 241
f 189 238 256
f 189 256 247
f 190 246 191
f 191 246 257
f 191 257 192
f 192 257 258
f 192 258 193
f 193 258 259
f 193 259 194
f 194 259 195
f 195 259 260
f 195 260 261
f 195 261 196
f 196 261 262
f 196 262 197
f 197 262 200
f 200 263 264
f 200 264 201
f 200 262 263
f 201 264 265
f 201 265 202
f 202 265 203
f 203 265 266
f 203 266 267
f 203 267 204
f 204 267 268
f 204 268 205
f 205 268 208
f 208 268 269
f 208 269 270
f 208 270 209
f 209 270 271
f 209 271 210
f 210 271 211
f 211 271 272
f 211 272 273
f 211 273 214
f 211 214 212
f 214 273 274
f 214 274 215
f 215 274 275
f 215 275 217
f 215 217 216
f 217 275 276
f 217 276 277
f 217 277 218
f 218 277 220
f 219 220 278
f 219 278 221
f 220 277 279
f 220 279 278
f 221 278 280
f 221 280 222
f 222 280 223
f 223 280 281
f 223 281 226
f 223 226 225
f 223 225 224
f 226 281 227
f 227 281 282
f 227 282 228
f 228 282 283
f 228 283 229
f 229 283 284
f 229 284 285
f 229 285 230
f 230 285 231
f 231 285 286
f 231 286 287
f 231 287 288
f 231 288 233
f 232 233 289
f 232 289 234
f 233 288 290
f 233 290 289
f 234 289 291
f 234 291 292
f 234 292 235
f 235 292 293
f 235 293 237
f 235 237 236
f 237 293 238
f 238 293 294
f 238 294 295
f 238 295 256
f 240 241 296
f 240 296 242
f 241 297 296
f 241 255 297
f 242 298 243
f 242 296 299
f 242 299 300
f 242 300 298
f 243 301 245
f 243 298 301
f 244 245 302
f 244 302 246
f 245 301 302
f 246 302 303
f 246 303 257
f 247 256 295
f 247 295 304
f 247 304 248
f 248 305 249
f 248 304 306
f 248 306 307
f 248 307 305
f 249 305 308
f 249 308 250
f 250 309 251
f 250 308 309
f 251 310 252
f 251 309 311
f 251 311 310
f 252 310 254
f 252 254 253
f 254 310 312
f 254 312 313
f 254 313 255
f 255 313 314
f 255 314 315
f 255 315 297
f 257 303 258
f 258 303 316
f 258 316 260
f 258 260 259
f 260 316 317
f 260 317 318
f 260 318 261
f 261 318 319
f 261 319 262
f 262 319 320
f 262 320 263
f 263 320 321
f 263 321 322
f 263 322 264
f 264 322 323
f 264 323 324
f 264 324 265
f 265 324 266
f 266 324 325
f 266 325 267
f 267 325 326
f 267 326 327
f 267 327 268
f 268 327 269
f 269 327 328
f 269 328 329
f 269 329 270
f 270 329 272
f 270 272 271
f 272 330 331
f 272 331 273
f 272 329 330
f 273 331 332
f 273 332 333
f 273 333 334
f 273 334 335
f 273 335 274
f 274 335 275
f 275 335 336
f 275 336 276
f 276 336 277
f 277 336 337
f 277 337 279
f 278 279 338
f 278 338 339
f 278 339 280
f 279 337 338
f 280 339 281
f 281 339 282
f 282 339 340
f 282 340 341
f 282 341 342
f 282 342 343
f 282 343 283
f 283 343 344
f 283 344 345
f 283 345 346
f 283 346 284
f 284 346 347
f 284 347 285
f 285 347 286
f 286 347 346
f 286 346 348
f 286 348 287
f 287 349 350
f 287 350 288
f 287 348 349
f 288 350 290
f 289 290 291
f 290 350 351
f 290 351 291
f 291 351 292
f 292 351 294
f 292 294 293
f 294 306 295
f 294 351 352
f 294 352 306
f 295 306 304
f 296 297 315
f 296 315 299
f 298 353 354
f 298 354 301
f 298 300 353
f 299 315 300
f 300 315 355
f 300 355 353
f 301 354 302
f 302 354 316
f 302 316 303
f 305 307 356
f 305 356 308
f 306 352 357
f 306 357 358
f 306 358 359
f 306 359 307
f 307 359 360
f 307 360 356
f 308 311 309
f 308 356 361
f 308 361 311
f 310 311 312
f 311 362 312
f 311 361 363
f 311 363 362
f 312 362 313
f 313 364 314
f 313 362 365
f 313 365 366
f 313 366 367
f 313 367 364
f 314 364 368
f 314 368 315
f 315 369 355
f 315 368 369
f 316 354 370
f 316 370 317
f 317 370 371
f 317 371 372
f 317 372 373
f 317 373 319
f 317 319 318
f 319 373 320
f 320 373 374
f 320 374 321
f 321 375 323
f 321 323 322
f 321 374 375
f 323 376 324
f 323 375 376
f 324 376 377
f 324 377 378
f 324 378 379
f 324 379 325
f 325 379 380
f 325 380 326
f 326 380 381
f 326 381 327
f 327 381 328
f 328 381 382
f 328 382 330
f 328 330 329
f 330 382 383
f 330 383 384
f 330 384 331
f 331 384 332
f 332 384 385
f 332 385 333
f 333 385 386
f 333 386 334
f 334 386 387
f 334 387 335
f 335 387 388
f 335 388 336
f 336 388 389
f 336 389 390
f 336 390 337
f 337 390 340
f 337 340 338
f 338 340 339
f 340 390 341
f 341 391 392
f 341 392 342
f 341 390 391
f 342 393 344
f 342 344 343
f 342 392 394
f 342 394 393
f 344 393 345
f 345 395 346
f 345 393 396
f 345 396 397
f 345 397 395
f 346 395 398
f 346 398 348
f 348 399 349
f 348 398 399
f 349 399 400
f 349 400 357
f 349 357 352
f 349 352 350
f 350 352 351
f 353 355 401
f 353 401 402
f 353 402 354
f 354 402 403
f 354 403 370
f 355 404 405
f 355 405 401
f 355 369 406
f 355 406 404
f 356 360 407
f 356 407 361
f 357 400 408
f 357 408 358
f 358 360 359
f 358 408 409
f 358 409 360
f 360 409 410
f 360 410 411
f 360 411 407
f 361 407 412
f 361 412 363
f 362 363 366
f 362 366 365
f 363 412 413
f 363 413 366
f 364 367 368
f 366 413 414
f 366 414 367
f 367 414 415
f 367 415 368
f 368 415 416
f 368 416 369
f 369 417 406
f 369 416 417
f 370 403 371
f 371 403 418
f 371 418 372
f 372 418 419
f 372 419 420
f 372 420 421
f 372 421 373
f 373 421 422
f 373 422 374
f 374 422 375
f 375 422 421
f 375 421 423
f 375 423 376
f 376 424 377
f 376 423 425
f 376 425 424
f 377 424 426
f 377 426 427
f 377 427 378
f 378 427 379
f 379 427 428
f 379 428 429
f 379 429 430
f 379 430 380
f 380 430 381
f 381 430 382
f 382 430 383
f 383 430 431
f 383 431 432
f 383 432 384
f 384 432 385
f 385 432 433
f 385 433 386
f 386 433 387
f 387 433 434
f 387 434 388
f 388 434 435
f 388 435 389
f 389 435 390
f 390 435 391
f 391 435 436
f 391 436 392
f 392 436 394
f 393 394 437
f 393 437 438
f 393 438 396
f 394 439 437
f 394 436 440
f 394 440 439
f 395 397 398
f 396 438 441
f 396 441 442
f 396 442 443
f 396 443 397
f 397 443 444
f 397 444 410
f 397 410 398
f 398 410 409
f 398 409 399
f 399 409 400
f 400 409 408
f 401 405 402
f 402 405 445
f 402 445 403
f 403 445 446
f 403 446 418
f 404 447 405
f 404 406 447
f 405 447 448
f 405 448 445
f 406 417 447
f 407 449 412
f 407 411 449
f 410 444 450
f 410 450 411
f 411 450 449
f 412 449 413
f 413 449 451
f 413 451 452
f 413 452 453
f 413 453 454
f 413 454 455
f 413 455 414
f 414 455 454
f 414 454 456
f 414 456 457
f 414 457 458
f 414 458 415
f 415 459 416
f 415 458 460
f 415 460 459
f 416 459 417
f 417 459 447
f 418 420 419
f 418 446 420
f 420 446 461
f 420 461 421
f 421 461 462
f 421 462 425
f 421 425 423
f 424 463 464
f 424 464 426
f 424 425 463
f 425 462 463
f 426 465 427
f 426 464 465
f 427 465 466
f 427 466 428
f 428 466 467
f 428 467 431
f 428 431 429
f 429 431 430
f 431 467 468
f 431 468 432
f 432 468 433
f 433 469 470
f 433 470 471
f 433 471 434
f 433 468 472
f 433 472 469
f 434 471 436
f 434 436 435
f 436 471 440
f 437 439 473
f 437 473 474
f 437 474 438
f 438 474 441
f 439 440 475
f 439 475 473
f 440 471 476
f 440 476 475
f 441 474 477
f 441 477 442
f 442 477 478
f 442 478 479
f 442 479 443
f 443 479 451
f 443 451 450
f 443 450 444
f 445 448 446
f 446 448 461
f 447 480 448
f 447 459 481
f 447 481 482
f 447 482 480
f 448 480 461
f 449 450 451
f 451 453 452
f 451 479 453
f 453 479 483
f 453 483 484
f 453 484 454
f 454 484 456
f 456 484 485
f 456 485 457
f 457 486 458
f 457 485 486
f 458 486 460
f 459 460 487
f 459 487 481
f 460 486 487
f 461 480 462
f 462 480 463
f 463 488 489
f 463 489 464
f 463 480 488
f 464 489 490
f 464 490 465
f 465 491 466
f 465 490 491
f 466 492 493
f 466 493 494
f 466 494 467
f 466 491 492
f 467 494 468
f 468 494 472
f 469 475 476
f 469 476 470
f 469 472 475
f 470 476 471
f 472 494 495
f 472 495 475
f 473 477 474
f 473 475 496
f 473 496 497
f 473 497 498
f 473 498 477
f 475 495 496
f 477 498 478
f 478 498 499
f 478 499 483
f 478 483 479
f 480 482 488
f 481 488 482
f 481 487 500
f 481 500 501
f 481 501 488
f 483 499 485
f 483 485 484
f 485 502 503
f 485 503 486
f 485 499 502
f 486 503 504
f 486 504 505
f 486 505 487
f 487 505 506
f 487 506 500
f 488 501 489
f 489 501 490
f 490 507 508
f 490 508 491
f 490 501 509
f 490 509 507
f 491 508 492
f 492 510 493
f 492 508 511
f 492 511 510
f 493 510 497
f 493 497 495
f 493 495 494
f 495 497 496
f 497 510 512
f 497 512 498
f 498 512 499
f 499 512 502
f 500 509 501
f 500 506 509
f 502 512 503
f 503 512 511
f 503 511 504
f 504 511 505
f 505 511 507
f 505 507 506
f 506 507 509
f 507 511 508
f 510 511 512

