# https://github.com/mikedh/trimesh
v -0.17178567 0.22580780 0.12997506
v -0.17712578 0.22580780 0.12968443
v -0.17674972 0.21960891 0.12952591
v -0.17178567 0.21960891 0.12979012
v -0.16800623 0.21528140 0.12942023
v -0.16768656 0.21960891 0.12949949
v -0.16704727 0.23204566 0.12952591
v -0.16738573 0.23613926 0.12944665
v -0.17178567 0.23204566 0.12981654
v -0.18022832 0.22580780 0.12905035
v -0.17983344 0.21960891 0.12907676
v -0.17612921 0.23204566 0.12952591
v -0.23088417 -0.11789839 0.10994827
v -0.15935676 0.21341005 0.12683101
v -0.15935676 0.21960891 0.12738585
v -0.15935676 0.23204566 0.12809920
v -0.16396354 0.23204566 0.12897108
v -0.17178567 0.23621722 0.12944665
v -0.15935676 0.23824454 0.12791426
v -0.15935676 0.24444341 0.12667249
v -0.16556181 0.24444341 0.12733301
v -0.17178567 0.23929718 0.12878613
v -0.17524547 0.23555445 0.12934097
v -0.18417699 0.22580780 0.12794068
v -0.18417699 0.21960891 0.12804636
v -0.17925055 0.23204566 0.12878613
v -0.18417699 0.23204566 0.12746511
v -0.23088417 -0.10296650 0.11039742
v -0.23088417 -0.11536425 0.11002753
v -0.23381746 -0.10296650 0.10870650
v -0.23381746 -0.10916537 0.10849513
v -0.23844305 -0.10916537 0.10553604
v -0.23381746 -0.11789839 0.10786105
v -0.23088417 -0.11789839 0.09266921
v -0.13991423 0.05824324 0.00999924
v -0.14049713 0.05824324 0.01446432
v -0.14053473 0.05824324 0.01462284
v -0.14256548 0.05824324 0.02051463
v -0.12107342 0.21341005 0.09509991
v -0.12368706 0.21341005 0.10022549
v -0.12447679 0.22093447 0.10535109
v -0.12656395 0.22580780 0.10947270
v -0.12870752 0.23204566 0.11290738
v -0.13186646 0.23649014 0.11660625
v -0.14986113 0.21602214 0.12315855
v -0.15296365 0.21376093 0.12426822
v -0.15315169 0.21960891 0.12514010
v -0.15315169 0.23204566 0.12606482
v -0.15315169 0.23824454 0.12614408
v -0.15315169 0.24444341 0.12548356
v -0.15281324 0.25107113 0.12400401
v -0.15935676 0.25064229 0.12503441
v -0.17178567 0.24444341 0.12743869
v -0.16556181 0.25064229 0.12561567
v -0.17799072 0.24444341 0.12654039
v -0.17759587 0.23785468 0.12828415
v -0.18417699 0.23824454 0.12659323
v -0.19038204 0.22580780 0.12614408
v -0.19038204 0.21960891 0.12619692
v -0.19038204 0.23204566 0.12550999
v -0.23088417 -0.09672864 0.11034458
v -0.19592899 0.22580780 0.12413611
v -0.19901272 0.22580780 0.12268299
v -0.23864989 -0.10296650 0.10564171
v -0.25329759 -0.07189415 0.09694935
v -0.25848728 -0.07189415 0.09385814
v -0.26157101 -0.07189415 0.09190302
v -0.26659146 -0.10916537 0.08487515
v -0.23772853 -0.11789839 0.10500762
v -0.26912990 -0.07813201 0.08661890
v -0.26869743 -0.08433089 0.08630186
v -0.27606827 -0.11789839 0.00268074
v -0.23233202 -0.10514976 -0.10228820
v -0.14773637 0.18861455 -0.09718903
v -0.14547998 0.18861455 -0.09098019
v -0.14386291 0.19173349 -0.08788898
v -0.14369368 0.20331250 -0.09454697
v -0.14343043 0.20721116 -0.09568306
v -0.11896745 0.19126564 0.03575930
v -0.11866660 0.19036895 0.03927323
v -0.11759481 0.19481343 0.04548207
v -0.11845976 0.18955023 0.04548207
v -0.11624098 0.20717218 0.06410857
v -0.11684269 0.20717218 0.07029099
v -0.11795208 0.20662638 0.07705466
v -0.11859139 0.20877065 0.08270865
v -0.11900506 0.21021315 0.08590555
v -0.12047171 0.20775699 0.08833624
v -0.11953155 0.21341005 0.08994789
v -0.11979480 0.21968689 0.09475644
v -0.12135546 0.22580780 0.10130874
v -0.12293493 0.21918007 0.10183715
v -0.12389389 0.22580780 0.10638149
v -0.12558619 0.23204566 0.11021247
v -0.13128356 0.24062272 0.11694972
v -0.14076037 0.24444341 0.12099207
v -0.14803722 0.24444341 0.12381907
v -0.14877054 0.24927775 0.12350203
v -0.15051924 0.25341033 0.12294719
v -0.15463715 0.25438500 0.12331708
v -0.15935676 0.25496980 0.12360770
v -0.17178567 0.25064229 0.12556283
v -0.16556181 0.25547663 0.12389833
v -0.18477868 0.24506719 0.12461169
v -0.17829158 0.25107113 0.12432106
v -0.18310521 0.24923877 0.12371339
v -0.18853933 0.24339077 0.12373980
v -0.19053248 0.23801062 0.12424180
v -0.19489482 0.23204566 0.12371339
v -0.19797853 0.23204566 0.12207532
v -0.20331865 0.23247453 0.11874632
v -0.20275457 0.22580780 0.12035797
v -0.20275457 0.21960891 0.12056934
v -0.26143938 -0.06569528 0.09185018
v -0.26922391 -0.05953539 0.08661890
v -0.26928031 -0.06569528 0.08667175
v -0.26480516 -0.07189415 0.08973653
v -0.27005126 -0.10916537 0.08175752
v -0.26928031 -0.11536425 0.08099132
v -0.26559489 -0.11536425 0.08408253
v -0.27223241 -0.07813201 0.08432031
v -0.27179994 -0.08433089 0.08387116
v -0.27578622 -0.07813201 0.08125553
v -0.24083107 -0.11789839 0.10260335
v -0.26926153 -0.07189415 0.08672458
v -0.27236404 -0.07189415 0.08450526
v -0.28966300 -0.11789839 0.00268074
v -0.19038204 0.22584679 -0.13930342
v -0.18530519 0.21520344 -0.13785030
v -0.18361289 0.21910210 -0.13816733
v -0.18114968 0.21668492 -0.13753325
v -0.17799072 0.21341005 -0.13600085
v -0.17178567 0.21341005 -0.13380794
v -0.16845751 0.20970632 -0.13148293
v -0.16605070 0.20748407 -0.12926361
v -0.16153793 0.20721116 -0.12590820
v -0.15843540 0.20721116 -0.12294909
v -0.15597217 0.20342948 -0.11925021
v -0.15426108 0.20120723 -0.11602690
v -0.15087650 0.20101230 -0.11113909
v -0.15033120 0.19282511 -0.10596066
v -0.14952267 0.18861455 -0.10149558
v -0.23620547 -0.10514976 -0.10062370
v -0.20632717 0.23309830 -0.13771818
v -0.20587589 0.22892672 -0.13753325
v -0.20339388 0.23142189 -0.13832586
v -0.19656830 0.23204566 -0.13946194
v -0.19038204 0.23204566 -0.13993752
v -0.14888336 0.19489139 -0.10371491
v -0.14632612 0.19481343 -0.09718903
v -0.14437059 0.20721116 -0.09877427
v -0.14403213 0.21341005 -0.09946120
v -0.14337402 0.21341005 -0.09637000
v -0.14249027 0.20721116 -0.09098019
v -0.11808371 0.19481343 0.03927323
v -0.11695551 0.20097332 0.04548207
v -0.11601535 0.20717218 0.05789974
v -0.11571450 0.21341005 0.06410857
v -0.11614697 0.21341005 0.07029099
v -0.11674867 0.21341005 0.07649982
v -0.11785807 0.21341005 0.08270865
v -0.11919309 0.21769858 0.09126893
v -0.11892985 0.22183116 0.09243143
v -0.11866660 0.22580780 0.09319763
v -0.11958796 0.22580780 0.09631525
v -0.12112982 0.23204566 0.10130874
v -0.12378108 0.23204566 0.10712127
v -0.12547336 0.23824454 0.11015963
v -0.13128356 0.24218218 0.11694972
v -0.13412284 0.24432645 0.11811222
v -0.14076037 0.25064229 0.12041082
v -0.14681501 0.25107113 0.12236594
v -0.13656726 0.25508676 0.11747813
v -0.14076037 0.25703610 0.11824433
v -0.14696543 0.25684116 0.12041082
v -0.15281324 0.25660723 0.12196963
v -0.15935676 0.25808874 0.12204889
v -0.17178567 0.25528170 0.12384549
v -0.17641126 0.25450197 0.12342276
v -0.16556181 0.25859557 0.12226025
v -0.18727952 0.24752335 0.12302645
v -0.18052916 0.25337135 0.12289435
v -0.18477868 0.25107113 0.12247162
v -0.19269484 0.23992096 0.12255088
v -0.19386064 0.23578838 0.12323782
v -0.19053248 0.24506719 0.12204889
v -0.20576307 0.23481370 0.11676477
v -0.20636478 0.23068112 0.11718751
v -0.20694767 0.22580780 0.11758381
v -0.20719212 0.21960891 0.11776876
v -0.27232643 -0.05953539 0.08447884
v -0.27238285 -0.06569528 0.08453167
v -0.27317258 -0.10916537 0.07808506
v -0.27888876 -0.07813201 0.07805863
v -0.28165284 -0.07813201 0.07494101
v -0.28029899 -0.09353174 0.07335577
v -0.28270582 -0.09672864 0.06978900
v -0.27258969 -0.11555918 0.07634130
v -0.27283413 -0.11789839 0.07470322
v -0.26867862 -0.11789839 0.08035723
v -0.26506840 -0.11789839 0.08339559
v -0.28582714 -0.09672864 0.06598443
v -0.27621869 -0.07189415 0.08141405
v -0.27932123 -0.07189415 0.07858704
v -0.29242708 -0.11789839 0.01924644
v -0.29346125 -0.10514976 -0.01753100
v -0.29216382 -0.10514976 -0.02292080
v -0.29052796 -0.10514976 -0.02891827
v -0.28979461 -0.10514976 -0.03119044
v -0.28829036 -0.10514976 -0.03528562
v -0.28772626 -0.10514976 -0.03679159
v -0.28682371 -0.10514976 -0.03882598
v -0.27992293 -0.10514976 -0.05177206
v -0.27751612 -0.10514976 -0.05592009
v -0.27484608 -0.10514976 -0.06025307
v -0.27358626 -0.10514976 -0.06223461
v -0.26818973 -0.10514976 -0.06955311
v -0.26232313 -0.10514976 -0.07613184
v -0.25940863 -0.10514976 -0.07924946
v -0.25632490 -0.10514976 -0.08247278
v -0.25008225 -0.10514976 -0.08860234
v -0.24571990 -0.10514976 -0.09275037
v -0.24368915 -0.10514976 -0.09465265
v -0.24248575 -0.10514976 -0.09576232
v -0.23763451 -0.10514976 -0.09972540
v -0.18419579 0.22584679 -0.13888069
v -0.18419579 0.23204566 -0.13946194
v -0.17872405 0.23204566 -0.13819376
v -0.17821637 0.21910210 -0.13697841
v -0.17178567 0.21960891 -0.13475909
v -0.16691564 0.21960891 -0.13235481
v -0.16785581 0.21341005 -0.13185282
v -0.16477208 0.21341005 -0.12971276
v -0.16383191 0.21960891 -0.13037327
v -0.16078580 0.21341005 -0.12659512
v -0.15768326 0.21341005 -0.12363603
v -0.15552090 0.20721116 -0.11985788
v -0.15209871 0.20748407 -0.11528712
v -0.15033120 0.20561273 -0.11222234
v -0.14931583 0.20101230 -0.10804788
v -0.22197144 0.23204566 -0.12984486
v -0.21885011 0.23204566 -0.13164145
v -0.21516467 0.23204566 -0.13349090
v -0.20862116 0.23142189 -0.13652926
v -0.20954252 0.23824454 -0.13639716
v -0.20645880 0.23824454 -0.13777103
v -0.20277335 0.23824454 -0.13869575
v -0.19656830 0.23824454 -0.13954121
v -0.19038204 0.23824454 -0.13977899
v -0.14737911 0.20101230 -0.10339786
v -0.14600647 0.20721116 -0.10339786
v -0.14529195 0.21341005 -0.10339786
v -0.14538596 0.21960891 -0.10339786
v -0.14416376 0.21960891 -0.09829869
v -0.11701192 0.21341005 0.04548207
v -0.11671107 0.20717218 0.04548207
v -0.11780166 0.20097332 0.03927323
v -0.11620338 0.20717218 0.05169090
v -0.11554527 0.21341005 0.05789974
v -0.11575210 0.21960891 0.06410857
v -0.11605296 0.21960891 0.07029099
v -0.11654184 0.21960891 0.07649982
v -0.11733157 0.21960891 0.08270865
v -0.11795208 0.22580780 0.08891749
v -0.11876062 0.23204566 0.09290700
v -0.11951275 0.23204566 0.09599821
v -0.12156230 0.23824454 0.10130874
v -0.12395030 0.23824454 0.10704201
v -0.12583062 0.24444341 0.10920849
v -0.12932802 0.24432645 0.11422840
v -0.13173484 0.24631476 0.11663267
v -0.13551428 0.25064229 0.11805938
v -0.13239294 0.25064229 0.11586647
v -0.13070066 0.25450197 0.11161277
v -0.13867321 0.25921934 0.11594574
v -0.14284753 0.26046691 0.11724035
v -0.14696543 0.26155854 0.11792728
v -0.15356537 0.26342990 0.11832359
v -0.15587816 0.26619796 0.11689688
v -0.17178567 0.25840063 0.12212815
v -0.17744545 0.26315699 0.11811222
v -0.17829158 0.25668522 0.12173184
v -0.16556181 0.26304004 0.11932757
v -0.17178567 0.26304004 0.11914263
v -0.15935676 0.26631491 0.11694972
v -0.19000599 0.25637332 0.11782160
v -0.19376662 0.25403412 0.11697614
v -0.19485721 0.25064229 0.11763666
v -0.18417699 0.25684116 0.11998808
v -0.18765559 0.26023300 0.11705540
v -0.20480411 0.23824454 0.11618352
v -0.19918195 0.24670464 0.11652699
v -0.20042297 0.24253306 0.11724035
v -0.20920405 0.23801062 0.11277527
v -0.21236299 0.23582736 0.11095225
v -0.20863997 0.23247453 0.11499460
v -0.21005020 0.22580780 0.11515312
v -0.21031345 0.21960891 0.11536449
v -0.27206320 -0.05333652 0.08421463
v -0.27588024 -0.05953539 0.08138763
v -0.27614348 -0.06569528 0.08144047
v -0.28475536 -0.07813201 0.07118929
v -0.28202889 -0.07189415 0.07549584
v -0.28629722 -0.11789839 0.05478211
v -0.28719978 -0.07813201 0.06809808
v -0.28994503 -0.07813201 0.06408215
v -0.29237066 -0.07813201 0.06027759
v -0.29184416 -0.08433089 0.05927361
v -0.28750063 -0.09672864 0.06291965
v -0.28654166 -0.11789839 0.05438580
v -0.27924602 -0.06569528 0.07845494
v -0.29297236 -0.11789839 0.02270753
v -0.29359286 -0.10514976 -0.01665912
v -0.30568334 -0.06440872 -0.00284116
v -0.30506284 -0.06160168 -0.00696277
v -0.29705266 -0.06569528 -0.02891827
v -0.28684252 -0.10511076 -0.03879956
v -0.29419458 -0.06624109 -0.03573477
v -0.29308518 -0.06456466 -0.03887883
v -0.29163734 -0.06628008 -0.04109815
v -0.28798951 -0.06573427 -0.04804676
v -0.28637243 -0.06776157 -0.05042461
v -0.28665448 -0.06362899 -0.05082092
v -0.28080669 -0.06573427 -0.05737323
v -0.26610257 -0.07193315 -0.07346335
v -0.25679498 -0.09052976 -0.08294834
v -0.22973716 0.23204566 -0.12427011
v -0.22663464 0.23204566 -0.12672723
v -0.18419579 0.23824454 -0.13925058
v -0.17928815 0.23824454 -0.13806166
v -0.17562153 0.23204566 -0.13734830
v -0.17658049 0.22584679 -0.13708410
v -0.17178567 0.22584679 -0.13531391
v -0.16652077 0.22584679 -0.13264544
v -0.16341823 0.22584679 -0.13063748
v -0.16024051 0.21960891 -0.12728206
v -0.15713797 0.21960891 -0.12413801
v -0.15495680 0.21341005 -0.12054482
v -0.15187307 0.21341005 -0.11639678
v -0.14995515 0.20974530 -0.11285643
v -0.14882695 0.20748407 -0.10992374
v -0.22214066 0.23824454 -0.12989770
v -0.21903815 0.23824454 -0.13172072
v -0.21516467 0.23824454 -0.13370226
v -0.20617675 0.24194827 -0.13763892
v -0.20264174 0.24417050 -0.13806166
v -0.19656830 0.24444341 -0.13877501
v -0.19038204 0.24444341 -0.13874859
v -0.14783038 0.21341005 -0.10960670
v -0.14739791 0.21960891 -0.10960670
v -0.14777397 0.22584679 -0.10960670
v -0.14585605 0.22584679 -0.10339786
v -0.14446460 0.22526197 -0.09660777
v -0.11672988 0.21960891 0.05169090
v -0.11601535 0.21341005 0.05169090
v -0.11592133 0.21960891 0.05789974
v -0.11631620 0.22580780 0.06410857
v -0.11633500 0.22580780 0.07029099
v -0.11672988 0.22580780 0.07649982
v -0.11727517 0.22580780 0.08270865
v -0.11823413 0.23204566 0.08891749
v -0.11902386 0.23516458 0.09208796
v -0.11985121 0.23765974 0.09451865
v -0.12291613 0.24444341 0.10130874
v -0.12447679 0.24444341 0.10609086
v -0.12500329 0.24799120 0.10506046
v -0.12974169 0.25064229 0.11277527
v -0.13000494 0.25524271 0.10751757
v -0.13318268 0.25836163 0.10751757
v -0.13699974 0.26058388 0.11179770
v -0.12692121 0.25033039 0.10727979
v -0.14408854 0.26604201 0.11021247
v -0.14649536 0.26491139 0.11404345
v -0.15177905 0.26573012 0.11634205
v -0.15356537 0.26764046 0.11404345
v -0.15935676 0.27185101 0.10926133
v -0.15935676 0.26888804 0.11372641
v -0.16556181 0.27212392 0.11015963
v -0.16556181 0.26923892 0.11372641
v -0.17498222 0.26619796 0.11684404
v -0.18417699 0.26109071 0.11758381
v -0.16556181 0.26635389 0.11700256
v -0.17178567 0.26631491 0.11697614
v -0.20064860 0.25493082 0.11150708
v -0.19795975 0.25064229 0.11570795
v -0.19668113 0.26315699 0.10759683
v -0.19455635 0.26077881 0.11142782
v -0.19867427 0.25906339 0.10989543
v -0.17913773 0.26530125 0.11623636
v -0.18417699 0.26420963 0.11510028
v -0.18417699 0.26748452 0.11198265
v -0.18773080 0.26650984 0.11095225
v -0.20258534 0.24452138 0.11510028
v -0.20713570 0.24444341 0.11177129
v -0.21142284 0.23995996 0.10984258
v -0.21903815 0.24276698 0.09911583
v -0.21819199 0.23493067 0.10434711
v -0.21646210 0.23255249 0.10738547
v -0.21296471 0.23204566 0.11145424
v -0.21352881 0.22580780 0.11206192
v -0.27554179 -0.05333652 0.08112343
v -0.28129556 -0.04709865 0.07449186
v -0.28191607 -0.06569528 0.07533732
v -0.28736900 -0.05953539 0.06828302
v -0.28515023 -0.07189415 0.07153276
v -0.28744423 -0.07189415 0.06844155
v -0.29045273 -0.07189415 0.06408215
v -0.29261510 -0.07189415 0.06077958
v -0.29393132 -0.07813201 0.05718638
v -0.29342365 -0.08433089 0.05615598
v -0.29299117 -0.08858043 0.05533694
v -0.28804593 -0.11571513 0.05216647
v -0.28667329 -0.11789839 0.05404233
v -0.28654166 -0.03142602 0.06722620
v -0.29331081 -0.11789839 0.02688199
v -0.29436380 -0.10514976 -0.01029176
v -0.29421337 -0.10514976 -0.01211478
v -0.30596539 -0.06620211 0.00207307
v -0.30735682 -0.05953539 0.00207307
v -0.30592778 -0.05953539 -0.00458492
v -0.30521326 -0.05746910 -0.00749118
v -0.30425430 -0.05953539 -0.00986903
v -0.30192270 -0.05953539 -0.01650060
v -0.29987314 -0.05953539 -0.02212818
v -0.29731590 -0.05953539 -0.02891827
v -0.29308518 -0.06093891 -0.03887883
v -0.28665448 -0.06206952 -0.05082092
v -0.23827382 0.22584679 -0.11465302
v -0.23590462 0.22584679 -0.11774423
v -0.23282089 0.22584679 -0.12099397
v -0.23276449 0.23204566 -0.12115249
v -0.22939871 0.23824454 -0.12376813
v -0.22629617 0.23824454 -0.12678007
v -0.18677182 0.24791321 -0.13766535
v -0.18447784 0.24417050 -0.13808808
v -0.18062317 0.24190927 -0.13769177
v -0.17620442 0.23824454 -0.13705767
v -0.17178567 0.23204566 -0.13555170
v -0.16684043 0.23204566 -0.13261902
v -0.16373790 0.23204566 -0.13034685
v -0.16001486 0.23204566 -0.12725565
v -0.15982682 0.22584679 -0.12751985
v -0.15672429 0.22584679 -0.12458716
v -0.15454313 0.21960891 -0.12104680
v -0.15144060 0.21960891 -0.11705730
v -0.14969189 0.21341005 -0.11327916
v -0.22099367 0.24424848 -0.12923718
v -0.21866208 0.24206522 -0.13153578
v -0.20852715 0.24417050 -0.13605370
v -0.20461608 0.24608085 -0.13721620
v -0.20047937 0.24799120 -0.13771818
v -0.19656830 0.24834208 -0.13787671
v -0.19038204 0.24830309 -0.13782387
v -0.14927823 0.21960891 -0.11393967
v -0.14948507 0.22584679 -0.11370189
v -0.14888336 0.23208465 -0.11002943
v -0.14662697 0.23204566 -0.10339786
v -0.11697431 0.22580780 0.05789974
v -0.11746319 0.23204566 0.06410857
v -0.11712474 0.23204566 0.07029099
v -0.11731277 0.23204566 0.07649982
v -0.11859139 0.23719190 0.08270865
v -0.11953155 0.23898528 0.08891749
v -0.12175033 0.24444341 0.09509991
v -0.12458962 0.24880991 0.10130874
v -0.12633831 0.25188986 0.10130874
v -0.12944085 0.25598346 0.10130874
v -0.13130236 0.26011603 0.09269564
v -0.13235534 0.25910239 0.10130874
v -0.13626641 0.26124666 0.10751757
v -0.14098601 0.26463849 0.10788746
v -0.14320479 0.26654884 0.10609086
v -0.15170384 0.27161709 0.10130874
v -0.15578414 0.27259177 0.10513972
v -0.15350895 0.27091533 0.10733263
v -0.14822525 0.26693870 0.11219402
v -0.15935676 0.27309858 0.10617012
v -0.16556181 0.27376136 0.10704201
v -0.17178567 0.27216290 0.11023889
v -0.17178567 0.27383934 0.10712127
v -0.17178567 0.26923892 0.11372641
v -0.17744545 0.26818628 0.11399061
v -0.20700409 0.25524271 0.10550961
v -0.20480411 0.25208479 0.10965764
v -0.20612034 0.24795221 0.11087299
v -0.20273576 0.25025243 0.11235254
v -0.20299900 0.25715306 0.10770252
v -0.20121270 0.26140259 0.10574740
v -0.19886230 0.26557417 0.10363375
v -0.18417699 0.27056445 0.10836303
v -0.18746755 0.27243582 0.10455847
v -0.19472560 0.26697769 0.10529825
v -0.21025705 0.24444341 0.10860082
v -0.21217498 0.24775726 0.10455847
v -0.22323125 0.23840049 0.09502065
v -0.21995949 0.23824454 0.10038402
v -0.21114079 0.25192884 0.10321103
v -0.21792875 0.24689957 0.09766270
v -0.22035436 0.24467733 0.09539054
v -0.21885011 0.23079809 0.10521899
v -0.21663132 0.22580780 0.10886502
v -0.28044943 -0.03095819 0.07351430
v -0.27826826 -0.04709865 0.07760948
v -0.29022708 -0.05953539 0.06408215
v -0.29037752 -0.06569528 0.06408215
v -0.28742541 -0.06569528 0.06836228
v -0.29257750 -0.06569528 0.06072674
v -0.29415696 -0.07189415 0.05768837
v -0.29539797 -0.07813201 0.05404233
v -0.29648856 -0.07813201 0.05166449
v -0.30205432 -0.07813201 0.03924681
v -0.29944067 -0.08265447 0.04334200
v -0.30058766 -0.08456482 0.03959028
v -0.29203219 -0.10936030 0.04550849
v -0.29037752 -0.11536425 0.04545565
v -0.28761344 -0.11789839 0.05118891
v -0.28629722 -0.02733243 0.06690915
v -0.28800831 -0.02904785 0.06453130
v -0.29250228 -0.05953539 0.06056822
v -0.29310399 -0.11789839 0.03155843
v -0.30487480 -0.08035426 0.02688199
v -0.30575857 -0.07688444 0.02067315
v -0.30688673 -0.07189415 0.02067315
v -0.30763887 -0.05953539 0.00825548
v -0.30662351 -0.05333652 0.00207307
v -0.30521326 -0.05622152 -0.00749118
v -0.24267377 0.23204566 -0.10514162
v -0.24096268 0.23204566 -0.10960670
v -0.23827382 0.23204566 -0.11460019
v -0.23588581 0.23204566 -0.11771782
v -0.23541574 0.23824454 -0.11726867
v -0.23231321 0.23824454 -0.12067692
v -0.23152348 0.24444341 -0.11980504
v -0.22838333 0.24444341 -0.12292266
v -0.22528081 0.24444341 -0.12590820
v -0.18261631 0.24604187 -0.13708410
v -0.19038204 0.25138303 -0.13634432
v -0.18447784 0.25025243 -0.13578949
v -0.17832919 0.24417050 -0.13605370
v -0.17184209 0.24420948 -0.13280396
v -0.16810025 0.24198725 -0.13166788
v -0.17178567 0.23824454 -0.13478550
v -0.16746094 0.23824454 -0.13216987
v -0.16435840 0.23824454 -0.12981844
v -0.15689353 0.23204566 -0.12432296
v -0.16091741 0.23824454 -0.12672723
v -0.15444912 0.22584679 -0.12146954
v -0.22454748 0.24775726 -0.12519484
v -0.22136974 0.25013546 -0.12659512
v -0.21755268 0.24619781 -0.13092810
v -0.21533391 0.24424848 -0.13264544
v -0.21339718 0.24943370 -0.13203777
v -0.20952372 0.25114912 -0.13335879
v -0.20264174 0.25029141 -0.13613296
v -0.19656830 0.25146100 -0.13631790
v -0.15134658 0.22584679 -0.11679310
v -0.15474997 0.23204566 -0.12123175
v -0.15140298 0.23208465 -0.11536639
v -0.15019959 0.23415092 -0.11238086
v -0.15048164 0.23824454 -0.11095415
v -0.14950387 0.23824454 -0.10783652
v -0.14831926 0.23824454 -0.10339786
v -0.11881702 0.23563243 0.06017191
v -0.11834695 0.23192870 0.05800542
v -0.11857259 0.23633419 0.06410857
v -0.11832814 0.23723088 0.07029099
v -0.11834695 0.23765974 0.07649982
v -0.11928711 0.24027184 0.08270865
v -0.12118623 0.24444341 0.08891749
v -0.12406312 0.24962863 0.09509991
v -0.12588703 0.25270857 0.09509991
v -0.12938443 0.25727001 0.09488854
v -0.13109552 0.26027198 0.08891749
v -0.13455532 0.26276713 0.08891749
v -0.13891766 0.26534025 0.09509991
v -0.13950056 0.26491139 0.10130874
v -0.13545787 0.26183145 0.10130874
v -0.12835026 0.25684116 0.08891749
v -0.14260309 0.26693870 0.10130874
v -0.15063206 0.27212392 0.09647377
v -0.15478757 0.27298163 0.10130874
v -0.15935676 0.27571069 0.09509991
v -0.15935676 0.27446312 0.10130874
v -0.16556181 0.27590562 0.10130874
v -0.17178567 0.27645143 0.10130874
v -0.17799072 0.27173406 0.10955196
v -0.17799072 0.27344946 0.10643433
v -0.17799072 0.27582765 0.10130874
v -0.21260745 0.25454095 0.09906299
v -0.20863997 0.24994053 0.10709485
v -0.20531179 0.25937529 0.10379228
v -0.20897842 0.25695811 0.10141443
v -0.19162306 0.27111026 0.10265619
v -0.19376662 0.27255277 0.09853458
v -0.20066741 0.26693870 0.09948572
v -0.20299900 0.26327395 0.10162579
v -0.18417699 0.27282568 0.10524541
v -0.18417699 0.27469703 0.10130874
v -0.18989317 0.27313758 0.10088602
v -0.22428424 0.24066170 0.09121608
v -0.22481073 0.23652912 0.09288058
v -0.22375774 0.23204566 0.09676440
v -0.22052359 0.23255249 0.10188999
v -0.21696980 0.25095419 0.09539054
v -0.21915095 0.24908282 0.09351468
v -0.22033556 0.25095419 0.08920812
v -0.21926378 0.22580780 0.10574740
v -0.29300997 -0.02444742 0.05528410
v -0.29411935 -0.06569528 0.05760911
v -0.30280643 -0.05953539 0.03924681
v -0.29581165 -0.07189415 0.05404233
v -0.29688343 -0.07189415 0.05166449
v -0.30438591 -0.07836594 0.03287945
v -0.30449874 -0.06573427 0.03454395
v -0.30562694 -0.07189415 0.03110928
v -0.30543890 -0.07649458 0.03068655
v -0.30278764 -0.08433089 0.03306440
v -0.29253989 -0.11158255 0.04154540
v -0.29255870 -0.11789839 0.03385701
v -0.29233307 -0.11789839 0.03472889
v -0.29007666 -0.11789839 0.04294570
v -0.29144930 -0.02854102 0.05877162
v -0.29402533 -0.05953539 0.05747701
v -0.29319801 -0.02854102 0.05565399
v -0.30579614 -0.07723532 0.02688199
v -0.30673631 -0.07189415 0.02688199
v -0.30728162 -0.06573427 0.02067315
v -0.30724401 -0.05953539 0.01446432
v -0.30231756 -0.02850202 0.03306440
v -0.30686794 -0.05333652 0.00825548
v -0.25000702 0.24366367 -0.06617127
v -0.25096600 0.23824454 -0.06617127
v -0.24966857 0.24272800 -0.07238011
v -0.24936771 0.24171434 -0.07581478
v -0.24733698 0.24444341 -0.08479778
v -0.24570109 0.24444341 -0.09098019
v -0.24318147 0.24171434 -0.10054444
v -0.24336950 0.23824454 -0.10115212
v -0.24231651 0.23824454 -0.10424332
v -0.24030458 0.23824454 -0.10960670
v -0.23797297 0.23824454 -0.11417746
v -0.23742767 0.24265003 -0.11343768
v -0.23095938 0.24806916 -0.11917094
v -0.17812235 0.25056431 -0.13296249
v -0.19656830 0.25598346 -0.13320028
v -0.19038204 0.25586649 -0.13322669
v -0.18419579 0.25528170 -0.13259260
v -0.18030353 0.25450197 -0.13179998
v -0.17396684 0.24845903 -0.13195850
v -0.16983014 0.24615881 -0.13047895
v -0.16552420 0.24440443 -0.12823321
v -0.16181997 0.24268901 -0.12596104
v -0.15783368 0.23824454 -0.12308119
v -0.15548328 0.23824454 -0.11998998
v -0.22721753 0.24997951 -0.12176016
v -0.22343809 0.25188986 -0.12434938
v -0.21932020 0.25473588 -0.12585535
v -0.21533391 0.25114912 -0.13024117
v -0.21191171 0.25360526 -0.13124515
v -0.20779382 0.25485285 -0.13227555
v -0.20277335 0.25567156 -0.13290964
v -0.15279443 0.23824454 -0.11581553
v -0.15499441 0.24401455 -0.11555132
v -0.15209871 0.24381962 -0.10899903
v -0.15004917 0.24136346 -0.10654191
v -0.11990761 0.23945313 0.06410857
v -0.11941873 0.24034982 0.07029099
v -0.11921190 0.24081765 0.07649982
v -0.12086658 0.24444341 0.08270865
v -0.12378108 0.25005748 0.08891749
v -0.12562379 0.25317642 0.08891749
v -0.12554858 0.25329338 0.08270865
v -0.13111433 0.26023300 0.08413536
v -0.13880485 0.26541822 0.08270865
v -0.13863561 0.26553518 0.08891749
v -0.14173814 0.26752350 0.08891749
v -0.14670219 0.27064244 0.08891749
v -0.14203899 0.26728958 0.09509991
v -0.14999275 0.27239684 0.09232574
v -0.15288844 0.27344946 0.09467718
v -0.15935676 0.27656840 0.08891749
v -0.16873956 0.27855671 0.09190302
v -0.16556181 0.27723117 0.09509991
v -0.17289506 0.27894657 0.09314479
v -0.17693775 0.27894657 0.09314479
v -0.17859244 0.27801090 0.09515275
v -0.20685365 0.26105173 0.09964424
v -0.21100916 0.25867353 0.09636810
v -0.21913216 0.25493082 0.08735868
v -0.21794756 0.25321540 0.09148029
v -0.19038204 0.27524286 0.09509991
v -0.19500763 0.27325453 0.09509991
v -0.19933238 0.27216290 0.09150670
v -0.19807255 0.27122723 0.09509991
v -0.20273576 0.26791336 0.09480928
v -0.20482292 0.26518430 0.09665872
v -0.18417699 0.27695826 0.09509991
v -0.22477311 0.24233813 0.08709447
v -0.22695429 0.23824454 0.08270865
v -0.22539362 0.23840049 0.08907602
v -0.22343809 0.24440443 0.08907602
v -0.22319365 0.25036937 0.08252371
v -0.22413380 0.24647071 0.08450526
v -0.22466029 0.24810815 0.08035723
v -0.29962869 -0.02273200 0.03906187
v -0.29900818 -0.02507121 0.04254938
v -0.29374328 -0.02585094 0.05404233
v -0.29398774 -0.02854102 0.05404233
v -0.30481840 -0.05898957 0.03314366
v -0.30564572 -0.06573427 0.03142632
v -0.29921504 -0.02850202 0.04291927
v -0.30064408 -0.02850202 0.03924681
v -0.30673631 -0.06573427 0.02688199
v -0.30098254 -0.02230315 0.03306440
v -0.25098480 0.23824454 -0.05378003
v -0.30256200 -0.02850202 0.02688199
v -0.30549531 -0.06070499 0.03113570
v -0.25121043 0.23824454 -0.05998886
v -0.24998823 0.24354672 -0.05998886
v -0.24906687 0.24678261 -0.06617127
v -0.24758141 0.25064229 -0.07238011
v -0.24893524 0.24584693 -0.07238011
v -0.24711133 0.25064229 -0.07858894
v -0.24857798 0.24401455 -0.07816622
v -0.24617118 0.25064229 -0.08479778
v -0.24429086 0.25111012 -0.09150860
v -0.24346352 0.24939472 -0.09510180
v -0.24303103 0.25352730 -0.09391287
v -0.24229772 0.25111012 -0.09718903
v -0.23656273 0.24678261 -0.11206381
v -0.23238842 0.25033039 -0.11586837
v -0.23957125 0.25064229 -0.10339786
v -0.23693880 0.25391716 -0.10662117
v -0.22988760 0.25220176 -0.11795560
v -0.22575088 0.25551561 -0.12020135
v -0.19656830 0.25906339 -0.13053179
v -0.20277335 0.25879050 -0.13026759
v -0.19038204 0.25898543 -0.13032043
v -0.18419579 0.25840063 -0.12979202
v -0.17985225 0.26054490 -0.12593461
v -0.17800953 0.25695811 -0.12820678
v -0.17317711 0.25528170 -0.12633092
v -0.17614802 0.25259162 -0.13045253
v -0.16905920 0.25337135 -0.12482495
v -0.16710367 0.24923877 -0.12635735
v -0.16296697 0.24682159 -0.12464000
v -0.15946956 0.24420948 -0.12186584
v -0.15610379 0.24163637 -0.11911811
v -0.22417142 0.25968719 -0.11866896
v -0.22005350 0.26155854 -0.12017493
v -0.21702620 0.25890744 -0.12429654
v -0.21505186 0.25684116 -0.12709712
v -0.21288950 0.26050590 -0.12567041
v -0.20897842 0.26124666 -0.12643661
v -0.15711916 0.24580793 -0.11742718
v -0.15593456 0.24806916 -0.11327916
v -0.15157223 0.24495024 -0.10339786
v -0.15538927 0.24888789 -0.10960670
v -0.12146828 0.24444341 0.07029099
v -0.12084778 0.24444341 0.07649982
v -0.12372467 0.25021343 0.08270865
v -0.12378108 0.24994053 0.07649982
v -0.12579302 0.25305945 0.07649982
v -0.15997726 0.25645130 -0.10339786
v -0.16298576 0.25957022 -0.10339786
v -0.16606949 0.26202638 -0.10339786
v -0.17020619 0.26510632 -0.10339786
v -0.14982352 0.27251378 0.07858704
v -0.14657057 0.27056445 0.08270865
v -0.14967309 0.27259177 0.08270865
v -0.14980472 0.27251378 0.08891749
v -0.15315169 0.27422920 0.08891749
v -0.15935676 0.27695826 0.08270865
v -0.16712248 0.27898558 0.08270865
v -0.16783700 0.27879064 0.08775498
v -0.16569342 0.27808888 0.08947232
v -0.17122157 0.27929745 0.08947232
v -0.17799072 0.28038910 0.08270865
v -0.17859244 0.27945340 0.08952517
v -0.18107445 0.27855671 0.09200870
v -0.20860236 0.26261118 0.09443939
v -0.21219376 0.26011603 0.09222006
v -0.21646210 0.25695811 0.08920812
v -0.21311513 0.26116867 0.08891749
v -0.21762789 0.25921934 0.08270865
v -0.22003472 0.25610042 0.08270865
v -0.19698196 0.27426819 0.08920812
v -0.18979915 0.27738712 0.08830982
v -0.20068621 0.27294265 0.08738510
v -0.20273576 0.27075938 0.08920812
v -0.20617675 0.26643188 0.09251069
v -0.18417699 0.27824483 0.09044988
v -0.22524320 0.24440443 0.08252371
v -0.22810130 0.23824454 0.07649982
v -0.22847735 0.23204566 0.08270865
v -0.29917743 -0.01848246 0.03684254
v -0.22368253 0.25181188 0.07649982
v -0.24658484 0.25064229 -0.05378003
v -0.24861560 0.24588592 -0.05378003
v -0.24955575 0.24194827 -0.04963200
v -0.25247025 0.22584679 -0.04136236
v -0.25184974 0.23204566 -0.04757119
v -0.24980020 0.24280598 -0.05378003
v -0.24901045 0.24662666 -0.05998886
v -0.24776945 0.25064229 -0.06617127
v -0.24509940 0.25684116 -0.07238011
v -0.24485494 0.25684116 -0.07858894
v -0.24400881 0.25691913 -0.08429579
v -0.24359513 0.25485285 -0.08976485
v -0.24216609 0.25691913 -0.09150860
v -0.24022935 0.25684116 -0.09718903
v -0.23774734 0.25633434 -0.10294871
v -0.23569779 0.25064229 -0.11074278
v -0.23152348 0.25532068 -0.11383399
v -0.23588581 0.25801075 -0.10474531
v -0.23370465 0.25664623 -0.10944818
v -0.23035766 0.25945326 -0.11227518
v -0.19656830 0.26210435 -0.12741417
v -0.20277335 0.26202638 -0.12717638
v -0.19038204 0.26171449 -0.12720280
v -0.18419579 0.26112969 -0.12670081
v -0.18391374 0.26456051 -0.12173374
v -0.18163855 0.26600301 -0.11866896
v -0.17787792 0.26202638 -0.12226215
v -0.17571555 0.25937529 -0.12448149
v -0.16494131 0.25130507 -0.12265846
v -0.17118397 0.25746494 -0.12257920
v -0.16693445 0.25547663 -0.12070334
v -0.16279773 0.25337135 -0.11843117
v -0.16125588 0.24923877 -0.12049198
v -0.22582611 0.26304004 -0.11415104
v -0.22454748 0.26623694 -0.11280359
v -0.22182102 0.26339092 -0.11734792
v -0.21725183 0.26569113 -0.11851043
v -0.21311513 0.26654884 -0.11932947
v -0.20897842 0.26432659 -0.12313403
v -0.15930034 0.25072025 -0.11586837
v -0.16146271 0.25469690 -0.11430956
v -0.15745763 0.25200681 -0.10960670
v -0.15467475 0.24978458 -0.10339786
v -0.12421355 0.24912180 0.07029099
v -0.15689353 0.25290352 -0.10339786
v -0.16056015 0.25567156 -0.10960670
v -0.16405756 0.25875151 -0.10960670
v -0.16716008 0.26109071 -0.10960670
v -0.17424889 0.26654884 -0.10767800
v -0.17330873 0.26713364 -0.10339786
v -0.15273803 0.27380034 0.07649982
v -0.15315169 0.27446312 0.08270865
v -0.17799072 0.26966776 -0.10339786
v -0.15935676 0.27668536 0.07649982
v -0.16424559 0.27808888 0.07649982
v -0.16734811 0.27894657 0.07649982
v -0.17178567 0.27992125 0.08270865
v -0.17178567 0.27980428 0.07649982
v -0.20510497 0.27863470 -0.08331822
v -0.20897842 0.27871266 -0.08384664
v -0.21294590 0.27867368 -0.08294834
v -0.21294590 0.27867368 -0.08091395
v -0.18417699 0.27992125 0.07649982
v -0.18417699 0.27964833 0.08270865
v -0.18417699 0.27890759 0.08738510
v -0.21035106 0.26424863 0.08891749
v -0.21151686 0.26557417 0.08397685
v -0.21821080 0.25988212 0.07908904
v -0.24293701 0.25972617 -0.05795448
v -0.19654949 0.27602259 0.08270865
v -0.19137861 0.27804988 0.08270865
v -0.18733592 0.27855671 0.08582629
v -0.20153235 0.27344946 0.08270865
v -0.20461608 0.27157811 0.08270865
v -0.20722972 0.26744553 0.08891749
v -0.25015746 0.23840049 -0.04757119
v -0.24447888 0.25734799 -0.06001528
v -0.24754380 0.25064229 -0.05998886
v -0.24515580 0.25684116 -0.06617127
v -0.24336950 0.26042793 -0.07238011
v -0.24323787 0.26023300 -0.07858894
v -0.24314385 0.26007705 -0.08191794
v -0.24263617 0.25902441 -0.08603955
v -0.23872510 0.26339092 -0.09105945
v -0.23780374 0.26132462 -0.09718903
v -0.23707041 0.26019402 -0.10059728
v -0.23174911 0.26136361 -0.10815357
v -0.22896624 0.26331294 -0.10997659
v -0.19656830 0.26522329 -0.12382096
v -0.20277335 0.26510632 -0.12387381
v -0.19038204 0.26483342 -0.12318688
v -0.18577525 0.26654884 -0.11946157
v -0.18391374 0.26803033 -0.11626468
v -0.17947618 0.26717262 -0.11452092
v -0.17328992 0.26089578 -0.12035987
v -0.16915322 0.25960920 -0.11806128
v -0.22569447 0.26728958 -0.10960670
v -0.22302443 0.27169508 -0.10485100
v -0.22112530 0.27036952 -0.10931607
v -0.22136974 0.26728958 -0.11401894
v -0.23015084 0.26553518 -0.10569646
v -0.21518348 0.26838121 -0.11618542
v -0.20897842 0.26709465 -0.12004283
v -0.16810025 0.26034997 -0.11391325
v -0.17535829 0.26584708 -0.11182603
v -0.17763348 0.26791336 -0.10968596
v -0.18479749 0.27348846 -0.09718903
v -0.18169495 0.27208494 -0.09718903
v -0.18451544 0.27118825 -0.10939533
v -0.18261631 0.27181202 -0.10339786
v -0.19038204 0.27532083 -0.09718903
v -0.19038204 0.27567171 -0.09098019
v -0.19656830 0.27727016 -0.09098019
v -0.20277335 0.27820583 -0.09098019
v -0.20897842 0.27824483 -0.09098019
v -0.21507067 0.27820583 -0.08490346
v -0.22136974 0.27699724 -0.07858894
v -0.18936668 0.27910252 0.07649982
v -0.18827609 0.27886861 0.08270865
v -0.20926047 0.26806931 0.08223309
v -0.21211856 0.26619796 0.07982882
v -0.24126354 0.26257219 -0.06001528
v -0.23782255 0.26713364 -0.05998886
v -0.24321906 0.26015502 -0.06207608
v -0.19654949 0.27668536 0.07649982
v -0.19246920 0.27828382 0.07649982
v -0.23159869 0.27290365 -0.07238011
v -0.23468242 0.27099332 -0.07238011
v -0.23829263 0.26767945 -0.06617127
v -0.21245701 0.26650984 0.07649982
v -0.24333189 0.26034997 -0.06617127
v -0.24154559 0.26335192 -0.07858894
v -0.24152678 0.26350787 -0.07238011
v -0.23793537 0.26744553 -0.08479778
v -0.24116952 0.26249423 -0.08429579
v -0.23725845 0.26662681 -0.08902507
v -0.23654393 0.26569113 -0.09317310
v -0.23567899 0.26444356 -0.09718903
v -0.23144825 0.26697769 -0.10157484
v -0.23366704 0.26284511 -0.10316008
v -0.20277335 0.26752350 -0.12078260
v -0.20277335 0.27064244 -0.11639678
v -0.19656830 0.26736755 -0.12072976
v -0.19038204 0.26697769 -0.12006924
v -0.19098375 0.27033054 -0.11520786
v -0.19344698 0.27239684 -0.11272433
v -0.18931026 0.27200696 -0.11135045
v -0.22746199 0.26935586 -0.10321292
v -0.22904145 0.27126621 -0.09718903
v -0.22473552 0.27251378 -0.10072939
v -0.21888771 0.27259177 -0.10707032
v -0.21516467 0.27177304 -0.11132404
v -0.21119719 0.27220189 -0.11235444
v -0.20907244 0.27056445 -0.11536639
v -0.18570004 0.27298163 -0.10339786
v -0.18679063 0.27255277 -0.10720242
v -0.19038204 0.27411224 -0.10339786
v -0.19656830 0.27660738 -0.09718903
v -0.20277335 0.27746509 -0.09718903
v -0.20897842 0.27750407 -0.09718903
v -0.21516467 0.27750407 -0.09098019
v -0.22136974 0.27676333 -0.08479778
v -0.22757479 0.27496995 -0.07858894
v -0.24139517 0.26346889 -0.06617127
v -0.23189955 0.27309858 -0.07858894
v -0.23502087 0.27107128 -0.07858894
v -0.23844305 0.26787438 -0.07238011
v -0.23846186 0.26799134 -0.07858894
v -0.23464480 0.27052547 -0.08479778
v -0.23030126 0.27216290 -0.09312026
v -0.23255764 0.26818628 -0.09718903
v -0.20707930 0.27255277 -0.11301495
v -0.20277335 0.27270872 -0.11327916
v -0.19656830 0.27259177 -0.11306779
v -0.19656830 0.27048649 -0.11615900
v -0.19656830 0.27364441 -0.10960670
v -0.19656830 0.27524286 -0.10339786
v -0.22593891 0.27305960 -0.09718903
v -0.22136974 0.27477501 -0.09718903
v -0.22112530 0.27313758 -0.10302798
v -0.21516467 0.27481400 -0.10339786
v -0.21516467 0.27305960 -0.10823283
v -0.20907244 0.27344946 -0.11000301
v -0.20277335 0.27598360 -0.10339786
v -0.20897842 0.27586664 -0.10339786
v -0.21516467 0.27656840 -0.09718903
v -0.22136974 0.27598360 -0.09098019
v -0.22757479 0.27461907 -0.08479778
v -0.23152348 0.27290365 -0.08479778
v -0.23099699 0.27259177 -0.08899865
v -0.22796967 0.27356643 -0.09103304
v -0.20277335 0.27411224 -0.10960670
f 1 2 3
f 1 3 4
f 1 4 5
f 1 5 6
f 1 6 7
f 1 7 8
f 1 8 9
f 1 9 2
f 2 10 11
f 2 11 3
f 2 9 12
f 2 12 10
f 3 11 13
f 3 13 4
f 4 13 5
f 5 14 15
f 5 15 16
f 5 16 6
f 5 13 14
f 6 16 17
f 6 17 7
f 7 17 8
f 8 18 9
f 8 17 19
f 8 19 20
f 8 20 21
f 8 21 22
f 8 22 18
f 9 18 23
f 9 23 12
f 10 24 25
f 10 25 11
f 10 12 26
f 10 26 27
f 10 27 24
f 11 25 28
f 11 28 29
f 11 29 13
f 12 23 26
f 13 29 30
f 13 30 31
f 13 31 32
f 13 32 33
f 13 33 69
f 13 69 124
f 13 124 201
f 13 201 200
f 13 200 199
f 13 199 304
f 13 304 310
f 13 310 413
f 13 413 516
f 13 516 621
f 13 621 620
f 13 620 619
f 13 619 520
f 13 520 415
f 13 415 312
f 13 312 205
f 13 205 127
f 13 127 72
f 13 72 34
f 13 34 35
f 13 35 36
f 13 36 37
f 13 37 38
f 13 38 39
f 13 39 40
f 13 40 41
f 13 41 42
f 13 42 43
f 13 43 44
f 13 44 45
f 13 45 46
f 13 46 14
f 14 46 47
f 14 47 15
f 15 47 48
f 15 48 16
f 16 48 49
f 16 49 19
f 16 19 17
f 18 22 23
f 19 49 50
f 19 50 20
f 20 50 51
f 20 51 52
f 20 52 21
f 21 53 22
f 21 52 54
f 21 54 53
f 22 53 23
f 23 53 55
f 23 55 56
f 23 56 57
f 23 57 26
f 24 58 25
f 24 27 58
f 25 58 59
f 25 59 28
f 26 57 27
f 27 60 58
f 27 57 60
f 28 61 30
f 28 30 29
f 28 59 62
f 28 62 63
f 28 63 61
f 30 64 31
f 30 61 65
f 30 65 66
f 30 66 67
f 30 67 64
f 31 64 32
f 32 68 69
f 32 69 33
f 32 64 67
f 32 67 70
f 32 70 71
f 32 71 68
f 34 72 73
f 34 73 35
f 35 74 75
f 35 75 76
f 35 76 77
f 35 77 78
f 35 78 79
f 35 79 80
f 35 80 81
f 35 81 82
f 35 82 83
f 35 83 84
f 35 84 36
f 35 73 74
f 36 84 85
f 36 85 86
f 36 86 37
f 37 86 87
f 37 87 88
f 37 88 39
f 37 39 38
f 39 88 87
f 39 87 89
f 39 89 90
f 39 90 91
f 39 91 92
f 39 92 40
f 40 92 41
f 41 92 93
f 41 93 42
f 42 93 94
f 42 94 43
f 43 94 44
f 44 94 95
f 44 95 45
f 45 95 47
f 45 47 46
f 47 95 48
f 48 95 49
f 49 95 96
f 49 96 97
f 49 97 50
f 50 97 98
f 50 98 51
f 51 99 100
f 51 100 52
f 51 98 99
f 52 100 101
f 52 101 54
f 53 54 102
f 53 102 55
f 54 101 103
f 54 103 102
f 55 104 57
f 55 57 56
f 55 102 105
f 55 105 106
f 55 106 104
f 57 104 107
f 57 107 108
f 57 108 60
f 58 62 59
f 58 60 62
f 60 109 62
f 60 108 109
f 61 63 65
f 62 109 63
f 63 109 110
f 63 110 111
f 63 111 112
f 63 112 113
f 63 113 66
f 63 66 65
f 66 114 67
f 66 113 114
f 67 114 115
f 67 115 116
f 67 116 117
f 67 117 70
f 68 118 119
f 68 119 120
f 68 120 69
f 68 71 121
f 68 121 122
f 68 122 123
f 68 123 118
f 69 120 124
f 70 121 71
f 70 117 125
f 70 125 126
f 70 126 121
f 72 127 73
f 73 128 129
f 73 129 130
f 73 130 131
f 73 131 132
f 73 132 133
f 73 133 134
f 73 134 135
f 73 135 136
f 73 136 137
f 73 137 138
f 73 138 139
f 73 139 140
f 73 140 141
f 73 141 142
f 73 142 74
f 73 127 143
f 73 143 144
f 73 144 145
f 73 145 146
f 73 146 147
f 73 147 148
f 73 148 128
f 74 142 149
f 74 149 150
f 74 150 75
f 75 150 77
f 75 77 76
f 77 150 151
f 77 151 78
f 78 152 153
f 78 153 154
f 78 154 79
f 78 151 152
f 79 155 80
f 79 154 155
f 80 155 81
f 81 155 156
f 81 156 157
f 81 157 83
f 81 83 82
f 83 157 158
f 83 158 159
f 83 159 160
f 83 160 84
f 84 160 85
f 85 160 86
f 86 160 161
f 86 161 87
f 87 161 162
f 87 162 89
f 89 162 90
f 90 163 164
f 90 164 165
f 90 165 91
f 90 162 163
f 91 93 92
f 91 165 166
f 91 166 167
f 91 167 93
f 93 167 94
f 94 167 168
f 94 168 95
f 95 168 169
f 95 169 96
f 96 169 170
f 96 170 171
f 96 171 97
f 97 171 98
f 98 171 172
f 98 172 99
f 99 173 174
f 99 174 175
f 99 175 176
f 99 176 100
f 99 172 171
f 99 171 173
f 100 176 177
f 100 177 101
f 101 177 103
f 102 103 178
f 102 178 179
f 102 179 105
f 103 177 180
f 103 180 178
f 104 106 181
f 104 181 107
f 105 179 182
f 105 182 106
f 106 182 183
f 106 183 181
f 107 184 185
f 107 185 108
f 107 181 186
f 107 186 184
f 108 185 109
f 109 185 110
f 110 185 187
f 110 187 111
f 111 187 188
f 111 188 112
f 112 189 190
f 112 190 113
f 112 188 189
f 113 190 114
f 114 190 115
f 115 191 192
f 115 192 116
f 115 190 191
f 116 192 125
f 116 125 117
f 118 193 119
f 118 123 194
f 118 194 195
f 118 195 196
f 118 196 197
f 118 197 193
f 119 198 199
f 119 199 200
f 119 200 201
f 119 201 120
f 119 193 202
f 119 202 198
f 120 201 124
f 121 123 122
f 121 126 203
f 121 203 123
f 123 203 204
f 123 204 194
f 125 192 126
f 126 192 203
f 127 205 206
f 127 206 207
f 127 207 208
f 127 208 209
f 127 209 210
f 127 210 211
f 127 211 212
f 127 212 213
f 127 213 214
f 127 214 215
f 127 215 216
f 127 216 217
f 127 217 218
f 127 218 219
f 127 219 220
f 127 220 221
f 127 221 222
f 127 222 223
f 127 223 224
f 127 224 225
f 127 225 143
f 128 148 130
f 128 130 129
f 130 148 226
f 130 226 227
f 130 227 131
f 131 227 228
f 131 228 229
f 131 229 132
f 132 229 133
f 133 229 230
f 133 230 231
f 133 231 232
f 133 232 134
f 134 232 233
f 134 233 135
f 135 233 136
f 136 233 234
f 136 234 235
f 136 235 236
f 136 236 137
f 137 236 237
f 137 237 138
f 138 237 238
f 138 238 239
f 138 239 139
f 139 239 140
f 140 239 240
f 140 240 141
f 141 240 149
f 141 149 142
f 143 225 241
f 143 241 242
f 143 242 243
f 143 243 244
f 143 244 144
f 144 245 246
f 144 246 247
f 144 247 146
f 144 146 145
f 144 244 243
f 144 243 245
f 146 247 147
f 147 247 248
f 147 248 148
f 148 248 249
f 148 249 227
f 148 227 226
f 149 240 250
f 149 250 150
f 150 250 251
f 150 251 151
f 151 251 252
f 151 252 152
f 152 252 253
f 152 253 254
f 152 254 153
f 153 255 256
f 153 256 257
f 153 257 154
f 153 254 255
f 154 257 155
f 155 257 156
f 156 257 256
f 156 256 258
f 156 258 157
f 157 258 259
f 157 259 158
f 158 259 260
f 158 260 261
f 158 261 159
f 159 261 262
f 159 262 160
f 160 262 263
f 160 263 164
f 160 164 161
f 161 164 163
f 161 163 162
f 164 263 264
f 164 264 265
f 164 265 266
f 164 266 165
f 165 266 166
f 166 266 267
f 166 267 268
f 166 268 167
f 167 268 168
f 168 268 269
f 168 269 270
f 168 270 169
f 169 270 271
f 169 271 272
f 169 272 170
f 170 272 171
f 171 272 173
f 173 272 273
f 173 273 274
f 173 274 275
f 173 275 276
f 173 276 174
f 174 276 175
f 175 276 277
f 175 277 176
f 176 277 278
f 176 278 177
f 177 278 279
f 177 279 180
f 178 180 280
f 178 280 179
f 179 280 281
f 179 281 282
f 179 282 182
f 180 283 284
f 180 284 280
f 180 279 285
f 180 285 283
f 181 183 286
f 181 286 287
f 181 287 288
f 181 288 186
f 182 282 289
f 182 289 183
f 183 289 290
f 183 290 286
f 184 186 291
f 184 291 187
f 184 187 185
f 186 288 292
f 186 292 293
f 186 293 291
f 187 294 295
f 187 295 296
f 187 296 188
f 187 291 294
f 188 297 189
f 188 296 297
f 189 297 298
f 189 298 191
f 189 191 190
f 191 299 300
f 191 300 301
f 191 301 192
f 191 298 297
f 191 297 299
f 192 301 203
f 193 197 202
f 194 204 195
f 195 302 197
f 195 197 196
f 195 204 303
f 195 303 302
f 197 302 202
f 198 304 199
f 198 202 304
f 202 302 305
f 202 305 306
f 202 306 307
f 202 307 308
f 202 308 309
f 202 309 310
f 202 310 304
f 203 301 204
f 204 301 311
f 204 311 303
f 205 312 206
f 206 312 313
f 206 313 314
f 206 314 207
f 207 314 208
f 208 314 315
f 208 315 209
f 209 315 316
f 209 316 210
f 210 316 211
f 211 317 212
f 211 316 318
f 211 318 319
f 211 319 317
f 212 317 319
f 212 319 320
f 212 320 213
f 213 320 321
f 213 321 322
f 213 322 214
f 214 322 215
f 215 322 216
f 216 322 323
f 216 323 217
f 217 323 324
f 217 324 218
f 218 324 325
f 218 325 326
f 218 326 219
f 219 326 220
f 220 326 221
f 221 326 222
f 222 326 327
f 222 327 223
f 223 327 224
f 224 327 225
f 225 327 328
f 225 328 241
f 227 249 329
f 227 329 228
f 228 329 330
f 228 330 331
f 228 331 229
f 229 331 332
f 229 332 230
f 230 332 331
f 230 331 333
f 230 333 231
f 231 333 334
f 231 334 234
f 231 234 232
f 232 234 233
f 234 334 335
f 234 335 336
f 234 336 235
f 235 336 236
f 236 336 337
f 236 337 338
f 236 338 237
f 237 338 339
f 237 339 238
f 238 339 340
f 238 340 239
f 239 340 341
f 239 341 240
f 240 341 251
f 240 251 250
f 241 328 342
f 241 342 343
f 241 343 242
f 242 343 344
f 242 344 243
f 243 344 245
f 245 344 345
f 245 345 246
f 246 345 247
f 247 345 346
f 247 346 248
f 248 346 347
f 248 347 249
f 249 347 348
f 249 348 329
f 251 341 349
f 251 349 252
f 252 349 350
f 252 350 253
f 253 350 351
f 253 351 352
f 253 352 254
f 254 352 353
f 254 353 255
f 255 353 354
f 255 354 355
f 255 355 256
f 256 355 258
f 258 355 259
f 259 355 356
f 259 356 260
f 260 356 357
f 260 357 358
f 260 358 261
f 261 358 359
f 261 359 262
f 262 359 360
f 262 360 264
f 262 264 263
f 264 360 361
f 264 361 265
f 265 361 362
f 265 362 363
f 265 363 267
f 265 267 266
f 267 364 365
f 267 365 268
f 267 363 364
f 268 365 269
f 269 365 366
f 269 366 367
f 269 367 270
f 270 367 271
f 271 367 273
f 271 273 272
f 273 367 274
f 274 368 369
f 274 369 370
f 274 370 275
f 274 367 371
f 274 371 368
f 275 370 372
f 275 372 373
f 275 373 276
f 276 373 374
f 276 374 277
f 277 374 278
f 278 374 279
f 279 374 375
f 279 375 376
f 279 376 377
f 279 377 378
f 279 378 379
f 279 379 285
f 280 284 380
f 280 380 281
f 281 381 282
f 281 380 381
f 282 381 289
f 283 285 382
f 283 382 383
f 283 383 284
f 284 383 380
f 285 379 382
f 286 290 287
f 287 290 384
f 287 384 385
f 287 385 292
f 287 292 288
f 289 381 290
f 290 386 387
f 290 387 388
f 290 388 384
f 290 381 389
f 290 389 390
f 290 390 391
f 290 391 392
f 290 392 386
f 291 293 292
f 291 292 393
f 291 393 394
f 291 394 294
f 292 385 393
f 294 394 295
f 295 394 395
f 295 395 396
f 295 396 397
f 295 397 398
f 295 398 399
f 295 399 296
f 296 399 297
f 297 400 300
f 297 300 299
f 297 399 400
f 300 400 401
f 300 401 402
f 300 402 311
f 300 311 301
f 302 303 305
f 303 311 403
f 303 403 404
f 303 404 405
f 303 405 305
f 305 405 406
f 305 406 407
f 305 407 306
f 306 407 408
f 306 408 307
f 307 409 410
f 307 410 308
f 307 408 409
f 308 410 411
f 308 411 309
f 309 411 310
f 310 412 413
f 310 411 412
f 311 402 414
f 311 414 403
f 312 415 416
f 312 416 417
f 312 417 313
f 313 417 418
f 313 418 314
f 314 418 419
f 314 419 420
f 314 420 315
f 315 420 421
f 315 421 422
f 315 422 316
f 316 422 423
f 316 423 424
f 316 424 425
f 316 425 319
f 316 319 318
f 319 425 426
f 319 426 427
f 319 427 323
f 319 323 321
f 319 321 320
f 321 323 322
f 323 427 428
f 323 428 429
f 323 429 324
f 324 429 325
f 325 429 326
f 326 429 430
f 326 430 327
f 327 430 431
f 327 431 432
f 327 432 433
f 327 433 328
f 328 433 342
f 329 348 434
f 329 434 435
f 329 435 436
f 329 436 330
f 330 436 437
f 330 437 331
f 331 437 438
f 331 438 333
f 333 438 334
f 334 438 439
f 334 439 335
f 335 439 440
f 335 440 441
f 335 441 442
f 335 442 336
f 336 442 443
f 336 443 337
f 337 443 444
f 337 444 338
f 338 444 445
f 338 445 339
f 339 446 340
f 339 445 446
f 340 446 349
f 340 349 341
f 342 433 447
f 342 447 448
f 342 448 343
f 343 448 344
f 344 448 345
f 345 448 449
f 345 449 450
f 345 450 346
f 346 450 451
f 346 451 347
f 347 452 348
f 347 451 452
f 348 452 453
f 348 453 434
f 349 446 454
f 349 454 350
f 350 455 351
f 350 454 455
f 351 455 456
f 351 456 457
f 351 457 352
f 352 457 353
f 353 457 354
f 354 457 458
f 354 458 356
f 354 356 355
f 356 458 357
f 357 458 459
f 357 459 460
f 357 460 358
f 358 460 461
f 358 461 359
f 359 461 361
f 359 361 360
f 361 461 462
f 361 462 362
f 362 462 463
f 362 463 363
f 363 463 464
f 363 464 364
f 364 464 465
f 364 465 366
f 364 366 365
f 366 465 466
f 366 466 371
f 366 371 367
f 368 371 466
f 368 466 467
f 368 467 468
f 368 468 469
f 368 469 369
f 369 469 470
f 369 470 370
f 370 470 471
f 370 471 372
f 372 471 472
f 372 472 473
f 372 473 474
f 372 474 475
f 372 475 476
f 372 476 373
f 373 476 374
f 374 476 375
f 375 476 376
f 376 378 377
f 376 476 475
f 376 475 474
f 376 474 477
f 376 477 478
f 376 478 378
f 378 479 379
f 378 478 480
f 378 480 479
f 379 479 481
f 379 481 382
f 380 389 381
f 380 383 481
f 380 481 479
f 380 479 482
f 380 482 389
f 382 481 383
f 384 483 484
f 384 484 485
f 384 485 486
f 384 486 385
f 384 388 487
f 384 487 483
f 385 486 394
f 385 394 393
f 386 488 388
f 386 388 387
f 386 392 489
f 386 489 488
f 388 488 487
f 389 482 391
f 389 391 390
f 391 482 490
f 391 490 491
f 391 491 392
f 392 491 492
f 392 492 489
f 394 493 395
f 394 486 485
f 394 485 493
f 395 493 494
f 395 494 396
f 396 495 496
f 396 496 397
f 396 494 497
f 396 497 498
f 396 498 499
f 396 499 495
f 397 496 500
f 397 500 398
f 398 500 399
f 399 500 501
f 399 501 400
f 400 501 502
f 400 502 401
f 401 502 503
f 401 503 402
f 402 503 502
f 402 502 414
f 403 414 404
f 404 504 505
f 404 505 506
f 404 506 405
f 404 414 504
f 405 506 406
f 406 506 407
f 407 506 505
f 407 505 507
f 407 507 408
f 408 507 508
f 408 508 409
f 409 509 410
f 409 508 509
f 410 509 510
f 410 510 511
f 410 511 512
f 410 512 411
f 411 512 513
f 411 513 412
f 412 514 515
f 412 515 516
f 412 516 413
f 412 513 514
f 414 517 518
f 414 518 519
f 414 519 504
f 414 502 501
f 414 501 517
f 415 520 521
f 415 521 522
f 415 522 416
f 416 522 417
f 417 522 418
f 418 522 523
f 418 523 419
f 419 523 524
f 419 524 525
f 419 525 526
f 419 526 420
f 420 526 421
f 421 526 424
f 421 424 423
f 421 423 422
f 424 526 425
f 425 526 527
f 425 527 528
f 425 528 426
f 426 528 529
f 426 529 427
f 427 529 428
f 428 529 530
f 428 530 429
f 429 530 431
f 429 431 430
f 431 530 531
f 431 531 532
f 431 532 432
f 432 532 533
f 432 533 534
f 432 534 433
f 433 534 535
f 433 535 447
f 434 536 435
f 434 453 537
f 434 537 538
f 434 538 536
f 435 536 436
f 436 536 539
f 436 539 437
f 437 539 540
f 437 540 541
f 437 541 542
f 437 542 438
f 438 542 439
f 439 542 543
f 439 543 440
f 440 543 544
f 440 544 441
f 441 545 442
f 441 544 546
f 441 546 545
f 442 545 443
f 443 547 445
f 443 445 444
f 443 545 547
f 445 547 454
f 445 454 446
f 447 535 548
f 447 548 549
f 447 549 550
f 447 550 448
f 448 550 551
f 448 551 449
f 449 551 552
f 449 552 553
f 449 553 450
f 450 553 554
f 450 554 451
f 451 554 555
f 451 555 452
f 452 555 537
f 452 537 453
f 454 547 556
f 454 556 455
f 455 556 557
f 455 557 558
f 455 558 559
f 455 559 456
f 456 559 560
f 456 560 457
f 457 560 561
f 457 561 562
f 457 562 563
f 457 563 564
f 457 564 458
f 458 564 563
f 458 563 459
f 459 563 565
f 459 565 566
f 459 566 460
f 460 566 567
f 460 567 461
f 461 567 462
f 462 567 568
f 462 568 463
f 463 568 464
f 464 568 569
f 464 569 570
f 464 570 465
f 465 570 466
f 466 571 467
f 466 570 571
f 467 572 468
f 467 571 572
f 468 573 574
f 468 574 575
f 468 575 576
f 468 576 577
f 468 577 470
f 468 470 469
f 468 572 571
f 468 571 578
f 468 578 573
f 470 577 576
f 470 576 471
f 471 576 472
f 472 576 579
f 472 579 580
f 472 580 473
f 473 580 581
f 473 581 474
f 474 581 582
f 474 582 583
f 474 583 584
f 474 584 477
f 477 584 478
f 478 584 585
f 478 585 480
f 479 586 482
f 479 480 587
f 479 587 586
f 480 585 588
f 480 588 587
f 482 586 490
f 483 589 497
f 483 497 590
f 483 590 485
f 483 485 484
f 483 487 591
f 483 591 592
f 483 592 589
f 485 590 493
f 487 488 591
f 488 489 591
f 489 492 491
f 489 491 593
f 489 593 594
f 489 594 595
f 489 595 596
f 489 596 591
f 490 586 491
f 491 597 598
f 491 598 599
f 491 599 594
f 491 594 593
f 491 586 597
f 493 590 497
f 493 497 494
f 495 499 600
f 495 600 601
f 495 601 602
f 495 602 603
f 495 603 496
f 496 603 500
f 497 589 498
f 498 589 604
f 498 604 605
f 498 605 499
f 499 605 606
f 499 606 600
f 500 607 501
f 500 603 602
f 500 602 608
f 500 608 517
f 500 517 607
f 501 607 517
f 504 519 507
f 504 507 505
f 507 519 609
f 507 609 508
f 508 609 610
f 508 610 611
f 508 611 510
f 508 510 509
f 510 611 612
f 510 612 511
f 511 613 513
f 511 513 512
f 511 612 610
f 511 610 614
f 511 614 615
f 511 615 616
f 511 616 613
f 513 613 617
f 513 617 514
f 514 617 515
f 515 617 618
f 515 618 619
f 515 619 620
f 515 620 621
f 515 621 516
f 517 608 518
f 518 608 622
f 518 622 519
f 519 623 609
f 519 622 624
f 519 624 623
f 520 619 617
f 520 617 625
f 520 625 521
f 521 625 522
f 522 625 523
f 523 625 626
f 523 626 627
f 523 627 524
f 524 628 629
f 524 629 630
f 524 630 525
f 524 627 628
f 525 630 631
f 525 631 632
f 525 632 633
f 525 633 634
f 525 634 635
f 525 635 526
f 526 635 636
f 526 636 637
f 526 637 638
f 526 638 527
f 527 638 639
f 527 639 640
f 527 640 528
f 528 640 641
f 528 641 529
f 529 641 530
f 530 641 531
f 531 641 642
f 531 642 533
f 531 533 532
f 533 642 643
f 533 643 534
f 534 643 535
f 535 643 548
f 536 538 644
f 536 644 539
f 537 555 645
f 537 645 646
f 537 646 647
f 537 647 538
f 538 647 648
f 538 648 644
f 539 644 649
f 539 649 540
f 540 649 541
f 541 649 650
f 541 650 651
f 541 651 652
f 541 652 544
f 541 544 543
f 541 543 542
f 544 652 546
f 545 557 547
f 545 546 653
f 545 653 654
f 545 654 557
f 546 652 653
f 547 557 556
f 548 643 655
f 548 655 656
f 548 656 549
f 549 656 657
f 549 657 658
f 549 658 550
f 550 658 659
f 550 659 552
f 550 552 551
f 552 659 553
f 553 659 660
f 553 660 554
f 554 660 661
f 554 661 555
f 555 661 645
f 557 654 662
f 557 662 558
f 558 662 559
f 559 662 560
f 560 662 663
f 560 663 664
f 560 664 665
f 560 665 561
f 561 665 562
f 562 665 563
f 563 665 666
f 563 666 667
f 563 667 565
f 565 667 566
f 566 667 668
f 566 668 567
f 567 668 568
f 568 668 669
f 568 669 569
f 569 669 670
f 569 670 570
f 570 670 671
f 570 671 571
f 571 671 578
f 573 578 672
f 573 672 673
f 573 673 574
f 574 673 674
f 574 674 675
f 574 675 575
f 575 675 676
f 575 676 677
f 575 677 678
f 575 678 579
f 575 579 576
f 578 671 672
f 579 678 679
f 579 679 580
f 580 679 680
f 580 680 581
f 581 680 582
f 582 680 681
f 582 681 682
f 582 682 683
f 582 683 583
f 583 683 584
f 584 683 682
f 584 682 684
f 584 684 585
f 585 684 685
f 585 685 588
f 586 587 597
f 587 588 598
f 587 598 597
f 588 685 686
f 588 686 598
f 589 592 687
f 589 687 688
f 589 688 689
f 589 689 690
f 589 690 604
f 591 596 687
f 591 687 592
f 594 599 691
f 594 691 692
f 594 692 693
f 594 693 694
f 594 694 595
f 595 694 695
f 595 695 696
f 595 696 596
f 596 696 687
f 598 691 599
f 598 686 697
f 598 697 691
f 600 698 699
f 600 699 700
f 600 700 601
f 600 606 701
f 600 701 702
f 600 702 703
f 600 703 704
f 600 704 698
f 601 700 705
f 601 705 706
f 601 706 608
f 601 608 602
f 604 690 605
f 605 690 689
f 605 689 606
f 606 702 701
f 606 689 702
f 608 706 707
f 608 707 708
f 608 708 624
f 608 624 622
f 609 623 610
f 610 709 710
f 610 710 614
f 610 612 611
f 610 623 708
f 610 708 711
f 610 711 712
f 610 712 709
f 613 616 617
f 614 710 615
f 615 710 626
f 615 626 616
f 616 626 625
f 616 625 617
f 617 619 618
f 623 624 708
f 626 710 713
f 626 713 627
f 627 713 628
f 628 713 629
f 629 712 705
f 629 705 714
f 629 714 715
f 629 715 716
f 629 716 630
f 629 713 717
f 629 717 709
f 629 709 712
f 630 716 718
f 630 718 631
f 631 719 720
f 631 720 721
f 631 721 722
f 631 722 633
f 631 633 632
f 631 718 719
f 633 722 723
f 633 723 724
f 633 724 634
f 634 724 635
f 635 724 725
f 635 725 636
f 636 725 726
f 636 726 637
f 637 640 639
f 637 639 638
f 637 726 727
f 637 727 728
f 637 728 729
f 637 729 640
f 640 729 642
f 640 642 641
f 642 730 731
f 642 731 643
f 642 729 732
f 642 732 733
f 642 733 730
f 643 731 734
f 643 734 735
f 643 735 655
f 644 648 649
f 645 736 646
f 645 661 737
f 645 737 736
f 646 736 738
f 646 738 739
f 646 739 647
f 647 739 648
f 648 739 740
f 648 740 741
f 648 741 742
f 648 742 743
f 648 743 649
f 649 743 744
f 649 744 745
f 649 745 650
f 650 745 651
f 651 745 746
f 651 746 652
f 652 747 748
f 652 748 653
f 652 746 747
f 653 748 654
f 654 748 662
f 655 735 656
f 656 735 657
f 657 659 658
f 657 735 749
f 657 749 750
f 657 750 751
f 657 751 752
f 657 752 659
f 659 752 753
f 659 753 660
f 660 753 754
f 660 754 737
f 660 737 661
f 662 748 663
f 663 748 755
f 663 755 756
f 663 756 664
f 664 757 665
f 664 756 758
f 664 758 757
f 665 757 759
f 665 759 666
f 666 759 667
f 667 759 760
f 667 760 668
f 668 760 669
f 669 760 761
f 669 761 670
f 670 761 671
f 671 761 672
f 672 761 762
f 672 762 763
f 672 763 673
f 673 764 765
f 673 765 766
f 673 766 767
f 673 767 674
f 673 763 764
f 674 767 768
f 674 768 769
f 674 769 675
f 675 769 770
f 675 770 676
f 676 770 677
f 677 770 771
f 677 771 679
f 677 679 678
f 679 771 772
f 679 772 680
f 680 772 681
f 681 773 774
f 681 774 775
f 681 775 776
f 681 776 682
f 681 772 773
f 682 775 777
f 682 777 684
f 682 776 775
f 684 777 778
f 684 778 779
f 684 779 685
f 685 779 780
f 685 780 686
f 686 780 697
f 687 696 781
f 687 781 688
f 688 781 782
f 688 782 783
f 688 783 689
f 689 783 784
f 689 784 785
f 689 785 786
f 689 786 702
f 691 787 692
f 691 697 788
f 691 788 787
f 692 787 789
f 692 789 693
f 693 790 695
f 693 695 694
f 693 789 790
f 695 790 791
f 695 791 696
f 696 791 781
f 697 780 792
f 697 792 788
f 698 793 699
f 698 704 793
f 699 793 704
f 699 704 794
f 699 794 714
f 699 714 795
f 699 795 700
f 700 795 796
f 700 796 705
f 702 786 797
f 702 797 704
f 702 704 703
f 704 797 798
f 704 798 799
f 704 799 800
f 704 800 794
f 705 796 714
f 705 712 706
f 706 712 711
f 706 711 707
f 707 711 708
f 709 717 710
f 710 717 713
f 714 796 795
f 714 794 801
f 714 801 802
f 714 802 715
f 715 802 800
f 715 800 803
f 715 803 719
f 715 719 718
f 715 718 716
f 719 803 804
f 719 804 720
f 720 804 805
f 720 805 721
f 721 805 806
f 721 806 807
f 721 807 723
f 721 723 722
f 723 807 808
f 723 808 725
f 723 725 724
f 725 808 809
f 725 809 728
f 725 728 726
f 726 728 727
f 728 809 810
f 728 810 811
f 728 811 812
f 728 812 733
f 728 733 732
f 728 732 729
f 730 733 813
f 730 813 814
f 730 814 731
f 731 814 734
f 733 814 813
f 733 812 815
f 733 815 816
f 733 816 814
f 734 814 817
f 734 817 735
f 735 817 749
f 736 818 738
f 736 737 819
f 736 819 818
f 737 754 819
f 738 818 820
f 738 820 821
f 738 821 739
f 739 821 740
f 740 821 822
f 740 822 823
f 740 823 824
f 740 824 825
f 740 825 741
f 741 825 742
f 742 744 743
f 742 825 744
f 744 826 746
f 744 746 745
f 744 825 827
f 744 827 828
f 744 828 826
f 746 826 829
f 746 829 830
f 746 830 747
f 747 830 755
f 747 755 748
f 749 817 831
f 749 831 832
f 749 832 833
f 749 833 750
f 750 833 834
f 750 834 753
f 750 753 751
f 751 753 752
f 753 834 835
f 753 835 754
f 754 835 836
f 754 836 887
f 754 887 819
f 755 830 756
f 756 830 837
f 756 837 838
f 756 838 839
f 756 839 758
f 757 758 840
f 757 840 841
f 757 841 759
f 758 839 840
f 759 841 762
f 759 762 760
f 760 762 761
f 762 841 763
f 763 841 840
f 763 840 842
f 763 842 764
f 764 843 765
f 764 842 843
f 765 843 844
f 765 844 766
f 766 844 845
f 766 845 767
f 767 846 847
f 767 847 768
f 767 845 846
f 768 848 849
f 768 849 770
f 768 770 769
f 768 847 850
f 768 850 848
f 770 849 771
f 771 849 772
f 772 849 773
f 773 849 851
f 773 851 852
f 773 852 853
f 773 853 774
f 774 853 854
f 774 854 775
f 775 854 777
f 777 854 778
f 778 854 855
f 778 855 856
f 778 856 857
f 778 857 858
f 778 858 859
f 778 859 860
f 778 860 861
f 778 861 779
f 779 861 862
f 779 862 780
f 780 862 792
f 781 791 863
f 781 863 782
f 782 863 784
f 782 784 783
f 784 863 864
f 784 864 785
f 785 864 865
f 785 865 786
f 786 865 866
f 786 866 797
f 787 788 867
f 787 867 789
f 788 868 867
f 788 792 869
f 788 869 868
f 789 867 870
f 789 870 871
f 789 871 790
f 790 871 872
f 790 872 791
f 791 872 863
f 792 862 869
f 794 800 873
f 794 873 801
f 797 866 874
f 797 874 798
f 798 875 799
f 798 874 875
f 799 803 800
f 799 875 803
f 800 802 801
f 800 801 873
f 803 875 804
f 804 875 805
f 805 875 876
f 805 876 806
f 806 876 877
f 806 877 878
f 806 878 807
f 807 878 879
f 807 879 808
f 808 879 880
f 808 880 809
f 809 880 810
f 810 880 881
f 810 881 882
f 810 882 811
f 811 882 883
f 811 883 812
f 812 883 815
f 814 816 817
f 815 817 816
f 815 883 884
f 815 884 817
f 817 884 885
f 817 885 832
f 817 832 831
f 818 886 820
f 818 819 887
f 818 887 886
f 820 886 888
f 820 888 821
f 821 888 889
f 821 889 822
f 822 889 823
f 823 889 890
f 823 890 891
f 823 891 892
f 823 892 824
f 824 892 825
f 825 892 827
f 826 828 829
f 827 892 893
f 827 893 828
f 828 893 829
f 829 893 838
f 829 838 837
f 829 837 830
f 832 894 895
f 832 895 896
f 832 896 897
f 832 897 834
f 832 834 833
f 832 885 898
f 832 898 894
f 834 897 899
f 834 899 835
f 835 900 836
f 835 899 900
f 836 900 887
f 838 893 844
f 838 844 843
f 838 843 839
f 839 843 842
f 839 842 840
f 844 893 901
f 844 901 845
f 845 901 846
f 846 901 902
f 846 902 903
f 846 903 847
f 847 903 850
f 848 904 851
f 848 851 849
f 848 850 905
f 848 905 904
f 850 903 906
f 850 906 907
f 850 907 905
f 851 904 908
f 851 908 852
f 852 908 853
f 853 855 854
f 853 908 909
f 853 909 910
f 853 910 855
f 855 910 911
f 855 911 856
f 856 911 857
f 857 911 912
f 857 912 858
f 858 912 913
f 858 913 914
f 858 914 859
f 859 915 860
f 859 914 915
f 860 915 861
f 861 915 916
f 861 916 869
f 861 869 862
f 863 872 864
f 864 872 917
f 864 917 918
f 864 918 865
f 865 919 866
f 865 918 920
f 865 920 919
f 866 919 921
f 866 921 874
f 867 868 922
f 867 922 870
f 868 869 916
f 868 916 915
f 868 915 923
f 868 923 922
f 870 924 871
f 870 922 924
f 871 925 926
f 871 926 927
f 871 927 917
f 871 917 872
f 871 924 925
f 874 921 876
f 874 876 875
f 876 921 928
f 876 928 877
f 877 929 878
f 877 928 930
f 877 930 929
f 878 929 879
f 879 929 931
f 879 931 932
f 879 932 880
f 880 932 881
f 881 932 931
f 881 931 933
f 881 933 934
f 881 934 882
f 882 934 935
f 882 935 883
f 883 935 936
f 883 936 937
f 883 937 884
f 884 937 898
f 884 898 885
f 886 938 939
f 886 939 940
f 886 940 888
f 886 887 938
f 887 900 938
f 888 940 941
f 888 941 889
f 889 941 942
f 889 942 890
f 890 942 943
f 890 943 944
f 890 944 906
f 890 906 891
f 891 902 893
f 891 893 892
f 891 906 903
f 891 903 902
f 893 902 901
f 894 898 936
f 894 936 945
f 894 945 895
f 895 945 946
f 895 946 947
f 895 947 948
f 895 948 896
f 896 948 949
f 896 949 897
f 897 949 899
f 898 937 936
f 899 949 950
f 899 950 951
f 899 951 900
f 900 951 938
f 904 952 908
f 904 905 907
f 904 907 952
f 906 944 953
f 906 953 907
f 907 953 952
f 908 952 953
f 908 953 954
f 908 954 955
f 908 955 910
f 908 910 909
f 910 955 911
f 911 955 956
f 911 956 957
f 911 957 912
f 912 957 958
f 912 958 913
f 913 958 959
f 913 959 914
f 914 923 915
f 914 959 960
f 914 960 923
f 917 927 918
f 918 927 920
f 919 961 921
f 919 920 926
f 919 926 961
f 920 927 926
f 921 961 928
f 922 923 960
f 922 960 924
f 924 960 962
f 924 962 925
f 925 963 926
f 925 962 963
f 926 963 964
f 926 964 961
f 928 961 930
f 929 930 965
f 929 965 931
f 930 964 965
f 930 961 964
f 931 965 966
f 931 966 967
f 931 967 933
f 933 967 934
f 934 967 968
f 934 968 935
f 935 968 936
f 936 968 946
f 936 946 945
f 938 951 969
f 938 969 939
f 939 970 971
f 939 971 972
f 939 972 940
f 939 969 970
f 940 972 941
f 941 972 971
f 941 971 943
f 941 943 942
f 943 971 973
f 943 973 974
f 943 974 944
f 944 974 953
f 946 967 947
f 946 968 967
f 947 975 976
f 947 976 977
f 947 977 948
f 947 967 975
f 948 977 978
f 948 978 979
f 948 979 949
f 949 979 950
f 950 979 980
f 950 980 969
f 950 969 951
f 953 974 954
f 954 974 955
f 955 974 956
f 956 974 981
f 956 981 957
f 957 981 982
f 957 982 983
f 957 983 958
f 958 983 984
f 958 984 959
f 959 984 985
f 959 985 960
f 960 985 962
f 962 985 986
f 962 986 963
f 963 966 965
f 963 965 964
f 963 986 966
f 966 986 987
f 966 987 967
f 967 987 988
f 967 988 975
f 969 980 982
f 969 982 989
f 969 989 970
f 970 989 971
f 971 989 973
f 973 989 981
f 973 981 974
f 975 988 976
f 976 978 977
f 976 988 984
f 976 984 983
f 976 983 978
f 978 983 982
f 978 982 979
f 979 982 980
f 981 989 982
f 984 988 985
f 985 988 987
f 985 987 986

