# https://github.com/mikedh/trimesh
v 0.07022433 -0.05632799 -0.19999052
v 0.07169671 -0.05632799 -0.19994255
v 0.05448834 -0.05632799 -0.19994255
v 0.04777063 -0.04978923 -0.19970260
v 0.05022458 -0.04978923 -0.19970260
v 0.07436539 -0.05632799 -0.19972659
v 0.07022433 -0.05543246 -0.19982257
v 0.01421277 -0.05632799 -0.19780709
v 0.04777063 -0.05212044 -0.19970260
v 0.01439681 -0.05334290 -0.19665540
v 0.04559274 -0.04748644 -0.19833496
v 0.04537802 -0.04054967 -0.19492785
v 0.05160493 -0.04093346 -0.19557569
v 0.05200371 -0.04748644 -0.19869486
v 0.07022433 -0.05231944 -0.19881483
v 0.07418134 -0.05610055 -0.19967862
v 0.08629776 -0.05632799 -0.19795107
v 0.01114532 -0.05632799 -0.19694333
v 0.00795518 -0.05298753 -0.19473590
v 0.00988767 -0.04944807 -0.19372816
v 0.01439681 -0.04853833 -0.19423203
v 0.00574661 -0.05068475 -0.19317630
v 0.04746388 -0.03755037 -0.19358421
v 0.01439681 -0.04543953 -0.19260045
v 0.05160493 -0.03760722 -0.19353620
v 0.05488710 -0.03780623 -0.19336825
v 0.05727971 -0.04052124 -0.19478388
v 0.06399742 -0.04711686 -0.19730323
v 0.07022433 -0.04711686 -0.19653542
v 0.08016286 -0.04371955 -0.19348823
v 0.09188051 -0.05632799 -0.19703931
v -0.00127784 -0.05632799 -0.19341624
v -0.00127784 -0.05628534 -0.19341624
v -0.21602976 0.08886097 -0.05228506
v 0.00795518 -0.04727322 -0.19197662
v 0.00200433 -0.05200672 -0.19252846
v 0.03918178 0.02387136 -0.13100852
v 0.04537802 0.02399929 -0.13112849
v 0.06583789 -0.00651967 -0.16260827
v 0.07022433 -0.00647703 -0.16265627
v 0.01448883 -0.04052124 -0.18916934
v -0.21514018 0.08886097 -0.05242902
v 0.09500931 -0.01374074 -0.16798287
v 0.07642057 -0.03583039 -0.18885744
v 0.05899748 -0.03817581 -0.19308032
v 0.07642057 -0.04015165 -0.19195264
v 0.06399742 -0.04188585 -0.19468791
v 0.08240209 -0.04137412 -0.19154472
v 0.09730989 -0.04910692 -0.19214457
v 0.09730989 -0.05348505 -0.19461593
v 0.09730989 -0.05632799 -0.19607954
v 0.09507065 -0.05632799 -0.19648745
v -0.01385437 -0.05632799 -0.18732183
v -0.21201141 -0.01585873 -0.09228262
v -0.21602976 0.07495899 -0.05420456
v -0.21602976 0.08886097 -0.03500956
v 0.04537802 0.02695595 -0.12803330
v 0.05160493 0.03009740 -0.12479414
v 0.05783185 0.02992682 -0.12465018
v 0.06402809 0.02974203 -0.12445823
v 0.09500931 -0.01068458 -0.16486369
v -0.20894395 0.08886097 -0.05259697
v 0.04537802 0.03004054 -0.12467418
v 0.09730989 -0.01081251 -0.16462375
v 0.09730989 -0.01446569 -0.16779092
v 0.09730989 -0.03466478 -0.18295497
v 0.08740203 -0.03723764 -0.18760976
v 0.08261682 -0.03647005 -0.18830558
v 0.09154309 -0.03800524 -0.18703392
v 0.09730989 -0.03927034 -0.18626610
v 0.09730989 -0.04042174 -0.18696192
v 0.09730989 -0.04384748 -0.18902539
v 0.09734057 0.00213708 -0.14933973
v 0.09730989 -0.05632799 -0.17916395
v -0.02581741 -0.05632799 -0.18098748
v -0.21201141 -0.01585873 -0.07596687
v -0.02603213 -0.05632799 -0.18086751
v -0.03216702 -0.05632799 -0.17690855
v -0.03363940 -0.05632799 -0.17592481
v -0.03867001 -0.05632799 -0.17098209
v -0.03943687 -0.05632799 -0.17019030
v -0.03974362 -0.05632799 -0.16985440
v -0.21602976 0.07495899 -0.03875259
v -0.20087658 0.08886097 0.00755534
v 0.05160493 0.03258497 -0.12167496
v 0.05783185 0.03568377 -0.11769199
v 0.05783185 0.03258497 -0.12155498
v 0.06402809 0.03249968 -0.12136304
v 0.07022433 0.03220117 -0.12088316
v 0.09730989 -0.00771371 -0.16131262
v -0.20274772 0.08886097 -0.05221307
v 0.05783185 0.03791548 -0.11459680
v 0.05160493 0.03569799 -0.11776398
v 0.09734057 0.00368648 -0.14754021
v 0.09734057 0.00213708 -0.12508207
v 0.09730989 0.01527146 -0.01077589
v 0.09525470 0.02192394 0.04510554
v -0.03974362 -0.05632799 -0.14218960
v -0.12854619 0.02579034 0.00585178
v -0.13020261 0.02662901 0.00585178
v -0.13238050 0.02795098 0.00585178
v -0.13351546 0.02866171 0.00582778
v -0.13661357 0.03129143 0.00582778
v -0.21201141 0.01252803 -0.06087481
v -0.03974362 0.03249968 0.04510554
v -0.14771773 0.08886097 0.00755534
v -0.15888324 0.05819986 0.00995471
v -0.03974362 0.04616000 0.04510554
v -0.01664575 0.05289778 0.04510554
v -0.01026546 0.05417710 0.04510554
v -0.00422259 0.05510105 0.04510554
v 0.00034791 0.05559857 0.04510554
v 0.00197365 0.05576915 0.04510554
v 0.00820057 0.05606765 0.04510554
v 0.06402809 0.03559848 -0.11752404
v 0.07022433 0.03529998 -0.11733209
v 0.08261682 0.03714789 -0.11337312
v 0.08605236 0.03679252 -0.11291724
v -0.19765576 0.08886097 -0.05130131
v 0.07022433 0.04657223 -0.09722533
v 0.07642057 0.04378616 -0.10221603
v 0.07022433 0.04402780 -0.10269591
v 0.07022433 0.04240733 -0.10581509
v 0.07642057 0.03996240 -0.10960610
v 0.07022433 0.04033198 -0.10960610
v 0.07022433 0.03760276 -0.11423689
v 0.09734057 0.02569084 -0.12076320
v 0.09734057 0.03211588 -0.06497775
v 0.09730989 0.02839163 -0.01077589
v 0.09525470 0.03774490 0.04510554
v -0.14851526 0.08886097 0.00203677
v 0.01439681 0.05599658 0.04510554
v 0.02062373 0.05548485 0.04510554
v 0.02062373 0.05575493 0.04421777
v 0.02519422 0.05544221 0.04309007
v 0.02681997 0.05795821 0.03303669
v 0.02681997 0.05933704 0.02684630
v 0.02681997 0.06009042 0.02065591
v 0.03298554 0.05950761 0.01444154
v 0.07642057 0.05429082 -0.06622542
v 0.07642057 0.03746061 -0.11387699
v 0.08261682 0.03925166 -0.10960610
v 0.08623640 0.04290484 -0.10058446
v 0.09037746 0.04240733 -0.09936077
v 0.09734057 0.04030355 -0.09890490
v 0.09734057 0.03805763 -0.10307981
v 0.09734057 0.03622393 -0.10598305
v 0.09734057 0.03601071 -0.10631896
v 0.09734057 0.03379322 -0.10953412
v 0.09734057 0.03032483 -0.11450083
v 0.09734057 0.02765247 -0.11824385
v -0.19455763 0.08886097 -0.05026958
v 0.07642057 0.05072293 -0.08482057
v 0.07022433 0.04959997 -0.08947535
v 0.07022433 0.04843436 -0.09257055
v 0.07642057 0.04603207 -0.09722533
v 0.07642057 0.04219411 -0.10531122
v 0.08261682 0.04327443 -0.10132826
v 0.08261682 0.04178188 -0.10442346
v 0.09734057 0.04786577 -0.06497775
v 0.09730989 0.04563406 -0.05607607
v 0.09730989 0.04702710 -0.06013101
v 0.09734057 0.04807899 -0.06622542
v 0.09525470 0.03862622 0.03925107
v 0.08829160 0.04155444 0.03886717
v 0.06844522 0.04958575 0.03761949
v 0.08878238 0.04016141 0.04510554
v -0.14940483 0.08886097 -0.00228210
v 0.02301633 0.05514370 0.04510554
v 0.03298554 0.05366537 0.04510554
v 0.02930460 0.05512949 0.04201034
v 0.04142101 0.05507263 0.03558002
v 0.03930448 0.05592551 0.03332461
v 0.04393632 0.05554171 0.03145311
v 0.03298554 0.05829936 0.02684630
v 0.03298554 0.05905274 0.02065591
v 0.03918178 0.05849837 0.01444154
v 0.08261682 0.05294042 -0.06622542
v 0.08261682 0.05262770 -0.07243980
v 0.07642057 0.05367958 -0.07243980
v 0.06770903 0.05528585 -0.06972851
v -0.15234957 0.08886097 -0.01039198
v -0.15044776 0.08886097 -0.00556924
v -0.14949685 0.08886097 -0.00268999
v 0.08740203 0.04965682 -0.08309302
v 0.08261682 0.04496597 -0.09722533
v 0.08218737 0.04996955 -0.08501252
v 0.09329152 0.04318914 -0.09520986
v 0.09522403 0.04176767 -0.09724933
v 0.09734057 0.04108536 -0.09724933
v -0.19032456 0.08886097 -0.04856603
v 0.07642057 0.05254241 -0.07860619
v 0.06402809 0.05385016 -0.07860619
v 0.08261682 0.05181746 -0.07860619
v 0.07642057 0.04813585 -0.09175476
v 0.09734057 0.04780891 -0.07243980
v 0.08884374 0.05082243 -0.07243980
v 0.08884374 0.05089350 -0.06622542
v 0.06951882 0.04994112 0.03303669
v 0.07261694 0.04870444 0.03303669
v 0.08638978 0.04308963 0.03303669
v 0.08948789 0.04179609 0.03303669
v 0.09503997 0.03936538 0.03303669
v 0.09525470 0.03925166 0.03303669
v 0.08586830 0.04286220 0.03653978
v 0.06399742 0.05154738 0.03303669
v 0.06387472 0.04995533 0.03951500
v 0.06586856 0.04877551 0.04177041
v 0.07022433 0.04644430 0.04510554
v 0.07694204 0.04444003 0.04510554
v 0.08059230 0.04317492 0.04510554
v 0.08157389 0.04281955 0.04510554
v 0.03335363 0.05360851 0.04510554
v 0.03921245 0.05261348 0.04510554
v 0.03918178 0.05719062 0.02684630
v 0.03918178 0.05794399 0.02065591
v 0.04958042 0.05541378 0.02521473
v 0.05783185 0.05358008 0.02684630
v 0.06399742 0.05194539 0.02684630
v 0.08921183 0.05001219 -0.07824628
v 0.06994826 0.05461775 -0.07205590
v -0.18152099 0.08886097 -0.04419917
v -0.18121424 0.08886097 -0.04398322
v -0.17793208 0.08886097 -0.04165583
v -0.17406709 0.08886097 -0.03887256
v -0.17096898 0.08886097 -0.03656916
v -0.16731871 0.08886097 -0.03344997
v -0.16422059 0.08886097 -0.02946701
v -0.16406721 0.08886097 -0.02925107
v -0.15667467 0.08886097 -0.01852586
v -0.15492623 0.08886097 -0.01567061
v -0.15471151 0.08886097 -0.01526271
v 0.09151241 0.04883237 -0.08009380
v 0.09734057 0.04550613 -0.08494054
v 0.09734057 0.04482383 -0.08700400
v 0.09734057 0.04257790 -0.09355429
v -0.18461911 0.08886097 -0.04587873
v 0.06402809 0.05493048 -0.07399939
v 0.09734057 0.04702710 -0.07839025
v 0.05163561 0.05477412 0.02711024
v 0.06387472 0.04785156 0.04508154
v 0.06384404 0.04783734 0.04510554
f 1 2 6
f 1 6 17
f 1 17 31
f 1 31 52
f 1 52 51
f 1 51 74
f 1 74 98
f 1 98 82
f 1 82 81
f 1 81 80
f 1 80 79
f 1 79 78
f 1 78 77
f 1 77 75
f 1 75 53
f 1 53 32
f 1 32 18
f 1 18 8
f 1 8 3
f 1 3 4
f 1 4 5
f 1 5 2
f 2 5 7
f 2 7 6
f 3 8 9
f 3 9 4
f 4 9 8
f 4 8 10
f 4 10 11
f 4 11 12
f 4 12 13
f 4 13 14
f 4 14 5
f 5 14 15
f 5 15 7
f 6 7 16
f 6 16 17
f 7 15 16
f 8 18 19
f 8 19 10
f 10 20 21
f 10 21 12
f 10 12 11
f 10 19 22
f 10 22 20
f 12 23 13
f 12 21 24
f 12 24 23
f 13 25 26
f 13 26 27
f 13 27 28
f 13 28 14
f 13 23 25
f 14 28 15
f 15 29 30
f 15 30 17
f 15 17 16
f 15 28 29
f 17 30 31
f 18 32 33
f 18 33 19
f 19 33 22
f 20 24 21
f 20 22 34
f 20 34 35
f 20 35 24
f 22 33 36
f 22 36 34
f 23 37 38
f 23 38 39
f 23 39 40
f 23 40 25
f 23 24 41
f 23 41 34
f 23 34 42
f 23 42 37
f 24 35 34
f 24 34 41
f 25 40 43
f 25 43 26
f 26 43 44
f 26 44 45
f 26 45 27
f 27 45 46
f 27 46 47
f 27 47 28
f 28 47 29
f 29 47 30
f 30 47 46
f 30 46 48
f 30 48 49
f 30 49 50
f 30 50 51
f 30 51 52
f 30 52 31
f 32 53 54
f 32 54 33
f 33 54 34
f 33 34 36
f 34 54 55
f 34 55 83
f 34 83 56
f 34 56 84
f 34 84 106
f 34 106 131
f 34 131 168
f 34 168 184
f 34 184 183
f 34 183 182
f 34 182 232
f 34 232 231
f 34 231 230
f 34 230 229
f 34 229 228
f 34 228 227
f 34 227 226
f 34 226 225
f 34 225 224
f 34 224 223
f 34 223 222
f 34 222 237
f 34 237 191
f 34 191 152
f 34 152 119
f 34 119 91
f 34 91 62
f 34 62 42
f 37 57 38
f 37 42 57
f 38 57 58
f 38 58 40
f 38 40 39
f 40 58 59
f 40 59 60
f 40 60 61
f 40 61 43
f 42 62 58
f 42 58 63
f 42 63 57
f 43 61 64
f 43 64 65
f 43 65 66
f 43 66 67
f 43 67 68
f 43 68 44
f 44 46 45
f 44 68 46
f 46 68 48
f 48 68 67
f 48 67 69
f 48 69 70
f 48 70 71
f 48 71 72
f 48 72 49
f 49 72 73
f 49 73 50
f 50 73 51
f 51 73 95
f 51 95 74
f 53 75 54
f 54 76 83
f 54 83 55
f 54 75 77
f 54 77 78
f 54 78 79
f 54 79 80
f 54 80 81
f 54 81 82
f 54 82 98
f 54 98 76
f 56 83 84
f 57 63 58
f 58 62 85
f 58 85 86
f 58 86 87
f 58 87 88
f 58 88 59
f 59 88 60
f 60 88 89
f 60 89 90
f 60 90 61
f 61 90 64
f 62 91 92
f 62 92 86
f 62 86 93
f 62 93 85
f 64 90 73
f 64 73 65
f 65 73 66
f 66 73 70
f 66 70 69
f 66 69 67
f 70 73 71
f 71 73 72
f 73 90 94
f 73 94 127
f 73 127 151
f 73 151 150
f 73 150 149
f 73 149 148
f 73 148 147
f 73 147 146
f 73 146 145
f 73 145 190
f 73 190 236
f 73 236 235
f 73 235 234
f 73 234 239
f 73 239 196
f 73 196 163
f 73 163 160
f 73 160 128
f 73 128 95
f 74 95 96
f 74 96 97
f 74 97 98
f 76 99 100
f 76 100 101
f 76 101 102
f 76 102 103
f 76 103 84
f 76 84 104
f 76 104 83
f 76 98 97
f 76 97 105
f 76 105 99
f 83 104 84
f 84 103 102
f 84 102 107
f 84 107 105
f 84 105 108
f 84 108 109
f 84 109 110
f 84 110 111
f 84 111 112
f 84 112 113
f 84 113 114
f 84 114 106
f 85 93 86
f 86 92 115
f 86 115 87
f 87 115 88
f 88 115 116
f 88 116 89
f 89 116 117
f 89 117 90
f 90 117 118
f 90 118 94
f 91 119 120
f 91 120 121
f 91 121 122
f 91 122 123
f 91 123 124
f 91 124 125
f 91 125 126
f 91 126 92
f 92 126 115
f 94 118 127
f 95 128 96
f 96 129 130
f 96 130 97
f 96 128 160
f 96 160 129
f 97 130 167
f 97 167 212
f 97 212 211
f 97 211 210
f 97 210 209
f 97 209 242
f 97 242 214
f 97 214 213
f 97 213 170
f 97 170 169
f 97 169 133
f 97 133 132
f 97 132 114
f 97 114 113
f 97 113 112
f 97 112 111
f 97 111 110
f 97 110 109
f 97 109 108
f 97 108 105
f 99 105 100
f 100 105 101
f 101 105 102
f 102 105 107
f 106 114 132
f 106 132 133
f 106 133 134
f 106 134 135
f 106 135 136
f 106 136 137
f 106 137 138
f 106 138 139
f 106 139 140
f 106 140 131
f 115 126 141
f 115 141 116
f 116 141 117
f 117 142 118
f 117 141 124
f 117 124 142
f 118 142 143
f 118 143 144
f 118 144 145
f 118 145 146
f 118 146 147
f 118 147 148
f 118 148 149
f 118 149 150
f 118 150 151
f 118 151 127
f 119 152 153
f 119 153 154
f 119 154 155
f 119 155 156
f 119 156 120
f 120 156 121
f 121 157 122
f 121 156 158
f 121 158 159
f 121 159 142
f 121 142 157
f 122 157 123
f 123 157 124
f 124 141 125
f 124 157 142
f 125 141 126
f 129 161 130
f 129 160 161
f 130 161 162
f 130 162 160
f 130 160 163
f 130 163 164
f 130 164 165
f 130 165 166
f 130 166 167
f 131 140 168
f 133 169 134
f 134 169 135
f 135 169 170
f 135 170 171
f 135 171 136
f 136 171 172
f 136 172 173
f 136 173 137
f 137 173 174
f 137 174 175
f 137 175 176
f 137 176 138
f 138 176 177
f 138 177 139
f 139 177 140
f 140 177 178
f 140 178 179
f 140 179 180
f 140 180 181
f 140 181 182
f 140 182 183
f 140 183 184
f 140 184 168
f 142 159 143
f 143 185 144
f 143 159 158
f 143 158 186
f 143 186 187
f 143 187 185
f 144 188 189
f 144 189 190
f 144 190 145
f 144 185 188
f 152 191 192
f 152 192 193
f 152 193 153
f 153 193 192
f 153 192 194
f 153 194 187
f 153 187 195
f 153 195 154
f 154 195 155
f 155 195 156
f 156 195 187
f 156 187 186
f 156 186 158
f 160 162 161
f 163 196 197
f 163 197 198
f 163 198 199
f 163 199 200
f 163 200 201
f 163 201 202
f 163 202 203
f 163 203 204
f 163 204 164
f 164 204 203
f 164 203 202
f 164 202 201
f 164 201 205
f 164 205 165
f 165 205 200
f 165 200 199
f 165 199 166
f 166 199 206
f 166 206 207
f 166 207 208
f 166 208 209
f 166 209 210
f 166 210 211
f 166 211 212
f 166 212 167
f 170 213 171
f 171 213 172
f 172 174 173
f 172 213 214
f 172 214 207
f 172 207 206
f 172 206 174
f 174 215 175
f 174 206 215
f 175 215 216
f 175 216 176
f 176 216 177
f 177 216 217
f 177 217 218
f 177 218 178
f 178 198 197
f 178 197 179
f 178 218 219
f 178 219 206
f 178 206 199
f 178 199 198
f 179 197 220
f 179 220 194
f 179 194 180
f 180 221 181
f 180 194 221
f 181 221 222
f 181 222 223
f 181 223 224
f 181 224 225
f 181 225 226
f 181 226 227
f 181 227 228
f 181 228 229
f 181 229 230
f 181 230 231
f 181 231 232
f 181 232 182
f 185 187 194
f 185 194 220
f 185 220 233
f 185 233 234
f 185 234 235
f 185 235 236
f 185 236 188
f 188 236 189
f 189 236 190
f 191 237 192
f 192 237 238
f 192 238 194
f 194 238 221
f 196 239 220
f 196 220 197
f 200 205 201
f 206 219 218
f 206 218 240
f 206 240 215
f 207 214 208
f 208 214 241
f 208 241 209
f 209 241 242
f 214 242 241
f 215 240 217
f 215 217 216
f 217 240 218
f 220 239 233
f 221 238 222
f 222 238 237
f 233 239 234

