# https://github.com/mikedh/trimesh
v -0.13972732 -0.14029720 -0.20928312
v -0.13972732 -0.13887183 -0.20883349
v -0.03981298 -0.16637494 -0.20908917
v -0.15390967 -0.14029720 -0.20885112
v -0.15390967 -0.13944919 -0.20857781
v -0.15305915 -0.13558805 -0.20733470
v -0.14925309 -0.13545574 -0.20740523
v -0.14770090 -0.13543168 -0.20743167
v -0.13972732 -0.13802983 -0.20850728
v 0.01213226 -0.14902386 -0.19286695
v -0.02278141 -0.16638095 -0.20555378
v -0.03981298 -0.16888889 -0.19500053
v -0.04689352 -0.16782437 -0.19500053
v -0.04808424 -0.16763192 -0.19500053
v -0.20504692 -0.14029720 -0.19808629
v -0.20406884 -0.14029720 -0.19847419
v -0.20262295 -0.14029720 -0.19903846
v -0.20121960 -0.14029720 -0.19950571
v -0.19888068 -0.14029720 -0.20019340
v -0.18401793 -0.14029720 -0.20421369
v -0.17697991 -0.14029720 -0.20595052
v -0.17559781 -0.14029720 -0.20627673
v -0.17406689 -0.14029720 -0.20662939
v -0.17240837 -0.14029720 -0.20691151
v -0.17145154 -0.14029720 -0.20705257
v -0.16992063 -0.14029720 -0.20726417
v -0.16864485 -0.14029720 -0.20740523
v -0.16473247 -0.14029720 -0.20783724
v -0.15914034 -0.14029720 -0.20843675
v -0.15701405 -0.14029720 -0.20864835
v -0.15544060 -0.14029720 -0.20878941
v -0.13972732 -0.13669467 -0.20785486
v -0.15544060 -0.13944919 -0.20849846
v -0.15701405 -0.13944919 -0.20835740
v -0.15390967 -0.13570232 -0.20729061
v -0.15701405 -0.13480620 -0.20662939
v -0.15390967 -0.13480620 -0.20694678
v -0.15246380 -0.13493851 -0.20709666
v -0.15080528 -0.13472200 -0.20705257
v -0.14614871 -0.13545574 -0.20740523
v -0.15080528 -0.13335075 -0.20627673
v 0.01217479 -0.14902386 -0.18881141
v 0.01217479 -0.15031091 -0.19262011
v -0.01589223 -0.16638095 -0.20340258
v -0.01701916 -0.16638095 -0.20392274
v -0.01795472 -0.16638095 -0.20429302
v -0.01829493 -0.16638095 -0.20442528
v -0.01876271 -0.16638095 -0.20456634
v -0.02008102 -0.16638095 -0.20491018
v -0.13972732 -0.13650823 -0.20774906
v -0.13972732 -0.13027747 -0.20366706
v -0.13972732 -0.12909268 -0.20287360
v -0.13972732 -0.12831683 -0.20235342
v -0.13972732 -0.12722224 -0.20157758
v -0.13972732 -0.12644641 -0.20101333
v -0.13972732 -0.12572470 -0.20028157
v -0.13972732 -0.12500299 -0.19942638
v -0.13972732 -0.12490075 -0.19928532
v -0.13524084 -0.12280779 -0.19500053
v -0.13621894 -0.12165907 -0.19330778
v -0.13524084 -0.12140046 -0.19233799
v -0.13290193 -0.12162298 -0.19185307
v -0.13679304 -0.12072687 -0.19105079
v -0.10315514 -0.11839936 -0.14467644
v 0.01217479 -0.16638095 -0.18930513
v 0.01217479 -0.16638095 -0.18083256
v -0.05214546 -0.16860020 -0.13834626
v -0.06305332 -0.16704252 -0.14346859
v -0.06390384 -0.16692825 -0.14346859
v -0.20504692 -0.13944318 -0.19805100
v -0.20504692 -0.14029720 -0.18648387
v -0.20470673 -0.13944318 -0.19818326
v -0.20453661 -0.13827642 -0.19811273
v -0.20079434 -0.13944318 -0.19947047
v -0.19888068 -0.13944318 -0.20001707
v -0.20102824 -0.13270723 -0.19798047
v -0.20047540 -0.13163670 -0.19789232
v -0.19951857 -0.13107737 -0.19800694
v -0.17566161 -0.13938304 -0.20603870
v -0.17406689 -0.13944919 -0.20641780
v -0.17249344 -0.13944919 -0.20667347
v -0.16877242 -0.14017691 -0.20736114
v -0.16235104 -0.13405442 -0.20578302
v -0.17406689 -0.13635788 -0.20538627
v -0.16130914 -0.13393413 -0.20584473
v -0.15390967 -0.13335075 -0.20622383
v -0.16011844 -0.13381385 -0.20590644
v -0.15854497 -0.13366950 -0.20598579
v -0.15701405 -0.13354321 -0.20606514
v -0.15529175 -0.13357328 -0.20623265
v -0.15235746 -0.13357328 -0.20640897
v -0.15233620 -0.13333272 -0.20627673
v -0.14925309 -0.13338082 -0.20623265
v -0.14753080 -0.13357328 -0.20627673
v -0.15080528 -0.13257491 -0.20573011
v -0.14925309 -0.13260499 -0.20571248
v 0.01217479 -0.14902386 -0.18317773
v -0.13993994 -0.13357328 -0.20584473
v -0.14147087 -0.12903253 -0.20293531
v -0.14770090 -0.13078268 -0.20435475
v -0.15390967 -0.12994670 -0.20381695
v -0.16167062 -0.12444366 -0.19980548
v -0.15080528 -0.12460004 -0.19971731
v -0.14925309 -0.12463613 -0.19969968
v -0.14659523 -0.12470829 -0.19961153
v -0.14557461 -0.12473836 -0.19956744
v -0.14223633 -0.12007733 -0.19183545
v -0.13679304 -0.12256722 -0.19500053
v -0.13562358 -0.12274765 -0.19500053
v -0.15854497 -0.11804452 -0.19097143
v -0.15701405 -0.11810466 -0.19088328
v -0.15390967 -0.11827305 -0.19069813
v -0.13728208 -0.12158089 -0.19346648
v -0.13679304 -0.12129822 -0.19271709
v -0.13836650 -0.12046224 -0.19105079
v -0.13934458 -0.12010740 -0.19013388
v -0.14266159 -0.11858580 -0.18530248
v -0.14304433 -0.11813473 -0.18330997
v -0.10315514 -0.11839936 -0.13450230
v -0.14540451 -0.11698000 -0.17937785
v -0.14770090 -0.11642669 -0.17863728
v -0.15303788 -0.11541630 -0.17793195
v -0.18958879 -0.10960654 -0.17711204
v -0.19175762 -0.10919757 -0.17647724
v -0.19424538 -0.10879462 -0.17554271
v -0.19424538 -0.10868637 -0.17400865
v -0.19796637 -0.10764590 -0.16595927
v -0.19888068 -0.10747750 -0.16468971
v 0.01217479 -0.16425793 -0.18062977
v -0.04727626 -0.15650558 -0.13414083
v -0.04827561 -0.15650558 -0.13337380
v -0.04916866 -0.15740170 -0.13287126
v -0.04255590 -0.16115458 -0.13871655
v -0.04276852 -0.16227322 -0.13887524
v -0.05214546 -0.16621856 -0.13478442
v -0.05214546 -0.16736128 -0.13557791
v -0.05214546 -0.16801683 -0.13612452
v -0.05214546 -0.16823935 -0.13651244
v -0.05214546 -0.16834760 -0.13678576
v -0.10115642 -0.15666193 -0.12449567
v -0.10115642 -0.15681230 -0.12584458
v -0.20504692 -0.13786744 -0.19787468
v -0.18897217 -0.13196747 -0.14149371
v -0.20466419 -0.12749288 -0.15604962
v -0.20504692 -0.12890623 -0.17712966
v -0.13968478 -0.14349677 -0.12320848
v -0.20504692 -0.13641802 -0.19758375
v -0.20340969 -0.13490844 -0.19776008
v -0.20196380 -0.13323648 -0.19783061
v -0.20198507 -0.13169683 -0.19746913
v -0.20043288 -0.13015118 -0.19740742
v -0.19847669 -0.13069847 -0.19812154
v -0.19318224 -0.13114352 -0.19953218
v -0.18123249 -0.13235840 -0.20273254
v -0.17819189 -0.13534146 -0.20431067
v -0.17515128 -0.13839068 -0.20587999
v -0.17559781 -0.13635788 -0.20515704
v -0.17096251 -0.13944919 -0.20684978
v -0.17640581 -0.13400630 -0.20424896
v -0.17406689 -0.13357328 -0.20434593
v -0.17406689 -0.13288766 -0.20407263
v -0.17128145 -0.13256890 -0.20420487
v -0.15701405 -0.13276738 -0.20562431
v -0.15544060 -0.13265310 -0.20567720
v -0.15390967 -0.13257491 -0.20573011
v -0.15233620 -0.13255687 -0.20573011
v -0.15544060 -0.13071652 -0.20439884
v 0.01217479 -0.15656572 -0.18161723
v -0.03332780 -0.14902386 -0.14632511
v -0.16320155 -0.12443765 -0.19980548
v -0.16320155 -0.12366783 -0.19910017
v -0.16473247 -0.12292207 -0.19836841
v -0.16785812 -0.12151473 -0.19664920
v -0.17870221 -0.11858580 -0.19331660
v -0.17870221 -0.11725665 -0.19142989
v -0.16987809 -0.11696196 -0.19031021
v -0.15008235 -0.11853768 -0.19025730
v -0.17627823 -0.11230694 -0.18100889
v -0.14123698 -0.12014950 -0.19154450
v -0.15233620 -0.11836929 -0.19055707
v -0.15894896 -0.11691985 -0.18888195
v -0.16785812 -0.11701609 -0.19022204
v -0.16473247 -0.11710029 -0.19005453
v -0.16167062 -0.11718448 -0.18987820
v -0.16011844 -0.11722658 -0.18978123
v -0.16011844 -0.11685369 -0.18901419
v -0.13972732 -0.12024572 -0.19102434
v -0.13972732 -0.12007733 -0.19027494
v -0.16513646 -0.11381650 -0.17968642
v -0.13968478 -0.11839936 -0.12776656
v -0.10115642 -0.14877126 -0.11989351
v -0.05214546 -0.15370895 -0.13049965
v -0.03981298 -0.14902386 -0.14166123
v -0.03636839 -0.14902386 -0.14403284
v -0.03511388 -0.14902386 -0.14495857
v -0.03430589 -0.14902386 -0.14556690
v -0.19879563 -0.10753163 -0.16312921
v -0.19888068 -0.10803682 -0.15695770
v -0.19888068 -0.10813907 -0.15604962
v -0.19120478 -0.10935995 -0.17704151
v -0.19265065 -0.10918555 -0.17709440
v -0.19269318 -0.10913142 -0.17679463
v -0.19424538 -0.10905323 -0.17704151
v -0.19577630 -0.10873447 -0.17554271
v -0.19577630 -0.10854803 -0.17400865
v -0.19888068 -0.10759778 -0.16617968
v -0.20043288 -0.10745344 -0.16468971
v -0.20043288 -0.10747149 -0.16316447
v 0.01217479 -0.16271226 -0.18057688
v -0.04904107 -0.15495991 -0.13276547
v -0.04906234 -0.15650558 -0.13279192
v -0.05001917 -0.15650558 -0.13213069
v -0.05214546 -0.15650558 -0.13067598
v -0.05123115 -0.15806325 -0.13165460
v -0.05214546 -0.16037874 -0.13172513
v -0.05214546 -0.16111848 -0.13198962
v -0.05214546 -0.16181614 -0.13228057
v -0.05214546 -0.16246568 -0.13259796
v -0.05214546 -0.16272430 -0.13273020
v -0.05214546 -0.16425192 -0.13362066
v -0.10115642 -0.15449682 -0.11977008
v -0.10115642 -0.15526062 -0.12133058
v -0.18897217 -0.11305871 -0.14149371
v -0.13968478 -0.14252247 -0.12241500
v -0.13968478 -0.14104898 -0.12236209
v -0.20466419 -0.10907127 -0.15604962
v -0.20504692 -0.12594723 -0.17709440
v -0.20504692 -0.13480620 -0.19715174
v -0.20304821 -0.13051204 -0.19664920
v -0.20207011 -0.13006096 -0.19686962
v -0.20355852 -0.13172691 -0.19682553
v -0.20262295 -0.12947758 -0.19643761
v -0.20155981 -0.12917085 -0.19661394
v -0.20043288 -0.12890021 -0.19677264
v -0.19730721 -0.12961591 -0.19792758
v -0.19896573 -0.13016922 -0.19778652
v -0.19218287 -0.13080072 -0.19963797
v -0.18023313 -0.13212385 -0.20286478
v -0.17870221 -0.13325453 -0.20357891
v -0.17746895 -0.13430702 -0.20415196
v -0.17559781 -0.13311018 -0.20399328
v -0.17704369 -0.13339285 -0.20393157
v -0.17870221 -0.13187125 -0.20301466
v -0.17708621 -0.13158257 -0.20304991
v -0.17406689 -0.13170285 -0.20342903
v -0.17023957 -0.13246666 -0.20424013
v -0.16630594 -0.12550218 -0.20026393
v -0.16473247 -0.12447975 -0.19975259
v -0.16209588 -0.12629605 -0.20111912
v -0.15701405 -0.13075862 -0.20435475
v 0.01217479 -0.16126284 -0.18069150
v -0.03981298 -0.15236176 -0.14047101
v -0.04908360 -0.15370895 -0.13280955
v -0.16473247 -0.12370392 -0.19913543
v -0.16630594 -0.12289199 -0.19833313
v -0.17559781 -0.12002921 -0.19499172
v -0.18023313 -0.11860986 -0.19331660
v -0.18335878 -0.11716042 -0.19160621
v -0.18178531 -0.11718448 -0.19154450
v -0.18178531 -0.11664921 -0.19076866
v -0.18644188 -0.11575910 -0.18965779
v -0.19265065 -0.10927575 -0.17757049
v -0.18671831 -0.11526594 -0.18874088
v -0.18958879 -0.11309480 -0.18485283
v -0.19265065 -0.10972081 -0.17865490
v -0.13217899 -0.14255254 -0.12126886
v -0.13060553 -0.14255254 -0.12126886
v -0.10115642 -0.15032294 -0.11941741
v -0.18897217 -0.11139879 -0.14609589
v -0.18897217 -0.11192804 -0.14450012
v -0.18897217 -0.11225281 -0.14359202
v -0.05214546 -0.15495991 -0.13049083
v -0.05163515 -0.15370895 -0.13086113
v -0.10115642 -0.15186859 -0.11925873
v -0.10115642 -0.15336614 -0.11921464
v -0.05086969 -0.15370895 -0.13144301
v -0.19936974 -0.10761582 -0.16161277
v -0.19964615 -0.10766394 -0.16080166
v -0.20043288 -0.10801277 -0.15850058
v -0.20043288 -0.10820522 -0.15695770
v -0.20043288 -0.10833754 -0.15604962
v -0.19424538 -0.10925170 -0.17778208
v -0.19577630 -0.10903518 -0.17686516
v -0.19730721 -0.10881867 -0.17554271
v -0.20351598 -0.10892092 -0.17400865
v -0.19888068 -0.10798871 -0.16934476
v -0.19888068 -0.10778423 -0.16780190
v -0.19888068 -0.10767597 -0.16695553
v -0.20043288 -0.10759177 -0.16597689
v -0.20145349 -0.10763988 -0.16570359
v -0.20198507 -0.10760981 -0.16457509
v -0.20279307 -0.10766394 -0.16394031
v -0.20466419 -0.10795864 -0.16319974
v -0.20466419 -0.10813907 -0.16161277
v -0.20198507 -0.10800675 -0.16005227
v -0.05086969 -0.15495991 -0.13141655
v -0.05214546 -0.15805724 -0.13105509
v -0.05214546 -0.15901953 -0.13131958
v -0.20198507 -0.10859014 -0.15604962
v -0.20357978 -0.10887280 -0.15604962
v -0.20466419 -0.10860818 -0.15850058
v -0.20504692 -0.11024405 -0.17711204
v -0.20504692 -0.11049063 -0.17709440
v -0.20504692 -0.13341089 -0.19669329
v -0.20447283 -0.13226819 -0.19657867
v -0.20504692 -0.12857545 -0.19472722
v -0.20421767 -0.12790787 -0.19488593
v -0.20504692 -0.12565253 -0.19331660
v -0.20504692 -0.12390840 -0.19229390
v -0.20043288 -0.12812438 -0.19629655
v -0.20345220 -0.12544805 -0.19374861
v -0.19424538 -0.12595324 -0.19668447
v -0.19258686 -0.12545406 -0.19683435
v -0.19424538 -0.12704783 -0.19731925
v -0.19730721 -0.12859950 -0.19739860
v -0.19424538 -0.12810633 -0.19790114
v -0.19647796 -0.12940542 -0.19801576
v -0.18569769 -0.13092701 -0.20113677
v -0.18335878 -0.12961591 -0.20102215
v -0.18240193 -0.12941143 -0.20111912
v -0.18023313 -0.13135403 -0.20248566
v -0.17870221 -0.13109542 -0.20259147
v -0.17757527 -0.13098716 -0.20265318
v -0.16630594 -0.12458200 -0.19968206
v -0.16630594 -0.12380616 -0.19912661
v -0.04497986 -0.15370895 -0.13608926
v -0.16785812 -0.12291605 -0.19828906
v -0.17655465 -0.12005929 -0.19495646
v -0.18493223 -0.11720252 -0.19161503
v -0.18671831 -0.11654096 -0.19076866
v -0.18644188 -0.11653495 -0.19076866
v -0.18493223 -0.11656501 -0.19083037
v -0.18335878 -0.11660711 -0.19081275
v -0.18671831 -0.11576512 -0.18966661
v -0.18803661 -0.11530804 -0.18894366
v -0.19265065 -0.11044853 -0.18002146
v -0.19424538 -0.10971480 -0.17865490
v -0.20351598 -0.10819319 -0.16005227
v -0.20466419 -0.10834957 -0.16005227
v -0.20351598 -0.10841572 -0.15850058
v -0.20198507 -0.10842775 -0.15695770
v -0.19579756 -0.10983508 -0.17865490
v -0.19579756 -0.10931786 -0.17764102
v -0.19730721 -0.10907729 -0.17668003
v -0.20466419 -0.10917352 -0.17490793
v -0.20466419 -0.10899910 -0.17400865
v -0.20466419 -0.10875853 -0.17245697
v -0.20198507 -0.10815711 -0.16934476
v -0.20043288 -0.10770003 -0.16675274
v -0.20198507 -0.10794060 -0.16780190
v -0.20351598 -0.10792856 -0.16624139
v -0.20249537 -0.10770003 -0.16500710
v -0.20466419 -0.10854202 -0.17090527
v -0.20466419 -0.10836159 -0.16937123
v -0.20466419 -0.10820522 -0.16780190
v -0.20466419 -0.10793458 -0.16465445
v -0.20466419 -0.10795262 -0.16351713
v -0.20504692 -0.11071917 -0.17803775
v -0.20466419 -0.10797067 -0.16511290
v -0.20466419 -0.10806690 -0.16624139
v -0.20466419 -0.10925170 -0.17511953
v -0.20466419 -0.10967270 -0.17603643
v -0.20094317 -0.11080338 -0.17936903
v -0.20351598 -0.11059288 -0.17824054
v -0.20198507 -0.11135067 -0.18019778
v -0.20198507 -0.11202427 -0.18152905
v -0.20504692 -0.13174495 -0.19602324
v -0.20504692 -0.13015719 -0.19537964
v -0.20504692 -0.12710798 -0.19407482
v -0.20504692 -0.12254317 -0.19140344
v -0.19964615 -0.12318669 -0.19337831
v -0.19199149 -0.12467822 -0.19650814
v -0.18958879 -0.12556833 -0.19767190
v -0.19111973 -0.12661481 -0.19786587
v -0.18909976 -0.12613968 -0.19808629
v -0.18671831 -0.12816046 -0.19959389
v -0.18578274 -0.12778156 -0.19961153
v -0.18136005 -0.12930919 -0.20117201
v -0.18803661 -0.12594723 -0.19821853
v -0.18644188 -0.12576079 -0.19835959
v -0.18384782 -0.12476843 -0.19800694
v -0.16790064 -0.12407079 -0.19915306
v -0.17096251 -0.12309046 -0.19811273
v -0.16938906 -0.12298822 -0.19819207
v -0.18493223 -0.11798437 -0.19229390
v -0.18644188 -0.11808060 -0.19221455
v -0.18644188 -0.11730477 -0.19154450
v -0.18803661 -0.11658305 -0.19066286
v -0.18803661 -0.11580722 -0.18971069
v -0.18671831 -0.11642067 -0.19061878
v -0.18958879 -0.11532007 -0.18889077
v -0.18958879 -0.11477879 -0.18793858
v -0.18958879 -0.11410519 -0.18674837
v -0.19265065 -0.11086953 -0.18079730
v -0.19424538 -0.11046056 -0.17995092
v -0.19579756 -0.11052070 -0.17986275
v -0.19730721 -0.11058085 -0.17976578
v -0.19111973 -0.11308878 -0.18485283
v -0.19111973 -0.11369623 -0.18592844
v -0.19888068 -0.11067106 -0.17962471
v -0.19888068 -0.11018992 -0.17865490
v -0.19888068 -0.10914344 -0.17649488
v -0.20504692 -0.11121836 -0.17884887
v -0.20326084 -0.11215658 -0.18128219
v -0.19979500 -0.10919757 -0.17636264
v -0.20043288 -0.11109807 -0.18009199
v -0.20043288 -0.11192804 -0.18167011
v -0.20043288 -0.11237309 -0.18243714
v -0.20198507 -0.11247533 -0.18229607
v -0.20504692 -0.12131025 -0.19053060
v -0.18958879 -0.12426925 -0.19684317
v -0.19111973 -0.12452185 -0.19663158
v -0.18803661 -0.12517741 -0.19776008
v -0.18671831 -0.12501502 -0.19783941
v -0.18644188 -0.12498494 -0.19785705
v -0.18671831 -0.12484662 -0.19772481
v -0.18803661 -0.12409485 -0.19698424
v -0.18671831 -0.12388434 -0.19697541
v -0.18682462 -0.12323481 -0.19643761
v -0.18671831 -0.11732882 -0.19153568
v -0.18803661 -0.12332501 -0.19634944
v -0.18803661 -0.11744911 -0.19143871
v -0.18958879 -0.11674544 -0.19048654
v -0.19058816 -0.11537420 -0.18880259
v -0.19424538 -0.11381650 -0.18572567
v -0.19622282 -0.11391274 -0.18558461
v -0.19894448 -0.11193405 -0.18189935
v -0.20430272 -0.11233099 -0.18097363
v -0.20504692 -0.11198818 -0.18002146
v -0.20368610 -0.11265575 -0.18176709
v -0.19951857 -0.11233701 -0.18250769
v -0.20187875 -0.11335943 -0.18338932
v -0.20351598 -0.11350376 -0.18293087
v -0.19730721 -0.11403903 -0.18544355
v -0.20504692 -0.12057050 -0.18988700
v -0.20245284 -0.12016153 -0.19020441
v -0.20351598 -0.12109373 -0.19073340
v -0.19350116 -0.12315662 -0.19494764
v -0.18958879 -0.12349944 -0.19619957
v -0.18897217 -0.12002320 -0.19342240
v -0.18854692 -0.12167110 -0.19488593
v -0.19169383 -0.11704014 -0.19022204
v -0.19163003 -0.11550049 -0.18863509
v -0.20043288 -0.11373833 -0.18423570
v -0.20504692 -0.11337747 -0.18190815
v -0.20504692 -0.11251743 -0.18077083
v -0.20455786 -0.11375035 -0.18268399
v -0.20232528 -0.11399694 -0.18395357
v -0.20351598 -0.11417736 -0.18370671
v -0.20479176 -0.11519376 -0.18434149
v -0.20504692 -0.11485698 -0.18380369
v -0.20504692 -0.11971647 -0.18909354
v -0.19424538 -0.11664320 -0.18906709
v -0.19265065 -0.11642669 -0.18930513
v -0.20043288 -0.11829110 -0.18897892
v -0.20504692 -0.11435778 -0.18317773
v -0.20253790 -0.11858580 -0.18867035
v -0.20504692 -0.11897071 -0.18832652
v -0.20351598 -0.11495320 -0.18458835
v -0.20504692 -0.11672139 -0.18596371
v -0.20504692 -0.11553057 -0.18461480
v -0.20504692 -0.11744911 -0.18673075
f 1 2 3
f 1 3 4
f 1 4 2
f 2 4 5
f 2 5 6
f 2 6 7
f 2 7 8
f 2 8 9
f 2 9 3
f 3 10 11
f 3 11 12
f 3 12 13
f 3 13 14
f 3 14 15
f 3 15 16
f 3 16 17
f 3 17 18
f 3 18 19
f 3 19 20
f 3 20 21
f 3 21 22
f 3 22 23
f 3 23 24
f 3 24 25
f 3 25 26
f 3 26 27
f 3 27 28
f 3 28 29
f 3 29 30
f 3 30 31
f 3 31 4
f 3 9 32
f 3 32 10
f 4 31 5
f 5 31 6
f 6 31 33
f 6 33 34
f 6 34 35
f 6 35 36
f 6 36 37
f 6 37 38
f 6 38 7
f 7 38 39
f 7 39 8
f 8 40 32
f 8 32 9
f 8 39 41
f 8 41 40
f 10 42 43
f 10 43 44
f 10 44 45
f 10 45 46
f 10 46 47
f 10 47 48
f 10 48 49
f 10 49 11
f 10 32 50
f 10 50 51
f 10 51 52
f 10 52 53
f 10 53 54
f 10 54 55
f 10 55 56
f 10 56 57
f 10 57 58
f 10 58 59
f 10 59 60
f 10 60 61
f 10 61 62
f 10 62 63
f 10 63 64
f 10 64 42
f 11 49 12
f 12 49 48
f 12 48 47
f 12 47 46
f 12 46 45
f 12 45 44
f 12 44 65
f 12 65 66
f 12 66 67
f 12 67 68
f 12 68 69
f 12 69 13
f 13 69 14
f 14 69 15
f 15 70 16
f 15 69 71
f 15 71 145
f 15 145 227
f 15 227 303
f 15 303 302
f 15 302 358
f 15 358 403
f 15 403 429
f 15 429 446
f 15 446 445
f 15 445 456
f 15 456 451
f 15 451 461
f 15 461 460
f 15 460 462
f 15 462 458
f 15 458 452
f 15 452 435
f 15 435 410
f 15 410 370
f 15 370 309
f 15 309 308
f 15 308 369
f 15 369 306
f 15 306 368
f 15 368 367
f 15 367 304
f 15 304 228
f 15 228 147
f 15 147 142
f 15 142 70
f 16 70 17
f 17 70 72
f 17 72 73
f 17 73 18
f 18 73 74
f 18 74 19
f 19 74 75
f 19 75 20
f 20 75 76
f 20 76 77
f 20 77 78
f 20 78 21
f 21 78 79
f 21 79 22
f 22 79 23
f 23 79 80
f 23 80 24
f 24 81 25
f 24 80 81
f 25 81 26
f 26 82 27
f 26 81 82
f 27 82 28
f 28 82 29
f 29 82 34
f 29 34 30
f 30 34 33
f 30 33 31
f 32 40 50
f 34 83 36
f 34 36 35
f 34 82 84
f 34 84 83
f 36 83 85
f 36 85 37
f 37 86 38
f 37 85 87
f 37 87 88
f 37 88 89
f 37 89 90
f 37 90 86
f 38 86 91
f 38 91 39
f 39 91 92
f 39 92 41
f 40 41 93
f 40 93 94
f 40 94 50
f 41 92 166
f 41 166 95
f 41 95 96
f 41 96 93
f 42 97 168
f 42 168 251
f 42 251 209
f 42 209 129
f 42 129 66
f 42 66 65
f 42 65 43
f 42 64 119
f 42 119 97
f 43 65 44
f 50 94 98
f 50 98 51
f 51 98 94
f 51 94 99
f 51 99 52
f 52 99 53
f 53 99 54
f 54 99 55
f 55 99 100
f 55 100 101
f 55 101 102
f 55 102 103
f 55 103 104
f 55 104 56
f 56 104 105
f 56 105 57
f 57 105 106
f 57 106 58
f 58 107 108
f 58 108 109
f 58 109 59
f 58 106 110
f 58 110 111
f 58 111 112
f 58 112 107
f 59 109 113
f 59 113 60
f 60 113 107
f 60 107 114
f 60 114 61
f 61 114 107
f 61 107 62
f 62 107 115
f 62 115 63
f 63 115 116
f 63 116 117
f 63 117 118
f 63 118 64
f 64 118 120
f 64 120 121
f 64 121 122
f 64 122 123
f 64 123 124
f 64 124 125
f 64 125 126
f 64 126 127
f 64 127 128
f 64 128 119
f 66 129 130
f 66 130 131
f 66 131 132
f 66 132 133
f 66 133 134
f 66 134 135
f 66 135 136
f 66 136 137
f 66 137 138
f 66 138 139
f 66 139 67
f 67 139 140
f 67 140 69
f 67 69 68
f 69 140 141
f 69 141 71
f 70 142 72
f 71 143 144
f 71 144 145
f 71 141 140
f 71 140 146
f 71 146 143
f 72 142 73
f 73 142 147
f 73 147 74
f 74 147 148
f 74 148 149
f 74 149 75
f 75 149 76
f 76 149 150
f 76 150 77
f 77 150 78
f 78 150 151
f 78 151 152
f 78 152 153
f 78 153 154
f 78 154 155
f 78 155 79
f 79 155 156
f 79 156 80
f 80 156 157
f 80 157 81
f 81 158 82
f 81 157 159
f 81 159 84
f 81 84 158
f 82 158 84
f 83 84 160
f 83 160 161
f 83 161 85
f 84 159 160
f 85 161 162
f 85 162 87
f 86 90 163
f 86 163 164
f 86 164 165
f 86 165 92
f 86 92 91
f 87 162 88
f 88 162 89
f 89 163 90
f 89 162 163
f 92 165 166
f 93 96 99
f 93 99 94
f 95 166 167
f 95 167 101
f 95 101 100
f 95 100 99
f 95 99 96
f 97 119 169
f 97 169 168
f 101 167 102
f 102 170 171
f 102 171 103
f 102 167 170
f 103 171 172
f 103 172 104
f 104 172 173
f 104 173 174
f 104 174 105
f 105 174 175
f 105 175 176
f 105 176 110
f 105 110 106
f 107 177 178
f 107 178 179
f 107 179 115
f 107 113 108
f 107 112 180
f 107 180 181
f 107 181 177
f 108 113 109
f 110 176 182
f 110 182 183
f 110 183 184
f 110 184 185
f 110 185 111
f 111 185 112
f 112 185 186
f 112 186 180
f 115 187 178
f 115 178 188
f 115 188 116
f 115 179 187
f 116 188 178
f 116 178 189
f 116 189 117
f 117 121 118
f 117 189 122
f 117 122 121
f 118 121 120
f 119 190 191
f 119 191 192
f 119 192 193
f 119 193 194
f 119 194 195
f 119 195 196
f 119 196 169
f 119 128 197
f 119 197 198
f 119 198 199
f 119 199 190
f 122 189 123
f 123 200 124
f 123 189 178
f 123 178 200
f 124 200 201
f 124 201 202
f 124 202 125
f 125 202 201
f 125 201 203
f 125 203 204
f 125 204 205
f 125 205 206
f 125 206 127
f 125 127 126
f 127 206 128
f 128 206 207
f 128 207 208
f 128 208 197
f 129 209 130
f 130 210 131
f 130 209 210
f 131 210 211
f 131 211 132
f 132 211 212
f 132 212 213
f 132 213 214
f 132 214 215
f 132 215 134
f 132 134 133
f 134 215 216
f 134 216 217
f 134 217 218
f 134 218 219
f 134 219 220
f 134 220 135
f 135 220 221
f 135 221 136
f 136 221 137
f 137 221 138
f 138 221 222
f 138 222 140
f 138 140 139
f 140 222 146
f 143 223 226
f 143 226 144
f 143 146 224
f 143 224 225
f 143 225 223
f 144 226 303
f 144 303 227
f 144 227 145
f 146 222 221
f 146 221 224
f 147 228 150
f 147 150 148
f 148 150 149
f 150 229 230
f 150 230 151
f 150 228 231
f 150 231 229
f 151 230 232
f 151 232 233
f 151 233 234
f 151 234 235
f 151 235 236
f 151 236 152
f 152 236 237
f 152 237 153
f 153 237 154
f 154 238 239
f 154 239 155
f 154 237 238
f 155 239 156
f 156 239 240
f 156 240 157
f 157 240 159
f 159 241 160
f 159 240 242
f 159 242 241
f 160 241 161
f 161 241 243
f 161 243 244
f 161 244 162
f 162 244 245
f 162 245 246
f 162 246 163
f 163 247 248
f 163 248 249
f 163 249 250
f 163 250 164
f 163 246 245
f 163 245 247
f 164 250 165
f 165 250 249
f 165 249 170
f 165 170 167
f 165 167 166
f 168 169 251
f 169 252 251
f 169 196 253
f 169 253 252
f 170 249 248
f 170 248 254
f 170 254 171
f 171 254 172
f 172 254 255
f 172 255 174
f 172 174 173
f 174 256 257
f 174 257 258
f 174 258 259
f 174 259 175
f 174 255 256
f 175 259 260
f 175 260 176
f 176 260 261
f 176 261 182
f 177 181 178
f 178 187 179
f 178 181 262
f 178 262 200
f 180 186 181
f 181 186 262
f 182 261 263
f 182 263 264
f 182 264 265
f 182 265 183
f 183 265 184
f 184 265 185
f 185 265 186
f 186 265 262
f 190 225 266
f 190 266 267
f 190 267 268
f 190 268 191
f 190 199 269
f 190 269 270
f 190 270 271
f 190 271 223
f 190 223 225
f 191 268 192
f 192 272 273
f 192 273 194
f 192 194 193
f 192 268 274
f 192 274 275
f 192 275 272
f 194 273 195
f 195 273 196
f 196 273 276
f 196 276 253
f 197 208 277
f 197 277 198
f 198 277 278
f 198 278 199
f 199 223 271
f 199 271 270
f 199 270 269
f 199 278 279
f 199 279 280
f 199 280 281
f 199 281 223
f 200 262 201
f 201 262 203
f 203 282 283
f 203 283 204
f 203 262 282
f 204 283 344
f 204 344 284
f 204 284 285
f 204 285 286
f 204 286 287
f 204 287 288
f 204 288 205
f 205 288 206
f 206 288 207
f 207 289 290
f 207 290 291
f 207 291 292
f 207 292 208
f 207 288 289
f 208 292 293
f 208 293 294
f 208 294 295
f 208 295 279
f 208 279 278
f 208 278 277
f 209 251 253
f 209 253 210
f 210 253 276
f 210 276 273
f 210 273 296
f 210 296 211
f 211 296 272
f 211 272 212
f 212 272 213
f 213 297 214
f 213 272 275
f 213 275 297
f 214 297 298
f 214 298 215
f 215 298 275
f 215 275 216
f 216 275 217
f 217 275 218
f 218 275 221
f 218 221 219
f 219 221 220
f 221 275 224
f 223 281 299
f 223 299 300
f 223 300 226
f 224 275 266
f 224 266 225
f 226 301 302
f 226 302 303
f 226 300 301
f 228 304 231
f 229 232 230
f 229 231 305
f 229 305 306
f 229 306 232
f 231 304 305
f 232 306 307
f 232 307 308
f 232 308 309
f 232 309 233
f 233 310 234
f 233 309 311
f 233 311 310
f 234 310 312
f 234 312 313
f 234 313 314
f 234 314 315
f 234 315 235
f 235 315 316
f 235 316 317
f 235 317 237
f 235 237 236
f 237 318 238
f 237 317 316
f 237 316 318
f 238 319 320
f 238 320 321
f 238 321 243
f 238 243 242
f 238 242 239
f 238 318 319
f 239 242 240
f 241 242 243
f 243 321 320
f 243 320 322
f 243 322 244
f 244 322 323
f 244 323 245
f 245 323 247
f 247 324 248
f 247 323 324
f 248 324 325
f 248 325 254
f 251 252 326
f 251 326 253
f 252 253 326
f 254 325 327
f 254 327 255
f 255 327 256
f 256 327 257
f 257 327 328
f 257 328 329
f 257 329 258
f 258 329 330
f 258 330 331
f 258 331 332
f 258 332 333
f 258 333 259
f 259 333 260
f 260 333 261
f 261 334 335
f 261 335 263
f 261 333 332
f 261 332 334
f 262 265 282
f 263 335 264
f 264 335 265
f 265 335 336
f 265 336 337
f 265 337 282
f 266 268 267
f 266 275 274
f 266 274 268
f 272 296 273
f 275 298 297
f 279 295 280
f 280 295 338
f 280 338 339
f 280 339 281
f 281 339 340
f 281 340 341
f 281 341 299
f 282 337 342
f 282 342 343
f 282 343 344
f 282 344 283
f 284 344 345
f 284 345 285
f 285 345 346
f 285 346 347
f 285 347 348
f 285 348 286
f 286 348 349
f 286 349 289
f 286 289 287
f 287 289 288
f 289 349 350
f 289 350 290
f 290 351 352
f 290 352 291
f 290 350 353
f 290 353 354
f 290 354 355
f 290 355 351
f 291 352 356
f 291 356 292
f 292 356 357
f 292 357 293
f 293 357 302
f 293 302 294
f 294 302 339
f 294 339 338
f 294 338 295
f 299 341 301
f 299 301 300
f 301 341 340
f 301 340 339
f 301 339 302
f 302 357 356
f 302 356 359
f 302 359 360
f 302 360 355
f 302 355 354
f 302 354 353
f 302 353 347
f 302 347 346
f 302 346 345
f 302 345 361
f 302 361 362
f 302 362 363
f 302 363 364
f 302 364 365
f 302 365 366
f 302 366 358
f 304 367 305
f 305 367 368
f 305 368 306
f 306 369 307
f 307 369 308
f 309 370 371
f 309 371 311
f 310 311 312
f 311 371 372
f 311 372 312
f 312 372 313
f 313 372 373
f 313 373 314
f 314 373 374
f 314 374 316
f 314 316 315
f 316 374 375
f 316 375 376
f 316 376 318
f 318 376 319
f 319 376 377
f 319 377 320
f 320 378 323
f 320 323 322
f 320 377 379
f 320 379 380
f 320 380 378
f 323 378 380
f 323 380 381
f 323 381 324
f 324 381 382
f 324 382 325
f 325 382 381
f 325 381 383
f 325 383 384
f 325 384 327
f 327 384 328
f 328 385 329
f 328 384 383
f 328 383 386
f 328 386 385
f 329 385 387
f 329 387 388
f 329 388 330
f 330 388 389
f 330 389 390
f 330 390 331
f 331 390 332
f 332 390 334
f 334 390 389
f 334 389 335
f 335 389 391
f 335 391 392
f 335 392 393
f 335 393 336
f 336 393 394
f 336 394 337
f 337 395 396
f 337 396 397
f 337 397 342
f 337 394 393
f 337 393 398
f 337 398 399
f 337 399 395
f 342 397 400
f 342 400 343
f 343 400 401
f 343 401 402
f 343 402 344
f 344 402 345
f 345 402 361
f 347 353 350
f 347 350 348
f 348 350 349
f 351 355 360
f 351 360 352
f 352 360 359
f 352 359 356
f 358 366 404
f 358 404 403
f 361 402 405
f 361 405 362
f 362 405 363
f 363 406 365
f 363 365 364
f 363 405 401
f 363 401 400
f 363 400 406
f 365 406 366
f 366 406 400
f 366 400 407
f 366 407 408
f 366 408 409
f 366 409 404
f 370 410 371
f 371 411 412
f 371 412 372
f 371 410 411
f 372 412 373
f 373 411 413
f 373 413 379
f 373 379 375
f 373 375 374
f 373 412 411
f 375 379 377
f 375 377 376
f 379 413 380
f 380 413 414
f 380 414 415
f 380 415 381
f 381 415 416
f 381 416 417
f 381 417 418
f 381 418 383
f 383 418 419
f 383 419 386
f 385 386 420
f 385 420 387
f 386 419 421
f 386 421 422
f 386 422 420
f 387 420 388
f 388 420 422
f 388 422 423
f 388 423 424
f 388 424 391
f 388 391 389
f 391 425 399
f 391 399 392
f 391 424 426
f 391 426 408
f 391 408 425
f 392 399 393
f 393 399 398
f 395 399 396
f 396 427 397
f 396 399 427
f 397 427 407
f 397 407 400
f 399 425 427
f 401 405 402
f 403 428 429
f 403 404 428
f 404 409 430
f 404 430 428
f 407 427 408
f 408 427 431
f 408 431 425
f 408 426 409
f 409 432 433
f 409 433 430
f 409 426 434
f 409 434 432
f 410 435 436
f 410 436 437
f 410 437 438
f 410 438 411
f 411 438 439
f 411 439 440
f 411 440 441
f 411 441 421
f 411 421 417
f 411 417 413
f 413 417 416
f 413 416 414
f 414 416 415
f 417 421 419
f 417 419 418
f 421 441 422
f 422 441 440
f 422 440 423
f 423 440 442
f 423 442 424
f 424 442 443
f 424 443 444
f 424 444 434
f 424 434 426
f 425 431 427
f 428 430 445
f 428 445 446
f 428 446 429
f 430 447 445
f 430 433 447
f 432 444 448
f 432 448 433
f 432 434 444
f 433 448 449
f 433 449 450
f 433 450 451
f 433 451 447
f 435 452 442
f 435 442 436
f 436 442 437
f 437 442 440
f 437 440 438
f 438 440 439
f 442 453 454
f 442 454 443
f 442 452 455
f 442 455 453
f 443 454 444
f 444 454 453
f 444 453 448
f 445 447 456
f 447 451 456
f 448 457 458
f 448 458 459
f 448 459 449
f 448 453 455
f 448 455 457
f 449 459 450
f 450 460 461
f 450 461 451
f 450 459 460
f 452 458 457
f 452 457 455
f 458 462 459
f 459 462 460

