# https://github.com/mikedh/trimesh
v -0.14685243 -0.11827818 0.19113298
v -0.13138220 -0.11840370 0.18787439
v -0.15184405 -0.11832525 0.19113298
v -0.15306337 -0.11841940 0.19185373
v -0.14685243 -0.11838801 0.19193493
v 0.09213594 -0.12464862 0.18838195
v -0.17165813 -0.12085146 0.19113298
v -0.16841930 -0.12031797 0.19113298
v -0.15653086 -0.11849785 0.19113298
v -0.15607361 -0.11846647 0.19113298
v -0.15306337 -0.11834094 0.19113298
v 0.09213594 -0.12464862 0.17553032
v 0.02834983 -0.12464862 0.16978464
v -0.01017333 -0.15152687 0.15306534
v -0.15306337 -0.11920393 0.19493974
v -0.14685243 -0.11912547 0.19504126
v -0.15637844 -0.11851354 0.19140706
v 0.16312373 -0.14443465 0.19213797
v 0.17036348 -0.14443465 0.19087919
v 0.17421199 -0.14443465 0.19017876
v -0.14685243 -0.12103974 0.20062452
v -0.14685243 -0.12353457 0.20589308
v -0.14685243 -0.12526056 0.20899939
v -0.14064147 -0.12789661 0.21300919
v -0.14064147 -0.13032867 0.21682610
v -0.12200861 -0.13743657 0.22209466
v -0.17805961 -0.12285988 0.19113298
v -0.17165813 -0.12135356 0.19441186
v 0.17421199 -0.14443465 0.17465730
v 0.17421199 -0.26437471 0.12572769
v -0.01017333 -0.15303318 0.15272019
v -0.11282554 -0.26738733 0.12922992
v -0.21498241 -0.18025661 0.17544912
v -0.18034586 -0.12383270 0.19113298
v -0.15877897 -0.11945499 0.19385355
v -0.15927434 -0.12174583 0.20062452
v -0.15306337 -0.12113389 0.20062452
v -0.16548529 -0.12045919 0.19441186
v 0.16327612 -0.14645875 0.19245266
v 0.16948709 -0.15265660 0.19261508
v 0.17310696 -0.14911049 0.19139691
v -0.12200861 -0.14052765 0.22397267
v -0.12200861 -0.14645875 0.22684551
v -0.12200861 -0.15033437 0.22829715
v -0.11587386 -0.15141703 0.22794185
v -0.11141569 -0.15529264 0.22865245
v -0.10730046 -0.15656359 0.22844941
v 0.17421199 -0.14804352 0.19096041
v -0.15306337 -0.12356595 0.20595398
v -0.15306337 -0.12519779 0.20906030
v -0.14685243 -0.12761417 0.21300919
v -0.14685243 -0.13020314 0.21691747
v -0.14064147 -0.13370218 0.21992227
v -0.14064147 -0.13682463 0.22261239
v -0.12821956 -0.14032367 0.22418583
v -0.18148896 -0.12450740 0.19244250
v -0.17821202 -0.12342474 0.19447278
v -0.17642114 -0.12395822 0.19901044
v -0.17150571 -0.12353457 0.20089860
v -0.16548529 -0.12249898 0.20062452
v 0.17421199 -0.27043134 0.12628602
v -0.11282554 -0.26746578 0.12922992
v -0.21441083 -0.18372427 0.17544912
v -0.21505861 -0.18025661 0.17583486
v -0.20880955 -0.15264090 0.19113298
v -0.20785695 -0.15000486 0.19113298
v -0.20690434 -0.14804352 0.19113298
v -0.20332257 -0.14272435 0.19113298
v -0.19932166 -0.13709138 0.19113298
v -0.19375847 -0.13177222 0.19113298
v -0.19307259 -0.13116028 0.19113298
v -0.19250104 -0.13078370 0.19113298
v -0.18716648 -0.12761417 0.19113298
v -0.18259399 -0.12491537 0.19113298
v -0.18160329 -0.12441325 0.19113298
v -0.16548529 -0.12428773 0.20471552
v -0.15927434 -0.12389547 0.20551748
v 0.16327612 -0.15265660 0.19343734
v 0.16948709 -0.15887014 0.19332568
v 0.17421199 -0.15306456 0.19186389
v 0.17421199 -0.15265660 0.19181312
v 0.17421199 -0.15185637 0.19168116
v -0.12821956 -0.14645875 0.22725155
v -0.12200861 -0.15342545 0.22912956
v -0.11587386 -0.15453949 0.22886563
v -0.12821956 -0.14975381 0.22847987
v -0.10947239 -0.15869753 0.22877426
v -0.10570009 -0.16067457 0.22863214
v -0.15927434 -0.12537040 0.20861363
v -0.15306337 -0.12758279 0.21300919
v -0.15306337 -0.13021883 0.21684640
v -0.14685243 -0.13363942 0.22002378
v -0.14685243 -0.13676187 0.22265298
v -0.14064147 -0.14026091 0.22460205
v -0.18053637 -0.12499381 0.19657412
v -0.18949082 -0.12959120 0.19441186
v -0.18373710 -0.12628046 0.19447278
v -0.18434677 -0.12901064 0.20082755
v -0.18655681 -0.13127012 0.20301009
v -0.17821202 -0.12585681 0.20089860
v -0.17794530 -0.12915186 0.20697927
v -0.17348713 -0.12508796 0.20315221
v -0.16937189 -0.12457016 0.20410643
v 0.17421199 -0.27393037 0.12871220
v -0.11282554 -0.26978801 0.12982884
v -0.21433463 -0.18400671 0.17544912
v -0.21448704 -0.18369289 0.17583486
v -0.21353445 -0.18369289 0.18201705
v -0.21406791 -0.18025661 0.18201705
v -0.21132441 -0.16505228 0.19113298
v -0.21117199 -0.16374996 0.19113298
v -0.21033372 -0.15857200 0.19113298
v -0.20732350 -0.15257814 0.19471642
v -0.20659951 -0.14848286 0.19285872
v -0.20126496 -0.14106114 0.19441186
v -0.19894062 -0.13795437 0.19441186
v -0.19593040 -0.13462793 0.19441186
v -0.19253913 -0.13153685 0.19441186
v -0.16548529 -0.12576266 0.20781168
v 0.16948709 -0.16508367 0.19354901
v 0.17421199 -0.16056474 0.19249327
v 0.17421199 -0.15861909 0.19242220
v -0.13443051 -0.14645875 0.22725155
v -0.12200861 -0.15883874 0.22942396
v -0.11587386 -0.15883874 0.22912956
v -0.12821956 -0.15287627 0.22913971
v -0.14064147 -0.14645875 0.22701808
v -0.13443051 -0.15035006 0.22835806
v -0.10570009 -0.16271436 0.22863214
v 0.16948709 -0.17129721 0.19360991
v -0.15984589 -0.12868114 0.21361827
v -0.15816931 -0.13046988 0.21658246
v -0.15306337 -0.13368649 0.21995271
v -0.15306337 -0.13679325 0.22260223
v -0.14685243 -0.14026091 0.22440917
v -0.18827149 -0.13031298 0.19889878
v -0.19036721 -0.13271366 0.20082755
v -0.18994807 -0.13582042 0.20626867
v -0.18762373 -0.13676187 0.21023786
v -0.18434677 -0.13247830 0.20697927
v -0.18244158 -0.13017176 0.20500991
v -0.17581147 -0.13046988 0.21042059
v -0.18000291 -0.13150547 0.20915166
v -0.17150571 -0.12639029 0.20643109
v 0.17120177 -0.27396174 0.12879340
v 0.17421199 -0.27393037 0.12952431
v -0.01044006 -0.27851207 0.14480212
v -0.01665101 -0.27857483 0.14480212
v -0.02899671 -0.27724112 0.13858948
v -0.10345196 -0.27371070 0.13536134
v -0.10676700 -0.27366364 0.13543240
v -0.11282554 -0.27167090 0.13496544
v -0.19875009 -0.20454590 0.17544912
v -0.20191272 -0.20143913 0.17544912
v -0.20503725 -0.19836374 0.17544912
v -0.20774263 -0.19528835 0.17544912
v -0.21060044 -0.19136566 0.17544912
v -0.21269616 -0.18799216 0.17544912
v -0.04141862 -0.27465214 0.13505680
v -0.03524577 -0.27720974 0.13858948
v -0.21277236 -0.18802354 0.17583486
v -0.21235323 -0.18731745 0.18201705
v -0.21204839 -0.18683104 0.18518427
v -0.21235323 -0.18369289 0.18573245
v -0.21265806 -0.18025661 0.18636183
v -0.21159114 -0.17052835 0.19113298
v -0.20987647 -0.16505228 0.19441186
v -0.20900006 -0.15883874 0.19441186
v -0.20614228 -0.15458656 0.19796484
v -0.20553261 -0.15045990 0.19699032
v -0.20042667 -0.14226932 0.19863483
v -0.19444434 -0.13600872 0.20062452
v -0.17165813 -0.12965397 0.21133420
v -0.16548529 -0.12886943 0.21248132
v 0.17421199 -0.16508367 0.19265569
v -0.12200861 -0.16349890 0.22881487
v -0.11587386 -0.16335769 0.22879456
v -0.10966291 -0.16320078 0.22873367
v -0.12821956 -0.15883874 0.22942396
v -0.13443051 -0.15344114 0.22896714
v -0.15306337 -0.14026091 0.22408433
v -0.14685243 -0.14645875 0.22660187
v -0.10966291 -0.16629185 0.22820579
v -0.09724100 -0.17126582 0.22676429
v -0.09106815 -0.17126582 0.22636838
v -0.01047816 -0.20227074 0.21523233
v 0.16327612 -0.17749505 0.19385355
v 0.17421199 -0.17667913 0.19200600
v 0.17421199 -0.17129721 0.19267599
v 0.17421199 -0.16662137 0.19266584
v -0.16228456 -0.13098768 0.21608504
v -0.15698809 -0.13695016 0.22249057
v -0.19349173 -0.13704431 0.20384250
v -0.19444434 -0.14026091 0.20491853
v -0.19166275 -0.14026091 0.20801471
v -0.19272965 -0.14510935 0.20933438
v -0.18853821 -0.14026091 0.21082665
v -0.18408005 -0.14026091 0.21328327
v -0.17943136 -0.14026091 0.21546582
v -0.17493508 -0.13707569 0.21617642
v -0.18408005 -0.13572629 0.21111088
v -0.17748805 -0.13429842 0.21286706
v -0.17165813 -0.13310593 0.21443037
v -0.16548529 -0.13163100 0.21558763
v 0.17421199 -0.27391467 0.13043793
v 0.16327612 -0.27415003 0.13630542
v 0.15710329 -0.27429126 0.13717844
v 0.00194374 -0.27796289 0.15100461
v -0.00426721 -0.27790012 0.15100461
v -0.02282386 -0.27840224 0.14480212
v -0.03970394 -0.27711559 0.13858948
v -0.04141862 -0.27705283 0.13858948
v -0.04762957 -0.27678609 0.13858948
v -0.03524577 -0.27796289 0.14480212
v -0.04141862 -0.27760200 0.14480212
v -0.10676700 -0.27366364 0.13562528
v -0.11282554 -0.27204749 0.13835600
v -0.19562556 -0.20733885 0.17544912
v -0.19875009 -0.20454590 0.17583486
v -0.20191272 -0.20143913 0.17583486
v -0.20503725 -0.19836374 0.17583486
v -0.20774263 -0.19528835 0.17583486
v -0.21079097 -0.19111461 0.17583486
v -0.21037181 -0.19042422 0.18201705
v -0.20732350 -0.19477056 0.18201705
v -0.20663762 -0.19395464 0.18672729
v -0.20884764 -0.18974952 0.18802666
v -0.20690434 -0.18850995 0.19275719
v -0.21075285 -0.18369289 0.18882861
v -0.21105769 -0.18025661 0.18945801
v -0.21155303 -0.17126582 0.19113298
v -0.20976214 -0.17126582 0.19441186
v -0.20709487 -0.16505228 0.19913227
v -0.20652330 -0.15883874 0.19852317
v -0.20423707 -0.15883874 0.20160920
v -0.20046476 -0.15267229 0.20467491
v -0.20381793 -0.15257814 0.20025906
v -0.19981700 -0.14903204 0.20402523
v -0.20130306 -0.14677257 0.20066511
v -0.19886441 -0.14492106 0.20276645
v -0.12821956 -0.16353028 0.22879456
v -0.12821956 -0.16663705 0.22825655
v -0.13138220 -0.16152186 0.22894683
v -0.13926972 -0.15461794 0.22875397
v -0.13926972 -0.15756780 0.22875397
v -0.13484966 -0.15930947 0.22896714
v -0.15306337 -0.14645875 0.22593188
v -0.10966291 -0.17126582 0.22717035
v -0.11587386 -0.17126582 0.22724142
v -0.01665101 -0.20846858 0.21458264
v -0.01047816 -0.20846858 0.21422734
v -0.01623187 -0.20195692 0.21578051
v -0.00426721 -0.20846858 0.21365888
v 0.15710329 -0.18369289 0.19385355
v 0.16327612 -0.18369289 0.19290946
v 0.17421199 -0.18507368 0.19008739
v 0.16312373 -0.18957692 0.19189432
v 0.16095178 -0.19362514 0.19153903
v -0.16548529 -0.13473777 0.21808488
v -0.16114143 -0.13822112 0.22201344
v -0.15912192 -0.14029229 0.22310980
v -0.19349173 -0.14926739 0.20998407
v -0.19048151 -0.14689809 0.21126315
v -0.18385142 -0.14608218 0.21489733
v -0.18080311 -0.14375994 0.21604445
v -0.17634493 -0.14026091 0.21673473
v -0.17165813 -0.13621270 0.21681595
v -0.16525666 -0.14029229 0.22112012
v 0.17421199 -0.27113743 0.13353409
v 0.16678171 -0.27377346 0.13568619
v 0.14875850 -0.27377346 0.14189883
v 0.13847041 -0.27425988 0.14267033
v 0.00815470 -0.27766477 0.15100461
v 0.01436565 -0.27520132 0.15678074
v 0.00194374 -0.27562497 0.15721724
v -0.00426721 -0.27578188 0.15721724
v -0.01044006 -0.27568773 0.15721724
v -0.01665101 -0.27543668 0.15721724
v -0.01044006 -0.27763339 0.15100461
v -0.02899671 -0.27821394 0.14480212
v -0.03970394 -0.27730388 0.14029490
v -0.02899671 -0.27669194 0.15100461
v -0.03970394 -0.27724112 0.14650755
v -0.03665562 -0.27353811 0.16003933
v -0.04762957 -0.27708421 0.14480212
v -0.08935347 -0.27374208 0.14207140
v -0.10966291 -0.27093343 0.14480212
v -0.11282554 -0.27050978 0.14480212
v -0.19143412 -0.21044562 0.17583486
v -0.19562556 -0.20733885 0.17583486
v -0.20130306 -0.20078012 0.18201705
v -0.20435137 -0.19787733 0.18201705
v -0.20038856 -0.19987006 0.18624002
v -0.20549450 -0.19263661 0.19085888
v -0.20762833 -0.18369289 0.19385355
v -0.20324636 -0.19056543 0.19497019
v -0.20103634 -0.18850995 0.19874651
v -0.20522778 -0.18369289 0.19694971
v -0.20690434 -0.17126582 0.19883786
v -0.20450379 -0.16505228 0.20221827
v -0.20107443 -0.15883874 0.20526368
v -0.19707352 -0.15267229 0.20778124
v -0.13305877 -0.16294972 0.22869306
v -0.13484966 -0.16505228 0.22817533
v -0.13443051 -0.17126582 0.22680490
v -0.14685243 -0.15267229 0.22759670
v -0.14685243 -0.15883874 0.22768807
v -0.13721211 -0.16171016 0.22850018
v -0.15306337 -0.16505228 0.22650036
v -0.15306337 -0.15267229 0.22662217
v -0.15927434 -0.14645875 0.22451068
v -0.11587386 -0.17746366 0.22509947
v -0.02286197 -0.20846858 0.21463340
v -0.01665101 -0.21468212 0.21250161
v -0.01047816 -0.21468212 0.21228844
v -0.00426721 -0.21468212 0.21195345
v 0.00194374 -0.21468212 0.21141542
v 0.17421199 -0.18981228 0.18878802
v 0.15744621 -0.20895500 0.18638214
v 0.15973246 -0.21135568 0.18502185
v 0.17421199 -0.21505869 0.18057555
v 0.17421199 -0.20839012 0.18309309
v 0.17421199 -0.19648085 0.18684910
v 0.00579225 -0.21811840 0.21001452
v 0.01432755 -0.22087996 0.20781168
v 0.01749018 -0.23021595 0.20372069
v -0.16308473 -0.14233209 0.22255147
v -0.19402519 -0.15267229 0.21030893
v -0.19029100 -0.15267229 0.21255237
v -0.18556610 -0.15267229 0.21524248
v -0.18244158 -0.15267229 0.21683625
v -0.17790719 -0.15267229 0.21883607
v -0.17836444 -0.14608218 0.21749609
v -0.17165813 -0.14645875 0.22028773
v 0.17421199 -0.25638811 0.14934994
v 0.17421199 -0.24805632 0.15798876
v 0.17421199 -0.24421210 0.16187673
v 0.15287373 -0.27327135 0.14097505
v 0.10585339 -0.27372638 0.14803025
v 0.14216651 -0.24283131 0.17292141
v 0.14300480 -0.26807772 0.14844646
v 0.13847041 -0.26851705 0.14885252
v 0.01436565 -0.24813479 0.19056450
v 0.01436565 -0.25092774 0.18747848
v 0.01436565 -0.25403451 0.18393565
v 0.10124280 -0.27393037 0.14827389
v 0.09506995 -0.27415003 0.14862919
v 0.00194374 -0.27389899 0.16076007
v -0.00426721 -0.27405590 0.16103417
v -0.01044006 -0.27405590 0.16102401
v -0.01665101 -0.27399314 0.16093264
v -0.02282386 -0.27386761 0.16074992
v -0.03250228 -0.27364794 0.16034387
v -0.02282386 -0.27516994 0.15721724
v -0.02899671 -0.27484044 0.15721724
v -0.03524577 -0.27626829 0.15100461
v -0.03482663 -0.27190626 0.16281065
v -0.03970394 -0.27105896 0.16325732
v -0.06622433 -0.26862690 0.16204930
v -0.11282554 -0.26856413 0.14975599
v -0.18758561 -0.21173226 0.17925587
v -0.19444434 -0.20628757 0.18201705
v -0.19753075 -0.20385551 0.18201705
v -0.19619712 -0.20208245 0.18775258
v -0.19894062 -0.19858341 0.19038177
v -0.20134117 -0.19447244 0.19307188
v -0.19920734 -0.19263661 0.19718319
v -0.20172221 -0.18323785 0.20072602
v -0.19654006 -0.18990643 0.20064482
v -0.19311069 -0.18025661 0.20906030
v -0.19802612 -0.18501091 0.20287811
v -0.19974079 -0.18086855 0.20384250
v -0.20416086 -0.17126582 0.20193404
v -0.20023614 -0.17746366 0.20436022
v -0.20145547 -0.16505228 0.20531444
v -0.19749266 -0.15883874 0.20837001
v -0.14685243 -0.16505228 0.22708913
v -0.15306337 -0.17126582 0.22519084
v -0.15306337 -0.17655360 0.22321131
v -0.13443051 -0.17746366 0.22428736
v -0.15306337 -0.15883874 0.22666278
v -0.15927434 -0.16505228 0.22520097
v -0.15927434 -0.17126582 0.22431782
v -0.15927434 -0.15267229 0.22505886
v -0.15927434 -0.15883874 0.22515023
v -0.16426595 -0.14645875 0.22294738
v -0.16838119 -0.15157394 0.22225709
v -0.01665101 -0.21890293 0.21052209
v -0.00426721 -0.22233920 0.20930393
v 0.00194374 -0.22191555 0.20926333
v 0.00194374 -0.21880878 0.21023786
v 0.15744621 -0.21446245 0.18414883
v 0.17421199 -0.21639240 0.18003752
v 0.00796418 -0.22045631 0.20896893
v 0.01432755 -0.22707780 0.20544641
v 0.00815470 -0.22707780 0.20629912
v 0.01436565 -0.23056116 0.20393385
v 0.01436565 -0.23365223 0.20200510
v 0.14441464 -0.23970886 0.17442383
v 0.14513861 -0.23332273 0.17795650
v 0.14334773 -0.23126723 0.17935738
v 0.16110420 -0.22436330 0.17910360
v -0.16739050 -0.14645875 0.22189163
v -0.19444434 -0.15883874 0.21060331
v -0.19029100 -0.15883874 0.21329342
v -0.18636628 -0.15883874 0.21569930
v -0.18327987 -0.15883874 0.21720170
v -0.17790719 -0.15883874 0.21933349
v 0.17421199 -0.24079151 0.16497289
v 0.16948709 -0.24160743 0.16572410
v 0.00194374 -0.26862690 0.16788633
v 0.00194374 -0.27173367 0.16385624
v 0.17421199 -0.23845359 0.16684074
v 0.17421199 -0.23768474 0.16739907
v 0.01436565 -0.23834376 0.19888863
v 0.01436565 -0.24146622 0.19666547
v 0.01436565 -0.24505940 0.19356930
v 0.00815470 -0.24852705 0.19100102
v 0.00815470 -0.25124156 0.18789469
v 0.00815470 -0.25433263 0.18430110
v -0.00426721 -0.27196902 0.16413032
v -0.01044006 -0.27196902 0.16413032
v -0.01665101 -0.27192196 0.16403897
v -0.02282386 -0.27185919 0.16384609
v -0.02899671 -0.27173367 0.16359231
v -0.02899671 -0.26865828 0.16808936
v -0.03524577 -0.26842292 0.16782544
v -0.03970394 -0.27011752 0.16462776
v -0.04141862 -0.26804634 0.16732802
v -0.06622433 -0.26628898 0.16516576
v -0.07243529 -0.26580256 0.16438412
v -0.07243529 -0.26809342 0.16128794
v -0.11282554 -0.26652433 0.15285215
v -0.17565905 -0.21203038 0.19192478
v -0.17981240 -0.21083788 0.18994527
v -0.18994807 -0.20926882 0.18159068
v -0.19337743 -0.20536181 0.18512336
v -0.19482538 -0.20013680 0.19280796
v -0.19703541 -0.19649653 0.19500065
v -0.19234862 -0.19848927 0.19695986
v -0.19505399 -0.19440967 0.19842167
v -0.17943136 -0.19169517 0.20918211
v -0.19231051 -0.18025661 0.20950696
v -0.19257723 -0.17973882 0.20967953
v -0.19615902 -0.17758919 0.20782183
v -0.20107443 -0.17126582 0.20505052
v -0.19726403 -0.17126582 0.20814667
v -0.19749266 -0.16505228 0.20843092
v -0.15927434 -0.17578475 0.22287631
v -0.15306337 -0.17964467 0.22193224
v -0.15927434 -0.17889152 0.22162771
v -0.13858386 -0.18083717 0.22247027
v -0.16857170 -0.15568491 0.22231800
v -0.16548529 -0.16505228 0.22331283
v -0.16860981 -0.16822182 0.22233831
v -0.16529476 -0.17068526 0.22283572
v -0.16723808 -0.17234848 0.22196270
v -0.16312283 -0.17487469 0.22251088
v -0.01665101 -0.22197832 0.20878620
v -0.01047816 -0.22224506 0.20908061
v -0.00819192 -0.22227644 0.20917196
v -0.14685243 -0.18932587 0.21749609
v -0.14685243 -0.19243264 0.21582112
v -0.04145673 -0.21722402 0.20964907
v -0.00426721 -0.22707780 0.20666458
v 0.00194374 -0.22707780 0.20675593
v 0.16323803 -0.22114670 0.18009844
v 0.17421199 -0.21827529 0.17915437
v 0.00815470 -0.22775251 0.20595398
v 0.00815470 -0.23103187 0.20423839
v 0.00815470 -0.23413864 0.20224873
v 0.00815470 -0.23887724 0.19915255
v 0.17421199 -0.23456229 0.16944965
v 0.17421199 -0.23051408 0.17206871
v 0.17421199 -0.22677968 0.17438322
v 0.17421199 -0.22106826 0.17773317
v -0.19029100 -0.16505228 0.21343554
v -0.18667111 -0.16505228 0.21585157
v -0.18358468 -0.16505228 0.21727275
v -0.17790719 -0.16505228 0.21942486
v -0.00426721 -0.26884657 0.16822133
v 0.00815470 -0.24198401 0.19705123
v 0.00815470 -0.24545167 0.19395506
v 0.00194374 -0.24548305 0.19402612
v 0.00194374 -0.24855844 0.19104161
v -0.01044006 -0.26057755 0.17815953
v -0.00426721 -0.26622621 0.17130735
v -0.01044006 -0.26884657 0.16826194
v -0.02282386 -0.26878381 0.16822133
v -0.02899671 -0.26616345 0.17118554
v -0.03524577 -0.26602224 0.17091144
v -0.04141862 -0.26255458 0.17446442
v -0.07243529 -0.26271149 0.16828224
v -0.04141862 -0.26005976 0.17756059
v -0.07864624 -0.26206817 0.16756149
v -0.11282554 -0.26489250 0.15478092
v -0.07864624 -0.25954196 0.17065766
v -0.17626872 -0.20609928 0.19820848
v -0.18042207 -0.20506369 0.19716289
v -0.11282554 -0.26321359 0.15669953
v -0.18023154 -0.19874032 0.20331463
v -0.18411814 -0.19425276 0.20472566
v -0.17535422 -0.19331132 0.21013635
v -0.17760236 -0.18971813 0.21111088
v -0.17752615 -0.18330062 0.21426795
v -0.17516371 -0.18096270 0.21626777
v -0.18137466 -0.17470210 0.21625762
v -0.18564231 -0.17126582 0.21543536
v -0.19379656 -0.17561216 0.21022771
v -0.19421572 -0.17126582 0.21048150
v -0.15306337 -0.18025661 0.22165814
v -0.16529476 -0.17716554 0.22099831
v -0.16083660 -0.18025661 0.22057196
v -0.15927434 -0.18025661 0.22093741
v -0.15306337 -0.18369289 0.21995271
v -0.16864792 -0.16505228 0.22233831
v -0.17790719 -0.17126582 0.21858229
v -0.17108657 -0.17068526 0.22103892
v -0.17165813 -0.17746366 0.21884622
v -0.02008038 -0.23027872 0.20376128
v -0.01733689 -0.22775251 0.20541595
v -0.01165939 -0.22775251 0.20581186
v -0.00819192 -0.22707780 0.20643109
v -0.15306337 -0.18880807 0.21723214
v -0.14685243 -0.19610427 0.21374008
v -0.04766768 -0.22087996 0.20707064
v -0.00426721 -0.22775251 0.20622807
v 0.00194374 -0.23109463 0.20430946
v 0.00194374 -0.22775251 0.20637019
v -0.01665101 -0.23043563 0.20386281
v 0.00194374 -0.23897139 0.19918301
v 0.00194374 -0.24207816 0.19713243
v -0.19029100 -0.17126582 0.21289752
v -0.18255588 -0.17126582 0.21680579
v -0.01044006 -0.26321359 0.17507351
v -0.01044006 -0.26628898 0.17136826
v -0.01665101 -0.24819755 0.19073707
v -0.01665101 -0.25135139 0.18762061
v -0.01665101 -0.25442677 0.18452444
v -0.01044006 -0.25747078 0.18148918
v -0.01665101 -0.26051479 0.17813923
v -0.01665101 -0.26318221 0.17505321
v -0.01665101 -0.26628898 0.17132765
v -0.02282386 -0.26622621 0.17130735
v -0.03524577 -0.26026373 0.17784483
v -0.03524577 -0.26291547 0.17475882
v -0.07243529 -0.26005976 0.17137842
v -0.04141862 -0.25695299 0.18074812
v -0.07864624 -0.25643519 0.17422080
v -0.03970394 -0.25927522 0.17853512
v -0.17169624 -0.20049768 0.20495914
v -0.17607821 -0.19980730 0.20430946
v -0.17825014 -0.20244333 0.20074633
v -0.08337113 -0.25577619 0.17353050
v -0.14685243 -0.20726040 0.20574079
v -0.14685243 -0.20399672 0.20884712
v -0.15306337 -0.19990144 0.21040028
v -0.15306337 -0.19610427 0.21285692
v -0.15306337 -0.19191484 0.21546582
v -0.15927434 -0.18780386 0.21671444
v -0.15927434 -0.18369289 0.21913045
v -0.16525666 -0.18400671 0.21756716
v -0.17169624 -0.18515212 0.21539475
v -0.17558285 -0.18025661 0.21637945
v -0.17169624 -0.18206105 0.21687686
v -0.17443972 -0.18025661 0.21680579
v -0.17748805 -0.17707140 0.21684640
v -0.16525666 -0.18025661 0.21947560
v -0.16929569 -0.18025661 0.21840972
v -0.01665101 -0.23802994 0.19868560
v -0.01665101 -0.23354240 0.20180207
v -0.14685243 -0.20088995 0.21094846
v -0.01665101 -0.24113671 0.19642185
v -0.01665101 -0.24509078 0.19332568
v -0.02282386 -0.24786805 0.19048330
v -0.03524577 -0.25400313 0.18419960
v -0.03524577 -0.25715696 0.18110342
v -0.01665101 -0.25740802 0.18141811
v -0.03974204 -0.25357948 0.18396611
v -0.04145673 -0.25342257 0.18386460
v -0.03524577 -0.25089636 0.18678820
v -0.03524577 -0.24695799 0.18989451
v -0.03825599 -0.23641379 0.19749788
v -0.02282386 -0.24068168 0.19609701
v -0.02282386 -0.24476128 0.19300083
f 1 2 3
f 1 3 4
f 1 4 5
f 1 5 6
f 1 6 2
f 2 7 8
f 2 8 9
f 2 9 10
f 2 10 11
f 2 11 3
f 2 6 12
f 2 12 13
f 2 13 14
f 2 14 7
f 3 11 4
f 4 15 16
f 4 16 5
f 4 11 10
f 4 10 17
f 4 17 15
f 5 16 6
f 6 18 19
f 6 19 20
f 6 20 29
f 6 29 12
f 6 16 21
f 6 21 22
f 6 22 23
f 6 23 24
f 6 24 25
f 6 25 26
f 6 26 18
f 7 27 28
f 7 28 8
f 7 14 27
f 8 28 17
f 8 17 9
f 9 17 10
f 12 29 14
f 12 14 13
f 14 29 30
f 14 30 31
f 14 31 32
f 14 32 33
f 14 33 34
f 14 34 27
f 15 17 35
f 15 35 36
f 15 36 37
f 15 37 16
f 16 37 21
f 17 28 38
f 17 38 35
f 18 39 40
f 18 40 41
f 18 41 19
f 18 26 42
f 18 42 43
f 18 43 44
f 18 44 45
f 18 45 46
f 18 46 47
f 18 47 39
f 19 41 20
f 20 41 48
f 20 48 82
f 20 82 81
f 20 81 80
f 20 80 122
f 20 122 121
f 20 121 175
f 20 175 190
f 20 190 189
f 20 189 188
f 20 188 256
f 20 256 318
f 20 318 323
f 20 323 322
f 20 322 321
f 20 321 393
f 20 393 468
f 20 468 476
f 20 476 475
f 20 475 474
f 20 474 473
f 20 473 414
f 20 414 413
f 20 413 409
f 20 409 337
f 20 337 336
f 20 336 335
f 20 335 269
f 20 269 205
f 20 205 146
f 20 146 104
f 20 104 61
f 20 61 30
f 20 30 29
f 21 37 49
f 21 49 22
f 22 49 50
f 22 50 23
f 23 50 51
f 23 51 24
f 24 51 25
f 25 51 52
f 25 52 53
f 25 53 26
f 26 53 54
f 26 54 55
f 26 55 42
f 27 34 56
f 27 56 57
f 27 57 28
f 28 57 58
f 28 58 59
f 28 59 60
f 28 60 38
f 30 61 62
f 30 62 32
f 30 32 31
f 32 62 33
f 33 62 63
f 33 63 64
f 33 64 65
f 33 65 66
f 33 66 67
f 33 67 68
f 33 68 69
f 33 69 70
f 33 70 71
f 33 71 72
f 33 72 73
f 33 73 74
f 33 74 75
f 33 75 34
f 34 75 56
f 35 38 60
f 35 60 36
f 36 60 76
f 36 76 77
f 36 77 37
f 37 77 49
f 39 78 40
f 39 47 78
f 40 78 79
f 40 79 80
f 40 80 81
f 40 81 82
f 40 82 41
f 41 82 48
f 42 55 83
f 42 83 43
f 43 83 44
f 44 84 85
f 44 85 46
f 44 46 45
f 44 83 86
f 44 86 84
f 46 85 87
f 46 87 47
f 47 87 88
f 47 88 79
f 47 79 78
f 49 77 89
f 49 89 50
f 50 89 90
f 50 90 51
f 51 90 52
f 52 90 91
f 52 91 92
f 52 92 53
f 53 92 54
f 54 92 93
f 54 93 94
f 54 94 55
f 55 94 83
f 56 95 57
f 56 75 74
f 56 74 96
f 56 96 97
f 56 97 95
f 57 95 58
f 58 95 98
f 58 98 99
f 58 99 100
f 58 100 101
f 58 101 102
f 58 102 59
f 59 103 60
f 59 102 103
f 60 103 76
f 61 104 105
f 61 105 62
f 62 105 106
f 62 106 63
f 63 107 64
f 63 106 107
f 64 107 108
f 64 108 109
f 64 109 110
f 64 110 111
f 64 111 112
f 64 112 65
f 65 113 66
f 65 112 113
f 66 113 114
f 66 114 67
f 67 114 115
f 67 115 68
f 68 115 69
f 69 115 116
f 69 116 117
f 69 117 70
f 70 117 118
f 70 118 71
f 71 118 72
f 72 118 96
f 72 96 73
f 73 96 74
f 76 103 119
f 76 119 89
f 76 89 77
f 79 120 175
f 79 175 121
f 79 121 122
f 79 122 80
f 79 88 120
f 83 94 123
f 83 123 86
f 84 124 125
f 84 125 87
f 84 87 85
f 84 86 126
f 84 126 124
f 86 123 127
f 86 127 128
f 86 128 126
f 87 125 88
f 88 125 129
f 88 129 130
f 88 130 120
f 89 119 131
f 89 131 90
f 90 131 132
f 90 132 91
f 91 132 133
f 91 133 92
f 92 133 134
f 92 134 93
f 93 134 94
f 94 134 135
f 94 135 123
f 95 97 96
f 95 96 136
f 95 136 98
f 96 118 136
f 98 136 99
f 99 136 137
f 99 137 138
f 99 138 139
f 99 139 140
f 99 140 141
f 99 141 100
f 100 141 101
f 101 142 102
f 101 141 143
f 101 143 142
f 102 144 103
f 102 142 144
f 103 144 119
f 104 145 105
f 104 146 147
f 104 147 148
f 104 148 149
f 104 149 145
f 105 150 151
f 105 151 152
f 105 152 153
f 105 153 154
f 105 154 155
f 105 155 156
f 105 156 157
f 105 157 158
f 105 158 106
f 105 145 159
f 105 159 160
f 105 160 150
f 106 158 161
f 106 161 107
f 107 161 162
f 107 162 163
f 107 163 108
f 108 163 109
f 109 163 164
f 109 164 165
f 109 165 166
f 109 166 110
f 110 167 111
f 110 166 167
f 111 167 168
f 111 168 112
f 112 168 113
f 113 169 170
f 113 170 114
f 113 168 169
f 114 170 171
f 114 171 115
f 115 171 116
f 116 171 172
f 116 172 117
f 117 172 118
f 118 137 136
f 118 172 137
f 119 144 173
f 119 173 174
f 119 174 131
f 120 130 175
f 123 135 127
f 124 176 177
f 124 177 178
f 124 178 129
f 124 129 125
f 124 126 179
f 124 179 176
f 126 128 180
f 126 180 179
f 127 135 181
f 127 181 182
f 127 182 128
f 128 182 180
f 129 178 183
f 129 183 184
f 129 184 185
f 129 185 186
f 129 186 130
f 130 186 187
f 130 187 188
f 130 188 189
f 130 189 190
f 130 190 175
f 131 174 132
f 132 174 191
f 132 191 192
f 132 192 133
f 133 192 134
f 134 192 135
f 135 192 181
f 137 172 193
f 137 193 138
f 138 193 139
f 139 193 194
f 139 194 195
f 139 195 196
f 139 196 197
f 139 197 198
f 139 198 199
f 139 199 200
f 139 200 201
f 139 201 142
f 139 142 143
f 139 143 140
f 140 143 141
f 142 201 202
f 142 202 203
f 142 203 204
f 142 204 173
f 142 173 144
f 145 149 160
f 145 160 159
f 146 205 206
f 146 206 147
f 147 206 207
f 147 207 208
f 147 208 148
f 148 208 209
f 148 209 210
f 148 210 211
f 148 211 160
f 148 160 149
f 150 160 211
f 150 211 151
f 151 211 212
f 151 212 213
f 151 213 214
f 151 214 215
f 151 215 216
f 151 216 217
f 151 217 152
f 152 217 218
f 152 218 153
f 153 219 220
f 153 220 154
f 153 218 290
f 153 290 219
f 154 220 221
f 154 221 155
f 155 221 222
f 155 222 156
f 156 222 223
f 156 223 157
f 157 223 161
f 157 161 158
f 161 223 224
f 161 224 162
f 162 224 163
f 163 224 225
f 163 225 226
f 163 226 227
f 163 227 228
f 163 228 229
f 163 229 164
f 164 229 230
f 164 230 165
f 165 230 231
f 165 231 166
f 166 231 232
f 166 232 167
f 167 232 233
f 167 233 168
f 168 233 234
f 168 234 169
f 169 234 235
f 169 235 236
f 169 236 237
f 169 237 170
f 170 237 238
f 170 238 239
f 170 239 171
f 171 239 240
f 171 240 193
f 171 193 172
f 173 204 191
f 173 191 174
f 176 179 241
f 176 241 242
f 176 242 183
f 176 183 177
f 177 183 178
f 179 243 241
f 179 180 244
f 179 244 245
f 179 245 246
f 179 246 243
f 180 182 244
f 181 192 247
f 181 247 182
f 182 247 244
f 183 248 184
f 183 242 249
f 183 249 248
f 184 248 250
f 184 250 251
f 184 251 185
f 185 251 252
f 185 252 186
f 186 252 251
f 186 251 253
f 186 253 187
f 187 254 255
f 187 255 188
f 187 253 254
f 188 255 257
f 188 257 258
f 188 258 256
f 191 204 259
f 191 259 192
f 192 259 260
f 192 260 261
f 192 261 247
f 193 240 194
f 194 240 195
f 195 240 238
f 195 238 196
f 196 238 236
f 196 236 262
f 196 262 197
f 197 262 263
f 197 263 264
f 197 264 265
f 197 265 198
f 198 265 199
f 199 266 200
f 199 265 266
f 200 267 203
f 200 203 202
f 200 202 201
f 200 266 268
f 200 268 260
f 200 260 267
f 203 267 259
f 203 259 204
f 205 269 270
f 205 270 206
f 206 270 271
f 206 271 272
f 206 272 207
f 207 272 208
f 208 273 274
f 208 274 275
f 208 275 276
f 208 276 209
f 208 272 273
f 209 276 277
f 209 277 278
f 209 278 354
f 209 354 279
f 209 279 214
f 209 214 280
f 209 280 210
f 210 280 211
f 211 280 212
f 212 280 281
f 212 281 213
f 213 281 214
f 214 281 280
f 214 279 282
f 214 282 215
f 215 282 283
f 215 283 284
f 215 284 285
f 215 285 216
f 216 285 286
f 216 286 287
f 216 287 288
f 216 288 217
f 217 288 289
f 217 289 290
f 217 290 218
f 219 290 291
f 219 291 292
f 219 292 220
f 220 292 221
f 221 292 225
f 221 225 222
f 222 225 223
f 223 225 224
f 225 292 226
f 226 292 291
f 226 291 293
f 226 293 294
f 226 294 227
f 227 294 228
f 228 295 229
f 228 294 296
f 228 296 297
f 228 297 298
f 228 298 295
f 229 295 230
f 230 295 232
f 230 232 231
f 232 295 299
f 232 299 233
f 233 299 300
f 233 300 235
f 233 235 234
f 235 300 301
f 235 301 236
f 236 301 302
f 236 302 262
f 236 238 237
f 238 240 239
f 241 243 303
f 241 303 242
f 242 303 304
f 242 304 305
f 242 305 249
f 243 246 303
f 244 247 306
f 244 306 307
f 244 307 245
f 245 308 246
f 245 307 309
f 245 309 308
f 246 308 303
f 247 310 306
f 247 261 311
f 247 311 310
f 248 249 250
f 249 305 312
f 249 312 313
f 249 313 250
f 250 313 314
f 250 314 315
f 250 315 316
f 250 316 251
f 251 316 317
f 251 317 253
f 253 317 258
f 253 258 254
f 254 258 255
f 255 258 257
f 256 258 318
f 258 319 320
f 258 320 321
f 258 321 322
f 258 322 323
f 258 323 318
f 258 317 324
f 258 324 325
f 258 325 326
f 258 326 319
f 259 267 260
f 260 268 327
f 260 327 261
f 261 327 311
f 262 302 328
f 262 328 329
f 262 329 263
f 263 329 264
f 264 330 265
f 264 329 330
f 265 330 331
f 265 331 332
f 265 332 333
f 265 333 334
f 265 334 327
f 265 327 268
f 265 268 266
f 269 335 270
f 270 335 336
f 270 336 337
f 270 337 338
f 270 338 271
f 271 339 272
f 271 338 337
f 271 337 340
f 271 340 341
f 271 341 342
f 271 342 343
f 271 343 344
f 271 344 345
f 271 345 339
f 272 339 346
f 272 346 347
f 272 347 274
f 272 274 273
f 274 348 275
f 274 347 346
f 274 346 348
f 275 348 349
f 275 349 276
f 276 349 350
f 276 350 277
f 277 350 351
f 277 351 352
f 277 352 353
f 277 353 278
f 278 353 354
f 279 354 282
f 282 354 355
f 282 355 284
f 282 284 356
f 282 356 283
f 283 356 284
f 284 355 354
f 284 354 353
f 284 353 357
f 284 357 358
f 284 358 359
f 284 359 360
f 284 360 287
f 284 287 285
f 285 287 286
f 287 360 288
f 288 360 361
f 288 361 289
f 289 361 362
f 289 362 290
f 290 362 363
f 290 363 291
f 291 363 293
f 293 363 362
f 293 362 364
f 293 364 365
f 293 365 294
f 294 365 366
f 294 366 367
f 294 367 296
f 295 298 299
f 296 367 297
f 297 368 298
f 297 367 369
f 297 369 370
f 297 370 371
f 297 371 372
f 297 372 368
f 298 373 299
f 298 368 372
f 298 372 374
f 298 374 373
f 299 373 300
f 300 373 375
f 300 375 301
f 301 375 376
f 301 376 302
f 302 376 328
f 303 308 377
f 303 377 304
f 304 377 378
f 304 378 305
f 305 378 379
f 305 379 380
f 305 380 312
f 306 310 307
f 307 310 381
f 307 381 309
f 308 309 377
f 309 378 377
f 309 381 382
f 309 382 383
f 309 383 378
f 310 311 384
f 310 384 385
f 310 385 382
f 310 382 381
f 311 327 386
f 311 386 387
f 311 387 384
f 312 380 314
f 312 314 313
f 314 388 389
f 314 389 390
f 314 390 315
f 314 380 388
f 315 390 316
f 316 390 391
f 316 391 317
f 317 391 324
f 319 326 320
f 320 392 393
f 320 393 321
f 320 326 392
f 324 391 390
f 324 390 394
f 324 394 325
f 325 394 395
f 325 395 326
f 326 395 396
f 326 396 397
f 326 397 398
f 326 398 340
f 326 340 399
f 326 399 400
f 326 400 401
f 326 401 402
f 326 402 392
f 327 334 403
f 327 403 386
f 328 404 405
f 328 405 406
f 328 406 329
f 328 376 404
f 329 406 330
f 330 406 331
f 331 406 407
f 331 407 332
f 332 408 387
f 332 387 403
f 332 403 334
f 332 334 333
f 332 407 408
f 337 409 410
f 337 410 340
f 339 345 411
f 339 411 412
f 339 412 348
f 339 348 346
f 340 342 341
f 340 410 409
f 340 409 413
f 340 413 414
f 340 414 399
f 340 398 415
f 340 415 416
f 340 416 417
f 340 417 342
f 342 417 343
f 343 417 418
f 343 418 344
f 344 418 345
f 345 418 419
f 345 419 420
f 345 420 411
f 348 412 421
f 348 421 349
f 349 421 422
f 349 422 350
f 350 422 423
f 350 423 351
f 351 423 424
f 351 424 352
f 352 424 425
f 352 425 353
f 353 425 357
f 357 425 426
f 357 426 427
f 357 427 358
f 358 427 428
f 358 428 359
f 359 428 429
f 359 429 430
f 359 430 431
f 359 431 432
f 359 432 360
f 360 433 434
f 360 434 435
f 360 435 436
f 360 436 361
f 360 432 433
f 361 436 362
f 362 436 437
f 362 437 364
f 364 437 438
f 364 438 365
f 365 438 366
f 366 438 439
f 366 439 367
f 367 439 440
f 367 440 441
f 367 441 369
f 369 441 442
f 369 442 370
f 370 442 443
f 370 443 444
f 370 444 372
f 370 372 371
f 372 444 445
f 372 445 374
f 373 374 446
f 373 446 375
f 374 445 446
f 375 446 447
f 375 447 448
f 375 448 376
f 376 448 404
f 378 383 449
f 378 449 379
f 379 450 380
f 379 449 451
f 379 451 450
f 380 450 452
f 380 452 388
f 382 385 453
f 382 453 454
f 382 454 455
f 382 455 383
f 383 455 456
f 383 456 457
f 383 457 458
f 383 458 449
f 384 387 453
f 384 453 385
f 386 403 387
f 387 408 453
f 388 459 460
f 388 460 461
f 388 461 389
f 388 452 462
f 388 462 463
f 388 463 464
f 388 464 459
f 389 461 465
f 389 465 466
f 389 466 390
f 390 396 395
f 390 395 394
f 390 466 396
f 392 402 467
f 392 467 393
f 393 467 402
f 393 402 468
f 396 469 397
f 396 466 469
f 397 469 470
f 397 470 398
f 398 470 471
f 398 471 472
f 398 472 415
f 399 414 473
f 399 473 474
f 399 474 475
f 399 475 476
f 399 476 400
f 400 476 402
f 400 402 401
f 402 476 468
f 404 448 477
f 404 477 478
f 404 478 405
f 405 478 406
f 406 478 407
f 407 478 479
f 407 479 408
f 408 480 453
f 408 479 480
f 411 420 481
f 411 481 412
f 412 481 421
f 415 472 482
f 415 482 416
f 416 482 417
f 417 482 483
f 417 483 418
f 418 483 484
f 418 484 485
f 418 485 486
f 418 486 419
f 419 486 487
f 419 487 420
f 420 487 481
f 421 481 488
f 421 488 422
f 422 488 489
f 422 489 423
f 423 489 424
f 424 489 426
f 424 426 425
f 426 490 491
f 426 491 427
f 426 489 490
f 427 491 492
f 427 492 429
f 427 429 428
f 429 492 430
f 430 493 431
f 430 492 494
f 430 494 493
f 431 493 495
f 431 495 433
f 431 433 432
f 433 496 434
f 433 495 497
f 433 497 496
f 434 498 499
f 434 499 440
f 434 440 438
f 434 438 435
f 434 496 500
f 434 500 498
f 435 438 437
f 435 437 436
f 438 440 439
f 440 499 501
f 440 501 502
f 440 502 441
f 441 502 442
f 442 503 504
f 442 504 444
f 442 444 443
f 442 502 503
f 444 504 505
f 444 505 506
f 444 506 507
f 444 507 508
f 444 508 509
f 444 509 445
f 445 509 446
f 446 509 447
f 447 509 510
f 447 510 448
f 448 510 477
f 449 458 451
f 450 511 452
f 450 451 511
f 451 458 512
f 451 512 513
f 451 513 514
f 451 514 515
f 451 515 511
f 452 511 515
f 452 515 462
f 453 480 516
f 453 516 454
f 454 516 455
f 455 516 480
f 455 480 517
f 455 517 518
f 455 518 457
f 455 457 456
f 457 518 517
f 457 517 519
f 457 519 458
f 458 519 512
f 459 464 520
f 459 520 521
f 459 521 460
f 460 521 522
f 460 522 523
f 460 523 465
f 460 465 461
f 462 515 524
f 462 524 463
f 463 524 525
f 463 525 464
f 464 526 520
f 464 525 526
f 465 527 528
f 465 528 529
f 465 529 466
f 465 523 522
f 465 522 520
f 465 520 530
f 465 530 527
f 466 529 470
f 466 470 469
f 470 529 528
f 470 528 471
f 471 528 531
f 471 531 472
f 472 531 532
f 472 532 482
f 477 510 478
f 478 510 533
f 478 533 508
f 478 508 479
f 479 508 534
f 479 534 517
f 479 517 480
f 481 535 536
f 481 536 488
f 481 487 535
f 482 532 483
f 483 532 484
f 484 532 537
f 484 537 485
f 485 537 538
f 485 538 539
f 485 539 540
f 485 540 486
f 486 535 487
f 486 540 541
f 486 541 542
f 486 542 535
f 488 536 543
f 488 543 489
f 489 544 490
f 489 543 544
f 490 544 542
f 490 542 545
f 490 545 546
f 490 546 491
f 491 546 494
f 491 494 492
f 493 547 497
f 493 497 495
f 493 494 547
f 494 548 549
f 494 549 547
f 494 546 545
f 494 545 550
f 494 550 548
f 496 497 549
f 496 549 500
f 497 547 549
f 498 551 552
f 498 552 553
f 498 553 499
f 498 500 554
f 498 554 555
f 498 555 551
f 499 553 501
f 500 549 554
f 501 553 552
f 501 552 503
f 501 503 502
f 503 506 504
f 503 552 551
f 503 551 556
f 503 556 557
f 503 557 558
f 503 558 559
f 503 559 560
f 503 560 561
f 503 561 562
f 503 562 563
f 503 563 506
f 504 506 505
f 506 564 507
f 506 563 565
f 506 565 566
f 506 566 564
f 507 534 508
f 507 564 567
f 507 567 519
f 507 519 517
f 507 517 534
f 508 533 509
f 509 533 510
f 512 568 513
f 512 519 566
f 512 566 569
f 512 569 563
f 512 563 568
f 513 568 563
f 513 563 562
f 513 562 514
f 514 561 515
f 514 562 561
f 515 561 524
f 519 567 566
f 520 570 571
f 520 571 530
f 520 522 521
f 520 526 525
f 520 525 572
f 520 572 556
f 520 556 570
f 524 559 525
f 524 561 559
f 525 559 572
f 527 531 528
f 527 530 531
f 530 571 532
f 530 532 531
f 532 571 570
f 532 570 573
f 532 573 574
f 532 574 537
f 535 542 543
f 535 543 536
f 537 574 575
f 537 575 576
f 537 576 577
f 537 577 538
f 538 577 539
f 539 577 578
f 539 578 540
f 540 578 541
f 541 578 545
f 541 545 542
f 542 544 543
f 545 577 550
f 545 578 577
f 548 550 577
f 548 577 576
f 548 576 579
f 548 579 580
f 548 580 556
f 548 556 549
f 549 556 555
f 549 555 554
f 551 555 556
f 556 572 557
f 556 580 581
f 556 581 582
f 556 582 583
f 556 583 570
f 557 572 558
f 558 572 559
f 559 561 560
f 563 569 565
f 564 566 567
f 565 569 566
f 570 583 584
f 570 584 573
f 573 584 585
f 573 585 574
f 574 585 575
f 575 585 581
f 575 581 576
f 576 581 579
f 579 581 580
f 581 585 582
f 582 585 584
f 582 584 583

