# https://github.com/mikedh/trimesh
v -0.13958995 0.05820566 0.00832306
v -0.13958995 0.05820566 0.00589322
v -0.14038793 0.05820566 0.01452460
v 0.01435605 0.05596521 0.04516965
v -0.15845417 0.05820566 0.00589322
v -0.03977881 0.05505503 0.00589322
v -0.14249460 0.05820566 0.02054481
v 0.01435605 0.05503169 0.04814349
v 0.02058028 0.05479831 0.04738189
v 0.02058028 0.05547512 0.04516965
v -0.14520771 0.05820566 0.02685515
v -0.14862306 0.05820566 0.03327429
v -0.15210227 0.05820566 0.03880491
v -0.15535801 0.05820566 0.04351953
v -0.15765617 0.05820566 0.04660216
v -0.16075233 0.05820566 0.05070026
v -0.16340163 0.05820566 0.05378290
v -0.17310503 0.05820566 0.06274068
v -0.17652039 0.05820566 0.06582332
v -0.17974424 0.05820566 0.06828943
v -0.18411714 0.05820566 0.07111820
v -0.18769209 0.05820566 0.07322165
v -0.19075633 0.05820566 0.07456350
v -0.19650178 0.05820566 0.07652188
v -0.19662946 0.05820566 0.07655815
v -0.15676246 0.05428488 0.00589322
v -0.23084676 -0.11787913 0.09271479
v -0.22490979 0.05820566 0.05385543
v -0.03977881 0.04291930 0.00589322
v 0.03331602 0.05358474 0.04516965
v 0.03915722 0.05258121 0.04516965
v 0.06379879 0.04782027 0.04516965
v 0.07018262 0.04641999 0.04516965
v 0.07688563 0.04441293 0.04516965
v 0.08055633 0.04315268 0.04516965
v 0.08875956 0.04014209 0.04516965
v 0.09523913 0.03771494 0.04516965
v 0.01435605 0.05379478 0.05175198
v 0.01435605 0.05155434 0.05795353
v 0.02058028 0.05321134 0.05175198
v 0.03296491 0.05160101 0.05175198
v 0.03296491 0.05353807 0.04553231
v -0.20269409 0.05820566 0.07760987
v 0.00816373 0.04999070 0.06361107
v -0.15542185 0.05239451 0.00589322
v -0.20693933 -0.18021478 0.15313449
v -0.21191872 -0.18021478 0.16002510
v -0.21214215 -0.18019144 0.16046028
v -0.21220599 -0.18019144 0.16067789
v -0.21348276 -0.18019144 0.16593650
v -0.21428072 -0.18019144 0.16934554
v -0.21501488 -0.18019144 0.17578280
v -0.23084676 -0.11787913 0.10997756
v -0.23084676 -0.01589232 0.08063811
v -0.15136811 0.04735351 0.00589322
v -0.14409055 0.03862512 0.00589322
v -0.14297337 0.03741154 0.00589322
v -0.13987722 0.03437762 0.00589322
v -0.13786632 0.03246390 0.00589322
v -0.13655763 0.03125033 0.00589322
v -0.13342956 0.02861314 0.00589322
v -0.13017380 0.02658274 0.00589322
v -0.12851401 0.02574258 0.00589322
v -0.12203443 0.02499576 0.00589322
v -0.18146786 -0.18021478 0.12818326
v -0.22490979 0.05820566 0.07182539
v -0.03984265 0.04289596 0.00589322
v 0.09523913 0.02189181 0.04516965
v 0.03915722 0.05248786 0.04553231
v 0.06794828 0.04296598 0.05530609
v 0.07018262 0.04630330 0.04553231
v 0.03934873 0.05027075 0.05204211
v 0.03740166 0.04936058 0.05563248
v 0.07947108 0.04275594 0.04861495
v 0.07701331 0.04415621 0.04616697
v 0.08879148 0.04004874 0.04553231
v 0.09523913 0.03764493 0.04556858
v 0.01435605 0.04968731 0.06286761
v 0.03296491 0.04975732 0.05644847
v -0.20282177 0.05820566 0.07760987
v 0.03296491 -0.00616039 0.12983337
v 0.03915722 -0.00630042 0.12972458
v 0.03296491 0.00014085 0.12375877
v 0.02677259 0.00655878 0.11779296
v 0.02677259 0.00966273 0.11469219
v 0.02677259 0.01267333 0.11160955
v 0.03296491 0.01860116 0.10508162
v 0.03296491 0.02168177 0.10169071
v 0.03296491 0.02448232 0.09858994
v 0.02686835 0.03022346 0.09186254
v 0.02686835 0.03255725 0.08870737
v 0.02677259 0.03561453 0.08430101
v 0.00816373 0.04873045 0.06671184
v -0.21195064 -0.18021478 0.16009762
v -0.21408921 -0.18019144 0.18198436
v -0.21546174 -0.17743757 0.17578280
v -0.21450417 -0.17743757 0.18198436
v -0.23084676 -0.10298952 0.11041276
v -0.23084676 -0.01589232 0.09458251
v -0.16352930 -0.18021478 0.12818326
v -0.11839564 0.02571923 0.00589322
v -0.21980274 0.05820566 0.07418271
v -0.20885449 -0.15258266 0.19114160
v -0.20789690 -0.14999214 0.19114160
v -0.20690741 -0.14800842 0.19114160
v -0.20339630 -0.14268737 0.19114160
v -0.19953410 -0.13727297 0.19114160
v -0.19934257 -0.13706293 0.19114160
v -0.19378865 -0.13174187 0.19114160
v -0.19315026 -0.13113508 0.19114160
v -0.06007938 -0.15069228 0.12267078
v 0.09523913 -0.01334848 0.10946984
v 0.09211106 -0.12462380 0.17549269
v -0.03132024 -0.15643342 0.13501946
v -0.05663212 -0.14985211 0.12287024
v 0.07583231 0.03745822 0.06424573
v 0.07634301 0.03995539 0.05795353
v 0.07206585 0.04249922 0.05410930
v 0.07005494 0.04382948 0.05193332
v 0.07701331 0.04212581 0.05193332
v 0.04254065 0.04284929 0.06741904
v 0.07018262 0.03547450 0.07117260
v 0.07340645 0.03659472 0.06732837
v 0.08084361 0.03706148 0.06221482
v 0.09523913 0.03374749 0.05795353
v 0.09523913 0.03603461 0.05175198
v 0.09364318 0.03710815 0.05001120
v 0.01435605 0.04840372 0.06596838
v -0.20891832 0.05820566 0.07737415
v 0.02054836 -0.06123794 0.16751409
v 0.02677259 -0.01353519 0.13512826
v 0.03296491 -0.01337182 0.13521892
v 0.02677259 -0.00991780 0.13258962
v 0.03296491 -0.00991780 0.13269842
v 0.02677259 -0.00620707 0.12979711
v 0.04538145 -0.01330180 0.13521892
v 0.03915722 -0.00006919 0.12359557
v 0.03296491 0.00322146 0.12073053
v 0.05157376 -0.01358186 0.13500133
v 0.04538145 -0.00658048 0.12947071
v 0.04538145 -0.00030257 0.12337797
v 0.04538145 0.00595200 0.11723083
v 0.03296491 0.00637208 0.11762976
v 0.03915722 0.00926599 0.11429325
v 0.03296491 0.01248662 0.11141009
v 0.03915722 0.01229992 0.11119248
v 0.03915722 0.01395691 0.10946984
v 0.03915722 0.01834444 0.10482775
v 0.03679520 0.02431896 0.09842674
v 0.03296491 0.02994340 0.09146361
v 0.03296491 0.03213717 0.08839910
v 0.01435605 0.04574319 0.07037474
v 0.03915722 0.03486771 0.08314049
v 0.04250873 0.03659472 0.07971332
v -0.18287231 -0.18021478 0.16009762
v -0.20997165 -0.18019144 0.19114160
v -0.21105689 -0.18019144 0.18943709
v -0.21265285 -0.18019144 0.18633631
v -0.21287627 -0.17743757 0.18682591
v -0.21290821 -0.17122967 0.18758749
v -0.21450417 -0.17122967 0.18198436
v -0.23084676 -0.09675829 0.11037650
v -0.23084676 -0.01941635 0.09577930
v -0.21137609 -0.16502177 0.19114160
v -0.21118456 -0.16373819 0.19114160
v -0.21032277 -0.15855717 0.19114160
v -0.20965245 -0.15570994 0.19114160
v -0.01015785 -0.17302670 0.17369749
v -0.16426344 -0.18021478 0.13237202
v -0.06007938 -0.15379623 0.12499182
v -0.03527821 -0.15970072 0.13857356
v -0.01015785 -0.16527849 0.15741391
v -0.01015785 -0.16924594 0.16537438
v -0.01015785 -0.17127635 0.16954500
v -0.01015785 -0.17143973 0.16990768
v -0.21511063 0.05820566 0.07588722
v -0.18721330 -0.12758772 0.19114160
v 0.09523913 0.00266135 0.10946984
v 0.09211106 -0.12462380 0.18836722
v -0.01015785 -0.16282802 0.15344276
v -0.01015785 -0.16266466 0.15327956
v 0.07752402 0.03615130 0.06634918
v 0.04662629 0.03631466 0.07913306
v 0.05157376 0.03582457 0.07817200
v 0.07062948 0.03218385 0.07712028
v 0.07302342 0.03031681 0.07958639
v 0.07634301 0.03160039 0.07576029
v 0.07583231 0.03484437 0.06979448
v 0.08256724 0.03283731 0.07037474
v 0.08275876 0.03554451 0.06424573
v 0.09523913 0.02893987 0.07013901
v 0.09523913 0.02924326 0.06944995
v 0.09523913 0.03115698 0.06462653
v -0.17808442 -0.12282678 0.19114160
v -0.17173252 -0.12081972 0.19114160
v -0.16844484 -0.12028294 0.19114160
v -0.15695397 -0.11850926 0.19114160
v -0.15660285 -0.11846259 0.19114160
v 0.02054836 -0.06574217 0.17037913
v 0.02677259 -0.06574217 0.17059671
v 0.03251803 -0.06630228 0.17108633
v 0.06399031 -0.03115533 0.14818414
v 0.03915722 -0.01330180 0.13523706
v 0.07018262 -0.03131870 0.14809347
v 0.07637493 -0.02455069 0.14236339
v 0.05007356 0.00576529 0.11703136
v 0.06399031 -0.01418865 0.13436667
v 0.05297820 -0.00700056 0.12903552
v 0.04538145 0.00905595 0.11405753
v 0.04538145 0.01206654 0.11093863
v 0.04914791 0.01185650 0.11073916
v 0.04317902 0.01813440 0.10459201
v 0.04538145 0.03132034 0.08716605
v 0.03915722 0.03176377 0.08778257
v 0.07905613 0.01794770 0.09817288
v 0.04487074 0.03470434 0.08219756
v -0.16917900 -0.18021478 0.14341512
v -0.18354259 -0.18019144 0.19114160
v -0.21089730 -0.17578057 0.19114160
v -0.21131224 -0.17743757 0.18992667
v -0.21156760 -0.17122967 0.19114160
v -0.21175913 -0.17122967 0.19068827
v -0.23084676 -0.07167000 0.10780158
v -0.21172719 -0.16502177 0.19025306
v -0.23084676 -0.07815795 0.10887144
v -0.23084676 -0.08436585 0.10945170
v -0.23084676 -0.09057374 0.10995943
v -0.23084676 -0.02233359 0.09672222
v -0.21156760 -0.17050620 0.19114160
v 0.02830470 -0.15148578 0.18383392
v -0.03981073 -0.16607199 0.18785948
v -0.16531676 -0.18021478 0.13532772
v -0.18264886 -0.12488052 0.19114160
v -0.18169129 -0.12439041 0.19114160
v -0.18041452 -0.12380697 0.19114160
v 0.09211106 -0.06788926 0.17019779
v 0.09211106 -0.07073648 0.17175724
v 0.09211106 -0.07220678 0.17251884
v 0.09211106 -0.07384043 0.17328043
v 0.09211106 -0.07605754 0.17425963
v 0.09211106 -0.07815795 0.17518441
v 0.09211106 -0.08455255 0.17759612
v 0.09211106 -0.08917346 0.17917371
v 0.09211106 -0.09080712 0.17969957
v 0.09211106 -0.09675829 0.18153103
v 0.09211106 -0.10298952 0.18314488
v 0.09211106 -0.12158986 0.18766002
v 0.09523913 0.00646543 0.10524481
v 0.08528036 0.00541523 0.11046716
v 0.09207914 -0.00623041 0.12042226
v 0.09207914 -0.00781739 0.12207238
v 0.09207914 -0.02324377 0.13763064
v 0.09207914 -0.02641773 0.14071327
v 0.09207914 -0.03988372 0.15226410
v 0.09207914 -0.04298767 0.15480274
v 0.09207914 -0.04714182 0.15743205
v 0.08879148 -0.12462380 0.18856668
v 0.05157376 0.03321072 0.08275969
v 0.05942587 0.03006009 0.08535273
v 0.07634301 0.02326875 0.09046629
v 0.08081169 0.02450566 0.08647699
v 0.07634301 0.02992007 0.07884293
v 0.08256724 0.02917325 0.07737415
v 0.08256724 0.03078357 0.07430964
v 0.08569532 0.03038682 0.07347551
v 0.09523913 0.02578926 0.07697521
v -0.15615597 -0.11843925 0.19114160
v 0.02677259 -0.07211343 0.17413270
v 0.02058028 -0.07234680 0.17407829
v 0.03015602 -0.06886945 0.17268204
v 0.02677259 -0.06898614 0.17260951
v 0.02058028 -0.06924286 0.17246444
v 0.02058028 -0.06693240 0.17110445
v 0.03430551 -0.06877610 0.17273643
v 0.05482951 -0.06884611 0.17270018
v 0.07637493 -0.03934695 0.15320703
v 0.03647601 -0.06877610 0.17273643
v 0.08256724 -0.03937029 0.15295316
v 0.07672604 -0.03414259 0.14968919
v 0.07490665 -0.03150540 0.14794840
v 0.07672604 -0.02907826 0.14593562
v 0.07905613 -0.03169211 0.14782148
v 0.08145007 -0.02499412 0.14205513
v 0.07637493 -0.02149342 0.13951649
v 0.05380810 -0.00076933 0.12292464
v 0.05422305 0.00548524 0.11677751
v 0.06399031 -0.01092133 0.13126590
v 0.05776607 -0.00732729 0.12874538
v 0.08116280 0.00602201 0.11115622
v 0.05157376 0.03083025 0.08647699
v 0.08256724 0.01745760 0.09748382
v 0.08256724 0.01934798 0.09438305
v 0.05530830 0.03050352 0.08605993
v -0.16828525 -0.18021478 0.14210953
v -0.16665737 -0.18021478 0.13875489
v -0.13145057 -0.14047026 0.19114160
v -0.23084676 -0.04730519 0.10274243
v -0.23084676 -0.02634772 0.09797341
v -0.23084676 -0.02945166 0.09882567
v -0.23084676 -0.03474938 0.10007686
v 0.08259916 -0.07274355 0.17411456
v 0.08259916 -0.07815795 0.17674386
v 0.08259916 -0.08284888 0.17841213
v 0.08259916 -0.09057374 0.18066063
v 0.08259916 -0.09675829 0.18234702
v 0.08879148 -0.12158986 0.18785948
v 0.09523913 0.00982610 0.10134618
v 0.08106704 -0.00009253 0.11733963
v 0.08556764 -0.02546088 0.14161993
v 0.08879148 -0.04280097 0.15489340
v 0.07640685 -0.07237014 0.17436842
v 0.07640685 -0.09675829 0.18267341
v -0.13145057 -0.11899935 0.19114160
v 0.08879148 0.02347880 0.08468180
v 0.08275876 0.02588261 0.08317675
v 0.08879148 0.02522914 0.08158104
v 0.09523913 0.02291868 0.08261463
v 0.09332399 0.02457568 0.08047491
v -0.15312365 -0.11829922 0.19114160
v 0.05154184 -0.07815795 0.17725160
v 0.03251803 -0.07134328 0.17389695
v 0.05725536 -0.07138995 0.17400576
v 0.07018262 -0.07220678 0.17435028
v 0.07018262 -0.06912617 0.17251884
v 0.07640685 -0.06928953 0.17241003
v 0.08256724 -0.04247423 0.15498407
v 0.07637493 -0.01827279 0.13641571
v 0.07637493 0.00035089 0.11782922
v 0.07637493 0.00345484 0.11469219
v 0.09523913 0.01036287 0.10069339
v 0.09523913 0.01430698 0.09570677
v 0.09523913 0.01745760 0.09131854
v 0.09495187 0.01962803 0.08832657
v 0.07640685 -0.07815795 0.17725160
v 0.07640685 -0.08196204 0.17866599
v 0.07640685 -0.08506599 0.17962704
v 0.07640685 -0.09057374 0.18118649
v -0.13451480 -0.11876598 0.19114160
v 0.09523913 0.01958136 0.08825404
v -0.14689943 -0.11827588 0.19114160
v 0.05154184 -0.08165864 0.17875664
v -0.14536731 -0.11829922 0.19114160
v -0.14233500 -0.11839257 0.19114160
v -0.13853662 -0.11855594 0.19114160
f 1 2 5
f 1 5 28
f 1 28 66
f 1 66 102
f 1 102 176
f 1 176 129
f 1 129 80
f 1 80 43
f 1 43 25
f 1 25 24
f 1 24 23
f 1 23 22
f 1 22 21
f 1 21 20
f 1 20 19
f 1 19 18
f 1 18 17
f 1 17 16
f 1 16 15
f 1 15 14
f 1 14 13
f 1 13 12
f 1 12 11
f 1 11 7
f 1 7 3
f 1 3 4
f 1 4 2
f 2 4 6
f 2 6 29
f 2 29 67
f 2 67 101
f 2 101 64
f 2 64 63
f 2 63 62
f 2 62 61
f 2 61 60
f 2 60 59
f 2 59 58
f 2 58 57
f 2 57 56
f 2 56 55
f 2 55 45
f 2 45 26
f 2 26 5
f 3 7 4
f 4 8 9
f 4 9 10
f 4 10 6
f 4 7 11
f 4 11 12
f 4 12 13
f 4 13 14
f 4 14 15
f 4 15 16
f 4 16 17
f 4 17 18
f 4 18 19
f 4 19 20
f 4 20 21
f 4 21 22
f 4 22 23
f 4 23 24
f 4 24 25
f 4 25 8
f 5 26 27
f 5 27 28
f 6 10 30
f 6 30 31
f 6 31 32
f 6 32 33
f 6 33 34
f 6 34 35
f 6 35 36
f 6 36 37
f 6 37 68
f 6 68 29
f 8 38 9
f 8 25 38
f 9 38 39
f 9 39 40
f 9 40 41
f 9 41 42
f 9 42 10
f 10 42 30
f 25 43 44
f 25 44 38
f 26 45 27
f 27 46 47
f 27 47 48
f 27 48 49
f 27 49 50
f 27 50 51
f 27 51 52
f 27 52 53
f 27 53 98
f 27 98 162
f 27 162 227
f 27 227 226
f 27 226 225
f 27 225 223
f 27 223 297
f 27 297 300
f 27 300 299
f 27 299 298
f 27 298 228
f 27 228 163
f 27 163 99
f 27 99 54
f 27 54 28
f 27 45 55
f 27 55 56
f 27 56 57
f 27 57 58
f 27 58 59
f 27 59 60
f 27 60 61
f 27 61 62
f 27 62 63
f 27 63 64
f 27 64 65
f 27 65 46
f 28 54 99
f 28 99 66
f 29 68 67
f 30 42 69
f 30 69 31
f 31 69 32
f 32 70 71
f 32 71 33
f 32 69 72
f 32 72 73
f 32 73 70
f 33 71 74
f 33 74 75
f 33 75 34
f 34 75 35
f 35 75 74
f 35 74 76
f 35 76 36
f 36 76 77
f 36 77 37
f 37 77 126
f 37 126 125
f 37 125 193
f 37 193 192
f 37 192 191
f 37 191 266
f 37 266 317
f 37 317 339
f 37 339 332
f 37 332 331
f 37 331 330
f 37 330 307
f 37 307 248
f 37 248 178
f 37 178 112
f 37 112 68
f 38 44 39
f 39 44 78
f 39 78 40
f 40 78 41
f 41 79 73
f 41 73 72
f 41 72 69
f 41 69 42
f 41 78 79
f 43 80 81
f 43 81 82
f 43 82 83
f 43 83 84
f 43 84 85
f 43 85 86
f 43 86 87
f 43 87 88
f 43 88 89
f 43 89 90
f 43 90 91
f 43 91 92
f 43 92 93
f 43 93 44
f 44 93 78
f 46 65 100
f 46 100 169
f 46 169 232
f 46 232 295
f 46 295 294
f 46 294 217
f 46 217 155
f 46 155 94
f 46 94 47
f 47 94 48
f 48 94 49
f 49 94 50
f 50 94 51
f 51 94 52
f 52 94 95
f 52 95 96
f 52 96 53
f 53 96 97
f 53 97 98
f 64 100 65
f 64 101 100
f 66 99 103
f 66 103 104
f 66 104 105
f 66 105 106
f 66 106 107
f 66 107 108
f 66 108 109
f 66 109 110
f 66 110 102
f 67 111 101
f 67 68 111
f 68 112 113
f 68 113 114
f 68 114 115
f 68 115 111
f 70 116 117
f 70 117 118
f 70 118 119
f 70 119 71
f 70 73 116
f 71 119 118
f 71 118 117
f 71 117 120
f 71 120 74
f 73 79 121
f 73 121 122
f 73 122 123
f 73 123 116
f 74 124 125
f 74 125 126
f 74 126 127
f 74 127 77
f 74 77 76
f 74 120 117
f 74 117 124
f 77 127 126
f 78 93 128
f 78 128 79
f 79 128 121
f 80 129 130
f 80 130 131
f 80 131 132
f 80 132 133
f 80 133 134
f 80 134 135
f 80 135 81
f 81 135 134
f 81 134 136
f 81 136 82
f 82 137 138
f 82 138 83
f 82 136 139
f 82 139 140
f 82 140 141
f 82 141 142
f 82 142 137
f 83 138 84
f 84 138 143
f 84 143 85
f 85 143 144
f 85 144 145
f 85 145 86
f 86 145 87
f 87 145 146
f 87 146 147
f 87 147 148
f 87 148 88
f 88 148 149
f 88 149 89
f 89 149 90
f 90 149 150
f 90 150 91
f 91 150 151
f 91 151 92
f 92 152 93
f 92 151 153
f 92 153 152
f 93 152 154
f 93 154 128
f 94 155 218
f 94 218 156
f 94 156 157
f 94 157 158
f 94 158 95
f 95 158 97
f 95 97 96
f 97 158 159
f 97 159 160
f 97 160 161
f 97 161 98
f 98 161 162
f 99 163 164
f 99 164 165
f 99 165 166
f 99 166 167
f 99 167 103
f 100 168 169
f 100 101 111
f 100 111 170
f 100 170 114
f 100 114 171
f 100 171 172
f 100 172 173
f 100 173 174
f 100 174 175
f 100 175 168
f 102 110 176
f 103 167 166
f 103 166 165
f 103 165 164
f 103 164 229
f 103 229 221
f 103 221 219
f 103 219 156
f 103 156 218
f 103 218 296
f 103 296 313
f 103 313 338
f 103 338 344
f 103 344 343
f 103 343 342
f 103 342 340
f 103 340 319
f 103 319 267
f 103 267 198
f 103 198 197
f 103 197 196
f 103 196 195
f 103 195 194
f 103 194 235
f 103 235 234
f 103 234 233
f 103 233 177
f 103 177 110
f 103 110 109
f 103 109 108
f 103 108 107
f 103 107 106
f 103 106 105
f 103 105 104
f 110 177 176
f 111 115 170
f 112 178 179
f 112 179 113
f 113 179 168
f 113 168 175
f 113 175 174
f 113 174 173
f 113 173 172
f 113 172 180
f 113 180 181
f 113 181 114
f 114 181 180
f 114 180 171
f 114 170 115
f 116 123 182
f 116 182 124
f 116 124 117
f 121 183 184
f 121 184 122
f 121 128 183
f 122 185 186
f 122 186 187
f 122 187 188
f 122 188 182
f 122 182 123
f 122 184 185
f 124 182 189
f 124 189 190
f 124 190 191
f 124 191 192
f 124 192 193
f 124 193 125
f 128 154 183
f 129 176 194
f 129 194 195
f 129 195 196
f 129 196 197
f 129 197 198
f 129 198 199
f 129 199 130
f 130 199 200
f 130 200 201
f 130 201 202
f 130 202 132
f 130 132 131
f 132 203 134
f 132 134 133
f 132 202 203
f 134 203 136
f 136 203 202
f 136 202 204
f 136 204 205
f 136 205 139
f 137 143 138
f 137 142 143
f 139 205 140
f 140 206 141
f 140 205 207
f 140 207 208
f 140 208 206
f 141 206 142
f 142 206 209
f 142 209 146
f 142 146 144
f 142 144 143
f 144 146 145
f 146 209 210
f 146 210 147
f 147 210 148
f 148 210 211
f 148 211 212
f 148 212 149
f 149 213 214
f 149 214 150
f 149 212 215
f 149 215 213
f 150 214 151
f 151 214 153
f 152 153 154
f 153 214 213
f 153 213 216
f 153 216 154
f 154 216 183
f 155 217 218
f 156 219 157
f 157 219 220
f 157 220 158
f 158 220 159
f 159 220 221
f 159 221 222
f 159 222 160
f 160 223 161
f 160 222 224
f 160 224 223
f 161 223 225
f 161 225 226
f 161 226 227
f 161 227 162
f 163 228 164
f 164 228 224
f 164 224 229
f 168 179 230
f 168 230 231
f 168 231 218
f 168 218 169
f 169 218 232
f 171 180 172
f 176 177 233
f 176 233 234
f 176 234 235
f 176 235 194
f 178 236 237
f 178 237 238
f 178 238 239
f 178 239 240
f 178 240 241
f 178 241 242
f 178 242 243
f 178 243 244
f 178 244 245
f 178 245 246
f 178 246 247
f 178 247 179
f 178 248 249
f 178 249 250
f 178 250 251
f 178 251 252
f 178 252 253
f 178 253 254
f 178 254 255
f 178 255 256
f 178 256 236
f 179 247 306
f 179 306 257
f 179 257 231
f 179 231 230
f 182 188 189
f 183 258 184
f 183 216 258
f 184 258 259
f 184 259 186
f 184 186 185
f 186 260 261
f 186 261 262
f 186 262 187
f 186 259 260
f 187 262 263
f 187 263 264
f 187 264 188
f 188 264 189
f 189 264 265
f 189 265 266
f 189 266 191
f 189 191 190
f 198 267 268
f 198 268 269
f 198 269 270
f 198 270 271
f 198 271 272
f 198 272 273
f 198 273 199
f 199 273 270
f 199 270 200
f 200 270 274
f 200 274 201
f 201 274 202
f 202 275 276
f 202 276 204
f 202 274 277
f 202 277 275
f 204 276 278
f 204 278 279
f 204 279 280
f 204 280 281
f 204 281 205
f 205 281 282
f 205 282 283
f 205 283 284
f 205 284 207
f 206 211 210
f 206 210 209
f 206 208 285
f 206 285 286
f 206 286 211
f 207 284 287
f 207 287 288
f 207 288 208
f 208 288 285
f 211 286 289
f 211 289 215
f 211 215 212
f 213 290 216
f 213 215 290
f 215 289 249
f 215 249 291
f 215 291 292
f 215 292 260
f 215 260 259
f 215 259 293
f 215 293 290
f 216 290 293
f 216 293 258
f 217 294 218
f 218 294 295
f 218 295 232
f 218 231 257
f 218 257 296
f 219 221 220
f 221 229 222
f 222 229 224
f 223 224 297
f 224 228 298
f 224 298 299
f 224 299 300
f 224 300 297
f 236 256 301
f 236 301 237
f 237 301 238
f 238 301 302
f 238 302 239
f 239 302 240
f 240 302 241
f 241 302 242
f 242 302 303
f 242 303 243
f 243 303 244
f 244 303 245
f 245 303 304
f 245 304 305
f 245 305 246
f 246 305 247
f 247 305 306
f 248 307 249
f 249 307 291
f 249 289 250
f 250 289 251
f 251 289 252
f 252 289 308
f 252 308 309
f 252 309 253
f 253 309 254
f 254 309 283
f 254 283 255
f 255 278 310
f 255 310 256
f 255 283 282
f 255 282 278
f 256 310 311
f 256 311 301
f 257 306 312
f 257 312 313
f 257 313 296
f 258 293 259
f 260 292 261
f 261 292 314
f 261 314 315
f 261 315 262
f 262 315 263
f 263 315 316
f 263 316 317
f 263 317 265
f 263 265 264
f 265 317 318
f 265 318 266
f 266 318 317
f 267 319 268
f 268 320 321
f 268 321 274
f 268 274 270
f 268 270 269
f 268 319 320
f 270 273 271
f 271 273 272
f 274 320 322
f 274 322 277
f 274 321 320
f 275 322 323
f 275 323 311
f 275 311 324
f 275 324 276
f 275 277 322
f 276 324 325
f 276 325 326
f 276 326 278
f 278 282 279
f 278 326 310
f 279 282 280
f 280 282 281
f 283 308 327
f 283 327 284
f 283 309 308
f 284 327 287
f 285 288 286
f 286 288 287
f 286 287 327
f 286 327 328
f 286 328 329
f 286 329 289
f 289 329 328
f 289 328 308
f 291 307 330
f 291 330 331
f 291 331 332
f 291 332 333
f 291 333 292
f 292 333 314
f 301 311 334
f 301 334 302
f 302 334 335
f 302 335 303
f 303 335 336
f 303 336 304
f 304 336 337
f 304 337 305
f 305 337 312
f 305 312 306
f 308 328 327
f 310 326 325
f 310 325 311
f 311 325 324
f 311 323 334
f 312 337 338
f 312 338 313
f 314 316 315
f 314 333 317
f 314 317 316
f 317 333 339
f 319 340 341
f 319 341 320
f 320 341 334
f 320 334 322
f 322 334 323
f 332 339 333
f 334 341 335
f 335 341 336
f 336 341 342
f 336 342 343
f 336 343 337
f 337 343 344
f 337 344 338
f 340 342 341

