# https://github.com/mikedh/trimesh
v -0.17102669 0.22814532 0.12755010
v -0.16449998 0.23655619 0.12657824
v -0.17237622 0.23678029 0.12686332
v -0.17570092 0.22272232 0.12732982
v -0.17102669 0.22348424 0.12748531
v -0.15711447 0.23842362 0.12506211
v -0.15194952 0.24617716 0.12258709
v -0.15311500 0.25384106 0.12077292
v -0.16267200 0.25490175 0.12148563
v -0.17060957 0.24723786 0.12429757
v -0.16501524 0.21372881 0.12609878
v -0.17411832 0.24369722 0.12478999
v -0.18458316 0.23903614 0.12381812
v -0.18136887 0.21883808 0.12622836
v -0.18113577 0.21686608 0.12616357
v -0.17141929 0.21747859 0.12734277
v -0.18983399 0.23388204 0.12298879
v -0.13824583 0.24514634 0.11746857
v -0.15771561 0.22134789 0.12463449
v -0.13833171 0.25059920 0.11680769
v -0.14202446 0.25600727 0.11671699
v -0.14785190 0.25621643 0.11846635
v -0.15267334 0.26016042 0.11748152
v -0.17105123 0.25378131 0.12204283
v -0.16247570 0.26633039 0.11390504
v -0.17176279 0.26359649 0.11603020
v -0.17967585 0.25068885 0.12151155
v -0.18247301 0.24728267 0.12210763
v -0.17123525 0.21189127 0.12660415
v -0.16997163 0.20385389 0.12464745
v -0.16375160 0.20400327 0.12313133
v -0.15933501 0.21060649 0.12377924
v -0.19334272 0.22660656 0.12254821
v -0.19194413 0.21921156 0.12306654
v -0.18497574 0.21184644 0.12493254
v -0.17759024 0.21224980 0.12607286
v -0.18533152 0.25339287 0.11860889
v -0.20276477 0.24445911 0.11219456
v -0.20141525 0.23244786 0.11697615
v -0.19856901 0.22745811 0.11999543
v -0.13328944 0.24248713 0.11507129
v -0.13569403 0.24983730 0.11552483
v -0.14375429 0.22082503 0.11766294
v -0.13577991 0.25446852 0.11408646
v -0.14269922 0.25794939 0.11579695
v -0.15294324 0.26476175 0.11417717
v -0.17961451 0.25685881 0.11840157
v -0.15788737 0.26636025 0.11342559
v -0.16557958 0.26840695 0.11131339
v -0.17133341 0.26830239 0.11180580
v -0.17808097 0.26559835 0.11314050
v -0.18396974 0.19964098 0.12300175
v -0.17335768 0.20379412 0.12480295
v -0.17289148 0.18869041 0.12070813
v -0.16333448 0.19109564 0.11857002
v -0.15826769 0.20413773 0.12131718
v -0.15548278 0.20322643 0.11967148
v -0.14992524 0.20552709 0.11733898
v -0.19861809 0.22348424 0.12025459
v -0.20115761 0.21293703 0.11836269
v -0.19482718 0.20776799 0.12077292
v -0.18615350 0.20358497 0.12329979
v -0.19609082 0.25363191 0.11244076
v -0.18576092 0.25784482 0.11599133
v -0.20114535 0.25361697 0.10825524
v -0.20683784 0.24321916 0.10925302
v -0.20705866 0.23604826 0.11216863
v -0.20682558 0.23005755 0.11385321
v -0.20411428 0.22502299 0.11671699
v -0.20283837 0.22348424 0.11766294
v -0.13012422 0.23864770 0.11277767
v -0.13141240 0.24522103 0.11316642
v -0.14646559 0.20331606 0.11439746
v -0.12840666 0.23459913 0.11058773
v -0.13176818 0.25212304 0.11043222
v -0.13582898 0.25711279 0.10829411
v -0.13996339 0.25877104 0.11336080
v -0.14836717 0.26311841 0.11384026
v -0.15540916 0.26770480 0.11065252
v -0.16442636 0.27266468 0.10324038
v -0.17162785 0.27188783 0.10579317
v -0.17898883 0.26872068 0.10926598
v -0.18304962 0.26598678 0.11057476
v -0.18796921 0.19263440 0.11991768
v -0.18471812 0.18771934 0.11951598
v -0.18095175 0.19217129 0.12177071
v -0.18156515 0.18284911 0.11799985
v -0.17565184 0.18172865 0.11771477
v -0.17170145 0.17965207 0.11649669
v -0.16210766 0.18597143 0.11618570
v -0.15592444 0.19184261 0.11604316
v -0.20713228 0.21670175 0.11459184
v -0.20556194 0.20926194 0.11520087
v -0.20503440 0.20413773 0.11501945
v -0.20076503 0.20073155 0.11661333
v -0.19387026 0.20218067 0.12006022
v -0.19789426 0.25820335 0.10738703
v -0.20747578 0.24764122 0.10605232
v -0.20319415 0.25575330 0.10479538
v -0.21930242 0.23999224 0.09615221
v -0.21908159 0.23347868 0.09984531
v -0.21541338 0.22741328 0.10646699
v -0.21168381 0.22464950 0.11061364
v -0.20769662 0.22323026 0.11429379
v -0.12829625 0.24771592 0.10763325
v -0.13528917 0.21099491 0.10756845
v -0.13308088 0.21507336 0.10747774
v -0.12676271 0.22928071 0.10758141
v -0.15432956 0.18662877 0.11263513
v -0.14836717 0.18538880 0.10613009
v -0.14339851 0.18637479 0.10177610
v -0.12489793 0.23588391 0.10357730
v -0.12506969 0.24105295 0.10296826
v -0.12989112 0.25182423 0.10610416
v -0.13603754 0.25998115 0.09692970
v -0.13910461 0.26154979 0.10190568
v -0.14350892 0.26334251 0.10789240
v -0.13138786 0.25534993 0.09790157
v -0.14790097 0.26467211 0.11045814
v -0.15338490 0.26734626 0.10966769
v -0.15774015 0.27005028 0.10615599
v -0.16014473 0.27182808 0.10207414
v -0.16515018 0.27399429 0.09744803
v -0.16901471 0.27442754 0.09992306
v -0.18762570 0.27049847 0.10222964
v -0.17368892 0.27523426 0.09751283
v -0.18415378 0.27388971 0.09668350
v -0.19082771 0.26543403 0.10566358
v -0.19467996 0.19363533 0.11755927
v -0.18901201 0.18069783 0.11536932
v -0.18554008 0.18099662 0.11680769
v -0.18550328 0.17328789 0.11333488
v -0.18027699 0.17089760 0.11216863
v -0.17257250 0.17551387 0.11452704
v -0.17013111 0.17074820 0.11154664
v -0.16511338 0.17545411 0.11219456
v -0.15781375 0.18402931 0.11372362
v -0.21459140 0.21006867 0.10760732
v -0.20894799 0.20711067 0.11219456
v -0.21033431 0.20331606 0.11045814
v -0.20685010 0.19695188 0.11185764
v -0.20141525 0.26068330 0.10213893
v -0.20839590 0.25405021 0.10081719
v -0.21205187 0.24907540 0.09976757
v -0.22209959 0.23698944 0.09283489
v -0.21586730 0.24507163 0.09734437
v -0.21994037 0.24623691 0.08919362
v -0.22282341 0.23177558 0.09332731
v -0.21985449 0.21783715 0.10140031
v -0.21709412 0.22270738 0.10489905
v -0.12756015 0.24756651 0.10528779
v -0.12489793 0.21726944 0.10010449
v -0.13604981 0.20554203 0.10524892
v -0.12996473 0.20377918 0.09775903
v -0.12481205 0.22733859 0.10369393
v -0.15618206 0.17927860 0.10914936
v -0.15484482 0.17645504 0.10585796
v -0.15003565 0.17467727 0.09980644
v -0.14321449 0.18220671 0.09867907
v -0.13992658 0.18455219 0.09682604
v -0.12216210 0.23473359 0.09667054
v -0.12346254 0.23800532 0.09983236
v -0.12601435 0.24832843 0.09498596
v -0.12760923 0.25152546 0.09026916
v -0.13923956 0.26299889 0.09026916
v -0.13267602 0.25790457 0.09134469
v -0.13427090 0.25968236 0.08700367
v -0.14853893 0.26765999 0.09970278
v -0.15239116 0.26993078 0.09744803
v -0.15529876 0.27239578 0.09185007
v -0.16223034 0.27394946 0.09391043
v -0.16997163 0.27548822 0.09547838
v -0.17425326 0.27710169 0.09041170
v -0.19009163 0.27164881 0.09819961
v -0.19492534 0.26764505 0.09970278
v -0.17874345 0.27608579 0.09279601
v -0.18100081 0.27542847 0.09354759
v -0.18582226 0.27391958 0.09524513
v -0.19828684 0.26450777 0.10068761
v -0.19643432 0.17678371 0.11026377
v -0.19124485 0.17439342 0.11224638
v -0.18908563 0.16950823 0.11071731
v -0.17874345 0.16390596 0.10750366
v -0.17719765 0.16390596 0.10750366
v -0.17276880 0.16596760 0.10879949
v -0.16952997 0.16587797 0.10786649
v -0.16479440 0.16889571 0.10725746
v -0.15776469 0.18011520 0.11082098
v -0.22073781 0.21015830 0.10028590
v -0.21702052 0.20506397 0.10425113
v -0.21202733 0.20418254 0.10905864
v -0.21887302 0.19103589 0.09882161
v -0.21088637 0.19140937 0.10636333
v -0.21062875 0.17715719 0.10064873
v -0.20301013 0.17747094 0.10615599
v -0.20196733 0.26456754 0.09589305
v -0.21844364 0.25266084 0.08520248
v -0.21343817 0.24877660 0.09792749
v -0.20626122 0.26220711 0.09264052
v -0.22284795 0.23954407 0.08712030
v -0.22509306 0.23123777 0.08660196
v -0.22460233 0.22969902 0.08928433
v -0.22195237 0.24895587 0.07881404
v -0.22624628 0.21689596 0.08901220
v -0.22357179 0.20854485 0.09577642
v -0.12438266 0.21314618 0.09667054
v -0.12346254 0.22037684 0.09887345
v -0.12375698 0.20984457 0.09284785
v -0.13690859 0.18408908 0.09197964
v -0.13220984 0.18438786 0.08455456
v -0.12303315 0.22656175 0.09897712
v -0.15942089 0.16783503 0.10277389
v -0.15521288 0.17216744 0.10295530
v -0.15624341 0.16541484 0.09823849
v -0.15621888 0.15453898 0.08743129
v -0.14384017 0.16383127 0.08121132
v -0.13752200 0.17524495 0.08413989
v -0.12211303 0.23703425 0.09353464
v -0.12075125 0.22816026 0.09164274
v -0.12056723 0.23141704 0.08769046
v -0.12282459 0.24177004 0.08774229
v -0.12216210 0.24129198 0.08161303
v -0.12514330 0.24771592 0.08504697
v -0.12554815 0.24847781 0.08504697
v -0.12655415 0.25024067 0.08078370
v -0.12996473 0.25520055 0.08350494
v -0.15239116 0.27129025 0.08350494
v -0.14610981 0.26734626 0.08841612
v -0.15078401 0.26982619 0.09278306
v -0.13446720 0.25845733 0.07680551
v -0.13543639 0.25986163 0.08117245
v -0.14072403 0.26305866 0.07782921
v -0.15780149 0.27388971 0.08130203
v -0.15891789 0.27402417 0.08666675
v -0.17179960 0.27749011 0.08194995
v -0.17413058 0.27796816 0.08039495
v -0.17851037 0.27753492 0.08608363
v -0.19065597 0.27397935 0.09081340
v -0.19681464 0.27248540 0.08625209
v -0.19493760 0.27079726 0.09340505
v -0.20447006 0.26630050 0.08920658
v -0.20037245 0.26919875 0.08925841
v -0.18854583 0.27538365 0.08710733
v -0.20126803 0.17152506 0.10445846
v -0.19499894 0.16695359 0.10597458
v -0.19276611 0.16614687 0.10680390
v -0.18896295 0.16067907 0.10451029
v -0.18762570 0.15695915 0.10191864
v -0.18511070 0.14684519 0.09354759
v -0.17048689 0.15764636 0.10134847
v -0.16875707 0.15506184 0.09801820
v -0.22071329 0.19353076 0.09727958
v -0.21824734 0.19805739 0.10129665
v -0.22152299 0.18570253 0.09396226
v -0.21818600 0.18476134 0.09738324
v -0.20822416 0.16786490 0.09788862
v -0.22040657 0.18071278 0.09300335
v -0.20732858 0.26498584 0.08645942
v -0.21695918 0.25711279 0.08039495
v -0.21963367 0.25372154 0.07944900
v -0.22425881 0.23896143 0.08194995
v -0.22701918 0.22466444 0.08419172
v -0.22665114 0.23335916 0.07767371
v -0.22018573 0.25336301 0.07477106
v -0.22083597 0.25218279 0.06847334
v -0.22163341 0.25043488 0.06163137
v -0.22628308 0.23700436 0.07464148
v -0.22829508 0.20799209 0.08350494
v -0.22698238 0.20691646 0.08784596
v -0.22441830 0.20386881 0.09348280
v -0.22289703 0.19194719 0.09353464
v -0.12213756 0.21328062 0.09058016
v -0.12214984 0.22110887 0.09512850
v -0.12986659 0.18861570 0.08436018
v -0.12460348 0.19747476 0.08202769
v -0.12352388 0.20255415 0.08425652
v -0.13499473 0.18014507 0.08508584
v -0.13871203 0.17010582 0.08038199
v -0.13412368 0.17700781 0.07885292
v -0.13149828 0.18172865 0.07881404
v -0.12684859 0.19187250 0.08096511
v -0.16121207 0.16102266 0.09800524
v -0.15775241 0.15607772 0.09054128
v -0.15147104 0.15595822 0.08289590
v -0.15824315 0.15001234 0.08495626
v -0.15764201 0.12536236 0.05596861
v -0.15181456 0.12536236 0.04645724
v -0.12059176 0.23518176 0.08128907
v -0.12111930 0.21138333 0.08473597
v -0.11909503 0.20984457 0.07221828
v -0.11915637 0.22221438 0.07817909
v -0.11864110 0.22445529 0.07048187
v -0.12400234 0.24531067 0.07728496
v -0.12130332 0.23923035 0.07624830
v -0.12554815 0.24847781 0.08039495
v -0.12602661 0.24856745 0.07405836
v -0.12844347 0.25050959 0.06909534
v -0.15620660 0.27303816 0.07613168
v -0.13521556 0.25687375 0.06726822
v -0.13700673 0.25984669 0.07374736
v -0.16757931 0.27660867 0.07806246
v -0.17565184 0.27796816 0.08039495
v -0.17254798 0.27756480 0.07536714
v -0.18554008 0.27740046 0.07826979
v -0.18432552 0.27702698 0.08293477
v -0.19310962 0.27463669 0.08413989
v -0.19834818 0.27314274 0.07644268
v -0.20383211 0.26858624 0.08535797
v -0.19536698 0.27435283 0.07960450
v -0.20383211 0.16708806 0.10049323
v -0.20197959 0.16463800 0.10025998
v -0.19674104 0.16299466 0.10243697
v -0.19758754 0.15739240 0.09790157
v -0.19014069 0.15310480 0.09816074
v -0.18778518 0.12536236 0.07446006
v -0.17332088 0.14836901 0.09357351
v -0.17102669 0.15062485 0.09518034
v -0.16991029 0.15044559 0.09458426
v -0.16727261 0.15223830 0.09436397
v -0.23786434 0.12536236 0.02966331
v -0.22255353 0.17031495 0.08372522
v -0.22701918 0.19278380 0.08590222
v -0.21351179 0.15993209 0.08757383
v -0.20812600 0.16312912 0.09507668
v -0.20434738 0.16383127 0.09823849
v -0.20871489 0.26589714 0.08039495
v -0.21224815 0.26382056 0.07341044
v -0.21548698 0.26023511 0.07211461
v -0.22847910 0.21961492 0.07961746
v -0.24161845 0.18855595 -0.00483160
v -0.24268579 0.18134023 -0.00483160
v -0.21600226 0.25936863 0.06335482
v -0.21924108 0.25425937 0.06081500
v -0.23332507 0.21171200 -0.00483160
v -0.23896848 0.19917785 -0.00483160
v -0.22958324 0.20304714 0.07855488
v -0.22830734 0.20642345 0.08350494
v -0.22748538 0.19875954 0.08557827
v -0.22656526 0.19983519 0.08823470
v -0.12163456 0.20331606 0.07728496
v -0.12531505 0.17794899 0.04994301
v -0.12316810 0.18229634 0.04864718
v -0.12043228 0.20818630 0.07864558
v -0.14969214 0.12536236 0.04148126
v -0.13051681 0.17941304 0.07265886
v -0.12860295 0.18607601 0.07728496
v -0.12986659 0.17463244 0.06200716
v -0.12898327 0.17152506 0.05306595
v -0.16989801 0.13880780 0.08299956
v -0.16820499 0.12536236 0.06812347
v -0.14754519 0.12534741 0.01626446
v -0.14534916 0.12534741 0.01200119
v -0.12059176 0.23669064 0.07020975
v -0.11916863 0.22887735 0.06779951
v -0.11819944 0.20927687 0.06099642
v -0.11811357 0.21417700 0.06225337
v -0.12179406 0.18821234 0.05138138
v -0.12054269 0.19175298 0.04650907
v -0.11839573 0.22254305 0.06459882
v -0.12192900 0.23945444 0.06881025
v -0.12368336 0.24292038 0.06865475
v -0.12935131 0.24919490 0.06208491
v -0.15499204 0.27099147 0.06991171
v -0.16169053 0.27408392 0.07247745
v -0.15385110 0.26855635 0.06388611
v -0.13443039 0.25427429 0.06191646
v -0.17167691 0.27638458 0.07009312
v -0.18027699 0.27495040 0.06334186
v -0.18610442 0.27619037 0.06969142
v -0.19198093 0.27590653 0.07545785
v -0.19701094 0.27372537 0.07131120
v -0.20443326 0.26933319 0.07263295
v -0.20737764 0.26710723 0.07894362
v -0.19979585 0.15134195 0.09212219
v -0.19881439 0.14913091 0.09095595
v -0.19774704 0.14469392 0.08801442
v -0.20080185 0.12536236 0.07070216
v -0.21759712 0.12534741 0.01679575
v -0.17498936 0.12536236 0.07229603
v -0.17170145 0.13356408 0.07890475
v -0.16989801 0.14499271 0.08919362
v -0.24018305 0.12536236 0.02381914
v -0.23392623 0.12536236 0.03736053
v -0.22321601 0.12536236 0.05179604
v -0.21672608 0.12536236 0.05902676
v -0.20261755 0.13816541 0.08051158
v -0.20536564 0.15697409 0.09257573
v -0.20202867 0.15220843 0.09129285
v -0.20882530 0.26604654 0.07883996
v -0.21080049 0.26498584 0.06923788
v -0.21297199 0.26241626 0.06192941
v -0.24343415 0.17431871 -0.00483160
v -0.22954644 0.21262330 0.07572997
v -0.23057699 0.21570082 -0.00483160
v -0.24280847 0.12536236 0.01288235
v -0.12920409 0.16864175 0.04794744
v -0.12646827 0.17410956 0.04701444
v -0.13909234 0.13885262 0.02354701
v -0.12356068 0.18098168 0.04435800
v -0.14812181 0.12536236 0.03544270
v -0.13676137 0.15586858 0.05217183
v -0.13011195 0.16507124 0.04433208
v -0.14655147 0.12536236 0.02764182
v -0.21759712 0.12534741 0.01121074
v -0.14442904 0.14124293 -0.00483160
v -0.13546093 0.15432983 0.01505934
v -0.12549908 0.17629072 0.03038898
v -0.11902141 0.22447023 0.05918226
v -0.12121744 0.23592874 0.06282353
v -0.11813810 0.21849447 0.05984313
v -0.11837120 0.20796220 0.05560577
v -0.12157322 0.19151394 0.03506691
v -0.11968391 0.20071660 0.04251792
v -0.12673817 0.24456371 0.06072429
v -0.12399008 0.23930504 0.05871576
v -0.12909369 0.24604270 0.05627961
v -0.16409512 0.27293359 0.06536335
v -0.16290510 0.26931827 0.05857322
v -0.13650373 0.25330324 0.05659061
v -0.15469760 0.26459742 0.05633144
v -0.13428317 0.24929948 0.05289750
v -0.17054823 0.27456198 0.06457290
v -0.18103763 0.27442754 0.06179983
v -0.18630072 0.27297841 0.05920818
v -0.19418924 0.27212686 0.06179983
v -0.19280291 0.27421838 0.06786430
v -0.20248259 0.26960211 0.06172208
v -0.20896025 0.26600172 0.06313453
v -0.20123123 0.14166122 0.08398439
v -0.20756166 0.26630050 0.05913043
v -0.24138535 0.15476307 -0.00483160
v -0.20732858 0.26296903 0.05183492
v -0.20688692 0.26068330 0.04694965
v -0.21790384 0.22466444 -0.00483160
v -0.23833054 0.14119810 -0.00483160
v -0.14375429 0.15297034 -0.00483160
v -0.13077444 0.17811332 0.01446326
v -0.12563403 0.18576228 0.02345630
v -0.12346254 0.18580710 0.02865257
v -0.11905822 0.21806124 0.05013739
v -0.12213756 0.23056549 0.05164055
v -0.11920544 0.20742440 0.04539466
v -0.12064084 0.19717598 0.03804732
v -0.12614930 0.24032091 0.05384345
v -0.12552361 0.23524153 0.04819364
v -0.12974390 0.24121727 0.04710515
v -0.13247974 0.24441431 0.04729952
v -0.15677095 0.26010067 0.04837506
v -0.16873253 0.26864599 0.05418037
v -0.13700673 0.24804459 0.04797336
v -0.14101847 0.24684942 0.04229763
v -0.17432688 0.26972163 0.05388233
v -0.17701362 0.27308299 0.05957101
v -0.18935553 0.26594195 0.04736432
v -0.19425058 0.27002042 0.05560577
v -0.20245805 0.26758528 0.05507449
v -0.20547606 0.26556847 0.05441362
v -0.19783292 0.26658435 0.05038359
v -0.20584410 0.22450011 -0.00483160
v -0.14365614 0.15764636 -0.00483160
v -0.12843119 0.18420860 0.01819525
v -0.13104434 0.18795838 0.01446326
v -0.12661549 0.20188188 0.02353405
v -0.12511876 0.20581093 0.02685137
v -0.12260376 0.20918723 0.03327867
v -0.11996608 0.21753836 0.04562791
v -0.12308222 0.22917614 0.04693669
v -0.12056723 0.21386327 0.04157197
v -0.12542547 0.23020695 0.04275117
v -0.13378017 0.24108283 0.04129984
v -0.13186632 0.23625741 0.03818986
v -0.15937183 0.25871129 0.04503183
v -0.16360438 0.26261047 0.04819364
v -0.14055227 0.24072428 0.03447084
v -0.17152969 0.26426875 0.04694965
v -0.17722218 0.26281963 0.04428025
v -0.16702724 0.25570847 0.03852677
v -0.18114803 0.21822557 -0.00483160
v -0.14469895 0.17351199 -0.00483160
v -0.13133878 0.19680248 0.01555176
v -0.13211168 0.20866435 0.01810453
v -0.12838213 0.21803136 0.02848411
v -0.12650508 0.21729932 0.03108873
v -0.12298408 0.21861399 0.03799548
v -0.12616157 0.22721907 0.03874706
v -0.13781644 0.23746749 0.03269555
v -0.13119156 0.22932552 0.03276034
v -0.13457761 0.22895204 0.02847115
v -0.13635651 0.23328447 0.03029827
v -0.14080990 0.23565983 0.02847115
v -0.15077175 0.23670558 0.02533525
v -0.16733395 0.25215290 0.03470408
v -0.15239116 0.23164114 0.01956882
v -0.17005751 0.21404254 -0.00483160
v -0.14554546 0.17971184 -0.00483160
v -0.13577991 0.20923206 0.01415227
v -0.14647786 0.18437292 -0.00483160
v -0.13142466 0.21677644 0.02339151
v -0.12757242 0.22427602 0.03386180
v -0.13220984 0.22396229 0.02730491
v -0.14195086 0.22563551 0.01960770
v -0.14105528 0.21213030 0.01110707
v -0.14214715 0.21830026 0.01434664
v -0.14218395 0.23246280 0.02473917
v -0.14807273 0.23232834 0.02196610
v -0.15015833 0.22696511 0.01591459
v -0.14520195 0.22414156 0.01627742
v -0.14698085 0.21652248 0.00983716
v -0.15342170 0.20439169 -0.00223995
v -0.13975483 0.20752897 0.00930587
v -0.14488297 0.21622370 0.01105524
v -0.14352120 0.20758872 0.00650688
f 1 2 3
f 1 3 4
f 1 4 5
f 1 5 2
f 2 6 7
f 2 7 8
f 2 8 9
f 2 9 10
f 2 10 3
f 2 5 11
f 2 11 6
f 3 10 12
f 3 12 13
f 3 13 4
f 4 14 15
f 4 15 16
f 4 16 5
f 4 13 17
f 4 17 14
f 5 16 11
f 6 18 7
f 6 11 19
f 6 19 18
f 7 18 20
f 7 20 21
f 7 21 22
f 7 22 8
f 8 22 23
f 8 23 9
f 9 24 10
f 9 23 25
f 9 25 26
f 9 26 24
f 10 24 27
f 10 27 28
f 10 28 12
f 11 29 30
f 11 30 31
f 11 31 32
f 11 32 19
f 11 16 29
f 12 28 13
f 13 28 17
f 14 17 33
f 14 33 34
f 14 34 35
f 14 35 15
f 15 35 36
f 15 36 16
f 16 36 29
f 17 28 37
f 17 37 38
f 17 38 39
f 17 39 40
f 17 40 33
f 18 19 41
f 18 41 42
f 18 42 20
f 19 32 43
f 19 43 41
f 20 42 44
f 20 44 21
f 21 45 22
f 21 44 45
f 22 45 23
f 23 45 46
f 23 46 25
f 24 26 47
f 24 47 27
f 25 46 48
f 25 48 49
f 25 49 50
f 25 50 26
f 26 50 51
f 26 51 47
f 27 47 37
f 27 37 28
f 29 36 52
f 29 52 53
f 29 53 30
f 30 53 54
f 30 54 31
f 31 54 55
f 31 55 56
f 31 56 32
f 32 56 57
f 32 57 58
f 32 58 43
f 33 40 59
f 33 59 34
f 34 59 60
f 34 60 61
f 34 61 35
f 35 61 62
f 35 62 52
f 35 52 36
f 37 63 38
f 37 47 64
f 37 64 63
f 38 63 65
f 38 65 66
f 38 66 67
f 38 67 39
f 39 67 68
f 39 68 40
f 40 69 70
f 40 70 59
f 40 68 69
f 41 71 72
f 41 72 42
f 41 43 71
f 42 72 44
f 43 58 73
f 43 73 74
f 43 74 71
f 44 72 75
f 44 75 76
f 44 76 77
f 44 77 45
f 45 77 78
f 45 78 46
f 46 78 79
f 46 79 48
f 47 51 64
f 48 79 49
f 49 80 81
f 49 81 50
f 49 79 80
f 50 81 82
f 50 82 51
f 51 83 64
f 51 82 83
f 52 84 85
f 52 85 86
f 52 86 53
f 52 62 84
f 53 86 54
f 54 86 87
f 54 87 88
f 54 88 89
f 54 89 90
f 54 90 55
f 55 91 56
f 55 90 91
f 56 91 57
f 57 91 58
f 58 91 73
f 59 70 60
f 60 70 92
f 60 92 93
f 60 93 94
f 60 94 61
f 61 94 95
f 61 95 96
f 61 96 62
f 62 96 84
f 63 64 97
f 63 97 65
f 64 83 97
f 65 98 66
f 65 97 99
f 65 99 98
f 66 98 100
f 66 100 101
f 66 101 67
f 67 101 102
f 67 102 68
f 68 102 103
f 68 103 104
f 68 104 69
f 69 104 70
f 70 104 92
f 71 74 105
f 71 105 72
f 72 105 75
f 73 106 107
f 73 107 108
f 73 108 74
f 73 91 109
f 73 109 110
f 73 110 111
f 73 111 106
f 74 108 112
f 74 112 113
f 74 113 105
f 75 114 76
f 75 105 114
f 76 115 116
f 76 116 117
f 76 117 77
f 76 114 118
f 76 118 115
f 77 117 119
f 77 119 78
f 78 119 79
f 79 119 120
f 79 120 121
f 79 121 80
f 80 121 122
f 80 122 123
f 80 123 124
f 80 124 81
f 81 125 82
f 81 124 126
f 81 126 127
f 81 127 125
f 82 125 83
f 83 128 97
f 83 125 128
f 84 96 129
f 84 129 130
f 84 130 85
f 85 130 131
f 85 131 86
f 86 131 87
f 87 131 132
f 87 132 88
f 88 132 133
f 88 133 134
f 88 134 89
f 89 134 135
f 89 135 136
f 89 136 90
f 90 136 137
f 90 137 91
f 91 137 109
f 92 138 139
f 92 139 93
f 92 104 138
f 93 139 94
f 94 139 140
f 94 140 141
f 94 141 95
f 95 141 129
f 95 129 96
f 97 128 142
f 97 142 99
f 98 99 143
f 98 143 144
f 98 144 100
f 99 142 143
f 100 145 101
f 100 144 146
f 100 146 147
f 100 147 145
f 101 145 148
f 101 148 149
f 101 149 150
f 101 150 102
f 102 150 103
f 103 150 138
f 103 138 104
f 105 113 151
f 105 151 114
f 106 152 107
f 106 111 153
f 106 153 154
f 106 154 152
f 107 152 108
f 108 155 112
f 108 152 155
f 109 137 156
f 109 156 110
f 110 156 157
f 110 157 158
f 110 158 159
f 110 159 111
f 111 159 160
f 111 160 154
f 111 154 153
f 112 155 161
f 112 161 162
f 112 162 113
f 113 162 151
f 114 151 163
f 114 163 164
f 114 164 118
f 115 165 116
f 115 118 166
f 115 166 167
f 115 167 165
f 116 165 168
f 116 168 117
f 117 168 120
f 117 120 119
f 118 164 166
f 120 168 169
f 120 169 121
f 121 169 170
f 121 170 122
f 122 170 171
f 122 171 123
f 123 171 172
f 123 172 124
f 124 172 173
f 124 173 126
f 125 127 174
f 125 174 175
f 125 175 128
f 126 173 176
f 126 176 127
f 127 176 177
f 127 177 178
f 127 178 174
f 128 175 179
f 128 179 142
f 129 141 180
f 129 180 181
f 129 181 130
f 130 181 131
f 131 181 182
f 131 182 132
f 132 182 133
f 133 182 183
f 133 183 184
f 133 184 185
f 133 185 135
f 133 135 134
f 135 185 186
f 135 186 136
f 136 186 187
f 136 187 137
f 137 187 188
f 137 188 156
f 138 150 189
f 138 189 190
f 138 190 191
f 138 191 140
f 138 140 139
f 140 191 192
f 140 192 141
f 141 192 193
f 141 193 194
f 141 194 195
f 141 195 180
f 142 179 196
f 142 196 143
f 143 197 198
f 143 198 144
f 143 196 199
f 143 199 197
f 144 198 146
f 145 147 200
f 145 200 201
f 145 201 202
f 145 202 148
f 146 198 147
f 147 198 197
f 147 197 203
f 147 203 200
f 148 202 204
f 148 204 205
f 148 205 149
f 149 205 189
f 149 189 150
f 151 162 163
f 152 154 206
f 152 206 207
f 152 207 155
f 154 208 206
f 154 160 209
f 154 209 210
f 154 210 208
f 155 211 161
f 155 207 211
f 156 188 187
f 156 187 212
f 156 212 213
f 156 213 157
f 157 213 158
f 158 213 214
f 158 214 215
f 158 215 216
f 158 216 159
f 159 216 160
f 160 216 217
f 160 217 209
f 161 218 162
f 161 211 219
f 161 219 220
f 161 220 218
f 162 218 163
f 163 221 222
f 163 222 223
f 163 223 224
f 163 224 164
f 163 218 221
f 164 224 225
f 164 225 226
f 164 226 166
f 165 167 227
f 165 227 228
f 165 228 229
f 165 229 168
f 166 226 167
f 167 226 230
f 167 230 231
f 167 231 232
f 167 232 227
f 168 229 170
f 168 170 169
f 170 229 227
f 170 227 233
f 170 233 234
f 170 234 171
f 171 234 173
f 171 173 172
f 173 235 236
f 173 236 237
f 173 237 176
f 173 234 235
f 174 178 238
f 174 238 239
f 174 239 240
f 174 240 175
f 175 241 196
f 175 196 179
f 175 240 242
f 175 242 241
f 176 237 243
f 176 243 177
f 177 243 238
f 177 238 178
f 180 195 244
f 180 244 245
f 180 245 181
f 181 245 246
f 181 246 182
f 182 246 247
f 182 247 183
f 183 247 248
f 183 248 184
f 184 248 249
f 184 249 250
f 184 250 185
f 185 250 186
f 186 250 251
f 186 251 212
f 186 212 187
f 189 205 252
f 189 252 190
f 190 252 253
f 190 253 191
f 191 253 192
f 192 253 252
f 192 252 254
f 192 254 255
f 192 255 193
f 193 255 194
f 194 256 195
f 194 255 257
f 194 257 256
f 195 256 244
f 196 241 199
f 197 199 258
f 197 258 259
f 197 259 260
f 197 260 203
f 199 241 258
f 200 261 201
f 200 203 261
f 201 262 202
f 201 261 263
f 201 263 262
f 202 262 204
f 203 260 264
f 203 264 265
f 203 265 266
f 203 266 267
f 203 267 261
f 204 268 269
f 204 269 205
f 204 262 268
f 205 269 270
f 205 270 271
f 205 271 252
f 206 208 207
f 207 208 272
f 207 272 273
f 207 273 211
f 208 210 274
f 208 274 275
f 208 275 276
f 208 276 272
f 209 217 277
f 209 277 210
f 210 277 278
f 210 278 279
f 210 279 280
f 210 280 281
f 210 281 274
f 211 273 219
f 212 251 282
f 212 282 214
f 212 214 213
f 214 282 283
f 214 283 215
f 215 284 216
f 215 283 285
f 215 285 284
f 216 284 286
f 216 286 287
f 216 287 278
f 216 278 217
f 217 278 277
f 218 220 288
f 218 288 222
f 218 222 221
f 219 273 289
f 219 289 290
f 219 290 291
f 219 291 220
f 220 291 292
f 220 292 288
f 222 293 223
f 222 288 294
f 222 294 293
f 223 295 224
f 223 293 295
f 224 295 225
f 225 295 296
f 225 296 226
f 226 296 297
f 226 297 230
f 227 298 233
f 227 229 228
f 227 232 298
f 230 299 300
f 230 300 231
f 230 297 299
f 231 300 232
f 232 300 298
f 233 301 234
f 233 298 301
f 234 301 235
f 235 301 236
f 236 302 237
f 236 301 303
f 236 303 302
f 237 302 304
f 237 304 305
f 237 305 243
f 238 243 306
f 238 306 239
f 239 307 308
f 239 308 242
f 239 242 240
f 239 306 309
f 239 309 307
f 241 242 308
f 241 308 258
f 243 305 304
f 243 304 306
f 244 256 310
f 244 310 245
f 245 310 311
f 245 311 312
f 245 312 246
f 246 312 313
f 246 313 247
f 247 313 314
f 247 314 248
f 248 314 315
f 248 315 249
f 249 315 316
f 249 316 250
f 250 316 317
f 250 317 318
f 250 318 251
f 251 318 319
f 251 319 282
f 252 271 254
f 254 320 321
f 254 321 257
f 254 257 255
f 254 271 322
f 254 322 320
f 256 257 323
f 256 323 324
f 256 324 325
f 256 325 310
f 257 321 323
f 258 308 326
f 258 326 259
f 259 326 327
f 259 327 328
f 259 328 260
f 260 328 264
f 261 267 263
f 262 263 329
f 262 329 268
f 263 267 330
f 263 330 331
f 263 331 329
f 264 328 332
f 264 332 265
f 265 332 333
f 265 333 266
f 266 333 334
f 266 334 335
f 266 335 267
f 267 335 330
f 268 336 337
f 268 337 269
f 268 329 336
f 269 337 338
f 269 338 339
f 269 339 270
f 270 339 322
f 270 322 271
f 272 276 289
f 272 289 273
f 274 281 275
f 275 340 276
f 275 281 341
f 275 341 342
f 275 342 340
f 276 340 343
f 276 343 289
f 278 287 344
f 278 344 279
f 279 344 345
f 279 345 280
f 280 345 346
f 280 346 281
f 281 346 347
f 281 347 348
f 281 348 341
f 282 319 283
f 283 319 285
f 284 285 286
f 285 349 350
f 285 350 286
f 285 319 349
f 286 350 351
f 286 351 287
f 287 351 352
f 287 352 344
f 288 353 294
f 288 292 354
f 288 354 353
f 289 343 290
f 290 355 356
f 290 356 291
f 290 343 357
f 290 357 358
f 290 358 355
f 291 356 292
f 292 356 359
f 292 359 354
f 293 294 360
f 293 360 361
f 293 361 296
f 293 296 295
f 294 353 360
f 296 361 297
f 297 361 362
f 297 362 299
f 298 300 363
f 298 363 364
f 298 364 301
f 299 365 363
f 299 363 300
f 299 362 366
f 299 366 365
f 301 364 303
f 302 303 304
f 303 364 367
f 303 367 368
f 303 368 369
f 303 369 304
f 304 369 370
f 304 370 306
f 306 370 309
f 307 309 370
f 307 370 371
f 307 371 372
f 307 372 373
f 307 373 308
f 308 373 326
f 310 325 311
f 311 325 312
f 312 325 313
f 313 325 374
f 313 374 375
f 313 375 314
f 314 375 376
f 314 376 377
f 314 377 315
f 315 377 378
f 315 378 351
f 315 351 379
f 315 379 316
f 316 379 317
f 317 379 318
f 318 379 380
f 318 380 381
f 318 381 319
f 319 381 349
f 320 382 378
f 320 378 383
f 320 383 321
f 320 322 382
f 321 383 384
f 321 384 323
f 322 339 338
f 322 338 382
f 323 384 385
f 323 385 324
f 324 385 386
f 324 386 387
f 324 387 325
f 325 387 388
f 325 388 374
f 326 373 389
f 326 389 327
f 327 389 373
f 327 373 390
f 327 390 391
f 327 391 332
f 327 332 328
f 329 331 392
f 329 392 393
f 329 393 336
f 330 335 334
f 330 334 394
f 330 394 434
f 330 434 459
f 330 459 478
f 330 478 494
f 330 494 497
f 330 497 495
f 330 495 479
f 330 479 460
f 330 460 436
f 330 436 405
f 330 405 435
f 330 435 431
f 330 431 392
f 330 392 331
f 332 391 394
f 332 394 333
f 333 394 334
f 336 338 337
f 336 393 392
f 336 392 395
f 336 395 382
f 336 382 338
f 340 342 357
f 340 357 343
f 341 348 396
f 341 396 397
f 341 397 342
f 342 397 398
f 342 398 399
f 342 399 358
f 342 358 357
f 344 352 400
f 344 400 401
f 344 401 345
f 345 347 346
f 345 401 347
f 347 401 348
f 348 401 400
f 348 400 402
f 348 402 396
f 349 380 350
f 349 381 380
f 350 380 379
f 350 379 351
f 351 378 404
f 351 404 352
f 352 403 400
f 352 404 405
f 352 405 406
f 352 406 407
f 352 407 398
f 352 398 403
f 353 354 408
f 353 408 409
f 353 409 360
f 354 359 408
f 355 410 356
f 355 358 411
f 355 411 410
f 356 410 359
f 358 399 407
f 358 407 412
f 358 412 413
f 358 413 411
f 359 410 408
f 360 409 361
f 361 414 362
f 361 409 415
f 361 415 414
f 362 414 416
f 362 416 366
f 363 365 417
f 363 417 364
f 364 417 367
f 365 418 417
f 365 366 419
f 365 419 420
f 365 420 418
f 366 416 421
f 366 421 419
f 367 417 422
f 367 422 368
f 368 422 423
f 368 423 369
f 369 423 424
f 369 424 425
f 369 425 426
f 369 426 370
f 370 426 371
f 371 427 428
f 371 428 372
f 371 426 427
f 372 428 390
f 372 390 373
f 374 388 386
f 374 386 429
f 374 429 375
f 375 429 376
f 376 429 386
f 376 386 377
f 377 386 385
f 377 385 378
f 378 385 384
f 378 384 383
f 378 382 395
f 378 395 404
f 386 388 387
f 390 428 391
f 391 428 430
f 391 430 394
f 392 431 395
f 394 430 432
f 394 432 433
f 394 433 434
f 395 431 435
f 395 435 404
f 396 402 397
f 397 402 398
f 398 402 403
f 398 407 399
f 400 403 402
f 404 435 405
f 405 436 437
f 405 437 438
f 405 438 439
f 405 439 406
f 406 439 407
f 407 439 412
f 408 410 440
f 408 440 409
f 409 441 415
f 409 440 441
f 410 411 442
f 410 442 440
f 411 413 442
f 412 443 413
f 412 439 443
f 413 443 442
f 414 415 444
f 414 444 416
f 415 441 445
f 415 445 444
f 416 444 446
f 416 446 447
f 416 447 421
f 417 418 422
f 418 420 448
f 418 448 449
f 418 449 422
f 419 421 447
f 419 447 450
f 419 450 420
f 420 450 451
f 420 451 448
f 422 449 452
f 422 452 453
f 422 453 423
f 423 453 424
f 424 453 452
f 424 452 454
f 424 454 455
f 424 455 425
f 425 455 456
f 425 456 427
f 425 427 426
f 427 456 430
f 427 430 428
f 430 456 457
f 430 457 432
f 432 457 433
f 433 457 456
f 433 456 434
f 434 456 458
f 434 458 454
f 434 454 459
f 436 460 437
f 437 461 438
f 437 460 462
f 437 462 461
f 438 461 463
f 438 463 464
f 438 464 439
f 439 464 465
f 439 465 443
f 440 466 441
f 440 442 466
f 441 467 445
f 441 466 467
f 442 443 468
f 442 468 466
f 443 465 468
f 444 445 446
f 445 467 469
f 445 469 446
f 446 470 447
f 446 469 471
f 446 471 470
f 447 470 451
f 447 451 450
f 448 472 473
f 448 473 449
f 448 451 474
f 448 474 472
f 449 473 475
f 449 475 452
f 451 470 474
f 452 475 476
f 452 476 454
f 454 458 455
f 454 476 459
f 455 458 456
f 459 476 475
f 459 475 477
f 459 477 478
f 460 479 462
f 461 462 463
f 462 480 463
f 462 479 480
f 463 480 481
f 463 481 464
f 464 481 482
f 464 482 483
f 464 483 484
f 464 484 465
f 465 484 468
f 466 468 484
f 466 484 467
f 467 484 469
f 469 484 485
f 469 485 471
f 470 471 486
f 470 486 474
f 471 485 487
f 471 487 488
f 471 488 489
f 471 489 486
f 472 475 473
f 472 474 490
f 472 490 477
f 472 477 475
f 474 486 490
f 477 490 491
f 477 491 492
f 477 492 478
f 478 492 493
f 478 493 494
f 479 495 480
f 480 496 481
f 480 495 497
f 480 497 496
f 481 496 498
f 481 498 482
f 482 498 499
f 482 499 483
f 483 499 484
f 484 499 485
f 485 499 487
f 486 489 490
f 487 499 500
f 487 500 488
f 488 501 489
f 488 500 502
f 488 502 503
f 488 503 501
f 489 501 504
f 489 504 490
f 490 504 505
f 490 505 491
f 491 505 493
f 491 493 492
f 493 505 494
f 494 505 506
f 494 506 507
f 494 507 508
f 494 508 509
f 494 509 497
f 496 502 500
f 496 500 498
f 496 497 510
f 496 510 502
f 497 509 510
f 498 500 499
f 501 503 507
f 501 507 504
f 502 511 503
f 502 510 512
f 502 512 511
f 503 511 507
f 504 507 506
f 504 506 505
f 507 511 508
f 508 511 509
f 509 511 512
f 509 512 510

