# https://github.com/mikedh/trimesh
v -0.20270138 -0.17318866 -0.18277222
v -0.20270138 -0.17318866 -0.19338027
v -0.21477085 -0.17318866 -0.16852276
v -0.14122954 -0.17319901 -0.19901070
v -0.20318866 -0.17318866 -0.19324768
v -0.14122954 -0.17319901 -0.20887414
v -0.15543553 -0.17319901 -0.20655873
v -0.15704730 -0.17319901 -0.20627313
v -0.15856535 -0.17319901 -0.20598753
v -0.15938997 -0.17319901 -0.20580393
v -0.15978353 -0.17319901 -0.20571211
v -0.23128204 -0.17318866 -0.16852276
v -0.17190924 -0.21366155 -0.10468069
v -0.03981975 -0.21438650 -0.19411467
v -0.20365719 -0.17318866 -0.19311507
v -0.14122954 -0.18367970 -0.20412091
v -0.15762828 -0.17431750 -0.20576312
v -0.15545427 -0.17360291 -0.20640574
v -0.03981975 -0.23044931 -0.19411467
v -0.04845954 -0.22903048 -0.19411467
v -0.04913422 -0.22888550 -0.19411467
v -0.07949532 -0.22200883 -0.19411467
v -0.15706603 -0.17373756 -0.20607932
v -0.15856535 -0.17330257 -0.20595692
v -0.15856535 -0.17407930 -0.20567132
v -0.16010214 -0.17356149 -0.20548772
v -0.18954491 -0.17319901 -0.19725628
v -0.22991391 -0.17318866 -0.17251099
v -0.22961405 -0.17372720 -0.17254157
v -0.23060735 -0.17435893 -0.16852276
v -0.20088348 -0.21367190 -0.14621527
v -0.19893435 -0.21367190 -0.14151304
v -0.19807226 -0.21366155 -0.13957503
v -0.19756624 -0.21366155 -0.13859583
v -0.19706023 -0.21366155 -0.13763703
v -0.19659168 -0.21366155 -0.13678023
v -0.17846874 -0.21366155 -0.10468069
v -0.11720305 -0.26714212 -0.10468069
v -0.03981975 -0.27528226 -0.14145185
v -0.03981975 -0.27467123 -0.14179864
v -0.20506280 -0.17360291 -0.19253368
v -0.20508154 -0.17318866 -0.19268667
v -0.19042575 -0.17449357 -0.19652188
v -0.19018211 -0.18672450 -0.19179926
v -0.14122954 -0.18447716 -0.20375372
v -0.14522146 -0.18207446 -0.20421273
v -0.15706603 -0.17508388 -0.20549793
v -0.15774072 -0.17747622 -0.20422292
v -0.15856535 -0.17516673 -0.20516133
v -0.03981975 -0.24374696 -0.18537324
v -0.07484745 -0.25479726 -0.17465299
v -0.04847828 -0.23215813 -0.19210527
v -0.04894681 -0.23013862 -0.19334967
v -0.09343894 -0.25049934 -0.17487738
v -0.09439475 -0.25039578 -0.17480598
v -0.09542552 -0.25024044 -0.17472439
v -0.11283630 -0.21318516 -0.19339048
v -0.11253644 -0.21190095 -0.19411467
v -0.14122954 -0.18588562 -0.20302951
v -0.19012590 -0.17890541 -0.19487968
v -0.22938916 -0.17318866 -0.17365339
v -0.22753376 -0.17588132 -0.17472439
v -0.22893937 -0.17567420 -0.17121557
v -0.22592201 -0.17891576 -0.17456120
v -0.22440394 -0.18482928 -0.16852276
v -0.22925798 -0.17618166 -0.16935917
v -0.20123955 -0.21367190 -0.14764327
v -0.19053821 -0.22422510 -0.13833063
v -0.19040700 -0.22409048 -0.13747383
v -0.15983977 -0.24927728 -0.10468069
v -0.16064564 -0.24793096 -0.10468069
v -0.17820635 -0.21420009 -0.10468069
v -0.11656584 -0.26820883 -0.10468069
v -0.03981975 -0.27593472 -0.14115604
v -0.20596238 -0.17448322 -0.19187066
v -0.19108171 -0.18756337 -0.19116686
v -0.19213122 -0.18858866 -0.19040186
v -0.20652463 -0.17349935 -0.19203386
v -0.20654338 -0.17318866 -0.19213586
v -0.18961988 -0.18752194 -0.19156466
v -0.19108171 -0.18885793 -0.19056506
v -0.14304745 -0.18561636 -0.20286631
v -0.15545427 -0.18731481 -0.19983690
v -0.14613979 -0.18192948 -0.20412091
v -0.15236194 -0.17923680 -0.20432492
v -0.15779696 -0.18059349 -0.20269291
v -0.03981975 -0.25665106 -0.17638700
v -0.07173637 -0.25694104 -0.17349019
v -0.07327317 -0.25579148 -0.17414298
v -0.07327317 -0.25681677 -0.17343919
v -0.07484745 -0.25579148 -0.17396958
v -0.09499447 -0.25225993 -0.17351059
v -0.09493825 -0.25100681 -0.17434700
v -0.09621266 -0.25212530 -0.17338819
v -0.15856535 -0.20569745 -0.18894325
v -0.15770325 -0.20383330 -0.19026925
v -0.15796563 -0.20086101 -0.19190126
v -0.15545427 -0.19035961 -0.19828649
v -0.15236194 -0.18861972 -0.19972470
v -0.22914552 -0.17318866 -0.17405119
v -0.22622185 -0.17788012 -0.17511198
v -0.22775866 -0.17485603 -0.17505079
v -0.22485372 -0.17826331 -0.17681540
v -0.22459135 -0.17926787 -0.17648900
v -0.22489123 -0.17979605 -0.17555059
v -0.22459135 -0.18076954 -0.17502018
v -0.22477877 -0.18112168 -0.17400018
v -0.22560338 -0.17975463 -0.17402058
v -0.22462883 -0.18399040 -0.16935917
v -0.22444141 -0.18211589 -0.17319438
v -0.22429149 -0.18499497 -0.16852276
v -0.22294210 -0.18682806 -0.16852276
v -0.20138947 -0.21367190 -0.15011167
v -0.19063191 -0.22431831 -0.13989124
v -0.16242608 -0.25036471 -0.13289401
v -0.15914633 -0.24982618 -0.10468069
v -0.11592863 -0.27008334 -0.10468069
v -0.03981975 -0.27806815 -0.14062564
v -0.03981975 -0.27721891 -0.14080925
v -0.03981975 -0.27672181 -0.14093164
v -0.20716183 -0.17735193 -0.19021826
v -0.20779905 -0.17630593 -0.19045286
v -0.19190633 -0.19148846 -0.18874945
v -0.19213122 -0.19168522 -0.18853524
v -0.19646049 -0.18829867 -0.18870865
v -0.20718058 -0.18045887 -0.18864746
v -0.20785527 -0.17941287 -0.18894325
v -0.20828632 -0.17838758 -0.18930025
v -0.19108171 -0.18963466 -0.19011626
v -0.20699316 -0.17391361 -0.19168706
v -0.20729304 -0.17318866 -0.19179926
v -0.15663499 -0.19013176 -0.19816409
v -0.19014463 -0.18984178 -0.19023866
v -0.15236194 -0.18756337 -0.20025511
v -0.15545427 -0.18911683 -0.19892909
v -0.03981975 -0.25799740 -0.17544859
v -0.06706976 -0.25986155 -0.17181738
v -0.07576578 -0.25659928 -0.17325558
v -0.06862530 -0.25975799 -0.17173577
v -0.06946866 -0.25967514 -0.17168477
v -0.09437600 -0.25660963 -0.17017518
v -0.11778403 -0.26134252 -0.15935293
v -0.19809099 -0.20231091 -0.17943681
v -0.19297458 -0.20057102 -0.18240501
v -0.15955864 -0.20551105 -0.18881066
v -0.15856535 -0.20463076 -0.18959606
v -0.15644756 -0.19311441 -0.19654228
v -0.22832090 -0.17318866 -0.17525478
v -0.22809601 -0.17318866 -0.17555059
v -0.22496620 -0.17318866 -0.17957961
v -0.22447891 -0.17446251 -0.17947760
v -0.22442270 -0.17743480 -0.17784561
v -0.22410407 -0.17826331 -0.17759059
v -0.22359807 -0.17973392 -0.17705000
v -0.22421654 -0.18030351 -0.17605039
v -0.22299833 -0.18381435 -0.17341879
v -0.22423527 -0.18188806 -0.17400018
v -0.20586868 -0.20388510 -0.17479579
v -0.20613107 -0.20416471 -0.17400018
v -0.20725554 -0.20362618 -0.17283738
v -0.20896100 -0.20232126 -0.17170517
v -0.22178015 -0.18602026 -0.17235798
v -0.21668247 -0.19481287 -0.16852276
v -0.20137074 -0.21370297 -0.15036669
v -0.18755832 -0.22742524 -0.14454245
v -0.18909511 -0.22586141 -0.14144164
v -0.18982604 -0.22508468 -0.13989124
v -0.16242608 -0.25036471 -0.13290421
v -0.15787191 -0.25354414 -0.13423022
v -0.15348642 -0.25374090 -0.10468069
v -0.17953699 -0.23491293 -0.14361425
v -0.11609731 -0.27097399 -0.10468069
v -0.03981975 -0.27833740 -0.14062564
v -0.20824885 -0.17678234 -0.19007546
v -0.20882982 -0.17575705 -0.19022845
v -0.19198128 -0.19614883 -0.18567924
v -0.19265599 -0.19872760 -0.18378203
v -0.19355557 -0.19774373 -0.18413904
v -0.19659168 -0.20078852 -0.18100761
v -0.20294502 -0.20396795 -0.17640739
v -0.20397580 -0.20362618 -0.17619319
v -0.20273886 -0.19144703 -0.18407782
v -0.20146444 -0.18700413 -0.18730104
v -0.20888605 -0.17899861 -0.18870865
v -0.20421944 -0.20070567 -0.17784561
v -0.20941082 -0.17796297 -0.18902486
v -0.20774282 -0.17318866 -0.19158506
v -0.03981975 -0.25928158 -0.17451019
v -0.06706976 -0.26063828 -0.17120537
v -0.07484745 -0.25746923 -0.17268437
v -0.09113373 -0.26121825 -0.16703355
v -0.06862530 -0.26052437 -0.17109317
v -0.07018084 -0.26130109 -0.17021597
v -0.07108042 -0.26122860 -0.17014457
v -0.09216451 -0.26109396 -0.16693156
v -0.09343894 -0.26089720 -0.16674795
v -0.11671577 -0.26229532 -0.15881231
v -0.11902096 -0.26276135 -0.15769031
v -0.11982684 -0.26181891 -0.15823092
v -0.14182927 -0.25331629 -0.15761891
v -0.20435063 -0.20543856 -0.17481619
v -0.19419279 -0.20028106 -0.18222142
v -0.19254354 -0.20003250 -0.18292523
v -0.22474129 -0.17318866 -0.17985502
v -0.22466632 -0.17360291 -0.17972241
v -0.22410407 -0.17318866 -0.18060982
v -0.22322322 -0.17360291 -0.18131361
v -0.22296085 -0.17446251 -0.18103822
v -0.22297960 -0.17914359 -0.17795780
v -0.22208001 -0.17972356 -0.17830460
v -0.22256729 -0.18016888 -0.17760080
v -0.20888605 -0.19604527 -0.17781500
v -0.20564379 -0.20212450 -0.17620340
v -0.20540015 -0.20493108 -0.17400018
v -0.20571876 -0.20527284 -0.17285778
v -0.20744296 -0.20390581 -0.17180717
v -0.21165979 -0.20076781 -0.16852276
v -0.21310287 -0.19913150 -0.16852276
v -0.21032913 -0.20213486 -0.16852276
v -0.20643093 -0.20598744 -0.16852276
v -0.19338689 -0.22060035 -0.15693551
v -0.18752083 -0.22740453 -0.14609286
v -0.17953699 -0.23491293 -0.14391005
v -0.17136574 -0.24227634 -0.14144164
v -0.16896683 -0.24443048 -0.13989124
v -0.15787191 -0.25354414 -0.13458722
v -0.13455759 -0.26898556 -0.14038084
v -0.13159645 -0.27062187 -0.13213920
v -0.13150274 -0.27057009 -0.13126200
v -0.15230572 -0.25441407 -0.10468069
v -0.11667829 -0.27154360 -0.10468069
v -0.04071933 -0.27851347 -0.14047264
v -0.03981975 -0.27866881 -0.14142124
v -0.11720305 -0.27181285 -0.10468069
v -0.20811765 -0.17318866 -0.19140146
v -0.20984187 -0.17681341 -0.18930025
v -0.21085390 -0.17638880 -0.18892285
v -0.21132243 -0.17516673 -0.18912684
v -0.21224075 -0.17464891 -0.18883105
v -0.20969193 -0.17520817 -0.18996325
v -0.19419279 -0.19950433 -0.18274162
v -0.20461301 -0.20259054 -0.17650940
v -0.20984187 -0.17838758 -0.18848424
v -0.21044158 -0.17740373 -0.18868825
v -0.03981975 -0.26026545 -0.17373498
v -0.06553297 -0.26158072 -0.17051178
v -0.06706976 -0.26147715 -0.17043017
v -0.08058233 -0.26127003 -0.16863496
v -0.08725426 -0.26150821 -0.16733956
v -0.08725426 -0.26229532 -0.16647255
v -0.09190214 -0.26264744 -0.16531994
v -0.09175220 -0.26172571 -0.16635015
v -0.06553297 -0.26235745 -0.16960397
v -0.06832543 -0.26282349 -0.16865536
v -0.07638425 -0.26233674 -0.16805357
v -0.08569873 -0.26239888 -0.16658475
v -0.09343894 -0.26168428 -0.16598296
v -0.11671577 -0.26303062 -0.15803712
v -0.11750291 -0.26431481 -0.15617050
v -0.11982684 -0.26464622 -0.15504850
v -0.12677991 -0.27051831 -0.14531766
v -0.12910384 -0.26934804 -0.14577667
v -0.13523229 -0.26172571 -0.15235569
v -0.13467005 -0.26125967 -0.15312069
v -0.13131533 -0.26116647 -0.15456909
v -0.12683613 -0.26122860 -0.15618071
v -0.14212913 -0.25496297 -0.15609910
v -0.20461301 -0.20565603 -0.17400018
v -0.13898057 -0.25958192 -0.15297789
v -0.13779986 -0.26133216 -0.15167229
v -0.13746252 -0.26268886 -0.14983628
v -0.13594446 -0.26733888 -0.14363465
v -0.22333568 -0.17318866 -0.18142583
v -0.22243610 -0.17318866 -0.18226221
v -0.22082434 -0.17318866 -0.18356783
v -0.21960613 -0.17414144 -0.18393502
v -0.21597030 -0.18144272 -0.18210922
v -0.21673869 -0.18216767 -0.18100761
v -0.21059152 -0.19158166 -0.17951842
v -0.21359015 -0.18366934 -0.18252742
v -0.21070398 -0.17925751 -0.18734184
v -0.19224368 -0.22123210 -0.15848592
v -0.20560630 -0.20675381 -0.16852276
v -0.20586868 -0.20652598 -0.16852276
v -0.19338689 -0.22030001 -0.15823092
v -0.19156897 -0.22220559 -0.15693551
v -0.18879526 -0.22558180 -0.15153970
v -0.18744588 -0.22730095 -0.14764327
v -0.17292127 -0.24075395 -0.14299205
v -0.17059733 -0.24294951 -0.14144164
v -0.13452011 -0.26897521 -0.14221685
v -0.13065938 -0.27117077 -0.13680062
v -0.13065938 -0.27119148 -0.13525022
v -0.13065938 -0.27120184 -0.13369981
v -0.13163394 -0.27064258 -0.13369981
v -0.13065938 -0.27115006 -0.13213920
v -0.12134490 -0.27163680 -0.10468069
v -0.04225613 -0.27867917 -0.14023804
v -0.11791522 -0.27206141 -0.10468069
v -0.04536720 -0.27854454 -0.13891203
v -0.04692274 -0.27871023 -0.13866723
v -0.03981975 -0.27860667 -0.14303285
v -0.04071933 -0.27878274 -0.14144164
v -0.21308413 -0.17318866 -0.18886166
v -0.21188468 -0.17569491 -0.18862704
v -0.21334651 -0.17360291 -0.18859646
v -0.21124748 -0.17820117 -0.18761725
v -0.21274679 -0.17657520 -0.18751524
v -0.21739466 -0.17349935 -0.18599544
v -0.21628891 -0.17318866 -0.18697465
v -0.03981975 -0.26103182 -0.17304138
v -0.06397743 -0.26239888 -0.16969577
v -0.08974687 -0.26278206 -0.16550356
v -0.09342019 -0.26452195 -0.16260673
v -0.09446971 -0.26440801 -0.16247414
v -0.09343894 -0.26246101 -0.16512616
v -0.08880980 -0.26423196 -0.16382054
v -0.09497573 -0.26777387 -0.15814931
v -0.09497573 -0.26715247 -0.15893472
v -0.06088509 -0.26394198 -0.16811476
v -0.06397743 -0.26304098 -0.16892056
v -0.07171763 -0.26945160 -0.15986292
v -0.06862530 -0.26482229 -0.16610534
v -0.07325443 -0.26875771 -0.16054633
v -0.07480997 -0.26928590 -0.15965893
v -0.08101337 -0.26611683 -0.16266794
v -0.11161811 -0.26438730 -0.15780252
v -0.11266763 -0.26427339 -0.15764951
v -0.10119787 -0.26773244 -0.15655811
v -0.11605982 -0.27054938 -0.14846948
v -0.12443724 -0.27077722 -0.14566446
v -0.12601151 -0.27194750 -0.14354285
v -0.12754831 -0.27177143 -0.14329805
v -0.12754831 -0.27099470 -0.14437926
v -0.12910384 -0.27075651 -0.14406305
v -0.12910384 -0.27012477 -0.14483826
v -0.13161520 -0.26748388 -0.14695986
v -0.13682531 -0.26151857 -0.15190689
v -0.13645048 -0.26088684 -0.15276369
v -0.13630055 -0.26759780 -0.14259425
v -0.19059443 -0.22267164 -0.15798611
v -0.13133407 -0.26893378 -0.14527686
v -0.12998469 -0.27058044 -0.14384885
v -0.13525103 -0.26532974 -0.14759227
v -0.13573831 -0.26569222 -0.14659266
v -0.13491368 -0.26763922 -0.14414466
v -0.13298332 -0.26897521 -0.14377745
v -0.13401410 -0.26868522 -0.14324705
v -0.21998098 -0.17318866 -0.18423083
v -0.21906263 -0.17318866 -0.18493463
v -0.21857535 -0.17478354 -0.18432263
v -0.21668247 -0.17747622 -0.18407782
v -0.21505197 -0.18201233 -0.18245602
v -0.19338689 -0.22023788 -0.15848592
v -0.19080058 -0.22284769 -0.15693551
v -0.17213413 -0.24140641 -0.14299205
v -0.13056567 -0.27076687 -0.14289005
v -0.13150274 -0.27055973 -0.14229845
v -0.13065938 -0.27105683 -0.14144164
v -0.12929126 -0.27176107 -0.14144164
v -0.12850412 -0.27215463 -0.14144164
v -0.12931000 -0.27182321 -0.13680062
v -0.12932874 -0.27182321 -0.13525022
v -0.12931000 -0.27182321 -0.13369981
v -0.12846663 -0.27211319 -0.13259820
v -0.12902888 -0.27183356 -0.13211880
v -0.12415611 -0.27379094 -0.13524002
v -0.12290044 -0.27435020 -0.13679043
v -0.11980810 -0.27203034 -0.10468069
v -0.05001507 -0.27890701 -0.13834083
v -0.04692274 -0.27898986 -0.13990144
v -0.05157061 -0.27896915 -0.13834083
v -0.03981975 -0.27831669 -0.14385906
v -0.04225613 -0.27887595 -0.14144164
v -0.07792105 -0.27835811 -0.13935064
v -0.08577369 -0.27791279 -0.13990144
v -0.08412445 -0.27747783 -0.14144164
v -0.21364636 -0.17318866 -0.18856585
v -0.21568920 -0.17318866 -0.18738265
v -0.21557672 -0.17318866 -0.18745405
v -0.21818179 -0.17318866 -0.18558744
v -0.03981975 -0.26169464 -0.17226618
v -0.08485537 -0.26502940 -0.16344314
v -0.10518980 -0.26587862 -0.15774131
v -0.07897056 -0.26901663 -0.15931211
v -0.09173347 -0.26786707 -0.15859811
v -0.09512565 -0.26863344 -0.15683350
v -0.09808680 -0.26881985 -0.15590530
v -0.09962360 -0.26868522 -0.15571152
v -0.09962360 -0.26790849 -0.15675191
v -0.08815386 -0.26899592 -0.15774131
v -0.04381167 -0.27077722 -0.16110733
v -0.05001507 -0.27059080 -0.16088294
v -0.05108333 -0.27055973 -0.16084212
v -0.05779276 -0.26791885 -0.16344314
v -0.07325443 -0.26937910 -0.15976093
v -0.06397743 -0.26996943 -0.16010772
v -0.06485827 -0.27053902 -0.15927132
v -0.06588905 -0.27049760 -0.15919992
v -0.07325443 -0.27015583 -0.15861853
v -0.10134781 -0.26849882 -0.15549731
v -0.10205998 -0.26898556 -0.15464049
v -0.10134781 -0.26904770 -0.15472210
v -0.12464339 -0.27203034 -0.14370605
v -0.12601151 -0.27232033 -0.14275745
v -0.12754831 -0.27221677 -0.14252285
v -0.09574412 -0.26898556 -0.15617050
v -0.12844789 -0.27212355 -0.14233925
v -0.14687071 -0.25961299 -0.14358366
v -0.12464339 -0.27369774 -0.13835103
v -0.12754831 -0.27255851 -0.13989124
v -0.12852286 -0.27215463 -0.13369981
v -0.12428730 -0.27386343 -0.13679043
v -0.12134490 -0.27470230 -0.13679043
v -0.12134490 -0.27455731 -0.13524002
v -0.12424982 -0.27383236 -0.13835103
v -0.12290044 -0.27420519 -0.13835103
v -0.11785900 -0.27524084 -0.13555621
v -0.10820717 -0.27673216 -0.13443421
v -0.10730758 -0.27679430 -0.13382221
v -0.10586449 -0.27698070 -0.13368961
v -0.10430895 -0.27706357 -0.13368961
v -0.11980810 -0.27485765 -0.13524002
v -0.05932956 -0.27879310 -0.13834083
v -0.03981975 -0.27665967 -0.14847968
v -0.08065729 -0.27829598 -0.13918744
v -0.08723552 -0.27785066 -0.13990144
v -0.08567998 -0.27740533 -0.14144164
v -0.03981975 -0.27274494 -0.15848592
v -0.03981975 -0.27560331 -0.15122349
v -0.03981975 -0.27166787 -0.16030153
v -0.04071933 -0.27164716 -0.16027092
v -0.07527850 -0.27050795 -0.15764951
v -0.04225613 -0.27219606 -0.15942433
v -0.04607938 -0.27207177 -0.15925092
v -0.05001507 -0.27122255 -0.16003632
v -0.05158936 -0.27099470 -0.16017912
v -0.07171763 -0.27022832 -0.15874091
v -0.04692274 -0.27205106 -0.15917952
v -0.05001507 -0.27194750 -0.15893472
v -0.05468168 -0.27174036 -0.15859811
v -0.07018084 -0.27072545 -0.15808812
v -0.07426647 -0.27055973 -0.15775152
v -0.11980810 -0.27191643 -0.14501166
v -0.11360470 -0.27381165 -0.14257385
v -0.09572539 -0.27673216 -0.14066644
v -0.11827130 -0.27354238 -0.14199244
v -0.12464339 -0.27298314 -0.14144164
v -0.12601151 -0.27279672 -0.14144164
v -0.12402492 -0.27372880 -0.13938123
v -0.12134490 -0.27445375 -0.13835103
v -0.11980810 -0.27493014 -0.13679043
v -0.11785900 -0.27524084 -0.13637222
v -0.10820717 -0.27673216 -0.13449542
v -0.10430895 -0.27714642 -0.13524002
v -0.10275341 -0.27721891 -0.13524002
v -0.10134781 -0.27728106 -0.13524002
v -0.08065729 -0.27829598 -0.13907523
v -0.07792105 -0.27835811 -0.13892223
v -0.09808680 -0.27744676 -0.13679043
v -0.09342019 -0.27763316 -0.13834083
v -0.08877232 -0.27775745 -0.13990144
v -0.08723552 -0.27724998 -0.14144164
v -0.05561875 -0.27209248 -0.15774131
v -0.03981975 -0.27253780 -0.15893472
v -0.03981975 -0.27225819 -0.15953652
v -0.09032786 -0.27758138 -0.13990144
v -0.09497573 -0.27748818 -0.13834083
v -0.10119787 -0.27716713 -0.13679043
v -0.11360470 -0.27571723 -0.13679043
v -0.11516024 -0.27552045 -0.13679043
v -0.09962360 -0.27733284 -0.13679043
f 1 2 5
f 1 5 15
f 1 15 42
f 1 42 79
f 1 79 131
f 1 131 187
f 1 187 235
f 1 235 304
f 1 304 378
f 1 378 380
f 1 380 379
f 1 379 310
f 1 310 381
f 1 381 350
f 1 350 349
f 1 349 275
f 1 275 274
f 1 274 273
f 1 273 206
f 1 206 204
f 1 204 150
f 1 150 149
f 1 149 148
f 1 148 100
f 1 100 61
f 1 61 28
f 1 28 12
f 1 12 3
f 1 3 4
f 1 4 6
f 1 6 2
f 2 6 7
f 2 7 8
f 2 8 9
f 2 9 10
f 2 10 11
f 2 11 5
f 3 12 37
f 3 37 13
f 3 13 4
f 4 13 14
f 4 14 6
f 5 11 15
f 6 16 17
f 6 17 18
f 6 18 7
f 6 14 19
f 6 19 20
f 6 20 21
f 6 21 22
f 6 22 16
f 7 18 23
f 7 23 8
f 8 23 24
f 8 24 9
f 9 24 10
f 10 24 25
f 10 25 11
f 11 25 26
f 11 26 27
f 11 27 15
f 12 28 29
f 12 29 30
f 12 30 31
f 12 31 32
f 12 32 33
f 12 33 34
f 12 34 35
f 12 35 36
f 12 36 37
f 13 37 72
f 13 72 71
f 13 71 70
f 13 70 116
f 13 116 170
f 13 170 230
f 13 230 297
f 13 297 369
f 13 369 299
f 13 299 234
f 13 234 231
f 13 231 172
f 13 172 117
f 13 117 73
f 13 73 38
f 13 38 39
f 13 39 40
f 13 40 14
f 14 40 39
f 14 39 74
f 14 74 120
f 14 120 119
f 14 119 118
f 14 118 173
f 14 173 233
f 14 233 302
f 14 302 373
f 14 373 425
f 14 425 430
f 14 430 429
f 14 429 465
f 14 465 466
f 14 466 431
f 14 431 382
f 14 382 311
f 14 311 245
f 14 245 188
f 14 188 136
f 14 136 87
f 14 87 50
f 14 50 19
f 15 41 42
f 15 27 43
f 15 43 44
f 15 44 41
f 16 45 46
f 16 46 17
f 16 22 45
f 17 23 18
f 17 46 47
f 17 47 48
f 17 48 49
f 17 49 25
f 17 25 24
f 17 24 23
f 19 50 51
f 19 51 52
f 19 52 20
f 20 52 53
f 20 53 51
f 20 51 54
f 20 54 21
f 21 54 22
f 22 54 55
f 22 55 56
f 22 56 57
f 22 57 58
f 22 58 59
f 22 59 45
f 25 49 44
f 25 44 26
f 26 44 60
f 26 60 43
f 26 43 27
f 28 61 62
f 28 62 29
f 29 63 30
f 29 62 64
f 29 64 63
f 30 65 31
f 30 63 66
f 30 66 65
f 31 65 67
f 31 67 68
f 31 68 69
f 31 69 32
f 32 69 70
f 32 70 33
f 33 70 71
f 33 71 34
f 34 71 35
f 35 71 36
f 36 71 72
f 36 72 37
f 38 73 74
f 38 74 39
f 41 75 42
f 41 44 76
f 41 76 77
f 41 77 75
f 42 75 78
f 42 78 79
f 43 60 44
f 44 80 81
f 44 81 76
f 44 49 80
f 45 59 82
f 45 82 83
f 45 83 84
f 45 84 46
f 46 84 85
f 46 85 47
f 47 85 48
f 48 85 83
f 48 83 86
f 48 86 49
f 49 86 81
f 49 81 80
f 50 87 88
f 50 88 89
f 50 89 51
f 51 89 90
f 51 90 91
f 51 91 92
f 51 92 93
f 51 93 54
f 51 53 52
f 54 93 55
f 55 93 56
f 56 93 94
f 56 94 95
f 56 95 96
f 56 96 57
f 57 96 97
f 57 97 98
f 57 98 99
f 57 99 59
f 57 59 58
f 59 99 82
f 61 100 62
f 62 101 64
f 62 100 102
f 62 102 103
f 62 103 104
f 62 104 101
f 63 64 66
f 64 105 106
f 64 106 107
f 64 107 108
f 64 108 66
f 64 101 105
f 65 109 107
f 65 107 110
f 65 110 111
f 65 111 67
f 65 66 109
f 66 108 109
f 67 111 112
f 67 112 113
f 67 113 114
f 67 114 68
f 68 114 115
f 68 115 70
f 68 70 69
f 70 115 116
f 73 117 118
f 73 118 119
f 73 119 120
f 73 120 74
f 75 77 121
f 75 121 122
f 75 122 78
f 76 81 77
f 77 123 124
f 77 124 125
f 77 125 126
f 77 126 127
f 77 127 128
f 77 128 121
f 77 81 129
f 77 129 123
f 78 130 79
f 78 122 130
f 79 130 131
f 81 86 132
f 81 132 97
f 81 97 133
f 81 133 129
f 82 99 134
f 82 134 83
f 83 85 84
f 83 134 99
f 83 99 135
f 83 135 132
f 83 132 86
f 87 136 88
f 88 137 90
f 88 90 89
f 88 136 137
f 90 138 91
f 90 137 139
f 90 139 140
f 90 140 138
f 91 138 92
f 92 141 94
f 92 94 93
f 92 138 141
f 94 141 142
f 94 142 143
f 94 143 144
f 94 144 145
f 94 145 95
f 95 145 146
f 95 146 96
f 96 146 133
f 96 133 97
f 97 132 147
f 97 147 98
f 98 147 132
f 98 132 135
f 98 135 99
f 100 148 102
f 101 104 105
f 102 148 149
f 102 149 150
f 102 150 151
f 102 151 152
f 102 152 103
f 103 152 104
f 104 152 153
f 104 153 154
f 104 154 155
f 104 155 105
f 105 155 106
f 106 156 157
f 106 157 110
f 106 110 107
f 106 155 158
f 106 158 159
f 106 159 160
f 106 160 161
f 106 161 156
f 107 109 108
f 110 157 162
f 110 162 112
f 110 112 111
f 112 162 163
f 112 163 113
f 113 163 164
f 113 164 114
f 114 165 166
f 114 166 167
f 114 167 115
f 114 164 165
f 115 168 226
f 115 226 169
f 115 169 170
f 115 170 116
f 115 167 166
f 115 166 171
f 115 171 223
f 115 223 168
f 117 172 173
f 117 173 118
f 121 128 174
f 121 174 122
f 122 174 175
f 122 175 130
f 123 176 177
f 123 177 178
f 123 178 179
f 123 179 124
f 123 129 145
f 123 145 176
f 124 179 180
f 124 180 181
f 124 181 125
f 125 181 182
f 125 182 183
f 125 183 126
f 126 184 127
f 126 183 182
f 126 182 185
f 126 185 184
f 127 184 128
f 128 184 186
f 128 186 174
f 129 133 145
f 130 175 131
f 131 175 187
f 133 146 145
f 136 188 137
f 137 189 139
f 137 188 245
f 137 245 189
f 138 140 190
f 138 190 191
f 138 191 141
f 139 189 192
f 139 192 140
f 140 193 194
f 140 194 190
f 140 192 193
f 141 191 195
f 141 195 196
f 141 196 142
f 142 196 197
f 142 197 198
f 142 198 199
f 142 199 200
f 142 200 201
f 142 201 143
f 143 201 180
f 143 180 179
f 143 179 202
f 143 202 144
f 144 202 203
f 144 203 145
f 145 203 177
f 145 177 176
f 150 204 205
f 150 205 151
f 151 205 206
f 151 206 152
f 152 206 207
f 152 207 208
f 152 208 153
f 153 208 209
f 153 209 154
f 154 209 210
f 154 210 211
f 154 211 212
f 154 212 158
f 154 158 155
f 156 162 157
f 156 161 162
f 158 212 213
f 158 213 201
f 158 201 214
f 158 214 159
f 159 214 215
f 159 215 160
f 160 215 161
f 161 215 216
f 161 216 217
f 161 217 218
f 161 218 163
f 161 163 162
f 163 218 164
f 164 218 217
f 164 217 219
f 164 219 220
f 164 220 221
f 164 221 222
f 164 222 165
f 165 171 166
f 165 222 223
f 165 223 171
f 168 223 224
f 168 224 225
f 168 225 226
f 169 227 228
f 169 228 170
f 169 226 227
f 170 228 229
f 170 229 230
f 172 231 173
f 173 232 233
f 173 231 234
f 173 234 232
f 174 186 175
f 175 235 187
f 175 186 236
f 175 236 237
f 175 237 238
f 175 238 239
f 175 239 240
f 175 240 235
f 177 203 202
f 177 202 178
f 178 202 241
f 178 241 179
f 179 241 202
f 180 201 181
f 181 185 182
f 181 201 242
f 181 242 185
f 184 243 186
f 184 185 242
f 184 242 213
f 184 213 243
f 186 243 244
f 186 244 237
f 186 237 236
f 189 245 246
f 189 246 247
f 189 247 193
f 189 193 192
f 190 194 248
f 190 248 191
f 191 248 249
f 191 249 250
f 191 250 251
f 191 251 252
f 191 252 195
f 193 247 253
f 193 253 254
f 193 254 255
f 193 255 256
f 193 256 250
f 193 250 249
f 193 249 248
f 193 248 194
f 195 252 251
f 195 251 257
f 195 257 197
f 195 197 196
f 197 257 198
f 198 258 259
f 198 259 260
f 198 260 261
f 198 261 262
f 198 262 263
f 198 263 264
f 198 264 265
f 198 265 266
f 198 266 199
f 198 257 258
f 199 266 267
f 199 267 200
f 200 267 201
f 201 268 214
f 201 213 242
f 201 267 269
f 201 269 270
f 201 270 271
f 201 271 272
f 201 272 268
f 204 206 205
f 206 273 207
f 207 273 274
f 207 274 208
f 208 274 275
f 208 275 276
f 208 276 277
f 208 277 210
f 208 210 209
f 210 277 278
f 210 278 211
f 211 278 279
f 211 279 212
f 212 279 213
f 213 279 280
f 213 280 281
f 213 281 243
f 214 268 215
f 215 268 282
f 215 282 283
f 215 283 284
f 215 284 220
f 215 220 219
f 215 219 216
f 216 219 217
f 220 284 221
f 221 284 285
f 221 285 286
f 221 286 287
f 221 287 222
f 222 287 288
f 222 288 223
f 223 288 287
f 223 287 289
f 223 289 290
f 223 290 224
f 224 290 225
f 225 290 226
f 226 290 291
f 226 291 227
f 227 291 292
f 227 292 293
f 227 293 294
f 227 294 295
f 227 295 228
f 228 295 294
f 228 294 296
f 228 296 229
f 229 296 297
f 229 297 230
f 232 298 233
f 232 234 299
f 232 299 300
f 232 300 301
f 232 301 298
f 233 298 303
f 233 303 302
f 235 240 304
f 237 305 239
f 237 239 238
f 237 244 305
f 239 305 306
f 239 306 240
f 240 306 304
f 243 281 244
f 244 281 307
f 244 307 308
f 244 308 309
f 244 309 310
f 244 310 305
f 245 311 246
f 246 312 253
f 246 253 247
f 246 311 312
f 250 256 313
f 250 313 251
f 251 314 315
f 251 315 316
f 251 316 257
f 251 313 317
f 251 317 318
f 251 318 319
f 251 319 314
f 253 312 320
f 253 320 321
f 253 321 322
f 253 322 323
f 253 323 254
f 254 323 324
f 254 324 325
f 254 325 326
f 254 326 313
f 254 313 256
f 254 256 255
f 257 316 258
f 258 316 327
f 258 327 328
f 258 328 259
f 259 328 329
f 259 329 260
f 260 329 330
f 260 330 261
f 261 331 332
f 261 332 333
f 261 333 334
f 261 334 335
f 261 335 336
f 261 336 262
f 261 330 331
f 262 336 337
f 262 337 263
f 263 337 338
f 263 338 264
f 264 338 339
f 264 339 265
f 265 339 267
f 265 267 266
f 267 339 269
f 268 272 340
f 268 340 341
f 268 341 282
f 269 339 270
f 270 339 338
f 270 338 337
f 270 337 342
f 270 342 343
f 270 343 344
f 270 344 271
f 271 344 345
f 271 345 272
f 272 345 346
f 272 346 347
f 272 347 348
f 272 348 291
f 272 291 340
f 275 349 276
f 276 350 351
f 276 351 352
f 276 352 277
f 276 349 350
f 277 352 353
f 277 353 280
f 277 280 278
f 278 280 279
f 280 353 352
f 280 352 307
f 280 307 281
f 282 354 284
f 282 284 283
f 282 341 355
f 282 355 286
f 282 286 354
f 284 354 285
f 285 354 286
f 286 355 289
f 286 289 287
f 289 356 290
f 289 355 356
f 290 356 340
f 290 340 291
f 291 348 347
f 291 347 343
f 291 343 357
f 291 357 358
f 291 358 359
f 291 359 292
f 292 359 360
f 292 360 361
f 292 361 293
f 293 361 362
f 293 362 294
f 294 363 364
f 294 364 296
f 294 362 363
f 296 364 365
f 296 365 366
f 296 366 297
f 297 366 365
f 297 365 367
f 297 367 368
f 297 368 369
f 298 301 370
f 298 370 371
f 298 371 303
f 299 369 372
f 299 372 370
f 299 370 301
f 299 301 300
f 302 303 374
f 302 374 375
f 302 375 376
f 302 376 377
f 302 377 373
f 303 371 374
f 304 306 378
f 305 310 379
f 305 379 380
f 305 380 306
f 306 380 378
f 307 352 309
f 307 309 308
f 309 381 310
f 309 352 351
f 309 351 350
f 309 350 381
f 311 382 320
f 311 320 312
f 313 326 325
f 313 325 383
f 313 383 317
f 314 319 315
f 315 319 329
f 315 329 384
f 315 384 327
f 315 327 316
f 317 385 386
f 317 386 318
f 317 383 325
f 317 325 385
f 318 387 388
f 318 388 389
f 318 389 390
f 318 390 319
f 318 386 391
f 318 391 387
f 319 390 329
f 320 382 392
f 320 392 393
f 320 393 394
f 320 394 321
f 321 394 395
f 321 395 322
f 322 396 323
f 322 395 397
f 322 397 398
f 322 398 399
f 322 399 396
f 323 396 324
f 324 396 325
f 325 396 400
f 325 400 391
f 325 391 385
f 327 384 329
f 327 329 328
f 329 390 401
f 329 401 330
f 330 401 402
f 330 402 403
f 330 403 332
f 330 332 331
f 332 404 405
f 332 405 406
f 332 406 333
f 332 403 407
f 332 407 404
f 333 406 408
f 333 408 335
f 333 335 334
f 335 343 342
f 335 342 337
f 335 337 336
f 335 408 343
f 340 356 409
f 340 409 341
f 341 409 356
f 341 356 355
f 343 408 357
f 343 347 345
f 343 345 344
f 345 347 346
f 357 408 358
f 358 408 360
f 358 360 359
f 360 408 361
f 361 363 362
f 361 408 410
f 361 410 411
f 361 411 363
f 363 411 412
f 363 412 364
f 364 412 365
f 365 412 413
f 365 413 368
f 365 368 367
f 368 414 415
f 368 415 369
f 368 413 410
f 368 410 416
f 368 416 417
f 368 417 414
f 369 418 419
f 369 419 420
f 369 420 421
f 369 421 422
f 369 422 372
f 369 415 414
f 369 414 423
f 369 423 418
f 370 372 371
f 371 372 375
f 371 375 374
f 372 424 375
f 372 422 424
f 373 377 425
f 375 426 376
f 375 424 426
f 376 427 377
f 376 426 427
f 377 427 428
f 377 428 429
f 377 429 430
f 377 430 425
f 382 431 432
f 382 432 392
f 385 391 386
f 387 407 388
f 387 391 407
f 388 407 403
f 388 403 402
f 388 402 389
f 389 402 401
f 389 401 390
f 391 400 433
f 391 433 407
f 392 432 393
f 393 432 394
f 394 432 434
f 394 434 435
f 394 435 436
f 394 436 437
f 394 437 398
f 394 398 397
f 394 397 395
f 396 399 438
f 396 438 400
f 398 437 436
f 398 436 435
f 398 435 439
f 398 439 440
f 398 440 399
f 399 440 441
f 399 441 442
f 399 442 443
f 399 443 438
f 400 438 443
f 400 443 433
f 404 407 444
f 404 444 445
f 404 445 446
f 404 446 405
f 405 447 448
f 405 448 406
f 405 446 447
f 406 448 449
f 406 449 408
f 407 433 444
f 408 449 450
f 408 450 417
f 408 417 416
f 408 416 410
f 410 413 411
f 411 413 412
f 414 417 451
f 414 451 452
f 414 452 453
f 414 453 454
f 414 454 419
f 414 419 418
f 414 418 423
f 417 450 451
f 419 454 455
f 419 455 421
f 419 421 420
f 421 455 422
f 422 455 456
f 422 456 457
f 422 457 458
f 422 458 459
f 422 459 424
f 424 459 458
f 424 458 426
f 426 458 455
f 426 455 460
f 426 460 461
f 426 461 427
f 427 461 462
f 427 462 428
f 428 462 463
f 428 463 443
f 428 443 464
f 428 464 440
f 428 440 439
f 428 439 435
f 428 435 429
f 429 435 434
f 429 434 465
f 431 466 432
f 432 466 434
f 433 443 463
f 433 463 446
f 433 446 444
f 434 466 465
f 440 464 441
f 441 464 443
f 441 443 442
f 444 446 445
f 446 451 448
f 446 448 447
f 446 463 462
f 446 462 467
f 446 467 451
f 448 451 449
f 449 451 450
f 451 467 468
f 451 468 469
f 451 469 470
f 451 470 471
f 451 471 452
f 452 471 455
f 452 455 453
f 453 455 454
f 455 458 456
f 455 471 470
f 455 470 469
f 455 469 472
f 455 472 461
f 455 461 460
f 456 458 457
f 461 472 468
f 461 468 462
f 462 468 467
f 468 472 469

