# https://github.com/mikedh/trimesh
v 0.17776410 -0.11743628 -0.18460374
v 0.17776410 -0.11750588 -0.18459714
v 0.17776410 -0.11743628 -0.19799540
v 0.01218607 -0.11743628 -0.18595775
v 0.01218607 -0.16126029 -0.18071669
v 0.17776410 -0.11804872 -0.18459052
v 0.01218607 -0.16271483 -0.18058789
v 0.17776410 -0.12981029 -0.20401918
v 0.17722924 -0.12941359 -0.20423714
v 0.17620817 -0.12907258 -0.20441548
v 0.17431187 -0.12774330 -0.20429659
v 0.16630524 -0.12012265 -0.20267175
v 0.16226953 -0.11743628 -0.20241086
v 0.01218607 -0.11743628 -0.19649936
v 0.17776410 -0.11959373 -0.18467309
v 0.01218607 -0.16426679 -0.18065063
v 0.17776410 -0.13024873 -0.20418430
v 0.17570574 -0.13248969 -0.20579923
v 0.17662956 -0.13001907 -0.20466317
v 0.17748858 -0.13045056 -0.20442869
v 0.17494395 -0.13015825 -0.20521139
v 0.17486292 -0.12857845 -0.20455418
v 0.17338801 -0.12748580 -0.20441548
v 0.16528417 -0.11984427 -0.20280715
v 0.16147534 -0.11743628 -0.20262881
v 0.01218607 -0.12408957 -0.19607665
v 0.01489276 -0.11743628 -0.19739764
v 0.02913934 -0.13326219 -0.20393661
v 0.02759961 -0.13326219 -0.20338180
v 0.17774788 -0.18195785 -0.19103372
v 0.17776410 -0.12114570 -0.18484152
v 0.02714579 -0.18195089 -0.18249343
v 0.01218607 -0.16668870 -0.18088181
v 0.02609229 -0.18195089 -0.18245051
v 0.17776410 -0.13081245 -0.20426686
v 0.17585161 -0.13352666 -0.20591152
v 0.17508982 -0.13310213 -0.20608655
v 0.17183208 -0.13171022 -0.20639697
v 0.17468465 -0.13212780 -0.20591152
v 0.17508982 -0.13164759 -0.20567703
v 0.17776410 -0.13171022 -0.20438575
v 0.17758581 -0.13171022 -0.20452115
v 0.17217245 -0.12969197 -0.20570015
v 0.17111894 -0.12934399 -0.20581904
v 0.17338801 -0.12860628 -0.20495047
v 0.17183208 -0.12699168 -0.20457729
v 0.17129723 -0.12614959 -0.20430980
v 0.16061634 -0.11743628 -0.20284678
v 0.01218607 -0.12563457 -0.19596766
v 0.01620558 -0.11743628 -0.19782367
v 0.04931795 -0.15187887 -0.20677346
v 0.04688679 -0.15588755 -0.20583224
v 0.02913934 -0.13480720 -0.20377149
v 0.01994956 -0.18195089 -0.19560108
v 0.01704838 -0.11743628 -0.19809448
v 0.01806947 -0.11743628 -0.19840821
v 0.01954437 -0.11743628 -0.19886065
v 0.01983611 -0.11743628 -0.19894653
v 0.02913934 -0.13171022 -0.20370875
v 0.03069528 -0.13171022 -0.20404230
v 0.03273745 -0.13056190 -0.20429988
v 0.05136012 -0.13056190 -0.20739765
v 0.06946414 -0.14877493 -0.21111627
v 0.06946414 -0.15032690 -0.21109644
v 0.17774788 -0.18195785 -0.20120874
v 0.17776410 -0.14859398 -0.19026424
v 0.17776410 -0.14721600 -0.18891351
v 0.17776410 -0.12688032 -0.18569357
v 0.17776410 -0.12580161 -0.18552843
v 0.17776410 -0.12269767 -0.18506278
v 0.17776410 -0.12240536 -0.18501984
v 0.03960952 -0.18853458 -0.19438907
v 0.01218607 -0.16668870 -0.18943861
v 0.01994956 -0.18195089 -0.18328604
v 0.01685389 -0.17426064 -0.18170083
v 0.01685389 -0.17357861 -0.18160506
v 0.02453635 -0.18195089 -0.18246702
v 0.17585161 -0.13430612 -0.20591152
v 0.17338801 -0.13325523 -0.20645643
v 0.16354994 -0.12921176 -0.20739434
v 0.16183192 -0.12778506 -0.20737122
v 0.16873640 -0.13015825 -0.20660174
v 0.17776410 -0.13480720 -0.20425696
v 0.17752098 -0.13480720 -0.20447163
v 0.16816914 -0.12772242 -0.20585207
v 0.15893073 -0.12612871 -0.20742406
v 0.15910902 -0.11983035 -0.20436594
v 0.15941697 -0.11743628 -0.20312419
v 0.15786102 -0.12507781 -0.20718628
v 0.01218607 -0.12716567 -0.19583887
v 0.04466633 -0.15961089 -0.20482169
v 0.06946414 -0.15187887 -0.21090821
v 0.01218607 -0.14874013 -0.19296899
v 0.01218607 -0.14722992 -0.19324969
v 0.01218607 -0.14566403 -0.19348747
v 0.01218607 -0.14412599 -0.19371536
v 0.01218607 -0.14102900 -0.19416780
v 0.01218607 -0.13636613 -0.19484482
v 0.01218607 -0.13480720 -0.19506937
v 0.01218607 -0.13326219 -0.19525763
v 0.01218607 -0.13274023 -0.19531046
v 0.01218607 -0.12871067 -0.19569685
v 0.04364525 -0.16089143 -0.20437914
v 0.06011229 -0.17211712 -0.20569686
v 0.06254344 -0.17428152 -0.20579261
v 0.06408318 -0.17584740 -0.20579261
v 0.07797319 -0.18195089 -0.20736131
v 0.02139205 -0.11743628 -0.19936594
v 0.03349922 -0.11743628 -0.20230848
v 0.03390441 -0.11743628 -0.20240094
v 0.03223501 -0.13008866 -0.20413145
v 0.03311023 -0.12953190 -0.20423054
v 0.03424477 -0.12860628 -0.20432631
v 0.04466633 -0.12240536 -0.20544586
v 0.04618986 -0.12237057 -0.20570675
v 0.04776200 -0.12550930 -0.20630122
v 0.04931795 -0.12860628 -0.20687584
v 0.05860497 -0.13326219 -0.20864600
v 0.06029057 -0.13480720 -0.20900596
v 0.04931795 -0.12706127 -0.20670741
v 0.05085768 -0.12860628 -0.20710702
v 0.05233258 -0.13008866 -0.20747691
v 0.07944809 -0.13846095 -0.21203106
v 0.07102008 -0.14877493 -0.21130121
v 0.07102008 -0.15032690 -0.21129130
v 0.07102008 -0.15134299 -0.21118892
v 0.07102008 -0.15187887 -0.21113278
v 0.17776410 -0.13608079 -0.20391350
v 0.17776410 -0.14859398 -0.19936594
v 0.16056772 -0.18195785 -0.20750992
v 0.02387183 -0.18195089 -0.18251654
v 0.02351526 -0.18195089 -0.18256609
v 0.07818389 -0.18195089 -0.20739103
v 0.07888082 -0.18195089 -0.20746039
v 0.08033952 -0.18195089 -0.20759249
v 0.10888130 -0.18195089 -0.20973912
v 0.11043725 -0.18195089 -0.20985470
v 0.11197698 -0.18195089 -0.20993397
v 0.11291703 -0.18195089 -0.20997029
v 0.12683946 -0.18195089 -0.21010239
v 0.12747156 -0.18195089 -0.21009910
v 0.12901130 -0.18195089 -0.21007267
v 0.12995134 -0.18195089 -0.21004295
v 0.13202593 -0.18195785 -0.20995709
v 0.13366291 -0.18195785 -0.20988112
v 0.13521885 -0.18195785 -0.20979195
v 0.13679100 -0.18195785 -0.20968958
v 0.15786102 -0.18195785 -0.20821667
v 0.15789344 -0.18195785 -0.20821336
v 0.15849313 -0.18195785 -0.20809778
v 0.15941697 -0.18195785 -0.20790953
v 0.17183208 -0.13325523 -0.20667440
v 0.12322514 -0.14455051 -0.21365259
v 0.15786102 -0.12706127 -0.20782366
v 0.16097292 -0.12752757 -0.20745708
v 0.12222026 -0.14407030 -0.21372525
v 0.15786102 -0.12585032 -0.20754626
v 0.15786102 -0.12395038 -0.20664466
v 0.15786102 -0.12273246 -0.20603701
v 0.15786102 -0.12085339 -0.20507598
v 0.15786102 -0.11743628 -0.20332234
v 0.15632130 -0.12482728 -0.20730187
v 0.06638467 -0.15956913 -0.20902578
v 0.06171685 -0.17047467 -0.20628470
v 0.07191151 -0.15720290 -0.21043925
v 0.07494235 -0.16965345 -0.20889698
v 0.06986933 -0.15460004 -0.21052511
v 0.06161960 -0.17211712 -0.20598747
v 0.07095525 -0.16588836 -0.20880121
v 0.07541237 -0.17668950 -0.20778734
v 0.07604447 -0.17945939 -0.20743066
v 0.07541237 -0.17970993 -0.20726885
v 0.07411575 -0.17977257 -0.20701455
v 0.07401851 -0.16905493 -0.20883092
v 0.03541172 -0.11743628 -0.20267835
v 0.04620607 -0.11745716 -0.20474243
v 0.04620607 -0.11929447 -0.20514864
v 0.04466633 -0.12085339 -0.20518165
v 0.04311039 -0.12240536 -0.20513873
v 0.04001472 -0.12395733 -0.20476884
v 0.04620607 -0.12085339 -0.20546568
v 0.04716232 -0.12182773 -0.20577281
v 0.05085768 -0.12706127 -0.20691878
v 0.05550929 -0.12240536 -0.20698153
v 0.05972330 -0.12044974 -0.20730848
v 0.05625485 -0.12469504 -0.20735471
v 0.07985328 -0.13742398 -0.21197161
v 0.08087437 -0.13699944 -0.21203766
v 0.10669327 -0.13945615 -0.21426686
v 0.10669327 -0.14100117 -0.21430979
v 0.07944809 -0.13909426 -0.21203106
v 0.07411575 -0.15187887 -0.21139037
v 0.07255981 -0.15187887 -0.21127479
v 0.07255981 -0.15340301 -0.21106673
v 0.07255981 -0.15495498 -0.21084215
v 0.07865391 -0.18147765 -0.20751983
v 0.08033952 -0.18133150 -0.20771469
v 0.08191166 -0.18133150 -0.20784018
v 0.09431057 -0.17512362 -0.21000332
v 0.10515353 -0.17977952 -0.20989103
v 0.09585030 -0.17512362 -0.21010901
v 0.10980515 -0.18133150 -0.20992406
v 0.11134488 -0.18133150 -0.21000332
v 0.11291703 -0.18133150 -0.21006607
v 0.12683946 -0.17948723 -0.21053171
v 0.12683946 -0.18025974 -0.21040953
v 0.12683946 -0.18133150 -0.21022128
v 0.12839540 -0.18133150 -0.21019816
v 0.12839540 -0.18020406 -0.21039631
v 0.12995134 -0.18133150 -0.21015193
v 0.13056723 -0.18195089 -0.21001984
v 0.13202593 -0.18154028 -0.21002644
v 0.12839540 -0.17943154 -0.21052842
v 0.12961098 -0.17922973 -0.21048879
v 0.13460296 -0.18133150 -0.20991084
v 0.13615889 -0.18133150 -0.20980517
v 0.13064827 -0.17892351 -0.21044585
v 0.13004859 -0.17833195 -0.21053833
v 0.12222026 -0.14566403 -0.21375828
v 0.12319272 -0.14566403 -0.21363608
v 0.12064811 -0.14411206 -0.21387055
v 0.11755244 -0.14256009 -0.21393329
v 0.11290083 -0.14100117 -0.21407861
v 0.10824921 -0.13945615 -0.21420741
v 0.15632130 -0.12706127 -0.20795247
v 0.15632130 -0.12560674 -0.20763872
v 0.14547833 -0.11743628 -0.20474903
v 0.10361380 -0.11743628 -0.20759580
v 0.14508935 -0.11743628 -0.20478206
v 0.07247877 -0.15661134 -0.21058786
v 0.07724384 -0.17197792 -0.20880121
v 0.07879978 -0.17977952 -0.20779724
v 0.06338624 -0.11745716 -0.20743397
v 0.06230033 -0.11745716 -0.20729196
v 0.05860497 -0.11745716 -0.20678007
v 0.05704903 -0.11745716 -0.20654889
v 0.05396956 -0.11745716 -0.20606342
v 0.05277019 -0.11745716 -0.20586858
v 0.04776200 -0.11745716 -0.20502644
v 0.07570411 -0.11743628 -0.20788972
v 0.04776200 -0.11929447 -0.20541283
v 0.04975556 -0.11982339 -0.20585207
v 0.04873447 -0.12028272 -0.20576950
v 0.05860497 -0.11774945 -0.20682961
v 0.05550929 -0.11929447 -0.20659843
v 0.06479632 -0.11745716 -0.20758257
v 0.10205786 -0.11743628 -0.20768826
v 0.10824921 -0.13809209 -0.21379129
v 0.10824921 -0.14100117 -0.21432630
v 0.06636846 -0.11745716 -0.20767506
v 0.06761646 -0.11745716 -0.20773120
v 0.06917240 -0.11745716 -0.20778403
v 0.07071214 -0.11745716 -0.20782035
v 0.07411575 -0.11745716 -0.20787321
v 0.11291703 -0.16272178 -0.21238773
v 0.10205786 -0.15187191 -0.21306475
v 0.09896218 -0.15341692 -0.21279063
v 0.09275463 -0.15652085 -0.21223912
v 0.09121490 -0.15652085 -0.21216976
v 0.08841096 -0.15604065 -0.21204098
v 0.09025864 -0.15741168 -0.21202115
v 0.09121490 -0.15850432 -0.21196172
v 0.09215494 -0.17112887 -0.21043925
v 0.07541237 -0.15778749 -0.21071666
v 0.08572048 -0.16663302 -0.21046237
v 0.07411575 -0.16116285 -0.21008258
v 0.08033952 -0.17977952 -0.20795907
v 0.08191166 -0.17977952 -0.20811428
v 0.08591498 -0.17735761 -0.20889038
v 0.08695227 -0.17764992 -0.20894321
v 0.09275463 -0.17512362 -0.20988112
v 0.09275463 -0.17357164 -0.21014864
v 0.09431057 -0.17357164 -0.21026091
v 0.10515353 -0.17822059 -0.21013873
v 0.11291703 -0.16427374 -0.21220279
v 0.12683946 -0.17822059 -0.21068034
v 0.12839540 -0.17822059 -0.21065060
v 0.12064811 -0.14566403 -0.21379129
v 0.11755244 -0.14411206 -0.21399275
v 0.11909217 -0.14411206 -0.21394321
v 0.11601270 -0.14256009 -0.21402907
v 0.11134488 -0.14100117 -0.21418098
v 0.10980515 -0.13734047 -0.21349076
v 0.07755179 -0.16072440 -0.21050200
v 0.08648224 -0.17677302 -0.20903569
v 0.05704903 -0.11774945 -0.20660174
v 0.05550929 -0.11774945 -0.20636725
v 0.05396956 -0.11774945 -0.20612618
v 0.05142495 -0.11836189 -0.20583224
v 0.11290083 -0.14256009 -0.21416118
v 0.11134488 -0.14256009 -0.21417438
v 0.09121490 -0.15772486 -0.21205747
v 0.09320844 -0.17146987 -0.21048219
v 0.09272222 -0.17199880 -0.21036990
v 0.08965896 -0.17201968 -0.21006607
v 0.09121490 -0.17512362 -0.20975232
v 0.09121490 -0.17357164 -0.20999341
f 1 2 6
f 1 6 15
f 1 15 31
f 1 31 71
f 1 71 70
f 1 70 69
f 1 69 68
f 1 68 67
f 1 67 66
f 1 66 129
f 1 129 128
f 1 128 83
f 1 83 41
f 1 41 35
f 1 35 17
f 1 17 8
f 1 8 3
f 1 3 13
f 1 13 25
f 1 25 48
f 1 48 88
f 1 88 161
f 1 161 227
f 1 227 229
f 1 229 228
f 1 228 247
f 1 247 240
f 1 240 175
f 1 175 110
f 1 110 109
f 1 109 108
f 1 108 58
f 1 58 57
f 1 57 56
f 1 56 55
f 1 55 50
f 1 50 27
f 1 27 14
f 1 14 4
f 1 4 5
f 1 5 2
f 2 5 7
f 2 7 6
f 3 8 9
f 3 9 10
f 3 10 11
f 3 11 12
f 3 12 13
f 4 14 26
f 4 26 49
f 4 49 90
f 4 90 102
f 4 102 101
f 4 101 100
f 4 100 99
f 4 99 98
f 4 98 97
f 4 97 96
f 4 96 95
f 4 95 94
f 4 94 93
f 4 93 73
f 4 73 33
f 4 33 16
f 4 16 7
f 4 7 5
f 6 7 16
f 6 16 15
f 8 17 9
f 9 18 19
f 9 19 10
f 9 17 20
f 9 20 18
f 10 19 21
f 10 21 22
f 10 22 11
f 11 22 23
f 11 23 24
f 11 24 12
f 12 24 25
f 12 25 13
f 14 27 28
f 14 28 29
f 14 29 26
f 15 30 31
f 15 16 32
f 15 32 30
f 16 33 34
f 16 34 32
f 17 35 20
f 18 20 36
f 18 36 37
f 18 37 38
f 18 38 39
f 18 39 40
f 18 40 21
f 18 21 19
f 20 35 41
f 20 41 42
f 20 42 36
f 21 40 43
f 21 43 44
f 21 44 45
f 21 45 22
f 22 45 23
f 23 45 46
f 23 46 47
f 23 47 25
f 23 25 24
f 25 47 48
f 26 29 49
f 27 50 28
f 28 51 52
f 28 52 53
f 28 53 54
f 28 54 29
f 28 50 55
f 28 55 56
f 28 56 57
f 28 57 58
f 28 58 59
f 28 59 60
f 28 60 61
f 28 61 62
f 28 62 63
f 28 63 64
f 28 64 51
f 29 54 49
f 30 65 129
f 30 129 66
f 30 66 67
f 30 67 68
f 30 68 69
f 30 69 70
f 30 70 71
f 30 71 31
f 30 32 72
f 30 72 65
f 32 34 72
f 33 73 54
f 33 54 74
f 33 74 75
f 33 75 76
f 33 76 34
f 34 77 72
f 34 76 77
f 36 78 37
f 36 42 41
f 36 41 78
f 37 78 79
f 37 79 38
f 38 79 80
f 38 80 81
f 38 81 82
f 38 82 39
f 39 82 40
f 40 82 81
f 40 81 43
f 41 83 84
f 41 84 78
f 43 81 44
f 44 85 45
f 44 81 86
f 44 86 85
f 45 85 46
f 46 85 48
f 46 48 47
f 48 87 88
f 48 85 86
f 48 86 89
f 48 89 87
f 49 54 90
f 51 64 52
f 52 91 53
f 52 64 92
f 52 92 91
f 53 91 54
f 54 72 74
f 54 73 93
f 54 93 94
f 54 94 95
f 54 95 96
f 54 96 97
f 54 97 98
f 54 98 99
f 54 99 100
f 54 100 101
f 54 101 102
f 54 102 90
f 54 91 103
f 54 103 104
f 54 104 105
f 54 105 106
f 54 106 107
f 54 107 72
f 58 108 59
f 59 109 110
f 59 110 111
f 59 111 60
f 59 108 109
f 60 111 61
f 61 111 112
f 61 112 113
f 61 113 114
f 61 114 115
f 61 115 116
f 61 116 117
f 61 117 62
f 62 118 119
f 62 119 63
f 62 117 120
f 62 120 121
f 62 121 122
f 62 122 123
f 62 123 118
f 63 124 125
f 63 125 64
f 63 119 123
f 63 123 124
f 64 125 126
f 64 126 127
f 64 127 92
f 65 78 84
f 65 84 83
f 65 83 128
f 65 128 129
f 65 72 130
f 65 130 78
f 72 77 131
f 72 131 132
f 72 132 74
f 72 107 133
f 72 133 134
f 72 134 135
f 72 135 136
f 72 136 137
f 72 137 138
f 72 138 139
f 72 139 140
f 72 140 141
f 72 141 142
f 72 142 143
f 72 143 144
f 72 144 145
f 72 145 146
f 72 146 147
f 72 147 148
f 72 148 149
f 72 149 150
f 72 150 151
f 72 151 130
f 74 132 75
f 75 132 131
f 75 131 77
f 75 77 76
f 78 130 151
f 78 151 79
f 79 152 80
f 79 151 150
f 79 150 149
f 79 149 153
f 79 153 152
f 80 154 155
f 80 155 81
f 80 152 153
f 80 153 156
f 80 156 154
f 81 155 157
f 81 157 86
f 86 157 89
f 87 89 158
f 87 158 88
f 88 158 159
f 88 159 160
f 88 160 161
f 89 157 162
f 89 162 158
f 91 92 163
f 91 163 164
f 91 164 104
f 91 104 103
f 92 127 165
f 92 165 166
f 92 166 167
f 92 167 163
f 104 164 168
f 104 168 105
f 105 168 163
f 105 163 169
f 105 169 170
f 105 170 171
f 105 171 172
f 105 172 173
f 105 173 107
f 105 107 106
f 107 171 170
f 107 170 174
f 107 174 166
f 107 166 133
f 107 173 172
f 107 172 171
f 110 175 176
f 110 176 177
f 110 177 178
f 110 178 179
f 110 179 180
f 110 180 113
f 110 113 111
f 111 113 112
f 113 180 114
f 114 180 179
f 114 179 178
f 114 178 181
f 114 181 115
f 115 181 182
f 115 182 183
f 115 183 121
f 115 121 120
f 115 120 116
f 116 120 117
f 118 123 119
f 121 183 184
f 121 184 185
f 121 185 186
f 121 186 187
f 121 187 122
f 122 187 123
f 123 187 188
f 123 188 189
f 123 189 190
f 123 190 191
f 123 191 124
f 124 191 190
f 124 190 125
f 125 192 193
f 125 193 126
f 125 190 192
f 126 193 127
f 127 193 194
f 127 194 195
f 127 195 165
f 133 166 196
f 133 196 197
f 133 197 134
f 134 197 135
f 135 197 198
f 135 198 136
f 136 198 199
f 136 199 200
f 136 200 137
f 137 200 199
f 137 199 201
f 137 201 202
f 137 202 203
f 137 203 138
f 138 203 204
f 138 204 139
f 139 204 205
f 139 205 206
f 139 206 207
f 139 207 140
f 140 207 141
f 141 207 208
f 141 208 142
f 142 208 209
f 142 209 210
f 142 210 143
f 143 210 211
f 143 211 144
f 144 211 210
f 144 210 212
f 144 212 145
f 145 212 213
f 145 213 214
f 145 214 146
f 146 214 215
f 146 215 147
f 147 215 216
f 147 216 148
f 148 216 214
f 148 214 217
f 148 217 218
f 148 218 219
f 148 219 149
f 149 219 220
f 149 220 153
f 153 220 219
f 153 219 221
f 153 221 156
f 154 157 155
f 154 156 222
f 154 222 223
f 154 223 224
f 154 224 225
f 154 225 226
f 154 226 157
f 156 221 222
f 157 226 162
f 158 162 159
f 159 162 160
f 160 162 161
f 161 162 227
f 162 226 228
f 162 228 229
f 162 229 227
f 163 167 169
f 163 168 164
f 165 195 230
f 165 230 231
f 165 231 232
f 165 232 166
f 166 174 167
f 166 232 196
f 167 174 169
f 169 174 170
f 175 233 234
f 175 234 235
f 175 235 236
f 175 236 237
f 175 237 238
f 175 238 239
f 175 239 176
f 175 240 233
f 176 239 177
f 177 239 241
f 177 241 181
f 177 181 178
f 181 241 242
f 181 242 243
f 181 243 182
f 182 243 242
f 182 242 244
f 182 244 245
f 182 245 184
f 182 184 183
f 184 245 244
f 184 244 234
f 184 234 185
f 185 234 187
f 185 187 186
f 187 234 233
f 187 233 188
f 188 233 246
f 188 246 189
f 189 247 248
f 189 248 224
f 189 224 249
f 189 249 190
f 189 246 250
f 189 250 251
f 189 251 252
f 189 252 253
f 189 253 254
f 189 254 240
f 189 240 247
f 190 249 255
f 190 255 256
f 190 256 257
f 190 257 258
f 190 258 259
f 190 259 260
f 190 260 192
f 192 260 193
f 193 260 261
f 193 261 262
f 193 262 263
f 193 263 194
f 194 264 195
f 194 263 265
f 194 265 264
f 195 266 230
f 195 264 266
f 196 232 267
f 196 267 197
f 197 267 268
f 197 268 269
f 197 269 270
f 197 270 198
f 198 270 199
f 199 271 272
f 199 272 273
f 199 273 201
f 199 270 271
f 201 273 202
f 202 273 203
f 203 273 274
f 203 274 275
f 203 275 204
f 204 275 205
f 205 276 213
f 205 213 206
f 205 275 255
f 205 255 276
f 206 213 209
f 206 209 207
f 207 209 208
f 209 213 210
f 210 213 212
f 213 277 214
f 213 276 277
f 214 277 218
f 214 218 217
f 214 216 215
f 218 277 219
f 219 278 279
f 219 279 280
f 219 280 221
f 219 277 278
f 221 280 281
f 221 281 222
f 222 281 282
f 222 282 223
f 223 282 224
f 224 248 283
f 224 283 226
f 224 226 225
f 224 282 249
f 226 283 247
f 226 247 228
f 230 266 231
f 231 284 265
f 231 265 285
f 231 285 267
f 231 267 232
f 231 266 284
f 233 240 246
f 234 244 235
f 235 244 286
f 235 286 236
f 236 286 287
f 236 287 288
f 236 288 237
f 237 288 238
f 238 288 289
f 238 289 241
f 238 241 239
f 240 254 253
f 240 253 252
f 240 252 251
f 240 251 250
f 240 250 246
f 241 289 242
f 242 289 288
f 242 288 287
f 242 287 286
f 242 286 244
f 247 283 248
f 249 282 281
f 249 281 280
f 249 280 290
f 249 290 291
f 249 291 255
f 255 258 257
f 255 257 256
f 255 291 279
f 255 279 278
f 255 278 277
f 255 277 276
f 255 275 292
f 255 292 258
f 258 292 259
f 259 292 260
f 260 292 261
f 261 292 262
f 262 292 293
f 262 293 263
f 263 293 294
f 263 294 265
f 264 265 284
f 264 284 266
f 265 294 272
f 265 272 295
f 265 295 285
f 267 285 269
f 267 269 268
f 269 285 272
f 269 272 270
f 270 272 296
f 270 296 271
f 271 296 272
f 272 285 297
f 272 297 295
f 272 294 293
f 272 293 273
f 273 293 274
f 274 293 275
f 275 293 292
f 279 291 290
f 279 290 280
f 285 295 297

