# https://github.com/mikedh/trimesh
v -0.13971429 -0.12234281 -0.19503759
v -0.13834726 -0.12242748 -0.19503759
v -0.13834726 -0.12494634 -0.19924802
v -0.13971429 -0.12497809 -0.19937641
v -0.20404177 -0.14031354 -0.19848900
v -0.20605359 -0.14031354 -0.19763558
v -0.20605359 -0.14031354 -0.18585773
v 0.00273983 -0.16641236 -0.17847155
v -0.13710921 -0.12255448 -0.19503759
v -0.13679969 -0.12331649 -0.19629882
v -0.13679969 -0.12476643 -0.19877976
v -0.13525212 -0.12585652 -0.20013920
v -0.13679969 -0.12577185 -0.20019961
v -0.13834726 -0.12571894 -0.20022604
v -0.13971429 -0.12569777 -0.20024115
v -0.20117873 -0.14031354 -0.19951235
v -0.20257156 -0.14031354 -0.19903655
v -0.19184172 -0.14876973 -0.20422878
v -0.20605359 -0.14876973 -0.19757140
v -0.20610518 -0.16862431 -0.18274617
v -0.20605359 -0.17318579 -0.18038606
v 0.04305411 -0.20460811 -0.18151136
v 0.04460168 -0.20460811 -0.18158311
v 0.00423582 -0.16641236 -0.17856595
v -0.13561322 -0.12275557 -0.19503759
v -0.13525212 -0.12508393 -0.19899879
v -0.13370455 -0.12602586 -0.19995416
v -0.13370455 -0.12667145 -0.20073583
v -0.13525212 -0.12656562 -0.20091330
v -0.13679969 -0.12651270 -0.20098128
v -0.13834726 -0.12648095 -0.20100393
v -0.13971429 -0.12645978 -0.20101904
v -0.18402647 -0.14031354 -0.20422501
v -0.19885738 -0.14031354 -0.20019961
v -0.19050048 -0.14783838 -0.20459129
v -0.18954615 -0.14876973 -0.20508220
v -0.19065525 -0.14907665 -0.20469703
v -0.19062945 -0.15032550 -0.20454976
v -0.20605359 -0.15516214 -0.19711448
v -0.20605359 -0.15345821 -0.19733728
v -0.20605359 -0.15214585 -0.19742412
v -0.20605359 -0.15032550 -0.19752609
v -0.20605359 -0.17318579 -0.19233007
v -0.20605359 -0.15653800 -0.19684637
v -0.20605359 -0.16429567 -0.19523773
v -0.20605359 -0.16530110 -0.19501493
v -0.20605359 -0.17205335 -0.19277567
v -0.14121028 -0.20046996 -0.19436920
v -0.11350871 -0.21151912 -0.19413509
v -0.11247700 -0.21186837 -0.19413509
v -0.07946211 -0.22194383 -0.19413509
v -0.05003242 -0.22866433 -0.19413509
v -0.04845905 -0.22901358 -0.19413509
v -0.03984423 -0.23046352 -0.19413509
v 0.04614926 -0.20460811 -0.18188898
v 0.04790318 -0.20460811 -0.18225149
v 0.00583498 -0.16641236 -0.17891713
v -0.12617302 -0.12457592 -0.19503759
v -0.12748846 -0.12439600 -0.19520374
v -0.13058361 -0.12389858 -0.19538501
v -0.13481364 -0.12467117 -0.19815294
v -0.13215697 -0.12493576 -0.19771867
v -0.10424907 -0.13224893 -0.19989374
v -0.10806642 -0.13248177 -0.20115875
v -0.13091892 -0.12774038 -0.20126827
v -0.13215697 -0.12760280 -0.20137022
v -0.12594089 -0.13054500 -0.20299776
v -0.13370455 -0.12744405 -0.20143442
v -0.13525212 -0.12735938 -0.20147596
v -0.13679969 -0.12729587 -0.20151749
v -0.13834726 -0.12725354 -0.20155903
v -0.13971429 -0.12723237 -0.20159302
v -0.16984037 -0.14035587 -0.20729126
v -0.17280656 -0.14031354 -0.20684566
v -0.17778460 -0.14031354 -0.20575812
v -0.18645101 -0.14566877 -0.20508597
v -0.18970092 -0.14707637 -0.20461395
v -0.18954615 -0.15032550 -0.20493115
v -0.18799857 -0.14723512 -0.20510485
v -0.18260786 -0.14487501 -0.20581099
v -0.18412964 -0.14645195 -0.20579589
v -0.18799857 -0.14876973 -0.20538429
v -0.18575460 -0.15073826 -0.20581477
v -0.20182357 -0.16726963 -0.19615911
v -0.20350012 -0.16738604 -0.19552849
v -0.20350012 -0.16583027 -0.19589855
v -0.20512507 -0.16585144 -0.19525661
v -0.20463499 -0.17159827 -0.19355734
v -0.20504768 -0.17318579 -0.19271903
v -0.20589884 -0.16627478 -0.19484123
v -0.20587306 -0.17093151 -0.19327790
v -0.18954615 -0.17318579 -0.19728064
v -0.12717894 -0.18851065 -0.20594316
v -0.07917838 -0.20093565 -0.20903584
v -0.07791453 -0.20189874 -0.20864690
v -0.06924812 -0.20068165 -0.21044058
v -0.03984423 -0.20983634 -0.20759713
v -0.01740441 -0.20460811 -0.21086728
v -0.00190289 -0.20460811 -0.20935305
v 0.00010896 -0.20460811 -0.20913025
v 0.00428740 -0.20460811 -0.20849963
v 0.00583498 -0.20460811 -0.20817865
v 0.01671958 -0.20460811 -0.20582988
v 0.01772550 -0.20460811 -0.20556177
v 0.05739496 -0.20460811 -0.19493941
v 0.05739496 -0.20460811 -0.18526864
v 0.05538312 -0.20460811 -0.18456627
v 0.05391292 -0.20460811 -0.18406028
v 0.05246852 -0.20460811 -0.18356937
v 0.05061143 -0.20460811 -0.18296140
v 0.04924441 -0.20460811 -0.18256869
v 0.01674537 -0.16671929 -0.18137542
v -0.11619117 -0.12674553 -0.19503759
v -0.10734421 -0.13068258 -0.19844370
v -0.10316577 -0.13238652 -0.19972759
v -0.09393192 -0.13708558 -0.20277496
v -0.11446305 -0.13252410 -0.20266922
v -0.12439332 -0.13070375 -0.20292223
v -0.12129817 -0.13266169 -0.20413060
v -0.12400642 -0.13252410 -0.20422501
v -0.13679969 -0.12844947 -0.20229916
v -0.13834726 -0.12839656 -0.20234070
v -0.13971429 -0.12924323 -0.20298265
v -0.13971429 -0.12833305 -0.20235958
v -0.16862812 -0.14031354 -0.20741209
v -0.17120740 -0.14052521 -0.20715530
v -0.16741585 -0.14031354 -0.20754803
v -0.16473339 -0.14103321 -0.20809558
v -0.16628097 -0.14103321 -0.20792188
v -0.16163824 -0.14290649 -0.20902830
v -0.17241967 -0.14117080 -0.20712510
v -0.17404462 -0.14067338 -0.20671727
v -0.17559218 -0.14067338 -0.20638120
v -0.17610806 -0.16484602 -0.20418347
v -0.17133637 -0.14163647 -0.20738566
v -0.16561035 -0.14631436 -0.20891878
v -0.15696972 -0.15342645 -0.21119580
v -0.15851730 -0.15342645 -0.21092770
v -0.16107081 -0.15412497 -0.21048589
v -0.16878288 -0.15435780 -0.20893766
v -0.17536006 -0.15507748 -0.20726482
v -0.20040496 -0.16778822 -0.19638946
v -0.20195254 -0.16893123 -0.19554737
v -0.20360327 -0.16900532 -0.19495074
v -0.20445445 -0.16777764 -0.19501493
v -0.20277790 -0.16976732 -0.19496206
v -0.20378383 -0.17291062 -0.19323259
v -0.16042597 -0.17290004 -0.20565617
v -0.15923952 -0.17316462 -0.20586009
v -0.12761742 -0.18768514 -0.20625280
v -0.12591510 -0.18754756 -0.20672483
v -0.12403221 -0.18694431 -0.20744985
v -0.10525499 -0.18220291 -0.21359368
v -0.07946211 -0.19860729 -0.21018002
v -0.07791453 -0.19993022 -0.20977220
v -0.07791453 -0.20111556 -0.20914913
v -0.07017666 -0.20058639 -0.21038394
v -0.06398637 -0.19895654 -0.21190951
v -0.06282569 -0.19907295 -0.21197370
v -0.05403032 -0.20073456 -0.21201146
v -0.04538970 -0.20418477 -0.21067847
v -0.03984423 -0.20872508 -0.20830327
v -0.01895199 -0.20113673 -0.21216251
v -0.01740441 -0.20305234 -0.21143371
v -0.03984423 -0.20775140 -0.20888479
v -0.04226876 -0.20508437 -0.21030085
v -0.04538970 -0.20203633 -0.21189063
v -0.04693727 -0.20164473 -0.21207565
v -0.04693727 -0.19993022 -0.21284600
v -0.01121412 -0.20305234 -0.21082575
v -0.00976972 -0.20311584 -0.21065582
v -0.00809318 -0.20271366 -0.21059917
v 0.00116647 -0.20449169 -0.20905095
v 0.00261087 -0.20436469 -0.20887725
v 0.05739496 -0.18195949 -0.20228405
v 0.05739496 -0.18791798 -0.20053191
v 0.05739496 -0.18909275 -0.20018073
v 0.05739496 -0.19574974 -0.19814537
v 0.05739496 -0.19837445 -0.19730329
v 0.05739496 -0.20080864 -0.19645743
v 0.05739496 -0.20305234 -0.19558136
v 0.05739496 -0.18195949 -0.19333831
v 0.01679695 -0.16671929 -0.19087625
v -0.09707865 -0.13224893 -0.19503759
v -0.10084440 -0.13111651 -0.19503759
v -0.11232224 -0.12771922 -0.19503759
v -0.11399878 -0.12727471 -0.19503759
v -0.11043936 -0.12912681 -0.19694078
v -0.10620933 -0.13084134 -0.19823223
v -0.10424907 -0.13166685 -0.19882509
v -0.10267570 -0.13215369 -0.19888173
v -0.09029512 -0.13920227 -0.20380585
v -0.09184269 -0.13901177 -0.20403242
v -0.11977639 -0.13276752 -0.20401354
v -0.12129817 -0.13343429 -0.20464039
v -0.12284574 -0.13336020 -0.20470081
v -0.11977639 -0.13354012 -0.20455353
v -0.13215697 -0.13792167 -0.20825040
v -0.13058361 -0.13145517 -0.20391537
v -0.13834726 -0.12915857 -0.20285426
v -0.13834726 -0.13657757 -0.20771796
v -0.13971429 -0.13585790 -0.20731769
v -0.15542215 -0.14031354 -0.20879795
v -0.15851730 -0.14031354 -0.20849963
v -0.16566195 -0.14031354 -0.20773684
v -0.16628097 -0.14258899 -0.20831082
v -0.15696972 -0.14138247 -0.20905472
v -0.15851730 -0.14258899 -0.20931906
v -0.15696972 -0.14413417 -0.20991191
v -0.15851730 -0.14413417 -0.20971933
v -0.16269576 -0.14318166 -0.20894144
v -0.17339980 -0.16671929 -0.20428542
v -0.16119978 -0.17156651 -0.20588652
v -0.16782855 -0.14258899 -0.20808047
v -0.15851730 -0.14566877 -0.20994967
v -0.15947164 -0.15089701 -0.21048212
v -0.15696972 -0.15187068 -0.21099945
v -0.15542215 -0.15342645 -0.21143371
v -0.15387459 -0.15498222 -0.21173958
v -0.15542215 -0.15511981 -0.21150545
v -0.15686657 -0.15511981 -0.21125245
v -0.17069155 -0.15525740 -0.20828439
v -0.17394145 -0.15525740 -0.20754426
v -0.16068390 -0.15552198 -0.21041414
v -0.15696972 -0.15653800 -0.21099568
v -0.12506393 -0.18670089 -0.20733279
v -0.15851730 -0.17204278 -0.20636232
v -0.15696972 -0.17204278 -0.20668707
v -0.11938949 -0.17000017 -0.21520988
v -0.11750661 -0.17135485 -0.21512679
v -0.10827276 -0.18065772 -0.21359368
v -0.10731842 -0.18168432 -0.21339732
v -0.10628671 -0.18195949 -0.21349927
v -0.11420513 -0.17322812 -0.21508149
v -0.09269386 -0.18369518 -0.21511925
v -0.08255725 -0.18787565 -0.21488890
v -0.08031327 -0.19453265 -0.21202280
v -0.07175003 -0.19962329 -0.21067470
v -0.08098389 -0.18771689 -0.21519477
v -0.06862909 -0.19695626 -0.21231733
v -0.07791453 -0.18851065 -0.21519100
v -0.05160579 -0.19993022 -0.21262320
v -0.05003242 -0.20104148 -0.21221915
v -0.04848484 -0.20156007 -0.21204168
v -0.04384213 -0.20467161 -0.21048966
v -0.01895199 -0.19993022 -0.21240796
v -0.01639849 -0.20082981 -0.21203411
v -0.01740441 -0.20141191 -0.21197370
v -0.04072119 -0.19837445 -0.21329535
v -0.03945734 -0.19830036 -0.21330669
v -0.04538970 -0.19177036 -0.21521365
v -0.04848484 -0.18909275 -0.21599909
v -0.04693727 -0.18909275 -0.21596133
v -0.04848484 -0.18754756 -0.21636160
v -0.02052535 -0.19993022 -0.21248726
v -0.04848484 -0.19993022 -0.21283089
v -0.05041931 -0.19761244 -0.21355591
v -0.04693727 -0.19837445 -0.21332557
v -0.00682933 -0.20249142 -0.21051611
v -0.00190289 -0.20305234 -0.20977975
v -0.00035531 -0.20305234 -0.20957583
v -0.00190289 -0.20149656 -0.21000632
v -0.00399211 -0.19993022 -0.21050854
v -0.01023399 -0.19483957 -0.21204545
v -0.01276170 -0.19373889 -0.21254767
v -0.01276170 -0.19218312 -0.21265719
v -0.02826322 -0.18753698 -0.21450751
v -0.03347338 -0.18675379 -0.21512679
v -0.03135837 -0.18598121 -0.21475296
v -0.03520151 -0.18518745 -0.21511548
v -0.05312756 -0.17823411 -0.21582539
v -0.05624850 -0.17667834 -0.21581028
v -0.05931786 -0.17357737 -0.21511925
v -0.06089123 -0.17049758 -0.21422052
v -0.06241300 -0.16906882 -0.21385424
v -0.09841988 -0.15252686 -0.21207188
v -0.09705285 -0.14947882 -0.21048966
v -0.09571162 -0.14645195 -0.20889990
v -0.09339026 -0.14567935 -0.20819376
v -0.09339026 -0.14404950 -0.20738944
v -0.09235855 -0.14171056 -0.20584876
v -0.09029512 -0.13997487 -0.20441759
v -0.09862622 -0.13242886 -0.19663491
v -0.09958056 -0.13177268 -0.19573241
v -0.10520341 -0.13100009 -0.19792259
v -0.09184269 -0.13977378 -0.20454976
v -0.11665544 -0.13391054 -0.20436095
v -0.11820302 -0.13373062 -0.20447046
v -0.12284574 -0.13536047 -0.20593939
v -0.12707577 -0.13711733 -0.20737433
v -0.12903603 -0.13699033 -0.20744985
v -0.11820302 -0.13482072 -0.20512373
v -0.12129817 -0.13473605 -0.20541072
v -0.13370455 -0.13874719 -0.20887347
v -0.13971429 -0.13661991 -0.20780482
v -0.13468468 -0.13871543 -0.20889990
v -0.15387459 -0.14031354 -0.20885837
v -0.15542215 -0.14121313 -0.20909626
v -0.15696972 -0.14258899 -0.20947388
v -0.15717606 -0.14038763 -0.20866956
v -0.13971429 -0.13792167 -0.20846564
v -0.16009066 -0.14413417 -0.20949653
v -0.15696972 -0.14566877 -0.21018002
v -0.15542215 -0.14413417 -0.21002520
v -0.15387459 -0.14557352 -0.21048212
v -0.14768429 -0.14996566 -0.21194727
v -0.15526740 -0.14592278 -0.21042925
v -0.16006488 -0.17048700 -0.20644539
v -0.17125898 -0.15848535 -0.20725350
v -0.15653126 -0.14761613 -0.21050477
v -0.15542215 -0.15187068 -0.21122602
v -0.15175956 -0.15400855 -0.21199258
v -0.14146821 -0.15498222 -0.21327647
v -0.15157902 -0.15577599 -0.21200769
v -0.15387459 -0.15653800 -0.21157342
v -0.15542215 -0.15653800 -0.21132043
v -0.16021963 -0.16748130 -0.20724593
v -0.15748560 -0.16952391 -0.20729126
v -0.15542215 -0.15807259 -0.21090504
v -0.11982797 -0.16900532 -0.21524764
v -0.11662965 -0.17049758 -0.21550064
v -0.11809985 -0.17052933 -0.21528918
v -0.11505629 -0.17211686 -0.21529672
v -0.11196114 -0.17322812 -0.21544023
v -0.08410482 -0.18442544 -0.21618790
v -0.08255725 -0.18598121 -0.21579140
v -0.11198694 -0.17205335 -0.21580274
v -0.08100967 -0.18598121 -0.21599155
v -0.05003242 -0.19993022 -0.21275537
v -0.01740441 -0.19993022 -0.21227202
v -0.04693727 -0.18754756 -0.21627854
v -0.04538970 -0.18754756 -0.21614637
v -0.01562471 -0.20019479 -0.21203789
v -0.00579762 -0.20225857 -0.21044435
v -0.05624850 -0.19183386 -0.21522876
v -0.05624850 -0.18757931 -0.21644467
v -0.05470093 -0.18678555 -0.21666747
v -0.05312756 -0.18678555 -0.21666370
v -0.05219902 -0.18673262 -0.21665993
v -0.05186371 -0.19754893 -0.21353703
v -0.06365106 -0.18643629 -0.21675433
v -0.00360522 -0.20134840 -0.21028576
v -0.00499804 -0.19993022 -0.21067093
v -0.01116254 -0.19532641 -0.21212475
v -0.01276170 -0.19529466 -0.21233621
v -0.01585684 -0.19838502 -0.21230222
v -0.01430927 -0.19529466 -0.21252502
v -0.02981080 -0.18753698 -0.21469632
v -0.04693727 -0.18598121 -0.21630119
v -0.03981843 -0.18598121 -0.21564792
v -0.05003242 -0.18286967 -0.21622566
v -0.04848484 -0.18131390 -0.21588581
v -0.05312756 -0.17977930 -0.21613126
v -0.05624850 -0.17823411 -0.21620301
v -0.05470093 -0.17823411 -0.21602931
v -0.05779608 -0.17667834 -0.21598021
v -0.08756107 -0.16028454 -0.21361256
v -0.06241300 -0.17049758 -0.21441688
v -0.09795561 -0.15329946 -0.21232110
v -0.09958056 -0.15342645 -0.21249859
v -0.09958056 -0.15245278 -0.21212097
v -0.12903603 -0.14103321 -0.20959094
v -0.12903603 -0.13985845 -0.20910382
v -0.12748846 -0.13999603 -0.20903207
v -0.12511551 -0.14023945 -0.20890745
v -0.09958056 -0.14293824 -0.20757068
v -0.09566004 -0.14335099 -0.20735545
v -0.09506680 -0.14404950 -0.20762733
v -0.11043936 -0.13737133 -0.20567128
v -0.12594089 -0.13937161 -0.20852228
v -0.12903603 -0.13907527 -0.20869221
v -0.13058361 -0.13932928 -0.20896786
v -0.10234040 -0.14187989 -0.20729880
v -0.13215697 -0.13922345 -0.20901696
v -0.13594852 -0.13868368 -0.20890367
v -0.13058361 -0.14103321 -0.20968534
v -0.13215697 -0.14103321 -0.20973444
v -0.15542215 -0.14258899 -0.20954940
v -0.15387459 -0.14723512 -0.21080309
v -0.15604119 -0.14658953 -0.21042925
v -0.15387459 -0.14413417 -0.21007807
v -0.15232703 -0.14582753 -0.21064071
v -0.14146821 -0.15342645 -0.21319340
v -0.14611092 -0.15187068 -0.21244572
v -0.14301578 -0.15342645 -0.21304613
v -0.14456335 -0.15342645 -0.21284977
v -0.13981747 -0.15498222 -0.21346528
v -0.11817722 -0.16896299 -0.21545154
v -0.11508209 -0.17049758 -0.21567812
v -0.11043936 -0.17205335 -0.21601797
v -0.08255725 -0.18442544 -0.21639559
v -0.07948789 -0.18598121 -0.21610861
v -0.04848484 -0.18598121 -0.21643336
v -0.06243880 -0.18639396 -0.21677699
v -0.06555973 -0.18581187 -0.21687894
v -0.06398637 -0.18442544 -0.21704509
v -0.06243880 -0.18442544 -0.21699600
v -0.05003242 -0.18598121 -0.21653153
v -0.07427773 -0.18521920 -0.21666747
v -0.05470093 -0.17977930 -0.21626720
v -0.05624850 -0.17977930 -0.21636538
v -0.05779608 -0.17823411 -0.21628985
v -0.09493783 -0.17049758 -0.21619168
v -0.09336447 -0.16896299 -0.21581028
v -0.09029512 -0.16644412 -0.21515324
v -0.08719997 -0.16429567 -0.21456415
v -0.08565240 -0.16277166 -0.21414877
v -0.09029512 -0.15917328 -0.21349550
v -0.09648541 -0.15501398 -0.21273648
v -0.11043936 -0.15501398 -0.21328781
v -0.11353451 -0.15342645 -0.21298948
v -0.11820302 -0.14963757 -0.21197370
v -0.12748846 -0.14356266 -0.21038771
v -0.13370455 -0.14103321 -0.20971556
v -0.13058361 -0.14258899 -0.21017247
v -0.13215697 -0.14258899 -0.21019136
v -0.13370455 -0.14419767 -0.21065582
v -0.13370455 -0.14258899 -0.21018002
v -0.13525212 -0.14425059 -0.21065205
v -0.13834726 -0.15032550 -0.21240796
v -0.13971429 -0.15209294 -0.21290264
v -0.14146821 -0.15187068 -0.21277425
v -0.13976587 -0.15353229 -0.21330669
v -0.13842465 -0.15484464 -0.21354458
v -0.11043936 -0.17049758 -0.21616148
v -0.11198694 -0.17049758 -0.21602931
v -0.10889179 -0.17205335 -0.21614637
v -0.08214456 -0.18349409 -0.21664482
v -0.08111285 -0.18431960 -0.21652020
v -0.07948789 -0.18463710 -0.21653153
v -0.07525786 -0.18512394 -0.21664482
v -0.07017666 -0.18442544 -0.21696957
v -0.06862909 -0.18442544 -0.21702621
v -0.06710731 -0.18442544 -0.21704887
v -0.07175003 -0.18286967 -0.21701110
v -0.09184269 -0.17409596 -0.21670524
v -0.06089123 -0.18162082 -0.21670524
v -0.06089123 -0.18286967 -0.21681852
v -0.05354025 -0.18486994 -0.21662217
v -0.05470093 -0.18286967 -0.21653153
v -0.05779608 -0.17977930 -0.21643713
v -0.09493783 -0.17205335 -0.21646735
v -0.09648541 -0.17049758 -0.21624832
v -0.10267570 -0.16471901 -0.21517966
v -0.12588930 -0.15654857 -0.21406570
v -0.12284574 -0.15514097 -0.21366920
v -0.12467703 -0.15501398 -0.21368808
v -0.11508209 -0.15342645 -0.21302725
v -0.11665544 -0.15188127 -0.21260809
v -0.12284574 -0.14945766 -0.21203034
v -0.12903603 -0.15032550 -0.21241173
v -0.13679969 -0.15342645 -0.21332557
v -0.13834726 -0.15342645 -0.21332557
v -0.13058361 -0.15032550 -0.21242684
v -0.13679969 -0.14844164 -0.21187552
v -0.13834726 -0.15188127 -0.21286865
v -0.13692865 -0.15463297 -0.21358611
v -0.10889179 -0.17049758 -0.21621433
v -0.10267570 -0.17205335 -0.21641070
v -0.09426722 -0.17443464 -0.21666370
v -0.12903603 -0.15654857 -0.21406570
v -0.08526551 -0.18082706 -0.21667881
v -0.08456910 -0.18186424 -0.21664482
v -0.08098389 -0.17977930 -0.21689027
v -0.07332340 -0.18286967 -0.21699222
v -0.07634116 -0.18131390 -0.21695069
v -0.08719997 -0.17667834 -0.21678830
v -0.09336447 -0.17432880 -0.21668635
v -0.10115392 -0.17205335 -0.21645601
v -0.09958056 -0.17205335 -0.21647866
v -0.09648541 -0.17205335 -0.21649000
v -0.09800719 -0.17049758 -0.21627854
v -0.12748846 -0.15654857 -0.21410346
v -0.11665544 -0.15342645 -0.21306123
v -0.12759163 -0.15501398 -0.21374850
v -0.12903603 -0.15342645 -0.21331046
v -0.13215697 -0.15422022 -0.21355214
v -0.13215697 -0.15501398 -0.21376738
v -0.13378192 -0.15501398 -0.21373716
v -0.12908763 -0.15501398 -0.21376738
v -0.13055781 -0.15462239 -0.21366164
v -0.10731842 -0.17049758 -0.21622944
v -0.08879912 -0.17667834 -0.21676565
v -0.08719997 -0.17823411 -0.21674677
v -0.08565240 -0.17823411 -0.21680341
v -0.09958056 -0.17049758 -0.21627854
f 1 2 3
f 1 3 4
f 1 4 5
f 1 5 6
f 1 6 7
f 1 7 8
f 1 8 2
f 2 9 10
f 2 10 11
f 2 11 3
f 2 8 9
f 3 11 12
f 3 12 13
f 3 13 4
f 4 13 14
f 4 14 15
f 4 15 16
f 4 16 17
f 4 17 5
f 5 17 18
f 5 18 6
f 6 19 20
f 6 20 7
f 6 18 19
f 7 20 21
f 7 21 8
f 8 22 23
f 8 23 24
f 8 24 9
f 8 21 22
f 9 25 10
f 9 24 25
f 10 25 26
f 10 26 11
f 11 26 12
f 12 26 27
f 12 27 28
f 12 28 29
f 12 29 13
f 13 29 30
f 13 30 14
f 14 31 32
f 14 32 15
f 14 30 31
f 15 32 33
f 15 33 34
f 15 34 16
f 16 34 35
f 16 35 17
f 17 35 36
f 17 36 18
f 18 36 37
f 18 37 38
f 18 38 39
f 18 39 40
f 18 40 41
f 18 41 42
f 18 42 19
f 19 42 20
f 20 43 21
f 20 42 41
f 20 41 40
f 20 40 39
f 20 39 44
f 20 44 45
f 20 45 46
f 20 46 47
f 20 47 43
f 21 43 48
f 21 48 49
f 21 49 50
f 21 50 51
f 21 51 52
f 21 52 53
f 21 53 54
f 21 54 22
f 22 54 23
f 23 54 55
f 23 55 24
f 24 55 56
f 24 56 57
f 24 57 58
f 24 58 25
f 25 58 59
f 25 59 60
f 25 60 61
f 25 61 26
f 26 61 62
f 26 62 63
f 26 63 27
f 27 63 28
f 28 63 64
f 28 64 65
f 28 65 66
f 28 66 29
f 29 66 67
f 29 67 68
f 29 68 30
f 30 68 69
f 30 69 70
f 30 70 71
f 30 71 72
f 30 72 31
f 31 72 32
f 32 72 73
f 32 73 74
f 32 74 75
f 32 75 33
f 33 75 76
f 33 76 77
f 33 77 34
f 34 77 35
f 35 77 36
f 36 78 37
f 36 77 79
f 36 79 80
f 36 80 81
f 36 81 82
f 36 82 83
f 36 83 78
f 37 78 38
f 38 78 84
f 38 84 85
f 38 85 86
f 38 86 87
f 38 87 46
f 38 46 45
f 38 45 44
f 38 44 39
f 43 47 88
f 43 88 89
f 43 89 48
f 46 87 90
f 46 90 47
f 47 90 91
f 47 91 88
f 48 89 92
f 48 92 93
f 48 93 49
f 49 94 50
f 49 93 94
f 50 94 95
f 50 95 51
f 51 95 52
f 52 95 53
f 53 95 96
f 53 96 54
f 54 97 98
f 54 98 99
f 54 99 100
f 54 100 101
f 54 101 102
f 54 102 103
f 54 103 104
f 54 104 105
f 54 105 106
f 54 106 107
f 54 107 108
f 54 108 109
f 54 109 110
f 54 110 111
f 54 111 56
f 54 56 55
f 54 96 97
f 56 111 112
f 56 112 57
f 57 112 58
f 58 112 113
f 58 113 114
f 58 114 59
f 59 114 62
f 59 62 60
f 60 62 61
f 62 114 63
f 63 114 115
f 63 115 116
f 63 116 64
f 64 116 117
f 64 117 65
f 65 118 66
f 65 117 118
f 66 118 67
f 67 118 119
f 67 119 68
f 68 119 120
f 68 120 69
f 69 121 70
f 69 120 121
f 70 121 122
f 70 122 123
f 70 123 71
f 71 123 124
f 71 124 72
f 72 124 125
f 72 125 73
f 73 126 74
f 73 125 127
f 73 127 128
f 73 128 129
f 73 129 130
f 73 130 126
f 74 126 131
f 74 131 132
f 74 132 133
f 74 133 75
f 75 80 76
f 75 133 80
f 76 79 77
f 76 80 79
f 78 83 134
f 78 134 84
f 80 133 132
f 80 132 131
f 80 131 81
f 81 131 135
f 81 135 136
f 81 136 137
f 81 137 82
f 82 137 138
f 82 138 139
f 82 139 83
f 83 139 140
f 83 140 141
f 83 141 134
f 84 142 143
f 84 143 144
f 84 144 85
f 84 134 142
f 85 144 145
f 85 145 90
f 85 90 87
f 85 87 86
f 88 144 146
f 88 146 89
f 88 91 144
f 89 146 147
f 89 147 92
f 90 145 91
f 91 145 144
f 92 147 146
f 92 146 143
f 92 143 148
f 92 148 149
f 92 149 93
f 93 150 151
f 93 151 152
f 93 152 94
f 93 149 150
f 94 153 154
f 94 154 155
f 94 155 156
f 94 156 95
f 94 152 153
f 95 156 96
f 96 156 157
f 96 157 158
f 96 158 159
f 96 159 160
f 96 160 97
f 97 160 161
f 97 161 162
f 97 162 98
f 98 163 164
f 98 164 99
f 98 162 165
f 98 165 166
f 98 166 167
f 98 167 168
f 98 168 169
f 98 169 163
f 99 164 170
f 99 170 171
f 99 171 172
f 99 172 173
f 99 173 100
f 100 173 101
f 101 173 174
f 101 174 175
f 101 175 102
f 102 175 103
f 103 175 176
f 103 176 177
f 103 177 178
f 103 178 179
f 103 179 180
f 103 180 104
f 104 180 181
f 104 181 105
f 105 181 180
f 105 180 179
f 105 179 178
f 105 178 177
f 105 177 176
f 105 176 175
f 105 175 182
f 105 182 106
f 106 182 112
f 106 112 107
f 107 112 108
f 108 112 109
f 109 112 110
f 110 112 111
f 112 182 183
f 112 183 184
f 112 184 185
f 112 185 186
f 112 186 187
f 112 187 113
f 113 187 188
f 113 188 114
f 114 188 189
f 114 189 115
f 115 189 190
f 115 190 191
f 115 191 175
f 115 175 116
f 116 192 193
f 116 193 194
f 116 194 117
f 116 175 192
f 117 194 118
f 118 194 119
f 119 195 196
f 119 196 120
f 119 194 197
f 119 197 195
f 120 196 198
f 120 198 199
f 120 199 121
f 121 200 123
f 121 123 122
f 121 199 200
f 123 200 201
f 123 201 202
f 123 202 203
f 123 203 204
f 123 204 205
f 123 205 127
f 123 127 124
f 124 127 125
f 126 130 206
f 126 206 135
f 126 135 131
f 127 205 128
f 128 205 207
f 128 207 208
f 128 208 129
f 129 208 130
f 130 208 209
f 130 209 210
f 130 210 211
f 130 211 206
f 134 212 142
f 134 141 213
f 134 213 212
f 135 206 214
f 135 214 136
f 136 214 215
f 136 215 216
f 136 216 137
f 137 216 217
f 137 217 218
f 137 218 219
f 137 219 220
f 137 220 138
f 138 220 221
f 138 221 139
f 139 221 140
f 140 222 223
f 140 223 141
f 140 221 224
f 140 224 225
f 140 225 222
f 141 223 213
f 142 212 143
f 143 146 144
f 143 212 148
f 148 213 149
f 148 212 213
f 149 226 151
f 149 151 150
f 149 213 227
f 149 227 228
f 149 228 229
f 149 229 230
f 149 230 231
f 149 231 232
f 149 232 226
f 151 226 152
f 152 226 232
f 152 232 233
f 152 233 153
f 153 233 234
f 153 234 235
f 153 235 154
f 154 235 236
f 154 236 237
f 154 237 155
f 155 238 157
f 155 157 156
f 155 237 239
f 155 239 238
f 157 238 158
f 158 238 240
f 158 240 241
f 158 241 159
f 159 241 242
f 159 242 160
f 160 242 243
f 160 243 161
f 161 244 245
f 161 245 162
f 161 243 244
f 162 245 165
f 163 246 247
f 163 247 248
f 163 248 164
f 163 169 249
f 163 249 250
f 163 250 251
f 163 251 252
f 163 252 253
f 163 253 254
f 163 254 255
f 163 255 246
f 164 248 170
f 165 245 166
f 166 245 168
f 166 168 167
f 168 244 243
f 168 243 256
f 168 256 169
f 168 245 244
f 169 256 257
f 169 257 258
f 169 258 249
f 170 248 171
f 171 248 172
f 172 259 173
f 172 248 247
f 172 247 259
f 173 259 260
f 173 260 261
f 173 261 174
f 174 261 175
f 175 183 182
f 175 261 262
f 175 262 263
f 175 263 264
f 175 264 265
f 175 265 266
f 175 266 267
f 175 267 268
f 175 268 269
f 175 269 270
f 175 270 271
f 175 271 272
f 175 272 273
f 175 273 274
f 175 274 275
f 175 275 276
f 175 276 277
f 175 277 278
f 175 278 279
f 175 279 280
f 175 280 281
f 175 281 282
f 175 282 193
f 175 193 192
f 175 191 283
f 175 283 284
f 175 284 184
f 175 184 183
f 184 284 185
f 185 284 186
f 186 284 285
f 186 285 189
f 186 189 187
f 187 189 188
f 189 285 190
f 190 285 191
f 191 285 283
f 193 282 286
f 193 286 287
f 193 287 194
f 194 287 288
f 194 288 197
f 195 289 290
f 195 290 291
f 195 291 196
f 195 197 289
f 196 291 198
f 197 288 292
f 197 292 293
f 197 293 289
f 198 291 294
f 198 294 201
f 198 201 200
f 198 200 199
f 201 295 202
f 201 294 296
f 201 296 295
f 202 295 203
f 203 297 298
f 203 298 299
f 203 299 207
f 203 207 300
f 203 300 204
f 203 295 301
f 203 301 297
f 204 300 207
f 204 207 205
f 206 211 302
f 206 302 214
f 207 299 208
f 208 299 209
f 209 303 210
f 209 299 304
f 209 304 305
f 209 305 306
f 209 306 307
f 209 307 303
f 210 302 211
f 210 303 302
f 213 308 227
f 213 223 309
f 213 309 222
f 213 222 308
f 214 302 215
f 215 302 303
f 215 303 310
f 215 310 217
f 215 217 216
f 217 310 218
f 218 310 311
f 218 311 312
f 218 312 219
f 219 312 313
f 219 313 314
f 219 314 220
f 220 314 229
f 220 229 315
f 220 315 316
f 220 316 221
f 221 316 224
f 222 225 317
f 222 317 227
f 222 227 308
f 222 309 223
f 224 316 225
f 225 318 317
f 225 316 319
f 225 319 318
f 227 317 318
f 227 318 229
f 227 229 228
f 229 320 321
f 229 321 322
f 229 322 230
f 229 318 319
f 229 319 316
f 229 316 315
f 229 314 320
f 230 322 323
f 230 323 234
f 230 234 231
f 231 234 233
f 231 233 232
f 234 323 324
f 234 324 235
f 235 325 326
f 235 326 236
f 235 324 327
f 235 327 325
f 236 326 239
f 236 239 237
f 238 239 240
f 239 326 328
f 239 328 241
f 239 241 240
f 241 328 242
f 242 329 243
f 242 328 329
f 243 329 256
f 246 330 247
f 246 255 254
f 246 254 331
f 246 331 332
f 246 332 330
f 247 330 333
f 247 333 334
f 247 334 259
f 249 251 250
f 249 258 252
f 249 252 251
f 252 258 257
f 252 257 335
f 252 335 336
f 252 336 337
f 252 337 338
f 252 338 339
f 252 339 253
f 253 339 254
f 254 339 331
f 256 329 340
f 256 340 257
f 257 340 341
f 257 341 335
f 259 334 260
f 260 334 261
f 261 334 342
f 261 342 262
f 262 342 343
f 262 343 263
f 263 343 264
f 264 343 344
f 264 344 265
f 265 344 345
f 265 345 333
f 265 333 346
f 265 346 347
f 265 347 332
f 265 332 268
f 265 268 266
f 266 268 348
f 266 348 267
f 267 348 268
f 268 332 349
f 268 349 350
f 268 350 270
f 268 270 269
f 270 350 351
f 270 351 352
f 270 352 353
f 270 353 354
f 270 354 355
f 270 355 271
f 271 355 272
f 272 355 354
f 272 354 356
f 272 356 273
f 273 356 357
f 273 357 358
f 273 358 274
f 274 358 359
f 274 359 275
f 275 359 276
f 276 359 360
f 276 360 361
f 276 361 362
f 276 362 363
f 276 363 364
f 276 364 277
f 277 364 278
f 278 364 365
f 278 365 366
f 278 366 367
f 278 367 368
f 278 368 279
f 279 368 280
f 280 368 367
f 280 367 281
f 281 286 282
f 281 367 369
f 281 369 288
f 281 288 286
f 283 285 284
f 286 288 287
f 288 369 292
f 289 293 292
f 289 292 370
f 289 370 371
f 289 371 290
f 290 371 372
f 290 372 294
f 290 294 291
f 292 369 373
f 292 373 370
f 294 372 374
f 294 374 296
f 295 296 375
f 295 375 301
f 296 374 376
f 296 376 377
f 296 377 375
f 297 378 298
f 297 301 375
f 297 375 378
f 298 378 299
f 299 378 304
f 303 307 379
f 303 379 380
f 303 380 310
f 304 378 381
f 304 381 382
f 304 382 305
f 305 382 383
f 305 383 306
f 306 384 307
f 306 383 385
f 306 385 384
f 307 384 379
f 310 380 379
f 310 379 311
f 311 379 384
f 311 384 312
f 312 384 386
f 312 386 385
f 312 385 313
f 313 385 387
f 313 387 388
f 313 388 314
f 314 388 320
f 320 388 321
f 321 388 389
f 321 389 390
f 321 390 322
f 322 390 327
f 322 327 323
f 323 327 324
f 325 391 326
f 325 327 390
f 325 390 391
f 326 391 328
f 328 391 392
f 328 392 329
f 329 392 340
f 330 347 346
f 330 346 333
f 330 332 347
f 331 339 393
f 331 393 349
f 331 349 332
f 333 345 344
f 333 344 343
f 333 343 342
f 333 342 334
f 335 394 336
f 335 341 394
f 336 394 337
f 337 394 338
f 338 394 395
f 338 395 396
f 338 396 339
f 339 396 397
f 339 397 398
f 339 398 393
f 340 392 399
f 340 399 395
f 340 395 341
f 341 395 394
f 349 393 351
f 349 351 350
f 351 393 400
f 351 400 353
f 351 353 352
f 353 400 354
f 354 401 402
f 354 402 356
f 354 400 401
f 356 402 403
f 356 403 404
f 356 404 405
f 356 405 406
f 356 406 407
f 356 407 357
f 357 407 408
f 357 408 409
f 357 409 359
f 357 359 358
f 359 409 360
f 360 410 411
f 360 411 412
f 360 412 413
f 360 413 376
f 360 376 362
f 360 362 361
f 360 409 408
f 360 408 410
f 362 376 363
f 363 376 374
f 363 374 372
f 363 372 371
f 363 371 364
f 364 371 370
f 364 370 365
f 365 370 373
f 365 373 366
f 366 373 367
f 367 373 369
f 375 377 414
f 375 414 378
f 376 413 377
f 377 413 415
f 377 415 416
f 377 416 417
f 377 417 418
f 377 418 414
f 378 414 381
f 381 414 382
f 382 414 419
f 382 419 420
f 382 420 421
f 382 421 422
f 382 422 423
f 382 423 383
f 383 423 424
f 383 424 387
f 383 387 385
f 384 385 386
f 387 424 425
f 387 425 426
f 387 426 388
f 388 426 389
f 389 426 390
f 390 426 425
f 390 425 427
f 390 427 428
f 390 428 391
f 391 428 429
f 391 429 430
f 391 430 392
f 392 430 431
f 392 431 399
f 393 398 401
f 393 401 400
f 395 432 433
f 395 433 434
f 395 434 396
f 395 399 432
f 396 434 435
f 396 435 436
f 396 436 437
f 396 437 438
f 396 438 397
f 397 438 439
f 397 439 398
f 398 439 440
f 398 440 401
f 399 431 432
f 401 441 402
f 401 440 438
f 401 438 441
f 402 441 437
f 402 437 436
f 402 436 442
f 402 442 443
f 402 443 403
f 403 443 404
f 404 443 444
f 404 444 405
f 405 444 410
f 405 410 406
f 406 410 408
f 406 408 407
f 410 444 445
f 410 445 446
f 410 446 411
f 411 446 447
f 411 447 448
f 411 448 449
f 411 449 412
f 412 449 413
f 413 449 415
f 414 418 419
f 415 449 450
f 415 450 451
f 415 451 416
f 416 452 453
f 416 453 417
f 416 451 454
f 416 454 452
f 417 455 418
f 417 453 455
f 418 455 419
f 419 455 420
f 420 455 456
f 420 456 421
f 421 456 453
f 421 453 423
f 421 423 422
f 423 453 457
f 423 457 424
f 424 457 425
f 425 458 459
f 425 459 460
f 425 460 427
f 425 457 461
f 425 461 458
f 427 460 462
f 427 462 463
f 427 463 428
f 428 463 462
f 428 462 464
f 428 464 465
f 428 465 433
f 428 433 432
f 428 432 431
f 428 431 429
f 429 431 430
f 433 465 434
f 434 465 435
f 435 465 464
f 435 464 466
f 435 466 467
f 435 467 436
f 436 467 468
f 436 468 469
f 436 469 470
f 436 470 471
f 436 471 442
f 437 441 438
f 438 440 439
f 442 471 472
f 442 472 443
f 443 472 473
f 443 473 445
f 443 445 444
f 445 473 447
f 445 447 446
f 447 474 448
f 447 473 475
f 447 475 474
f 448 474 449
f 449 474 450
f 450 474 451
f 451 475 476
f 451 476 454
f 451 474 475
f 452 454 477
f 452 477 453
f 453 456 455
f 453 477 478
f 453 478 479
f 453 479 457
f 454 476 480
f 454 480 481
f 454 481 477
f 457 479 461
f 458 482 470
f 458 470 469
f 458 469 459
f 458 461 473
f 458 473 482
f 459 469 460
f 460 469 468
f 460 468 483
f 460 483 484
f 460 484 462
f 461 479 473
f 462 484 485
f 462 485 464
f 464 485 483
f 464 483 467
f 464 467 466
f 467 483 468
f 470 482 486
f 470 486 471
f 471 486 472
f 472 486 473
f 473 479 478
f 473 478 480
f 473 480 475
f 473 486 482
f 475 480 476
f 477 481 478
f 478 481 480
f 483 485 484

