# https://github.com/mikedh/trimesh
v -0.23982950 -0.17957440 0.06714407
v -0.23095115 -0.15630088 0.09978304
v -0.22560641 -0.17957440 0.06714407
v -0.23969018 -0.18005684 0.06714407
v -0.21289050 -0.17941035 0.18004259
v -0.21263720 -0.16892184 0.17966539
v -0.21264987 -0.15630088 0.09978304
v -0.21249788 -0.16737800 0.17966539
v -0.21211793 -0.16626836 0.18059659
v -0.21204192 -0.16522626 0.18030189
v -0.21168731 -0.16448328 0.18122131
v -0.21056010 -0.15707282 0.18064373
v -0.20978752 -0.15384038 0.18079698
v -0.20967353 -0.15340618 0.18079698
v -0.20935690 -0.15255706 0.18079698
v -0.20921757 -0.15225794 0.18079698
v -0.20811570 -0.15069479 0.18079698
v -0.20687451 -0.14904481 0.18079698
v -0.20483540 -0.14638167 0.18079698
v -0.20306226 -0.14408520 0.18079698
v -0.20261898 -0.14352556 0.18079698
v -0.20197305 -0.14271503 0.18079698
v -0.20118781 -0.14181767 0.18079698
v -0.19040967 -0.13243880 0.18079698
v -0.18949777 -0.13177301 0.18079698
v -0.18785130 -0.13066337 0.18079698
v -0.18753466 -0.13047040 0.18079698
v -0.18642013 -0.12986251 0.18079698
v -0.18611615 -0.12969847 0.18079698
v -0.18576153 -0.12951514 0.18079698
v -0.18509027 -0.12917742 0.18079698
v -0.18331713 -0.12831866 0.18079698
v -0.18239257 -0.12787480 0.18079698
v -0.18018882 -0.12683270 0.18079698
v -0.17923892 -0.12638884 0.18079698
v -0.17718714 -0.12556867 0.18079698
v -0.17451478 -0.12456518 0.18079698
v -0.17429947 -0.12449763 0.18079698
v -0.16844813 -0.12322396 0.17868704
v -0.16758689 -0.12307923 0.17846309
v -0.16015239 -0.12298273 0.17190936
v -0.15962045 -0.12310817 0.17096638
v -0.15691008 -0.13481246 0.13179727
v -0.21510692 -0.19150061 0.06714407
v -0.12847658 -0.13481246 0.13179727
v -0.11045392 -0.13481246 0.13619392
v -0.17645256 -0.21219782 0.06716765
v -0.23592860 -0.18899185 0.06714407
v -0.23520668 -0.18977343 0.06714407
v -0.21245987 -0.17941035 0.18148063
v -0.21254855 -0.17821387 0.18123309
v -0.21214324 -0.17358233 0.18225858
v -0.21061075 -0.17227007 0.18755108
v -0.21129467 -0.16448328 0.18255327
v -0.21048410 -0.15691843 0.18079698
v -0.20950887 -0.16448328 0.18755108
v -0.16766288 -0.12305028 0.17868704
v -0.18869987 -0.16448328 0.18755108
v -0.15717605 -0.12129415 0.17868704
v -0.15853123 -0.12140030 0.17868704
v -0.15969643 -0.12157398 0.17868704
v -0.16534513 -0.12259677 0.17868704
v -0.16015239 -0.12266432 0.17346528
v -0.15858190 -0.12277045 0.17192116
v -0.15858190 -0.12305992 0.17083671
v -0.15717605 -0.12304063 0.17074242
v -0.21524624 -0.19175150 0.06714407
v -0.17645256 -0.21985915 0.06716765
v -0.19647634 -0.21135836 0.06715586
v -0.13824149 -0.12525990 0.16397652
v -0.11045392 -0.13233266 0.14147463
v -0.11045392 -0.13791945 0.13619392
v -0.23429477 -0.19025588 0.06714407
v -0.20731778 -0.20842503 0.06715586
v -0.20768508 -0.20818381 0.06715586
v -0.21215591 -0.17941035 0.18215251
v -0.21059809 -0.17325427 0.18755108
v -0.21220658 -0.17667003 0.18235288
v -0.21058542 -0.17205779 0.18755108
v -0.21081340 -0.16448328 0.18395595
v -0.19243611 -0.17941035 0.18755108
v -0.11045392 -0.14175977 0.16397652
v -0.15717605 -0.13848875 0.17868704
v -0.15717605 -0.12273186 0.17192116
v -0.15792330 -0.12163186 0.17728437
v -0.11045392 -0.12800024 0.16397652
v -0.12444903 -0.12616691 0.16397652
v -0.12588020 -0.12599323 0.16397652
v -0.12755201 -0.12587745 0.16397652
v -0.12879321 -0.12580026 0.16397652
v -0.13375799 -0.12551078 0.16397652
v -0.15896185 -0.12167046 0.17757903
v -0.15967110 -0.12157398 0.17861632
v -0.23138177 -0.19175150 0.06714407
v -0.17645256 -0.21985915 0.06926578
v -0.17845367 -0.21985915 0.06716765
v -0.11045392 -0.13946331 0.13622929
v -0.11045392 -0.14101680 0.13642967
v -0.11045392 -0.14411415 0.13699546
v -0.11045392 -0.14526238 0.13721941
v -0.11045392 -0.14561940 0.13730193
v -0.11045392 -0.14727903 0.13796202
v -0.11045392 -0.14848516 0.13932934
v -0.11045392 -0.14915095 0.14092062
v -0.11045392 -0.14918954 0.14102671
v -0.11045392 -0.14923779 0.14116816
v -0.11045392 -0.14933428 0.14147463
v -0.11045392 -0.14965270 0.14250012
v -0.11045392 -0.14970095 0.14266514
v -0.20508871 -0.20920661 0.06715586
v -0.20655788 -0.20873380 0.06715586
v -0.20631724 -0.20865662 0.06801633
v -0.20602594 -0.20854083 0.06910076
v -0.20996482 -0.17941035 0.18612481
v -0.20916692 -0.17941035 0.18755108
v -0.16509184 -0.19174184 0.12136553
v -0.11045392 -0.14940182 0.14438608
v -0.17785841 -0.21985915 0.06785131
v -0.11045392 -0.14970095 0.14359633
f 1 2 7
f 1 7 3
f 1 3 44
f 1 44 67
f 1 67 94
f 1 94 73
f 1 73 49
f 1 49 48
f 1 48 4
f 1 4 5
f 1 5 6
f 1 6 2
f 2 6 8
f 2 8 9
f 2 9 10
f 2 10 11
f 2 11 12
f 2 12 13
f 2 13 14
f 2 14 15
f 2 15 16
f 2 16 17
f 2 17 18
f 2 18 19
f 2 19 20
f 2 20 21
f 2 21 22
f 2 22 23
f 2 23 24
f 2 24 25
f 2 25 26
f 2 26 27
f 2 27 28
f 2 28 29
f 2 29 30
f 2 30 31
f 2 31 32
f 2 32 33
f 2 33 34
f 2 34 35
f 2 35 36
f 2 36 37
f 2 37 38
f 2 38 39
f 2 39 40
f 2 40 41
f 2 41 42
f 2 42 43
f 2 43 45
f 2 45 7
f 3 7 45
f 3 45 46
f 3 46 47
f 3 47 44
f 4 48 5
f 5 48 49
f 5 49 50
f 5 50 51
f 5 51 52
f 5 52 6
f 6 52 53
f 6 53 8
f 8 53 9
f 9 53 54
f 9 54 11
f 9 11 10
f 11 54 12
f 12 54 55
f 12 55 13
f 13 55 56
f 13 56 14
f 14 56 15
f 15 56 16
f 16 56 17
f 17 56 18
f 18 56 19
f 19 56 20
f 20 56 21
f 21 56 22
f 22 56 23
f 23 56 24
f 24 56 25
f 25 56 26
f 26 56 27
f 27 56 28
f 28 56 29
f 29 56 30
f 30 56 31
f 31 56 32
f 32 56 33
f 33 56 34
f 34 56 35
f 35 56 36
f 36 56 37
f 37 56 38
f 38 57 39
f 38 56 58
f 38 58 59
f 38 59 60
f 38 60 61
f 38 61 62
f 38 62 57
f 39 57 40
f 40 62 41
f 40 57 62
f 41 62 63
f 41 63 64
f 41 64 42
f 42 64 65
f 42 65 43
f 43 65 66
f 43 66 45
f 44 47 68
f 44 68 69
f 44 69 67
f 45 66 70
f 45 70 71
f 45 71 46
f 46 71 86
f 46 86 82
f 46 82 117
f 46 117 119
f 46 119 109
f 46 109 108
f 46 108 107
f 46 107 106
f 46 106 105
f 46 105 104
f 46 104 103
f 46 103 102
f 46 102 101
f 46 101 100
f 46 100 99
f 46 99 98
f 46 98 97
f 46 97 72
f 46 72 68
f 46 68 47
f 49 73 74
f 49 74 75
f 49 75 50
f 50 76 77
f 50 77 53
f 50 53 51
f 50 75 74
f 50 74 76
f 51 53 78
f 51 78 52
f 52 78 53
f 53 77 115
f 53 115 81
f 53 81 58
f 53 58 56
f 53 56 79
f 53 79 54
f 54 79 80
f 54 80 55
f 55 80 56
f 56 80 79
f 58 81 82
f 58 82 83
f 58 83 59
f 59 84 64
f 59 64 85
f 59 85 60
f 59 83 82
f 59 82 86
f 59 86 87
f 59 87 88
f 59 88 89
f 59 89 90
f 59 90 91
f 59 91 70
f 59 70 84
f 60 85 64
f 60 64 92
f 60 92 93
f 60 93 61
f 61 93 62
f 62 93 63
f 63 93 92
f 63 92 64
f 64 84 66
f 64 66 65
f 66 84 70
f 67 69 94
f 68 95 118
f 68 118 96
f 68 96 69
f 68 72 97
f 68 97 98
f 68 98 99
f 68 99 100
f 68 100 101
f 68 101 102
f 68 102 103
f 68 103 104
f 68 104 105
f 68 105 106
f 68 106 107
f 68 107 108
f 68 108 109
f 68 109 119
f 68 119 95
f 69 96 110
f 69 110 94
f 70 91 71
f 71 91 90
f 71 90 89
f 71 89 88
f 71 88 87
f 71 87 86
f 73 94 74
f 74 94 111
f 74 111 112
f 74 112 113
f 74 113 76
f 76 114 77
f 76 113 114
f 77 114 115
f 81 115 95
f 81 95 116
f 81 116 82
f 82 116 95
f 82 95 117
f 94 110 111
f 95 115 118
f 95 119 117
f 96 118 115
f 96 115 113
f 96 113 112
f 96 112 111
f 96 111 110
f 113 115 114

