# https://github.com/mikedh/trimesh
v -0.03976025 -0.01587262 -0.11921439
v 0.16293323 -0.27047361 -0.15157883
v 0.16297271 -0.11732918 -0.18579557
v 0.09732923 -0.05640856 -0.17920308
v -0.03976025 -0.01587262 -0.13766460
v -0.15186336 -0.01587262 -0.07712167
v 0.16293323 -0.27636079 -0.15261438
v 0.16297271 -0.19834920 -0.19106081
v -0.15600801 -0.01587262 -0.07560482
v -0.15928427 -0.01587262 -0.07464220
v -0.16090265 -0.01587262 -0.07430674
v -0.16552100 -0.01587262 -0.07369416
v 0.16297271 -0.11732918 -0.20512088
v 0.09732923 -0.05640856 -0.19610728
v 0.09598715 -0.05640856 -0.19635523
v 0.09192144 -0.05640856 -0.19705530
v 0.08627681 -0.05640856 -0.19798876
v 0.07534280 -0.05640856 -0.19960772
v 0.07431652 -0.05640856 -0.19975355
v 0.07167182 -0.05640856 -0.19995775
v 0.07021133 -0.05640856 -0.20001609
v 0.05446163 -0.05640856 -0.19992858
v 0.01415977 -0.05640856 -0.19782832
v -0.21545425 -0.01587262 -0.09161930
v 0.16293323 -0.27638672 -0.15265813
v -0.23230918 -0.10521768 -0.08431215
v -0.09983803 -0.27537528 -0.12964277
v -0.04757589 -0.28053629 -0.13676032
v -0.05381261 -0.28076969 -0.13646862
v 0.16297271 -0.19834920 -0.20738160
v -0.23230918 -0.01587262 -0.07019373
v 0.16297271 -0.12114158 -0.20691486
v 0.09732923 -0.06271069 -0.19957854
v 0.09732923 -0.05978007 -0.19801792
v 0.09373720 -0.06214013 -0.19985565
v 0.09547400 -0.06522636 -0.20086204
v 0.08880308 -0.06579692 -0.20169338
v 0.09500033 -0.07199532 -0.20309355
v 0.08260582 -0.06579692 -0.20199967
v 0.08260582 -0.09061644 -0.20793582
v 0.07640857 -0.09061644 -0.20802333
v -0.13449527 -0.15260038 -0.21557844
v 0.01577816 -0.06138802 -0.19981190
v 0.01396241 -0.05944292 -0.19898054
v 0.01108088 -0.05640856 -0.19696780
v -0.17511291 -0.13089303 -0.20580639
v -0.18881001 -0.12422781 -0.19991399
v -0.19903351 -0.11872966 -0.19320483
v -0.20274395 -0.11935208 -0.19270893
v -0.22161201 -0.01587262 -0.08973782
v -0.00127414 -0.05640856 -0.19343819
v 0.16293323 -0.27550495 -0.15929436
v -0.04757589 -0.28082156 -0.14066914
v 0.13846002 -0.27724256 -0.15927979
v 0.15085452 -0.27672388 -0.15927979
v 0.15701230 -0.27643861 -0.15927979
v -0.23925641 -0.14800994 -0.15096626
v -0.23487493 -0.17472268 -0.15833174
v -0.23369073 -0.17744582 -0.15833174
v -0.23144078 -0.18211407 -0.15833174
v -0.22034889 -0.14800994 -0.10283528
v -0.19591514 -0.22106800 -0.15833174
v -0.09983803 -0.27853930 -0.13466006
v -0.06000986 -0.28061407 -0.14043578
v -0.09585127 -0.27999165 -0.13705202
v -0.09585127 -0.27999165 -0.13813133
v 0.16293323 -0.27540121 -0.15946939
v 0.16293323 -0.27024020 -0.16549305
v 0.16293323 -0.26526075 -0.17096248
v 0.16293323 -0.26344532 -0.17281480
v 0.16293323 -0.25916608 -0.17705908
v 0.16293323 -0.25742847 -0.17873636
v 0.16293323 -0.25288988 -0.18293688
v 0.16293323 -0.24837725 -0.18687488
v 0.16293323 -0.24529102 -0.18888762
v 0.16293323 -0.24041528 -0.19200885
v 0.16293323 -0.23730313 -0.19391950
v 0.16293323 -0.23299798 -0.19590308
v 0.16293323 -0.22648837 -0.19858674
v 0.16293323 -0.21450652 -0.20350194
v 0.16293323 -0.20817845 -0.20577723
v 0.16293323 -0.20462540 -0.20653565
v 0.16293323 -0.20169479 -0.20695861
v 0.16293323 -0.19834920 -0.20739617
v 0.16297271 -0.18984261 -0.20849005
v -0.23230918 -0.01587262 -0.08613529
v -0.24028272 -0.14012579 -0.15926520
v 0.16297271 -0.12749558 -0.20919014
v 0.09732923 -0.06737893 -0.20140167
v 0.09732923 -0.06569318 -0.20077451
v 0.09732923 -0.06338500 -0.19985565
v 0.09732923 -0.07199532 -0.20288935
v 0.08880308 -0.07199532 -0.20334150
v 0.15709125 -0.12783273 -0.20994857
v 0.11359207 -0.14025546 -0.21608891
v 0.10739482 -0.14025546 -0.21619101
v -0.12206130 -0.15879878 -0.21675983
v -0.12821907 -0.15260038 -0.21566595
v -0.12821907 -0.15879878 -0.21657024
v -0.14061358 -0.15260038 -0.21525755
v -0.14688977 -0.14645385 -0.21352194
v -0.11321936 -0.16797966 -0.21821834
v -0.15731062 -0.14287486 -0.21213634
v -0.15936321 -0.14059261 -0.21111538
v -0.15940269 -0.14012579 -0.21094036
v -0.17175771 -0.13403113 -0.20738160
v -0.17917862 -0.13174887 -0.20552928
v -0.18415222 -0.12783273 -0.20262683
v -0.19291520 -0.12495399 -0.19946185
v -0.20274395 -0.12243832 -0.19495505
v -0.20724387 -0.12357944 -0.19412370
v -0.20894122 -0.11727732 -0.18847923
v -0.22753296 -0.01587262 -0.08787092
v -0.03526033 -0.28053629 -0.14594896
v 0.13846002 -0.27449350 -0.16326152
v 0.14465727 -0.27441570 -0.16317401
v 0.15085452 -0.27428603 -0.16307192
v -0.01805014 -0.27996572 -0.15041201
v -0.02282636 -0.27996572 -0.15039744
v -0.00419514 -0.27654234 -0.15929436
v -0.00419514 -0.27413041 -0.16315942
v -0.00419514 -0.27205562 -0.16628065
v 0.15701230 -0.27392294 -0.16269271
v 0.16265691 -0.27540121 -0.15952774
v -0.23499333 -0.17472268 -0.15926520
v -0.24020378 -0.14012579 -0.16544930
v -0.23373021 -0.17744582 -0.15926520
v -0.23144078 -0.18208815 -0.15926520
v -0.23120394 -0.18258090 -0.15833174
v -0.22978291 -0.18520030 -0.15833174
v -0.22729613 -0.18916831 -0.15833174
v -0.22469091 -0.19321412 -0.15833174
v -0.21876997 -0.19969780 -0.15833174
v -0.21833576 -0.20016463 -0.15833174
v -0.21573055 -0.20280997 -0.15833174
v -0.21261220 -0.20594807 -0.15833174
v -0.21213851 -0.20641490 -0.15833174
v -0.20941489 -0.20906024 -0.15833174
v -0.20629652 -0.21201679 -0.15833174
v -0.20578337 -0.21248362 -0.15833174
v -0.20136240 -0.21642569 -0.15833174
v -0.19169154 -0.22319464 -0.16032991
v -0.19038894 -0.22482854 -0.15833174
v -0.20590180 -0.21162776 -0.16247394
v -0.20503338 -0.21097941 -0.16661611
v -0.20767807 -0.20708920 -0.17167715
v -0.20669125 -0.20620741 -0.17560056
v -0.09983803 -0.27869490 -0.14050870
v -0.14069252 -0.25631327 -0.15833174
v -0.09762756 -0.27898021 -0.14039202
v -0.09099611 -0.27916173 -0.14161717
v -0.08479885 -0.27944702 -0.14196722
v 0.16013065 -0.27361171 -0.16237184
v 0.16127536 -0.26764673 -0.16883305
v 0.16159114 -0.26150021 -0.17507550
v 0.16123590 -0.25524994 -0.18120125
v 0.16009118 -0.24879220 -0.18718116
v 0.15701230 -0.24088211 -0.19234431
v 0.15701230 -0.23779588 -0.19421120
v 0.15701230 -0.23330917 -0.19647190
v 0.15701230 -0.22825190 -0.19874718
v 0.15701230 -0.22516568 -0.20007444
v 0.16103853 -0.22446545 -0.19978273
v 0.15701230 -0.22091240 -0.20181007
v 0.15701230 -0.21468806 -0.20428955
v 0.15701230 -0.21121282 -0.20563138
v 0.16194641 -0.20721887 -0.20634604
v 0.15914382 -0.19834920 -0.20827128
v 0.15709125 -0.18984261 -0.20993399
v 0.16297271 -0.18364423 -0.20900054
v 0.15709125 -0.18364423 -0.21051740
v -0.22528299 -0.12373505 -0.18182841
v -0.22962502 -0.12783273 -0.17934895
v -0.23720382 -0.13646899 -0.17522135
v -0.23898012 -0.14012579 -0.17164799
v -0.21253325 -0.11818503 -0.18754579
v -0.21667791 -0.12010420 -0.18579557
v 0.16297271 -0.12783273 -0.20929224
v 0.11986828 -0.14645385 -0.21588472
v 0.11359207 -0.14645385 -0.21608891
v -0.06000986 -0.18367016 -0.21919555
v -0.08479885 -0.17747176 -0.21906429
v -0.08748302 -0.17469675 -0.21890385
v -0.09727230 -0.17122150 -0.21871424
v -0.10346955 -0.16756470 -0.21830585
v -0.10962733 -0.16772031 -0.21826210
v -0.14688977 -0.15260038 -0.21479084
v -0.15308702 -0.14645385 -0.21315730
v -0.11321936 -0.16836869 -0.21821834
v -0.15936321 -0.14637605 -0.21244264
v -0.16141581 -0.14424941 -0.21185923
v -0.17167876 -0.14025546 -0.20936516
v -0.17167876 -0.14015172 -0.20933600
v -0.16563941 -0.14012579 -0.21018194
v -0.17748129 -0.13392739 -0.20650649
v -0.17795496 -0.14012579 -0.20825671
v -0.18229698 -0.13589843 -0.20611268
v -0.18427063 -0.13392739 -0.20506254
v -0.20065189 -0.13016686 -0.19991399
v -0.19650724 -0.12897386 -0.20046822
v -0.19062577 -0.12731404 -0.20108081
v -0.19650724 -0.12588764 -0.19893679
v -0.20274395 -0.12801428 -0.19812002
v -0.20917805 -0.12770306 -0.19511548
v -0.21138854 -0.12557641 -0.19298604
v -0.20917805 -0.12155654 -0.19171715
v -0.20479655 -0.13224164 -0.19914098
v 0.13222329 -0.26245979 -0.17602352
v -0.00419514 -0.26896940 -0.17061244
v -0.01039239 -0.26647967 -0.17370449
v -0.00419514 -0.26642780 -0.17373367
v 0.15085452 -0.26209671 -0.17574641
v 0.13846002 -0.26235607 -0.17593602
v 0.15701230 -0.26186329 -0.17551305
v 0.15701230 -0.26790609 -0.16911016
v -0.02653682 -0.27986198 -0.15010574
v -0.02282636 -0.27869490 -0.15350406
v -0.01039239 -0.27636079 -0.15929436
v -0.01039239 -0.27405261 -0.16305734
v -0.01039239 -0.27197782 -0.16614939
v -0.01039239 -0.26889160 -0.17059786
v -0.23420388 -0.17472268 -0.16558056
v -0.23108552 -0.18133603 -0.16377201
v -0.22974345 -0.18520030 -0.15926520
v -0.22686192 -0.18986855 -0.15926520
v -0.22188833 -0.19632629 -0.15926520
v -0.22465143 -0.19321412 -0.15926520
v -0.21876997 -0.19969780 -0.15926520
v -0.21261220 -0.20594807 -0.15926520
v -0.20937541 -0.20903429 -0.15926520
v -0.20625704 -0.21196492 -0.15926520
v -0.21229640 -0.20563685 -0.16311567
v -0.20874384 -0.20830812 -0.16486589
v -0.21162537 -0.20493661 -0.16724327
v -0.21770419 -0.19850480 -0.16706826
v -0.22401987 -0.18636737 -0.17411288
v -0.22559878 -0.18221782 -0.17630065
v -0.22386198 -0.17980589 -0.18044283
v -0.21209905 -0.19305852 -0.18102624
v -0.20590180 -0.19925692 -0.18102624
v -0.20274395 -0.20345834 -0.17971357
v -0.20274395 -0.20719294 -0.17660693
v -0.09983803 -0.27770939 -0.14287149
v -0.12837696 -0.26155208 -0.15833174
v -0.12356127 -0.26354905 -0.15833174
v -0.12206130 -0.26404182 -0.15834633
v -0.11874557 -0.26111118 -0.16232809
v -0.19808616 -0.20480694 -0.18053034
v -0.09099611 -0.27698322 -0.14685324
v -0.08479885 -0.27757972 -0.14685324
v 0.15701230 -0.25875114 -0.17859051
v 0.15701230 -0.25566490 -0.18155130
v 0.15085452 -0.25592424 -0.18175550
v 0.15602548 -0.24894780 -0.18729784
v 0.15764386 -0.24630246 -0.18891680
v 0.15085452 -0.24568003 -0.18948562
v 0.15085452 -0.24095992 -0.19241723
v 0.15085452 -0.23330917 -0.19680735
v 0.15085452 -0.22890029 -0.19903888
v -0.01039239 -0.22711079 -0.20334150
v -0.01039239 -0.22342805 -0.20551469
v 0.15085452 -0.22583998 -0.20030780
v 0.15701230 -0.20810065 -0.20668150
v -0.01658964 -0.20996795 -0.21139251
v -0.01658964 -0.20688173 -0.21251555
v 0.15701230 -0.20229127 -0.20811084
v 0.15709125 -0.19834920 -0.20869424
v 0.15709125 -0.19604102 -0.20904429
v 0.15310447 -0.19834920 -0.20908805
v 0.15081505 -0.19604102 -0.20962770
v 0.15081505 -0.18984261 -0.21047365
v 0.16297271 -0.13403113 -0.20967145
v 0.15709125 -0.17741989 -0.21056115
v 0.15081505 -0.18364423 -0.21101330
v 0.14157839 -0.18053206 -0.21199049
v 0.14256521 -0.17741989 -0.21210718
v -0.21873050 -0.12422781 -0.18751661
v -0.22287515 -0.12674348 -0.18594142
v -0.22449354 -0.13086710 -0.18718116
v -0.22611193 -0.12840330 -0.18395784
v -0.23049342 -0.13133392 -0.18074911
v -0.23530911 -0.14012579 -0.17880930
v -0.23755908 -0.14012579 -0.17577557
v -0.23136183 -0.13545754 -0.18174090
v -0.23215129 -0.14012579 -0.18268893
v -0.23234866 -0.17472268 -0.17156048
v -0.21482268 -0.12194556 -0.18862510
v 0.16297271 -0.13369398 -0.20967145
v 0.13842054 -0.17741989 -0.21242805
v 0.13226277 -0.17741989 -0.21282185
v -0.04757589 -0.18844214 -0.21858298
v -0.05381261 -0.18872743 -0.21869967
v -0.06000986 -0.18857181 -0.21874342
v -0.07244383 -0.18367016 -0.21913721
v -0.07864108 -0.18367016 -0.21899136
v -0.09723282 -0.17643438 -0.21861215
v -0.09928542 -0.17469675 -0.21858298
v -0.15308702 -0.15260038 -0.21409076
v -0.10571950 -0.17472268 -0.21830585
v -0.10698264 -0.17448926 -0.21824753
v -0.11116677 -0.17251824 -0.21799958
v -0.11546932 -0.17075467 -0.21766412
v -0.14688977 -0.15879878 -0.21457207
v -0.14061358 -0.15879878 -0.21534508
v -0.16319208 -0.14834709 -0.21213634
v -0.16536311 -0.14637605 -0.21149459
v -0.17791549 -0.14645385 -0.20930683
v -0.18411274 -0.14645385 -0.20816918
v -0.18427063 -0.14007392 -0.20675444
v -0.19650724 -0.13403113 -0.20207261
v -0.20274395 -0.13418674 -0.20039530
v -0.20862542 -0.13418674 -0.19794500
v -0.21509898 -0.13431641 -0.19460500
v -0.21711210 -0.13242318 -0.19272352
v -0.21509898 -0.12770306 -0.19173172
v -0.20633599 -0.13636526 -0.19976814
v 0.13222329 -0.25908828 -0.17911557
v 0.15085452 -0.25901048 -0.17883846
v -0.00419514 -0.26334158 -0.17691322
v -0.00419514 -0.26020348 -0.18000527
v -0.00419514 -0.25709131 -0.18286397
v -0.01039239 -0.26339343 -0.17692782
v -0.01658964 -0.26876193 -0.17045201
v -0.01658964 -0.26629813 -0.17354406
v -0.02902361 -0.27553088 -0.15929436
v -0.02282636 -0.27584211 -0.15929436
v -0.06624658 -0.27418228 -0.15729621
v -0.06000986 -0.27438975 -0.15773376
v -0.02902361 -0.27376732 -0.16261979
v -0.02282636 -0.27177036 -0.16585769
v -0.23246707 -0.17786078 -0.16568266
v -0.23045395 -0.18019490 -0.16789960
v -0.22919081 -0.18351454 -0.16568266
v -0.22445406 -0.19298070 -0.16237184
v -0.21845418 -0.19938659 -0.16292606
v -0.22346725 -0.19173585 -0.16651401
v -0.22500670 -0.18761224 -0.16997068
v -0.22662508 -0.18403324 -0.17189594
v -0.23096711 -0.17485235 -0.17517759
v -0.22749348 -0.17731615 -0.17780293
v -0.22520405 -0.17565634 -0.18181384
v -0.22216465 -0.17472268 -0.18506631
v -0.22133571 -0.17739396 -0.18405994
v -0.21703315 -0.17913157 -0.18627688
v -0.21292798 -0.18146570 -0.18780832
v -0.20874384 -0.18359236 -0.18875636
v -0.20657284 -0.18745663 -0.18758955
v -0.20408604 -0.19160618 -0.18637898
v -0.19994138 -0.19321412 -0.18732703
v -0.19654670 -0.19751929 -0.18617478
v -0.20274395 -0.20034617 -0.18172631
v -0.09983803 -0.27602363 -0.14685324
v -0.12206130 -0.26373059 -0.15865263
v -0.11736402 -0.26552009 -0.15834633
v -0.11665351 -0.26458643 -0.15951315
v -0.09723282 -0.25426443 -0.17427330
v -0.09521971 -0.26160395 -0.16896431
v -0.11460091 -0.26183735 -0.16289690
v -0.19216521 -0.19879009 -0.18693321
v -0.07682533 -0.27374138 -0.15643569
v -0.07244383 -0.27392294 -0.15681490
v 0.15085452 -0.25208590 -0.18486214
v -0.00419514 -0.25343451 -0.18597059
v -0.00419514 -0.25032236 -0.18824589
v -0.00419514 -0.24588752 -0.19135251
v -0.00419514 -0.24277535 -0.19349653
v -0.00419514 -0.23948164 -0.19561138
v -0.01658964 -0.22044557 -0.20703155
v -0.01658964 -0.21468806 -0.20952560
v -0.01039239 -0.23167530 -0.20051199
v -0.01658964 -0.22353179 -0.20550011
v 0.15085452 -0.20229127 -0.20846088
v -0.02282636 -0.20229127 -0.21416368
v -0.04137863 -0.19609287 -0.21648271
v -0.04137863 -0.20229127 -0.21433869
v -0.04757589 -0.19609287 -0.21662856
v 0.15701230 -0.19834920 -0.20870883
v 0.15085452 -0.19834920 -0.20920473
v 0.13226277 -0.18263277 -0.21235513
v 0.13842054 -0.18138790 -0.21210718
v -0.22101993 -0.12840330 -0.18824589
v -0.22520405 -0.13403113 -0.18791043
v -0.22867768 -0.13364211 -0.18389952
v -0.22098045 -0.13431641 -0.19110456
v -0.22611193 -0.17472268 -0.18133251
v -0.23096711 -0.17472268 -0.17522135
v -0.22938818 -0.14012579 -0.18578100
v -0.22536194 -0.17472268 -0.18222221
v -0.23159867 -0.17599348 -0.17167715
v -0.04757589 -0.19155431 -0.21785372
v -0.05381261 -0.19181365 -0.21785372
v -0.06624658 -0.18815685 -0.21868508
v -0.05381261 -0.19609287 -0.21648271
v -0.07864108 -0.18724914 -0.21837879
v -0.08207522 -0.18691200 -0.21826210
v -0.08444360 -0.18369609 -0.21864131
v -0.15308702 -0.15879878 -0.21368237
v -0.15928427 -0.15260038 -0.21312814
v -0.10721948 -0.17469675 -0.21816002
v -0.12206130 -0.17122150 -0.21651189
v -0.18849423 -0.14204496 -0.20617103
v -0.16382367 -0.15260038 -0.21226762
v -0.17167876 -0.15260038 -0.21064866
v -0.17791549 -0.15260038 -0.20930683
v -0.19366519 -0.15003284 -0.20592308
v -0.19366519 -0.14876205 -0.20592308
v -0.19046788 -0.14660946 -0.20656481
v -0.19263888 -0.14466436 -0.20554387
v -0.21865156 -0.13657273 -0.19358404
v -0.20673073 -0.14012579 -0.19994318
v -0.20980961 -0.14012579 -0.19852841
v -0.21525687 -0.14012579 -0.19588849
v -0.01039239 -0.26015159 -0.18000527
v -0.01039239 -0.25703944 -0.18276187
v -0.01658964 -0.26318596 -0.17665068
v -0.02282636 -0.26865819 -0.17018947
v -0.02902361 -0.26845070 -0.16983942
v -0.06000986 -0.26712803 -0.16824964
v -0.06624658 -0.26375652 -0.17122502
v -0.03316827 -0.27366358 -0.16247394
v -0.04757589 -0.27319677 -0.16167174
v -0.06000986 -0.27270400 -0.16085498
v -0.05381261 -0.27296336 -0.16126337
v -0.22982239 -0.17910565 -0.17167715
v -0.21920417 -0.17472268 -0.18738535
v -0.22626982 -0.14012579 -0.18869802
v -0.21892786 -0.17472268 -0.18758955
v -0.21876997 -0.17498204 -0.18754579
v -0.21505952 -0.17721242 -0.18875636
v -0.20898068 -0.17747176 -0.19193592
v -0.20230976 -0.18966108 -0.18828964
v -0.19599409 -0.18932393 -0.19116291
v -0.19654670 -0.19440712 -0.18807086
v -0.09983803 -0.27402667 -0.15083498
v -0.08096998 -0.27350796 -0.15599813
v -0.09462761 -0.26754300 -0.16257603
v -0.10962733 -0.26746519 -0.15834633
v -0.09983803 -0.27239278 -0.15392703
v -0.15920532 -0.20880090 -0.18912098
v -0.15932373 -0.20384735 -0.19251933
v -0.09368027 -0.25493873 -0.17474004
v -0.09099611 -0.26209671 -0.16940187
v -0.09099611 -0.26520886 -0.16603271
v -0.19030999 -0.19082814 -0.19224221
v -0.07244383 -0.27210751 -0.15990695
v -0.07244383 -0.27304115 -0.15834633
v -0.07915423 -0.27231496 -0.15834633
v -0.06624658 -0.27241871 -0.16040283
v -0.01039239 -0.25325297 -0.18585392
v -0.01039239 -0.25014080 -0.18811461
v -0.00830032 -0.24274942 -0.19348194
v -0.04757589 -0.20229127 -0.21420743
v -0.01658964 -0.22711079 -0.20319565
v -0.07244383 -0.20371768 -0.21089661
v -0.07244383 -0.20060551 -0.21280726
v -0.05602309 -0.20524782 -0.21188839
v -0.06000986 -0.20177259 -0.21344901
v -0.04757589 -0.20594807 -0.21232595
v -0.06000986 -0.19609287 -0.21611809
v -0.06624658 -0.19609287 -0.21560760
v -0.07244383 -0.19609287 -0.21503879
v -0.07864108 -0.19609287 -0.21430953
v -0.08219364 -0.19941253 -0.21210718
v -0.08444360 -0.18934985 -0.21665775
v -0.11791664 -0.18639330 -0.21181548
v -0.10962733 -0.18367016 -0.21452831
v -0.11582458 -0.17747176 -0.21585555
v -0.10931154 -0.17695306 -0.21718281
v -0.15896849 -0.15869504 -0.21260308
v -0.16342892 -0.15656840 -0.21220928
v -0.11858768 -0.17472268 -0.21614726
v -0.14988971 -0.16805745 -0.21196133
v -0.15308702 -0.16372636 -0.21248639
v -0.18411274 -0.15260038 -0.20793582
v -0.19003367 -0.15231510 -0.20644814
v -0.19820457 -0.16670886 -0.19997234
v -0.19820457 -0.16476376 -0.20048281
v -0.19820457 -0.15872096 -0.20201424
v -0.19820457 -0.15239290 -0.20335609
v -0.21904628 -0.14012579 -0.19386115
v -0.22216465 -0.14012579 -0.19179007
v -0.07244383 -0.26020348 -0.17402537
v -0.06000986 -0.26959184 -0.16514300
v -0.06624658 -0.26930656 -0.16480755
v -0.06624658 -0.26684276 -0.16789960
v -0.07244383 -0.26341938 -0.17091873
v -0.21734895 -0.17472268 -0.18853759
v -0.21024382 -0.17472268 -0.19253392
v -0.20692809 -0.17542292 -0.19387575
v -0.20416498 -0.17954653 -0.19288396
v -0.19354676 -0.18686013 -0.19343819
v -0.09723282 -0.27260027 -0.15421873
v -0.09099611 -0.27296336 -0.15488966
v -0.09695652 -0.26995493 -0.15834633
v -0.10240378 -0.26902127 -0.15834633
v -0.09099611 -0.26782827 -0.16294066
v -0.09099611 -0.27029207 -0.15927979
v -0.15628431 -0.19300665 -0.19960772
v -0.07864108 -0.20301744 -0.21044447
v -0.07244383 -0.25711724 -0.17618397
v -0.07864108 -0.25952916 -0.17355863
v -0.08479885 -0.26261541 -0.16992693
v -0.08479885 -0.26570163 -0.16655777
v -0.19030999 -0.18774191 -0.19389034
v -0.08479885 -0.27104418 -0.15927979
v -0.08479885 -0.26824323 -0.16346572
v -0.07864108 -0.26865819 -0.16394703
v -0.08945666 -0.27107011 -0.15834633
v -0.07244383 -0.26899534 -0.16438458
v -0.01658964 -0.23110473 -0.20049740
v -0.05389155 -0.20283590 -0.21344901
v -0.07864108 -0.19993122 -0.21239888
v -0.06624658 -0.20117609 -0.21314271
v -0.15632381 -0.18060986 -0.20582098
v -0.15877113 -0.17747176 -0.20671068
v -0.15900795 -0.17472268 -0.20771705
v -0.15928427 -0.17122150 -0.20898595
v -0.15675800 -0.16235183 -0.21210718
v -0.16552100 -0.15869504 -0.21117372
v -0.17167876 -0.15879878 -0.20971521
v -0.15308702 -0.16683853 -0.21164046
v -0.17791549 -0.15879878 -0.20812543
v -0.19820457 -0.16800560 -0.19956395
v -0.20724387 -0.17472268 -0.19399242
v -0.18162594 -0.16253338 -0.20595224
v -0.17933651 -0.16665699 -0.20532508
v -0.20807280 -0.17472268 -0.19361320
v -0.07864108 -0.26303035 -0.17045201
v -0.07244383 -0.26653153 -0.16749122
v -0.07864108 -0.26614252 -0.16705367
v -0.19820457 -0.16914673 -0.19911182
v -0.19820457 -0.17122150 -0.19828046
v -0.18798110 -0.17495609 -0.19982649
v -0.19030999 -0.18367016 -0.19564056
v -0.16398156 -0.17539698 -0.20628770
v -0.16433680 -0.17472268 -0.20644814
v -0.16583678 -0.17161053 -0.20716281
v -0.17519186 -0.16836869 -0.20587933
v -0.17167876 -0.16502310 -0.20787748
v -0.16552100 -0.16502310 -0.20940891
v -0.15896849 -0.16466002 -0.21096953
f 1 2 3
f 1 3 4
f 1 4 14
f 1 14 5
f 1 5 24
f 1 24 50
f 1 50 113
f 1 113 86
f 1 86 31
f 1 31 12
f 1 12 11
f 1 11 10
f 1 10 9
f 1 9 6
f 1 6 2
f 2 7 8
f 2 8 3
f 2 6 9
f 2 9 10
f 2 10 11
f 2 11 12
f 2 12 7
f 3 8 30
f 3 30 85
f 3 85 170
f 3 170 272
f 3 272 288
f 3 288 178
f 3 178 88
f 3 88 32
f 3 32 13
f 3 13 14
f 3 14 4
f 5 14 15
f 5 15 16
f 5 16 17
f 5 17 18
f 5 18 19
f 5 19 20
f 5 20 21
f 5 21 22
f 5 22 23
f 5 23 24
f 7 25 8
f 7 12 26
f 7 26 27
f 7 27 28
f 7 28 29
f 7 29 25
f 8 25 30
f 12 31 26
f 13 32 33
f 13 33 34
f 13 34 14
f 14 34 15
f 15 34 16
f 16 34 17
f 17 34 35
f 17 35 18
f 18 35 19
f 19 35 36
f 19 36 37
f 19 37 20
f 20 37 38
f 20 38 39
f 20 39 21
f 21 39 40
f 21 40 41
f 21 41 22
f 22 41 42
f 22 42 43
f 22 43 44
f 22 44 23
f 23 45 24
f 23 44 46
f 23 46 47
f 23 47 48
f 23 48 45
f 24 49 50
f 24 45 51
f 24 51 49
f 25 52 30
f 25 29 53
f 25 53 54
f 25 54 55
f 25 55 56
f 25 56 52
f 26 31 57
f 26 57 58
f 26 58 59
f 26 59 60
f 26 60 61
f 26 61 27
f 27 61 62
f 27 62 63
f 27 63 29
f 27 29 28
f 29 64 53
f 29 63 65
f 29 65 66
f 29 66 64
f 30 52 67
f 30 67 68
f 30 68 69
f 30 69 70
f 30 70 71
f 30 71 72
f 30 72 73
f 30 73 74
f 30 74 75
f 30 75 76
f 30 76 77
f 30 77 78
f 30 78 79
f 30 79 80
f 30 80 81
f 30 81 82
f 30 82 83
f 30 83 84
f 30 84 85
f 31 86 87
f 31 87 57
f 32 88 89
f 32 89 90
f 32 90 91
f 32 91 33
f 33 91 35
f 33 35 34
f 35 91 36
f 36 91 90
f 36 90 89
f 36 89 37
f 37 89 92
f 37 92 38
f 38 40 93
f 38 93 39
f 38 92 94
f 38 94 95
f 38 95 40
f 39 93 40
f 40 95 96
f 40 96 41
f 41 96 97
f 41 97 98
f 41 98 42
f 42 99 100
f 42 100 101
f 42 101 43
f 42 98 97
f 42 97 102
f 42 102 99
f 43 101 103
f 43 103 44
f 44 103 104
f 44 104 105
f 44 105 106
f 44 106 46
f 45 48 49
f 45 49 51
f 46 106 107
f 46 107 108
f 46 108 47
f 47 108 109
f 47 109 48
f 48 109 49
f 49 109 110
f 49 110 111
f 49 111 112
f 49 112 86
f 49 86 113
f 49 113 50
f 52 56 67
f 53 64 114
f 53 114 54
f 54 115 116
f 54 116 117
f 54 117 55
f 54 114 118
f 54 118 119
f 54 119 120
f 54 120 121
f 54 121 122
f 54 122 115
f 55 117 56
f 56 123 124
f 56 124 67
f 56 117 123
f 57 125 58
f 57 87 126
f 57 126 125
f 58 125 59
f 59 125 127
f 59 127 60
f 60 128 129
f 60 129 61
f 60 127 128
f 61 129 130
f 61 130 131
f 61 131 132
f 61 132 133
f 61 133 134
f 61 134 135
f 61 135 136
f 61 136 137
f 61 137 138
f 61 138 139
f 61 139 140
f 61 140 141
f 61 141 62
f 62 142 143
f 62 143 63
f 62 141 144
f 62 144 145
f 62 145 146
f 62 146 147
f 62 147 142
f 63 148 65
f 63 143 149
f 63 149 148
f 64 66 114
f 65 148 66
f 66 148 150
f 66 150 151
f 66 151 152
f 66 152 119
f 66 119 114
f 67 124 123
f 67 123 153
f 67 153 68
f 68 153 154
f 68 154 69
f 69 154 155
f 69 155 70
f 70 155 71
f 71 155 156
f 71 156 72
f 72 156 73
f 73 156 157
f 73 157 74
f 74 157 75
f 75 157 76
f 76 157 77
f 77 157 158
f 77 158 159
f 77 159 160
f 77 160 78
f 78 160 161
f 78 161 162
f 78 162 163
f 78 163 79
f 79 163 80
f 80 163 164
f 80 164 165
f 80 165 166
f 80 166 167
f 80 167 81
f 81 167 82
f 82 167 168
f 82 168 83
f 83 168 169
f 83 169 84
f 84 169 85
f 85 169 171
f 85 171 170
f 86 172 173
f 86 173 174
f 86 174 175
f 86 175 126
f 86 126 87
f 86 112 176
f 86 176 177
f 86 177 172
f 88 178 92
f 88 92 89
f 92 178 94
f 94 178 95
f 95 179 180
f 95 180 181
f 95 181 96
f 95 178 179
f 96 181 182
f 96 182 183
f 96 183 184
f 96 184 185
f 96 185 97
f 97 185 186
f 97 186 102
f 99 187 100
f 99 102 187
f 100 187 188
f 100 188 103
f 100 103 101
f 102 189 187
f 102 186 184
f 102 184 189
f 103 188 190
f 103 190 191
f 103 191 192
f 103 192 193
f 103 193 194
f 103 194 106
f 103 106 104
f 104 106 105
f 106 194 193
f 106 193 195
f 106 195 107
f 107 196 197
f 107 197 198
f 107 198 199
f 107 199 200
f 107 200 201
f 107 201 108
f 107 195 196
f 108 201 109
f 109 201 200
f 109 200 202
f 109 202 110
f 110 203 111
f 110 202 203
f 111 204 205
f 111 205 206
f 111 206 112
f 111 203 207
f 111 207 204
f 112 206 176
f 114 119 118
f 115 208 116
f 115 122 209
f 115 209 210
f 115 210 211
f 115 211 208
f 116 212 117
f 116 208 213
f 116 213 212
f 117 212 214
f 117 214 215
f 117 215 123
f 119 152 216
f 119 216 217
f 119 217 120
f 120 217 218
f 120 218 219
f 120 219 121
f 121 219 122
f 122 219 220
f 122 220 221
f 122 221 209
f 123 215 154
f 123 154 153
f 125 222 127
f 125 126 222
f 126 175 222
f 127 222 128
f 128 223 224
f 128 224 130
f 128 130 129
f 128 222 223
f 130 225 131
f 130 224 225
f 131 225 132
f 132 226 133
f 132 225 227
f 132 227 226
f 133 226 228
f 133 228 134
f 134 228 135
f 135 228 229
f 135 229 136
f 136 229 137
f 137 229 138
f 138 229 230
f 138 230 139
f 139 230 231
f 139 231 140
f 140 231 141
f 141 231 144
f 142 149 143
f 142 147 149
f 144 231 232
f 144 232 233
f 144 233 146
f 144 146 145
f 146 233 234
f 146 234 235
f 146 235 147
f 147 235 236
f 147 236 237
f 147 237 238
f 147 238 239
f 147 239 240
f 147 240 241
f 147 241 242
f 147 242 149
f 148 243 150
f 148 149 244
f 148 244 245
f 148 245 246
f 148 246 243
f 149 247 244
f 149 242 248
f 149 248 247
f 150 243 249
f 150 249 151
f 151 249 250
f 151 250 152
f 152 250 216
f 154 215 214
f 154 214 155
f 155 214 251
f 155 251 156
f 156 251 252
f 156 252 157
f 157 252 253
f 157 253 254
f 157 254 255
f 157 255 158
f 158 254 256
f 158 256 257
f 158 257 159
f 158 255 254
f 159 258 259
f 159 259 160
f 159 257 260
f 159 260 261
f 159 261 258
f 160 259 161
f 161 259 162
f 162 164 163
f 162 259 262
f 162 262 164
f 164 262 165
f 165 262 166
f 166 263 167
f 166 262 264
f 166 264 265
f 166 265 263
f 167 263 266
f 167 266 267
f 167 267 168
f 168 267 268
f 168 268 169
f 169 268 269
f 169 269 270
f 169 270 271
f 169 271 171
f 170 171 272
f 171 273 272
f 171 271 274
f 171 274 275
f 171 275 276
f 171 276 179
f 171 179 273
f 172 277 278
f 172 278 279
f 172 279 280
f 172 280 281
f 172 281 173
f 172 177 277
f 173 281 174
f 174 282 283
f 174 283 175
f 174 281 284
f 174 284 285
f 174 285 282
f 175 283 286
f 175 286 222
f 176 206 287
f 176 287 277
f 176 277 177
f 178 288 179
f 179 288 273
f 179 276 275
f 179 275 289
f 179 289 290
f 179 290 291
f 179 291 180
f 180 291 181
f 181 291 292
f 181 292 293
f 181 293 294
f 181 294 182
f 182 294 295
f 182 295 296
f 182 296 297
f 182 297 189
f 182 189 184
f 182 184 183
f 184 186 185
f 187 298 190
f 187 190 188
f 187 189 298
f 189 297 296
f 189 296 299
f 189 299 300
f 189 300 301
f 189 301 302
f 189 302 303
f 189 303 304
f 189 304 298
f 190 305 191
f 190 298 305
f 191 305 306
f 191 306 307
f 191 307 196
f 191 196 192
f 192 196 193
f 193 196 195
f 196 308 309
f 196 309 197
f 196 307 308
f 197 309 310
f 197 310 198
f 198 310 199
f 199 311 207
f 199 207 203
f 199 203 202
f 199 202 200
f 199 310 311
f 204 207 312
f 204 312 313
f 204 313 314
f 204 314 205
f 205 314 315
f 205 315 277
f 205 277 287
f 205 287 206
f 207 311 316
f 207 316 312
f 208 317 253
f 208 253 318
f 208 318 213
f 208 211 319
f 208 319 320
f 208 320 321
f 208 321 317
f 209 221 210
f 210 322 211
f 210 221 323
f 210 323 324
f 210 324 322
f 211 322 319
f 212 318 214
f 212 213 318
f 214 318 251
f 216 250 217
f 217 325 326
f 217 326 218
f 217 250 327
f 217 327 328
f 217 328 325
f 218 326 329
f 218 329 219
f 219 329 220
f 220 329 330
f 220 330 221
f 221 330 323
f 222 286 331
f 222 331 223
f 223 332 333
f 223 333 334
f 223 334 224
f 223 331 332
f 224 334 225
f 225 334 227
f 226 335 228
f 226 227 334
f 226 334 335
f 228 335 232
f 228 232 229
f 229 232 230
f 230 232 231
f 232 234 233
f 232 335 234
f 234 335 235
f 235 335 334
f 235 334 336
f 235 336 236
f 236 336 334
f 236 334 337
f 236 337 338
f 236 338 339
f 236 339 237
f 237 340 238
f 237 339 340
f 238 340 341
f 238 341 342
f 238 342 343
f 238 343 239
f 239 344 345
f 239 345 240
f 239 343 344
f 240 345 346
f 240 346 347
f 240 347 348
f 240 348 349
f 240 349 350
f 240 350 351
f 240 351 241
f 241 351 350
f 241 350 248
f 241 248 242
f 243 352 249
f 243 246 352
f 244 247 245
f 245 247 353
f 245 353 246
f 246 354 352
f 246 353 247
f 246 247 355
f 246 355 354
f 247 356 357
f 247 357 358
f 247 358 355
f 247 248 356
f 248 350 359
f 248 359 356
f 249 360 250
f 249 352 360
f 250 360 361
f 250 361 327
f 251 318 252
f 252 318 253
f 253 362 254
f 253 317 321
f 253 321 363
f 253 363 362
f 254 362 363
f 254 363 364
f 254 364 365
f 254 365 366
f 254 366 256
f 256 366 367
f 256 367 257
f 257 367 260
f 258 261 259
f 259 261 368
f 259 368 369
f 259 369 262
f 260 370 371
f 260 371 261
f 260 367 370
f 261 371 368
f 262 369 264
f 263 372 266
f 263 265 373
f 263 373 374
f 263 374 372
f 264 369 375
f 264 375 265
f 265 375 376
f 265 376 373
f 266 372 269
f 266 269 377
f 266 377 267
f 267 377 268
f 268 377 269
f 269 372 378
f 269 378 270
f 270 379 271
f 270 378 291
f 270 291 379
f 271 379 380
f 271 380 275
f 271 275 274
f 272 273 288
f 275 380 290
f 275 290 289
f 277 381 279
f 277 279 278
f 277 315 381
f 279 382 383
f 279 383 281
f 279 281 280
f 279 381 314
f 279 314 384
f 279 384 382
f 281 383 284
f 282 285 385
f 282 385 386
f 282 386 283
f 283 386 339
f 283 339 286
f 284 383 382
f 284 382 387
f 284 387 285
f 285 387 388
f 285 388 385
f 286 339 389
f 286 389 332
f 286 332 331
f 290 380 379
f 290 379 291
f 291 390 292
f 291 378 372
f 291 372 390
f 292 390 376
f 292 376 391
f 292 391 293
f 293 392 294
f 293 391 393
f 293 393 392
f 294 392 295
f 295 394 395
f 295 395 396
f 295 396 299
f 295 299 296
f 295 392 394
f 298 304 303
f 298 303 397
f 298 397 398
f 298 398 305
f 299 396 300
f 300 399 400
f 300 400 301
f 300 396 395
f 300 395 399
f 301 400 302
f 302 400 397
f 302 397 303
f 305 398 308
f 305 308 307
f 305 307 306
f 308 401 309
f 308 398 402
f 308 402 403
f 308 403 404
f 308 404 405
f 308 405 406
f 308 406 407
f 308 407 401
f 309 401 310
f 310 401 311
f 311 401 408
f 311 408 316
f 312 316 409
f 312 409 313
f 313 409 314
f 314 409 384
f 314 381 315
f 316 410 411
f 316 411 412
f 316 412 409
f 316 408 406
f 316 406 410
f 319 322 320
f 320 322 413
f 320 413 321
f 321 413 414
f 321 414 363
f 322 324 415
f 322 415 413
f 323 416 324
f 323 330 416
f 324 416 417
f 324 417 418
f 324 418 419
f 324 419 415
f 325 420 326
f 325 328 421
f 325 421 420
f 326 420 329
f 327 361 422
f 327 422 423
f 327 423 421
f 327 421 328
f 329 420 330
f 330 420 416
f 332 424 333
f 332 389 424
f 333 424 334
f 334 424 338
f 334 338 337
f 338 424 339
f 339 424 389
f 339 386 385
f 339 385 340
f 340 385 341
f 341 385 388
f 341 388 342
f 342 425 343
f 342 388 426
f 342 426 425
f 343 425 344
f 344 425 427
f 344 427 428
f 344 428 345
f 345 428 427
f 345 427 429
f 345 429 430
f 345 430 346
f 346 430 431
f 346 431 347
f 347 431 348
f 348 431 349
f 349 431 432
f 349 432 433
f 349 433 350
f 350 433 359
f 352 354 434
f 352 434 435
f 352 435 360
f 354 355 357
f 354 357 436
f 354 436 437
f 354 437 438
f 354 438 434
f 355 358 357
f 356 359 439
f 356 439 440
f 356 440 441
f 356 441 357
f 357 441 442
f 357 442 443
f 357 443 436
f 359 444 440
f 359 440 439
f 359 433 444
f 360 445 446
f 360 446 361
f 360 435 447
f 360 447 445
f 361 446 448
f 361 448 422
f 363 414 449
f 363 449 364
f 364 449 450
f 364 450 451
f 364 451 365
f 365 451 366
f 366 451 367
f 367 451 370
f 368 371 452
f 368 452 369
f 369 452 375
f 370 451 371
f 371 451 453
f 371 453 454
f 371 454 455
f 371 455 456
f 371 456 457
f 371 457 458
f 371 458 452
f 372 374 390
f 373 376 374
f 374 376 390
f 375 452 376
f 376 452 393
f 376 393 391
f 382 384 409
f 382 409 426
f 382 426 387
f 387 426 388
f 392 393 394
f 393 452 459
f 393 459 394
f 394 459 395
f 395 459 460
f 395 460 461
f 395 461 462
f 395 462 463
f 395 463 464
f 395 464 465
f 395 465 466
f 395 466 467
f 395 467 468
f 395 468 399
f 397 400 469
f 397 469 470
f 397 470 398
f 398 470 402
f 399 468 400
f 400 468 471
f 400 471 472
f 400 472 473
f 400 473 469
f 401 407 408
f 402 470 403
f 403 470 404
f 404 474 405
f 404 470 474
f 405 474 475
f 405 475 476
f 405 476 477
f 405 477 478
f 405 478 479
f 405 479 412
f 405 412 411
f 405 411 410
f 405 410 406
f 406 408 407
f 409 480 481
f 409 481 426
f 409 412 480
f 412 479 480
f 413 415 482
f 413 482 414
f 414 482 449
f 415 419 482
f 416 420 421
f 416 421 417
f 417 421 483
f 417 483 418
f 418 483 484
f 418 484 485
f 418 485 419
f 419 485 486
f 419 486 482
f 421 423 484
f 421 484 483
f 422 448 484
f 422 484 423
f 425 426 481
f 425 481 427
f 427 481 480
f 427 480 487
f 427 487 429
f 429 487 488
f 429 488 430
f 430 488 489
f 430 489 490
f 430 490 432
f 430 432 431
f 432 491 433
f 432 490 491
f 433 491 444
f 434 438 492
f 434 492 493
f 434 493 435
f 435 493 447
f 436 494 495
f 436 495 437
f 436 443 496
f 436 496 497
f 436 497 494
f 437 495 438
f 438 494 497
f 438 497 492
f 438 495 494
f 440 444 498
f 440 498 463
f 440 463 441
f 441 463 499
f 441 499 454
f 441 454 500
f 441 500 482
f 441 482 501
f 441 501 442
f 442 501 482
f 442 482 502
f 442 502 443
f 443 502 503
f 443 503 496
f 444 491 504
f 444 504 498
f 445 448 446
f 445 447 505
f 445 505 506
f 445 506 507
f 445 507 448
f 447 493 508
f 447 508 505
f 448 507 509
f 448 509 484
f 449 482 450
f 450 482 500
f 450 500 451
f 451 500 510
f 451 510 453
f 452 458 511
f 452 511 459
f 453 510 500
f 453 500 454
f 454 499 512
f 454 512 455
f 455 461 513
f 455 513 456
f 455 512 462
f 455 462 461
f 456 513 457
f 457 513 461
f 457 461 460
f 457 460 459
f 457 459 511
f 457 511 458
f 462 512 463
f 463 512 499
f 463 498 465
f 463 465 464
f 465 498 514
f 465 514 515
f 465 515 467
f 465 467 466
f 467 472 471
f 467 471 468
f 467 515 516
f 467 516 517
f 467 517 472
f 469 473 518
f 469 518 470
f 470 518 519
f 470 519 520
f 470 520 474
f 472 521 473
f 472 517 521
f 473 521 518
f 474 520 522
f 474 522 475
f 475 522 476
f 476 523 524
f 476 524 477
f 476 522 525
f 476 525 526
f 476 526 523
f 477 524 478
f 478 524 527
f 478 527 488
f 478 488 479
f 479 488 480
f 480 488 487
f 482 486 528
f 482 528 502
f 484 509 529
f 484 529 485
f 485 529 486
f 486 529 530
f 486 530 528
f 488 527 489
f 489 527 524
f 489 524 523
f 489 523 531
f 489 531 532
f 489 532 491
f 489 491 490
f 491 533 534
f 491 534 535
f 491 535 504
f 491 532 531
f 491 531 533
f 492 497 508
f 492 508 493
f 496 503 530
f 496 530 506
f 496 506 497
f 497 506 505
f 497 505 508
f 498 504 514
f 502 528 503
f 503 528 530
f 504 535 515
f 504 515 514
f 506 530 507
f 507 530 529
f 507 529 509
f 515 535 516
f 516 535 517
f 517 535 536
f 517 536 537
f 517 537 538
f 517 538 539
f 517 539 540
f 517 540 521
f 518 521 541
f 518 541 540
f 518 540 519
f 519 540 520
f 520 540 539
f 520 539 522
f 521 540 541
f 522 526 525
f 522 539 526
f 523 526 538
f 523 538 533
f 523 533 531
f 526 539 538
f 533 538 536
f 533 536 535
f 533 535 534
f 536 538 537

