# https://github.com/mikedh/trimesh
v 0.01212755 -0.11741191 -0.19650376
v 0.01212755 -0.11741191 -0.18592981
v 0.01212755 -0.12405532 -0.19604523
v -0.18898643 -0.13195629 -0.14148030
v 0.00595720 -0.09287065 -0.19630923
v 0.00595720 -0.09157500 -0.19637871
v 0.00528100 -0.07433768 -0.19623976
v 0.00528100 -0.07278798 -0.19618417
v 0.00528100 -0.07122557 -0.19603134
v 0.00528100 -0.06568728 -0.19528102
v 0.00528100 -0.06439162 -0.19510039
v 0.00528100 -0.06305786 -0.19486416
v 0.00528100 -0.06195274 -0.19448902
v 0.00528100 -0.06138113 -0.19428059
v 0.00528100 -0.05616039 -0.19232142
v 0.01212755 -0.14901576 -0.18317864
v 0.00528100 -0.05616039 -0.18027462
v 0.00528100 -0.05619850 -0.17959378
v 0.01212755 -0.12712933 -0.19582291
v -0.21228725 -0.17315052 -0.11758122
v -0.21279441 -0.17200731 -0.11758122
v -0.21290710 -0.17166434 -0.11758122
v -0.21324520 -0.17044490 -0.11758122
v -0.23815199 -0.11153064 -0.09696131
v -0.23815199 -0.10998094 -0.09698910
v -0.18898643 -0.11304224 -0.14148030
v 0.00528100 -0.08825964 -0.19623976
v 0.00528100 -0.08947908 -0.19622587
v 0.00570363 -0.09157500 -0.19630923
v 0.01212755 -0.13308681 -0.19525323
v 0.01212755 -0.13477624 -0.19504480
v 0.01212755 -0.13682134 -0.19475302
v 0.01212755 -0.14562419 -0.19346079
v 0.01212755 -0.14717389 -0.19322458
v 0.01212755 -0.14874901 -0.19294669
v 0.01212755 -0.14901576 -0.19287721
v -0.00001593 -0.05914548 -0.19198794
v 0.00311152 -0.06083492 -0.19350247
v 0.00108291 -0.05871360 -0.19216858
v -0.00038220 -0.05726551 -0.19122373
v -0.00041038 -0.05616039 -0.19079300
v -0.11051873 -0.04343247 -0.13528321
v -0.03982737 -0.04343247 -0.15330479
v -0.03982737 -0.15369029 -0.14028534
v -0.05213989 -0.15804724 -0.13101750
v -0.05213989 -0.15902533 -0.13129540
v -0.05213989 -0.15993991 -0.13155940
v -0.05213989 -0.16038451 -0.13171224
v -0.05213989 -0.16112126 -0.13197624
v -0.05388675 -0.16342042 -0.13136487
v -0.05549273 -0.16646901 -0.13140656
v -0.05650703 -0.16735819 -0.13093414
v -0.05681696 -0.16832358 -0.13117034
v -0.05526733 -0.16827277 -0.13274045
v -0.05377404 -0.16822197 -0.13432446
v -0.05230894 -0.16814574 -0.13597795
v -0.05213989 -0.16824736 -0.13647817
v -0.05523915 -0.16978438 -0.13574173
v -0.05960629 -0.17149920 -0.13365752
v -0.06084600 -0.17215974 -0.13365752
v -0.06197301 -0.17266783 -0.13365752
v -0.06276191 -0.17292188 -0.13365752
v -0.03982737 -0.04343247 -0.13970176
v -0.05977534 -0.15001925 -0.12316693
v -0.19270555 -0.17315052 -0.11758122
v -0.20414464 -0.17317593 -0.11096728
v -0.20014377 -0.17317593 -0.10467293
v -0.25846628 -0.16436040 -0.05455434
v -0.25756467 -0.16436040 -0.05626340
v -0.25424000 -0.16436040 -0.06222428
v -0.25404277 -0.16367447 -0.06332197
v -0.26632713 -0.14642444 -0.06312744
v -0.26725690 -0.14417610 -0.06410008
v -0.26784857 -0.14253747 -0.06457250
v -0.06332541 -0.17284567 -0.13451900
v -0.06366351 -0.17292188 -0.13365752
v -0.26646800 -0.14194046 -0.06630935
v -0.26655253 -0.14097506 -0.06646220
v -0.26531282 -0.13788836 -0.06835189
v -0.26466480 -0.13632595 -0.06921337
v -0.26477750 -0.13384896 -0.06931063
v -0.26072028 -0.11927918 -0.07454898
v -0.26159370 -0.11619246 -0.07389593
v -0.26007225 -0.11463005 -0.07546603
v -0.25533883 -0.10733881 -0.08002353
v -0.23970164 -0.10843123 -0.09541898
v -0.23891275 -0.10843123 -0.09615542
v -0.26007225 -0.11308035 -0.07545214
v -0.23885638 -0.10735152 -0.09609984
v -0.23355947 -0.07586199 -0.09698910
v -0.23355947 -0.07432498 -0.09678068
v -0.23355947 -0.07285149 -0.09647499
v -0.23355947 -0.07192421 -0.09623878
v -0.23355947 -0.06937100 -0.09554404
v -0.23355947 -0.06851994 -0.09529393
v -0.19250833 -0.05419150 -0.11135634
v -0.18893009 -0.05419150 -0.11284308
v -0.00257986 -0.05659228 -0.19022331
v -0.00198818 -0.05717659 -0.19069573
v -0.00308702 -0.05763388 -0.19045952
v -0.06281826 -0.17284567 -0.13451900
v -0.00145285 -0.05616039 -0.19047341
v -0.11201201 -0.04343247 -0.13483858
v -0.04320838 -0.15369029 -0.13746470
v -0.05213989 -0.15649753 -0.13064234
v -0.05819754 -0.16735819 -0.12957244
v -0.05842294 -0.16827277 -0.12972528
v -0.05788761 -0.16880626 -0.13067013
v -0.05842294 -0.16974626 -0.13121203
v -0.05808484 -0.16994950 -0.13211519
v -0.05884557 -0.17105462 -0.13365752
v -0.05994440 -0.17130867 -0.13271267
v -0.06295914 -0.17289647 -0.13276825
v -0.18622527 -0.17317593 -0.10467293
v -0.18554907 -0.17317593 -0.10613188
v -0.18549272 -0.17317593 -0.10640978
v -0.18540819 -0.17317593 -0.10729905
v -0.18557723 -0.17317593 -0.10827169
v -0.18605621 -0.17317593 -0.10904980
v -0.18684513 -0.17317593 -0.11027254
v -0.18729592 -0.17317593 -0.11096728
v -0.04117977 -0.04343247 -0.13896533
v -0.06146585 -0.14943494 -0.12205535
v -0.06146585 -0.14960008 -0.12205535
v -0.06076148 -0.15032412 -0.12266672
v -0.26846843 -0.14874901 -0.05455434
v -0.24584380 -0.16436040 -0.05455434
v -0.26798945 -0.14350287 -0.06354428
v -0.26615808 -0.13632595 -0.06753210
v -0.26610172 -0.13788836 -0.06743483
v -0.26818669 -0.14253747 -0.06379439
v -0.26953908 -0.14056859 -0.06175185
v -0.27091967 -0.13788836 -0.05984826
v -0.27565308 -0.11619246 -0.05455434
v -0.26920098 -0.12704041 -0.06429461
v -0.26844027 -0.12860282 -0.06530892
v -0.26542552 -0.13478894 -0.06850473
v -0.26562276 -0.13013982 -0.06854642
v -0.26480568 -0.13280736 -0.06933842
v -0.26365048 -0.12084159 -0.07132538
v -0.26165005 -0.11463005 -0.07389593
v -0.26303064 -0.11772947 -0.07217296
v -0.24099768 -0.10735152 -0.09408509
v -0.26948274 -0.10733881 -0.06473924
v -0.23355947 -0.06851994 -0.08581768
v -0.26998988 -0.10733881 -0.06393334
v -0.27075063 -0.10733881 -0.06266891
v -0.27117324 -0.10733881 -0.06190469
v -0.27489236 -0.10733881 -0.05499897
v -0.27511775 -0.10738962 -0.05455434
v -0.19250833 -0.05419150 -0.10225524
v -0.15613424 -0.04343247 -0.11281530
v -0.13593268 -0.04343247 -0.12447304
v -0.13246715 -0.04343247 -0.12646000
v -0.13063576 -0.04343247 -0.12746042
v -0.12911431 -0.04343247 -0.12815517
v -0.12739563 -0.04343247 -0.12886381
v -0.11818236 -0.04343247 -0.13244867
v -0.11381522 -0.04343247 -0.13414384
v -0.07329940 -0.16430958 -0.12081871
v -0.07425735 -0.16488119 -0.12054081
v -0.05929637 -0.16928896 -0.13016992
v -0.05929637 -0.17001302 -0.13094802
v -0.06059243 -0.17109273 -0.13168445
v -0.06163490 -0.17123246 -0.13133708
v -0.24567476 -0.16436040 -0.05458213
v -0.04236313 -0.04343247 -0.13842344
v -0.24573111 -0.16428417 -0.05455434
v -0.07992055 -0.15494783 -0.11570541
v -0.08011778 -0.15584972 -0.11581657
v -0.07628596 -0.16118476 -0.11860943
v -0.07569429 -0.16173096 -0.11901239
v -0.07383473 -0.16383959 -0.12041576
v -0.26925735 -0.14741524 -0.05455434
v -0.27018712 -0.14567500 -0.05455434
v -0.27100420 -0.14408719 -0.05455434
v -0.27142682 -0.14309639 -0.05455434
v -0.27159586 -0.14266450 -0.05455434
v -0.27114508 -0.13898077 -0.05882005
v -0.26621441 -0.13478894 -0.06758768
v -0.27128596 -0.13788836 -0.05907016
v -0.27255381 -0.13557650 -0.05691646
v -0.27548404 -0.11772947 -0.05455434
v -0.27568126 -0.11463005 -0.05455434
v -0.27418798 -0.11308035 -0.05705541
v -0.27075063 -0.10843123 -0.06272449
v -0.26643982 -0.12394100 -0.06790726
v -0.26497472 -0.12547801 -0.06954685
v -0.15613424 -0.04343247 -0.10525651
v -0.27424434 -0.10733881 -0.05455434
v -0.27122959 -0.10843123 -0.06194638
v -0.27187761 -0.10843123 -0.06079311
v -0.27548404 -0.11104795 -0.05455434
v -0.07327123 -0.16563064 -0.12156903
v -0.06101505 -0.17052111 -0.13079518
v -0.07842727 -0.15917777 -0.11727553
v -0.04385640 -0.04343247 -0.13790932
v -0.26373503 -0.10733881 -0.05455434
v -0.27204667 -0.14098777 -0.05455434
v -0.27196216 -0.13943806 -0.05612445
v -0.27184945 -0.13788836 -0.05768067
v -0.27325820 -0.13478894 -0.05456823
v -0.27353996 -0.13325194 -0.05455434
v -0.27376534 -0.13174034 -0.05455434
v -0.27230024 -0.13995886 -0.05456823
v -0.27556857 -0.11241982 -0.05455434
v -0.27542769 -0.11308035 -0.05494339
v -0.27475148 -0.11308035 -0.05612445
v -0.27238477 -0.13948887 -0.05455434
v -0.27325820 -0.13478894 -0.05455434
f 1 2 16
f 1 16 36
f 1 36 35
f 1 35 34
f 1 34 33
f 1 33 32
f 1 32 31
f 1 31 30
f 1 30 19
f 1 19 3
f 1 3 4
f 1 4 5
f 1 5 6
f 1 6 7
f 1 7 8
f 1 8 9
f 1 9 10
f 1 10 11
f 1 11 12
f 1 12 13
f 1 13 14
f 1 14 15
f 1 15 17
f 1 17 2
f 2 17 18
f 2 18 16
f 3 19 4
f 4 20 21
f 4 21 22
f 4 22 23
f 4 23 24
f 4 24 25
f 4 25 26
f 4 26 7
f 4 7 27
f 4 27 28
f 4 28 29
f 4 29 6
f 4 6 5
f 4 19 30
f 4 30 31
f 4 31 32
f 4 32 33
f 4 33 34
f 4 34 35
f 4 35 36
f 4 36 20
f 6 29 28
f 6 28 27
f 6 27 7
f 7 26 8
f 8 26 9
f 9 26 10
f 10 26 11
f 11 26 12
f 12 37 38
f 12 38 13
f 12 26 37
f 13 38 14
f 14 38 15
f 15 38 39
f 15 39 40
f 15 40 41
f 15 41 42
f 15 42 43
f 15 43 63
f 15 63 17
f 16 44 45
f 16 45 46
f 16 46 47
f 16 47 48
f 16 48 49
f 16 49 50
f 16 50 51
f 16 51 52
f 16 52 53
f 16 53 54
f 16 54 55
f 16 55 56
f 16 56 57
f 16 57 58
f 16 58 59
f 16 59 60
f 16 60 61
f 16 61 62
f 16 62 36
f 16 18 63
f 16 63 64
f 16 64 44
f 17 63 18
f 20 65 121
f 20 121 66
f 20 66 67
f 20 67 68
f 20 68 69
f 20 69 70
f 20 70 71
f 20 71 72
f 20 72 73
f 20 73 74
f 20 74 21
f 20 36 75
f 20 75 76
f 20 76 62
f 20 62 65
f 21 74 22
f 22 74 23
f 23 74 77
f 23 77 78
f 23 78 79
f 23 79 80
f 23 80 81
f 23 81 82
f 23 82 83
f 23 83 24
f 24 83 84
f 24 84 25
f 25 85 86
f 25 86 87
f 25 87 26
f 25 84 88
f 25 88 85
f 26 87 89
f 26 89 90
f 26 90 91
f 26 91 92
f 26 92 93
f 26 93 94
f 26 94 95
f 26 95 96
f 26 96 97
f 26 97 98
f 26 98 99
f 26 99 100
f 26 100 37
f 36 62 101
f 36 101 75
f 37 100 99
f 37 99 40
f 37 40 39
f 37 39 38
f 40 99 102
f 40 102 41
f 41 102 103
f 41 103 42
f 42 103 159
f 42 159 158
f 42 158 157
f 42 157 156
f 42 156 155
f 42 155 154
f 42 154 153
f 42 153 152
f 42 152 189
f 42 189 197
f 42 197 167
f 42 167 122
f 42 122 63
f 42 63 43
f 44 64 104
f 44 104 105
f 44 105 45
f 45 105 64
f 45 64 46
f 46 64 47
f 47 64 50
f 47 50 48
f 48 50 49
f 50 64 106
f 50 106 107
f 50 107 52
f 50 52 51
f 52 107 53
f 53 107 108
f 53 108 109
f 53 109 54
f 54 109 55
f 55 109 56
f 56 109 110
f 56 110 111
f 56 111 58
f 56 58 57
f 58 111 59
f 59 111 112
f 59 112 60
f 60 112 113
f 60 113 61
f 61 113 62
f 62 113 114
f 62 114 115
f 62 115 116
f 62 116 117
f 62 117 118
f 62 118 119
f 62 119 120
f 62 120 121
f 62 121 65
f 62 76 75
f 62 75 101
f 63 122 123
f 63 123 64
f 64 123 124
f 64 124 125
f 64 125 106
f 64 105 104
f 66 121 120
f 66 120 119
f 66 119 118
f 66 118 117
f 66 117 116
f 66 116 115
f 66 115 114
f 66 114 67
f 67 114 127
f 67 127 68
f 68 126 72
f 68 72 69
f 68 127 168
f 68 168 198
f 68 198 190
f 68 190 150
f 68 150 193
f 68 193 206
f 68 206 184
f 68 184 134
f 68 134 183
f 68 183 204
f 68 204 203
f 68 203 210
f 68 210 209
f 68 209 199
f 68 199 178
f 68 178 177
f 68 177 176
f 68 176 175
f 68 175 174
f 68 174 126
f 69 72 70
f 70 72 71
f 72 126 128
f 72 128 73
f 73 128 74
f 74 129 130
f 74 130 78
f 74 78 77
f 74 128 131
f 74 131 132
f 74 132 133
f 74 133 134
f 74 134 135
f 74 135 136
f 74 136 129
f 78 130 79
f 79 130 129
f 79 129 137
f 79 137 81
f 79 81 80
f 81 137 138
f 81 138 139
f 81 139 140
f 81 140 83
f 81 83 82
f 83 141 84
f 83 140 142
f 83 142 141
f 84 141 88
f 85 91 143
f 85 143 86
f 85 88 141
f 85 141 144
f 85 144 91
f 86 89 87
f 86 143 89
f 89 143 90
f 90 143 91
f 91 144 92
f 92 144 93
f 93 144 94
f 94 144 95
f 95 145 151
f 95 151 96
f 95 144 146
f 95 146 147
f 95 147 148
f 95 148 149
f 95 149 150
f 95 150 145
f 96 151 189
f 96 189 152
f 96 152 153
f 96 153 154
f 96 154 155
f 96 155 156
f 96 156 97
f 97 156 157
f 97 157 102
f 97 102 98
f 98 102 99
f 102 157 158
f 102 158 159
f 102 159 103
f 106 125 107
f 107 109 108
f 107 125 124
f 107 124 160
f 107 160 161
f 107 161 162
f 107 162 109
f 109 162 163
f 109 163 164
f 109 164 113
f 109 113 112
f 109 112 110
f 110 112 111
f 113 164 163
f 113 163 165
f 113 165 166
f 113 166 114
f 114 166 127
f 122 167 123
f 123 167 168
f 123 168 124
f 124 168 166
f 124 166 169
f 124 169 170
f 124 170 171
f 124 171 172
f 124 172 173
f 124 173 160
f 126 174 128
f 127 166 168
f 128 174 175
f 128 175 176
f 128 176 177
f 128 177 178
f 128 178 179
f 128 179 131
f 129 136 180
f 129 180 137
f 131 179 132
f 132 179 181
f 132 181 133
f 133 181 182
f 133 182 134
f 134 182 183
f 134 184 185
f 134 185 135
f 135 144 136
f 135 185 186
f 135 186 144
f 136 144 187
f 136 187 138
f 136 138 180
f 137 180 138
f 138 188 140
f 138 140 139
f 138 187 188
f 140 188 187
f 140 187 142
f 141 142 144
f 142 187 144
f 144 186 146
f 145 189 151
f 145 150 190
f 145 190 189
f 146 186 191
f 146 191 147
f 147 191 192
f 147 192 148
f 148 192 149
f 149 192 193
f 149 193 150
f 160 173 161
f 161 194 162
f 161 173 172
f 161 172 171
f 161 171 166
f 161 166 194
f 162 195 163
f 162 194 166
f 162 166 195
f 163 195 165
f 165 195 166
f 166 171 196
f 166 196 170
f 166 170 169
f 167 197 198
f 167 198 168
f 170 196 171
f 178 199 200
f 178 200 179
f 179 200 201
f 179 201 181
f 181 201 182
f 182 202 203
f 182 203 204
f 182 204 183
f 182 201 205
f 182 205 202
f 184 206 207
f 184 207 208
f 184 208 185
f 185 208 191
f 185 191 186
f 189 190 198
f 189 198 197
f 191 208 207
f 191 207 192
f 192 207 193
f 193 207 206
f 199 209 205
f 199 205 200
f 200 205 201
f 202 210 203
f 202 205 210
f 205 209 210

