# https://github.com/mikedh/trimesh
v 0.17776410 -0.18198030 -0.19102075
v 0.17774282 -0.27291472 -0.14463159
v 0.17774282 -0.27439288 -0.14407451
v 0.17776410 -0.23251206 -0.17953523
v 0.17776410 -0.18198030 -0.20119955
v 0.05746014 -0.18198030 -0.19333162
v -0.03977970 -0.27528356 -0.14144728
v -0.03977970 -0.27592788 -0.14115154
v 0.17774282 -0.27591839 -0.14456282
v -0.03977970 -0.27671432 -0.14093834
v -0.03977970 -0.27721651 -0.14081454
v -0.03977970 -0.27806929 -0.14061509
v -0.03977970 -0.27835355 -0.14061509
v 0.17776410 -0.23251206 -0.19046368
v 0.17774282 -0.27625002 -0.14474163
v 0.17774282 -0.27683750 -0.14515429
v 0.17774282 -0.27689434 -0.14529871
v 0.17774282 -0.27693225 -0.14637849
v 0.17776410 -0.19532151 -0.20156406
v 0.16055653 -0.18198030 -0.20750627
v 0.05746014 -0.18198030 -0.20227932
v -0.03977970 -0.20462625 -0.19903311
v -0.03977970 -0.27467713 -0.14179803
v -0.03980099 -0.25548966 -0.16776771
v -0.03977970 -0.27866624 -0.14141977
v 0.17776410 -0.22947996 -0.19177041
v 0.17774282 -0.27688488 -0.14665360
v 0.17774282 -0.27651534 -0.14729320
v 0.17774282 -0.26771278 -0.15940460
v 0.17774282 -0.26755171 -0.15960404
v 0.17774282 -0.25390728 -0.17528489
v 0.17774282 -0.25241965 -0.17667415
v 0.17774282 -0.23926794 -0.18699737
v 0.17774282 -0.23847201 -0.18758197
v 0.17774282 -0.23819723 -0.18774015
v 0.17774282 -0.23717390 -0.18831788
v 0.17774282 -0.23687069 -0.18846231
v 0.17774282 -0.23594212 -0.18889559
v 0.17774282 -0.23378175 -0.18989283
v 0.17576223 -0.23799825 -0.18875117
v 0.17727429 -0.23331745 -0.19027798
v -0.03754357 -0.27877993 -0.14299473
v 0.17648631 -0.27694172 -0.14736886
v 0.17776410 -0.19657226 -0.20158470
v 0.15942782 -0.18291836 -0.20793268
v 0.15942782 -0.18198030 -0.20790518
v 0.06423243 -0.18198030 -0.20420503
v -0.03977970 -0.20462625 -0.21048426
v -0.03980099 -0.22796392 -0.18618582
v -0.03980099 -0.24705663 -0.17311157
v -0.03980099 -0.25548966 -0.17719685
v -0.03977970 -0.27860937 -0.14304287
v -0.03909821 -0.27868518 -0.14299473
v 0.17776410 -0.21819488 -0.19649529
v 0.17646501 -0.23251206 -0.19087633
v 0.17569834 -0.22709219 -0.19337975
v 0.17586871 -0.21947406 -0.19652969
v 0.17761503 -0.21806223 -0.19659846
v 0.17750855 -0.27684697 -0.14703874
v 0.17565575 -0.26893509 -0.15924641
v 0.17770021 -0.26762751 -0.15954902
v 0.17727429 -0.25502536 -0.17481035
v 0.17708263 -0.25336718 -0.17624087
v 0.17714650 -0.23944798 -0.18713492
v 0.17646501 -0.23871837 -0.18794649
v 0.17680576 -0.23755291 -0.18853796
v 0.17738077 -0.23652011 -0.18877866
v 0.17612426 -0.23972276 -0.18736876
v 0.17493167 -0.24000702 -0.18756823
v 0.17493167 -0.23893631 -0.18833162
v 0.17493167 -0.23815934 -0.18884058
v 0.17493167 -0.23717390 -0.18929448
v 0.17491037 -0.23251206 -0.19128211
v 0.17544277 -0.23471032 -0.19022296
v -0.03441298 -0.27851464 -0.14466598
v -0.02753421 -0.27828721 -0.14689431
v -0.02706569 -0.27828721 -0.14689431
v 0.13461739 -0.27675221 -0.15626154
v 0.16407044 -0.27693225 -0.15340736
v 0.16873439 -0.27697015 -0.15188053
v 0.17182239 -0.27693225 -0.15045689
v 0.17465482 -0.27692279 -0.14874437
v 0.17776410 -0.19687547 -0.20158470
v 0.15942782 -0.18447230 -0.20790518
v 0.15787316 -0.18291836 -0.20824217
v 0.15849076 -0.18198030 -0.20809086
v 0.06533985 -0.18198030 -0.20450765
v -0.01739708 -0.20462625 -0.21086941
v -0.01865356 -0.20560222 -0.21051866
v -0.01837671 -0.21014088 -0.20892993
v -0.01684336 -0.21787272 -0.20582128
v -0.01584242 -0.22012785 -0.20487904
v -0.01584242 -0.22117013 -0.20439074
v -0.03977970 -0.20506212 -0.21027106
v -0.03980099 -0.22796392 -0.19574563
v 0.06636208 -0.18198030 -0.20476901
v 0.06702227 -0.18198030 -0.20492719
v 0.06857692 -0.18198030 -0.20528482
v 0.07475291 -0.18198030 -0.20667409
v 0.07779831 -0.18198030 -0.20732745
v 0.07794738 -0.18198030 -0.20735497
v 0.07886313 -0.18198030 -0.20745126
v 0.08033259 -0.18198030 -0.20758193
v 0.08250483 -0.18198030 -0.20775387
v 0.10886990 -0.18198030 -0.20973461
v 0.11042455 -0.18198030 -0.20984464
v 0.11195790 -0.18198030 -0.20992717
v 0.11289495 -0.18198030 -0.20996157
v -0.03980099 -0.24495312 -0.18453522
v -0.03977970 -0.25667406 -0.17638530
v -0.03977970 -0.25695833 -0.17618585
v -0.03977970 -0.25896708 -0.17476219
v -0.03977970 -0.25930819 -0.17451459
v -0.03977970 -0.26027468 -0.17374432
v -0.03977970 -0.26105165 -0.17304968
v -0.03977970 -0.26171492 -0.17227252
v -0.03977970 -0.27166399 -0.16032620
v -0.03977970 -0.27200510 -0.15989291
v -0.03977970 -0.27226093 -0.15955590
v -0.03977970 -0.27275365 -0.15851051
v -0.03977970 -0.27482873 -0.15324230
v -0.03977970 -0.27616475 -0.14981039
v -0.03977970 -0.27670483 -0.14835235
v -0.03977970 -0.27730177 -0.14670173
v -0.03754357 -0.27842935 -0.14416392
v -0.03598892 -0.27849566 -0.14436336
v 0.17776410 -0.21782534 -0.19664660
v 0.17433536 -0.22410747 -0.19498224
v 0.17493167 -0.21858338 -0.19714867
v 0.17642242 -0.21858338 -0.19672913
v 0.17282332 -0.27682803 -0.15012676
v 0.17101311 -0.27670483 -0.15150227
v 0.17429279 -0.27059328 -0.15785027
v 0.17461223 -0.26920041 -0.15955590
v 0.17589000 -0.25674039 -0.17345546
v 0.17648631 -0.25519592 -0.17497539
v 0.17652890 -0.25418206 -0.17581446
v 0.17603909 -0.25362301 -0.17646095
v 0.17380295 -0.24100192 -0.18712806
v 0.17337703 -0.23915424 -0.18848981
v 0.17337703 -0.23837727 -0.18898501
v 0.17337703 -0.23717390 -0.18958335
v 0.17442055 -0.23498511 -0.19033299
v -0.03598892 -0.27822090 -0.14513365
v -0.02512770 -0.27761447 -0.14920517
v -0.02157119 -0.27730177 -0.15075263
v -0.02048507 -0.27735864 -0.15075263
v -0.01893042 -0.27739653 -0.15075263
v 0.13306274 -0.27675221 -0.15628218
v 0.13928132 -0.27659114 -0.15695618
v 0.16040745 -0.27673327 -0.15463844
v 0.16142969 -0.27670483 -0.15457655
v 0.16530564 -0.27685645 -0.15324918
v 0.16996959 -0.27685645 -0.15170173
v 0.17776410 -0.19805040 -0.20146777
v 0.15942782 -0.18601677 -0.20774011
v 0.15787316 -0.18601677 -0.20807023
v 0.15787316 -0.18447230 -0.20821465
v 0.15787316 -0.18198030 -0.20820779
v 0.13676833 -0.18198030 -0.20968647
v -0.01784430 -0.21014088 -0.20892993
v 0.12684416 -0.18198030 -0.21009223
v 0.12746176 -0.18198030 -0.21009223
v 0.12839880 -0.18198030 -0.21008536
v 0.15323053 -0.19998336 -0.20651590
v 0.15476388 -0.20151837 -0.20615827
v 0.15476388 -0.20261750 -0.20589005
v 0.15942782 -0.20618021 -0.20474837
v 0.15942782 -0.20734567 -0.20439074
v -0.01614058 -0.21787272 -0.20582128
v -0.01428778 -0.22117013 -0.20438386
v 0.14703325 -0.22788811 -0.19700424
v 0.14703325 -0.22885460 -0.19659158
v -0.01428778 -0.22194710 -0.20392994
v -0.01428778 -0.22318837 -0.20315278
v -0.01584242 -0.22194710 -0.20390244
v -0.01694985 -0.22102800 -0.20430821
v -0.03977970 -0.20876696 -0.20829719
v -0.03977970 -0.20778152 -0.20887492
v -0.03977970 -0.20684348 -0.20937698
v -0.03977970 -0.20569697 -0.20995469
v -0.03980099 -0.22893987 -0.19511291
v -0.03977970 -0.21015036 -0.20740310
v -0.03980099 -0.24374977 -0.18536051
v -0.01584242 -0.22309361 -0.20312527
v -0.01426649 -0.25149108 -0.18379931
v -0.03754357 -0.25953560 -0.17467966
v -0.03754357 -0.26039786 -0.17390251
v -0.03562688 -0.26127905 -0.17329040
v -0.02512770 -0.26564717 -0.16989289
v -0.02823700 -0.26620620 -0.16893003
v -0.02979164 -0.26608304 -0.16881310
v -0.02823700 -0.26698319 -0.16800155
v -0.02823700 -0.26757065 -0.16722439
v -0.03443428 -0.27188192 -0.16056002
v -0.03598892 -0.27236515 -0.15972097
v -0.03290093 -0.27316108 -0.15851051
v -0.03081387 -0.27364433 -0.15776086
v -0.03183611 -0.27361589 -0.15769896
v -0.03290093 -0.27358746 -0.15762331
v -0.02776847 -0.27520774 -0.15467284
v -0.02357306 -0.27679012 -0.15164670
v -0.02453140 -0.27675221 -0.15157106
v -0.02357306 -0.27715017 -0.15075263
v 0.17776410 -0.21709575 -0.19690795
v 0.17403722 -0.23168771 -0.19181169
v 0.17393074 -0.22082902 -0.19645403
v 0.16185561 -0.20708984 -0.20429445
v 0.17480389 -0.21689677 -0.19776076
v 0.17648631 -0.21702942 -0.19727934
v 0.17128996 -0.27527407 -0.15321478
v 0.17295111 -0.27224197 -0.15640597
v 0.17337703 -0.27018583 -0.15883376
v 0.17337703 -0.26940886 -0.15981038
v 0.17278071 -0.26594091 -0.16402632
v 0.17493167 -0.25691095 -0.17359989
v 0.17493167 -0.25615292 -0.17437705
v 0.17493167 -0.25537595 -0.17514046
v 0.17493167 -0.25454213 -0.17591075
v 0.17493167 -0.25376514 -0.17660538
v 0.17026774 -0.24835476 -0.18214183
v 0.17026774 -0.24757779 -0.18277455
v 0.17105572 -0.24570167 -0.18407442
v 0.16502880 -0.24730299 -0.18411568
v 0.15942782 -0.24700927 -0.18543617
v 0.15942782 -0.24622281 -0.18597262
v 0.15787316 -0.24640284 -0.18609641
v 0.15787316 -0.24520895 -0.18687358
v 0.15785187 -0.24444145 -0.18735502
v 0.15872503 -0.23952378 -0.19029173
v 0.16170654 -0.23639693 -0.19181855
v 0.16251580 -0.23626428 -0.19176353
v 0.17026774 -0.23735393 -0.18999600
v 0.16036486 -0.21169483 -0.20272636
v 0.16407044 -0.23598001 -0.19164662
v 0.15842688 -0.22705428 -0.19646091
v -0.02203971 -0.27683750 -0.15175674
v -0.02048507 -0.27688488 -0.15184616
v -0.01737577 -0.27696068 -0.15202498
v -0.01117850 -0.27677116 -0.15316665
v -0.00962385 -0.27679012 -0.15322166
v 0.13461739 -0.27656271 -0.15704560
v 0.13772667 -0.27589944 -0.15842798
v 0.13928132 -0.27587101 -0.15840048
v 0.14236932 -0.27579521 -0.15833857
v 0.14081467 -0.27653429 -0.15695618
v 0.15323053 -0.27549201 -0.15811849
v 0.15476388 -0.27541621 -0.15802909
v 0.15602037 -0.27529303 -0.15787091
v 0.17182239 -0.27242200 -0.15660543
v 0.17776410 -0.19839151 -0.20141963
v 0.15721298 -0.19166404 -0.20738248
v 0.15631852 -0.19196727 -0.20741686
v 0.15631852 -0.19066914 -0.20758193
v 0.15631852 -0.18601677 -0.20816652
v 0.13523498 -0.18198030 -0.20978274
v 0.15942782 -0.20764888 -0.20428071
v 0.15942782 -0.20927864 -0.20368236
v 0.15942782 -0.21083258 -0.20309775
v 0.15167589 -0.22440121 -0.19819406
v 0.15014254 -0.22523503 -0.19792583
v 0.14856659 -0.22634364 -0.19755444
v 0.12901640 -0.18198030 -0.21006474
v 0.12995344 -0.18198030 -0.21003034
v 0.13180624 -0.18198030 -0.20996157
v 0.15476388 -0.19998336 -0.20645400
v 0.15631852 -0.20246590 -0.20583502
v 0.15708520 -0.20230481 -0.20579376
v 0.16096115 -0.20618021 -0.20459018
v 0.16096115 -0.20726038 -0.20435634
v 0.15167589 -0.23170665 -0.19492034
v 0.15631852 -0.23455872 -0.19322845
v 0.15787316 -0.23561996 -0.19259572
v 0.15785187 -0.23667171 -0.19199049
v 0.15167589 -0.22516869 -0.19788457
v 0.14856659 -0.22788811 -0.19692171
v 0.14856659 -0.22876931 -0.19653656
v 0.15323053 -0.23161191 -0.19487907
v 0.15787316 -0.23447345 -0.19320783
v -0.00653585 -0.23830145 -0.19359983
v -0.01237110 -0.22875984 -0.19964522
v 0.15787316 -0.23953325 -0.19030549
v 0.15631852 -0.24527528 -0.18692172
v -0.03980099 -0.24298227 -0.18588321
v -0.03980099 -0.24031971 -0.18763700
v -0.01273314 -0.25164268 -0.18390936
v -0.03598892 -0.25963982 -0.17475531
v -0.01305258 -0.25341456 -0.18249258
v -0.01893042 -0.26445328 -0.17181860
v -0.02357306 -0.26574193 -0.16996854
v -0.01273314 -0.26171492 -0.17521611
v -0.01273314 -0.26248243 -0.17450085
v -0.02668235 -0.26628202 -0.16901944
v -0.02512770 -0.26631992 -0.16912259
v -0.02668235 -0.26705899 -0.16804970
v -0.02823700 -0.26824339 -0.16625465
v -0.02979164 -0.26884034 -0.16528492
v -0.02512770 -0.26709689 -0.16809784
v -0.03290093 -0.27192928 -0.16060817
v -0.03443428 -0.27240306 -0.15978974
v -0.02823700 -0.27372011 -0.15789840
v 0.17776410 -0.21546599 -0.19736875
v 0.17776410 -0.19926324 -0.20126832
v 0.17776410 -0.19974647 -0.20116517
v 0.17776410 -0.20594333 -0.19968648
v 0.16096115 -0.20803737 -0.20406749
v 0.17261036 -0.26740958 -0.16238258
v 0.17182239 -0.26605460 -0.16417075
v 0.17026774 -0.26335415 -0.16771957
v 0.17026774 -0.26265298 -0.16848299
v 0.16943716 -0.26274772 -0.16857240
v 0.15942782 -0.26603566 -0.16721751
v 0.15631852 -0.25948822 -0.17460401
v 0.15631852 -0.25871125 -0.17540182
v 0.15631852 -0.25795324 -0.17617897
v 0.15427405 -0.25660773 -0.17792588
v 0.15631852 -0.25400203 -0.17988598
v 0.15753243 -0.24890432 -0.18415695
v 0.15942782 -0.24791889 -0.18466589
v 0.15787316 -0.24717983 -0.18555998
v 0.15631852 -0.24723667 -0.18560811
v 0.15631852 -0.24646917 -0.18613769
v 0.15942782 -0.23660538 -0.19195611
v 0.16068432 -0.23649169 -0.19188046
v 0.15942782 -0.23561996 -0.19247879
v 0.15915096 -0.23351644 -0.19348292
v 0.15883151 -0.23029484 -0.19498224
v 0.15787316 -0.22043105 -0.19939074
v 0.15631852 -0.22168179 -0.19903999
v 0.15631852 -0.22059212 -0.19947328
v 0.15942782 -0.21175168 -0.20274700
v 0.15680835 -0.22396534 -0.19801524
v 0.15787316 -0.22168179 -0.19885431
v -0.01518224 -0.27518880 -0.15619277
v -0.00806920 -0.27591839 -0.15540186
v -0.00653585 -0.27599419 -0.15540186
v -0.00495991 -0.27605104 -0.15540186
v -0.00187192 -0.27548254 -0.15662607
v 0.13461739 -0.26093795 -0.17448710
v -0.00342656 -0.27496138 -0.15739635
v -0.00342656 -0.26749485 -0.16867555
v -0.00342656 -0.26691686 -0.16945272
v -0.00495991 -0.26613989 -0.17044308
v -0.00962385 -0.26403637 -0.17287087
v -0.01117850 -0.26324044 -0.17377182
v -0.01117850 -0.26254874 -0.17454211
v 0.15323053 -0.27479084 -0.15889566
v 0.15476388 -0.27472451 -0.15880625
v 0.15631852 -0.27379593 -0.15947337
v 0.15476388 -0.19842941 -0.20666721
v 0.15476388 -0.19687547 -0.20687355
v 0.15476388 -0.19532151 -0.20707299
v 0.13368034 -0.18198030 -0.20987215
v 0.15323053 -0.22428750 -0.19815967
v 0.15167589 -0.22634364 -0.19737561
v 0.15005735 -0.22801129 -0.19676353
v 0.15629723 -0.23251206 -0.19423946
v 0.15787316 -0.23369646 -0.19356546
v -0.00653585 -0.23907844 -0.19309778
v -0.00806920 -0.23824461 -0.19357234
v -0.00806920 -0.23902158 -0.19304964
v -0.01041182 -0.24725561 -0.18718308
v -0.01117850 -0.25094151 -0.18450771
v -0.01117850 -0.25171848 -0.18395061
v -0.01130627 -0.25270392 -0.18318722
v -0.01262666 -0.25280815 -0.18301527
v -0.01315907 -0.25548966 -0.18065627
v -0.01203035 -0.25346194 -0.18254759
v -0.01262666 -0.25408730 -0.18194236
v -0.01273314 -0.26321202 -0.17373056
v -0.02203971 -0.26578931 -0.17001668
v -0.02357306 -0.26634834 -0.16919824
v -0.01737577 -0.26450066 -0.17188050
v -0.01273314 -0.25548966 -0.18069753
v -0.01117850 -0.26090953 -0.17604142
v -0.01117850 -0.26177177 -0.17527801
v -0.02512770 -0.26762751 -0.16732754
v -0.02048507 -0.26641467 -0.16928078
v -0.00653585 -0.26744747 -0.16859990
v -0.03134628 -0.27195772 -0.16064943
v -0.03290093 -0.27244096 -0.15983788
v -0.02203971 -0.27387173 -0.15813912
v -0.01117850 -0.27530249 -0.15638535
v 0.16153617 -0.26581773 -0.16699055
v 0.15476388 -0.27395700 -0.15962468
v 0.15323053 -0.25578338 -0.17864114
v 0.15476388 -0.25242912 -0.18139905
v 0.15631852 -0.24896117 -0.18420509
v 0.13461739 -0.26015150 -0.17522987
v 0.13461739 -0.25926082 -0.17600015
v 0.15631852 -0.24803260 -0.18496163
v -0.00031727 -0.25367039 -0.18274018
v -0.00031727 -0.25271339 -0.18351045
v 0.00076885 -0.25193642 -0.18410192
v -0.00031727 -0.25194589 -0.18410880
v -0.00653585 -0.24100192 -0.19178417
v 0.15785187 -0.23251206 -0.19410877
v 0.15629723 -0.22335892 -0.19832473
v -0.00806920 -0.27537830 -0.15650226
v -0.00653585 -0.27540672 -0.15655040
v -0.00342656 -0.27546358 -0.15661919
v -0.00495991 -0.26747591 -0.16864117
v -0.00653585 -0.27491400 -0.15732069
v -0.02979164 -0.27249782 -0.15990665
v -0.00495991 -0.26690739 -0.16941833
v -0.00653585 -0.26610198 -0.17041558
v -0.01117850 -0.26401741 -0.17283648
v -0.00806920 -0.24092612 -0.19174289
v -0.00653585 -0.24284960 -0.19046368
v -0.00962385 -0.24990870 -0.18531238
v -0.00342656 -0.25189851 -0.18407442
v -0.00498121 -0.25268497 -0.18341418
v -0.00187192 -0.25367039 -0.18272642
v -0.01053959 -0.25548966 -0.18083508
v -0.01117850 -0.25548966 -0.18080758
v -0.01273314 -0.26397952 -0.17279522
v -0.00498121 -0.25548966 -0.18102766
v -0.00342656 -0.25530015 -0.18124086
v -0.00342656 -0.25548966 -0.18106892
v -0.00495991 -0.25692991 -0.17974155
v 0.15323053 -0.25493061 -0.17934952
v -0.00202100 -0.25254283 -0.18361362
v -0.00161636 -0.25192693 -0.18410192
v -0.00187192 -0.25006979 -0.18542929
f 1 2 3
f 1 3 4
f 1 4 14
f 1 14 26
f 1 26 54
f 1 54 127
f 1 127 205
f 1 205 302
f 1 302 305
f 1 305 304
f 1 304 303
f 1 303 251
f 1 251 155
f 1 155 83
f 1 83 44
f 1 44 19
f 1 19 5
f 1 5 20
f 1 20 46
f 1 46 86
f 1 86 159
f 1 159 160
f 1 160 256
f 1 256 353
f 1 353 265
f 1 265 264
f 1 264 263
f 1 263 164
f 1 164 163
f 1 163 162
f 1 162 108
f 1 108 107
f 1 107 106
f 1 106 105
f 1 105 104
f 1 104 103
f 1 103 102
f 1 102 101
f 1 101 100
f 1 100 99
f 1 99 98
f 1 98 97
f 1 97 96
f 1 96 87
f 1 87 47
f 1 47 21
f 1 21 6
f 1 6 7
f 1 7 2
f 2 7 8
f 2 8 3
f 3 9 4
f 3 8 10
f 3 10 11
f 3 11 12
f 3 12 13
f 3 13 9
f 4 9 15
f 4 15 16
f 4 16 17
f 4 17 18
f 4 18 14
f 5 19 20
f 6 21 48
f 6 48 22
f 6 22 23
f 6 23 7
f 7 23 24
f 7 24 8
f 8 24 10
f 9 13 15
f 10 24 11
f 11 24 12
f 12 24 13
f 13 24 25
f 13 25 17
f 13 17 16
f 13 16 15
f 14 18 27
f 14 27 28
f 14 28 29
f 14 29 30
f 14 30 31
f 14 31 32
f 14 32 33
f 14 33 34
f 14 34 35
f 14 35 36
f 14 36 37
f 14 37 38
f 14 38 39
f 14 39 40
f 14 40 41
f 14 41 26
f 17 25 42
f 17 42 18
f 18 43 27
f 18 42 43
f 19 44 45
f 19 45 20
f 20 45 46
f 21 47 48
f 22 48 95
f 22 95 49
f 22 49 23
f 23 49 50
f 23 50 24
f 24 51 25
f 24 50 49
f 24 49 95
f 24 95 182
f 24 182 285
f 24 285 284
f 24 284 184
f 24 184 109
f 24 109 51
f 25 51 52
f 25 52 53
f 25 53 42
f 26 41 40
f 26 40 55
f 26 55 56
f 26 56 57
f 26 57 58
f 26 58 54
f 27 43 59
f 27 59 28
f 28 59 29
f 29 59 60
f 29 60 61
f 29 61 30
f 30 61 62
f 30 62 31
f 31 62 32
f 32 62 63
f 32 63 33
f 33 63 64
f 33 64 34
f 34 64 65
f 34 65 40
f 34 40 66
f 34 66 35
f 35 66 36
f 36 66 37
f 37 66 67
f 37 67 38
f 38 67 39
f 39 67 66
f 39 66 40
f 40 56 55
f 40 65 68
f 40 68 69
f 40 69 70
f 40 70 71
f 40 71 72
f 40 72 73
f 40 73 74
f 40 74 56
f 42 53 75
f 42 75 76
f 42 76 77
f 42 77 78
f 42 78 79
f 42 79 80
f 42 80 43
f 43 80 81
f 43 81 82
f 43 82 59
f 44 83 45
f 45 84 158
f 45 158 85
f 45 85 46
f 45 83 84
f 46 85 86
f 47 87 48
f 48 88 89
f 48 89 90
f 48 90 91
f 48 91 92
f 48 92 93
f 48 93 94
f 48 94 95
f 48 87 96
f 48 96 97
f 48 97 98
f 48 98 99
f 48 99 100
f 48 100 101
f 48 101 102
f 48 102 103
f 48 103 104
f 48 104 105
f 48 105 106
f 48 106 107
f 48 107 108
f 48 108 88
f 51 109 110
f 51 110 111
f 51 111 112
f 51 112 113
f 51 113 114
f 51 114 115
f 51 115 116
f 51 116 117
f 51 117 118
f 51 118 119
f 51 119 120
f 51 120 121
f 51 121 122
f 51 122 123
f 51 123 124
f 51 124 52
f 52 124 125
f 52 125 53
f 53 125 126
f 53 126 75
f 54 58 127
f 56 74 128
f 56 128 129
f 56 129 57
f 57 130 58
f 57 129 130
f 58 130 129
f 58 129 127
f 59 82 131
f 59 131 132
f 59 132 133
f 59 133 60
f 60 62 61
f 60 133 134
f 60 134 62
f 62 134 135
f 62 135 136
f 62 136 137
f 62 137 63
f 63 137 138
f 63 138 68
f 63 68 64
f 64 68 65
f 68 138 69
f 69 139 70
f 69 138 139
f 70 139 140
f 70 140 71
f 71 140 141
f 71 141 142
f 71 142 72
f 72 142 143
f 72 143 128
f 72 128 73
f 73 128 74
f 75 126 76
f 76 126 144
f 76 144 122
f 76 122 145
f 76 145 146
f 76 146 147
f 76 147 148
f 76 148 149
f 76 149 77
f 77 149 78
f 78 149 150
f 78 150 79
f 79 150 151
f 79 151 152
f 79 152 153
f 79 153 80
f 80 153 154
f 80 154 81
f 81 154 132
f 81 132 131
f 81 131 82
f 83 155 84
f 84 155 156
f 84 156 157
f 84 157 158
f 85 159 86
f 85 158 160
f 85 160 159
f 88 161 90
f 88 90 89
f 88 108 162
f 88 162 163
f 88 163 164
f 88 164 165
f 88 165 166
f 88 166 167
f 88 167 168
f 88 168 169
f 88 169 161
f 90 161 170
f 90 170 91
f 91 170 92
f 92 171 93
f 92 170 172
f 92 172 173
f 92 173 171
f 93 171 174
f 93 174 175
f 93 175 176
f 93 176 177
f 93 177 178
f 93 178 179
f 93 179 180
f 93 180 181
f 93 181 94
f 94 181 95
f 95 181 180
f 95 180 179
f 95 179 178
f 95 178 183
f 95 183 182
f 109 184 185
f 109 185 186
f 109 186 110
f 110 186 111
f 111 186 112
f 112 186 187
f 112 187 113
f 113 187 114
f 114 187 115
f 115 187 188
f 115 188 189
f 115 189 190
f 115 190 191
f 115 191 116
f 116 191 192
f 116 192 117
f 117 192 193
f 117 193 118
f 118 193 119
f 119 193 194
f 119 194 195
f 119 195 196
f 119 196 197
f 119 197 198
f 119 198 199
f 119 199 200
f 119 200 120
f 120 200 201
f 120 201 202
f 120 202 203
f 120 203 121
f 121 203 122
f 122 144 123
f 122 203 204
f 122 204 145
f 123 144 125
f 123 125 124
f 125 144 126
f 127 129 205
f 128 143 206
f 128 206 207
f 128 207 129
f 129 207 208
f 129 208 209
f 129 209 210
f 129 210 205
f 132 211 212
f 132 212 134
f 132 134 133
f 132 154 211
f 134 212 213
f 134 213 214
f 134 214 135
f 135 214 215
f 135 215 216
f 135 216 136
f 136 216 217
f 136 217 218
f 136 218 219
f 136 219 220
f 136 220 138
f 136 138 137
f 138 220 221
f 138 221 222
f 138 222 223
f 138 223 139
f 139 223 224
f 139 224 225
f 139 225 140
f 140 225 226
f 140 226 227
f 140 227 228
f 140 228 141
f 141 228 229
f 141 229 230
f 141 230 231
f 141 231 232
f 141 232 233
f 141 233 142
f 142 234 206
f 142 206 143
f 142 233 232
f 142 232 235
f 142 235 236
f 142 236 234
f 145 204 146
f 146 237 238
f 146 238 147
f 146 204 203
f 146 203 202
f 146 202 237
f 147 238 239
f 147 239 240
f 147 240 148
f 148 240 241
f 148 241 242
f 148 242 149
f 149 242 150
f 150 243 244
f 150 244 245
f 150 245 246
f 150 246 151
f 150 242 243
f 151 247 152
f 151 246 247
f 152 247 248
f 152 248 249
f 152 249 153
f 153 250 154
f 153 249 214
f 153 214 250
f 154 250 211
f 155 251 208
f 155 208 156
f 156 208 157
f 157 208 252
f 157 252 253
f 157 253 254
f 157 254 255
f 157 255 158
f 158 255 256
f 158 256 160
f 161 169 257
f 161 257 258
f 161 258 259
f 161 259 260
f 161 260 261
f 161 261 262
f 161 262 172
f 161 172 170
f 164 263 165
f 165 263 264
f 165 264 265
f 165 265 266
f 165 266 166
f 166 266 267
f 166 267 168
f 166 168 167
f 168 267 268
f 168 268 269
f 168 269 270
f 168 270 169
f 169 270 257
f 171 173 271
f 171 271 272
f 171 272 273
f 171 273 274
f 171 274 174
f 172 262 260
f 172 260 275
f 172 275 276
f 172 276 173
f 173 276 277
f 173 277 278
f 173 278 279
f 173 279 271
f 174 280 281
f 174 281 175
f 174 274 282
f 174 282 283
f 174 283 280
f 175 281 176
f 176 185 284
f 176 284 285
f 176 285 182
f 176 182 183
f 176 183 177
f 176 281 185
f 177 183 178
f 184 284 185
f 185 281 286
f 185 286 186
f 186 286 187
f 187 287 188
f 187 286 288
f 187 288 287
f 188 287 189
f 189 289 290
f 189 290 190
f 189 287 291
f 189 291 292
f 189 292 289
f 190 290 191
f 191 293 193
f 191 193 192
f 191 290 293
f 193 293 294
f 193 294 295
f 193 295 194
f 194 296 297
f 194 297 195
f 194 295 298
f 194 298 296
f 195 299 300
f 195 300 196
f 195 297 299
f 196 300 301
f 196 301 197
f 197 301 198
f 198 301 238
f 198 238 201
f 198 201 199
f 199 201 200
f 201 238 237
f 201 237 202
f 205 210 208
f 205 208 302
f 206 234 207
f 207 234 208
f 208 251 303
f 208 303 304
f 208 304 305
f 208 305 302
f 208 210 209
f 208 234 306
f 208 306 270
f 208 270 269
f 208 269 252
f 211 250 212
f 212 250 213
f 213 250 214
f 214 307 215
f 214 249 307
f 215 307 308
f 215 308 309
f 215 309 216
f 216 309 310
f 216 310 311
f 216 311 312
f 216 312 313
f 216 313 314
f 216 314 315
f 216 315 217
f 217 315 316
f 217 316 218
f 218 316 219
f 219 316 317
f 219 317 220
f 220 317 318
f 220 318 319
f 220 319 224
f 220 224 221
f 221 224 222
f 222 224 223
f 224 319 225
f 225 319 320
f 225 320 227
f 225 227 226
f 227 320 321
f 227 321 322
f 227 322 283
f 227 283 228
f 228 283 229
f 229 283 230
f 230 283 282
f 230 282 274
f 230 274 323
f 230 323 324
f 230 324 231
f 231 324 325
f 231 325 326
f 231 326 232
f 232 326 327
f 232 327 235
f 234 236 328
f 234 328 329
f 234 329 330
f 234 330 331
f 234 331 259
f 234 259 258
f 234 258 306
f 235 327 236
f 236 327 332
f 236 332 333
f 236 333 328
f 238 301 334
f 238 334 240
f 238 240 239
f 240 335 336
f 240 336 337
f 240 337 241
f 240 334 335
f 241 337 242
f 242 337 338
f 242 338 243
f 243 339 244
f 243 338 340
f 243 340 341
f 243 341 342
f 243 342 343
f 243 343 344
f 243 344 345
f 243 345 346
f 243 346 339
f 244 339 245
f 245 347 247
f 245 247 246
f 245 339 347
f 247 347 348
f 247 348 248
f 248 348 249
f 249 348 349
f 249 349 309
f 249 309 308
f 249 308 307
f 252 268 266
f 252 266 350
f 252 350 253
f 252 269 268
f 253 350 351
f 253 351 352
f 253 352 254
f 254 352 353
f 254 353 255
f 255 353 256
f 257 270 258
f 258 270 306
f 259 331 260
f 260 354 275
f 260 262 261
f 260 331 330
f 260 330 329
f 260 329 354
f 265 353 350
f 265 350 266
f 266 268 267
f 271 279 272
f 272 279 273
f 273 279 323
f 273 323 274
f 275 354 276
f 276 354 355
f 276 355 356
f 276 356 277
f 277 356 357
f 277 357 278
f 278 357 279
f 279 358 326
f 279 326 325
f 279 325 323
f 279 357 358
f 280 359 281
f 280 283 359
f 281 359 360
f 281 360 361
f 281 361 362
f 281 362 286
f 283 322 359
f 286 362 363
f 286 363 364
f 286 364 365
f 286 365 366
f 286 366 288
f 287 288 367
f 287 367 291
f 288 366 368
f 288 368 369
f 288 369 367
f 289 292 370
f 289 370 373
f 289 373 290
f 290 371 372
f 290 372 294
f 290 294 293
f 290 373 371
f 291 367 374
f 291 374 369
f 291 369 368
f 291 368 375
f 291 375 376
f 291 376 292
f 292 376 346
f 292 346 370
f 294 372 295
f 295 372 298
f 296 298 377
f 296 377 299
f 296 299 297
f 298 372 378
f 298 378 379
f 298 379 377
f 299 380 381
f 299 381 300
f 299 377 379
f 299 379 380
f 300 381 382
f 300 382 301
f 301 382 383
f 301 383 334
f 309 311 310
f 309 349 311
f 311 349 384
f 311 384 312
f 312 349 348
f 312 348 385
f 312 385 313
f 312 384 349
f 313 385 316
f 313 316 314
f 314 316 315
f 316 386 387
f 316 387 388
f 316 388 318
f 316 318 317
f 316 385 347
f 316 347 339
f 316 339 389
f 316 389 390
f 316 390 386
f 318 388 320
f 318 320 319
f 320 388 391
f 320 391 321
f 321 391 392
f 321 392 393
f 321 393 394
f 321 394 395
f 321 395 396
f 321 396 322
f 322 396 359
f 323 325 324
f 326 358 397
f 326 397 327
f 327 397 332
f 328 333 332
f 328 332 329
f 329 332 398
f 329 398 354
f 332 397 357
f 332 357 355
f 332 355 398
f 334 383 335
f 335 383 336
f 336 383 399
f 336 399 337
f 337 399 400
f 337 400 401
f 337 401 338
f 338 401 340
f 339 346 376
f 339 376 389
f 340 402 341
f 340 401 403
f 340 403 404
f 340 404 402
f 341 402 405
f 341 405 342
f 342 405 343
f 343 405 406
f 343 406 407
f 343 407 344
f 344 407 345
f 345 407 370
f 345 370 346
f 347 385 348
f 350 353 351
f 351 353 352
f 354 398 355
f 355 357 356
f 357 397 358
f 359 396 361
f 359 361 360
f 361 396 408
f 361 408 362
f 362 364 363
f 362 408 396
f 362 396 409
f 362 409 410
f 362 410 364
f 364 410 411
f 364 411 365
f 365 368 366
f 365 411 412
f 365 412 413
f 365 413 368
f 367 369 374
f 368 414 415
f 368 415 375
f 368 413 414
f 370 416 373
f 370 407 416
f 371 378 372
f 371 373 416
f 371 416 407
f 371 407 406
f 371 406 378
f 375 415 414
f 375 414 417
f 375 417 376
f 376 417 418
f 376 418 419
f 376 419 420
f 376 420 389
f 378 406 405
f 378 405 379
f 379 405 402
f 379 402 380
f 380 404 381
f 380 402 404
f 381 404 403
f 381 403 400
f 381 400 382
f 382 400 399
f 382 399 383
f 386 421 387
f 386 390 392
f 386 392 421
f 387 421 392
f 387 392 388
f 388 392 391
f 389 420 392
f 389 392 390
f 392 420 419
f 392 419 418
f 392 418 413
f 392 413 393
f 393 413 422
f 393 422 423
f 393 423 395
f 393 395 394
f 395 423 424
f 395 424 396
f 396 424 409
f 400 403 401
f 409 424 411
f 409 411 410
f 411 424 423
f 411 423 422
f 411 422 412
f 412 422 413
f 413 418 417
f 413 417 414

