# https://github.com/mikedh/trimesh
v -0.03981121 -0.15181959 0.19049626
v -0.10111952 -0.15753445 0.22498363
v -0.09437561 -0.15753445 0.22320284
v -0.08526220 -0.15753445 0.22067659
v -0.08065580 -0.15753445 0.21933064
v -0.03981121 -0.15275985 0.19259801
v -0.02831176 -0.15566614 0.19049626
v 0.00872177 -0.17182164 0.18150945
v -0.13079605 -0.25640912 0.12137656
v -0.13434199 -0.15753445 0.20911179
v -0.13422600 -0.15753445 0.22668161
v -0.12807860 -0.15753445 0.22705433
v -0.12595767 -0.15753445 0.22713716
v -0.12440010 -0.15753445 0.22713716
v -0.12284254 -0.15753445 0.22711644
v -0.11140936 -0.15753445 0.22637100
v -0.10279307 -0.15768099 0.22538742
v -0.10111952 -0.15808396 0.22511824
v -0.09956196 -0.15781532 0.22469374
v -0.09802096 -0.15781532 0.22430030
v -0.08252818 -0.15808396 0.22011750
v -0.02938880 -0.18018636 0.21293221
v -0.02819577 -0.17207808 0.20794183
v -0.02981961 -0.17151636 0.20821103
v -0.02781467 -0.17106455 0.20699966
v -0.07649678 -0.15753445 0.21749807
v -0.03981121 -0.15366349 0.19425456
v -0.07858457 -0.15881664 0.21924781
v -0.01656377 -0.18210353 0.20992970
v -0.01025067 -0.18355667 0.20844916
v -0.01502277 -0.18055270 0.20838704
v -0.01986116 -0.17754873 0.20830421
v -0.02607484 -0.15677736 0.19070332
v 0.01047817 -0.17439822 0.18353874
v 0.01155521 -0.17419063 0.18228597
v 0.01079299 -0.17315267 0.18149911
v -0.01586783 -0.27141676 0.13828376
v -0.02344024 -0.15815723 0.19049626
v -0.12285911 -0.26302761 0.12137656
v -0.12410185 -0.27001246 0.12137656
v -0.13034866 -0.26715503 0.12181142
v -0.13079605 -0.26473718 0.13633731
v -0.13434199 -0.17944147 0.20831457
v -0.13434199 -0.15964700 0.22646417
v -0.13215478 -0.16274867 0.22630887
v -0.12905622 -0.15964700 0.22679548
v -0.12749866 -0.15964700 0.22685760
v -0.12749866 -0.16118563 0.22667125
v -0.10885762 -0.16274867 0.22631922
v -0.12130154 -0.15790079 0.22705433
v -0.11913091 -0.15764436 0.22703362
v -0.11508787 -0.15781532 0.22675406
v -0.11354688 -0.15781532 0.22660912
v -0.10577563 -0.15964700 0.22600862
v -0.10577563 -0.15781532 0.22583261
v -0.10425121 -0.15781532 0.22564626
v -0.08824477 -0.16583811 0.22382404
v -0.08970292 -0.16383547 0.22383440
v -0.09230437 -0.16171071 0.22395863
v -0.02817920 -0.18671940 0.21471300
v -0.03016758 -0.18488770 0.21468193
v -0.03182456 -0.18339793 0.21465088
v -0.02310884 -0.18080914 0.21138953
v -0.02677077 -0.17204144 0.20727922
v -0.00413641 -0.18520520 0.20684436
v -0.00006023 -0.18552268 0.20502217
v 0.00264065 -0.18559595 0.20362445
v -0.02700275 -0.16307837 0.19874797
v -0.02882543 -0.17002659 0.20652340
v -0.07381247 -0.15753445 0.21623496
v -0.02746670 -0.16041632 0.19598359
v -0.02791409 -0.15749782 0.19264977
v -0.05921446 -0.15753445 0.20908072
v -0.01386289 -0.18395964 0.20981580
v -0.00965415 -0.18599892 0.20931885
v -0.01121172 -0.18444809 0.20919460
v -0.00809659 -0.18529067 0.20854234
v 0.01115753 -0.17601010 0.18500893
v 0.01293050 -0.17740219 0.18521599
v -0.02054052 -0.15998891 0.19049626
v -0.01088032 -0.16578927 0.19006140
v -0.00486548 -0.17430053 0.19608713
v 0.01478632 -0.17601010 0.18162334
v 0.01299678 -0.17469130 0.18157158
v 0.01781859 -0.17833025 0.18149911
v 0.02007209 -0.18018636 0.18149911
v -0.01457539 -0.27208837 0.13844942
v -0.11979370 -0.26818078 0.12137656
v -0.12141754 -0.26467614 0.12137656
v -0.01088032 -0.17091801 0.19655304
v -0.00907421 -0.17140646 0.19580758
v -0.02516350 -0.27648444 0.13938123
v -0.03914842 -0.27632569 0.13938123
v -0.04691966 -0.27610589 0.13938123
v -0.12270998 -0.27014677 0.12184247
v -0.12287568 -0.27001246 0.12386139
v -0.12287568 -0.26953622 0.13007346
v -0.12433382 -0.26915767 0.13007346
v -0.12595767 -0.26870586 0.13007346
v -0.12753180 -0.26826625 0.12851009
v -0.12045648 -0.26973159 0.12137656
v -0.02208151 -0.27581282 0.13811811
v -0.02362251 -0.27584945 0.13805599
v -0.02208151 -0.27648444 0.13938123
v -0.12870825 -0.26771674 0.12851009
v -0.13031552 -0.26706955 0.12373715
v -0.13056407 -0.26550650 0.13375930
v -0.12819459 -0.26757021 0.13163684
v -0.12834372 -0.26590947 0.13714488
v -0.13079605 -0.26404116 0.13872896
v -0.13434199 -0.17944147 0.22024175
v -0.13434199 -0.16956256 0.22477657
v -0.13417629 -0.16628994 0.22557378
v -0.13402716 -0.16274867 0.22614321
v -0.13402716 -0.16118563 0.22632958
v -0.13215478 -0.16429950 0.22613286
v -0.13059721 -0.16429950 0.22623640
v -0.13059721 -0.16274867 0.22640205
v -0.12905622 -0.16274867 0.22645381
v -0.12905622 -0.16429950 0.22625711
v -0.12749866 -0.16429950 0.22624675
v -0.12595767 -0.16429950 0.22623640
v -0.10577563 -0.16429950 0.22603969
v -0.10423464 -0.16429950 0.22600862
v -0.10733319 -0.16274867 0.22628816
v -0.10577563 -0.16274867 0.22620535
v -0.10885762 -0.16118563 0.22640205
v -0.10733319 -0.16118563 0.22629851
v -0.10577563 -0.16118563 0.22614321
v -0.10423464 -0.16118563 0.22596720
v -0.10269365 -0.16274867 0.22589474
v -0.10113609 -0.16133217 0.22550129
v -0.08565988 -0.16741337 0.22351344
v -0.08410232 -0.16741337 0.22325460
v -0.07822004 -0.16933055 0.22241597
v -0.09026630 -0.16583811 0.22415536
v -0.03137718 -0.18599892 0.21531349
v -0.02579315 -0.18891742 0.21460947
v -0.00266169 -0.19376529 0.20980547
v -0.00378844 -0.19255637 0.20979511
v -0.00537914 -0.19104219 0.20977440
v -0.00685385 -0.18634083 0.20854234
v 0.00071855 -0.18800157 0.20611963
v 0.00149733 -0.18648737 0.20497039
v 0.00371768 -0.18658507 0.20388328
v 0.00418164 -0.18529067 0.20209213
v 0.00186187 -0.18373984 0.20209213
v -0.00108756 -0.18055270 0.20064266
v -0.02804665 -0.16205262 0.19821993
v -0.01187451 -0.17122329 0.19759872
v -0.02827862 -0.16089256 0.19697752
v -0.00667159 -0.18924713 0.20954662
v -0.00498147 -0.18911279 0.20897718
v 0.01679126 -0.18479002 0.19101393
v 0.01601249 -0.18204247 0.18831168
v -0.00721839 -0.17277412 0.19605607
v -0.00607508 -0.17455697 0.19732955
v 0.01785173 -0.18488770 0.19018566
v 0.02176221 -0.18170056 0.18149911
v -0.00612479 -0.27529994 0.14160722
v -0.01586783 -0.27356594 0.13848048
v -0.01740883 -0.27284548 0.13794210
v 0.02300494 -0.18293389 0.18149911
v 0.02421454 -0.18417945 0.18149911
v 0.01140608 -0.26975602 0.14828520
v 0.01140608 -0.27225934 0.14769506
v 0.01140608 -0.27434746 0.14768471
v -0.00151837 -0.27528774 0.14316024
v -0.01896639 -0.27652107 0.14093425
v -0.00812973 -0.27656991 0.14402994
v -0.02050738 -0.27644780 0.14247691
v -0.00037506 -0.27641117 0.14713598
v -0.04847722 -0.27604483 0.13938123
v -0.00037506 -0.27584945 0.15024201
v -0.06017551 -0.27519004 0.13860472
v -0.11281780 -0.27052534 0.13395602
v -0.04996851 -0.27597156 0.13938123
v -0.12299166 -0.26929200 0.13176109
v -0.12433382 -0.26897450 0.13154366
v -0.11977713 -0.26964612 0.13315880
v -0.12131811 -0.26941411 0.13315880
v -0.12595767 -0.26846163 0.13161614
v -0.12804546 -0.26791212 0.13007346
v -0.02050738 -0.27439632 0.13776609
v -0.01873441 -0.27487254 0.13826306
v -0.00812973 -0.27560522 0.14135874
v -0.02050738 -0.27603262 0.13881179
v -0.01896639 -0.27615473 0.13938123
v -0.00812973 -0.27630127 0.14247691
v -0.01586783 -0.27647223 0.14093425
v -0.01740883 -0.27652107 0.14093425
v -0.13019954 -0.26616591 0.13161614
v -0.12683587 -0.26746030 0.13406990
v -0.12676959 -0.26589727 0.13944335
v -0.12686900 -0.26437084 0.14442337
v -0.12773063 -0.26286887 0.14811955
v -0.12867511 -0.26406557 0.14263221
v -0.13079605 -0.26279560 0.14284964
v -0.13076291 -0.26147678 0.14702208
v -0.13076291 -0.25986490 0.14992105
v -0.13076291 -0.25734938 0.15336875
v -0.13076291 -0.21627066 0.19602500
v -0.13076291 -0.21456109 0.19743307
v -0.13076291 -0.20854093 0.20220603
v -0.13076291 -0.20679472 0.20356232
v -0.13076291 -0.19278840 0.21338776
v -0.13076291 -0.19121314 0.21437133
v -0.13434199 -0.17539955 0.22272658
v -0.13434199 -0.17336027 0.22369981
v -0.13402716 -0.17084475 0.22446596
v -0.13215478 -0.16715694 0.22556343
v -0.13402716 -0.16792625 0.22521140
v -0.13215478 -0.16583811 0.22587403
v -0.13402716 -0.16429950 0.22591544
v -0.13059721 -0.16583811 0.22597755
v -0.12905622 -0.16583811 0.22597755
v -0.10733319 -0.16708367 0.22551165
v -0.09490583 -0.17204144 0.22415536
v -0.09295060 -0.17290845 0.22390687
v -0.10010876 -0.16624110 0.22544953
v -0.10269365 -0.16429950 0.22588439
v -0.10423464 -0.16274867 0.22609145
v -0.10111952 -0.16429950 0.22570837
v -0.09894887 -0.16429950 0.22540813
v -0.00993584 -0.20094552 0.21304609
v -0.00811316 -0.20150724 0.21276655
v -0.02431844 -0.19056595 0.21457841
v -0.02981961 -0.18754976 0.21525137
v -0.01136084 -0.19850327 0.21300468
v -0.00811316 -0.19994420 0.21249735
v -0.00498147 -0.19684253 0.21105823
v -0.01025067 -0.19276397 0.21151378
v -0.00345705 -0.19684253 0.21063373
v -0.00199890 -0.19531613 0.20989865
v -0.00035849 -0.19531613 0.20932920
v -0.00191605 -0.19221446 0.20911179
v -0.00460036 -0.18814811 0.20844916
v -0.00060704 -0.19170158 0.20834562
v 0.00278977 -0.18806263 0.20511533
v -0.00203204 -0.19076132 0.20855270
v 0.00471187 -0.18758639 0.20368657
v 0.00665054 -0.18753755 0.20206106
v 0.00872177 -0.18728111 0.20010426
v 0.00535810 -0.18651180 0.20242345
v 0.01617818 -0.18648737 0.19308462
v 0.01841511 -0.18664613 0.19109675
v 0.01906133 -0.18592565 0.18979223
v 0.02731310 -0.18786726 0.18191323
v -0.00345705 -0.27564185 0.14281858
v -0.01079747 -0.27492140 0.14024056
v -0.01745853 -0.27440852 0.13838730
v 0.03493521 -0.20753960 0.18790790
v 0.01140608 -0.27578839 0.14992105
v 0.01072671 -0.27555638 0.14833697
v 0.00119907 -0.27644780 0.14713598
v -0.00655560 -0.27652107 0.14402994
v -0.00191605 -0.27648444 0.14559331
v -0.04536210 -0.27584945 0.14093425
v -0.00191605 -0.27578839 0.15024201
v -0.00191605 -0.27543427 0.15167079
v 0.00274006 -0.27615473 0.14868899
v 0.00583862 -0.27584945 0.15024201
v -0.05154264 -0.27584945 0.13938123
v -0.11354688 -0.26874249 0.14402994
v -0.10115266 -0.27138012 0.13781786
v -0.11613177 -0.26901114 0.14048905
v -0.11772247 -0.26904777 0.13891532
v -0.10271022 -0.27119695 0.13781786
v -0.04691966 -0.27575176 0.14093425
v -0.11919719 -0.26904777 0.13727948
v -0.11646316 -0.26836393 0.14284964
v -0.00655560 -0.27605703 0.14247691
v -0.01276928 -0.27611810 0.14093425
v -0.00345705 -0.27635010 0.14402994
v -0.00501461 -0.27647223 0.14402994
v -0.01122829 -0.27649664 0.14247691
v -0.12532801 -0.26407777 0.14726021
v -0.12902308 -0.26146457 0.14943444
v -0.13043152 -0.26107382 0.14840945
v -0.13018297 -0.26230715 0.14559331
v -0.12330650 -0.26441970 0.14811955
v -0.12615650 -0.26258800 0.15002459
v -0.12832715 -0.25968173 0.15262331
v -0.12907279 -0.25774014 0.15452834
v -0.13010012 -0.25644573 0.15517026
v -0.13013326 -0.25494376 0.15676469
v -0.12895680 -0.25639689 0.15631949
v -0.12736610 -0.25649459 0.15715812
v -0.07942963 -0.25361273 0.17368224
v -0.06544471 -0.24129155 0.18687255
v -0.06392029 -0.24185327 0.18667584
v -0.12319051 -0.20403496 0.20674084
v -0.04847722 -0.22139940 0.20408000
v -0.04799670 -0.21939676 0.20531206
v -0.01689516 -0.21473205 0.20994005
v -0.01896639 -0.21237527 0.21101681
v -0.11354688 -0.17412956 0.22415536
v -0.13059721 -0.16726684 0.22561519
v -0.11198931 -0.17359228 0.22427959
v -0.11198931 -0.17204144 0.22459020
v -0.01896639 -0.21108088 0.21153449
v -0.01742540 -0.21094655 0.21150343
v -0.01742540 -0.20927361 0.21190721
v -0.01462510 -0.20802805 0.21204180
v -0.00963759 -0.20460890 0.21254913
v -0.00970386 -0.20292374 0.21289078
v -0.00811316 -0.20305807 0.21276655
v -0.00655560 -0.20305807 0.21252842
v -0.00655560 -0.20150724 0.21239383
v -0.00655560 -0.19994420 0.21210392
v -0.00428554 -0.20010294 0.21145166
v -0.00131954 -0.19650062 0.20985723
v 0.00038715 -0.19365539 0.20857339
v 0.00501013 -0.20234982 0.20834562
v 0.00315431 -0.19950459 0.20862517
v 0.00676653 -0.19117650 0.20382116
v 0.00810868 -0.19306925 0.20368657
v 0.02373402 -0.20529272 0.19756768
v 0.01626103 -0.19712340 0.19934847
v 0.01467033 -0.19172601 0.19777474
v 0.01665871 -0.19149400 0.19594217
v 0.01776888 -0.19102997 0.19468940
v 0.01720551 -0.18757418 0.19290861
v 0.01129009 -0.18676824 0.19752625
v 0.01897848 -0.18995538 0.19282578
v 0.02671658 -0.20393728 0.19435810
v 0.02979857 -0.20753960 0.19357124
v -0.00191605 -0.27605703 0.14402994
v 0.01140608 -0.23906910 0.19563157
v 0.01140608 -0.24176780 0.19368512
v 0.01140608 -0.24429552 0.19145914
v 0.01140608 -0.25231833 0.18247232
v 0.01140608 -0.25335629 0.18124027
v 0.01140608 -0.26926757 0.16218990
v 0.01140608 -0.27004909 0.16104066
v 0.01140608 -0.27540984 0.15143266
v 0.00895374 -0.27598376 0.14868899
v 0.00583862 -0.27615473 0.14868899
v 0.00739618 -0.27611810 0.14868899
v -0.00037506 -0.27641117 0.14559331
v 0.00274006 -0.27637453 0.14713598
v -0.04070598 -0.27511677 0.14465114
v -0.00501461 -0.27522667 0.15198139
v 0.00895374 -0.27542205 0.15146372
v -0.00345705 -0.27478707 0.15333769
v -0.00345705 -0.27526331 0.15207457
v -0.03759086 -0.27097715 0.15954977
v -0.03931412 -0.27069630 0.15995356
v -0.11354688 -0.26815635 0.14559331
v -0.11508787 -0.26846163 0.14402994
v -0.11512101 -0.26877913 0.14265292
v -0.02970363 -0.27366364 0.15240588
v -0.04380453 -0.27523888 0.14348120
v -0.11705967 -0.26750914 0.14501351
v -0.12809517 -0.26109823 0.15087357
v -0.12284254 -0.26404116 0.14900995
v -0.11493874 -0.26752137 0.14620416
v -0.11535298 -0.26479825 0.15071827
v -0.11974399 -0.26314973 0.15150513
v -0.12567598 -0.25821637 0.15580181
v -0.12708441 -0.25802099 0.15555333
v -0.07942963 -0.25476059 0.17240877
v -0.04226354 -0.25717841 0.17714029
v -0.04025860 -0.25554210 0.17906605
v -0.03759086 -0.25308765 0.18169582
v -0.03603330 -0.25157345 0.18326954
v -0.03603330 -0.24976618 0.18465690
v -0.02208151 -0.24390477 0.19110711
v -0.04536210 -0.22613738 0.20106714
v -0.04690309 -0.22192448 0.20390399
v -0.04690309 -0.22022712 0.20491863
v -0.00967072 -0.22196112 0.20656483
v -0.01121172 -0.22110633 0.20693755
v -0.00345705 -0.22225419 0.20675120
v -0.00133611 -0.22297465 0.20646129
v -0.00073960 -0.22044692 0.20739310
v -0.00501461 -0.20927361 0.21105823
v -0.01353149 -0.21005512 0.21147236
v -0.01586783 -0.20981091 0.21168980
v -0.00073960 -0.21855418 0.20797290
v -0.01308411 -0.20802805 0.21194862
v -0.01121172 -0.20617194 0.21227993
v -0.00811316 -0.20460890 0.21245595
v -0.00655560 -0.20460890 0.21233169
v -0.00498147 -0.20460890 0.21208323
v -0.00256227 -0.20536599 0.21149307
v -0.00498147 -0.20305807 0.21209358
v -0.00498147 -0.20150724 0.21189686
v 0.00428106 -0.20753960 0.20932920
v 0.00739618 -0.20690462 0.20809713
v 0.01029590 -0.20700232 0.20689614
v 0.01874650 -0.20745413 0.20219567
v 0.00895374 -0.20753960 0.20760018
v 0.01670842 -0.20294817 0.20177117
v 0.02159651 -0.20753960 0.20018709
v 0.02542414 -0.20744192 0.19726741
v 0.02759478 -0.20753960 0.19559016
v 0.01814999 -0.19354549 0.19588005
v 0.01856424 -0.19228773 0.19475154
v 0.02853927 -0.20716106 0.19460657
v 0.01095869 -0.23629714 0.19765050
v 0.00895374 -0.24113281 0.19444093
v 0.00583862 -0.24175559 0.19434775
v 0.00739618 -0.24303776 0.19319850
v 0.01072671 -0.24312323 0.19271190
v 0.00429763 -0.24363611 0.19304320
v 0.00583862 -0.24502820 0.19140736
v 0.01095869 -0.25088961 0.18417030
v 0.00429763 -0.24550444 0.19105535
v -0.00191605 -0.27036658 0.16246944
v 0.00199443 -0.27052534 0.16186894
v 0.00429763 -0.27040323 0.16169293
v 0.00739618 -0.27025669 0.16140304
v -0.00191605 -0.27127022 0.16108208
v -0.00191605 -0.27188079 0.15987073
v -0.01078090 -0.27363921 0.15569828
v -0.00345705 -0.27159993 0.16049192
v -0.01432684 -0.27202733 0.15943588
v -0.01586783 -0.27201511 0.15940482
v -0.03603330 -0.27105042 0.15954977
v -0.02050738 -0.27105042 0.16108208
v -0.03759086 -0.27034217 0.16087502
v -0.06491448 -0.26746030 0.16001567
v -0.06546128 -0.26848606 0.15798640
v -0.11387827 -0.26566526 0.14977610
v -0.06703541 -0.26742367 0.15957047
v -0.11354688 -0.26463950 0.15147407
v -0.11762305 -0.26282003 0.15262331
v -0.07631451 -0.25931539 0.16762546
v -0.07633108 -0.25787446 0.16935449
v -0.07323252 -0.26108603 0.16615527
v -0.04312517 -0.25813089 0.17581505
v -0.04070598 -0.25797215 0.17640521
v -0.04027517 -0.25690977 0.17772009
v -0.03603330 -0.25401570 0.18102285
v -0.03603330 -0.25285564 0.18215136
v -0.03445916 -0.25168335 0.18334202
v -0.02208151 -0.24526021 0.19000964
v 0.00274006 -0.24369717 0.19310534
v 0.00274006 -0.24231731 0.19421316
v -0.02145186 -0.23489285 0.19752625
v -0.02050738 -0.23229185 0.19942094
v -0.02050738 -0.23074102 0.20045629
v -0.01175852 -0.22396376 0.20524994
v -0.00501461 -0.22268158 0.20643024
v -0.00073960 -0.22447664 0.20560195
v -0.00345705 -0.20927361 0.21093398
v -0.00498147 -0.20728316 0.21155519
v -0.00811316 -0.20617194 0.21207287
v -0.00073960 -0.21138615 0.21009536
v -0.00133611 -0.20927361 0.21068549
v -0.00358960 -0.20674588 0.21150343
v -0.00191605 -0.20802805 0.21101681
v -0.00055733 -0.20762509 0.21079939
v 0.00118250 -0.20753960 0.21034384
v 0.00267379 -0.20753960 0.20989865
v 0.00817497 -0.23613840 0.19791968
v 0.00583862 -0.23945987 0.19591112
v 0.00429763 -0.24185327 0.19440987
v 0.00274006 -0.24554108 0.19111747
v -0.00345705 -0.26864480 0.16458154
v -0.00345705 -0.27040323 0.16249015
v -0.00655560 -0.27069630 0.16208636
v -0.01896639 -0.27181973 0.15960154
v -0.01432684 -0.27119695 0.16108208
v -0.01740883 -0.27183194 0.15971543
v -0.02050738 -0.27056197 0.16193106
v -0.02223064 -0.27052534 0.16187930
v -0.01896639 -0.27085504 0.16151692
v -0.03603330 -0.27012236 0.16133057
v -0.03759086 -0.26930421 0.16229343
v -0.03914842 -0.26960949 0.16167222
v -0.06703541 -0.26638571 0.16095785
v -0.06859298 -0.26592168 0.16117527
v -0.07323252 -0.26241705 0.16451943
v -0.07479009 -0.26048768 0.16654870
v -0.07165839 -0.26255138 0.16469544
v -0.03853534 -0.26589727 0.16654870
v -0.03603330 -0.26194081 0.17194285
v -0.03603330 -0.25958403 0.17492465
v -0.03914842 -0.25771572 0.17688145
v -0.03759086 -0.25808206 0.17657085
v -0.03759086 -0.25698304 0.17778221
v -0.01276928 -0.25660449 0.17894179
v 0.00274006 -0.23873940 0.19653233
v 0.00269036 -0.23613840 0.19821993
v 0.00171274 -0.23958198 0.19599395
v -0.01896639 -0.23043574 0.20075653
v -0.01276928 -0.25808206 0.17731631
v -0.01122829 -0.25805763 0.17728524
v -0.00967072 -0.25947413 0.17556657
v -0.00501461 -0.26578736 0.16798784
v -0.00655560 -0.26582400 0.16801889
v -0.02362251 -0.26438307 0.16971687
v -0.02516350 -0.26599494 0.16771864
v -0.02672106 -0.26594610 0.16769795
v -0.03295131 -0.26945074 0.16250051
v -0.02983618 -0.26566526 0.16780147
v -0.03293474 -0.26139130 0.17293680
v -0.03445916 -0.25993817 0.17457264
v -0.03603330 -0.25848503 0.17619813
v -0.02796380 -0.26434643 0.16965475
f 1 2 3
f 1 3 4
f 1 4 5
f 1 5 6
f 1 6 7
f 1 7 8
f 1 8 9
f 1 9 10
f 1 10 11
f 1 11 12
f 1 12 13
f 1 13 14
f 1 14 15
f 1 15 16
f 1 16 2
f 2 17 18
f 2 18 19
f 2 19 20
f 2 20 3
f 2 16 17
f 3 21 4
f 3 20 22
f 3 22 21
f 4 21 5
f 5 23 24
f 5 24 25
f 5 25 26
f 5 26 27
f 5 27 6
f 5 21 28
f 5 28 29
f 5 29 30
f 5 30 31
f 5 31 32
f 5 32 23
f 6 27 7
f 7 27 33
f 7 33 8
f 8 34 35
f 8 35 36
f 8 36 37
f 8 37 9
f 8 33 38
f 8 38 34
f 9 39 89
f 9 89 88
f 9 88 101
f 9 101 40
f 9 40 41
f 9 41 42
f 9 42 43
f 9 43 10
f 9 37 39
f 10 43 111
f 10 111 208
f 10 208 209
f 10 209 112
f 10 112 44
f 10 44 11
f 11 44 45
f 11 45 46
f 11 46 12
f 12 46 47
f 12 47 13
f 13 47 48
f 13 48 14
f 14 49 50
f 14 50 15
f 14 48 49
f 15 50 51
f 15 51 16
f 16 51 52
f 16 52 53
f 16 53 54
f 16 54 55
f 16 55 56
f 16 56 17
f 17 57 58
f 17 58 18
f 17 56 57
f 18 58 59
f 18 59 19
f 19 59 20
f 20 59 60
f 20 60 61
f 20 61 62
f 20 62 22
f 21 22 63
f 21 63 28
f 22 62 61
f 22 61 63
f 23 64 25
f 23 25 24
f 23 32 31
f 23 31 64
f 25 64 65
f 25 65 66
f 25 66 67
f 25 67 68
f 25 68 69
f 25 69 26
f 26 70 27
f 26 69 70
f 27 71 72
f 27 72 33
f 27 70 73
f 27 73 71
f 28 63 29
f 29 63 74
f 29 74 75
f 29 75 76
f 29 76 77
f 29 77 30
f 30 77 65
f 30 65 31
f 31 65 64
f 33 72 71
f 33 71 38
f 34 78 79
f 34 79 35
f 34 38 80
f 34 80 81
f 34 81 82
f 34 82 78
f 35 79 83
f 35 83 84
f 35 84 36
f 36 84 85
f 36 85 37
f 37 85 86
f 37 86 87
f 37 87 88
f 37 88 89
f 37 89 39
f 38 71 90
f 38 90 91
f 38 91 80
f 40 92 93
f 40 93 94
f 40 94 95
f 40 95 96
f 40 96 97
f 40 97 98
f 40 98 99
f 40 99 100
f 40 100 41
f 40 101 102
f 40 102 103
f 40 103 104
f 40 104 92
f 41 100 105
f 41 105 106
f 41 106 42
f 42 106 107
f 42 107 108
f 42 108 109
f 42 109 110
f 42 110 111
f 42 111 43
f 44 112 113
f 44 113 114
f 44 114 115
f 44 115 45
f 45 115 116
f 45 116 117
f 45 117 118
f 45 118 46
f 46 118 117
f 46 117 47
f 47 117 119
f 47 119 48
f 48 119 120
f 48 120 121
f 48 121 122
f 48 122 49
f 49 123 124
f 49 124 125
f 49 125 50
f 49 122 123
f 50 125 51
f 51 125 126
f 51 126 127
f 51 127 128
f 51 128 52
f 52 128 53
f 53 128 54
f 54 129 130
f 54 130 56
f 54 56 55
f 54 128 129
f 56 130 131
f 56 131 132
f 56 132 57
f 57 133 134
f 57 134 135
f 57 135 58
f 57 132 131
f 57 131 136
f 57 136 133
f 58 135 59
f 59 135 137
f 59 137 60
f 60 137 138
f 60 138 139
f 60 139 140
f 60 140 141
f 60 141 61
f 61 141 63
f 63 141 75
f 63 75 74
f 65 77 142
f 65 142 143
f 65 143 144
f 65 144 66
f 66 144 145
f 66 145 67
f 67 145 146
f 67 146 147
f 67 147 148
f 67 148 68
f 68 71 149
f 68 149 73
f 68 73 69
f 68 148 150
f 68 150 90
f 68 90 71
f 69 73 70
f 71 73 151
f 71 151 149
f 73 149 151
f 75 141 152
f 75 152 153
f 75 153 142
f 75 142 77
f 75 77 76
f 78 154 155
f 78 155 79
f 78 82 148
f 78 148 146
f 78 146 154
f 79 155 83
f 80 91 156
f 80 156 81
f 81 156 82
f 82 156 157
f 82 157 148
f 83 155 158
f 83 158 85
f 83 85 84
f 85 158 86
f 86 158 159
f 86 159 87
f 87 160 161
f 87 161 162
f 87 162 88
f 87 159 163
f 87 163 164
f 87 164 165
f 87 165 166
f 87 166 167
f 87 167 168
f 87 168 160
f 88 162 101
f 90 150 157
f 90 157 91
f 91 157 156
f 92 169 93
f 92 104 191
f 92 191 169
f 93 169 170
f 93 170 171
f 93 171 172
f 93 172 94
f 94 173 95
f 94 172 174
f 94 174 173
f 95 175 176
f 95 176 96
f 95 173 177
f 95 177 175
f 96 176 97
f 97 178 179
f 97 179 98
f 97 176 180
f 97 180 181
f 97 181 178
f 98 179 99
f 99 179 182
f 99 182 183
f 99 183 100
f 100 183 105
f 101 162 184
f 101 184 102
f 102 184 185
f 102 185 160
f 102 160 186
f 102 186 187
f 102 187 104
f 102 104 103
f 104 187 188
f 104 188 189
f 104 189 190
f 104 190 191
f 105 183 108
f 105 108 192
f 105 192 106
f 106 192 107
f 107 192 108
f 108 183 182
f 108 182 193
f 108 193 109
f 109 193 194
f 109 194 195
f 109 195 196
f 109 196 197
f 109 197 110
f 110 198 111
f 110 197 198
f 111 198 199
f 111 199 200
f 111 200 201
f 111 201 202
f 111 202 203
f 111 203 204
f 111 204 205
f 111 205 206
f 111 206 207
f 111 207 208
f 112 209 210
f 112 210 211
f 112 211 212
f 112 212 113
f 113 212 213
f 113 213 116
f 113 116 214
f 113 214 114
f 114 214 116
f 114 116 115
f 116 213 215
f 116 215 117
f 117 215 120
f 117 120 119
f 120 216 121
f 120 215 216
f 121 216 122
f 122 216 123
f 123 216 217
f 123 217 124
f 124 218 219
f 124 219 220
f 124 220 221
f 124 221 222
f 124 222 126
f 124 126 125
f 124 217 218
f 126 128 127
f 126 222 128
f 128 222 129
f 129 222 130
f 130 222 131
f 131 222 223
f 131 223 224
f 131 224 136
f 133 135 134
f 133 136 224
f 133 224 225
f 133 225 135
f 135 225 226
f 135 226 227
f 135 227 228
f 135 228 137
f 137 228 138
f 138 228 227
f 138 227 229
f 138 229 230
f 138 230 231
f 138 231 232
f 138 232 139
f 139 232 231
f 139 231 233
f 139 233 234
f 139 234 235
f 139 235 236
f 139 236 140
f 140 236 141
f 141 236 153
f 141 153 152
f 142 153 236
f 142 236 237
f 142 237 143
f 143 238 239
f 143 239 144
f 143 237 240
f 143 240 238
f 144 239 145
f 145 239 241
f 145 241 242
f 145 242 243
f 145 243 244
f 145 244 154
f 145 154 146
f 146 148 147
f 148 157 150
f 154 245 158
f 154 158 155
f 154 244 245
f 158 246 247
f 158 247 248
f 158 248 164
f 158 164 163
f 158 163 159
f 158 245 246
f 160 249 186
f 160 185 250
f 160 250 161
f 160 168 249
f 161 250 251
f 161 251 162
f 162 251 185
f 162 185 184
f 164 248 165
f 165 248 166
f 166 248 252
f 166 252 167
f 167 252 253
f 167 253 254
f 167 254 168
f 168 254 249
f 169 191 170
f 170 255 172
f 170 172 171
f 170 191 256
f 170 256 257
f 170 257 255
f 172 255 174
f 173 258 177
f 173 174 259
f 173 259 258
f 174 260 259
f 174 255 261
f 174 261 338
f 174 338 262
f 174 262 260
f 175 177 263
f 175 263 264
f 175 264 265
f 175 265 176
f 176 266 267
f 176 267 180
f 176 265 268
f 176 268 266
f 177 258 269
f 177 269 263
f 178 181 270
f 178 270 179
f 179 270 182
f 180 267 181
f 181 267 270
f 182 270 271
f 182 271 193
f 185 251 250
f 186 249 272
f 186 272 273
f 186 273 188
f 186 188 187
f 188 273 189
f 189 272 274
f 189 274 275
f 189 275 190
f 189 273 272
f 190 276 191
f 190 275 276
f 191 276 256
f 193 271 277
f 193 277 194
f 194 277 195
f 195 277 196
f 196 278 279
f 196 279 199
f 196 199 280
f 196 280 197
f 196 277 281
f 196 281 282
f 196 282 278
f 197 280 198
f 198 280 199
f 199 279 200
f 200 279 278
f 200 278 283
f 200 283 201
f 201 283 284
f 201 284 285
f 201 285 286
f 201 286 202
f 202 286 287
f 202 287 288
f 202 288 289
f 202 289 290
f 202 290 203
f 203 290 291
f 203 291 204
f 204 291 205
f 205 291 292
f 205 292 206
f 206 292 293
f 206 293 207
f 207 293 294
f 207 294 208
f 208 294 295
f 208 295 296
f 208 296 209
f 209 297 210
f 209 296 297
f 210 297 298
f 210 298 211
f 211 213 212
f 211 298 215
f 211 215 213
f 215 298 297
f 215 297 299
f 215 299 216
f 216 299 300
f 216 300 217
f 217 300 299
f 217 299 218
f 218 299 219
f 219 299 301
f 219 301 302
f 219 302 303
f 219 303 304
f 219 304 305
f 219 305 306
f 219 306 307
f 219 307 220
f 220 307 221
f 221 307 223
f 221 223 222
f 223 307 225
f 223 225 224
f 225 307 308
f 225 308 226
f 226 230 229
f 226 229 227
f 226 308 309
f 226 309 230
f 230 309 310
f 230 310 231
f 231 310 233
f 233 310 309
f 233 309 311
f 233 311 234
f 234 311 312
f 234 312 235
f 235 313 236
f 235 312 314
f 235 314 315
f 235 315 313
f 236 313 238
f 236 238 240
f 236 240 237
f 238 313 239
f 239 316 241
f 239 313 317
f 239 317 316
f 241 316 318
f 241 318 319
f 241 319 320
f 241 320 242
f 242 320 321
f 242 321 322
f 242 322 243
f 243 322 323
f 243 323 245
f 243 245 324
f 243 324 244
f 244 324 245
f 245 323 246
f 246 323 325
f 246 325 326
f 246 326 327
f 246 327 252
f 246 252 248
f 246 248 247
f 249 328 272
f 249 254 328
f 252 327 329
f 252 329 330
f 252 330 331
f 252 331 332
f 252 332 333
f 252 333 334
f 252 334 335
f 252 335 336
f 252 336 253
f 253 337 254
f 253 336 262
f 253 262 338
f 253 338 339
f 253 339 337
f 254 337 340
f 254 340 274
f 254 274 328
f 255 341 339
f 255 339 338
f 255 338 261
f 255 257 340
f 255 340 341
f 256 275 257
f 256 276 275
f 257 275 340
f 258 342 269
f 258 259 343
f 258 343 342
f 259 260 343
f 260 262 344
f 260 344 345
f 260 345 346
f 260 346 343
f 262 336 344
f 263 269 347
f 263 347 348
f 263 348 264
f 264 349 350
f 264 350 351
f 264 351 268
f 264 268 265
f 264 348 349
f 266 351 267
f 266 268 351
f 267 351 350
f 267 350 270
f 269 342 352
f 269 352 353
f 269 353 347
f 270 350 271
f 271 350 354
f 271 354 277
f 272 328 274
f 274 340 275
f 277 354 281
f 278 282 355
f 278 355 283
f 281 356 282
f 281 354 357
f 281 357 356
f 282 356 358
f 282 358 359
f 282 359 360
f 282 360 361
f 282 361 283
f 282 283 355
f 283 287 284
f 283 361 287
f 284 287 285
f 285 287 286
f 287 361 288
f 288 361 360
f 288 360 289
f 289 362 363
f 289 363 364
f 289 364 365
f 289 365 291
f 289 291 290
f 289 360 362
f 291 365 366
f 291 366 367
f 291 367 368
f 291 368 292
f 292 369 293
f 292 368 369
f 293 369 370
f 293 370 371
f 293 371 294
f 294 371 372
f 294 372 373
f 294 373 295
f 295 373 374
f 295 374 296
f 296 374 375
f 296 375 301
f 296 301 297
f 297 301 299
f 301 375 376
f 301 376 302
f 302 377 378
f 302 378 379
f 302 379 303
f 302 376 380
f 302 380 377
f 303 379 304
f 304 379 381
f 304 381 382
f 304 382 305
f 305 382 383
f 305 383 306
f 306 383 307
f 307 383 384
f 307 384 308
f 308 384 385
f 308 385 386
f 308 386 387
f 308 387 309
f 309 387 388
f 309 388 311
f 311 388 389
f 311 389 390
f 311 390 314
f 311 314 312
f 313 315 391
f 313 391 392
f 313 392 317
f 314 390 393
f 314 393 315
f 315 393 391
f 316 317 318
f 317 392 394
f 317 394 318
f 318 395 396
f 318 396 397
f 318 397 320
f 318 320 319
f 318 394 395
f 320 397 398
f 320 398 321
f 321 398 322
f 322 398 399
f 322 399 325
f 322 325 323
f 325 399 326
f 326 400 327
f 326 399 398
f 326 398 400
f 327 400 397
f 327 397 401
f 327 401 329
f 329 401 402
f 329 402 330
f 330 402 403
f 330 403 404
f 330 404 405
f 330 405 331
f 331 405 406
f 331 406 407
f 331 407 408
f 331 408 332
f 332 408 409
f 332 409 410
f 332 410 411
f 332 411 333
f 333 411 334
f 334 411 412
f 334 412 413
f 334 413 335
f 335 413 336
f 336 413 412
f 336 412 411
f 336 411 414
f 336 414 415
f 336 415 345
f 336 345 344
f 337 339 341
f 337 341 340
f 342 343 352
f 343 346 416
f 343 416 347
f 343 347 352
f 345 417 418
f 345 418 419
f 345 419 416
f 345 416 346
f 345 415 417
f 347 416 420
f 347 420 421
f 347 421 422
f 347 422 348
f 347 353 352
f 348 422 423
f 348 423 424
f 348 424 349
f 349 425 357
f 349 357 354
f 349 354 350
f 349 424 426
f 349 426 425
f 356 357 358
f 357 425 358
f 358 425 427
f 358 427 428
f 358 428 359
f 359 428 360
f 360 428 362
f 362 429 430
f 362 430 363
f 362 428 427
f 362 427 429
f 363 430 431
f 363 431 432
f 363 432 433
f 363 433 434
f 363 434 364
f 364 434 435
f 364 435 436
f 364 436 365
f 365 436 366
f 366 437 438
f 366 438 368
f 366 368 367
f 366 436 437
f 368 438 439
f 368 439 440
f 368 440 441
f 368 441 370
f 368 370 369
f 370 441 442
f 370 442 443
f 370 443 444
f 370 444 371
f 371 444 372
f 372 445 374
f 372 374 373
f 372 444 445
f 374 445 375
f 375 446 401
f 375 401 376
f 375 445 446
f 376 401 393
f 376 393 380
f 377 447 448
f 377 448 449
f 377 449 378
f 377 380 450
f 377 450 447
f 378 381 379
f 378 449 381
f 380 393 450
f 381 449 382
f 382 449 383
f 383 449 448
f 383 448 384
f 384 448 451
f 384 451 452
f 384 452 385
f 385 452 453
f 385 453 454
f 385 454 386
f 386 454 455
f 386 455 456
f 386 456 387
f 387 456 389
f 387 389 388
f 389 456 450
f 389 450 393
f 389 393 390
f 391 393 392
f 392 395 394
f 392 393 401
f 392 401 395
f 395 397 396
f 395 401 397
f 397 400 398
f 401 457 458
f 401 458 459
f 401 459 403
f 401 403 402
f 401 446 457
f 403 459 440
f 403 440 406
f 403 406 404
f 404 406 405
f 406 440 439
f 406 439 409
f 406 409 407
f 407 409 408
f 409 439 460
f 409 460 410
f 410 414 411
f 410 460 461
f 410 461 462
f 410 462 414
f 414 462 463
f 414 463 417
f 414 417 415
f 416 419 464
f 416 464 420
f 417 463 465
f 417 465 418
f 418 465 466
f 418 466 419
f 419 466 464
f 420 464 421
f 421 467 468
f 421 468 422
f 421 464 466
f 421 466 465
f 421 465 469
f 421 469 467
f 422 470 471
f 422 471 472
f 422 472 423
f 422 468 470
f 423 432 473
f 423 473 426
f 423 426 424
f 423 472 432
f 425 426 427
f 426 473 427
f 427 473 474
f 427 474 475
f 427 475 476
f 427 476 429
f 429 476 430
f 430 476 431
f 431 476 475
f 431 475 477
f 431 477 432
f 432 477 473
f 432 472 433
f 433 472 478
f 433 478 479
f 433 479 480
f 433 480 481
f 433 481 434
f 434 481 482
f 434 482 483
f 434 483 435
f 435 483 484
f 435 484 439
f 435 439 436
f 436 439 437
f 437 439 438
f 439 484 460
f 440 485 486
f 440 486 487
f 440 487 442
f 440 442 441
f 440 459 458
f 440 458 485
f 442 487 443
f 443 487 488
f 443 488 444
f 444 488 446
f 444 446 445
f 446 488 487
f 446 487 486
f 446 486 457
f 447 450 451
f 447 451 448
f 450 456 455
f 450 455 451
f 451 455 454
f 451 454 453
f 451 453 452
f 457 486 458
f 458 486 485
f 460 484 489
f 460 489 490
f 460 490 491
f 460 491 492
f 460 492 461
f 461 492 493
f 461 493 462
f 462 493 494
f 462 494 495
f 462 495 463
f 463 467 469
f 463 469 465
f 463 495 467
f 467 495 496
f 467 496 468
f 468 496 497
f 468 497 470
f 470 497 471
f 471 497 498
f 471 498 479
f 471 479 478
f 471 478 472
f 473 477 475
f 473 475 474
f 479 498 499
f 479 499 480
f 480 500 501
f 480 501 482
f 480 482 481
f 480 499 500
f 482 501 483
f 483 501 484
f 484 501 489
f 489 493 490
f 489 501 500
f 489 500 499
f 489 499 502
f 489 502 494
f 489 494 493
f 490 493 491
f 491 493 492
f 494 502 495
f 495 502 496
f 496 502 498
f 496 498 497
f 498 502 499

