# https://github.com/mikedh/trimesh
v 0.31442280 -0.16898479 -0.01075106
v 0.30996187 -0.16897210 0.05791508
v 0.30319497 -0.20018216 0.02483663
v 0.30319497 -0.20018216 0.02270575
v 0.31372278 -0.17089974 -0.01075106
v 0.28791795 -0.16898479 -0.01075106
v 0.30710686 -0.14440733 0.10949434
v 0.30743629 -0.14623352 0.10949434
v 0.30771081 -0.14838944 0.10949434
v 0.30799906 -0.15265054 0.10949434
v 0.30771081 -0.15412164 0.10949434
v 0.30674999 -0.15853493 0.10949434
v 0.29738888 -0.21259770 0.02537433
v 0.29738888 -0.21259770 0.02198882
v 0.30412833 -0.19441191 -0.01075106
v 0.30632449 -0.18961818 -0.01075106
v 0.30898732 -0.18304897 -0.01075106
v 0.31023639 -0.17985314 -0.01075106
v 0.28371782 -0.14440733 0.10949434
v 0.25249123 -0.25352208 -0.01075106
v 0.17421201 -0.14443270 0.17465549
v 0.30534994 -0.14440733 0.11391541
v 0.30578916 -0.14644911 0.11375610
v 0.30312633 -0.15452746 0.12359400
v 0.30657155 -0.15265054 0.11375610
v 0.30312633 -0.15635364 0.12359400
v 0.30547347 -0.15886465 0.11375610
v 0.30603624 -0.16004406 0.10949434
v 0.30303024 -0.16217462 0.11720136
v 0.30351066 -0.16307503 0.11375610
v 0.28607867 -0.22148769 0.05837311
v 0.28428057 -0.22396066 0.06074297
v 0.29193966 -0.21952201 0.02688785
v 0.27001929 -0.25245679 -0.01033286
v 0.27228407 -0.24936242 -0.01075106
v 0.28983960 -0.22278123 -0.01075106
v 0.29159651 -0.21935715 -0.01075106
v 0.26279943 -0.14440733 0.14080036
v 0.25242258 -0.25383911 -0.01075106
v 0.17422573 -0.26439043 0.12570496
v 0.17421201 -0.14443270 0.19016909
v 0.17421201 -0.24255225 0.14263252
v 0.30386753 -0.14440733 0.11726110
v 0.30274201 -0.15039317 0.12269783
v 0.30125960 -0.15253640 0.12586428
v 0.29786928 -0.15265054 0.13022562
v 0.29795163 -0.15886465 0.13034510
v 0.30105370 -0.15858565 0.12586428
v 0.30230277 -0.16047525 0.12132371
v 0.30371654 -0.15858565 0.11953138
v 0.29789675 -0.16491390 0.12566513
v 0.30060075 -0.16455881 0.11953138
v 0.28348448 -0.22285733 0.06412848
v 0.25341087 -0.25511999 0.06741442
v 0.25404226 -0.25574140 0.06412848
v 0.24686357 -0.26737067 0.05435032
v 0.26575051 -0.24885515 0.04264044
v 0.27235270 -0.24313562 0.03310127
v 0.27813134 -0.23642692 0.03015388
v 0.28526883 -0.22514007 0.04550817
v 0.29678493 -0.16824922 0.12325544
v 0.29596138 -0.16689227 0.12737780
v 0.26691722 -0.25626136 -0.01033286
v 0.27001929 -0.25246947 -0.01075106
v 0.26430929 -0.14440733 0.14263252
v 0.25192846 -0.25811290 -0.01075106
v 0.17422573 -0.27043968 0.12626258
v 0.17421201 -0.26222183 0.14263252
v 0.17421201 -0.14455951 0.19020890
v 0.17555715 -0.14443270 0.18993011
v 0.28289424 -0.14440733 0.14263252
v 0.30257730 -0.14440733 0.11990976
v 0.30194590 -0.14440733 0.12106482
v 0.29856931 -0.14440733 0.12602360
v 0.29321617 -0.14440733 0.13235650
v 0.29038863 -0.14440733 0.13534371
v 0.27791173 -0.14443270 0.14769087
v 0.27254487 -0.14443270 0.15266957
v 0.27143306 -0.14443270 0.15368521
v 0.27148796 -0.14644911 0.15372505
v 0.29707317 -0.14860502 0.12958835
v 0.27721170 -0.17128019 0.14701378
v 0.28032750 -0.17128019 0.14390706
v 0.29027882 -0.16745027 0.13516448
v 0.29715554 -0.16275799 0.12976758
v 0.27151542 -0.15266322 0.15376488
v 0.27141933 -0.15886465 0.15364539
v 0.27117227 -0.16506608 0.15342632
v 0.27066441 -0.17128019 0.15298821
v 0.27410963 -0.17128019 0.14990141
v 0.29005922 -0.17384193 0.12803499
v 0.28585907 -0.17611198 0.13235650
v 0.27899608 -0.18147641 0.13683732
v 0.23592397 -0.26857545 0.07510152
v 0.24111238 -0.26767504 0.06767331
v 0.24200458 -0.26834718 0.06412848
v 0.24631454 -0.26645758 0.05791508
v 0.26634073 -0.18742421 0.14860696
v 0.24362425 -0.26827108 0.05751678
v 0.24723416 -0.26751016 0.05020806
v 0.26360927 -0.25936841 -0.01033286
v 0.29181613 -0.16969496 0.13102221
v 0.26691722 -0.25626136 -0.01075106
v 0.26712311 -0.25602040 -0.01075106
v 0.25272457 -0.26233596 -0.01075106
v 0.17422573 -0.27396523 0.12869218
v 0.17421201 -0.25716177 0.14852729
v 0.17422573 -0.27396523 0.12950868
v 0.17422573 -0.27393988 0.13040485
v 0.17421201 -0.14802166 0.19096568
v 0.17543362 -0.14680421 0.19046780
v 0.21298787 -0.14443270 0.18236250
v 0.21500558 -0.14443270 0.18192437
v 0.21917829 -0.14443270 0.18096846
v 0.22790800 -0.14443270 0.17891724
v 0.22856686 -0.14443270 0.17873800
v 0.23129832 -0.14443270 0.17782191
v 0.23323369 -0.14443270 0.17710499
v 0.23779071 -0.14443270 0.17535249
v 0.23906722 -0.14443270 0.17475505
v 0.24201830 -0.14443270 0.17330127
v 0.24303403 -0.14443270 0.17276357
v 0.24510666 -0.14443270 0.17164835
v 0.25169512 -0.14443270 0.16802386
v 0.25385009 -0.14443270 0.16680906
v 0.25674628 -0.14443270 0.16501673
v 0.25844829 -0.14443270 0.16390149
v 0.26150918 -0.14443270 0.16181045
v 0.26252491 -0.14443270 0.16105368
v 0.26461125 -0.14443270 0.15942068
v 0.26586032 -0.14443270 0.15840503
v 0.26934671 -0.14443270 0.15545763
v 0.29630453 -0.14440733 0.12877184
v 0.26838591 -0.14644911 0.15637372
v 0.27294291 -0.17748162 0.14884593
v 0.27925686 -0.17588370 0.14295116
v 0.28474727 -0.17497061 0.13616022
v 0.26472106 -0.14644911 0.15948041
v 0.26842707 -0.15266322 0.15637372
v 0.26833098 -0.15886465 0.15625423
v 0.26805648 -0.16506608 0.15601525
v 0.26757607 -0.17128019 0.15567669
v 0.25949146 -0.18057600 0.16027700
v 0.27765092 -0.18000532 0.14097960
v 0.22871783 -0.26773843 0.08611440
v 0.22999435 -0.26885445 0.08274879
v 0.22513536 -0.26928562 0.08848425
v 0.23203952 -0.26938707 0.07691377
v 0.23791424 -0.26871494 0.06996351
v 0.25441286 -0.19399342 0.15567669
v 0.24321247 -0.26837253 0.05791508
v 0.27202329 -0.18074086 0.14800951
v 0.25280691 -0.19247158 0.15981898
v 0.24723416 -0.26751016 0.04817675
v 0.26024639 -0.26227255 -0.01075106
v 0.26050719 -0.26215842 -0.01033286
v 0.26360927 -0.25936841 -0.01075106
v 0.25612861 -0.26321102 -0.01075106
v 0.18441039 -0.27378768 0.12273766
v 0.18554965 -0.27378768 0.12273766
v 0.25638939 -0.26327443 -0.01075106
v 0.17574931 -0.25614722 0.14906499
v 0.17421201 -0.25638818 0.14934380
v 0.17422573 -0.27116254 0.13351155
v 0.17900235 -0.27369892 0.12934936
v 0.18554965 -0.27378768 0.12337493
v 0.17576303 -0.27393988 0.12986715
v 0.17421201 -0.15183890 0.19168262
v 0.21298787 -0.14644911 0.18266123
v 0.17454142 -0.15266322 0.19176227
v 0.21917829 -0.14644911 0.18126717
v 0.22583538 -0.14632230 0.17967399
v 0.23117479 -0.14632230 0.17808081
v 0.22882764 -0.14828799 0.17901680
v 0.23779071 -0.14644911 0.17553172
v 0.24218302 -0.14644911 0.17340083
v 0.24527135 -0.14644911 0.17170809
v 0.25017152 -0.14644911 0.16901958
v 0.25397362 -0.14644911 0.16688871
v 0.25707569 -0.14644911 0.16501673
v 0.26161899 -0.14644911 0.16191002
v 0.27940786 -0.17599784 0.14263252
v 0.26463870 -0.15266322 0.15948041
v 0.26436419 -0.15886465 0.15934101
v 0.26406221 -0.16506608 0.15912195
v 0.26376024 -0.17128019 0.15878340
v 0.26015032 -0.17645439 0.16077488
v 0.25699334 -0.17810305 0.16246763
v 0.25551093 -0.18369573 0.16194985
v 0.25417952 -0.18834999 0.16105368
v 0.25862673 -0.18369573 0.15940076
v 0.22291174 -0.26834718 0.09278584
v 0.21910965 -0.26975486 0.09495655
v 0.25051467 -0.19018885 0.16232823
v 0.20472484 -0.21245821 0.17338093
v 0.19816382 -0.21838064 0.17318179
v 0.19143809 -0.22411283 0.17282331
v 0.19222048 -0.23712443 0.16091428
v 0.21037994 -0.23688347 0.14826840
v 0.22245880 -0.23655375 0.13566235
v 0.20509543 -0.26905735 0.11236206
v 0.26050719 -0.26215842 -0.01075106
v 0.18432804 -0.24231131 0.15997829
v 0.17574931 -0.24705432 0.15846477
v 0.17421201 -0.24806888 0.15796690
v 0.17421201 -0.25342062 0.15243059
v 0.20303655 -0.24231131 0.14755147
v 0.19911092 -0.26895590 0.11805769
v 0.17421201 -0.15266322 0.19182202
v 0.17879647 -0.15620147 0.19128433
v 0.17421201 -0.15305636 0.19186185
v 0.17633952 -0.15852224 0.19202115
v 0.21917829 -0.15266322 0.18176505
v 0.22539616 -0.15266322 0.18031127
v 0.23230031 -0.15266322 0.17808081
v 0.22919825 -0.15266322 0.17913630
v 0.23779071 -0.15266322 0.17583044
v 0.24240264 -0.15266322 0.17354025
v 0.24550469 -0.15266322 0.17178775
v 0.25017152 -0.15266322 0.16909925
v 0.25394617 -0.15266322 0.16688871
v 0.25703453 -0.15266322 0.16487732
v 0.26155036 -0.15266322 0.16177062
v 0.26064444 -0.17128019 0.16111343
v 0.25637567 -0.17128019 0.16388158
v 0.25180493 -0.17748162 0.16575357
v 0.25004799 -0.18386060 0.16519596
v 0.24656160 -0.18605457 0.16625145
v 0.24431055 -0.19013812 0.16539511
v 0.20678374 -0.20847609 0.17449615
v 0.20037371 -0.21457607 0.17431692
v 0.19386758 -0.22061263 0.17397838
v 0.17956512 -0.23670592 0.16672939
v 0.18369665 -0.23580552 0.16599255
v 0.18815760 -0.23826580 0.16194985
v 0.18815760 -0.22089165 0.17581054
v 0.18815760 -0.22475962 0.17324154
v 0.20677000 -0.23808825 0.14952303
v 0.18193973 -0.23950862 0.16338372
v 0.17574931 -0.24054854 0.16471800
v 0.18018280 -0.24311025 0.16077488
v 0.17574931 -0.24395995 0.16163120
v 0.17421201 -0.24497450 0.16111343
v 0.17421201 -0.15862371 0.19241944
v 0.17574931 -0.16506608 0.19235971
v 0.21298787 -0.15886465 0.18341798
v 0.21917829 -0.15886465 0.18194428
v 0.22908844 -0.15764720 0.17909647
v 0.23132576 -0.15935924 0.17822021
v 0.23779071 -0.15886465 0.17581054
v 0.24234773 -0.15886465 0.17352033
v 0.24543607 -0.15886465 0.17172800
v 0.25017152 -0.15886465 0.16888019
v 0.25365793 -0.15886465 0.16672939
v 0.25342459 -0.16306236 0.16659000
v 0.25312262 -0.16718395 0.16641077
v 0.25264220 -0.17128019 0.16615187
v 0.24787930 -0.18192029 0.16686881
v 0.24177124 -0.16363304 0.17320170
v 0.24431055 -0.18386060 0.16788445
v 0.20462875 -0.20032167 0.17927570
v 0.20674256 -0.20235076 0.17750328
v 0.24244380 -0.18821048 0.16720736
v 0.20218553 -0.20443058 0.17853886
v 0.19397739 -0.21428440 0.17732405
v 0.17421201 -0.24081485 0.16497690
v 0.17574931 -0.23744147 0.16720736
v 0.17421201 -0.23846870 0.16682898
v 0.18815760 -0.21609790 0.17833971
v 0.18195345 -0.21727731 0.17871809
v 0.17421201 -0.22106918 0.17772235
v 0.17421201 -0.22678871 0.17437667
v 0.17421201 -0.23051718 0.17204665
v 0.17421201 -0.23457536 0.16943781
v 0.17421201 -0.23769512 0.16738659
v 0.17421201 -0.24420090 0.16187020
v 0.17421201 -0.16506608 0.19263851
v 0.17421201 -0.16657523 0.19265844
v 0.17421201 -0.17128019 0.19269826
v 0.17574931 -0.17128019 0.19237963
v 0.17900235 -0.17471698 0.19136397
v 0.21298787 -0.16506608 0.18317900
v 0.21917829 -0.16506608 0.18154599
v 0.22597265 -0.15935924 0.17991297
v 0.22476476 -0.16506608 0.17973374
v 0.22785310 -0.16506608 0.17867827
v 0.23158656 -0.16506608 0.17736389
v 0.23825739 -0.16543386 0.17441649
v 0.22239016 -0.17452675 0.17893715
v 0.21917829 -0.17128019 0.18049052
v 0.19437545 -0.19611129 0.18276079
v 0.19437545 -0.20231272 0.18116761
v 0.19165771 -0.21195092 0.17901680
v 0.18815760 -0.21300352 0.17933545
v 0.17574931 -0.20848878 0.18282052
v 0.17421201 -0.20841270 0.18307942
v 0.17421201 -0.21827917 0.17915622
v 0.17421201 -0.21507067 0.18057017
v 0.17421201 -0.21638959 0.18003245
v 0.17421201 -0.17665731 0.19202115
v 0.17574931 -0.17613735 0.19184192
v 0.22333726 -0.17128019 0.17925580
v 0.17421201 -0.18506538 0.19008942
v 0.17421201 -0.18980840 0.18879495
v 0.17421201 -0.19650443 0.18684331
f 1 2 3
f 1 3 4
f 1 4 5
f 1 5 18
f 1 18 17
f 1 17 16
f 1 16 15
f 1 15 37
f 1 37 36
f 1 36 35
f 1 35 64
f 1 64 104
f 1 104 103
f 1 103 157
f 1 157 202
f 1 202 155
f 1 155 161
f 1 161 158
f 1 158 105
f 1 105 66
f 1 66 39
f 1 39 20
f 1 20 6
f 1 6 19
f 1 19 7
f 1 7 8
f 1 8 9
f 1 9 10
f 1 10 2
f 2 10 11
f 2 11 12
f 2 12 3
f 3 13 14
f 3 14 4
f 3 12 13
f 4 14 15
f 4 15 16
f 4 16 17
f 4 17 18
f 4 18 5
f 6 20 21
f 6 21 19
f 7 19 38
f 7 38 65
f 7 65 71
f 7 71 76
f 7 76 75
f 7 75 133
f 7 133 74
f 7 74 73
f 7 73 72
f 7 72 43
f 7 43 22
f 7 22 23
f 7 23 8
f 8 23 24
f 8 24 9
f 9 25 10
f 9 24 25
f 10 25 26
f 10 26 11
f 11 26 27
f 11 27 12
f 12 28 13
f 12 27 29
f 12 29 30
f 12 30 28
f 13 31 32
f 13 32 33
f 13 33 34
f 13 34 35
f 13 35 14
f 13 28 31
f 14 35 36
f 14 36 37
f 14 37 15
f 19 21 38
f 20 39 40
f 20 40 21
f 21 41 38
f 21 40 42
f 21 42 68
f 21 68 107
f 21 107 163
f 21 163 206
f 21 206 205
f 21 205 243
f 21 243 276
f 21 276 266
f 21 266 268
f 21 268 275
f 21 275 274
f 21 274 273
f 21 273 272
f 21 272 271
f 21 271 297
f 21 297 299
f 21 299 298
f 21 298 296
f 21 296 305
f 21 305 304
f 21 304 303
f 21 303 300
f 21 300 279
f 21 279 278
f 21 278 277
f 21 277 244
f 21 244 211
f 21 211 209
f 21 209 168
f 21 168 110
f 21 110 69
f 21 69 41
f 22 43 44
f 22 44 24
f 22 24 23
f 24 26 25
f 24 44 45
f 24 45 46
f 24 46 47
f 24 47 26
f 26 47 48
f 26 48 49
f 26 49 50
f 26 50 27
f 27 50 29
f 28 30 32
f 28 32 31
f 29 50 49
f 29 49 51
f 29 51 52
f 29 52 32
f 29 32 30
f 32 53 54
f 32 54 55
f 32 55 56
f 32 56 57
f 32 57 58
f 32 58 59
f 32 59 60
f 32 60 33
f 32 52 61
f 32 61 62
f 32 62 53
f 33 59 34
f 33 60 59
f 34 59 58
f 34 58 63
f 34 63 64
f 34 64 35
f 38 41 65
f 39 66 40
f 40 67 68
f 40 68 42
f 40 66 67
f 41 69 70
f 41 70 71
f 41 71 65
f 43 72 44
f 44 72 73
f 44 73 74
f 44 74 45
f 45 74 46
f 46 75 76
f 46 76 77
f 46 77 78
f 46 78 79
f 46 79 80
f 46 80 47
f 46 74 81
f 46 81 75
f 47 82 83
f 47 83 84
f 47 84 85
f 47 85 48
f 47 80 86
f 47 86 87
f 47 87 88
f 47 88 89
f 47 89 90
f 47 90 82
f 48 85 49
f 49 85 51
f 51 61 52
f 51 85 62
f 51 62 61
f 53 62 91
f 53 91 92
f 53 92 93
f 53 93 54
f 54 94 95
f 54 95 96
f 54 96 97
f 54 97 56
f 54 56 55
f 54 93 98
f 54 98 94
f 56 99 100
f 56 100 101
f 56 101 63
f 56 63 57
f 56 97 96
f 56 96 99
f 57 63 58
f 62 85 102
f 62 102 91
f 63 101 157
f 63 157 103
f 63 103 104
f 63 104 64
f 66 105 67
f 67 106 68
f 67 105 106
f 68 106 108
f 68 108 109
f 68 109 107
f 69 110 70
f 70 110 111
f 70 111 112
f 70 112 71
f 71 112 113
f 71 113 114
f 71 114 115
f 71 115 116
f 71 116 117
f 71 117 118
f 71 118 119
f 71 119 120
f 71 120 121
f 71 121 122
f 71 122 123
f 71 123 124
f 71 124 125
f 71 125 126
f 71 126 127
f 71 127 128
f 71 128 129
f 71 129 130
f 71 130 131
f 71 131 132
f 71 132 79
f 71 79 78
f 71 78 77
f 71 77 76
f 74 133 81
f 75 81 133
f 79 132 134
f 79 134 80
f 80 134 86
f 82 135 83
f 82 90 135
f 83 135 136
f 83 136 84
f 84 102 85
f 84 136 137
f 84 137 102
f 86 134 138
f 86 138 139
f 86 139 140
f 86 140 87
f 87 140 88
f 88 140 141
f 88 141 142
f 88 142 89
f 89 142 143
f 89 143 90
f 90 143 135
f 91 102 137
f 91 137 92
f 92 137 93
f 93 137 144
f 93 144 98
f 94 145 146
f 94 146 147
f 94 147 148
f 94 148 149
f 94 149 96
f 94 96 95
f 94 98 150
f 94 150 145
f 96 149 148
f 96 148 151
f 96 151 99
f 98 144 152
f 98 152 153
f 98 153 150
f 99 151 100
f 100 151 154
f 100 154 155
f 100 155 156
f 100 156 101
f 101 156 202
f 101 202 157
f 105 158 106
f 106 159 160
f 106 160 166
f 106 166 108
f 106 158 161
f 106 161 159
f 107 162 163
f 107 109 164
f 107 164 165
f 107 165 162
f 108 166 167
f 108 167 109
f 109 167 165
f 109 165 164
f 110 168 112
f 110 112 111
f 112 169 113
f 112 168 170
f 112 170 169
f 113 169 171
f 113 171 114
f 114 171 115
f 115 172 116
f 115 171 172
f 116 173 117
f 116 172 174
f 116 174 173
f 117 173 118
f 118 173 119
f 119 175 120
f 119 173 175
f 120 175 176
f 120 176 121
f 121 176 122
f 122 176 123
f 123 176 177
f 123 177 178
f 123 178 124
f 124 178 179
f 124 179 125
f 125 180 126
f 125 179 180
f 126 180 127
f 127 180 128
f 128 181 129
f 128 180 181
f 129 181 130
f 130 181 138
f 130 138 131
f 131 138 132
f 132 138 134
f 135 152 136
f 135 143 152
f 136 182 137
f 136 152 182
f 137 182 144
f 138 181 183
f 138 183 139
f 139 183 140
f 140 183 184
f 140 184 141
f 141 184 185
f 141 185 186
f 141 186 142
f 142 186 187
f 142 187 143
f 143 187 188
f 143 188 189
f 143 189 190
f 143 190 191
f 143 191 152
f 144 182 152
f 145 192 147
f 145 147 146
f 145 150 192
f 147 192 193
f 147 193 166
f 147 166 148
f 148 166 151
f 150 153 192
f 151 161 154
f 151 166 160
f 151 160 161
f 152 191 190
f 152 190 153
f 153 190 194
f 153 194 195
f 153 195 196
f 153 196 197
f 153 197 198
f 153 198 199
f 153 199 200
f 153 200 201
f 153 201 192
f 154 161 155
f 155 202 156
f 159 161 160
f 162 165 203
f 162 203 204
f 162 204 205
f 162 205 206
f 162 206 163
f 165 199 207
f 165 207 198
f 165 198 203
f 165 167 166
f 165 166 208
f 165 208 199
f 166 193 201
f 166 201 208
f 168 209 170
f 169 170 210
f 169 210 171
f 170 209 211
f 170 211 212
f 170 212 210
f 171 213 214
f 171 214 172
f 171 210 213
f 172 214 174
f 173 215 175
f 173 174 215
f 174 214 216
f 174 216 215
f 175 217 176
f 175 215 217
f 176 218 177
f 176 217 218
f 177 218 178
f 178 218 179
f 179 218 219
f 179 219 220
f 179 220 221
f 179 221 180
f 180 222 181
f 180 221 222
f 181 223 183
f 181 222 223
f 183 223 184
f 184 223 224
f 184 224 185
f 185 224 186
f 186 224 187
f 187 224 225
f 187 225 188
f 188 225 226
f 188 226 189
f 189 226 227
f 189 227 190
f 190 227 228
f 190 228 194
f 192 201 193
f 194 228 229
f 194 229 230
f 194 230 195
f 195 230 231
f 195 231 196
f 196 231 232
f 196 232 197
f 197 233 234
f 197 234 235
f 197 235 198
f 197 232 236
f 197 236 237
f 197 237 233
f 198 235 203
f 198 207 238
f 198 238 199
f 199 208 201
f 199 201 200
f 199 238 207
f 203 235 234
f 203 234 239
f 203 239 240
f 203 240 241
f 203 241 204
f 204 241 242
f 204 242 205
f 205 242 243
f 210 212 213
f 211 244 212
f 212 244 245
f 212 245 246
f 212 246 214
f 212 214 213
f 214 246 247
f 214 247 248
f 214 248 216
f 215 216 248
f 215 248 249
f 215 249 250
f 215 250 217
f 217 250 218
f 218 250 251
f 218 251 219
f 219 251 220
f 220 251 252
f 220 252 221
f 221 252 253
f 221 253 254
f 221 254 222
f 222 254 224
f 222 224 223
f 224 254 255
f 224 255 256
f 224 256 225
f 225 256 257
f 225 257 226
f 226 258 227
f 226 257 259
f 226 259 258
f 227 258 228
f 228 258 260
f 228 260 261
f 228 261 262
f 228 262 263
f 228 263 229
f 229 263 262
f 229 262 230
f 230 262 264
f 230 264 265
f 230 265 231
f 231 265 232
f 232 265 236
f 233 266 240
f 233 240 239
f 233 239 234
f 233 237 267
f 233 267 268
f 233 268 266
f 236 265 269
f 236 269 270
f 236 270 271
f 236 271 272
f 236 272 273
f 236 273 274
f 236 274 275
f 236 275 237
f 237 275 267
f 240 266 242
f 240 242 241
f 242 276 243
f 242 266 276
f 244 277 245
f 245 277 278
f 245 278 279
f 245 279 280
f 245 280 247
f 245 247 246
f 247 280 281
f 247 281 282
f 247 282 283
f 247 283 284
f 247 284 248
f 248 284 283
f 248 283 249
f 249 283 285
f 249 285 286
f 249 286 287
f 249 287 250
f 250 287 288
f 250 288 259
f 250 259 251
f 251 259 257
f 251 257 256
f 251 256 252
f 252 256 255
f 252 255 253
f 253 255 254
f 258 259 288
f 258 288 287
f 258 287 260
f 260 287 289
f 260 289 261
f 261 289 290
f 261 290 281
f 261 281 291
f 261 291 292
f 261 292 293
f 261 293 264
f 261 264 262
f 264 293 265
f 265 293 269
f 267 275 268
f 269 293 294
f 269 294 295
f 269 295 296
f 269 296 270
f 270 297 271
f 270 296 298
f 270 298 299
f 270 299 297
f 279 300 301
f 279 301 281
f 279 281 280
f 281 301 291
f 281 290 283
f 281 283 282
f 283 290 302
f 283 302 285
f 285 302 286
f 286 302 287
f 287 302 289
f 289 302 290
f 291 301 303
f 291 303 292
f 292 303 304
f 292 304 293
f 293 304 305
f 293 305 294
f 294 305 295
f 295 305 296
f 300 303 301

