# https://github.com/mikedh/trimesh
v 0.02998197 0.04282888 0.04412702
v 0.02998197 0.05165046 0.04412702
v 0.06801633 0.03563112 0.04412702
v -0.03980099 0.03582690 0.04413900
v 0.03814510 0.05069460 0.04412702
v -0.03980099 0.04379626 0.04413900
v -0.01570098 0.05082128 0.04413900
v -0.01429642 0.05121284 0.04413900
v -0.01268326 0.05151227 0.04413900
v -0.01202966 0.05162743 0.04413900
v -0.00980461 0.05197292 0.04413900
v -0.00828880 0.05218022 0.04413900
v 0.00068091 0.05340096 0.04413900
v 0.00193250 0.05356219 0.04413900
v 0.00233579 0.05359674 0.04413900
v 0.00310065 0.05364280 0.04413900
v 0.00433833 0.05366584 0.04413900
v 0.00575680 0.05368887 0.04413900
v 0.01364180 0.05378100 0.04413900
v 0.01517152 0.05374646 0.04413900
v 0.01579731 0.05372342 0.04413900
v 0.01672905 0.05368887 0.04413900
v 0.01743828 0.05364280 0.04413900
v 0.01771641 0.05361977 0.04413900
v 0.01841174 0.05353916 0.04413900
v 0.06801633 0.04460241 0.04412702
v 0.10226811 0.01199942 0.07466211
v 0.10222639 0.01164241 0.07466211
v 0.09442483 -0.06387079 0.15775545
v -0.03980099 -0.06385927 0.14416032
v 0.03806166 0.05066005 0.04430685
v 0.06483173 0.04531643 0.04412702
v -0.03980099 0.04333560 0.04534986
v -0.01884385 0.04873681 0.04937805
v -0.01824587 0.04904775 0.04885055
v -0.01739758 0.04919746 0.04917424
v -0.01739758 0.04897865 0.04994151
v 0.00743949 0.04757365 0.06438784
v 0.00743949 0.04789611 0.06334483
v 0.00899702 0.04791914 0.06334483
v 0.01672905 0.05349309 0.04485832
v 0.01816142 0.05343551 0.04460656
v 0.03377845 0.04948538 0.05093657
v 0.03377845 0.04993452 0.04939003
v 0.03533598 0.05013030 0.04784350
v 0.06640317 0.04499397 0.04412702
v 0.06801633 0.04452180 0.04436679
v 0.10218467 0.02198416 0.07466211
v 0.10226811 0.02194961 0.07466211
v 0.10226811 0.01155027 0.07484194
v 0.10226811 -0.01059581 0.10814641
v 0.09442483 -0.06387079 0.16443312
v 0.06840571 -0.06387079 0.15527379
v -0.03980099 -0.06385927 0.15111373
v 0.06711240 -0.06387079 0.15518987
v 0.05239929 -0.06387079 0.15451851
v 0.05096692 -0.06387079 0.15445857
v 0.00506147 -0.06387079 0.15254039
v 0.03533598 0.04969267 0.04939003
v -0.03980099 0.04274827 0.04686043
v -0.01905245 0.04801127 0.05105646
v -0.01739758 0.04856406 0.05093657
v 0.00743949 0.04720512 0.06515511
v 0.00899702 0.04725119 0.06519108
v 0.00899702 0.04757365 0.06441181
v 0.01672905 0.05303243 0.04628497
v 0.01827267 0.05290576 0.04628497
v 0.03377845 0.04910533 0.05191964
v 0.03462675 0.04903624 0.05176379
v 0.06644489 0.04470606 0.04485832
v 0.06702896 0.04433753 0.04545776
v 0.06801633 0.04422237 0.04514605
v 0.10048807 0.02093616 0.07779115
v 0.10226811 0.02125862 0.07606478
v 0.06801633 0.04125113 0.05275884
v 0.06801633 0.04079048 0.05392174
v 0.09427186 0.02432199 0.07466211
v 0.09374341 0.02425289 0.07514165
v 0.10226811 -0.00154390 0.10814641
v 0.07875217 -0.06387079 0.16508051
v 0.09442483 -0.04790902 0.15502203
v -0.03980099 -0.06369804 0.15108976
v 0.00506147 -0.06387079 0.16419335
v 0.00161265 -0.06385927 0.16340210
v -0.03980099 0.03558505 0.06495130
v -0.03980099 0.03538927 0.06541886
v -0.03980099 0.03517046 0.06589841
v -0.03980099 0.02677499 0.08287434
v -0.01678569 0.04597287 0.05648732
v 0.00743949 0.04642201 0.06636597
v 0.00899702 0.04647959 0.06641392
v -0.01674397 0.04441815 0.05956840
v -0.03980099 0.02623372 0.08394133
v -0.03980099 0.02588822 0.08455274
v -0.01549238 0.03360423 0.07980524
v 0.04882531 0.03198041 0.08125587
v 0.04985440 0.03189980 0.08114797
v 0.04775451 0.03329328 0.07925376
v 0.04775451 0.03368484 0.07847450
v 0.04534869 0.03659850 0.07340330
v 0.05636265 0.03663305 0.06879966
v 0.06634754 0.03333935 0.07148512
v 0.06801633 0.03322419 0.07095762
v 0.06801633 0.03533169 0.06622210
v 0.06801633 0.03997281 0.05577998
v 0.06714021 0.04126265 0.05327436
v 0.09667768 0.01955419 0.08280240
v 0.09726175 0.01907050 0.08340183
v 0.09961196 0.01949661 0.08114797
v 0.10226811 0.02083251 0.07689200
v 0.08375852 0.02736233 0.07466211
v 0.08496838 0.02701683 0.07466211
v 0.10226811 0.00720858 0.09836367
v 0.08186723 0.01611078 0.09638554
v 0.08186723 0.00285537 0.11109562
v 0.08186723 0.00215287 0.11187488
v 0.09442483 -0.00822343 0.11856455
v 0.09442483 -0.02465736 0.13480917
v 0.09442483 -0.02590114 0.13603201
v 0.09442483 -0.02616602 0.13628377
v 0.09442483 -0.02777832 0.13774639
v 0.09441092 -0.04318729 0.15164124
v 0.09441092 -0.04372856 0.15210879
v 0.09441092 -0.04436197 0.15264828
v 0.09442483 -0.04445410 0.15270823
v 0.09442483 -0.04477656 0.15295999
v 0.09442483 -0.04597426 0.15381119
v 0.09442483 -0.04675738 0.15431470
v 0.04187205 -0.06387079 0.16650717
v 0.09427186 -0.04674587 0.15432669
v 0.08338303 -0.04278422 0.15236055
v -0.03980099 -0.06293796 0.15092192
v 0.00588195 -0.06387079 0.16434920
v 0.00429661 -0.06385927 0.16406147
v 0.00278080 -0.06385927 0.16373778
v -0.03980099 -0.04637734 0.14552702
v -0.03980099 -0.06033525 0.15021458
v -0.03980099 -0.06188997 0.15067015
v 0.00743949 0.04585771 0.06714522
v -0.01428251 0.03370788 0.07994910
v 0.00275299 0.02766175 0.09103861
v 0.00899702 0.04589225 0.06719318
v 0.02293136 0.03200345 0.08593144
v 0.02411341 0.03199193 0.08591946
v 0.02517031 0.03193435 0.08583554
v 0.03999467 0.03202648 0.08289832
v 0.04619698 0.03215316 0.08150763
v 0.04775451 0.03204951 0.08136377
v -0.03980099 0.02505904 0.08585951
v -0.03980099 0.02203022 0.09059502
v -0.03980099 0.02108587 0.09204565
v 0.04152439 0.03148521 0.08340183
v 0.03999467 0.03017233 0.08554781
v 0.08186723 0.01673267 0.09563026
v 0.05085567 0.03179615 0.08094417
v 0.05085567 0.03221074 0.08016490
v 0.04936767 0.03320115 0.07882217
v 0.04932595 0.03231439 0.08054854
v 0.04889485 0.03356968 0.07827069
v 0.06801633 0.03232590 0.07281586
v 0.06801633 0.03318964 0.07102955
v 0.07706948 0.02911282 0.07466211
v 0.08143612 0.02798421 0.07466211
v 0.09582938 0.01927780 0.08382144
v 0.09660815 0.01798796 0.08585951
v 0.09723394 0.01821829 0.08504428
v 0.09765113 0.01780369 0.08554781
v 0.09842990 0.01809160 0.08450479
v 0.10226811 0.01988816 0.07864235
v 0.08385586 0.02564638 0.07792303
v 0.09471686 0.01942751 0.08413315
v 0.10226811 0.00865965 0.09642151
v 0.08030970 0.00303964 0.11126346
v 0.03689351 0.02116649 0.09833969
v 0.03689351 0.02049854 0.09913095
v 0.03843714 0.01961177 0.09989822
v 0.04272035 0.01495914 0.10453783
v 0.04712872 0.01026044 0.10914147
v 0.05085567 0.00707039 0.11213863
v 0.08186723 -0.02757102 0.14106724
v 0.09397982 -0.02527925 0.13557644
v 0.08030970 0.00231410 0.11204272
v 0.08030970 -0.02661516 0.14045583
v 0.08889002 -0.02696065 0.13856161
v 0.08272943 -0.02848082 0.14169066
v 0.09441092 -0.03187816 0.14145088
v 0.08186723 -0.02835414 0.14181055
v 0.09354872 -0.04402799 0.15252839
v 0.09413279 -0.04471898 0.15295999
v 0.09427186 -0.04596275 0.15383515
v 0.03999467 -0.06387079 0.16656710
v 0.07875217 -0.04060761 0.15118567
v 0.08495448 -0.04283028 0.15231259
v 0.00506147 -0.06337558 0.16392960
v 0.01519933 -0.06387079 0.16594370
v 0.00435224 -0.06332952 0.16377375
v -0.03980099 -0.04429287 0.14465185
v 0.00278080 -0.06370956 0.16366584
v -0.03980099 -0.04506447 0.14503548
v -0.00189179 0.02875581 0.08883270
v 0.00120936 0.02759265 0.09093071
v -0.03980099 0.01974997 0.09389191
v -0.03980099 0.01742365 0.09703294
v -0.01087541 0.03201496 0.08283837
v 0.00275299 0.02707442 0.09179390
v 0.00431052 0.02712048 0.09182985
v 0.00431052 0.02770782 0.09106258
v 0.00585414 0.02714351 0.09186582
v 0.01827267 0.03059844 0.08766980
v 0.01981630 0.03001110 0.08847304
v 0.02293136 0.03140459 0.08671070
v 0.02447498 0.03059844 0.08764582
v 0.02603251 0.02915889 0.08934821
v 0.03252686 0.02414924 0.09512674
v 0.03489097 0.02267514 0.09676918
v 0.03000978 0.02953893 0.08825724
v 0.03633725 0.03042569 0.08589547
v 0.03999467 0.03150824 0.08366559
v 0.03843714 0.03027598 0.08570365
v 0.03689351 0.02714351 0.09029531
v 0.03768619 0.02573851 0.09205764
v 0.10226811 0.01045621 0.09392788
v 0.10226811 0.01363475 0.08940815
v 0.10169794 0.01503975 0.08764582
v 0.08279896 0.02578457 0.07817479
v 0.07679135 0.02892856 0.07516563
v 0.07256376 0.03026447 0.07466211
v 0.06936526 0.03101303 0.07466211
v 0.03593396 0.02260604 0.09667327
v 0.10226811 0.01529311 0.08686656
v 0.10226811 0.01658295 0.08457672
v 0.05241320 0.00616059 0.11284596
v 0.03532208 0.02127014 0.09848356
v 0.03999467 0.01658295 0.10307522
v 0.05006300 0.00712797 0.11219857
v 0.05114770 0.00551567 0.11370914
v 0.08030970 -0.02740979 0.14123509
v 0.06709850 -0.01766689 0.13391002
v 0.07513647 -0.02381666 0.13860957
v 0.05241320 0.00542354 0.11360125
v 0.05241320 0.00309722 0.11590307
v 0.05811488 -0.00831556 0.12620132
v 0.08030970 -0.02818139 0.14194242
v 0.09271432 -0.04397041 0.15257636
v 0.08030970 -0.02918332 0.14272168
v 0.09117070 -0.04386676 0.15264828
v 0.03843714 -0.06387079 0.16660307
v 0.07875217 -0.03982450 0.15067015
v 0.07254985 -0.03772851 0.14948328
v 0.00506147 -0.06184390 0.16300647
v 0.01675686 -0.06387079 0.16614750
v 0.01675686 -0.06343317 0.16589574
v 0.01519933 -0.06343317 0.16567995
v -0.03980099 -0.04326791 0.14401645
v 0.00985922 -0.06111836 0.16337813
v -0.03980099 0.01665205 0.09806396
v -0.03980099 0.01646779 0.09830373
v 0.00120936 0.02699380 0.09169798
v 0.00275299 0.02631433 0.09264509
v 0.00529788 0.02572699 0.09359219
v 0.00632696 0.02575003 0.09362816
v 0.00741167 0.02577306 0.09364015
v 0.01361399 0.02383830 0.09626566
v 0.01361399 0.02444867 0.09548639
v 0.01517152 0.02382678 0.09627765
v 0.01981630 0.02784602 0.09119446
v 0.02293136 0.03062147 0.08768179
v 0.02293136 0.02921647 0.08942014
v 0.02916148 0.02627978 0.09271701
v 0.03070511 0.02420683 0.09518668
v 0.03379236 0.02272121 0.09681714
v 0.10226811 0.01446393 0.08818531
v 0.03379236 0.02209932 0.09758441
v 0.03379236 0.02131620 0.09851953
v 0.03379236 0.02060218 0.09931077
v 0.03532208 0.02055612 0.09925083
v 0.03379236 0.01757336 0.10247578
v 0.05013253 0.00557325 0.11374511
v 0.03843714 0.01208003 0.10785868
v 0.03070511 0.01233339 0.10811045
v 0.03291625 0.00844084 0.11197079
v 0.02294527 0.00799170 0.11307375
v 0.02448889 0.00717403 0.11380506
v 0.03291625 0.00535444 0.11508784
v 0.04999346 0.00401853 0.11530364
v 0.06017304 -0.01317549 0.13063712
v 0.07876607 -0.02732917 0.14134299
v 0.06605550 -0.01757476 0.13396996
v 0.05551436 -0.01291061 0.13088888
v 0.07876607 -0.02810077 0.14200236
v 0.07876607 -0.02910270 0.14276963
v 0.07848794 -0.03007008 0.14352492
v 0.07875217 -0.03085320 0.14408838
v 0.08030970 -0.02995492 0.14329714
v 0.03379236 -0.06387079 0.16660307
v 0.06634754 -0.03489547 0.14778089
v 0.07719463 -0.03868437 0.14993885
v 0.07100623 -0.03580526 0.14822447
v 0.07410739 -0.03777457 0.14945930
v 0.06790508 -0.03491850 0.14774492
v 0.01814751 -0.06387079 0.16625541
v 0.01835611 -0.06357136 0.16608757
v 0.01675686 -0.06231607 0.16518842
v 0.01519933 -0.06244275 0.16508051
v -0.03980099 -0.04150589 0.14286554
v -0.03980099 0.01543131 0.09945464
v 0.01205645 0.02303215 0.09714083
v 0.01361399 0.02306670 0.09721276
v -0.03980099 0.01202245 0.10317112
v 0.01517152 0.02305518 0.09721276
v 0.01827267 0.02300912 0.09715281
v 0.01827267 0.02583064 0.09372407
v 0.03000978 0.02280182 0.09691305
v 0.03220701 0.02276727 0.09685310
v 0.03220701 0.02211084 0.09764435
v 0.02138773 0.02229510 0.09787213
v 0.01517152 0.02239875 0.09799202
v 0.03000978 0.01732000 0.10295533
v 0.03000978 0.01655992 0.10375857
v 0.02916148 0.01467123 0.10578464
v 0.01672905 0.02160411 0.09880725
v 0.02916148 0.02068280 0.09938271
v 0.02603251 0.01169999 0.10905755
v 0.02294527 0.00875178 0.11229448
v 0.02294527 0.00563083 0.11536357
v 0.02536500 0.00404157 0.11686216
v 0.02138773 0.00877482 0.11230647
v 0.02138773 0.00720858 0.11382903
v 0.03290234 -0.00008131 0.12049472
v 0.05709970 -0.01235782 0.13020553
v 0.03999467 -0.00575891 0.12567382
v 0.04155220 -0.00738273 0.12714842
v 0.03999467 -0.00966298 0.12947422
v 0.07100623 -0.03140599 0.14496356
v 0.07720854 -0.02981672 0.14340503
v 0.04155220 -0.01142499 0.13084093
v 0.04698965 -0.01765538 0.13545655
v 0.06790508 -0.03307587 0.14640219
v 0.03241561 -0.06387079 0.16659109
v 0.06323248 -0.03294919 0.14649811
v 0.06634754 -0.03396264 0.14713350
v 0.01984411 -0.06387079 0.16631534
v 0.01984411 -0.06338710 0.16601563
v 0.01831439 -0.06227000 0.16522437
v 0.02603251 -0.01141348 0.13084093
v 0.02517031 -0.01143651 0.13081694
v 0.02448889 -0.00962843 0.12949819
v 0.02166587 -0.00983573 0.12931837
v 0.02063678 -0.00991634 0.12924643
v -0.01582614 -0.01361311 0.12726831
v -0.01689694 -0.01448836 0.12773586
v -0.03980099 -0.03486091 0.13848969
v -0.03980099 -0.03563252 0.13900520
v 0.01205645 0.02228358 0.09792009
v 0.01361399 0.02237571 0.09798004
v -0.03980099 0.01050228 0.10470567
v 0.01361399 0.02160411 0.09878328
v 0.01517152 0.02161563 0.09883123
v 0.02448889 0.01175757 0.10908153
v 0.01920441 0.01333532 0.10755897
v 0.02294527 0.00953490 0.11147926
v 0.02603251 -0.00881076 0.12883882
v 0.02243072 0.00403005 0.11685017
v 0.03530817 -0.00797006 0.12807155
v 0.03689351 -0.00720998 0.12731626
v 0.02138773 0.01029498 0.11072397
v 0.01900972 0.01333532 0.10755897
v 0.02016396 0.00874027 0.11225851
v 0.02177712 0.00560780 0.11533960
v 0.02028912 0.00715100 0.11378108
v 0.03843714 -0.00803916 0.12802359
v 0.03843714 -0.00883380 0.12880285
v 0.03999467 -0.00889138 0.12874292
v 0.03843714 -0.00960540 0.12952218
v 0.06634754 -0.03302980 0.14645015
v 0.03999467 -0.01140196 0.13086490
v 0.03689351 -0.00958236 0.12953416
v 0.02759005 -0.01061884 0.13030144
v 0.04697575 -0.01765538 0.13545655
v 0.06480392 -0.03298374 0.14647412
v 0.02604642 -0.06387079 0.16645920
v 0.06170276 -0.03296071 0.14647412
v 0.02603251 -0.01064188 0.13030144
v 0.02603251 -0.00958236 0.12953416
v 0.02448889 -0.00885683 0.12881484
v 0.02294527 -0.00894896 0.12874292
v -0.03980099 0.00158857 0.11279801
v -0.03980099 0.00069029 0.11356528
v -0.03980099 -0.00008131 0.11414074
v -0.03980099 -0.00193546 0.11547148
v -0.03980099 -0.00646141 0.11864846
v -0.03980099 0.00932760 0.10579664
v 0.01898190 0.01178060 0.10911750
v 0.01517152 0.02087858 0.09959850
v 0.03291625 -0.00923687 0.12924643
v 0.02138773 0.00397247 0.11680221
v 0.02294527 -0.00406600 0.12429512
v 0.03530817 -0.00881076 0.12885081
v 0.03689351 -0.00881076 0.12882684
v 0.03689351 -0.00799310 0.12805956
v -0.03980099 0.00727768 0.10769084
v 0.02294527 -0.00808523 0.12796365
v -0.03980099 0.00202619 0.11241437
f 1 2 5
f 1 5 32
f 1 32 46
f 1 46 26
f 1 26 3
f 1 3 4
f 1 4 6
f 1 6 2
f 2 6 7
f 2 7 8
f 2 8 9
f 2 9 10
f 2 10 11
f 2 11 12
f 2 12 13
f 2 13 14
f 2 14 15
f 2 15 16
f 2 16 17
f 2 17 18
f 2 18 19
f 2 19 20
f 2 20 21
f 2 21 22
f 2 22 23
f 2 23 24
f 2 24 25
f 2 25 5
f 3 26 49
f 3 49 27
f 3 27 28
f 3 28 29
f 3 29 30
f 3 30 4
f 4 30 54
f 4 54 82
f 4 82 132
f 4 132 138
f 4 138 137
f 4 137 136
f 4 136 199
f 4 199 197
f 4 197 254
f 4 254 305
f 4 305 353
f 4 353 352
f 4 352 391
f 4 391 390
f 4 390 389
f 4 389 388
f 4 388 387
f 4 387 403
f 4 403 401
f 4 401 392
f 4 392 356
f 4 356 309
f 4 309 306
f 4 306 257
f 4 257 256
f 4 256 203
f 4 203 202
f 4 202 151
f 4 151 150
f 4 150 149
f 4 149 94
f 4 94 93
f 4 93 88
f 4 88 87
f 4 87 86
f 4 86 85
f 4 85 60
f 4 60 33
f 4 33 6
f 5 31 32
f 5 25 31
f 6 33 34
f 6 34 35
f 6 35 7
f 7 35 8
f 8 35 36
f 8 36 37
f 8 37 9
f 9 37 10
f 10 37 11
f 11 37 38
f 11 38 12
f 12 38 13
f 13 38 14
f 14 38 15
f 15 38 16
f 16 38 39
f 16 39 17
f 17 39 18
f 18 39 40
f 18 40 19
f 19 41 20
f 19 40 41
f 20 41 21
f 21 41 22
f 22 41 23
f 23 41 24
f 24 41 42
f 24 42 25
f 25 42 43
f 25 43 44
f 25 44 45
f 25 45 31
f 26 46 47
f 26 47 48
f 26 48 49
f 27 49 74
f 27 74 110
f 27 110 169
f 27 169 231
f 27 231 230
f 27 230 272
f 27 272 223
f 27 223 222
f 27 222 172
f 27 172 113
f 27 113 79
f 27 79 51
f 27 51 50
f 27 50 28
f 28 50 29
f 29 50 51
f 29 51 52
f 29 52 80
f 29 80 129
f 29 129 191
f 29 191 247
f 29 247 295
f 29 295 339
f 29 339 381
f 29 381 342
f 29 342 301
f 29 301 251
f 29 251 195
f 29 195 133
f 29 133 83
f 29 83 58
f 29 58 57
f 29 57 56
f 29 56 55
f 29 55 53
f 29 53 30
f 30 53 55
f 30 55 56
f 30 56 57
f 30 57 58
f 30 58 83
f 30 83 54
f 31 45 59
f 31 59 32
f 32 59 46
f 33 60 34
f 34 61 37
f 34 37 36
f 34 36 35
f 34 60 61
f 37 61 62
f 37 62 38
f 38 63 64
f 38 64 65
f 38 65 40
f 38 40 39
f 38 62 63
f 40 65 66
f 40 66 41
f 41 66 67
f 41 67 42
f 42 67 43
f 43 68 69
f 43 69 59
f 43 59 44
f 43 67 65
f 43 65 68
f 44 59 45
f 46 59 69
f 46 69 70
f 46 70 47
f 47 70 71
f 47 71 72
f 47 72 48
f 48 73 74
f 48 74 49
f 48 72 75
f 48 75 76
f 48 76 77
f 48 77 78
f 48 78 73
f 51 79 52
f 52 79 81
f 52 81 80
f 54 83 84
f 54 84 82
f 60 85 61
f 61 85 86
f 61 86 62
f 62 86 87
f 62 87 88
f 62 88 89
f 62 89 63
f 63 90 91
f 63 91 64
f 63 89 92
f 63 92 93
f 63 93 94
f 63 94 95
f 63 95 90
f 64 91 96
f 64 96 97
f 64 97 98
f 64 98 99
f 64 99 100
f 64 100 69
f 64 69 68
f 64 68 65
f 65 67 66
f 69 100 101
f 69 101 102
f 69 102 103
f 69 103 104
f 69 104 105
f 69 105 76
f 69 76 106
f 69 106 70
f 70 106 71
f 71 106 72
f 72 106 75
f 73 107 108
f 73 108 109
f 73 109 74
f 73 78 107
f 74 109 110
f 75 106 76
f 76 105 111
f 76 111 112
f 76 112 77
f 77 112 78
f 78 112 107
f 79 113 114
f 79 114 115
f 79 115 116
f 79 116 117
f 79 117 118
f 79 118 119
f 79 119 120
f 79 120 121
f 79 121 122
f 79 122 123
f 79 123 124
f 79 124 125
f 79 125 126
f 79 126 127
f 79 127 128
f 79 128 81
f 80 81 129
f 81 128 130
f 81 130 131
f 81 131 129
f 82 84 132
f 83 133 134
f 83 134 135
f 83 135 84
f 84 135 136
f 84 136 137
f 84 137 138
f 84 138 132
f 88 93 89
f 89 93 92
f 90 139 91
f 90 95 140
f 90 140 139
f 91 139 141
f 91 141 142
f 91 142 143
f 91 143 144
f 91 144 145
f 91 145 146
f 91 146 147
f 91 147 148
f 91 148 96
f 94 149 95
f 95 149 150
f 95 150 151
f 95 151 140
f 96 148 152
f 96 152 153
f 96 153 154
f 96 154 97
f 97 155 156
f 97 156 157
f 97 157 158
f 97 158 98
f 97 154 155
f 98 158 157
f 98 157 159
f 98 159 99
f 99 159 100
f 100 159 101
f 101 159 102
f 102 160 161
f 102 161 103
f 102 159 157
f 102 157 160
f 103 161 162
f 103 162 163
f 103 163 104
f 104 163 111
f 104 111 105
f 107 164 108
f 107 112 111
f 107 111 164
f 108 164 165
f 108 165 166
f 108 166 109
f 109 166 167
f 109 167 168
f 109 168 169
f 109 169 110
f 111 170 171
f 111 171 164
f 111 163 170
f 113 172 154
f 113 154 114
f 114 173 115
f 114 154 174
f 114 174 175
f 114 175 176
f 114 176 177
f 114 177 178
f 114 178 179
f 114 179 173
f 115 173 116
f 116 180 181
f 116 181 117
f 116 173 182
f 116 182 183
f 116 183 180
f 117 181 118
f 118 181 119
f 119 181 120
f 120 181 184
f 120 184 185
f 120 185 121
f 121 185 186
f 121 186 122
f 122 186 185
f 122 185 187
f 122 187 123
f 123 187 124
f 124 187 188
f 124 188 126
f 124 126 125
f 126 188 189
f 126 189 190
f 126 190 127
f 127 190 128
f 128 190 130
f 129 131 192
f 129 192 191
f 130 190 131
f 131 190 193
f 131 193 192
f 133 194 134
f 133 195 194
f 134 196 197
f 134 197 198
f 134 198 135
f 134 194 196
f 135 198 199
f 135 199 136
f 139 140 200
f 139 200 201
f 139 201 141
f 140 151 202
f 140 202 203
f 140 203 204
f 140 204 200
f 141 201 205
f 141 205 206
f 141 206 207
f 141 207 142
f 142 208 209
f 142 209 143
f 142 207 208
f 143 209 210
f 143 210 211
f 143 211 144
f 144 211 212
f 144 212 213
f 144 213 214
f 144 214 215
f 144 215 145
f 145 215 216
f 145 216 217
f 145 217 218
f 145 218 146
f 146 218 148
f 146 148 147
f 148 218 152
f 152 218 219
f 152 219 153
f 153 219 220
f 153 220 221
f 153 221 154
f 154 172 222
f 154 222 223
f 154 223 224
f 154 224 165
f 154 165 171
f 154 171 170
f 154 170 225
f 154 225 226
f 154 226 227
f 154 227 228
f 154 228 155
f 154 221 229
f 154 229 174
f 155 228 160
f 155 160 156
f 156 160 157
f 160 228 227
f 160 227 162
f 160 162 161
f 162 227 226
f 162 226 163
f 163 226 170
f 164 171 165
f 165 224 167
f 165 167 166
f 167 224 230
f 167 230 231
f 167 231 168
f 168 231 169
f 170 226 225
f 173 179 232
f 173 232 182
f 174 229 215
f 174 215 233
f 174 233 175
f 175 233 177
f 175 177 176
f 177 233 234
f 177 234 178
f 178 235 179
f 178 234 235
f 179 235 236
f 179 236 232
f 180 187 181
f 180 183 237
f 180 237 187
f 181 187 184
f 182 238 239
f 182 239 183
f 182 232 240
f 182 240 241
f 182 241 242
f 182 242 238
f 183 239 237
f 184 187 185
f 187 237 243
f 187 243 188
f 188 244 190
f 188 190 189
f 188 243 245
f 188 245 244
f 190 244 246
f 190 246 193
f 191 192 247
f 192 193 248
f 192 248 249
f 192 249 247
f 193 246 248
f 194 195 253
f 194 253 250
f 194 250 197
f 194 197 196
f 195 251 252
f 195 252 253
f 197 199 198
f 197 250 255
f 197 255 254
f 200 204 256
f 200 256 201
f 201 256 257
f 201 257 258
f 201 258 205
f 203 256 204
f 205 259 260
f 205 260 261
f 205 261 206
f 205 258 259
f 206 261 208
f 206 208 207
f 208 261 262
f 208 262 263
f 208 263 264
f 208 264 210
f 208 210 209
f 210 264 263
f 210 263 265
f 210 265 211
f 211 265 266
f 211 266 267
f 211 267 212
f 212 267 268
f 212 268 213
f 213 269 214
f 213 268 270
f 213 270 269
f 214 271 215
f 214 269 271
f 215 229 220
f 215 220 216
f 215 271 233
f 216 220 217
f 217 220 219
f 217 219 218
f 220 229 221
f 223 272 224
f 224 272 230
f 232 236 240
f 233 271 273
f 233 273 274
f 233 274 275
f 233 275 276
f 233 276 234
f 234 276 275
f 234 275 277
f 234 277 235
f 235 278 236
f 235 277 279
f 235 279 280
f 235 280 281
f 235 281 282
f 235 282 283
f 235 283 284
f 235 284 278
f 236 278 285
f 236 285 241
f 236 241 240
f 237 239 243
f 238 242 286
f 238 286 239
f 239 287 243
f 239 286 288
f 239 288 289
f 239 289 287
f 241 286 242
f 241 285 286
f 243 287 290
f 243 290 245
f 244 245 246
f 245 290 291
f 245 291 292
f 245 292 293
f 245 293 294
f 245 294 246
f 246 294 293
f 246 293 248
f 247 249 296
f 247 296 295
f 248 293 297
f 248 297 298
f 248 298 299
f 248 299 249
f 249 299 300
f 249 300 296
f 250 253 255
f 251 301 252
f 252 301 302
f 252 302 303
f 252 303 304
f 252 304 253
f 253 304 255
f 254 255 304
f 254 304 305
f 257 306 259
f 257 259 258
f 259 306 260
f 260 307 308
f 260 308 261
f 260 306 309
f 260 309 307
f 261 308 263
f 261 263 262
f 263 308 265
f 265 308 310
f 265 310 311
f 265 311 312
f 265 312 266
f 266 312 268
f 266 268 267
f 268 312 311
f 268 311 270
f 269 270 271
f 270 313 314
f 270 314 273
f 270 273 271
f 270 311 313
f 273 314 315
f 273 315 274
f 274 315 316
f 274 316 317
f 274 317 275
f 275 318 319
f 275 319 320
f 275 320 277
f 275 317 321
f 275 321 322
f 275 322 318
f 277 280 279
f 277 320 280
f 278 284 285
f 280 320 323
f 280 323 324
f 280 324 281
f 281 324 282
f 282 325 326
f 282 326 283
f 282 324 327
f 282 327 328
f 282 328 325
f 283 326 329
f 283 329 284
f 284 329 285
f 285 330 286
f 285 329 331
f 285 331 332
f 285 332 330
f 286 330 289
f 286 289 288
f 287 289 333
f 287 333 290
f 289 330 333
f 290 334 335
f 290 335 291
f 290 333 336
f 290 336 337
f 290 337 334
f 291 335 292
f 292 335 334
f 292 334 338
f 292 338 293
f 293 338 298
f 293 298 297
f 295 296 340
f 295 340 339
f 296 300 341
f 296 341 340
f 298 338 341
f 298 341 300
f 298 300 299
f 301 342 302
f 302 342 343
f 302 343 344
f 302 344 303
f 303 344 345
f 303 345 346
f 303 346 347
f 303 347 348
f 303 348 349
f 303 349 350
f 303 350 304
f 304 350 351
f 304 351 352
f 304 352 353
f 304 353 305
f 307 309 354
f 307 354 357
f 307 357 355
f 307 355 308
f 308 355 317
f 308 317 310
f 309 356 357
f 309 357 354
f 310 317 311
f 311 317 316
f 311 316 315
f 311 315 313
f 313 315 314
f 317 355 358
f 317 358 321
f 318 322 321
f 318 321 359
f 318 359 319
f 319 359 320
f 320 359 323
f 321 358 360
f 321 360 359
f 323 359 361
f 323 361 324
f 324 361 366
f 324 366 327
f 325 362 326
f 325 328 363
f 325 363 362
f 326 362 364
f 326 364 365
f 326 365 329
f 327 366 360
f 327 360 367
f 327 367 368
f 327 368 328
f 328 369 363
f 328 368 370
f 328 370 369
f 329 365 331
f 330 332 333
f 331 365 371
f 331 371 372
f 331 372 373
f 331 373 332
f 332 373 333
f 333 373 372
f 333 372 374
f 333 374 336
f 334 375 338
f 334 337 375
f 336 374 376
f 336 376 337
f 337 376 377
f 337 377 378
f 337 378 379
f 337 379 340
f 337 340 380
f 337 380 375
f 338 375 341
f 339 340 343
f 339 343 381
f 340 382 343
f 340 341 380
f 340 379 378
f 340 378 383
f 340 383 345
f 340 345 382
f 341 375 380
f 342 381 343
f 343 382 344
f 344 382 345
f 345 383 346
f 346 383 347
f 347 383 384
f 347 384 385
f 347 385 386
f 347 386 387
f 347 387 388
f 347 388 348
f 348 388 349
f 349 388 389
f 349 389 350
f 350 389 390
f 350 390 351
f 351 390 391
f 351 391 352
f 355 357 394
f 355 394 358
f 356 392 370
f 356 370 368
f 356 368 393
f 356 393 357
f 357 393 367
f 357 367 394
f 358 394 367
f 358 367 360
f 359 360 366
f 359 366 361
f 362 363 385
f 362 385 384
f 362 384 395
f 362 395 364
f 363 369 370
f 363 370 396
f 363 396 397
f 363 397 385
f 364 395 398
f 364 398 399
f 364 399 400
f 364 400 365
f 365 400 372
f 365 372 371
f 367 393 368
f 370 392 401
f 370 401 396
f 372 400 399
f 372 399 374
f 374 399 377
f 374 377 376
f 377 399 398
f 377 398 395
f 377 395 384
f 377 384 378
f 378 384 383
f 385 397 402
f 385 402 386
f 386 402 401
f 386 401 403
f 386 403 387
f 396 401 397
f 397 401 402

