# https://github.com/mikedh/trimesh
v -0.28373464 0.01234883 -0.01837475
v -0.26351472 0.08044857 -0.00130658
v -0.28373464 0.01237063 -0.01837475
v -0.27080489 -0.06342412 -0.06432326
v -0.27080489 -0.06486284 -0.06427881
v -0.27080489 -0.07894493 -0.06381210
v -0.27080489 -0.10728349 -0.06258977
v -0.27080489 -0.10732709 -0.06194527
v -0.27080489 -0.10732709 -0.04308805
v -0.25071108 0.08044857 -0.00130658
v -0.25780638 0.09477044 -0.00130658
v -0.25773761 0.09477044 -0.00183996
v -0.26033960 0.08823077 -0.00183996
v -0.26168071 0.08463395 -0.00244001
v -0.26343448 0.08044857 -0.00183996
v -0.28202673 0.02056701 -0.01837475
v -0.28259985 0.01875770 -0.01837475
v -0.28306981 0.01723178 -0.01837475
v -0.28326466 0.01601104 -0.01837475
v -0.28336783 0.01535707 -0.01837475
v -0.27080489 -0.04520024 -0.06184526
v -0.27080489 -0.04637739 -0.06213417
v -0.27080489 -0.06187640 -0.06417880
v -0.26782465 -0.06499364 -0.06764577
v -0.26641474 -0.06699914 -0.06933481
v -0.26502778 -0.06963680 -0.07105718
v -0.26298744 -0.07430176 -0.07361297
v -0.26362934 -0.07430176 -0.07283512
v -0.26954402 -0.10686931 -0.06471218
v -0.27078198 -0.10732709 -0.06264533
v -0.23358604 -0.10732709 -0.08689192
v -0.19253869 -0.06848146 -0.10611583
v -0.16912075 0.06446998 -0.03486510
v -0.24988577 0.08236687 -0.00130658
v -0.25706131 0.09657974 -0.00130658
v -0.25692377 0.09677594 -0.00183996
v -0.25714155 0.09575139 -0.00292895
v -0.25857437 0.09239436 -0.00248446
v -0.26023643 0.08799098 -0.00289561
v -0.26317085 0.08044857 -0.00307340
v -0.27402587 0.04258389 -0.01837475
v -0.27432390 0.04177733 -0.01837475
v -0.28231329 0.01877950 -0.01896369
v -0.27430097 0.04173374 -0.01845254
v -0.27258159 0.03970644 -0.02279737
v -0.27104561 0.03665459 -0.02747556
v -0.26960133 0.03543385 -0.03078696
v -0.26930330 0.03462730 -0.03182039
v -0.26948669 0.03360275 -0.03213152
v -0.28184332 0.01627263 -0.02118611
v -0.28311565 0.01572766 -0.01878590
v -0.28280617 0.01723178 -0.01890814
v -0.27080489 -0.01997893 -0.05465574
v -0.26960133 -0.04352173 -0.06325650
v -0.26972741 -0.04480787 -0.06336762
v -0.26900527 -0.04480787 -0.06413435
v -0.26290720 -0.07273225 -0.07355741
v -0.26213922 -0.07273225 -0.07432414
v -0.26220799 -0.07430176 -0.07437970
v -0.25450516 -0.08825306 -0.08221373
v -0.25528461 -0.08825306 -0.08140255
v -0.25523877 -0.08980078 -0.08140255
v -0.25536487 -0.10732709 -0.08000242
v -0.26952109 -0.10732709 -0.06470107
v -0.27002544 -0.10732709 -0.06388988
v -0.23358604 -0.10732709 -0.09929301
v -0.19253869 -0.06848146 -0.11482771
v -0.16663337 0.10054714 -0.03204263
v -0.16943024 0.08860135 -0.03204263
v -0.24282484 0.10054714 -0.00130658
v -0.24911778 0.08419798 -0.00130658
v -0.25648819 0.09786588 -0.00130658
v -0.25622456 0.09845445 -0.00130658
v -0.25643088 0.09786588 -0.00183996
v -0.25614432 0.09786588 -0.00338454
v -0.25679768 0.09629636 -0.00341788
v -0.26009888 0.08764220 -0.00394015
v -0.25561704 0.09736451 -0.00610701
v -0.25418422 0.09631816 -0.01262980
v -0.25224704 0.09668874 -0.01890814
v -0.25241899 0.09557699 -0.01970821
v -0.27114878 0.04775023 -0.01990822
v -0.27085075 0.04703087 -0.02095276
v -0.27094244 0.04419701 -0.02267514
v -0.28036464 0.01500829 -0.02440862
v -0.27047248 0.03726496 -0.02808673
v -0.26940647 0.03648020 -0.03045360
v -0.25083716 0.08156031 -0.03205374
v -0.26869580 0.03427851 -0.03286492
v -0.26930330 0.00356387 -0.04737732
v -0.26948669 0.03050730 -0.03367611
v -0.27080489 0.00663752 -0.04369921
v -0.27435828 0.01234883 -0.03555405
v -0.27527529 0.01234883 -0.03417615
v -0.27731561 0.01234883 -0.03095365
v -0.27888599 0.01365676 -0.02763113
v -0.27900060 0.01256682 -0.02788671
v -0.27080489 -0.00249622 -0.04783291
v -0.26958986 0.00173277 -0.04774401
v -0.26897090 0.00173277 -0.04852186
v -0.26820289 0.00173277 -0.04945528
v -0.27063296 -0.01997893 -0.05485575
v -0.27857649 0.01256682 -0.02866455
v -0.27747609 0.01234883 -0.03067584
v -0.26900527 -0.04308575 -0.06380099
v -0.26812265 -0.04323835 -0.06477885
v -0.26822583 -0.04480787 -0.06491220
v -0.26031667 -0.06963680 -0.07563537
v -0.24676796 -0.07894493 -0.08839205
v -0.24936995 -0.08238916 -0.08638076
v -0.25362256 -0.08670534 -0.08293602
v -0.25362256 -0.08825306 -0.08299157
v -0.23891611 -0.10732709 -0.09607051
v -0.23969558 -0.10732709 -0.09534822
v -0.24105962 -0.10732709 -0.09405922
v -0.23426234 -0.10732709 -0.09898187
v -0.23358604 -0.10686931 -0.09927079
v -0.20625935 -0.06848146 -0.10933835
v -0.19463635 -0.06848146 -0.11410543
v -0.19387982 -0.06848146 -0.11440545
v -0.19271064 -0.06848146 -0.11478327
v -0.19253869 -0.06806728 -0.11474993
v -0.19189679 -0.04339094 -0.10871607
v -0.16688554 0.10054714 -0.03238710
v -0.22988364 0.11537039 -0.03722087
v -0.22988364 0.11537039 -0.01841921
v -0.23409039 0.11537039 -0.00320675
v -0.23410186 0.11532680 -0.00316230
v -0.23837738 0.11537039 -0.00316230
v -0.25520439 0.10054714 -0.00130658
v -0.25544509 0.10006757 -0.00130658
v -0.25578898 0.09921741 -0.00183996
v -0.25563997 0.09891222 -0.00338454
v -0.24642408 0.11537039 -0.00937396
v -0.25553680 0.09871603 -0.00428462
v -0.25574312 0.09786588 -0.00486245
v -0.25252216 0.09736451 -0.01697463
v -0.25171978 0.09786588 -0.01890814
v -0.25094031 0.09884683 -0.01984155
v -0.25214389 0.09477044 -0.02077497
v -0.25116956 0.09786588 -0.02018603
v -0.26952109 0.04757584 -0.02286404
v -0.26961279 0.04940694 -0.02148614
v -0.24931264 0.08160391 -0.03364277
v -0.25104348 0.08051397 -0.03232043
v -0.26808828 0.03392973 -0.03385390
v -0.25094031 0.08334782 -0.03065362
v -0.24909485 0.10052535 -0.02154170
v -0.24774228 0.10172428 -0.02277514
v -0.23586709 0.11537039 -0.03130923
v -0.23555760 0.11537039 -0.03175371
v -0.23492717 0.11537039 -0.03257601
v -0.23470938 0.11537039 -0.03283159
v -0.23409039 0.11537039 -0.03352054
v -0.26803097 0.00280091 -0.04924415
v -0.27080489 -0.00138447 -0.04733287
v -0.26965864 -0.01877999 -0.05551137
v -0.26986496 -0.01997893 -0.05570028
v -0.26798511 -0.04230099 -0.06466773
v -0.25537632 -0.02431691 -0.07071271
v -0.25552533 -0.02534145 -0.07083494
v -0.25559410 -0.05926053 -0.07865786
v -0.25568581 -0.06032867 -0.07873564
v -0.24587387 -0.07894493 -0.08916990
v -0.25284310 -0.08670534 -0.08360273
v -0.23802205 -0.10732709 -0.09684836
v -0.23584416 -0.10732709 -0.09818181
v -0.23603902 -0.07737541 -0.09601495
v -0.23394138 -0.08049265 -0.09727062
v -0.23358604 -0.08273794 -0.09759286
v -0.20645421 -0.06848146 -0.10924944
v -0.22371679 -0.04169062 -0.09469261
v -0.19253869 -0.04635559 -0.10983839
v -0.19253869 -0.06641057 -0.11440545
v -0.19271064 -0.06806728 -0.11470548
v -0.20658031 0.10054714 -0.05046648
v -0.20509017 0.10054714 -0.05054426
v -0.20199529 0.10054714 -0.05024424
v -0.19386835 0.10054714 -0.04925526
v -0.19271064 0.10054714 -0.04909969
v -0.19238970 0.10054714 -0.04901079
v -0.18499636 0.10054714 -0.04691061
v -0.18452639 0.10054714 -0.04672170
v -0.18368963 0.10054714 -0.04629944
v -0.18295603 0.10054714 -0.04579940
v -0.18202756 0.10054714 -0.04506600
v -0.16909781 0.10054714 -0.03445395
v -0.16839861 0.10054714 -0.03386501
v -0.16815789 0.10054714 -0.03365388
v -0.16760769 0.10054714 -0.03315384
v -0.16728673 0.10054714 -0.03282048
v -0.23390700 0.11537039 -0.03370944
v -0.20819652 0.10054714 -0.05017756
v -0.21750410 0.10054714 -0.04832184
v -0.21905155 0.10054714 -0.04799959
v -0.22027804 0.10054714 -0.04769957
v -0.22105749 0.10054714 -0.04744399
v -0.22839352 0.10763178 -0.04124344
v -0.22988364 0.11035665 -0.03916548
v -0.25246485 0.00105700 -0.06465662
v -0.24752449 0.11537039 -0.00316230
v -0.24668772 0.11537039 -0.00804051
v -0.24627507 0.11537039 -0.00992957
v -0.25374865 0.10054714 -0.00764047
v -0.24604582 0.11537039 -0.01076297
v -0.24947312 0.10678162 -0.01269647
v -0.25000040 0.10562629 -0.01269647
v -0.25096324 0.10054714 -0.01735244
v -0.25004625 0.10253084 -0.01735244
v -0.25068814 0.09987138 -0.01920816
v -0.24916363 0.10305402 -0.01931928
v -0.24941581 0.10200767 -0.01988600
v -0.24947312 0.10054714 -0.02094165
v -0.25135298 0.09477044 -0.02205286
v -0.25067668 0.09786588 -0.02095276
v -0.25714155 0.00576556 -0.05846718
v -0.26624280 0.00378186 -0.05056649
v -0.25042451 0.08044857 -0.03299827
v -0.24259560 0.11537039 -0.02048605
v -0.26170364 -0.00836012 -0.05995620
v -0.26190996 -0.00938467 -0.06015622
v -0.26326254 -0.00836012 -0.05840051
v -0.26793926 -0.01760285 -0.05688927
v -0.25518146 -0.02307437 -0.07054603
v -0.26215068 -0.01067080 -0.06040069
v -0.26132537 -0.01067080 -0.06117853
v -0.26029374 -0.01413682 -0.06317871
v -0.25703838 -0.01923777 -0.06770133
v -0.25440201 -0.02307437 -0.07116831
v -0.25339331 -0.02307437 -0.07194615
v -0.25483759 -0.05875915 -0.07911345
v -0.25370278 -0.05878095 -0.07996909
v -0.23767817 -0.07584949 -0.09485928
v -0.24135764 -0.07739721 -0.09240351
v -0.24500272 -0.07739721 -0.08969217
v -0.24577072 -0.07737541 -0.08908100
v -0.24511735 -0.07894493 -0.08979218
v -0.23779279 -0.10732709 -0.09702614
v -0.23689871 -0.10732709 -0.09761508
v -0.23672678 -0.07584949 -0.09554824
v -0.23594732 -0.07584949 -0.09594827
v -0.23570661 -0.07430176 -0.09582604
v -0.22471403 -0.04169062 -0.09420367
v -0.22453064 -0.04081867 -0.09410366
v -0.22422114 -0.03979412 -0.09398144
v -0.23715089 -0.01121577 -0.08022466
v -0.25384033 0.00223414 -0.06296758
v -0.25568581 0.00467562 -0.06027846
v -0.23819397 -0.01224032 -0.07999131
v -0.24025724 -0.01263270 -0.07874675
v -0.24627507 -0.01598973 -0.07552424
v -0.25264824 0.00018505 -0.06482330
v -0.25554826 -0.00203844 -0.06311204
v -0.25429884 0.00018505 -0.06336762
v -0.24593120 0.11537039 -0.01115190
v -0.24918656 0.10614946 -0.01464109
v -0.24637824 0.11140299 -0.01579675
v -0.24405134 0.11537039 -0.01733022
v -0.24608021 0.11077082 -0.01770803
v -0.24455569 0.11395346 -0.01780804
v -0.24348967 0.11537039 -0.01884146
v -0.24611459 0.10931030 -0.01945263
v -0.24326041 0.11537039 -0.01931928
v -0.24789129 0.10514671 -0.01989711
v -0.26022497 -0.00511208 -0.06002288
v -0.24292801 0.11537039 -0.01990822
v -0.24329481 0.11454203 -0.01997490
v -0.25991549 -0.00757536 -0.06128966
v -0.26293013 -0.01067080 -0.05958951
v -0.25560557 -0.02050210 -0.06935704
v -0.25417276 -0.02178824 -0.07099051
v -0.26009888 -0.00849091 -0.06146745
v -0.25568581 -0.00291040 -0.06331206
v -0.25568581 -0.00447992 -0.06385655
v -0.25568581 -0.01904157 -0.06880143
v -0.24939288 -0.01901978 -0.07397966
v -0.24663041 -0.01792983 -0.07579094
v -0.24978260 -0.02152665 -0.07427970
v -0.24589680 -0.01997893 -0.07679103
v -0.24163274 -0.02830610 -0.08172479
v -0.24003945 -0.03000642 -0.08323604
v -0.23875565 -0.03393022 -0.08501397
v -0.23947779 -0.07739721 -0.09372585
v -0.23724260 -0.10732709 -0.09741506
v -0.24406279 -0.07894493 -0.09057002
v -0.23860664 -0.03284027 -0.08486952
v -0.23648606 -0.07430176 -0.09535933
v -0.23678409 -0.04127644 -0.08781422
v -0.23542005 -0.04541824 -0.08946992
v -0.23357458 -0.04482966 -0.09031444
v -0.22888640 -0.04339094 -0.09242574
v -0.23222200 -0.03785402 -0.08943658
v -0.23359751 -0.03704746 -0.08853651
v -0.22913857 -0.03778862 -0.09100339
v -0.23742599 -0.01224032 -0.08038024
v -0.23357458 -0.03632809 -0.08836982
v -0.23686433 -0.03480218 -0.08630298
v -0.24449837 -0.01655650 -0.07692437
v -0.24646993 -0.01688349 -0.07564648
v -0.24920947 -0.01792983 -0.07377964
v -0.24589680 -0.01792983 -0.07631321
v -0.24511735 -0.01997893 -0.07734663
v -0.24485370 -0.01843121 -0.07715772
v -0.23708212 -0.03584852 -0.08642521
f 1 2 3
f 1 3 4
f 1 4 5
f 1 5 6
f 1 6 7
f 1 7 8
f 1 8 9
f 1 9 2
f 2 10 34
f 2 34 71
f 2 71 70
f 2 70 130
f 2 130 131
f 2 131 73
f 2 73 72
f 2 72 35
f 2 35 11
f 2 11 12
f 2 12 13
f 2 13 14
f 2 14 15
f 2 15 16
f 2 16 17
f 2 17 18
f 2 18 19
f 2 19 20
f 2 20 3
f 2 9 10
f 3 20 21
f 3 21 22
f 3 22 23
f 3 23 4
f 4 23 24
f 4 24 25
f 4 25 26
f 4 26 27
f 4 27 28
f 4 28 29
f 4 29 5
f 5 29 6
f 6 29 30
f 6 30 7
f 7 30 8
f 8 30 65
f 8 65 64
f 8 64 63
f 8 63 115
f 8 115 114
f 8 114 113
f 8 113 166
f 8 166 238
f 8 238 284
f 8 284 239
f 8 239 167
f 8 167 116
f 8 116 66
f 8 66 31
f 8 31 9
f 9 31 32
f 9 32 33
f 9 33 10
f 10 33 34
f 11 35 36
f 11 36 12
f 12 36 37
f 12 37 38
f 12 38 14
f 12 14 13
f 14 38 37
f 14 37 39
f 14 39 40
f 14 40 15
f 15 40 41
f 15 41 42
f 15 42 16
f 16 43 17
f 16 42 44
f 16 44 45
f 16 45 46
f 16 46 47
f 16 47 48
f 16 48 49
f 16 49 43
f 17 43 18
f 18 50 51
f 18 51 19
f 18 43 52
f 18 52 50
f 19 51 20
f 20 51 53
f 20 53 21
f 21 53 54
f 21 54 22
f 22 54 55
f 22 55 23
f 23 55 56
f 23 56 24
f 24 56 25
f 25 56 26
f 26 57 27
f 26 56 57
f 27 57 58
f 27 58 59
f 27 59 60
f 27 60 61
f 27 61 62
f 27 62 29
f 27 29 28
f 29 62 63
f 29 63 64
f 29 64 65
f 29 65 30
f 31 66 67
f 31 67 32
f 32 67 33
f 33 67 68
f 33 68 69
f 33 69 70
f 33 70 71
f 33 71 34
f 35 72 36
f 36 72 73
f 36 73 74
f 36 74 75
f 36 75 37
f 37 75 76
f 37 76 39
f 39 77 40
f 39 76 77
f 40 77 41
f 41 45 44
f 41 44 42
f 41 77 76
f 41 76 78
f 41 78 79
f 41 79 80
f 41 80 81
f 41 81 82
f 41 82 83
f 41 83 84
f 41 84 45
f 43 85 50
f 43 50 52
f 43 49 85
f 45 86 46
f 45 84 86
f 46 86 47
f 47 87 48
f 47 86 87
f 48 87 88
f 48 88 49
f 49 88 89
f 49 89 90
f 49 90 91
f 49 91 92
f 49 92 93
f 49 93 94
f 49 94 95
f 49 95 96
f 49 96 85
f 50 85 97
f 50 97 53
f 50 53 51
f 53 98 99
f 53 99 100
f 53 100 101
f 53 101 102
f 53 102 54
f 53 97 103
f 53 103 104
f 53 104 95
f 53 95 98
f 54 105 106
f 54 106 55
f 54 102 105
f 55 106 56
f 56 106 107
f 56 107 58
f 56 58 57
f 58 108 109
f 58 109 110
f 58 110 111
f 58 111 59
f 58 107 108
f 59 111 60
f 60 111 112
f 60 112 113
f 60 113 114
f 60 114 115
f 60 115 62
f 60 62 61
f 62 115 63
f 66 116 117
f 66 117 118
f 66 118 119
f 66 119 120
f 66 120 121
f 66 121 67
f 67 121 175
f 67 175 122
f 67 122 68
f 68 122 123
f 68 123 124
f 68 124 125
f 68 125 126
f 68 126 127
f 68 127 128
f 68 128 69
f 69 128 70
f 70 128 129
f 70 129 201
f 70 201 130
f 73 131 132
f 73 132 74
f 74 132 75
f 75 132 133
f 75 133 134
f 75 134 135
f 75 135 136
f 75 136 78
f 75 78 76
f 78 136 135
f 78 135 137
f 78 137 80
f 78 80 79
f 80 137 138
f 80 138 139
f 80 139 81
f 81 140 82
f 81 139 141
f 81 141 140
f 82 140 83
f 83 142 87
f 83 87 84
f 83 140 143
f 83 143 142
f 84 87 86
f 85 96 103
f 85 103 97
f 87 142 88
f 88 144 145
f 88 145 146
f 88 146 89
f 88 142 143
f 88 143 140
f 88 140 147
f 88 147 148
f 88 148 149
f 88 149 150
f 88 150 151
f 88 151 152
f 88 152 153
f 88 153 154
f 88 154 144
f 89 146 90
f 90 92 91
f 90 146 145
f 90 145 155
f 90 155 100
f 90 100 99
f 90 99 98
f 90 98 156
f 90 156 92
f 92 94 93
f 92 156 94
f 94 156 98
f 94 98 95
f 95 104 96
f 96 104 103
f 100 155 101
f 101 155 157
f 101 157 102
f 102 157 158
f 102 158 105
f 105 159 106
f 105 158 159
f 106 159 160
f 106 160 161
f 106 161 162
f 106 162 163
f 106 163 107
f 107 163 108
f 108 163 109
f 109 164 110
f 109 163 164
f 110 165 111
f 110 164 166
f 110 166 165
f 111 165 112
f 112 165 166
f 112 166 113
f 116 167 168
f 116 168 169
f 116 169 117
f 117 169 170
f 117 170 171
f 117 171 118
f 118 171 172
f 118 172 173
f 118 173 119
f 119 173 120
f 120 173 174
f 120 174 175
f 120 175 121
f 122 175 174
f 122 174 123
f 123 174 173
f 123 173 176
f 123 176 177
f 123 177 178
f 123 178 179
f 123 179 180
f 123 180 181
f 123 181 182
f 123 182 183
f 123 183 184
f 123 184 185
f 123 185 186
f 123 186 187
f 123 187 188
f 123 188 189
f 123 189 190
f 123 190 191
f 123 191 124
f 124 191 125
f 125 192 154
f 125 154 153
f 125 153 152
f 125 152 151
f 125 151 150
f 125 150 219
f 125 219 266
f 125 266 263
f 125 263 261
f 125 261 258
f 125 258 255
f 125 255 205
f 125 205 203
f 125 203 134
f 125 134 202
f 125 202 201
f 125 201 129
f 125 129 127
f 125 127 126
f 125 191 190
f 125 190 189
f 125 189 188
f 125 188 187
f 125 187 186
f 125 186 185
f 125 185 184
f 125 184 183
f 125 183 182
f 125 182 181
f 125 181 180
f 125 180 179
f 125 179 178
f 125 178 177
f 125 177 176
f 125 176 193
f 125 193 194
f 125 194 195
f 125 195 196
f 125 196 197
f 125 197 198
f 125 198 199
f 125 199 200
f 125 200 192
f 127 129 128
f 130 201 131
f 131 201 132
f 132 201 202
f 132 202 133
f 133 202 134
f 134 203 135
f 135 204 137
f 135 203 205
f 135 205 206
f 135 206 207
f 135 207 204
f 137 204 207
f 137 207 208
f 137 208 138
f 138 208 209
f 138 209 210
f 138 210 139
f 139 210 211
f 139 211 212
f 139 212 213
f 139 213 141
f 140 141 214
f 140 214 147
f 141 213 215
f 141 215 147
f 141 147 214
f 144 216 217
f 144 217 155
f 144 155 218
f 144 218 145
f 144 154 192
f 144 192 216
f 145 218 155
f 147 215 148
f 148 215 213
f 148 213 149
f 149 213 150
f 150 213 219
f 155 217 220
f 155 220 221
f 155 221 222
f 155 222 223
f 155 223 157
f 157 223 158
f 158 223 159
f 159 224 160
f 159 223 225
f 159 225 226
f 159 226 227
f 159 227 228
f 159 228 224
f 160 224 229
f 160 229 230
f 160 230 162
f 160 162 161
f 162 231 232
f 162 232 233
f 162 233 234
f 162 234 235
f 162 235 236
f 162 236 163
f 162 230 231
f 163 236 164
f 164 236 237
f 164 237 166
f 166 237 238
f 167 239 240
f 167 240 168
f 168 240 241
f 168 241 169
f 169 241 171
f 169 171 170
f 171 241 242
f 171 242 243
f 171 243 244
f 171 244 172
f 172 244 245
f 172 245 173
f 173 245 246
f 173 246 197
f 173 197 196
f 173 196 195
f 173 195 194
f 173 194 193
f 173 193 176
f 192 200 247
f 192 247 248
f 192 248 216
f 197 246 198
f 198 246 249
f 198 249 250
f 198 250 199
f 199 250 200
f 200 250 251
f 200 251 252
f 200 252 253
f 200 253 254
f 200 254 247
f 205 255 206
f 206 255 256
f 206 256 208
f 206 208 207
f 208 256 209
f 209 256 257
f 209 257 258
f 209 258 259
f 209 259 210
f 210 259 211
f 211 259 258
f 211 258 260
f 211 260 261
f 211 261 212
f 212 261 262
f 212 262 263
f 212 263 264
f 212 264 219
f 212 219 213
f 216 248 265
f 216 265 220
f 216 220 217
f 219 264 267
f 219 267 266
f 220 265 253
f 220 253 268
f 220 268 226
f 220 226 221
f 221 226 225
f 221 225 222
f 222 225 269
f 222 269 223
f 223 269 225
f 224 270 271
f 224 271 229
f 224 228 270
f 226 268 272
f 226 272 273
f 226 273 274
f 226 274 275
f 226 275 270
f 226 270 228
f 226 228 227
f 229 271 276
f 229 276 230
f 230 276 277
f 230 277 278
f 230 278 232
f 230 232 231
f 232 240 233
f 232 278 277
f 232 277 279
f 232 279 280
f 232 280 281
f 232 281 282
f 232 282 240
f 233 240 234
f 234 283 284
f 234 284 238
f 234 238 285
f 234 285 237
f 234 237 235
f 234 240 283
f 235 237 236
f 237 285 238
f 239 284 240
f 240 284 283
f 240 282 286
f 240 286 287
f 240 287 242
f 240 242 241
f 242 287 286
f 242 286 288
f 242 288 289
f 242 289 290
f 242 290 291
f 242 291 244
f 242 244 243
f 244 291 292
f 244 292 293
f 244 293 294
f 244 294 249
f 244 249 295
f 244 295 245
f 245 295 246
f 246 295 249
f 247 254 253
f 247 253 248
f 248 253 265
f 249 294 296
f 249 296 297
f 249 297 286
f 249 286 281
f 249 281 250
f 250 298 299
f 250 299 251
f 250 281 298
f 251 299 276
f 251 276 300
f 251 300 252
f 252 274 273
f 252 273 253
f 252 300 271
f 252 271 275
f 252 275 274
f 253 273 272
f 253 272 268
f 255 258 257
f 255 257 256
f 258 261 260
f 261 263 262
f 263 266 267
f 263 267 264
f 270 275 271
f 271 300 276
f 276 299 277
f 277 299 301
f 277 301 302
f 277 302 279
f 279 302 280
f 280 302 281
f 281 286 282
f 281 302 303
f 281 303 298
f 286 297 304
f 286 304 288
f 288 304 297
f 288 297 290
f 288 290 289
f 290 297 293
f 290 293 292
f 290 292 291
f 293 297 296
f 293 296 294
f 298 303 301
f 298 301 299
f 301 303 302

