# https://github.com/mikedh/trimesh
v 0.18507866 -0.02386247 -0.10654130
v 0.16297787 0.00534416 -0.10652029
v 0.16343481 0.00509544 -0.10652029
v 0.16410816 0.00468684 -0.10652029
v 0.17014440 0.00088500 -0.10652029
v 0.19145157 -0.01304322 -0.10652029
v 0.23909208 -0.05036872 -0.10652029
v 0.24382968 -0.05418832 -0.10652029
v 0.24428662 -0.05457917 -0.10652029
v 0.26415086 -0.07502736 -0.10652029
v 0.26537733 -0.07659073 -0.10652029
v 0.28901723 -0.11061183 -0.10652029
v 0.28908938 -0.11077172 -0.10652029
v 0.28949820 -0.11196202 -0.10652029
v 0.28976274 -0.11302796 -0.10652029
v 0.29000322 -0.11412942 -0.10652029
v 0.29050825 -0.11739829 -0.10652029
v 0.27660808 -0.11739829 -0.10652029
v 0.09903232 0.02183063 -0.10652029
v 0.09903232 0.03211690 -0.10652029
v 0.11524117 0.02712477 -0.10652029
v 0.12618333 0.02298540 -0.10652029
v 0.12772245 0.02231030 -0.10652029
v 0.16350695 0.00715625 -0.10196005
v 0.14705762 0.01834857 -0.09643313
v 0.14806767 0.01808209 -0.09588675
v 0.17428078 0.00402951 -0.09571862
v 0.17502628 0.00324783 -0.09643313
v 0.17425673 0.00246614 -0.09878679
v 0.17271762 0.00090276 -0.10345211
v 0.17613253 0.00267932 -0.09609689
v 0.22057456 -0.02862364 -0.09706357
v 0.24060716 -0.04425736 -0.09531933
v 0.24099192 -0.04391982 -0.09428961
v 0.25178980 -0.05944694 -0.10200208
v 0.25498829 -0.05934035 -0.09597080
v 0.26544949 -0.07525831 -0.10452387
v 0.26593045 -0.07627095 -0.10534345
v 0.26559377 -0.07675062 -0.10637318
v 0.29207142 -0.10290157 -0.08640902
v 0.30169091 -0.11739829 -0.08115529
v 0.29048421 -0.11231734 -0.10488112
v 0.26888846 -0.07493853 -0.09744184
v 0.27033137 -0.07502736 -0.09418453
v 0.29019562 -0.11292136 -0.10570070
v 0.29060445 -0.11336550 -0.10515431
v 0.29072469 -0.11460910 -0.10536447
v 0.29084493 -0.11739829 -0.10593187
v 0.30553870 -0.13413348 -0.01117565
v 0.10230295 -0.01068040 0.10812598
v 0.28935390 -0.13413348 -0.01117565
v 0.28920962 -0.13413348 -0.01022998
v 0.28798313 -0.13413348 -0.00024790
v 0.06803352 0.02232807 0.07462822
v 0.07830233 0.02735573 -0.01117565
v 0.07019790 0.03838816 0.01725752
v 0.07019790 0.04735978 0.01725752
v 0.09903232 0.03376911 -0.10422966
v 0.11495258 0.03026928 -0.10168685
v 0.11536141 0.03193925 -0.09878679
v 0.11545761 0.02891910 -0.10353617
v 0.09903232 0.03524365 -0.10217020
v 0.09997023 0.03508376 -0.10196005
v 0.10307251 0.03508376 -0.10040494
v 0.11478423 0.03330720 -0.09691647
v 0.11550570 0.03360922 -0.09588675
v 0.14599948 0.01937898 -0.09531933
v 0.14638426 0.01957440 -0.09426859
v 0.15900983 0.01504418 -0.08823731
v 0.17452126 0.00413610 -0.09485701
v 0.17526678 0.00369196 -0.09485701
v 0.17661351 0.00283922 -0.09477295
v 0.15927437 0.01522183 -0.08710251
v 0.22083910 -0.02839269 -0.09601283
v 0.24012617 -0.04280058 -0.09347003
v 0.24120836 -0.04363556 -0.09332292
v 0.25525283 -0.05907386 -0.09485701
v 0.29221572 -0.10270615 -0.08556842
v 0.30157067 -0.10716531 -0.06539411
v 0.30140233 -0.10746733 -0.06638181
v 0.30231616 -0.11739829 -0.07934801
v 0.29211952 -0.11739829 -0.10355718
v 0.29207142 -0.11684755 -0.10345211
v 0.24426256 -0.04224985 -0.08090312
v 0.24503213 -0.04310260 -0.08090312
v 0.27326531 -0.07680392 -0.08556842
v 0.30106565 -0.10640139 -0.06539411
v 0.29156641 -0.11739829 -0.10460793
v 0.30541846 -0.11739829 -0.06386002
v 0.31369123 -0.13411571 0.06010692
v 0.31371527 -0.13411571 0.06170405
v 0.31371527 -0.13411571 0.06174608
v 0.30443247 -0.13413348 -0.00300085
v 0.27100473 -0.09758966 0.10814700
v 0.22875114 -0.06474108 0.10814700
v 0.10230295 -0.00444468 0.10812598
v 0.28788695 -0.13413348 0.00128619
v 0.28783884 -0.13411571 0.10812598
v 0.06803352 0.02771104 0.07462822
v 0.06803352 0.03559897 0.04413559
v 0.06803352 0.04457059 0.04413559
v 0.07019790 0.04730649 0.03077011
v 0.09900827 0.04528121 -0.06541512
v 0.09900827 0.04528121 -0.06650790
v 0.09903232 0.04526344 -0.06697023
v 0.09903232 0.04366454 -0.07939004
v 0.09903232 0.04338029 -0.08094514
v 0.09903232 0.04297168 -0.08243720
v 0.09903232 0.04103523 -0.08867863
v 0.09903232 0.04046673 -0.09023373
v 0.09903232 0.03991600 -0.09168376
v 0.09903232 0.03639841 -0.09996363
v 0.09903232 0.03584768 -0.10109844
v 0.10603050 0.03503046 -0.09876579
v 0.11295654 0.03419548 -0.09643313
v 0.11437541 0.03375134 -0.09641211
v 0.11451969 0.03439090 -0.09485701
v 0.12784269 0.03353815 -0.08031470
v 0.17654135 0.00319453 -0.09332292
v 0.17750330 0.00257273 -0.09332292
v 0.20424549 -0.01354066 -0.08548436
v 0.20523148 -0.01450000 -0.08655613
v 0.15763906 0.01671414 -0.08401332
v 0.15961106 0.01529289 -0.08558944
v 0.22105554 -0.02825057 -0.09485701
v 0.24313227 -0.04137934 -0.08092412
v 0.24075144 -0.04260516 -0.09176782
v 0.30171497 -0.10705872 -0.06386002
v 0.30294144 -0.10910176 -0.06188462
v 0.30286930 -0.10927942 -0.06291435
v 0.24440686 -0.04208996 -0.07934801
v 0.27037947 -0.07186508 -0.07596461
v 0.30118589 -0.10625927 -0.06386002
v 0.30527418 -0.11613693 -0.06230492
v 0.30702972 -0.11739829 -0.03622542
v 0.30445651 -0.11228180 -0.05990922
v 0.30772714 -0.11201532 0.04161380
v 0.30974722 -0.12702724 0.08194140
v 0.31306596 -0.13411571 0.06643241
v 0.30914601 -0.11842869 0.07515359
v 0.30909791 -0.11865964 0.07618332
v 0.30060872 -0.13413348 0.02278444
v 0.28427962 -0.09758966 0.10814700
v 0.24459923 -0.06474108 0.10814700
v 0.10316870 -0.00177984 0.10812598
v 0.10230295 -0.00160218 0.10810497
v 0.06803352 0.03126416 0.07460721
v 0.28791099 -0.13413348 0.00284129
v 0.28831983 -0.13413348 0.01524009
v 0.28846411 -0.13413348 0.01679519
v 0.28918558 -0.13413348 0.02278444
v 0.30303764 -0.13411571 0.10812598
v 0.07019790 0.04727095 0.03209405
v 0.06803352 0.04123065 0.05273069
v 0.07883139 0.03492387 0.06229247
v 0.07883139 0.03572332 0.06023301
v 0.07019790 0.04590300 0.03934419
v 0.07019790 0.04611619 0.03852461
v 0.07019790 0.04647150 0.03696950
v 0.07019790 0.04712883 0.03339697
v 0.07019790 0.04725319 0.03232521
v 0.10170173 0.04442846 -0.06428032
v 0.10182197 0.04446399 -0.06539411
v 0.10364968 0.04391326 -0.06539411
v 0.10444328 0.04279402 -0.07403124
v 0.10364968 0.04243871 -0.07934801
v 0.10158148 0.04282956 -0.08037774
v 0.10208651 0.04254531 -0.08090312
v 0.10364968 0.04208340 -0.08090312
v 0.11365394 0.03499493 -0.09399540
v 0.11305272 0.03485280 -0.09487803
v 0.10985425 0.03488834 -0.09679038
v 0.12796294 0.03359145 -0.07934801
v 0.12873250 0.03320061 -0.07934801
v 0.15595565 0.01817092 -0.08090312
v 0.12462016 0.03503046 -0.07859148
v 0.17771974 0.00269709 -0.09176782
v 0.20364427 -0.01302545 -0.08489594
v 0.24255511 -0.04086413 -0.08039876
v 0.15783145 0.01683850 -0.08245821
v 0.15881745 0.01648319 -0.08058789
v 0.16336265 0.01328538 -0.08308866
v 0.30647661 -0.10983015 0.03846156
v 0.30462486 -0.11201532 -0.05763961
v 0.30455270 -0.11210415 -0.05887949
v 0.27312103 -0.07367718 0.06178811
v 0.28908938 -0.08884899 0.07416589
v 0.28908938 -0.08883123 0.07263180
v 0.28908938 -0.08883123 0.07107670
v 0.30323003 -0.10419846 0.05865689
v 0.25635906 -0.05491671 -0.07161452
v 0.25991827 -0.05903833 -0.07161452
v 0.24337276 -0.04132604 -0.07934801
v 0.23786559 -0.04542989 0.06607515
v 0.26722910 -0.06728156 -0.06936593
v 0.30399959 -0.10526440 0.06021199
v 0.26657976 -0.06648211 -0.06850432
v 0.27163000 -0.07223816 -0.06694922
v 0.30613993 -0.11496440 -0.04059652
v 0.30753476 -0.11245945 0.06641139
v 0.30866503 -0.11665213 0.07309413
v 0.30544250 -0.11306348 -0.04368571
v 0.30452866 -0.10601055 0.06140984
v 0.30613993 -0.10899517 0.06330118
v 0.30659685 -0.10997227 0.06330118
v 0.30724616 -0.11151788 0.06485628
v 0.30924221 -0.12128895 0.07832684
v 0.30977128 -0.12859061 0.08349651
v 0.31282548 -0.13411571 0.06796649
v 0.30842455 -0.11617247 0.07418690
v 0.30888147 -0.11784243 0.07569998
v 0.30294144 -0.12464665 0.10604550
v 0.30339837 -0.12548163 0.10520491
v 0.29971890 -0.10796476 0.09621053
v 0.30957890 -0.13411571 0.08814081
v 0.30938651 -0.13411571 0.08912851
v 0.30929031 -0.13411571 0.08956982
v 0.30909791 -0.13411571 0.09036839
v 0.30883339 -0.13411571 0.09127202
v 0.30832835 -0.13411571 0.09278510
v 0.27636761 -0.08913323 0.10814700
v 0.30284524 -0.12942559 0.10812598
v 0.30274904 -0.12825306 0.10812598
v 0.30262880 -0.12704500 0.10812598
v 0.30229212 -0.12548163 0.10812598
v 0.30173901 -0.12397155 0.10812598
v 0.30161877 -0.12368731 0.10812598
v 0.29875697 -0.11734500 0.10812598
v 0.29842027 -0.11661661 0.10812598
v 0.29805955 -0.11590598 0.10812598
v 0.29719380 -0.11443144 0.10812598
v 0.29678497 -0.11375635 0.10812598
v 0.29450034 -0.10999003 0.10812598
v 0.29382699 -0.10890635 0.10812598
v 0.29365863 -0.10865762 0.10812598
v 0.29245620 -0.10689883 0.10812598
v 0.29060445 -0.10444718 0.10812598
v 0.28937796 -0.10297264 0.10812598
v 0.28904129 -0.10258179 0.10812598
v 0.28848815 -0.10194222 0.10812598
v 0.28774264 -0.10108948 0.10812598
v 0.28702120 -0.10030779 0.10812598
v 0.25592619 -0.07222040 0.10814700
v 0.23562906 -0.05765262 0.10812598
v 0.23334444 -0.05621360 0.10812598
v 0.20903117 -0.04224985 0.10812598
v 0.19522722 -0.03517914 0.10812598
v 0.17192400 -0.02334726 0.10812598
v 0.15961106 -0.01805312 0.10812598
v 0.14436416 -0.01172857 0.10812598
v 0.14349841 -0.01146208 0.10812598
v 0.11298058 -0.00380512 0.10812598
v 0.11139337 -0.00344980 0.10812598
v 0.10230295 0.00717402 0.09831202
v 0.11139337 -0.00334321 0.10802091
v 0.06803352 0.03158394 0.07403980
v 0.06952454 0.03097991 0.07462822
v 0.06861069 0.03190372 0.07336732
v 0.06803352 0.04075098 0.05388651
v 0.07310780 0.03806838 0.05773223
v 0.07798969 0.03503046 0.06252363
v 0.07875925 0.03378687 0.06491933
v 0.08037051 0.03362698 0.06437295
v 0.08118817 0.03350262 0.06414178
v 0.07981739 0.03508376 0.06117868
v 0.07964906 0.03815721 0.05329809
v 0.07986549 0.03977387 0.04884293
v 0.07029410 0.04588524 0.03932317
v 0.09804632 0.03343156 0.04968352
v 0.09821467 0.03350262 0.04865379
v 0.09431877 0.03705574 0.03385930
v 0.09215439 0.03819274 0.03203100
v 0.10627099 0.04290061 -0.06421727
v 0.10516475 0.04339806 -0.06539411
v 0.11451969 0.03927644 -0.07316963
v 0.12543783 0.03474621 -0.07781392
v 0.12690480 0.03408889 -0.07781392
v 0.12796294 0.03360922 -0.07781392
v 0.12875654 0.03321837 -0.07781392
v 0.15407984 0.01952110 -0.07859148
v 0.15672520 0.01770901 -0.08090312
v 0.10716079 0.04261637 -0.06539411
v 0.18291428 0.00052969 -0.08401332
v 0.20366831 -0.01298992 -0.08401332
v 0.20446193 -0.01352289 -0.08401332
v 0.16240070 0.01415589 -0.08090312
v 0.15407984 0.01952110 -0.07857046
v 0.15682140 0.01776231 -0.07934801
v 0.25448326 -0.05976672 0.07883120
v 0.25539713 -0.06053064 0.07883120
v 0.29043610 -0.09062555 0.07609926
v 0.29046015 -0.09053672 0.07506953
v 0.30323003 -0.10421622 0.06021199
v 0.28990704 -0.08970173 0.07263180
v 0.28901723 -0.08892005 0.07525867
v 0.26581021 -0.06559384 -0.06850432
v 0.26075999 -0.05985555 -0.07005942
v 0.25929302 -0.05818558 -0.07005942
v 0.20655415 -0.01473095 -0.07934801
v 0.20838186 -0.01606337 -0.07670013
v 0.15898578 0.00255496 0.06605414
v 0.20657821 -0.02860588 0.08038631
v 0.25342512 -0.05941141 0.08147908
v 0.25433898 -0.05985555 0.08038631
v 0.20650607 -0.01471319 -0.07781392
v 0.30746260 -0.11253052 0.06796649
v 0.30775120 -0.11350762 0.06952159
v 0.30714996 -0.11151788 0.06641139
v 0.30849669 -0.11617247 0.07309413
v 0.30601969 -0.10920835 0.06557080
v 0.30315788 -0.10428728 0.06174608
v 0.30402363 -0.10542428 0.06185115
v 0.30291740 -0.10609938 0.07336732
v 0.30445651 -0.10611714 0.06243957
v 0.30645257 -0.10983015 0.06498238
v 0.30921815 -0.12745362 0.08458929
v 0.30921815 -0.13324520 0.08923358
v 0.30948270 -0.13324520 0.08814081
v 0.30993962 -0.13013622 0.08349651
v 0.30806382 -0.11514206 0.07309413
v 0.30784738 -0.11471569 0.07309413
v 0.30767904 -0.11521313 0.07574201
v 0.30816002 -0.11617247 0.07574201
v 0.30145041 -0.12141331 0.10617159
v 0.30274904 -0.12548163 0.10711726
v 0.30306168 -0.12548163 0.10633971
v 0.29945438 -0.10846220 0.09738737
v 0.30366291 -0.12702724 0.10520491
v 0.29928603 -0.10702318 0.09576921
v 0.29861267 -0.10695212 0.09730331
v 0.29842027 -0.10750286 0.09841709
v 0.30760688 -0.11535524 0.07656159
v 0.29981510 -0.10762722 0.09515978
v 0.30315788 -0.12708053 0.10686509
v 0.30294144 -0.12763126 0.10757960
v 0.27557401 -0.08831602 0.10814700
v 0.28728572 -0.10004131 0.10728539
v 0.27956608 -0.08904441 0.10272515
v 0.30289336 -0.12660086 0.10743249
v 0.29820383 -0.11091386 0.10274617
v 0.29822789 -0.11551514 0.10743249
v 0.29798740 -0.11299242 0.10528897
v 0.29688116 -0.11203309 0.10625565
v 0.29688116 -0.11357869 0.10781076
v 0.29656853 -0.11098491 0.10573028
v 0.29844433 -0.10894187 0.10011930
v 0.29827599 -0.10609938 0.09667286
v 0.25727291 -0.07312644 0.10814700
v 0.23702389 -0.05859419 0.10812598
v 0.23767321 -0.05799016 0.10594043
v 0.23339254 -0.05616030 0.10795787
v 0.17452126 -0.01442894 0.09543298
v 0.17348717 -0.01474872 0.09652576
v 0.17108229 -0.02242345 0.10747452
v 0.17300619 -0.01604561 0.09841709
v 0.14484514 -0.01151538 0.10755858
v 0.12851606 0.00200423 0.09581124
v 0.12846796 0.00116925 0.09707214
v 0.12846796 0.00058298 0.09782868
v 0.10290416 0.00708519 0.09822796
v 0.10230295 0.00841761 0.09665184
v 0.06803352 0.03231233 0.07273687
v 0.07144844 0.03051800 0.07462822
v 0.06952454 0.03124639 0.07416589
v 0.10230295 0.01038959 0.09387787
v 0.10230295 0.01140223 0.09244886
v 0.10230295 0.01358740 0.08935967
v 0.10230295 0.01456450 0.08797269
v 0.11247556 0.01653648 0.08133198
v 0.06952454 0.03179712 0.07317819
v 0.06952454 0.03220573 0.07240064
v 0.06803352 0.03996929 0.05575683
v 0.07500765 0.03350262 0.06723097
v 0.07820613 0.03352039 0.06571790
v 0.11129717 0.01747806 0.08026021
v 0.11173005 0.01785114 0.07931455
v 0.09746916 0.03323614 0.05090239
v 0.12832367 0.01753136 0.06473020
v 0.12769840 0.01793997 0.06412077
v 0.12866034 0.01769125 0.06332220
v 0.12914132 0.01790443 0.06073736
v 0.12979063 0.01818869 0.05689164
v 0.12834771 0.01923686 0.05399158
v 0.12048379 0.03682479 -0.06539411
v 0.11382229 0.03970281 -0.06453250
v 0.11052761 0.04119512 -0.06539411
v 0.12548592 0.03472845 -0.07625882
v 0.12546187 0.03469292 -0.07316963
v 0.13380678 0.03032258 -0.06697023
v 0.20451003 -0.01348736 -0.08245821
v 0.29029182 -0.09076767 0.07727610
v 0.29197522 -0.09371675 0.08082762
v 0.29522182 -0.09982812 0.08912851
v 0.29702544 -0.10261732 0.09125101
v 0.30145041 -0.10599279 0.08194140
v 0.30159473 -0.10581513 0.08038631
v 0.30171497 -0.10565524 0.07885222
v 0.30296548 -0.10450047 0.06437295
v 0.26852771 -0.07529385 0.09434020
v 0.28452012 -0.09030576 0.09589530
v 0.15869721 0.00237731 0.06708387
v 0.13286887 0.03067789 -0.06539411
v 0.12981469 0.03218797 -0.06383901
v 0.12964634 0.03211690 -0.06230492
v 0.12738577 0.03332497 -0.06230492
v 0.13084878 0.01795773 0.05493725
v 0.13005517 0.01669637 0.06481425
v 0.12959825 0.01658978 0.06601210
v 0.20600104 -0.02881906 0.08200445
v 0.22204155 -0.04409747 0.09642068
v 0.24229055 -0.05642679 0.09501268
v 0.26725314 -0.07497406 0.09679895
v 0.26746957 -0.07481418 0.09589530
v 0.26771007 -0.07460099 0.09434020
v 0.30695757 -0.11151788 0.06796649
v 0.30628421 -0.11029206 0.06796649
v 0.30640445 -0.11009663 0.06641139
v 0.30339837 -0.10677447 0.07309413
v 0.30421603 -0.10810689 0.07309413
v 0.30262880 -0.10656128 0.07729711
v 0.30628421 -0.11183766 0.07309413
v 0.30508178 -0.10997227 0.07418690
v 0.30371099 -0.10842666 0.07729711
v 0.29947842 -0.10670340 0.09434020
v 0.29870887 -0.10554865 0.09434020
v 0.29844433 -0.10586842 0.09589530
v 0.29991130 -0.10748509 0.09434020
v 0.27502088 -0.08740997 0.10760061
v 0.27482850 -0.08756986 0.10814700
v 0.28435178 -0.09044790 0.09681997
v 0.28605925 -0.09648820 0.10364980
v 0.26886440 -0.07801198 0.09999322
v 0.27141356 -0.08449642 0.10814700
v 0.27045161 -0.08264879 0.10623464
v 0.23935662 -0.05788357 0.10306139
v 0.22254657 -0.04528776 0.09869029
v 0.14489324 0.00246614 0.08437914
v 0.14660070 0.00104489 0.08606033
v 0.11298058 0.01687403 0.08042833
v 0.17348717 -0.01425128 0.09574820
v 0.22170485 -0.04425736 0.09742939
v 0.06803352 0.03318284 0.07092959
v 0.07260278 0.03023375 0.07462822
v 0.07106365 0.03161947 0.07282094
v 0.06952454 0.03282753 0.07107670
v 0.07106365 0.03202808 0.07204339
v 0.11293249 0.01762018 0.07881019
v 0.11240341 0.01801103 0.07828481
v 0.12851606 0.01680297 0.06649545
v 0.13007923 0.01824198 0.05550465
v 0.12134954 0.03648724 -0.06850432
v 0.11918516 0.03742882 -0.06650790
v 0.28531373 -0.09114075 0.09589530
v 0.28774264 -0.09325485 0.09434020
v 0.29183092 -0.09385889 0.08192039
v 0.29507750 -0.09998801 0.09017925
v 0.29541420 -0.10117831 0.09278510
v 0.29618375 -0.10206659 0.09278510
v 0.29683307 -0.10283050 0.09278510
v 0.29337005 -0.09698563 0.08658570
v 0.29820383 -0.10462483 0.09324743
v 0.29779502 -0.10359443 0.09125101
v 0.30137829 -0.10609938 0.08276099
v 0.22360470 -0.04566084 0.09793375
v 0.24265129 -0.05770591 0.09742939
v 0.30310979 -0.10734296 0.07729711
v 0.30323003 -0.10714754 0.07574201
v 0.29974296 -0.10622373 0.09160827
v 0.29962272 -0.10641915 0.09278510
v 0.29673688 -0.10297264 0.09360468
v 0.29803551 -0.10476696 0.09434020
v 0.29983916 -0.10606384 0.09057854
v 0.28906533 -0.09504918 0.09534892
v 0.29216760 -0.09760743 0.09278510
v 0.29373079 -0.09822922 0.08929663
v 0.30022394 -0.10556641 0.08660672
f 1 2 3
f 1 3 4
f 1 4 5
f 1 5 6
f 1 6 7
f 1 7 8
f 1 8 9
f 1 9 10
f 1 10 11
f 1 11 12
f 1 12 13
f 1 13 14
f 1 14 15
f 1 15 16
f 1 16 17
f 1 17 18
f 1 18 19
f 1 19 20
f 1 20 21
f 1 21 22
f 1 22 23
f 1 23 2
f 2 24 3
f 2 23 25
f 2 25 26
f 2 26 24
f 3 24 27
f 3 27 28
f 3 28 4
f 4 28 29
f 4 29 5
f 5 29 30
f 5 30 6
f 6 30 29
f 6 29 28
f 6 28 31
f 6 31 32
f 6 32 7
f 7 32 8
f 8 32 33
f 8 33 34
f 8 34 9
f 9 35 10
f 9 34 35
f 10 35 36
f 10 36 37
f 10 37 38
f 10 38 11
f 11 38 39
f 11 39 12
f 12 40 41
f 12 41 42
f 12 42 13
f 12 39 38
f 12 38 43
f 12 43 44
f 12 44 40
f 13 42 14
f 14 42 45
f 14 45 15
f 15 45 46
f 15 46 16
f 16 46 47
f 16 47 48
f 16 48 17
f 17 48 49
f 17 49 51
f 17 51 18
f 18 50 19
f 18 51 52
f 18 52 53
f 18 53 50
f 19 50 54
f 19 54 55
f 19 55 56
f 19 56 57
f 19 57 20
f 20 57 58
f 20 58 21
f 21 59 60
f 21 60 61
f 21 61 22
f 21 58 62
f 21 62 63
f 21 63 64
f 21 64 59
f 22 61 60
f 22 60 65
f 22 65 66
f 22 66 23
f 23 66 25
f 24 26 27
f 25 67 26
f 25 66 67
f 26 67 68
f 26 68 69
f 26 69 27
f 27 70 71
f 27 71 72
f 27 72 31
f 27 31 28
f 27 69 73
f 27 73 70
f 31 72 74
f 31 74 32
f 32 74 75
f 32 75 34
f 32 34 33
f 34 76 36
f 34 36 35
f 34 75 76
f 36 77 43
f 36 43 37
f 36 76 77
f 37 43 38
f 40 78 79
f 40 79 80
f 40 80 81
f 40 81 41
f 40 44 78
f 41 81 49
f 41 49 82
f 41 82 83
f 41 83 46
f 41 46 42
f 42 46 45
f 43 77 44
f 44 77 84
f 44 84 85
f 44 85 86
f 44 86 87
f 44 87 78
f 46 83 82
f 46 82 47
f 47 82 88
f 47 88 48
f 48 88 49
f 49 81 89
f 49 89 90
f 49 90 91
f 49 91 92
f 49 92 93
f 49 93 142
f 49 142 151
f 49 151 150
f 49 150 149
f 49 149 148
f 49 148 97
f 49 97 53
f 49 53 52
f 49 52 51
f 49 88 82
f 50 94 95
f 50 95 96
f 50 96 99
f 50 99 54
f 50 53 97
f 50 97 98
f 50 98 94
f 54 99 147
f 54 147 256
f 54 256 362
f 54 362 442
f 54 442 372
f 54 372 259
f 54 259 154
f 54 154 101
f 54 101 100
f 54 100 56
f 54 56 55
f 56 100 101
f 56 101 57
f 57 101 102
f 57 102 103
f 57 103 104
f 57 104 105
f 57 105 106
f 57 106 107
f 57 107 108
f 57 108 109
f 57 109 110
f 57 110 111
f 57 111 112
f 57 112 113
f 57 113 62
f 57 62 58
f 59 65 60
f 59 64 65
f 62 113 64
f 62 64 63
f 64 113 112
f 64 112 114
f 64 114 115
f 64 115 116
f 64 116 65
f 65 116 66
f 66 116 117
f 66 117 118
f 66 118 67
f 67 118 68
f 68 118 69
f 69 118 73
f 70 73 71
f 71 119 120
f 71 120 72
f 71 73 119
f 72 120 121
f 72 121 122
f 72 122 74
f 73 118 123
f 73 123 124
f 73 124 119
f 74 125 126
f 74 126 127
f 74 127 75
f 74 122 125
f 75 127 76
f 76 127 84
f 76 84 77
f 78 87 79
f 79 87 128
f 79 128 129
f 79 129 130
f 79 130 81
f 79 81 80
f 81 130 89
f 84 127 126
f 84 126 131
f 84 131 85
f 85 131 86
f 86 131 132
f 86 132 133
f 86 133 87
f 87 133 128
f 89 134 135
f 89 135 90
f 89 130 136
f 89 136 134
f 90 137 91
f 90 135 137
f 91 137 92
f 92 138 139
f 92 139 93
f 92 137 140
f 92 140 141
f 92 141 138
f 93 139 142
f 94 143 221
f 94 221 336
f 94 336 429
f 94 429 433
f 94 433 348
f 94 348 243
f 94 243 144
f 94 144 95
f 94 98 152
f 94 152 143
f 95 144 145
f 95 145 96
f 96 145 146
f 96 146 147
f 96 147 99
f 97 148 98
f 98 148 149
f 98 149 150
f 98 150 151
f 98 151 142
f 98 142 152
f 101 153 102
f 101 154 155
f 101 155 156
f 101 156 157
f 101 157 158
f 101 158 159
f 101 159 160
f 101 160 161
f 101 161 153
f 102 153 103
f 103 162 163
f 103 163 104
f 103 153 162
f 104 163 105
f 105 163 164
f 105 164 165
f 105 165 166
f 105 166 106
f 106 166 167
f 106 167 107
f 107 167 108
f 108 167 168
f 108 168 109
f 109 168 169
f 109 169 170
f 109 170 171
f 109 171 110
f 110 171 111
f 111 171 172
f 111 172 112
f 112 172 114
f 114 172 115
f 115 172 171
f 115 171 116
f 116 171 117
f 117 171 170
f 117 170 118
f 118 173 174
f 118 174 175
f 118 175 123
f 118 170 169
f 118 169 166
f 118 166 176
f 118 176 173
f 119 177 120
f 119 124 177
f 120 177 178
f 120 178 121
f 121 178 179
f 121 179 126
f 121 126 122
f 122 126 125
f 123 180 124
f 123 175 180
f 124 180 181
f 124 181 182
f 124 182 177
f 126 179 131
f 128 133 183
f 128 183 129
f 129 183 184
f 129 184 185
f 129 185 130
f 130 185 136
f 131 186 187
f 131 187 188
f 131 188 189
f 131 189 190
f 131 190 191
f 131 191 192
f 131 192 132
f 131 179 193
f 131 193 194
f 131 194 186
f 132 192 195
f 132 195 133
f 133 190 196
f 133 196 183
f 133 195 197
f 133 197 198
f 133 198 190
f 134 136 185
f 134 185 184
f 134 184 135
f 135 184 199
f 135 199 137
f 137 200 201
f 137 201 140
f 137 199 202
f 137 202 184
f 137 184 183
f 137 183 203
f 137 203 204
f 137 204 205
f 137 205 206
f 137 206 200
f 138 207 208
f 138 208 139
f 138 141 207
f 139 208 209
f 139 209 142
f 140 201 210
f 140 210 211
f 140 211 141
f 141 212 213
f 141 213 207
f 141 211 214
f 141 214 212
f 142 209 215
f 142 215 216
f 142 216 217
f 142 217 218
f 142 218 219
f 142 219 220
f 142 220 152
f 143 152 222
f 143 222 223
f 143 223 224
f 143 224 225
f 143 225 226
f 143 226 227
f 143 227 228
f 143 228 229
f 143 229 230
f 143 230 231
f 143 231 232
f 143 232 233
f 143 233 234
f 143 234 235
f 143 235 236
f 143 236 237
f 143 237 238
f 143 238 239
f 143 239 240
f 143 240 241
f 143 241 242
f 143 242 221
f 144 243 244
f 144 244 245
f 144 245 246
f 144 246 247
f 144 247 248
f 144 248 249
f 144 249 250
f 144 250 251
f 144 251 252
f 144 252 253
f 144 253 145
f 145 254 146
f 145 253 255
f 145 255 254
f 146 254 147
f 147 254 257
f 147 257 258
f 147 258 256
f 152 220 222
f 153 161 164
f 153 164 162
f 154 259 260
f 154 260 155
f 155 260 261
f 155 261 262
f 155 262 263
f 155 263 264
f 155 264 265
f 155 265 156
f 156 265 266
f 156 266 157
f 157 266 267
f 157 267 268
f 157 268 158
f 158 268 269
f 158 269 159
f 159 269 160
f 160 269 270
f 160 270 271
f 160 271 272
f 160 272 161
f 161 272 273
f 161 273 274
f 161 274 164
f 162 164 163
f 164 274 165
f 165 274 275
f 165 275 176
f 165 176 166
f 166 169 167
f 167 169 168
f 173 176 276
f 173 276 277
f 173 277 278
f 173 278 279
f 173 279 174
f 174 279 280
f 174 280 175
f 175 280 281
f 175 281 180
f 176 275 274
f 176 274 282
f 176 282 276
f 177 283 178
f 177 182 283
f 178 284 285
f 178 285 193
f 178 193 179
f 178 283 286
f 178 286 284
f 180 281 181
f 181 281 280
f 181 280 287
f 181 287 288
f 181 288 286
f 181 286 182
f 182 286 283
f 183 196 203
f 184 202 199
f 186 194 289
f 186 289 290
f 186 290 187
f 187 291 292
f 187 292 293
f 187 293 294
f 187 294 188
f 187 290 295
f 187 295 291
f 188 294 189
f 189 294 190
f 190 294 293
f 190 293 196
f 190 198 296
f 190 296 297
f 190 297 298
f 190 298 191
f 191 298 297
f 191 297 192
f 192 297 195
f 193 285 299
f 193 299 300
f 193 300 194
f 194 301 302
f 194 302 303
f 194 303 304
f 194 304 289
f 194 300 305
f 194 305 287
f 194 287 301
f 195 297 296
f 195 296 197
f 196 293 203
f 197 296 198
f 200 306 307
f 200 307 201
f 200 206 308
f 200 308 306
f 201 307 309
f 201 309 210
f 203 310 204
f 203 293 311
f 203 311 312
f 203 312 313
f 203 313 314
f 203 314 310
f 204 310 315
f 204 315 205
f 205 315 206
f 206 315 308
f 207 316 208
f 207 213 316
f 208 317 318
f 208 318 215
f 208 215 319
f 208 319 209
f 208 316 213
f 208 213 317
f 209 319 215
f 210 309 307
f 210 307 320
f 210 320 321
f 210 321 322
f 210 322 323
f 210 323 211
f 211 323 214
f 212 324 227
f 212 227 226
f 212 226 225
f 212 225 325
f 212 325 326
f 212 326 213
f 212 214 327
f 212 327 324
f 213 326 328
f 213 328 218
f 213 218 317
f 214 329 330
f 214 330 331
f 214 331 327
f 214 323 332
f 214 332 333
f 214 333 329
f 215 318 216
f 216 318 217
f 217 318 218
f 218 318 317
f 218 328 219
f 219 328 334
f 219 334 220
f 220 334 335
f 220 335 222
f 221 242 337
f 221 337 338
f 221 338 336
f 222 335 223
f 223 335 224
f 224 335 339
f 224 339 225
f 225 339 325
f 227 324 228
f 228 327 340
f 228 340 341
f 228 341 229
f 228 324 327
f 229 341 230
f 230 341 342
f 230 342 343
f 230 343 344
f 230 344 231
f 231 344 232
f 232 344 233
f 233 344 345
f 233 345 234
f 234 345 346
f 234 346 235
f 235 346 236
f 236 346 331
f 236 331 237
f 237 331 330
f 237 330 347
f 237 347 238
f 238 347 239
f 239 347 240
f 240 347 337
f 240 337 241
f 241 337 242
f 243 348 244
f 244 349 350
f 244 350 351
f 244 351 245
f 244 348 349
f 245 351 352
f 245 352 246
f 246 352 353
f 246 353 247
f 247 353 248
f 248 353 354
f 248 354 249
f 249 354 355
f 249 355 353
f 249 353 250
f 250 356 357
f 250 357 358
f 250 358 251
f 250 353 356
f 251 358 359
f 251 359 360
f 251 360 254
f 251 254 252
f 252 255 253
f 252 254 255
f 254 360 361
f 254 361 257
f 256 258 362
f 257 363 364
f 257 364 258
f 257 361 365
f 257 365 366
f 257 366 367
f 257 367 368
f 257 368 369
f 257 369 363
f 258 364 370
f 258 370 371
f 258 371 362
f 259 372 260
f 260 372 261
f 261 372 373
f 261 373 262
f 262 373 374
f 262 374 375
f 262 375 376
f 262 376 263
f 263 376 264
f 264 376 265
f 265 376 266
f 266 376 267
f 267 377 269
f 267 269 268
f 267 376 377
f 269 377 378
f 269 378 379
f 269 379 380
f 269 380 381
f 269 381 382
f 269 382 270
f 270 382 383
f 270 383 271
f 271 383 384
f 271 384 385
f 271 385 272
f 272 385 273
f 273 385 386
f 273 386 282
f 273 282 274
f 276 387 277
f 276 282 386
f 276 386 387
f 277 387 278
f 278 387 388
f 278 388 279
f 279 389 287
f 279 287 280
f 279 388 389
f 284 390 285
f 284 286 390
f 285 390 299
f 286 288 305
f 286 305 299
f 286 299 390
f 287 389 301
f 287 305 288
f 289 304 290
f 290 304 295
f 291 295 391
f 291 391 392
f 291 392 393
f 291 393 394
f 291 394 395
f 291 395 396
f 291 396 397
f 291 397 313
f 291 313 398
f 291 398 311
f 291 311 292
f 292 311 293
f 295 304 399
f 295 399 400
f 295 400 391
f 299 305 300
f 301 401 352
f 301 352 302
f 301 389 402
f 301 402 403
f 301 403 404
f 301 404 405
f 301 405 406
f 301 406 382
f 301 382 381
f 301 381 380
f 301 380 407
f 301 407 408
f 301 408 401
f 302 409 410
f 302 410 411
f 302 411 303
f 302 352 409
f 303 412 413
f 303 413 304
f 303 411 412
f 304 413 414
f 304 414 399
f 306 308 415
f 306 415 307
f 307 415 321
f 307 321 320
f 308 315 415
f 310 416 417
f 310 417 315
f 310 314 418
f 310 418 419
f 310 419 416
f 311 398 312
f 312 398 313
f 313 397 396
f 313 396 420
f 313 420 418
f 313 418 314
f 315 417 415
f 321 415 421
f 321 421 322
f 322 332 323
f 322 421 422
f 322 422 423
f 322 423 332
f 325 339 326
f 326 339 334
f 326 334 328
f 327 331 346
f 327 346 340
f 329 333 424
f 329 424 425
f 329 425 426
f 329 426 330
f 330 426 347
f 332 423 427
f 332 427 333
f 333 427 424
f 334 339 335
f 336 338 428
f 336 428 429
f 337 430 431
f 337 431 338
f 337 347 430
f 338 431 430
f 338 430 432
f 338 432 428
f 340 342 341
f 340 346 345
f 340 345 342
f 342 345 343
f 343 345 344
f 347 426 430
f 348 412 350
f 348 350 349
f 348 433 434
f 348 434 412
f 350 435 411
f 350 411 436
f 350 436 351
f 350 412 435
f 351 436 352
f 352 401 408
f 352 408 437
f 352 437 438
f 352 438 439
f 352 439 369
f 352 369 357
f 352 357 440
f 352 440 353
f 352 436 441
f 352 441 409
f 353 440 357
f 353 357 356
f 353 355 354
f 357 369 358
f 358 369 367
f 358 367 366
f 358 366 365
f 358 365 361
f 358 361 360
f 358 360 359
f 362 371 442
f 363 443 444
f 363 444 370
f 363 370 364
f 363 369 375
f 363 375 443
f 367 369 368
f 369 439 375
f 370 444 446
f 370 446 371
f 371 445 442
f 371 446 374
f 371 374 373
f 371 373 445
f 372 442 373
f 373 442 445
f 374 446 375
f 375 439 376
f 375 446 444
f 375 444 443
f 376 439 447
f 376 447 448
f 376 448 377
f 377 448 378
f 378 448 449
f 378 449 408
f 378 408 407
f 378 407 380
f 378 380 379
f 382 406 450
f 382 450 383
f 383 450 406
f 383 406 405
f 383 405 384
f 384 388 451
f 384 451 452
f 384 452 386
f 384 386 385
f 384 405 388
f 386 452 387
f 387 452 451
f 387 451 388
f 388 405 403
f 388 403 389
f 389 403 402
f 391 400 453
f 391 453 454
f 391 454 455
f 391 455 392
f 392 455 393
f 393 456 457
f 393 457 458
f 393 458 459
f 393 459 394
f 393 455 460
f 393 460 456
f 394 459 425
f 394 425 461
f 394 461 462
f 394 462 395
f 395 463 420
f 395 420 396
f 395 462 463
f 399 414 413
f 399 413 400
f 400 413 430
f 400 430 453
f 403 405 404
f 408 449 447
f 408 447 437
f 409 441 410
f 410 441 411
f 411 441 464
f 411 464 436
f 411 435 465
f 411 465 412
f 412 434 432
f 412 432 430
f 412 430 413
f 412 465 435
f 415 417 416
f 415 416 422
f 415 422 421
f 416 419 466
f 416 466 422
f 418 467 419
f 418 420 467
f 419 467 466
f 420 463 466
f 420 466 467
f 422 466 423
f 423 466 463
f 423 463 427
f 424 468 469
f 424 469 425
f 424 427 468
f 425 462 461
f 425 459 470
f 425 470 471
f 425 471 426
f 425 469 468
f 425 468 472
f 425 472 462
f 426 471 470
f 426 470 473
f 426 473 430
f 427 463 468
f 428 432 434
f 428 434 433
f 428 433 429
f 430 473 453
f 436 464 441
f 437 447 438
f 438 447 439
f 447 449 448
f 453 473 454
f 454 473 457
f 454 457 474
f 454 474 460
f 454 460 455
f 456 460 475
f 456 475 474
f 456 474 457
f 457 470 458
f 457 473 470
f 458 470 459
f 460 474 475
f 462 472 476
f 462 476 463
f 463 476 472
f 463 472 468

