# https://github.com/mikedh/trimesh
v 0.17263849 -0.27983315 -0.14996719
v 0.17265359 -0.27983315 -0.14996719
v 0.17263849 -0.27983315 -0.14994773
v 0.16297271 -0.27639682 -0.15265455
v 0.16297271 -0.27553776 -0.15927554
v 0.18768086 -0.27520367 -0.14673460
v 0.19441669 -0.27574456 -0.14077570
v 0.18816414 -0.27778090 -0.14065886
v 0.22540757 -0.27472639 -0.10313341
v 0.23517906 -0.27397868 -0.08887880
v 0.17265359 -0.27983315 -0.14994773
v 0.16297271 -0.27542640 -0.15945079
v 0.16955751 -0.27518777 -0.15797082
v 0.17411857 -0.27440823 -0.15711398
v 0.17547782 -0.27671500 -0.15284927
v 0.16297271 -0.27639682 -0.15261560
v 0.23329122 -0.27397868 -0.08611356
v 0.25639845 -0.26327201 -0.01077054
v 0.25612659 -0.26320837 -0.01077054
v 0.25272847 -0.26233337 -0.01077054
v 0.19237781 -0.27432867 -0.14459251
v 0.18352759 -0.26664468 -0.16132025
v 0.18836046 -0.26564244 -0.15927554
v 0.19866055 -0.27456730 -0.13880887
v 0.20066923 -0.27555366 -0.13450523
v 0.19651596 -0.27300824 -0.14293726
v 0.20674054 -0.27526730 -0.12817634
v 0.21284207 -0.27488548 -0.12163324
v 0.22335359 -0.27451959 -0.10819652
v 0.26802757 -0.23845415 -0.09721346
v 0.27112365 -0.23538373 -0.09721346
v 0.24780498 -0.26833103 -0.06490690
v 0.24837888 -0.26879239 -0.05999957
v 0.23517906 -0.27397868 -0.08611356
v 0.22883589 -0.27396277 -0.10085501
v 0.25428405 -0.24354500 -0.11448646
v 0.16297271 -0.27507640 -0.15987921
v 0.16955751 -0.26942874 -0.16474759
v 0.17574966 -0.26847420 -0.16357919
v 0.17937432 -0.26767876 -0.16264446
v 0.16297271 -0.27049464 -0.15156403
v 0.16489077 -0.27521957 -0.14920773
v 0.25639845 -0.26394019 -0.01655417
v 0.26024964 -0.26226974 -0.01077054
v 0.25191292 -0.25811752 -0.01077054
v 0.19168308 -0.26144249 -0.16260551
v 0.19399381 -0.26273110 -0.15911975
v 0.19841893 -0.26179248 -0.15695820
v 0.20257218 -0.26055159 -0.15510821
v 0.20557763 -0.25641527 -0.15804871
v 0.20970068 -0.25487211 -0.15598452
v 0.20465636 -0.27451959 -0.13247999
v 0.21069747 -0.27440823 -0.12605372
v 0.21755412 -0.27466276 -0.11583013
v 0.21633081 -0.27393095 -0.11931589
v 0.25423875 -0.23734054 -0.12656003
v 0.28451981 -0.22423161 -0.08208254
v 0.27178817 -0.23624281 -0.09102088
v 0.26518826 -0.22946563 -0.11777748
v 0.27243760 -0.23097698 -0.10114711
v 0.27680229 -0.23500193 -0.07240420
v 0.27964160 -0.23189969 -0.07240420
v 0.27221104 -0.24290865 -0.05813012
v 0.26694019 -0.25622437 -0.01655417
v 0.26044600 -0.26217428 -0.01655417
v 0.26050640 -0.26215838 -0.01077054
v 0.24857522 -0.26858556 -0.05380700
v 0.16297271 -0.27025601 -0.16546812
v 0.16552507 -0.26723332 -0.16833072
v 0.16955751 -0.26677197 -0.16784388
v 0.17574966 -0.26569015 -0.16667547
v 0.17991802 -0.25571529 -0.17549696
v 0.16300293 -0.11733986 -0.18581793
v 0.16297271 -0.21059770 -0.18836898
v 0.25242643 -0.25383804 -0.01077054
v 0.20343303 -0.25485621 -0.16215762
v 0.19579104 -0.26023340 -0.16108658
v 0.19601758 -0.25429940 -0.16772704
v 0.19929489 -0.25609711 -0.16359866
v 0.20092598 -0.25832435 -0.15956765
v 0.21628550 -0.24898582 -0.15637398
v 0.22188862 -0.25471302 -0.14319042
v 0.25251704 -0.23571782 -0.13068842
v 0.25630784 -0.23322013 -0.12815687
v 0.25981168 -0.23070653 -0.12564479
v 0.28968496 -0.21594308 -0.07859678
v 0.28711747 -0.22089074 -0.07859678
v 0.28483696 -0.22466116 -0.07859678
v 0.27791990 -0.22364299 -0.09939449
v 0.28551660 -0.22066802 -0.08441936
v 0.29072704 -0.21206132 -0.08223832
v 0.26653240 -0.22532932 -0.12030904
v 0.27086690 -0.22229073 -0.11583013
v 0.27175797 -0.22373843 -0.11234437
v 0.27003625 -0.25269260 -0.01655417
v 0.26710630 -0.25603346 -0.01077054
v 0.26690997 -0.25625618 -0.01077054
v 0.26361757 -0.25937432 -0.01077054
v 0.16297271 -0.26527652 -0.17092069
v 0.16955751 -0.26069476 -0.17421172
v 0.16955751 -0.26366973 -0.17111544
v 0.17574966 -0.25977205 -0.17314068
v 0.17574966 -0.25666983 -0.17641222
v 0.17574966 -0.25334486 -0.17950851
v 0.17976699 -0.24933583 -0.18135849
v 0.18390515 -0.24815857 -0.18038482
v 0.19618372 -0.24807901 -0.17411436
v 0.16300293 -0.11733986 -0.20513566
v 0.25248682 -0.25351986 -0.01077054
v 0.28213357 -0.11732394 -0.01077054
v 0.26906967 -0.11732394 -0.11382436
v 0.16297271 -0.21059770 -0.20484355
v 0.19947612 -0.25016308 -0.16996650
v 0.20361426 -0.24876311 -0.16850599
v 0.20678585 -0.25032218 -0.16392972
v 0.20998763 -0.24890628 -0.16244971
v 0.22255315 -0.24289272 -0.15649082
v 0.22040855 -0.24701313 -0.15417348
v 0.22234170 -0.24885855 -0.15002563
v 0.21007825 -0.23664053 -0.17493223
v 0.22271927 -0.23679963 -0.16270288
v 0.22873017 -0.23668826 -0.15652976
v 0.25280399 -0.22340434 -0.14319042
v 0.26526377 -0.22330890 -0.12445690
v 0.29101399 -0.21284086 -0.07859678
v 0.30321703 -0.19987513 -0.03920187
v 0.29827843 -0.20900681 -0.03528769
v 0.29684366 -0.21177496 -0.03328192
v 0.28950371 -0.22252936 -0.03517085
v 0.27246779 -0.24959037 -0.01655417
v 0.27225635 -0.24924037 -0.02113045
v 0.27267924 -0.21918849 -0.11583013
v 0.27897709 -0.21952258 -0.10206236
v 0.28415735 -0.21129770 -0.09988133
v 0.28871838 -0.21435219 -0.08451672
v 0.28467084 -0.19968421 -0.11310385
v 0.29084787 -0.20607959 -0.08866459
v 0.29142177 -0.20829092 -0.08451672
v 0.30348889 -0.17604363 -0.08297832
v 0.30974144 -0.17556635 -0.05195702
v 0.30959041 -0.18237536 -0.03955239
v 0.26860149 -0.22057258 -0.12171113
v 0.27192409 -0.21782033 -0.11896537
v 0.27000605 -0.25246988 -0.01077054
v 0.16297271 -0.26347883 -0.17277068
v 0.16582713 -0.26107658 -0.17462067
v 0.16955751 -0.25759254 -0.17723011
v 0.16955751 -0.25431530 -0.18034587
v 0.16955751 -0.25122898 -0.18307217
v 0.17574966 -0.25025854 -0.18215692
v 0.17896655 -0.24267002 -0.18722003
v 0.18816414 -0.24376772 -0.18188428
v 0.19145654 -0.24273363 -0.18106640
v 0.19947612 -0.24394272 -0.17580855
v 0.20362937 -0.24257456 -0.17471803
v 0.18586852 -0.11733986 -0.19958571
v 0.16316905 -0.12144434 -0.20700512
v 0.16300293 -0.12144434 -0.20704407
v 0.29018334 -0.11732394 -0.11382436
v 0.30462159 -0.11732394 -0.01077054
v 0.16300293 -0.12750563 -0.20918615
v 0.16300293 -0.12785563 -0.20928351
v 0.16300293 -0.13369418 -0.20967299
v 0.16300293 -0.13406009 -0.20969246
v 0.16300293 -0.18367989 -0.20901088
v 0.16300293 -0.18988435 -0.20850458
v 0.16300293 -0.20167282 -0.20696618
v 0.16300293 -0.20460006 -0.20653774
v 0.16300293 -0.20813183 -0.20577828
v 0.16297271 -0.21447948 -0.20349987
v 0.22471284 -0.23882006 -0.15857450
v 0.20678585 -0.23810416 -0.17600329
v 0.20252687 -0.23519283 -0.18038482
v 0.19701435 -0.22960882 -0.18688897
v 0.20654420 -0.23320422 -0.17892432
v 0.20846226 -0.22822474 -0.18003429
v 0.20994233 -0.22410435 -0.18100797
v 0.21101462 -0.23329968 -0.17575013
v 0.22844322 -0.23011791 -0.16229393
v 0.22723500 -0.23329968 -0.16104763
v 0.25407263 -0.21926805 -0.14445620
v 0.27051954 -0.20846592 -0.12952001
v 0.27192409 -0.21164770 -0.12519689
v 0.31528415 -0.16783464 -0.03709873
v 0.31537477 -0.16824826 -0.03295087
v 0.31558621 -0.16875735 -0.01456787
v 0.30321703 -0.19987513 -0.03709873
v 0.29684366 -0.21177496 -0.03170456
v 0.28983597 -0.22278391 -0.01077054
v 0.28980577 -0.22267255 -0.02897827
v 0.27227146 -0.24936764 -0.01077054
v 0.29788576 -0.15265757 -0.11353226
v 0.30034751 -0.15265757 -0.10963756
v 0.30167656 -0.16485968 -0.09703819
v 0.27218084 -0.21059770 -0.12560584
v 0.27266413 -0.20846592 -0.12640425
v 0.27160694 -0.20226146 -0.13100000
v 0.27826727 -0.18108673 -0.13158421
v 0.30312642 -0.16268015 -0.09483768
v 0.30515018 -0.15886203 -0.09102088
v 0.30551266 -0.16506649 -0.08480883
v 0.16297271 -0.25919933 -0.17703537
v 0.16297271 -0.25743344 -0.17874905
v 0.16544957 -0.25477666 -0.18075482
v 0.16297271 -0.25291533 -0.18293586
v 0.16336539 -0.25239032 -0.18332532
v 0.16297271 -0.24839720 -0.18686950
v 0.16335028 -0.24834947 -0.18683055
v 0.16955751 -0.24750630 -0.18618793
v 0.17574966 -0.24647222 -0.18525320
v 0.17574966 -0.24337000 -0.18774581
v 0.17574966 -0.23950414 -0.19018000
v 0.18138299 -0.23937688 -0.18833001
v 0.18632161 -0.23721327 -0.18768739
v 0.19044466 -0.23582919 -0.18677213
v 0.18308961 -0.24134957 -0.18622688
v 0.18830007 -0.23937688 -0.18517531
v 0.20101659 -0.23982231 -0.17810643
v 0.19437138 -0.11733986 -0.19654785
v 0.17931392 -0.13025786 -0.20610934
v 0.17537209 -0.12806244 -0.20663512
v 0.17303116 -0.12449885 -0.20593406
v 0.16955751 -0.12352841 -0.20638196
v 0.16955751 -0.12785563 -0.20811511
v 0.16333519 -0.12785563 -0.20926404
v 0.29068173 -0.11732394 -0.11294805
v 0.28948862 -0.11733986 -0.11510962
v 0.28669460 -0.11733986 -0.11984167
v 0.27894689 -0.11733986 -0.13177894
v 0.27334376 -0.11733986 -0.13962677
v 0.27089710 -0.11733986 -0.14276200
v 0.24700452 -0.11733986 -0.16227446
v 0.23310997 -0.11733986 -0.17358857
v 0.22376137 -0.11733986 -0.18069640
v 0.22279479 -0.11733986 -0.18133902
v 0.22037834 -0.11733986 -0.18291637
v 0.21917012 -0.11733986 -0.18369532
v 0.19872097 -0.11733986 -0.19432785
v 0.31628095 -0.15243484 -0.01077054
v 0.31575235 -0.14879171 -0.01265947
v 0.30617718 -0.11732394 -0.01655417
v 0.16955751 -0.13406009 -0.20895248
v 0.17574966 -0.13406009 -0.20749196
v 0.16333519 -0.18367989 -0.20891353
v 0.18197200 -0.19608881 -0.20270147
v 0.17574966 -0.19608881 -0.20441515
v 0.16380337 -0.20243646 -0.20667407
v 0.18197200 -0.20226146 -0.20192252
v 0.16617450 -0.20463187 -0.20568092
v 0.18213812 -0.20848182 -0.20048150
v 0.18017477 -0.21314312 -0.19995571
v 0.17828693 -0.21729534 -0.19944938
v 0.17413367 -0.21861577 -0.19987782
v 0.16335028 -0.21468628 -0.20336358
v 0.16297271 -0.21468628 -0.20342198
v 0.19840382 -0.23707008 -0.18145586
v 0.19287619 -0.23169287 -0.18807687
v 0.19107896 -0.22384979 -0.19333471
v 0.19843402 -0.22547251 -0.18792108
v 0.22365565 -0.20846592 -0.17615907
v 0.22326297 -0.21059770 -0.17573065
v 0.22285519 -0.21255450 -0.17532171
v 0.19431096 -0.22143165 -0.19220525
v 0.20051820 -0.22039758 -0.18854421
v 0.20379551 -0.21801125 -0.18725897
v 0.27817663 -0.16236199 -0.13764047
v 0.27573000 -0.17747543 -0.13536206
v 0.23977030 -0.20846592 -0.16122289
v 0.30676619 -0.15886203 -0.08480883
v 0.31564661 -0.16369832 -0.03881240
v 0.31605437 -0.16548013 -0.03509295
v 0.31726261 -0.15886203 -0.01655417
v 0.31558621 -0.16875735 -0.01293210
v 0.30872954 -0.18579576 -0.01655417
v 0.30682660 -0.18988435 -0.01655417
v 0.29158789 -0.21936351 -0.01077054
v 0.29803679 -0.14646901 -0.11366858
v 0.27870525 -0.17747543 -0.13226578
v 0.28459531 -0.15065305 -0.13170105
v 0.28480676 -0.14646901 -0.13189578
v 0.30040792 -0.14646901 -0.10963756
v 0.30635840 -0.14646901 -0.09102088
v 0.30614698 -0.15265757 -0.09102088
v 0.16297271 -0.25196079 -0.18377321
v 0.16955751 -0.24440407 -0.18842738
v 0.16297271 -0.24531088 -0.18889476
v 0.16335028 -0.24523133 -0.18889476
v 0.16954242 -0.23907460 -0.19179630
v 0.17159641 -0.23598828 -0.19319840
v 0.17574966 -0.23492238 -0.19271156
v 0.17932901 -0.13406009 -0.20610934
v 0.20483759 -0.13600097 -0.19376313
v 0.20828102 -0.14026455 -0.19255576
v 0.20929292 -0.17747543 -0.19319840
v 0.29226754 -0.11732394 -0.10971545
v 0.29154259 -0.12165117 -0.11419436
v 0.27872034 -0.11767394 -0.13242157
v 0.27257352 -0.12295569 -0.14465093
v 0.27168245 -0.11881938 -0.14357989
v 0.26641159 -0.12402158 -0.15047352
v 0.26050640 -0.12917606 -0.15726976
v 0.25389138 -0.13051241 -0.16268340
v 0.25420855 -0.13406009 -0.16299499
v 0.24718575 -0.14285770 -0.16866177
v 0.31638665 -0.15294392 -0.01077054
v 0.31697564 -0.15265757 -0.01655417
v 0.30948468 -0.11776940 -0.03102299
v 0.30919773 -0.11732394 -0.03061405
v 0.18748450 -0.19608881 -0.20059833
v 0.18660854 -0.20226146 -0.20020886
v 0.18565707 -0.20642958 -0.19981939
v 0.18432802 -0.21059770 -0.19935202
v 0.18212303 -0.21500447 -0.19890415
v 0.17574966 -0.22709522 -0.19606101
v 0.17602152 -0.22076348 -0.19861204
v 0.16954242 -0.23368148 -0.19454206
v 0.16955751 -0.22709522 -0.19724888
v 0.16297271 -0.22647477 -0.19859254
v 0.19221167 -0.21971350 -0.19386049
v 0.19657637 -0.21468628 -0.19288681
v 0.17941962 -0.23069063 -0.19358787
v 0.18816414 -0.21468628 -0.19682046
v 0.19737683 -0.21142497 -0.19333471
v 0.19810176 -0.20727275 -0.19387998
v 0.22284010 -0.18759347 -0.18130008
v 0.22339889 -0.18367989 -0.18170902
v 0.24256432 -0.16506649 -0.16988860
v 0.24674777 -0.15391436 -0.16817493
v 0.24708005 -0.14977806 -0.16858388
v 0.27844849 -0.15887795 -0.13793257
v 0.30774787 -0.15265757 -0.08480883
v 0.31712669 -0.15886203 -0.03517085
v 0.31694546 -0.15844840 -0.01077054
v 0.31694546 -0.15886203 -0.01077054
v 0.31597889 -0.16476422 -0.01077054
v 0.31372855 -0.17088915 -0.01077054
v 0.31023983 -0.17982993 -0.01077054
v 0.30898629 -0.18302761 -0.01077054
v 0.30632821 -0.18961389 -0.01077054
v 0.30499915 -0.19252521 -0.01077054
v 0.30412319 -0.19443428 -0.01077054
v 0.30527102 -0.19250931 -0.01318525
v 0.29722124 -0.14172817 -0.11318174
v 0.28477656 -0.14026455 -0.13179841
v 0.28456511 -0.13668505 -0.13154525
v 0.27867503 -0.15265757 -0.13812731
v 0.26683446 -0.12785563 -0.15111614
v 0.29661713 -0.13759186 -0.11244174
v 0.30379094 -0.13542825 -0.09592821
v 0.30613187 -0.14026455 -0.09102088
v 0.30820094 -0.14646901 -0.08480883
v 0.16335028 -0.24041095 -0.19199103
v 0.16297271 -0.24042685 -0.19201052
v 0.16335028 -0.23730871 -0.19389943
v 0.16747335 -0.23670417 -0.19354892
v 0.16335028 -0.23329968 -0.19572995
v 0.17574966 -0.23180424 -0.19405522
v 0.19437138 -0.20226146 -0.19678152
v 0.18968951 -0.20226146 -0.19892360
v 0.19059567 -0.19608881 -0.19927413
v 0.24717066 -0.14646901 -0.16866177
v 0.24334965 -0.15887795 -0.17020018
v 0.29361168 -0.12165117 -0.10963756
v 0.30380604 -0.11732394 -0.08327042
v 0.29214671 -0.12809426 -0.11612224
v 0.26050640 -0.13251693 -0.15726976
v 0.31650748 -0.15265757 -0.02897827
v 0.30954510 -0.11743531 -0.03517085
v 0.30951488 -0.11732394 -0.03517085
v 0.18789228 -0.20848182 -0.19841731
v 0.18799801 -0.21059770 -0.19787203
v 0.16297271 -0.23301332 -0.19590522
v 0.19453750 -0.21059770 -0.19495100
v 0.19656128 -0.21059770 -0.19393838
v 0.19494528 -0.20899091 -0.19512628
v 0.31622051 -0.15249847 -0.03520980
v 0.30904670 -0.13978729 -0.07902519
v 0.30918262 -0.12459430 -0.06985317
v 0.28923187 -0.13406009 -0.12307428
v 0.30653963 -0.12165117 -0.07859678
v 0.30794421 -0.14026455 -0.08480883
v 0.16297271 -0.23732461 -0.19391893
v 0.30724947 -0.11732394 -0.06617268
v 0.30934876 -0.11783303 -0.04138290
v 0.30921282 -0.11732394 -0.04138290
v 0.30927324 -0.12406931 -0.06617268
v 0.30756664 -0.12785563 -0.07859678
v 0.30801971 -0.12214433 -0.07203420
v 0.30845769 -0.12096708 -0.06617268
v 0.30795932 -0.11732394 -0.05999957
f 1 2 11
f 1 11 3
f 1 3 16
f 1 16 4
f 1 4 5
f 1 5 2
f 2 6 7
f 2 7 8
f 2 8 9
f 2 9 10
f 2 10 34
f 2 34 11
f 2 5 12
f 2 12 13
f 2 13 14
f 2 14 15
f 2 15 6
f 3 11 34
f 3 34 17
f 3 17 18
f 3 18 19
f 3 19 20
f 3 20 16
f 4 16 41
f 4 41 74
f 4 74 112
f 4 112 170
f 4 170 255
f 4 255 318
f 4 318 372
f 4 372 382
f 4 382 353
f 4 353 286
f 4 286 207
f 4 207 284
f 4 284 205
f 4 205 203
f 4 203 202
f 4 202 145
f 4 145 99
f 4 99 68
f 4 68 37
f 4 37 12
f 4 12 5
f 6 21 7
f 6 15 14
f 6 14 22
f 6 22 23
f 6 23 21
f 7 24 25
f 7 25 8
f 7 21 26
f 7 26 24
f 8 25 27
f 8 27 28
f 8 28 29
f 8 29 9
f 9 29 10
f 10 30 31
f 10 31 32
f 10 32 33
f 10 33 34
f 10 29 35
f 10 35 36
f 10 36 30
f 12 37 13
f 13 37 38
f 13 38 39
f 13 39 14
f 14 39 40
f 14 40 22
f 16 20 42
f 16 42 41
f 17 34 18
f 18 34 43
f 18 43 44
f 18 44 66
f 18 66 98
f 18 98 97
f 18 97 96
f 18 96 144
f 18 144 191
f 18 191 189
f 18 189 276
f 18 276 341
f 18 341 340
f 18 340 339
f 18 339 338
f 18 338 337
f 18 337 336
f 18 336 335
f 18 335 334
f 18 334 333
f 18 333 305
f 18 305 239
f 18 239 160
f 18 160 110
f 18 110 109
f 18 109 75
f 18 75 45
f 18 45 20
f 18 20 19
f 20 45 42
f 21 23 46
f 21 46 47
f 21 47 48
f 21 48 26
f 22 46 23
f 22 40 46
f 24 26 49
f 24 49 50
f 24 50 51
f 24 51 52
f 24 52 25
f 25 52 53
f 25 53 27
f 26 48 49
f 27 53 28
f 28 53 54
f 28 54 29
f 29 54 53
f 29 53 55
f 29 55 56
f 29 56 35
f 30 36 31
f 31 57 58
f 31 58 32
f 31 36 56
f 31 56 59
f 31 59 60
f 31 60 57
f 32 61 33
f 32 58 61
f 33 61 62
f 33 62 63
f 33 63 64
f 33 64 65
f 33 65 66
f 33 66 67
f 33 67 34
f 34 67 43
f 35 56 36
f 37 68 69
f 37 69 70
f 37 70 38
f 38 70 39
f 39 70 71
f 39 71 40
f 40 71 72
f 40 72 46
f 41 73 74
f 41 42 45
f 41 45 75
f 41 75 73
f 43 67 44
f 44 67 66
f 46 76 77
f 46 77 47
f 46 72 78
f 46 78 79
f 46 79 76
f 47 77 48
f 48 77 80
f 48 80 49
f 49 80 76
f 49 76 50
f 50 76 51
f 51 76 81
f 51 81 82
f 51 82 52
f 52 82 53
f 53 82 55
f 55 82 56
f 56 83 84
f 56 84 85
f 56 85 59
f 56 82 83
f 57 86 87
f 57 87 88
f 57 88 62
f 57 62 58
f 57 60 89
f 57 89 90
f 57 90 91
f 57 91 86
f 58 62 61
f 59 85 92
f 59 92 93
f 59 93 94
f 59 94 60
f 60 94 89
f 62 88 95
f 62 95 63
f 63 95 64
f 64 95 96
f 64 96 97
f 64 97 98
f 64 98 65
f 65 98 66
f 68 99 69
f 69 99 100
f 69 100 101
f 69 101 70
f 70 101 103
f 70 103 102
f 70 102 71
f 71 102 72
f 72 103 104
f 72 104 105
f 72 105 106
f 72 106 107
f 72 107 78
f 72 102 103
f 73 108 112
f 73 112 74
f 73 75 109
f 73 109 110
f 73 110 111
f 73 111 108
f 76 79 113
f 76 113 114
f 76 114 115
f 76 115 116
f 76 116 81
f 76 80 77
f 78 107 113
f 78 113 79
f 81 117 118
f 81 118 119
f 81 119 82
f 81 116 120
f 81 120 121
f 81 121 117
f 82 119 83
f 83 119 122
f 83 122 123
f 83 123 84
f 84 123 85
f 85 124 92
f 85 123 124
f 86 91 125
f 86 125 126
f 86 126 87
f 87 126 127
f 87 127 128
f 87 128 88
f 88 128 129
f 88 129 130
f 88 130 131
f 88 131 95
f 89 94 132
f 89 132 133
f 89 133 134
f 89 134 90
f 90 135 91
f 90 134 135
f 91 135 136
f 91 136 137
f 91 137 138
f 91 138 139
f 91 139 140
f 91 140 141
f 91 141 126
f 91 126 125
f 92 124 142
f 92 142 143
f 92 143 93
f 93 143 94
f 94 143 132
f 95 131 130
f 95 130 144
f 95 144 96
f 99 145 100
f 100 145 146
f 100 146 147
f 100 147 103
f 100 103 101
f 103 147 148
f 103 148 104
f 104 148 149
f 104 149 150
f 104 150 105
f 105 150 151
f 105 151 106
f 106 151 152
f 106 152 153
f 106 153 107
f 107 153 154
f 107 154 155
f 107 155 113
f 108 156 157
f 108 157 158
f 108 158 112
f 108 111 159
f 108 159 156
f 110 160 241
f 110 241 308
f 110 308 369
f 110 369 385
f 110 385 390
f 110 390 383
f 110 383 364
f 110 364 295
f 110 295 226
f 110 226 159
f 110 159 111
f 112 158 161
f 112 161 162
f 112 162 163
f 112 163 164
f 112 164 165
f 112 165 166
f 112 166 167
f 112 167 168
f 112 168 169
f 112 169 170
f 113 155 114
f 114 155 120
f 114 120 116
f 114 116 115
f 117 122 119
f 117 119 118
f 117 121 171
f 117 171 122
f 120 155 172
f 120 172 173
f 120 173 174
f 120 174 175
f 120 175 176
f 120 176 177
f 120 177 178
f 120 178 179
f 120 179 180
f 120 180 121
f 121 180 123
f 121 123 122
f 121 122 171
f 123 180 179
f 123 179 181
f 123 181 182
f 123 182 183
f 123 183 124
f 124 183 142
f 126 141 184
f 126 184 185
f 126 185 186
f 126 186 273
f 126 273 187
f 126 187 188
f 126 188 128
f 126 128 127
f 128 188 189
f 128 189 130
f 128 130 190
f 128 190 129
f 129 190 130
f 130 189 191
f 130 191 144
f 132 143 136
f 132 136 133
f 133 136 134
f 134 136 135
f 136 192 193
f 136 193 194
f 136 194 139
f 136 139 137
f 136 143 183
f 136 183 195
f 136 195 196
f 136 196 197
f 136 197 198
f 136 198 192
f 137 139 138
f 139 194 199
f 139 199 200
f 139 200 201
f 139 201 184
f 139 184 140
f 140 184 141
f 142 183 143
f 145 202 146
f 146 202 147
f 147 202 203
f 147 203 148
f 148 203 204
f 148 204 205
f 148 205 206
f 148 206 149
f 149 206 207
f 149 207 208
f 149 208 209
f 149 209 150
f 150 209 210
f 150 210 151
f 151 211 212
f 151 212 213
f 151 213 214
f 151 214 215
f 151 215 216
f 151 216 152
f 151 210 211
f 152 216 153
f 153 155 154
f 153 216 217
f 153 217 215
f 153 215 155
f 155 215 218
f 155 218 172
f 156 219 220
f 156 220 221
f 156 221 222
f 156 222 223
f 156 223 157
f 156 159 219
f 157 223 158
f 158 223 224
f 158 224 225
f 158 225 161
f 159 226 227
f 159 227 228
f 159 228 229
f 159 229 230
f 159 230 231
f 159 231 232
f 159 232 233
f 159 233 234
f 159 234 235
f 159 235 236
f 159 236 237
f 159 237 238
f 159 238 219
f 160 239 240
f 160 240 241
f 161 225 162
f 162 225 163
f 163 225 242
f 163 242 164
f 164 242 165
f 165 242 243
f 165 243 244
f 165 244 245
f 165 245 166
f 166 245 246
f 166 246 247
f 166 247 167
f 167 247 168
f 168 247 248
f 168 248 249
f 168 249 169
f 169 249 248
f 169 248 250
f 169 250 251
f 169 251 252
f 169 252 253
f 169 253 254
f 169 254 170
f 170 254 255
f 172 218 256
f 172 256 173
f 173 256 215
f 173 215 257
f 173 257 174
f 174 257 258
f 174 258 259
f 174 259 176
f 174 176 175
f 176 259 177
f 177 260 261
f 177 261 262
f 177 262 179
f 177 179 178
f 177 259 263
f 177 263 264
f 177 264 265
f 177 265 260
f 179 262 181
f 181 266 267
f 181 267 198
f 181 198 197
f 181 197 182
f 181 262 261
f 181 261 260
f 181 260 268
f 181 268 266
f 182 197 196
f 182 196 195
f 182 195 183
f 184 201 269
f 184 269 270
f 184 270 271
f 184 271 185
f 185 271 186
f 186 271 272
f 186 272 273
f 187 273 274
f 187 274 275
f 187 275 276
f 187 276 188
f 188 276 189
f 192 277 193
f 192 198 278
f 192 278 266
f 192 266 279
f 192 279 280
f 192 280 277
f 193 277 281
f 193 281 282
f 193 282 283
f 193 283 200
f 193 200 199
f 193 199 194
f 198 267 266
f 198 266 278
f 200 283 269
f 200 269 201
f 203 205 204
f 205 284 206
f 206 284 207
f 207 285 208
f 207 286 287
f 207 287 285
f 208 285 209
f 209 285 211
f 209 211 210
f 211 285 288
f 211 288 212
f 212 288 289
f 212 289 290
f 212 290 213
f 213 290 258
f 213 258 214
f 214 258 215
f 215 217 216
f 215 258 257
f 215 256 218
f 219 238 220
f 220 291 243
f 220 243 224
f 220 224 221
f 220 238 292
f 220 292 293
f 220 293 294
f 220 294 291
f 221 224 222
f 222 224 223
f 224 243 242
f 224 242 225
f 226 295 296
f 226 296 227
f 227 296 228
f 228 297 229
f 228 296 298
f 228 298 297
f 229 297 299
f 229 299 230
f 230 299 231
f 231 299 232
f 232 299 233
f 233 299 300
f 233 300 301
f 233 301 234
f 234 301 302
f 234 302 235
f 235 302 303
f 235 303 236
f 236 303 304
f 236 304 237
f 237 304 293
f 237 293 292
f 237 292 238
f 239 305 240
f 240 306 307
f 240 307 241
f 240 305 306
f 241 307 308
f 243 245 244
f 243 291 294
f 243 294 245
f 245 309 310
f 245 310 248
f 245 248 246
f 245 294 309
f 246 248 247
f 248 310 311
f 248 311 312
f 248 312 250
f 250 312 251
f 251 312 313
f 251 313 252
f 252 314 315
f 252 315 253
f 252 313 258
f 252 258 314
f 253 315 314
f 253 314 289
f 253 289 316
f 253 316 317
f 253 317 254
f 254 317 318
f 254 318 255
f 258 319 320
f 258 320 263
f 258 263 259
f 258 290 321
f 258 321 314
f 258 313 312
f 258 312 322
f 258 322 319
f 260 265 323
f 260 323 324
f 260 324 294
f 260 294 325
f 260 325 326
f 260 326 327
f 260 327 266
f 260 266 268
f 263 320 265
f 263 265 264
f 265 320 323
f 266 327 328
f 266 328 329
f 266 329 330
f 266 330 279
f 269 283 331
f 269 331 270
f 270 331 332
f 270 332 271
f 271 332 272
f 272 332 306
f 272 306 333
f 272 333 334
f 272 334 273
f 273 334 335
f 273 335 336
f 273 336 337
f 273 337 338
f 273 338 339
f 273 339 274
f 274 339 340
f 274 340 341
f 274 341 342
f 274 342 275
f 275 342 276
f 276 342 341
f 277 343 281
f 277 280 344
f 277 344 345
f 277 345 343
f 279 330 280
f 280 330 346
f 280 346 347
f 280 347 344
f 281 343 348
f 281 348 296
f 281 296 349
f 281 349 350
f 281 350 282
f 282 350 351
f 282 351 283
f 283 351 331
f 285 287 352
f 285 352 288
f 286 353 352
f 286 352 287
f 288 352 354
f 288 354 355
f 288 355 289
f 289 355 356
f 289 356 316
f 289 314 357
f 289 357 290
f 290 357 321
f 293 304 294
f 294 326 325
f 294 324 358
f 294 358 359
f 294 359 360
f 294 360 309
f 294 304 361
f 294 361 329
f 294 329 362
f 294 362 326
f 295 363 296
f 295 364 349
f 295 349 363
f 296 365 298
f 296 363 349
f 296 348 365
f 297 298 299
f 298 347 301
f 298 301 300
f 298 300 299
f 298 365 345
f 298 345 344
f 298 344 347
f 301 347 366
f 301 366 303
f 301 303 302
f 303 329 361
f 303 361 304
f 303 366 329
f 305 333 306
f 306 332 367
f 306 367 368
f 306 368 307
f 307 368 369
f 307 369 308
f 309 360 359
f 309 359 310
f 310 359 311
f 311 359 370
f 311 370 371
f 311 371 312
f 312 371 322
f 314 321 357
f 316 356 317
f 317 356 318
f 318 356 372
f 319 373 323
f 319 323 320
f 319 322 371
f 319 371 370
f 319 370 373
f 323 373 374
f 323 374 324
f 324 374 375
f 324 375 358
f 326 362 327
f 327 362 329
f 327 329 328
f 329 366 330
f 330 366 346
f 331 351 332
f 332 376 367
f 332 351 377
f 332 377 378
f 332 378 376
f 343 345 379
f 343 379 365
f 343 365 348
f 345 365 379
f 346 366 347
f 349 364 380
f 349 380 350
f 350 380 381
f 350 381 351
f 351 381 377
f 352 353 382
f 352 382 354
f 354 382 372
f 354 372 356
f 354 356 355
f 358 375 359
f 359 375 370
f 364 383 380
f 367 376 368
f 368 376 384
f 368 384 385
f 368 385 369
f 370 375 373
f 373 375 374
f 376 378 386
f 376 386 384
f 377 381 378
f 378 381 387
f 378 387 380
f 378 380 388
f 378 388 383
f 378 383 389
f 378 389 390
f 378 390 384
f 378 384 386
f 380 383 388
f 380 387 381
f 383 390 389
f 384 390 385

