# https://github.com/mikedh/trimesh
v 0.09735529 0.03657426 -0.10548790
v 0.09735529 0.03624284 -0.10598953
v 0.09735529 0.01952133 -0.10548790
v 0.09954827 0.03591143 -0.10548790
v 0.10749303 0.02967475 -0.11146649
v 0.09735529 0.03601688 -0.10632736
v 0.09735529 -0.04225789 -0.17012630
v 0.09737453 -0.11732393 -0.19392806
v 0.27365963 -0.11730886 -0.10548790
v 0.10204904 0.03514314 -0.10548790
v 0.10749303 0.02631539 -0.11620637
v 0.10135652 0.02860518 -0.11548975
v 0.10345332 0.03017188 -0.11237762
v 0.11389885 0.02890647 -0.10947022
v 0.11838100 0.02474869 -0.11354467
v 0.11368725 0.02559229 -0.11457864
v 0.09735529 0.03033759 -0.11453769
v 0.09735529 -0.01792884 -0.17012630
v 0.09737453 -0.11732393 -0.21003134
v 0.21404509 -0.11732393 -0.17012630
v 0.29387740 -0.11730886 -0.10548790
v 0.11005151 0.03256712 -0.10548790
v 0.10127957 0.02521568 -0.12029106
v 0.11990069 0.00641528 -0.13862608
v 0.11545702 0.03078952 -0.10548790
v 0.11609183 0.03017188 -0.10616356
v 0.12251689 0.02401053 -0.11244928
v 0.14360031 0.00667138 -0.12661772
v 0.13811785 0.00727395 -0.12851162
v 0.12161276 0.01144680 -0.13078431
v 0.09735529 0.02765612 -0.11827431
v 0.09735529 -0.01449415 -0.16783313
v 0.09737453 -0.03930526 -0.18629101
v 0.09737453 -0.04043509 -0.18699739
v 0.09737453 -0.04385472 -0.18906534
v 0.09737453 -0.04912727 -0.19217747
v 0.09737453 -0.05075422 -0.19309883
v 0.09737453 -0.05351102 -0.19465490
v 0.09737453 -0.06205254 -0.19927193
v 0.09737453 -0.06267019 -0.19959953
v 0.09737453 -0.06334809 -0.19987594
v 0.09737453 -0.06566801 -0.20079728
v 0.09737453 -0.06734016 -0.20142178
v 0.09737453 -0.07196493 -0.20291641
v 0.09737453 -0.07425473 -0.20332591
v 0.09737453 -0.11539569 -0.20976517
v 0.10127957 -0.11539569 -0.20979589
v 0.10127957 -0.11732393 -0.21005183
v 0.23685983 -0.11732393 -0.17012630
v 0.29224228 -0.11730886 -0.10971591
v 0.29337725 -0.11547101 -0.10548790
v 0.11368725 0.00724382 -0.13984432
v 0.09735529 0.02568268 -0.12081317
v 0.13986839 0.00483351 -0.13075359
v 0.11207136 -0.00625390 -0.15701231
v 0.11368725 0.00481845 -0.14294623
v 0.12817248 0.02557723 -0.10548790
v 0.12957676 0.02435701 -0.10688017
v 0.12611415 0.02334769 -0.11123104
v 0.14190748 0.01191380 -0.11920590
v 0.16104800 0.00597841 -0.11335016
v 0.14771697 0.00549635 -0.12506165
v 0.17845721 -0.04424639 -0.16213095
v 0.16955062 -0.03870268 -0.16137340
v 0.16639580 -0.03787414 -0.16233570
v 0.09737453 -0.03468048 -0.18299460
v 0.09735529 -0.01084855 -0.16464934
v 0.10127957 -0.01108959 -0.16421937
v 0.10749303 -0.02586779 -0.17438502
v 0.10749303 -0.02897106 -0.17681126
v 0.10749303 -0.03344520 -0.17992341
v 0.11990069 -0.04935323 -0.18780613
v 0.11370648 -0.04832885 -0.18855346
v 0.10749303 -0.05203470 -0.19237198
v 0.10127957 -0.05119109 -0.19287361
v 0.10127957 -0.05429437 -0.19455252
v 0.10749303 -0.05515304 -0.19405089
v 0.09795163 -0.06276057 -0.19955856
v 0.11172510 -0.06833441 -0.19980426
v 0.10127957 -0.07196493 -0.20258881
v 0.12609492 -0.10299766 -0.20749250
v 0.11990069 -0.10299766 -0.20780985
v 0.15156430 -0.11732393 -0.20673493
v 0.23649432 -0.11732393 -0.17049484
v 0.27090879 -0.11730886 -0.14275173
v 0.27333261 -0.11730886 -0.13961910
v 0.27896897 -0.11730886 -0.13179780
v 0.28670211 -0.11730886 -0.11985085
v 0.28949143 -0.11730886 -0.11510074
v 0.29066487 -0.11730886 -0.11297138
v 0.29099189 -0.11730886 -0.11232643
v 0.29174212 -0.11562165 -0.10975686
v 0.29122274 -0.11108726 -0.10775034
v 0.29276166 -0.11336199 -0.10548790
v 0.09735529 0.00365849 -0.14757350
v 0.10932051 0.00536077 -0.14346834
v 0.10749303 -0.00575678 -0.15763677
v 0.10749303 -0.00879979 -0.16072845
v 0.16224066 -0.03689495 -0.16331848
v 0.15714295 -0.03889852 -0.16756697
v 0.15129499 -0.04073638 -0.17187687
v 0.14471604 -0.03936552 -0.17344318
v 0.13040393 0.02458298 -0.10548790
v 0.15066018 0.01483629 -0.10548790
v 0.13580945 0.01816553 -0.11302257
v 0.15916280 0.01067851 -0.10548790
v 0.16320250 0.00680695 -0.10939856
v 0.16518388 0.00481845 -0.11132317
v 0.19149969 -0.01282200 -0.11300209
v 0.20434981 -0.05601171 -0.15675637
v 0.18540165 -0.04379446 -0.15645949
v 0.18193905 -0.04272488 -0.15776986
v 0.18578639 -0.04974491 -0.16279638
v 0.18193905 -0.04847950 -0.16387130
v 0.17612957 -0.04689773 -0.16564236
v 0.17434055 -0.04307137 -0.16322635
v 0.16955062 -0.04177582 -0.16440365
v 0.16412586 -0.04048028 -0.16582662
v 0.09735529 -0.00774528 -0.16134268
v 0.10127957 -0.00800138 -0.16110722
v 0.11370648 -0.02687711 -0.17361722
v 0.11370648 -0.02998038 -0.17592061
v 0.12363262 -0.05000100 -0.18735569
v 0.11990069 -0.05336037 -0.19039618
v 0.11395656 -0.05366166 -0.19192153
v 0.11618802 -0.05668961 -0.19326262
v 0.11205212 -0.05592132 -0.19369259
v 0.11395656 -0.05908485 -0.19498250
v 0.11376419 -0.06608981 -0.19841200
v 0.11990069 -0.07032291 -0.19901599
v 0.12419048 -0.07445057 -0.19983499
v 0.11990069 -0.07342619 -0.20021376
v 0.11376419 -0.07163352 -0.20062326
v 0.10749303 -0.07196493 -0.20170841
v 0.12998073 -0.09890013 -0.20612069
v 0.12609492 -0.09816198 -0.20636639
v 0.16014387 -0.11732393 -0.20573168
v 0.15712371 -0.11732393 -0.20611045
v 0.23310866 -0.11732393 -0.17359675
v 0.24699757 -0.11730886 -0.16230499
v 0.23289707 -0.11539569 -0.17347390
v 0.23580180 -0.10918914 -0.16957348
v 0.23505158 -0.10558874 -0.16886712
v 0.23999541 -0.10123512 -0.16148600
v 0.23460914 -0.07515860 -0.14989737
v 0.25261468 -0.07619804 -0.13067169
v 0.28416286 -0.10629677 -0.11882713
v 0.28487463 -0.11040936 -0.11997370
v 0.28549019 -0.11538061 -0.12099743
v 0.28620196 -0.10867694 -0.11639064
v 0.29151130 -0.11010807 -0.10548790
v 0.28533630 -0.10497110 -0.11468101
v 0.09735529 0.00057028 -0.15132035
v 0.15714295 -0.04164025 -0.17012630
v 0.15660432 -0.04138415 -0.17012630
v 0.14902505 -0.04341785 -0.17522447
v 0.13986839 -0.03843152 -0.17431336
v 0.16310632 0.00869001 -0.10548790
v 0.16691519 0.00588803 -0.10718730
v 0.16972374 0.00499922 -0.10548790
v 0.17505232 0.00156453 -0.10548790
v 0.17788011 -0.00030346 -0.10548790
v 0.19249999 -0.01203865 -0.10964425
v 0.21150586 -0.02452706 -0.10548790
v 0.23984151 -0.04659644 -0.10548790
v 0.24041861 -0.05057345 -0.11208074
v 0.23453219 -0.05036255 -0.11877594
v 0.22133581 -0.05711141 -0.14276196
v 0.20848569 -0.05736751 -0.15485223
v 0.21094799 -0.06151023 -0.15707372
v 0.20656203 -0.05947653 -0.15813840
v 0.19282702 -0.05533381 -0.16311375
v 0.17376345 -0.04954907 -0.16905138
v 0.16955062 -0.04524065 -0.16750555
v 0.16601106 -0.04426145 -0.16835524
v 0.16187517 -0.04314669 -0.16933803
v 0.14471604 -0.04245372 -0.17585920
v 0.12609492 -0.04302617 -0.18170470
v 0.12776851 -0.05081448 -0.18678242
v 0.12586407 -0.05307414 -0.18880940
v 0.11990069 -0.05745789 -0.19287361
v 0.11990069 -0.06056116 -0.19449111
v 0.11990069 -0.06577346 -0.19701972
v 0.12619110 -0.07222103 -0.19851436
v 0.11990069 -0.07817148 -0.20166747
v 0.12832637 -0.07576118 -0.19941525
v 0.16174051 -0.11732393 -0.20544502
v 0.22374040 -0.11732393 -0.18070145
v 0.22241307 -0.11159945 -0.18113140
v 0.22173979 -0.10745672 -0.18068098
v 0.22416360 -0.10299766 -0.17646321
v 0.22289399 -0.09926167 -0.17526543
v 0.23447447 -0.06898218 -0.14353999
v 0.23647509 -0.07312490 -0.14576149
v 0.25434599 -0.07386306 -0.12654605
v 0.22808790 -0.07574611 -0.15578382
v 0.22393276 -0.07338099 -0.15753439
v 0.22606803 -0.07122678 -0.15367494
v 0.22820331 -0.06905751 -0.14972334
v 0.23249309 -0.07109120 -0.14774753
v 0.25963608 -0.07485731 -0.11920590
v 0.26634968 -0.07429992 -0.10752512
v 0.28954915 -0.10664325 -0.10548790
v 0.26688831 -0.07378773 -0.10548790
v 0.15845104 -0.04230308 -0.17012630
v 0.15318019 -0.04462300 -0.17441573
v 0.16037471 -0.06878634 -0.18724309
v 0.15712371 -0.07196493 -0.19033475
v 0.13230838 -0.05509278 -0.18810302
v 0.16528006 0.00753005 -0.10548790
v 0.16783854 0.00615918 -0.10548790
v 0.19078792 -0.00910108 -0.10548790
v 0.19388504 -0.01127036 -0.10548790
v 0.19126884 -0.00943250 -0.10548790
v 0.24209220 -0.04847950 -0.10548790
v 0.24686290 -0.05665948 -0.11237762
v 0.25221071 -0.06973540 -0.12359771
v 0.20969761 -0.09386862 -0.18087548
v 0.20556172 -0.09221152 -0.18215514
v 0.22160512 -0.06925334 -0.15569169
v 0.17789934 -0.05123629 -0.16806860
v 0.19732841 -0.09373304 -0.18715096
v 0.19157664 -0.09966842 -0.19354928
v 0.12609492 -0.05881369 -0.19218772
v 0.12924973 -0.06264006 -0.19340594
v 0.12609492 -0.06577346 -0.19565816
v 0.15375729 -0.07523392 -0.19333428
v 0.18815251 -0.10918914 -0.19735755
v 0.18359340 -0.11346744 -0.19940502
v 0.18540165 -0.11732393 -0.19971213
v 0.22277856 -0.11732393 -0.18136687
v 0.22264391 -0.11539569 -0.18130544
v 0.21916205 -0.11539569 -0.18357813
v 0.21946985 -0.10940004 -0.18237012
v 0.19763619 -0.10582977 -0.19349809
v 0.21760390 -0.10460955 -0.18180707
v 0.21946985 -0.10272650 -0.17963677
v 0.25601957 -0.07229636 -0.12139668
v 0.25930905 -0.06571320 -0.10548790
v 0.24907513 -0.05510784 -0.10548790
v 0.25109499 -0.05714154 -0.10548790
v 0.20677362 -0.09676098 -0.18414118
v 0.20054094 -0.09510390 -0.18649576
v 0.20383042 -0.09966842 -0.18729427
v 0.19569329 -0.10170212 -0.19251529
v 0.19392350 -0.10346465 -0.19414304
v 0.19434673 -0.10918914 -0.19551484
v 0.18782549 -0.11547101 -0.19872935
v 0.18584411 -0.11732393 -0.19958928
v 0.21916205 -0.11732393 -0.18371121
v 0.19869421 -0.11539569 -0.19431707
v 0.19811711 -0.10918914 -0.19380520
v 0.19434673 -0.11539569 -0.19647715
v 0.19434673 -0.11732393 -0.19654881
v 0.19869421 -0.11732393 -0.19433754
f 1 2 6
f 1 6 17
f 1 17 31
f 1 31 53
f 1 53 95
f 1 95 153
f 1 153 119
f 1 119 67
f 1 67 32
f 1 32 18
f 1 18 7
f 1 7 3
f 1 3 9
f 1 9 21
f 1 21 51
f 1 51 94
f 1 94 151
f 1 151 203
f 1 203 204
f 1 204 239
f 1 239 241
f 1 241 240
f 1 240 215
f 1 215 165
f 1 165 164
f 1 164 213
f 1 213 214
f 1 214 212
f 1 212 162
f 1 162 161
f 1 161 160
f 1 160 211
f 1 211 210
f 1 210 158
f 1 158 106
f 1 106 104
f 1 104 103
f 1 103 57
f 1 57 25
f 1 25 22
f 1 22 10
f 1 10 4
f 1 4 5
f 1 5 2
f 2 5 6
f 3 7 8
f 3 8 9
f 4 10 5
f 5 11 12
f 5 12 13
f 5 13 6
f 5 10 14
f 5 14 15
f 5 15 16
f 5 16 11
f 6 13 12
f 6 12 17
f 7 18 19
f 7 19 8
f 8 20 9
f 8 19 48
f 8 48 83
f 8 83 138
f 8 138 137
f 8 137 187
f 8 187 230
f 8 230 249
f 8 249 254
f 8 254 255
f 8 255 250
f 8 250 231
f 8 231 188
f 8 188 139
f 8 139 84
f 8 84 49
f 8 49 20
f 9 20 49
f 9 49 21
f 10 22 14
f 11 23 12
f 11 16 24
f 11 24 23
f 12 23 17
f 14 22 25
f 14 25 26
f 14 26 27
f 14 27 15
f 15 27 28
f 15 28 29
f 15 29 30
f 15 30 16
f 16 30 24
f 17 23 31
f 18 32 33
f 18 33 34
f 18 34 35
f 18 35 36
f 18 36 37
f 18 37 38
f 18 38 39
f 18 39 40
f 18 40 41
f 18 41 42
f 18 42 43
f 18 43 44
f 18 44 45
f 18 45 46
f 18 46 19
f 19 46 47
f 19 47 48
f 21 50 51
f 21 49 50
f 23 24 52
f 23 52 53
f 23 53 31
f 24 30 29
f 24 29 28
f 24 28 54
f 24 54 55
f 24 55 56
f 24 56 52
f 25 57 58
f 25 58 26
f 26 58 59
f 26 59 27
f 27 59 28
f 28 59 60
f 28 60 61
f 28 61 62
f 28 62 63
f 28 63 64
f 28 64 65
f 28 65 54
f 32 66 33
f 32 67 68
f 32 68 69
f 32 69 70
f 32 70 66
f 33 66 70
f 33 70 71
f 33 71 72
f 33 72 73
f 33 73 74
f 33 74 34
f 34 74 75
f 34 75 35
f 35 75 36
f 36 75 37
f 37 75 38
f 38 75 76
f 38 76 39
f 39 76 77
f 39 77 78
f 39 78 40
f 40 78 41
f 41 78 79
f 41 79 42
f 42 79 43
f 43 79 80
f 43 80 44
f 44 80 81
f 44 81 82
f 44 82 45
f 45 47 46
f 45 82 47
f 47 82 48
f 48 82 81
f 48 81 83
f 49 84 85
f 49 85 86
f 49 86 87
f 49 87 88
f 49 88 89
f 49 89 90
f 49 90 91
f 49 91 50
f 50 91 92
f 50 92 51
f 51 92 93
f 51 93 94
f 52 56 53
f 53 56 96
f 53 96 97
f 53 97 95
f 54 65 55
f 55 98 97
f 55 97 96
f 55 96 56
f 55 65 99
f 55 99 100
f 55 100 101
f 55 101 102
f 55 102 98
f 57 103 58
f 58 103 104
f 58 104 61
f 58 61 105
f 58 105 59
f 59 105 60
f 60 105 61
f 61 104 106
f 61 106 107
f 61 107 108
f 61 108 109
f 61 109 62
f 62 109 110
f 62 110 111
f 62 111 112
f 62 112 63
f 63 112 110
f 63 110 113
f 63 113 114
f 63 114 115
f 63 115 116
f 63 116 65
f 63 65 64
f 65 116 117
f 65 117 118
f 65 118 100
f 65 100 99
f 67 119 120
f 67 120 68
f 68 120 98
f 68 98 121
f 68 121 69
f 69 121 70
f 70 121 122
f 70 122 123
f 70 123 71
f 71 123 72
f 72 123 124
f 72 124 74
f 72 74 73
f 74 124 125
f 74 125 126
f 74 126 127
f 74 127 77
f 74 77 76
f 74 76 75
f 77 127 78
f 78 127 128
f 78 128 129
f 78 129 79
f 79 129 130
f 79 130 131
f 79 131 132
f 79 132 133
f 79 133 134
f 79 134 80
f 80 134 135
f 80 135 136
f 80 136 81
f 81 136 135
f 81 135 137
f 81 137 138
f 81 138 83
f 84 139 85
f 85 139 140
f 85 140 141
f 85 141 142
f 85 142 143
f 85 143 144
f 85 144 145
f 85 145 146
f 85 146 147
f 85 147 86
f 86 147 87
f 87 147 148
f 87 148 149
f 87 149 88
f 88 149 148
f 88 148 89
f 89 148 90
f 90 148 150
f 90 150 91
f 91 150 92
f 92 150 93
f 93 151 94
f 93 150 147
f 93 147 152
f 93 152 151
f 95 97 153
f 97 98 120
f 97 120 119
f 97 119 153
f 98 102 121
f 100 154 155
f 100 155 101
f 100 118 154
f 101 155 154
f 101 154 156
f 101 156 102
f 102 156 157
f 102 157 121
f 106 158 107
f 107 158 159
f 107 159 108
f 108 159 160
f 108 160 109
f 109 160 161
f 109 161 162
f 109 162 163
f 109 163 164
f 109 164 165
f 109 165 166
f 109 166 167
f 109 167 168
f 109 168 169
f 109 169 110
f 110 169 170
f 110 170 171
f 110 171 172
f 110 172 113
f 110 112 111
f 113 172 173
f 113 173 114
f 114 173 115
f 115 173 174
f 115 174 116
f 116 174 117
f 117 174 175
f 117 175 176
f 117 176 118
f 118 176 154
f 121 157 177
f 121 177 122
f 122 177 178
f 122 178 179
f 122 179 123
f 123 179 180
f 123 180 124
f 124 181 126
f 124 126 125
f 124 180 181
f 126 181 182
f 126 182 128
f 126 128 127
f 128 182 183
f 128 183 129
f 129 183 130
f 130 183 184
f 130 184 131
f 131 185 132
f 131 184 186
f 131 186 187
f 131 187 135
f 131 135 185
f 132 185 134
f 132 134 133
f 134 185 135
f 135 187 137
f 139 188 189
f 139 189 141
f 139 141 140
f 141 189 190
f 141 190 142
f 142 190 143
f 143 191 192
f 143 192 145
f 143 145 144
f 143 190 191
f 145 193 194
f 145 194 195
f 145 195 146
f 145 192 196
f 145 196 197
f 145 197 198
f 145 198 199
f 145 199 200
f 145 200 193
f 146 195 147
f 147 150 148
f 147 195 201
f 147 201 202
f 147 202 152
f 151 152 203
f 152 202 204
f 152 204 203
f 154 176 205
f 154 205 156
f 156 177 157
f 156 205 176
f 156 176 206
f 156 206 207
f 156 207 208
f 156 208 209
f 156 209 179
f 156 179 177
f 158 210 159
f 159 211 160
f 159 210 211
f 162 212 163
f 163 213 164
f 163 212 214
f 163 214 213
f 165 215 166
f 166 215 216
f 166 216 217
f 166 217 167
f 167 217 193
f 167 193 168
f 168 193 199
f 168 199 169
f 169 199 170
f 170 218 219
f 170 219 172
f 170 172 171
f 170 199 220
f 170 220 197
f 170 197 218
f 172 221 173
f 172 219 221
f 173 175 174
f 173 221 219
f 173 219 222
f 173 222 223
f 173 223 207
f 173 207 206
f 173 206 176
f 173 176 175
f 177 179 178
f 179 209 180
f 180 209 224
f 180 224 181
f 181 224 182
f 182 224 225
f 182 225 226
f 182 226 183
f 183 226 184
f 184 226 227
f 184 227 186
f 186 227 223
f 186 223 228
f 186 228 187
f 187 228 229
f 187 229 230
f 188 231 232
f 188 232 189
f 189 232 233
f 189 233 234
f 189 234 190
f 190 234 235
f 190 235 236
f 190 236 237
f 190 237 191
f 191 237 192
f 192 197 196
f 192 237 218
f 192 218 197
f 193 200 199
f 193 217 195
f 193 195 194
f 195 217 216
f 195 216 238
f 195 238 202
f 195 202 201
f 197 220 198
f 198 220 199
f 202 238 216
f 202 216 239
f 202 239 204
f 207 223 208
f 208 227 209
f 208 223 227
f 209 227 224
f 215 240 216
f 216 240 241
f 216 241 239
f 218 237 236
f 218 236 242
f 218 242 219
f 219 242 243
f 219 243 222
f 222 243 223
f 223 243 244
f 223 244 245
f 223 245 235
f 223 235 246
f 223 246 228
f 224 227 225
f 225 227 226
f 228 246 247
f 228 247 248
f 228 248 229
f 229 248 230
f 230 248 249
f 231 250 233
f 231 233 232
f 233 250 251
f 233 251 252
f 233 252 235
f 233 235 234
f 235 252 247
f 235 247 246
f 235 245 244
f 235 244 236
f 236 244 242
f 242 244 243
f 247 253 248
f 247 252 253
f 248 253 249
f 249 253 254
f 250 255 251
f 251 255 254
f 251 254 253
f 251 253 252

