# https://github.com/mikedh/trimesh
v -0.22528349 -0.08695768 0.10970002
v -0.22527530 -0.08670022 0.10964627
v -0.22527530 -0.07697595 0.10893408
v -0.22636515 -0.08695768 0.10921626
v -0.22527530 -0.08695768 0.10835624
v -0.21885100 0.06445169 0.07101271
v -0.21885100 0.06528350 0.07091865
v -0.21885100 0.06686790 0.07071708
v -0.21885100 0.07639412 0.06934643
v -0.22527530 -0.07570843 0.10874594
v -0.24957132 -0.06857862 0.09673259
v -0.25038255 -0.06962829 0.09645039
v -0.22714360 -0.08695768 0.10884000
v -0.22527530 -0.08695768 0.10134174
v -0.21885100 0.06445169 0.05760182
v -0.21885100 0.07793891 0.06910455
v -0.21885100 0.07908760 0.06890298
v -0.22527530 -0.07428246 0.10849062
v -0.22528349 -0.07428246 0.10849062
v -0.23864016 -0.02970137 0.09518724
v -0.23992666 -0.05055606 0.09818386
v -0.26641055 -0.02997864 0.08271699
v -0.26701692 -0.02938449 0.08232731
v -0.25248029 -0.07028185 0.09514693
v -0.25248029 -0.07047991 0.09514693
v -0.23233057 -0.08695768 0.10600464
v -0.22840552 -0.08695768 0.10818155
v -0.26650887 -0.03083026 0.08278419
v -0.26488642 -0.03595976 0.08430266
v -0.27092559 -0.05410115 0.08263638
v -0.25715102 -0.08695768 0.08043258
v -0.29096877 -0.05604204 0.02779687
v -0.27188431 0.01238429 -0.01833496
v -0.24643291 0.06447149 -0.02758014
v -0.23894335 0.08045414 -0.02758014
v -0.21987527 0.10055624 0.04339811
v -0.21885100 0.06811562 0.05680900
v -0.21885100 0.08039473 0.06864766
v -0.22527530 -0.07271787 0.10818155
v -0.23782074 -0.02922605 0.09542912
v -0.23841073 -0.02869132 0.09507974
v -0.24163927 -0.02841405 0.09358815
v -0.26595986 -0.02774067 0.08252887
v -0.26621388 -0.02894878 0.08263638
v -0.26714803 -0.02774067 0.08197793
v -0.26825425 -0.02774067 0.08138666
v -0.26840175 -0.02926566 0.08150760
v -0.27094197 -0.05566575 0.08264981
v -0.25709366 -0.07028185 0.09202937
v -0.25715102 -0.07075718 0.09198906
v -0.25715102 -0.07170781 0.09197561
v -0.25715102 -0.07184645 0.09196218
v -0.25715102 -0.07301495 0.09184124
v -0.23722255 -0.08695768 0.10306177
v -0.23615730 -0.08695768 0.10372022
v -0.23451844 -0.08695768 0.10470118
v -0.27100753 -0.03195914 0.07958600
v -0.28346281 -0.02841405 0.06722326
v -0.27734170 -0.04326781 0.07505747
v -0.27259722 -0.05602224 0.08117165
v -0.27236778 -0.05602224 0.08138666
v -0.27114684 -0.05602224 0.08248855
v -0.26918021 -0.02926566 0.08090290
v -0.29209139 -0.05604204 0.02779687
v -0.25715102 -0.08695768 0.08990620
v -0.30256366 -0.05598263 0.02779687
v -0.28372504 0.01238429 -0.01833496
v -0.25920778 0.06447149 -0.02758014
v -0.23630480 0.10764643 -0.01208641
v -0.22988048 0.11533078 0.00352827
v -0.25368485 0.08045414 -0.02758014
v -0.22988048 0.11537039 0.00621582
v -0.21987527 0.10055624 0.06414601
v -0.21885100 0.08039473 0.05425582
v -0.21885100 0.07304707 0.05577429
v -0.21987527 0.10041760 0.06418633
v -0.21987527 0.09982345 0.06434758
v -0.23615730 -0.02930527 0.09592632
v -0.23737005 -0.02801794 0.09529474
v -0.24290117 -0.02421538 0.09193530
v -0.24134427 -0.02738418 0.09345377
v -0.24140983 -0.02825560 0.09365534
v -0.25089879 0.00254120 0.08115822
v -0.25114462 0.00172919 0.08129260
v -0.25069393 -0.00237044 0.08263638
v -0.26172343 -0.02696828 0.08424890
v -0.26493557 -0.02680984 0.08275731
v -0.26807398 -0.02673062 0.08126572
v -0.26904091 -0.02774067 0.08074164
v -0.27094197 -0.05602224 0.08264981
v -0.25715102 -0.07475779 0.09161280
v -0.25715102 -0.08006553 0.09088716
v -0.28188132 -0.02849326 0.06874173
v -0.28189772 -0.02374006 0.06720982
v -0.28394629 -0.02783970 0.06648419
v -0.28481487 -0.02774067 0.06540916
v -0.28491321 -0.02926566 0.06554354
v -0.28501154 -0.05602224 0.06722326
v -0.28376600 -0.05602224 0.06871485
v -0.27893958 -0.04633759 0.07356588
v -0.28830564 -0.05602224 0.06219754
v -0.29113265 -0.05602224 0.05783026
v -0.29154238 -0.05602224 0.05705088
v -0.30083467 -0.05604204 0.03776769
v -0.30130174 -0.05604204 0.03663891
v -0.30172785 -0.05604204 0.03541608
v -0.30199827 -0.05604204 0.03440825
v -0.30207201 -0.05604204 0.03373636
v -0.30219492 -0.05604204 0.03224477
v -0.30244076 -0.05604204 0.02923471
v -0.30246534 -0.05604204 0.02888533
v -0.30085926 -0.03085006 0.03079349
v -0.30075273 -0.02926566 0.03079349
v -0.30076911 -0.03085006 0.02923471
v -0.30056427 -0.02966176 0.02779687
v -0.28414294 0.01238429 -0.01731370
v -0.30063802 -0.02926566 0.03241946
v -0.28354475 0.01414694 -0.01830809
v -0.28355296 0.01392909 -0.01833496
v -0.25713464 0.07102695 -0.02758014
v -0.28338087 0.01535505 -0.01833496
v -0.28329074 0.01602842 -0.01833496
v -0.28307768 0.01721672 -0.01833496
v -0.28261881 0.01876151 -0.01833496
v -0.24925174 0.10764643 -0.01208641
v -0.23839434 0.11537039 -0.00312342
v -0.23411693 0.11535059 -0.00312342
v -0.23037214 0.11537039 0.00398516
v -0.25470912 0.07772105 -0.02758014
v -0.27403941 0.04260675 -0.01833496
v -0.27411315 0.04278500 -0.01806621
v -0.25663478 0.08045414 -0.02193628
v -0.25019408 0.10560652 -0.01208641
v -0.22988048 0.11537039 0.04853134
v -0.21993264 0.10055624 0.06413257
v -0.23691936 -0.02696828 0.09512005
v -0.24854703 -0.02023457 0.08840117
v -0.25425024 -0.02649296 0.08748740
v -0.25723296 0.00113504 0.07812129
v -0.25225904 0.00065972 0.08105071
v -0.25169363 0.00016460 0.08148072
v -0.25165267 -0.00136039 0.08193761
v -0.25102170 -0.00340031 0.08277075
v -0.25086601 -0.02023457 0.08736646
v -0.27241695 -0.00559866 0.07015269
v -0.27266277 -0.00662852 0.07034082
v -0.25311124 0.00016460 0.08074164
v -0.25751977 0.00018440 0.07828254
v -0.26049428 -0.00009287 0.07667001
v -0.26151038 -0.00098409 0.07634750
v -0.26328033 -0.00056819 0.07494997
v -0.26936867 -0.00389543 0.07175179
v -0.27719420 -0.01464956 0.06870141
v -0.27578478 -0.01120348 0.06884923
v -0.27397385 -0.00567788 0.06852672
v -0.28329893 0.00220451 0.05311361
v -0.28514265 -0.02653257 0.06432070
v -0.28529834 -0.02774067 0.06462977
v -0.28538847 -0.02926566 0.06477759
v -0.28388892 0.00170939 0.05254923
v -0.28473293 0.00174900 0.05128607
v -0.28488862 0.00067953 0.05156827
v -0.29113265 -0.05566575 0.05781683
v -0.29153418 -0.05566575 0.05705088
v -0.29825348 -0.02926566 0.04009242
v -0.29877791 -0.02926566 0.03881583
v -0.29901554 -0.02926566 0.03803644
v -0.30029385 -0.02926566 0.03379011
v -0.30050691 -0.02980040 0.03319885
v -0.30056427 -0.02825560 0.03194914
v -0.30056427 -0.02827541 0.03079349
v -0.30050691 -0.02841405 0.02977222
v -0.30041677 -0.02886956 0.02779687
v -0.28885465 0.01238429 0.00129760
v -0.28846133 0.01238429 -0.00036868
v -0.28457724 0.01238429 -0.01575492
v -0.28411836 0.01258235 -0.01731370
v -0.28341366 0.01626608 -0.01801246
v -0.28347922 0.01523622 -0.01817371
v -0.30045773 -0.02877053 0.03299728
v -0.25685603 0.07183896 -0.02758014
v -0.28203701 0.02056377 -0.01833496
v -0.28333991 0.01721672 -0.01781089
v -0.28313505 0.01874171 -0.01728682
v -0.25234918 0.10313089 -0.00847165
v -0.24941563 0.10764643 -0.01144139
v -0.24754733 0.11537039 -0.00312342
v -0.23428081 0.11537039 -0.00229028
v -0.25550397 0.07558211 -0.02758014
v -0.27434259 0.04179475 -0.01833496
v -0.27533410 0.04048762 -0.01728682
v -0.27576840 0.03999249 -0.01674931
v -0.27559632 0.04102235 -0.01626555
v -0.25811795 0.08045414 -0.01888591
v -0.25796226 0.08045414 -0.01923529
v -0.25742961 0.08045414 -0.02039094
v -0.25087420 0.10412114 -0.01208641
v -0.23749297 0.11537039 0.03892333
v -0.24006597 0.11267691 0.03779456
v -0.24778496 0.10180395 0.03622234
v -0.25075130 0.09687251 0.03608797
v -0.25237375 0.09390175 0.03615516
v -0.22988048 0.11283535 0.05018418
v -0.22067832 0.10055624 0.06368913
v -0.22105525 0.09940755 0.06389070
v -0.27027004 -0.00298440 0.07071708
v -0.27092559 0.00075875 0.06864766
v -0.27099934 0.00402658 0.06715607
v -0.27249889 -0.00229122 0.06863423
v -0.27273652 -0.00336070 0.06888954
v -0.27295777 -0.00446978 0.06913142
v -0.27330192 -0.00615320 0.06945393
v -0.26247730 0.00006557 0.07527248
v -0.22185830 0.10055624 0.06288287
v -0.26786093 0.00242237 0.07026020
v -0.27459663 -0.00298440 0.06644387
v -0.28185674 0.00246198 0.05476646
v -0.28306130 0.00329379 0.05280454
v -0.28366767 0.00329379 0.05203859
v -0.28633081 -0.02619588 0.06221098
v -0.28655205 -0.02833482 0.06258723
v -0.28812535 -0.02679003 0.05953686
v -0.28615873 -0.02926566 0.06342037
v -0.28515904 0.00174900 0.05052012
v -0.28447072 0.00321457 0.05085607
v -0.28501973 0.00266003 0.05025137
v -0.29127196 -0.02506700 0.05342268
v -0.29149320 -0.05410115 0.05694337
v -0.28817453 -0.02774067 0.05961749
v -0.29136209 -0.02619588 0.05358393
v -0.29763891 -0.02926566 0.04136901
v -0.29659004 -0.02770106 0.04318310
v -0.29716363 -0.02770106 0.04194683
v -0.29796668 -0.02770106 0.04009242
v -0.29861403 -0.02783970 0.03843957
v -0.29894999 -0.02841405 0.03784831
v -0.30035122 -0.02793872 0.03252696
v -0.29119821 0.00877978 0.02856282
v -0.29121459 0.00887881 0.02782374
v -0.29003463 0.01238429 0.01215531
v -0.29001823 0.01238429 0.01195375
v -0.28907590 0.01238429 0.00284295
v -0.28810897 0.01499856 0.00042415
v -0.28348741 0.01818716 -0.01674931
v -0.28435599 0.03117926 -0.00026118
v -0.28357754 0.01721672 -0.01703150
v -0.29995789 -0.02770106 0.03391105
v -0.28192230 0.02119753 -0.01814684
v -0.28335630 0.03327859 -0.00234403
v -0.28177480 0.03472436 -0.00535409
v -0.25402080 0.10055624 -0.00668443
v -0.25408636 0.10055624 -0.00644255
v -0.25450428 0.10055624 -0.00481658
v -0.25248848 0.10055624 -0.01208641
v -0.25364387 0.10055624 -0.00801476
v -0.24883383 0.11537039 0.00437485
v -0.25483204 0.10055624 -0.00333842
v -0.25514342 0.10055624 -0.00179308
v -0.25546299 0.10010072 -0.00128245
v -0.25551216 0.10016014 -0.00083900
v -0.28032442 0.02573288 -0.01806621
v -0.26015013 0.08045414 -0.01387363
v -0.25941264 0.08045414 -0.01575492
v -0.25887182 0.08045414 -0.01707182
v -0.25847029 0.08045414 -0.01803934
v -0.27876750 0.03813082 -0.01029918
v -0.23840253 0.11537039 0.03759300
v -0.23854182 0.11537039 0.03733768
v -0.24440073 0.11537039 0.02641278
v -0.25084962 0.09859554 0.03462325
v -0.25116919 0.09756568 0.03505326
v -0.25402900 0.08792064 0.03787519
v -0.25320137 0.08853459 0.03853364
v -0.25259500 0.08809889 0.03951460
v -0.22988048 0.11174608 0.05086950
v -0.25243931 0.09558518 0.03471732
v -0.26632861 0.06599648 0.03462325
v -0.25707727 0.08158303 0.03778112
v -0.22988048 0.11075582 0.05146077
v -0.26987672 0.00174900 0.06902392
v -0.27286764 0.00487819 0.06442821
v -0.27247430 0.00384833 0.06550323
v -0.27185973 0.00339282 0.06648419
v -0.27229403 0.00174900 0.06682013
v -0.22988048 0.10996362 0.05187734
v -0.23059339 0.10927044 0.05154139
v -0.25364387 0.08700960 0.03892333
v -0.27294958 -0.00136039 0.06763983
v -0.27270374 0.00281847 0.06578542
v -0.28202882 0.00442268 0.05344956
v -0.28346281 0.00416521 0.05178327
v -0.28377419 0.00475936 0.05092326
v -0.29129653 -0.02522544 0.05344956
v -0.28674872 0.00174900 0.04748319
v -0.28359393 0.00596747 0.05039918
v -0.28343824 0.01341416 0.04553471
v -0.28483946 0.00370970 0.04990198
v -0.28816633 0.00277886 0.04415062
v -0.29156695 -0.02457187 0.05257610
v -0.28832202 0.00174900 0.04443282
v -0.29191931 -0.02619588 0.05248204
v -0.29404162 -0.02619588 0.04807445
v -0.29285345 -0.02522544 0.05023793
v -0.28968227 -0.00037014 0.04256497
v -0.29733573 -0.02401733 0.03915178
v -0.29736849 -0.02080892 0.03616860
v -0.29119821 0.00725479 0.03012160
v -0.29085406 0.00937393 0.02915408
v -0.28651928 0.02414848 0.02840157
v -0.28660122 0.02444555 0.02736686
v -0.28809258 0.01957352 0.02700404
v -0.28510167 0.03084257 0.01370066
v -0.28928895 0.01567193 0.01680478
v -0.28884646 0.01721672 0.01370066
v -0.28642096 0.02535658 0.02613059
v -0.28487223 0.03153575 0.01680478
v -0.28488862 0.03157536 0.01524600
v -0.28457724 0.03274385 0.01370066
v -0.28837939 0.01878132 0.01215531
v -0.28810897 0.01959332 0.01116092
v -0.28661761 0.02448516 0.00749241
v -0.28509348 0.02925817 0.00284295
v -0.28449530 0.03117926 0.00129760
v -0.28405280 0.03117926 -0.00180652
v -0.28366767 0.03274385 -0.00181996
v -0.28396267 0.03274385 -0.00026118
v -0.29282068 -0.00336070 0.03497263
v -0.28352018 0.03371430 -0.00130932
v -0.28193868 0.03519968 -0.00431938
v -0.26958173 0.06633316 -0.00289498
v -0.25709366 0.09659524 -0.00128245
v -0.25625784 0.09845690 -0.00128245
v -0.25098893 0.11131036 0.00596051
v -0.25061199 0.11208275 0.00596051
v -0.24898133 0.11537039 0.00596051
v -0.25584812 0.09956598 -0.00028805
v -0.25396344 0.10485393 0.00526174
v -0.25272611 0.10764643 0.00596051
v -0.24479407 0.11537039 0.02566026
v -0.25148057 0.09800139 0.03403199
v -0.25225085 0.09671406 0.03389761
v -0.25263598 0.09594167 0.03389761
v -0.25394705 0.09394136 0.03306447
v -0.26586973 0.06807601 0.03356167
v -0.28201243 0.03373411 0.03336010
v -0.28193049 0.03201107 0.03474419
v -0.28338906 0.01792970 0.04239028
v -0.28349560 0.02595073 0.03637016
v -0.28502792 0.01967254 0.03790206
v -0.28803522 0.00551195 0.04230965
v -0.28884646 0.00174900 0.04318310
v -0.29239457 -0.02463128 0.05086950
v -0.28937908 0.00172919 0.04162432
v -0.29116544 -0.00371719 0.04084493
v -0.29338608 -0.00912395 0.03854708
v -0.28954297 0.00378892 0.03905771
v -0.28891201 0.00329379 0.04163776
v -0.28336449 0.02868383 0.03451575
v -0.28325797 0.03115945 0.03236571
v -0.28511806 0.02799065 0.02908689
v -0.28592110 0.02648547 0.02768937
v -0.28607679 0.02648547 0.02613059
v -0.28456085 0.03274385 0.01215531
v -0.28813355 0.01971215 0.01215531
v -0.28482306 0.03147633 0.01822918
v -0.28407738 0.03428865 0.01370066
v -0.28501154 0.03048608 0.02111830
v -0.28406919 0.03428865 0.01215531
v -0.28457724 0.03117926 0.00284295
v -0.28405280 0.03274385 0.00129760
v -0.28357754 0.03385293 -0.00026118
v -0.27642394 0.05445015 0.01059653
v -0.27419510 0.05845077 0.00628301
v -0.27122878 0.06344163 -0.00026118
v -0.27022906 0.06530330 -0.00180652
v -0.25863417 0.09402058 0.00203668
v -0.25707727 0.09711017 0.00054509
v -0.25288999 0.10764643 0.00751929
v -0.25257861 0.10830000 0.00751929
v -0.25220987 0.10907240 0.00751929
v -0.25160350 0.11028050 0.00751929
v -0.25260319 0.10831981 0.00906463
v -0.25219349 0.10909220 0.00906463
v -0.24883383 0.11537039 0.00762679
v -0.25633979 0.10055624 0.00906463
v -0.25565966 0.10202181 0.00906463
v -0.24503989 0.11537039 0.02498838
v -0.25241473 0.09705075 0.03306447
v -0.25077587 0.10002151 0.03287634
v -0.25546299 0.09229755 0.03135787
v -0.26481267 0.07223506 0.03153257
v -0.26635318 0.06754127 0.03303760
v -0.28210257 0.03420943 0.03236571
v -0.28274992 0.03270424 0.03233883
v -0.26019109 0.08627682 0.02692341
v -0.26169064 0.08310802 0.02684279
v -0.28497056 0.02884226 0.02846876
v -0.28538847 0.02805006 0.02768937
v -0.28555236 0.02805006 0.02613059
v -0.28442155 0.03274385 0.00905119
v -0.28470835 0.03117926 0.00577238
v -0.28331532 0.03630876 0.01370066
v -0.28361850 0.03551656 0.01215531
v -0.27699753 0.05304400 0.01215531
v -0.28290561 0.03737823 0.01370066
v -0.28426586 0.03274385 0.00577238
v -0.27729253 0.05227160 0.01089217
v -0.27643214 0.05445015 0.01215531
v -0.26280507 0.08702941 0.01216875
v -0.26267395 0.08702941 0.01060997
v -0.26160870 0.08908913 0.00906463
v -0.26198564 0.08867323 0.01071747
v -0.26173162 0.08936640 0.01128186
v -0.26023207 0.09255501 0.01090560
v -0.25529092 0.10281401 0.00906463
v -0.25376679 0.10598281 0.00906463
v -0.25317680 0.10717112 0.00906463
v -0.25565966 0.10202181 0.01062341
v -0.25410274 0.10513120 0.01062341
v -0.25370942 0.10590359 0.01062341
v -0.25252944 0.10814156 0.01032778
v -0.24876008 0.11537039 0.00801648
v -0.24516279 0.11537039 0.02455837
v -0.25561868 0.09881340 0.02097049
v -0.25593827 0.09794198 0.02149456
v -0.25721658 0.09582284 0.02109143
v -0.25993707 0.08732648 0.02611715
v -0.28211897 0.03426884 0.03221789
v -0.28309407 0.03256561 0.03067255
v -0.28336449 0.03171399 0.03112943
v -0.26033859 0.08653429 0.02611715
v -0.26182995 0.08342490 0.02580808
v -0.28501973 0.02896110 0.02768937
v -0.28343824 0.03195165 0.03009473
v -0.26267395 0.08702941 0.01371410
v -0.27623547 0.05445015 0.01370066
v -0.27694019 0.05276673 0.01366034
v -0.27725157 0.05217258 0.01313627
v -0.27729253 0.05227160 0.01215531
v -0.26203481 0.08845537 0.01371410
v -0.26170703 0.08934660 0.01282720
v -0.26202662 0.08873264 0.01224938
v -0.26173162 0.08936640 0.01179250
v -0.26023207 0.09255501 0.01188656
v -0.25524175 0.10245752 0.01231657
v -0.25868334 0.09566440 0.01188656
v -0.25888001 0.09449590 0.01525944
v -0.25708547 0.09711017 0.01916983
v -0.25402900 0.10497275 0.01177906
v -0.25393886 0.10481432 0.01280033
v -0.24603958 0.11537039 0.02093017
v -0.24856343 0.11537039 0.00902432
v -0.24558071 0.11537039 0.02297271
v -0.25694616 0.09685270 0.02020453
v -0.25860959 0.09243618 0.02219332
v -0.26010915 0.08766317 0.02508244
v -0.26180537 0.08645506 0.01959983
v -0.26188731 0.08817810 0.01525944
v -0.26238715 0.08702941 0.01525944
v -0.28188132 0.03506104 0.03164007
v -0.26051066 0.08708883 0.02455837
v -0.26024845 0.08796025 0.02404773
v -0.26035497 0.08821771 0.02301303
v -0.25860140 0.09394136 0.01899514
v -0.25869154 0.09411960 0.01796043
v -0.26166607 0.08922777 0.01371410
v -0.25877348 0.09429785 0.01681822
v -0.25851127 0.09374331 0.01990890
v -0.25802780 0.09477317 0.01990890
v -0.25732310 0.09631797 0.01978796
v -0.24591666 0.11537039 0.02148112
v -0.25986332 0.09001996 0.02145425
f 1 2 3
f 1 3 4
f 1 4 13
f 1 13 27
f 1 27 26
f 1 26 56
f 1 56 55
f 1 55 54
f 1 54 65
f 1 65 31
f 1 31 14
f 1 14 5
f 1 5 6
f 1 6 2
f 2 6 3
f 3 6 7
f 3 7 8
f 3 8 9
f 3 9 10
f 3 10 11
f 3 11 12
f 3 12 4
f 4 12 13
f 5 14 15
f 5 15 6
f 6 15 37
f 6 37 75
f 6 75 74
f 6 74 38
f 6 38 17
f 6 17 16
f 6 16 9
f 6 9 8
f 6 8 7
f 9 16 10
f 10 16 17
f 10 17 18
f 10 18 19
f 10 19 20
f 10 20 21
f 10 21 11
f 11 21 22
f 11 22 23
f 11 23 12
f 12 24 25
f 12 25 26
f 12 26 27
f 12 27 13
f 12 23 28
f 12 28 29
f 12 29 30
f 12 30 24
f 14 31 32
f 14 32 33
f 14 33 34
f 14 34 35
f 14 35 15
f 15 35 36
f 15 36 37
f 17 38 18
f 18 38 39
f 18 39 19
f 19 39 40
f 19 40 20
f 20 40 41
f 20 41 42
f 20 42 43
f 20 43 44
f 20 44 21
f 21 44 22
f 22 44 23
f 23 29 28
f 23 44 45
f 23 45 46
f 23 46 47
f 23 47 29
f 24 30 48
f 24 48 49
f 24 49 25
f 25 49 50
f 25 50 51
f 25 51 52
f 25 52 53
f 25 53 54
f 25 54 55
f 25 55 56
f 25 56 26
f 29 47 30
f 30 57 58
f 30 58 59
f 30 59 60
f 30 60 61
f 30 61 62
f 30 62 48
f 30 47 63
f 30 63 57
f 31 64 32
f 31 65 66
f 31 66 64
f 32 64 67
f 32 67 33
f 33 67 68
f 33 68 34
f 34 68 120
f 34 120 181
f 34 181 189
f 34 189 129
f 34 129 71
f 34 71 35
f 35 69 70
f 35 70 36
f 35 71 125
f 35 125 69
f 36 70 72
f 36 72 134
f 36 134 73
f 36 73 38
f 36 38 74
f 36 74 75
f 36 75 37
f 38 73 76
f 38 76 77
f 38 77 39
f 39 78 40
f 39 77 78
f 40 79 41
f 40 78 79
f 41 80 81
f 41 81 82
f 41 82 42
f 41 79 83
f 41 83 84
f 41 84 85
f 41 85 80
f 42 82 43
f 43 45 44
f 43 82 86
f 43 86 87
f 43 87 45
f 45 87 88
f 45 88 46
f 46 88 89
f 46 89 63
f 46 63 47
f 48 62 90
f 48 90 49
f 49 90 50
f 50 90 51
f 51 90 52
f 52 90 62
f 52 62 53
f 53 91 54
f 53 62 91
f 54 91 92
f 54 92 65
f 57 63 93
f 57 93 58
f 58 93 89
f 58 89 94
f 58 94 95
f 58 95 96
f 58 96 97
f 58 97 98
f 58 98 99
f 58 99 100
f 58 100 59
f 59 100 60
f 60 100 99
f 60 99 65
f 60 65 61
f 61 65 62
f 62 65 92
f 62 92 91
f 63 89 93
f 64 66 67
f 65 99 98
f 65 98 101
f 65 101 102
f 65 102 103
f 65 103 104
f 65 104 105
f 65 105 106
f 65 106 107
f 65 107 108
f 65 108 109
f 65 109 110
f 65 110 111
f 65 111 66
f 66 112 113
f 66 113 114
f 66 114 115
f 66 115 116
f 66 116 67
f 66 111 110
f 66 110 109
f 66 109 108
f 66 108 117
f 66 117 112
f 67 116 118
f 67 118 119
f 67 119 68
f 68 119 121
f 68 121 122
f 68 122 123
f 68 123 124
f 68 124 120
f 69 125 187
f 69 187 126
f 69 126 127
f 69 127 70
f 70 127 128
f 70 128 72
f 71 129 130
f 71 130 131
f 71 131 132
f 71 132 133
f 71 133 125
f 72 128 188
f 72 188 126
f 72 126 187
f 72 187 256
f 72 256 335
f 72 335 384
f 72 384 422
f 72 422 452
f 72 452 451
f 72 451 471
f 72 471 453
f 72 453 423
f 72 423 387
f 72 387 339
f 72 339 269
f 72 269 268
f 72 268 267
f 72 267 198
f 72 198 134
f 73 135 76
f 73 134 135
f 76 135 79
f 76 79 136
f 76 136 78
f 76 78 77
f 78 136 79
f 79 135 83
f 80 137 82
f 80 82 81
f 80 85 137
f 82 137 138
f 82 138 86
f 83 139 140
f 83 140 84
f 83 135 139
f 84 140 88
f 84 88 141
f 84 141 142
f 84 142 85
f 85 142 143
f 85 143 137
f 86 138 144
f 86 144 87
f 87 144 142
f 87 142 88
f 88 145 146
f 88 146 89
f 88 142 141
f 88 140 147
f 88 147 148
f 88 148 149
f 88 149 150
f 88 150 151
f 88 151 152
f 88 152 145
f 89 146 153
f 89 153 94
f 94 96 95
f 94 153 154
f 94 154 155
f 94 155 156
f 94 156 96
f 96 157 158
f 96 158 159
f 96 159 97
f 96 156 160
f 96 160 161
f 96 161 162
f 96 162 157
f 97 159 163
f 97 163 101
f 97 101 98
f 101 163 102
f 102 163 103
f 103 163 164
f 103 164 104
f 104 164 165
f 104 165 105
f 105 165 166
f 105 166 106
f 106 166 167
f 106 167 168
f 106 168 169
f 106 169 107
f 107 169 117
f 107 117 108
f 112 117 113
f 113 115 114
f 113 117 170
f 113 170 171
f 113 171 172
f 113 172 115
f 115 172 173
f 115 173 174
f 115 174 175
f 115 175 176
f 115 176 116
f 116 176 177
f 116 177 178
f 116 178 179
f 116 179 118
f 117 180 170
f 117 169 180
f 118 179 121
f 118 121 119
f 120 124 182
f 120 182 181
f 121 179 122
f 122 178 123
f 122 179 178
f 123 178 183
f 123 183 124
f 124 184 182
f 124 183 184
f 125 133 185
f 125 185 186
f 125 186 187
f 126 188 127
f 127 188 128
f 129 189 190
f 129 190 130
f 130 190 131
f 131 190 191
f 131 191 192
f 131 192 193
f 131 193 194
f 131 194 195
f 131 195 196
f 131 196 132
f 132 196 197
f 132 197 133
f 133 197 185
f 134 198 199
f 134 199 200
f 134 200 201
f 134 201 202
f 134 202 203
f 134 203 204
f 134 204 135
f 135 204 205
f 135 205 149
f 135 149 139
f 137 144 138
f 137 143 144
f 139 149 148
f 139 148 140
f 140 148 147
f 142 144 143
f 145 152 206
f 145 206 207
f 145 207 208
f 145 208 209
f 145 209 210
f 145 210 146
f 146 210 211
f 146 211 212
f 146 212 154
f 146 154 153
f 149 205 150
f 150 205 213
f 150 213 151
f 151 206 152
f 151 213 214
f 151 214 215
f 151 215 206
f 154 212 211
f 154 211 155
f 155 211 210
f 155 210 216
f 155 216 156
f 156 217 218
f 156 218 219
f 156 219 160
f 156 216 217
f 157 220 158
f 157 162 220
f 158 221 159
f 158 220 222
f 158 222 221
f 159 223 163
f 159 221 223
f 160 219 161
f 161 224 162
f 161 219 225
f 161 225 226
f 161 226 224
f 162 224 227
f 162 227 222
f 162 222 220
f 163 228 164
f 163 223 229
f 163 229 230
f 163 230 228
f 164 228 231
f 164 231 165
f 165 231 232
f 165 232 233
f 165 233 234
f 165 234 166
f 166 235 236
f 166 236 167
f 166 234 235
f 167 236 168
f 168 236 180
f 168 180 169
f 170 180 237
f 170 237 238
f 170 238 239
f 170 239 171
f 171 239 240
f 171 240 241
f 171 241 172
f 172 241 173
f 173 241 242
f 173 242 174
f 174 243 244
f 174 244 175
f 174 242 245
f 174 245 243
f 175 244 246
f 175 246 176
f 176 246 177
f 177 246 178
f 178 246 183
f 180 236 247
f 180 247 237
f 181 182 189
f 182 184 248
f 182 248 190
f 182 190 189
f 183 246 244
f 183 244 184
f 184 244 249
f 184 249 250
f 184 250 193
f 184 193 248
f 185 251 252
f 185 252 253
f 185 253 186
f 185 197 254
f 185 254 255
f 185 255 251
f 186 253 187
f 187 253 257
f 187 257 258
f 187 258 259
f 187 259 260
f 187 260 256
f 190 248 261
f 190 261 191
f 191 261 192
f 192 261 248
f 192 248 193
f 193 262 263
f 193 263 264
f 193 264 265
f 193 265 194
f 193 250 266
f 193 266 254
f 193 254 262
f 194 265 254
f 194 254 195
f 195 254 196
f 196 254 197
f 198 267 199
f 199 267 268
f 199 268 269
f 199 269 270
f 199 270 200
f 200 270 271
f 200 271 201
f 201 271 202
f 202 272 273
f 202 273 274
f 202 274 275
f 202 275 203
f 202 271 276
f 202 276 277
f 202 277 278
f 202 278 272
f 203 275 204
f 204 214 205
f 204 275 279
f 204 279 214
f 205 214 213
f 206 215 280
f 206 280 207
f 207 280 214
f 207 214 208
f 208 281 282
f 208 282 283
f 208 283 284
f 208 284 209
f 208 214 285
f 208 285 286
f 208 286 274
f 208 274 287
f 208 287 281
f 209 284 288
f 209 288 210
f 210 288 216
f 214 279 285
f 214 280 215
f 216 288 217
f 217 288 289
f 217 289 282
f 217 282 290
f 217 290 218
f 218 290 219
f 219 290 291
f 219 291 292
f 219 292 225
f 221 222 229
f 221 229 223
f 222 227 293
f 222 293 230
f 222 230 229
f 224 226 294
f 224 294 227
f 225 292 295
f 225 295 296
f 225 296 297
f 225 297 226
f 226 297 298
f 226 298 294
f 227 299 293
f 227 294 300
f 227 300 299
f 228 230 301
f 228 301 231
f 230 293 301
f 231 301 232
f 232 301 302
f 232 302 233
f 233 302 303
f 233 303 300
f 233 300 234
f 234 300 304
f 234 304 305
f 234 305 235
f 235 305 306
f 235 306 247
f 235 247 236
f 237 247 238
f 238 307 308
f 238 308 309
f 238 309 310
f 238 310 311
f 238 311 239
f 238 247 307
f 239 312 313
f 239 313 314
f 239 314 240
f 239 311 315
f 239 315 316
f 239 316 317
f 239 317 318
f 239 318 312
f 240 314 319
f 240 319 320
f 240 320 321
f 240 321 322
f 240 322 323
f 240 323 241
f 241 323 245
f 241 245 242
f 243 324 244
f 243 245 324
f 244 324 325
f 244 325 249
f 245 323 326
f 245 326 325
f 245 325 324
f 247 306 327
f 247 327 307
f 249 328 329
f 249 329 250
f 249 325 328
f 250 329 266
f 251 255 330
f 251 330 252
f 252 330 253
f 253 330 331
f 253 331 332
f 253 332 257
f 254 265 264
f 254 264 263
f 254 263 262
f 254 266 329
f 254 329 330
f 254 330 255
f 256 333 334
f 256 334 335
f 256 260 333
f 257 332 258
f 258 332 259
f 259 332 260
f 260 332 336
f 260 336 337
f 260 337 338
f 260 338 333
f 269 339 270
f 270 340 276
f 270 276 271
f 270 339 340
f 272 287 273
f 272 278 291
f 272 291 290
f 272 290 287
f 273 287 274
f 274 286 279
f 274 279 275
f 276 340 341
f 276 341 342
f 276 342 343
f 276 343 344
f 276 344 277
f 277 344 345
f 277 345 346
f 277 346 278
f 278 346 296
f 278 296 295
f 278 295 291
f 279 286 285
f 281 290 282
f 281 287 290
f 282 289 283
f 283 289 284
f 284 289 288
f 291 295 292
f 293 299 303
f 293 303 301
f 294 298 300
f 296 347 297
f 296 346 347
f 297 347 348
f 297 348 298
f 298 348 349
f 298 349 350
f 298 350 351
f 298 351 304
f 298 304 300
f 299 352 303
f 299 300 352
f 300 303 352
f 301 303 302
f 304 351 350
f 304 350 353
f 304 353 354
f 304 354 305
f 305 355 306
f 305 354 355
f 306 355 327
f 307 356 308
f 307 327 353
f 307 353 356
f 308 356 357
f 308 357 350
f 308 350 358
f 308 358 359
f 308 359 309
f 309 359 360
f 309 360 361
f 309 361 310
f 310 361 362
f 310 362 315
f 310 315 311
f 312 314 313
f 312 318 363
f 312 363 314
f 314 363 364
f 314 364 319
f 315 362 316
f 316 365 366
f 316 366 318
f 316 318 317
f 316 362 367
f 316 367 365
f 318 366 368
f 318 368 363
f 319 364 321
f 319 321 320
f 321 364 369
f 321 369 322
f 322 369 323
f 323 369 370
f 323 370 326
f 325 326 328
f 326 370 371
f 326 371 328
f 327 354 353
f 327 355 354
f 328 371 372
f 328 372 373
f 328 373 374
f 328 374 375
f 328 375 330
f 328 330 329
f 330 375 331
f 331 376 377
f 331 377 332
f 331 375 374
f 331 374 376
f 332 377 336
f 333 338 378
f 333 378 379
f 333 379 380
f 333 380 334
f 334 380 335
f 335 380 381
f 335 381 382
f 335 382 383
f 335 383 384
f 336 377 337
f 337 385 386
f 337 386 378
f 337 378 338
f 337 377 385
f 339 387 388
f 339 388 389
f 339 389 340
f 340 389 388
f 340 388 341
f 341 388 342
f 342 388 390
f 342 390 343
f 343 390 391
f 343 391 392
f 343 392 344
f 344 392 345
f 345 393 394
f 345 394 358
f 345 358 348
f 345 348 347
f 345 347 346
f 345 392 391
f 345 391 395
f 345 395 396
f 345 396 393
f 348 358 349
f 349 358 350
f 350 357 353
f 353 357 356
f 358 394 359
f 359 394 360
f 360 394 397
f 360 397 361
f 361 397 398
f 361 398 399
f 361 399 362
f 362 399 367
f 363 368 400
f 363 400 369
f 363 369 401
f 363 401 364
f 364 401 369
f 365 367 366
f 366 402 403
f 366 403 368
f 366 367 402
f 367 399 404
f 367 404 405
f 367 405 402
f 368 403 371
f 368 371 370
f 368 370 406
f 368 406 400
f 369 400 406
f 369 406 370
f 371 403 407
f 371 407 372
f 372 407 404
f 372 404 408
f 372 408 409
f 372 409 410
f 372 410 373
f 373 410 411
f 373 411 376
f 373 376 374
f 376 411 412
f 376 412 377
f 377 412 413
f 377 413 414
f 377 414 385
f 378 386 415
f 378 415 379
f 379 415 380
f 380 415 416
f 380 416 417
f 380 417 382
f 380 382 381
f 382 417 418
f 382 418 419
f 382 419 420
f 382 420 383
f 383 420 421
f 383 421 384
f 384 421 422
f 385 414 386
f 386 414 415
f 387 423 424
f 387 424 425
f 387 425 388
f 388 426 427
f 388 427 395
f 388 395 390
f 388 425 426
f 390 395 391
f 393 428 394
f 393 396 428
f 394 428 429
f 394 429 430
f 394 430 397
f 395 431 396
f 395 427 431
f 396 431 432
f 396 432 428
f 397 433 398
f 397 430 429
f 397 429 434
f 397 434 435
f 397 435 436
f 397 436 437
f 397 437 433
f 398 433 438
f 398 438 399
f 399 438 404
f 402 405 404
f 402 404 439
f 402 439 403
f 403 439 407
f 404 438 408
f 404 407 439
f 408 438 437
f 408 437 436
f 408 436 435
f 408 435 409
f 409 435 440
f 409 440 441
f 409 441 442
f 409 442 413
f 409 413 412
f 409 412 410
f 410 412 411
f 413 443 444
f 413 444 414
f 413 442 443
f 414 444 416
f 414 416 415
f 416 444 418
f 416 418 417
f 418 445 419
f 418 444 446
f 418 446 447
f 418 447 445
f 419 445 448
f 419 448 420
f 420 449 421
f 420 448 449
f 421 449 450
f 421 450 448
f 421 448 451
f 421 451 452
f 421 452 422
f 423 453 448
f 423 448 424
f 424 448 454
f 424 454 425
f 425 454 426
f 426 454 455
f 426 455 427
f 427 455 456
f 427 456 431
f 428 457 458
f 428 458 459
f 428 459 435
f 428 435 460
f 428 460 429
f 428 432 461
f 428 461 462
f 428 462 463
f 428 463 457
f 429 460 435
f 429 435 434
f 431 456 432
f 432 456 461
f 433 437 438
f 435 459 458
f 435 458 440
f 440 458 464
f 440 464 465
f 440 465 448
f 440 448 466
f 440 466 441
f 441 466 444
f 441 444 442
f 442 444 443
f 444 466 447
f 444 447 446
f 445 447 448
f 447 467 448
f 447 466 467
f 448 467 466
f 448 465 464
f 448 464 468
f 448 468 469
f 448 469 470
f 448 470 454
f 448 453 471
f 448 471 451
f 448 450 449
f 454 470 455
f 455 468 462
f 455 462 456
f 455 470 469
f 455 469 468
f 456 462 461
f 457 463 472
f 457 472 458
f 458 472 464
f 462 468 463
f 463 468 472
f 464 472 468

