# https://github.com/mikedh/trimesh
v 0.18428368 -0.27095054 0.12388617
v 0.18434809 -0.27095054 0.12388617
v 0.18428368 -0.27092047 0.12398000
v 0.18428368 -0.27083030 0.12257256
v 0.24007284 -0.26946275 -0.07458705
v 0.18584231 -0.27072511 0.12332319
v 0.18428368 -0.27057482 0.12466027
v 0.24012436 -0.26946275 -0.07458705
v 0.21881859 -0.27063494 0.08999019
v 0.21943689 -0.27063494 0.09067046
v 0.19614740 -0.27057482 0.11541803
v 0.19008028 -0.27071008 0.12017990
v 0.18428368 -0.26983846 0.12184537
v 0.23825656 -0.26659239 -0.07458705
v 0.23826945 -0.26663747 -0.07458705
v 0.23872028 -0.26806514 -0.07458705
v 0.23874606 -0.26814028 -0.07458705
v 0.23884910 -0.26830559 -0.07458705
v 0.23932571 -0.26901191 -0.07458705
v 0.27127148 -0.21137933 -0.09497155
v 0.18836706 -0.27061991 0.12161081
v 0.20569249 -0.24145046 0.14288669
v 0.20475215 -0.24196141 0.14288669
v 0.18428368 -0.25148919 0.14288669
v 0.24124503 -0.26935756 -0.07458705
v 0.24288097 -0.26926739 -0.07003631
v 0.22239961 -0.27052974 0.08658887
v 0.22148503 -0.27058986 0.08799631
v 0.22091825 -0.27061991 0.08909882
v 0.27883283 -0.21137933 -0.09497155
v 0.28263283 -0.21134926 -0.09497155
v 0.20284570 -0.26934253 0.11133646
v 0.19452435 -0.27057482 0.11691933
v 0.19283689 -0.27049969 0.11837368
v 0.18428368 -0.26869632 0.12158734
v 0.23834673 -0.26517975 -0.07458705
v 0.18428368 -0.26817035 0.12154042
v 0.18428368 -0.26507456 0.12198612
v 0.27656572 -0.19206828 -0.09673085
v 0.23868165 -0.26197878 -0.07458705
v 0.23888775 -0.26029565 -0.07458705
v 0.20655554 -0.24072912 0.14288669
v 0.27763487 -0.17257688 0.14291014
v 0.20225316 -0.26907201 0.11225129
v 0.20379893 -0.26910208 0.11075002
v 0.25435827 -0.17257688 0.14291014
v 0.18428368 -0.23931648 0.14288669
v 0.27120707 -0.23697209 -0.07458705
v 0.24248166 -0.26899688 -0.07242898
v 0.24263622 -0.26914717 -0.07160796
v 0.24406605 -0.26902693 -0.06790169
v 0.24414333 -0.26907201 -0.06693994
v 0.23327147 -0.26901191 0.07359346
v 0.22232232 -0.27051472 0.08738642
v 0.26837318 -0.18506521 0.14288669
v 0.22084097 -0.23805411 0.13089994
v 0.28828775 -0.19206828 -0.09673085
v 0.28308368 -0.21050770 -0.09497155
v 0.28611081 -0.21137933 -0.08683183
v 0.28231080 -0.22463407 -0.07456360
v 0.28144775 -0.22577620 -0.07456360
v 0.28075216 -0.22654262 -0.07456360
v 0.29204910 -0.18515536 -0.09673085
v 0.20137724 -0.26937258 0.11260315
v 0.18428368 -0.26369198 0.12240836
v 0.28432029 -0.15553507 -0.09673085
v 0.23911961 -0.25904832 -0.07458705
v 0.18428368 -0.26196376 0.12344047
v 0.18428368 -0.25574214 0.12742823
v 0.26655691 -0.18671829 0.14288669
v 0.27778945 -0.17206593 0.14291014
v 0.26922335 -0.18417854 0.14288669
v 0.27002199 -0.18333698 0.14288669
v 0.27109114 -0.18202952 0.14288669
v 0.27550945 -0.17648418 0.14288669
v 0.27630810 -0.17543222 0.14288669
v 0.27678471 -0.17480103 0.14288669
v 0.27715826 -0.17413981 0.14288669
v 0.29830945 -0.15739855 0.12773320
v 0.26489521 -0.14357274 0.14291014
v 0.18428368 -0.24292322 0.13913349
v 0.28547961 -0.11745399 -0.01120511
v 0.28781113 -0.11748405 -0.07655748
v 0.23915826 -0.25889803 -0.07458705
v 0.24720911 -0.26756923 -0.06041878
v 0.24722200 -0.26756923 -0.05919899
v 0.24633318 -0.26799001 -0.05919899
v 0.25641927 -0.26279029 -0.01160389
v 0.24254605 -0.26744899 0.05818194
v 0.24109045 -0.26752414 0.06141906
v 0.23671079 -0.26788480 0.06953533
v 0.23645317 -0.26764436 0.07066128
v 0.23504910 -0.26779463 0.07263171
v 0.27038267 -0.18375776 0.14171381
v 0.23153249 -0.26889167 0.07643181
v 0.28533792 -0.20613453 -0.09497155
v 0.28697386 -0.21137933 -0.08479104
v 0.28796571 -0.21137933 -0.08242183
v 0.28313520 -0.22338674 -0.07456360
v 0.29676368 -0.20855406 -0.03536625
v 0.27210878 -0.24598893 -0.01887568
v 0.26577113 -0.25506588 -0.01364468
v 0.29975215 -0.16470218 -0.09673085
v 0.28612368 -0.20439128 -0.09497155
v 0.28580165 -0.20515771 -0.09497155
v 0.28884166 -0.11745399 -0.07655748
v 0.30031894 -0.15553507 -0.09673085
v 0.18428368 -0.25443469 0.12839000
v 0.18428368 -0.25428442 0.12850728
v 0.18428368 -0.25264635 0.12996164
v 0.27808572 -0.17048798 0.14291014
v 0.27956708 -0.17896381 0.13373829
v 0.27503284 -0.18064696 0.13859397
v 0.27626945 -0.17559753 0.14276939
v 0.27988911 -0.17782168 0.13465312
v 0.28189860 -0.17663447 0.13301110
v 0.28151216 -0.17257688 0.13831249
v 0.28889318 -0.16806848 0.13228393
v 0.29067080 -0.16682115 0.13097030
v 0.28750199 -0.16829390 0.13399632
v 0.29672505 -0.16043422 0.12770973
v 0.29855420 -0.15798464 0.12686526
v 0.29986810 -0.15738352 0.12468372
v 0.29962335 -0.15654195 0.12564548
v 0.29891488 -0.15654195 0.12691218
v 0.29832234 -0.15654195 0.12775665
v 0.27914199 -0.16429643 0.14291014
v 0.27911623 -0.16449179 0.14291014
v 0.27914199 -0.14357274 0.14291014
v 0.28783691 -0.13415016 0.10812278
v 0.18428368 -0.24380987 0.13824211
v 0.30182605 -0.11745399 -0.01120511
v 0.28784978 -0.11745399 -0.07625254
v 0.18428368 -0.24496703 0.13713961
v 0.25641927 -0.26279029 -0.01209649
v 0.26577113 -0.25506588 -0.01315207
v 0.24434945 -0.26629183 0.05557816
v 0.24418198 -0.26612652 0.05679795
v 0.28321250 -0.22131286 0.06336603
v 0.28300640 -0.22107242 0.06437470
v 0.25165317 -0.25494564 0.06402284
v 0.23953182 -0.26758424 0.06449198
v 0.29064504 -0.20099493 -0.08826274
v 0.29056776 -0.20388033 -0.08490832
v 0.28850674 -0.21137933 -0.08099094
v 0.28576301 -0.21896849 -0.07456360
v 0.29830945 -0.20548832 -0.03841571
v 0.27213454 -0.24604904 -0.01732749
v 0.29833521 -0.20550336 -0.03750088
v 0.29843827 -0.20727666 0.02149453
v 0.29677657 -0.21011696 0.02215134
v 0.27160639 -0.24681548 -0.01732749
v 0.27120707 -0.24737152 -0.01732749
v 0.27082063 -0.24789749 -0.01732749
v 0.26765182 -0.25245100 -0.01420766
v 0.29043894 -0.20048398 -0.08929485
v 0.29995827 -0.16405597 -0.09673085
v 0.30142674 -0.17606340 -0.08178849
v 0.30234131 -0.11745399 -0.07655748
v 0.30035758 -0.15655699 -0.09673085
v 0.30262469 -0.11796494 -0.07655748
v 0.30477589 -0.12211269 -0.07655748
v 0.30543285 -0.12364555 -0.07655748
v 0.30169725 -0.15553507 -0.09457278
v 0.28134471 -0.17768643 0.13258888
v 0.28565995 -0.17256186 0.13204935
v 0.28278741 -0.17600328 0.13237776
v 0.29061928 -0.16830892 0.12942212
v 0.29203623 -0.16659572 0.12923447
v 0.29381386 -0.16530330 0.12796776
v 0.29514063 -0.16346988 0.12766281
v 0.29675081 -0.16205725 0.12623191
v 0.29834810 -0.15900655 0.12627882
v 0.29932708 -0.15796962 0.12527016
v 0.29994538 -0.15654195 0.12489485
v 0.29807759 -0.16004349 0.12564548
v 0.30149115 -0.15753381 0.12025026
v 0.30292098 -0.15730838 0.11682549
v 0.30274064 -0.15667721 0.11762305
v 0.30302403 -0.15628648 0.11708352
v 0.30137522 -0.15571541 0.12151698
v 0.29958470 -0.15497903 0.12564548
v 0.29832234 -0.15565530 0.12773320
v 0.27918064 -0.14430912 0.14291014
v 0.27920640 -0.14569171 0.14291014
v 0.27918064 -0.16273350 0.14291014
v 0.28877725 -0.14357274 0.13319876
v 0.30302403 -0.13415016 0.10812278
v 0.30373250 -0.11745399 -0.01577931
v 0.29363352 -0.21473057 0.02384028
v 0.26931352 -0.24349427 0.03071330
v 0.26874673 -0.24406534 0.03118245
v 0.28448776 -0.21964474 0.06299071
v 0.28401115 -0.22014068 0.06343640
v 0.29568166 -0.16437157 0.12541090
v 0.29506335 -0.16495766 0.12592696
v 0.28918945 -0.16997703 0.12960978
v 0.28453928 -0.17468081 0.13118143
v 0.29051622 -0.20530798 -0.08319593
v 0.28911217 -0.21031234 -0.08056869
v 0.28888029 -0.21137933 -0.07934892
v 0.28738606 -0.21611316 -0.07456360
v 0.28617522 -0.21824714 -0.07456360
v 0.30447962 -0.19149720 -0.03686753
v 0.30079555 -0.19994298 -0.03750088
v 0.29981656 -0.20227231 -0.03675024
v 0.28775961 -0.21534673 -0.07456360
v 0.28922808 -0.21059787 -0.07934892
v 0.29363352 -0.21473057 0.02374645
v 0.29900505 -0.20616458 0.02304272
v 0.29843827 -0.20727666 0.02304272
v 0.29800030 -0.20805812 0.02304272
v 0.29677657 -0.21011696 0.02250320
v 0.30025453 -0.16276357 -0.09673085
v 0.30037047 -0.16276357 -0.09642591
v 0.30295962 -0.16993195 -0.08178849
v 0.29045181 -0.20666052 -0.08124897
v 0.31546742 -0.16247803 -0.03402918
v 0.31524843 -0.16289881 -0.03447487
v 0.31483622 -0.16429643 -0.03438104
v 0.30818944 -0.17517675 -0.04988639
v 0.30544572 -0.11745399 -0.06384356
v 0.30040911 -0.15808985 -0.09673085
v 0.30608978 -0.11996367 -0.06633005
v 0.30612843 -0.12583964 -0.07564263
v 0.30569047 -0.12507321 -0.07655748
v 0.30297251 -0.15553507 -0.09234432
v 0.30283081 -0.15553507 -0.09260236
v 0.30684979 -0.12705691 -0.07313270
v 0.30044776 -0.15965275 -0.09673085
v 0.29544979 -0.16393575 0.12663068
v 0.29650606 -0.16312424 0.12536399
v 0.30137522 -0.15580557 0.12151698
v 0.29819352 -0.16181680 0.12278367
v 0.29810335 -0.16321441 0.12071942
v 0.29988097 -0.16513800 0.11232166
v 0.30133657 -0.16189194 0.11361182
v 0.30306268 -0.15760894 0.11581681
v 0.30379691 -0.15654195 0.11450320
v 0.30325589 -0.15667721 0.11619214
v 0.30436369 -0.15497903 0.11335379
v 0.30397725 -0.15497903 0.11450320
v 0.29991962 -0.15497903 0.12484793
v 0.30455690 -0.15215377 0.11236857
v 0.30602539 -0.14799099 0.10751289
v 0.29985521 -0.15407736 0.12466027
v 0.29982945 -0.15104169 0.12306516
v 0.29936573 -0.15352132 0.12524671
v 0.29834810 -0.15240925 0.12625537
v 0.29873454 -0.15506920 0.12695909
v 0.28925386 -0.14357274 0.13270616
v 0.30453114 -0.14357274 0.10920183
v 0.30489182 -0.14357274 0.10833390
v 0.30614132 -0.14569171 0.10624618
v 0.30915555 -0.13856840 0.09364956
v 0.30856301 -0.13415016 0.09210137
v 0.29563013 -0.14357274 0.12531707
v 0.29645454 -0.14357274 0.12416766
v 0.29695691 -0.14357274 0.12341702
v 0.29869589 -0.15188326 0.12543435
v 0.30417046 -0.11745399 -0.01728058
v 0.30883352 -0.13415016 0.09125690
v 0.30921996 -0.15437792 0.09545578
v 0.30445386 -0.15727833 0.11053891
v 0.30351353 -0.15807481 0.11297848
v 0.30317861 -0.15810488 0.11436245
v 0.30279216 -0.15864588 0.11478470
v 0.29666064 -0.16342480 0.12442569
v 0.29019419 -0.20754717 -0.08080327
v 0.30534267 -0.18912278 -0.03750088
v 0.30616708 -0.18716912 -0.03719593
v 0.28978199 -0.20923031 -0.07934892
v 0.29958470 -0.20466179 0.02304272
v 0.29982945 -0.20385028 0.02384028
v 0.30931013 -0.15460334 0.09430637
v 0.30040911 -0.16121568 -0.09673085
v 0.30441521 -0.16163646 -0.08305518
v 0.30455690 -0.16238786 -0.08202305
v 0.30432504 -0.16285374 -0.08249221
v 0.31553181 -0.16120065 -0.03421684
v 0.31546742 -0.16247803 -0.03325508
v 0.30489182 -0.15965275 -0.08246874
v 0.30508503 -0.15808985 -0.08246874
v 0.30523962 -0.15655699 -0.08246874
v 0.31385724 -0.16679109 -0.01319899
v 0.30696572 -0.11745399 -0.03778237
v 0.30557454 -0.11776957 -0.06384356
v 0.30753250 -0.11895679 -0.03438104
v 0.31541590 -0.15389702 -0.03381806
v 0.30647624 -0.12705691 -0.07470435
v 0.30696572 -0.14258089 -0.07655748
v 0.30351353 -0.15553507 -0.09016279
v 0.31548029 -0.15499406 -0.03395881
v 0.30607691 -0.15588073 0.10624618
v 0.30468572 -0.15625643 0.11140682
v 0.30453114 -0.15594083 0.11241549
v 0.30459555 -0.15343115 0.11253279
v 0.30489182 -0.15497903 0.11140682
v 0.30838267 -0.15343115 0.09897439
v 0.30587081 -0.15194337 0.10812278
v 0.30493047 -0.15343115 0.11140682
v 0.30603826 -0.14878747 0.10753634
v 0.30670810 -0.14722456 0.10519060
v 0.30620573 -0.14737484 0.10676226
v 0.30593522 -0.14695405 0.10732523
v 0.29672505 -0.14800602 0.12611463
v 0.30651487 -0.14569171 0.10519060
v 0.30919420 -0.13688526 0.09221865
v 0.30699148 -0.14569171 0.10364241
v 0.30758402 -0.14483511 0.10134359
v 0.30919420 -0.13948512 0.09379030
v 0.31532573 -0.14175436 0.06723650
v 0.31557046 -0.13944003 0.06491422
v 0.30651487 -0.11745399 -0.02973647
v 0.30909114 -0.13415016 0.09036552
v 0.30929724 -0.13415016 0.08956797
v 0.30940030 -0.13415016 0.08912228
v 0.30910403 -0.13416518 0.09036552
v 0.30978674 -0.15343115 0.09275818
v 0.30956775 -0.15343115 0.09430637
v 0.30927148 -0.15343115 0.09564344
v 0.30906538 -0.15343115 0.09644099
v 0.31232436 -0.15603100 0.06024619
v 0.31250470 -0.15506920 0.06181784
v 0.30943895 -0.15481373 0.09275818
v 0.30531690 -0.15553507 -0.08246874
v 0.31553181 -0.15963774 -0.03414647
v 0.31587962 -0.14101798 0.06334257
v 0.31537725 -0.15923197 -0.01326936
v 0.31448843 -0.16429643 -0.01268293
v 0.31303284 -0.15343115 0.06177092
v 0.30703013 -0.11745399 -0.03623417
v 0.30713317 -0.11776957 -0.03595269
v 0.31548029 -0.13834298 0.06334257
v 0.31582810 -0.13948512 0.06334257
v 0.31551894 -0.15808985 -0.03409955
v 0.30767419 -0.15033537 0.10169545
v 0.30672097 -0.14878747 0.10519060
v 0.30714606 -0.14878747 0.10364241
v 0.30712030 -0.14722456 0.10364241
v 0.30921996 -0.13520212 0.09078775
v 0.30898810 -0.14558650 0.09576072
v 0.30903962 -0.14101798 0.09472860
v 0.30921996 -0.14101798 0.09395451
v 0.31532573 -0.14184452 0.06723650
v 0.31569928 -0.14101798 0.06486730
v 0.30958064 -0.15188326 0.09430637
v 0.31541590 -0.13850829 0.06442161
v 0.30678538 -0.11745399 -0.03128466
v 0.30968368 -0.13415016 0.08745680
v 0.31171895 -0.15188326 0.07882447
v 0.31392165 -0.14546628 0.07263171
v 0.30927148 -0.15188326 0.09564344
v 0.30906538 -0.15188326 0.09644099
v 0.31067556 -0.15418255 0.08264803
v 0.31537725 -0.14203988 0.06641549
v 0.31546742 -0.14237049 0.06486730
v 0.31550607 -0.14271614 0.06341294
v 0.31519691 -0.14403861 0.06341294
v 0.31481046 -0.14569171 0.06334257
v 0.31341928 -0.15188326 0.06177092
v 0.31327759 -0.15188326 0.06334257
v 0.30703013 -0.11745399 -0.03468599
v 0.31405047 -0.13496167 0.06177092
v 0.31368979 -0.13415016 0.06177092
v 0.31457860 -0.13637431 0.06334257
v 0.31374131 -0.13571307 0.06690810
v 0.30696572 -0.11745399 -0.03309088
v 0.31282674 -0.13415016 0.06796368
v 0.31304573 -0.13415016 0.06643895
v 0.31383148 -0.14976430 0.06306108
v 0.31428233 -0.14497035 0.07033288
v 0.31344504 -0.13493161 0.06641549
f 1 2 3
f 1 3 7
f 1 7 24
f 1 24 47
f 1 47 81
f 1 81 131
f 1 131 134
f 1 134 110
f 1 110 109
f 1 109 108
f 1 108 69
f 1 69 68
f 1 68 65
f 1 65 38
f 1 38 37
f 1 37 35
f 1 35 13
f 1 13 4
f 1 4 5
f 1 5 8
f 1 8 2
f 2 6 7
f 2 7 3
f 2 8 9
f 2 9 10
f 2 10 11
f 2 11 12
f 2 12 6
f 4 13 14
f 4 14 15
f 4 15 16
f 4 16 17
f 4 17 18
f 4 18 19
f 4 19 5
f 5 19 20
f 5 20 30
f 5 30 8
f 6 12 21
f 6 21 7
f 7 21 22
f 7 22 23
f 7 23 24
f 8 25 26
f 8 26 27
f 8 27 28
f 8 28 29
f 8 29 9
f 8 30 31
f 8 31 25
f 9 29 10
f 10 29 32
f 10 32 11
f 11 33 12
f 11 32 33
f 12 33 34
f 12 34 21
f 13 35 14
f 14 36 20
f 14 20 15
f 14 35 37
f 14 37 38
f 14 38 36
f 15 20 16
f 16 20 17
f 17 20 18
f 18 20 19
f 20 39 57
f 20 57 30
f 20 36 40
f 20 40 41
f 20 41 39
f 21 34 22
f 22 42 43
f 22 43 23
f 22 34 33
f 22 33 44
f 22 44 45
f 22 45 42
f 23 43 24
f 24 43 46
f 24 46 47
f 25 31 48
f 25 48 49
f 25 49 50
f 25 50 26
f 26 50 51
f 26 51 52
f 26 52 27
f 27 53 54
f 27 54 28
f 27 52 53
f 28 54 29
f 29 54 55
f 29 55 56
f 29 56 45
f 29 45 32
f 30 57 31
f 31 58 59
f 31 59 60
f 31 60 61
f 31 61 62
f 31 62 48
f 31 57 63
f 31 63 58
f 32 45 44
f 32 44 64
f 32 64 33
f 33 64 44
f 36 38 65
f 36 65 40
f 39 66 107
f 39 107 160
f 39 160 223
f 39 223 230
f 39 230 276
f 39 276 214
f 39 214 157
f 39 157 103
f 39 103 63
f 39 63 57
f 39 41 67
f 39 67 66
f 40 65 41
f 41 65 68
f 41 68 69
f 41 69 67
f 42 56 70
f 42 70 43
f 42 45 56
f 43 71 111
f 43 111 128
f 43 128 127
f 43 127 186
f 43 186 185
f 43 185 184
f 43 184 129
f 43 129 80
f 43 80 46
f 43 70 55
f 43 55 72
f 43 72 73
f 43 73 74
f 43 74 75
f 43 75 76
f 43 76 77
f 43 77 78
f 43 78 79
f 43 79 71
f 46 80 47
f 47 80 82
f 47 82 83
f 47 83 84
f 47 84 81
f 48 62 51
f 48 51 50
f 48 50 49
f 51 85 52
f 51 62 61
f 51 61 85
f 52 85 86
f 52 86 87
f 52 87 88
f 52 88 89
f 52 89 53
f 53 89 90
f 53 90 91
f 53 91 92
f 53 92 93
f 53 93 94
f 53 94 72
f 53 72 95
f 53 95 54
f 54 95 55
f 55 70 56
f 55 95 72
f 58 63 96
f 58 96 59
f 59 96 97
f 59 97 60
f 60 97 98
f 60 98 99
f 60 99 100
f 60 100 101
f 60 101 61
f 61 101 102
f 61 102 85
f 63 103 104
f 63 104 105
f 63 105 96
f 66 83 106
f 66 106 159
f 66 159 107
f 66 67 84
f 66 84 83
f 67 69 108
f 67 108 109
f 67 109 110
f 67 110 84
f 71 79 111
f 72 94 73
f 73 94 112
f 73 112 113
f 73 113 74
f 74 113 75
f 75 114 76
f 75 113 115
f 75 115 116
f 75 116 114
f 76 114 77
f 77 114 117
f 77 117 118
f 77 118 119
f 77 119 120
f 77 120 78
f 78 120 79
f 79 121 122
f 79 122 123
f 79 123 124
f 79 124 125
f 79 125 126
f 79 126 127
f 79 127 128
f 79 128 111
f 79 120 121
f 80 129 188
f 80 188 130
f 80 130 82
f 81 84 131
f 82 132 189
f 82 189 261
f 82 261 314
f 82 314 349
f 82 349 368
f 82 368 363
f 82 363 332
f 82 332 286
f 82 286 222
f 82 222 159
f 82 159 106
f 82 106 133
f 82 133 83
f 82 130 188
f 82 188 132
f 83 133 106
f 84 110 134
f 84 134 131
f 85 102 135
f 85 135 86
f 86 135 88
f 86 88 87
f 88 135 102
f 88 102 136
f 88 136 137
f 88 137 89
f 89 137 138
f 89 138 139
f 89 139 140
f 89 140 90
f 90 140 141
f 90 141 142
f 90 142 91
f 91 142 92
f 92 142 141
f 92 141 140
f 92 140 94
f 92 94 93
f 94 140 112
f 96 105 143
f 96 143 98
f 96 98 97
f 98 143 144
f 98 144 145
f 98 145 99
f 99 146 147
f 99 147 100
f 99 145 146
f 100 148 101
f 100 147 149
f 100 149 150
f 100 150 151
f 100 151 148
f 101 148 152
f 101 152 153
f 101 153 154
f 101 154 102
f 102 154 153
f 102 153 155
f 102 155 136
f 103 156 104
f 103 157 158
f 103 158 156
f 104 156 105
f 105 156 143
f 107 159 161
f 107 161 162
f 107 162 163
f 107 163 164
f 107 164 160
f 112 165 115
f 112 115 113
f 112 140 165
f 114 116 166
f 114 166 117
f 115 165 116
f 116 165 167
f 116 167 168
f 116 168 166
f 117 166 168
f 117 168 169
f 117 169 118
f 118 169 170
f 118 170 119
f 119 170 171
f 119 171 120
f 120 171 121
f 121 171 122
f 122 171 172
f 122 172 173
f 122 173 174
f 122 174 123
f 123 175 124
f 123 174 176
f 123 176 177
f 123 177 178
f 123 178 179
f 123 179 180
f 123 180 175
f 124 175 181
f 124 181 182
f 124 182 125
f 125 183 126
f 125 182 183
f 126 183 184
f 126 184 185
f 126 185 186
f 126 186 127
f 129 184 183
f 129 183 187
f 129 187 188
f 132 188 189
f 136 155 190
f 136 190 139
f 136 139 191
f 136 191 192
f 136 192 137
f 137 192 139
f 137 139 138
f 139 190 193
f 139 193 194
f 139 194 140
f 139 192 191
f 140 194 195
f 140 195 196
f 140 196 170
f 140 170 197
f 140 197 198
f 140 198 165
f 143 156 158
f 143 158 144
f 144 199 145
f 144 158 199
f 145 199 200
f 145 200 201
f 145 201 202
f 145 202 203
f 145 203 146
f 146 203 147
f 147 204 205
f 147 205 206
f 147 206 149
f 147 203 202
f 147 202 207
f 147 207 201
f 147 201 208
f 147 208 204
f 148 151 209
f 148 209 190
f 148 190 152
f 149 206 210
f 149 210 150
f 150 210 211
f 150 211 212
f 150 212 151
f 151 212 213
f 151 213 190
f 151 190 209
f 152 155 153
f 152 190 155
f 157 214 215
f 157 215 216
f 157 216 158
f 158 217 199
f 158 216 218
f 158 218 219
f 158 219 220
f 158 220 221
f 158 221 217
f 159 222 161
f 160 164 223
f 161 222 162
f 162 222 224
f 162 224 163
f 163 225 226
f 163 226 227
f 163 227 228
f 163 228 164
f 163 224 229
f 163 229 225
f 164 228 230
f 164 230 223
f 165 198 197
f 165 197 168
f 165 168 167
f 168 197 170
f 168 170 169
f 170 196 231
f 170 231 171
f 171 231 172
f 172 231 232
f 172 232 176
f 172 176 173
f 173 176 174
f 175 180 233
f 175 233 181
f 176 232 178
f 176 178 177
f 178 232 234
f 178 234 235
f 178 235 236
f 178 236 237
f 178 237 238
f 178 238 239
f 178 239 240
f 178 240 180
f 178 180 179
f 180 240 241
f 180 241 242
f 180 242 181
f 180 181 233
f 181 243 182
f 181 242 244
f 181 244 245
f 181 245 243
f 182 243 246
f 182 246 188
f 182 188 247
f 182 247 248
f 182 248 249
f 182 249 250
f 182 250 183
f 183 251 187
f 183 250 249
f 183 249 251
f 187 251 188
f 188 252 253
f 188 253 254
f 188 254 255
f 188 255 256
f 188 256 189
f 188 251 257
f 188 257 258
f 188 258 259
f 188 259 260
f 188 260 247
f 188 246 252
f 189 256 262
f 189 262 261
f 190 213 193
f 193 213 212
f 193 212 211
f 193 211 210
f 193 210 263
f 193 263 264
f 193 264 265
f 193 265 266
f 193 266 267
f 193 267 238
f 193 238 237
f 193 237 236
f 193 236 235
f 193 235 268
f 193 268 232
f 193 232 194
f 194 232 195
f 195 232 231
f 195 231 196
f 199 217 200
f 200 269 208
f 200 208 201
f 200 217 269
f 201 207 202
f 204 206 205
f 204 208 270
f 204 270 271
f 204 271 210
f 204 210 206
f 208 269 272
f 208 272 270
f 210 271 273
f 210 273 274
f 210 274 275
f 210 275 263
f 214 276 227
f 214 227 215
f 215 227 277
f 215 277 278
f 215 278 279
f 215 279 216
f 216 279 278
f 216 278 218
f 217 221 271
f 217 271 269
f 218 280 281
f 218 281 220
f 218 220 219
f 218 278 282
f 218 282 283
f 218 283 284
f 218 284 280
f 220 271 221
f 220 281 285
f 220 285 273
f 220 273 271
f 222 286 287
f 222 287 224
f 224 287 286
f 224 286 288
f 224 288 289
f 224 289 229
f 225 290 291
f 225 291 227
f 225 227 226
f 225 229 290
f 227 291 292
f 227 292 282
f 227 282 277
f 227 276 228
f 228 276 230
f 229 289 293
f 229 293 291
f 229 291 290
f 232 268 235
f 232 235 234
f 238 267 266
f 238 266 264
f 238 264 294
f 238 294 295
f 238 295 239
f 239 295 296
f 239 296 240
f 240 296 241
f 241 297 242
f 241 296 298
f 241 298 299
f 241 299 300
f 241 300 301
f 241 301 297
f 242 297 244
f 243 245 246
f 244 297 245
f 245 297 302
f 245 302 303
f 245 303 304
f 245 304 254
f 245 254 305
f 245 305 246
f 246 305 252
f 247 260 248
f 248 260 249
f 249 260 259
f 249 259 258
f 249 258 257
f 249 257 306
f 249 306 251
f 251 306 257
f 252 305 253
f 253 305 254
f 254 304 307
f 254 307 255
f 255 308 262
f 255 262 256
f 255 307 309
f 255 309 310
f 255 310 311
f 255 311 312
f 255 312 313
f 255 313 308
f 261 262 315
f 261 315 316
f 261 316 317
f 261 317 314
f 262 308 318
f 262 318 315
f 263 295 294
f 263 294 264
f 263 275 319
f 263 319 320
f 263 320 321
f 263 321 322
f 263 322 296
f 263 296 295
f 264 266 265
f 269 271 270
f 269 270 272
f 273 285 274
f 274 323 324
f 274 324 325
f 274 325 275
f 274 285 323
f 275 325 319
f 277 282 278
f 280 284 326
f 280 326 291
f 280 291 327
f 280 327 328
f 280 328 281
f 281 329 330
f 281 330 285
f 281 328 329
f 282 292 283
f 283 292 284
f 284 292 326
f 285 330 331
f 285 331 323
f 286 332 333
f 286 333 288
f 288 333 332
f 288 332 334
f 288 334 335
f 288 335 289
f 289 335 293
f 291 326 292
f 291 293 336
f 291 336 327
f 293 335 328
f 293 328 336
f 296 322 298
f 297 301 302
f 298 322 299
f 299 322 337
f 299 337 300
f 300 337 338
f 300 338 301
f 301 338 302
f 302 338 303
f 303 338 339
f 303 339 340
f 303 340 310
f 303 310 309
f 303 309 307
f 303 307 304
f 308 341 318
f 308 313 341
f 310 340 342
f 310 342 343
f 310 343 311
f 311 343 344
f 311 344 312
f 312 345 346
f 312 346 313
f 312 344 347
f 312 347 345
f 313 346 335
f 313 335 348
f 313 348 317
f 313 317 341
f 314 317 349
f 315 318 316
f 316 318 341
f 316 341 317
f 317 350 349
f 317 348 350
f 319 325 351
f 319 351 352
f 319 352 345
f 319 345 320
f 320 347 321
f 320 345 347
f 321 347 353
f 321 353 354
f 321 354 322
f 322 354 337
f 323 331 324
f 324 331 355
f 324 355 325
f 325 355 351
f 327 336 328
f 328 335 346
f 328 346 345
f 328 345 356
f 328 356 357
f 328 357 358
f 328 358 330
f 328 330 329
f 330 358 359
f 330 359 360
f 330 360 361
f 330 361 331
f 331 361 362
f 331 362 351
f 331 351 355
f 332 363 334
f 334 364 365
f 334 365 366
f 334 366 348
f 334 348 335
f 334 363 364
f 337 339 338
f 337 354 339
f 339 354 340
f 340 354 353
f 340 353 342
f 342 353 344
f 342 344 343
f 344 353 347
f 345 352 356
f 348 366 367
f 348 367 350
f 349 350 369
f 349 369 370
f 349 370 365
f 349 365 368
f 350 367 369
f 351 362 371
f 351 371 360
f 351 360 372
f 351 372 352
f 352 372 357
f 352 357 356
f 357 372 360
f 357 360 359
f 357 359 358
f 360 371 361
f 361 371 362
f 363 368 365
f 363 365 364
f 365 370 373
f 365 373 366
f 366 373 367
f 367 373 369
f 369 373 370

