# https://github.com/mikedh/trimesh
v -0.03981233 -0.04340199 -0.15329095
v -0.04954429 -0.02682372 -0.14075136
v -0.04845300 -0.02668803 -0.14082204
v -0.03981233 -0.02112493 -0.13830564
v -0.03981233 -0.04340199 -0.13967694
v -0.15614743 -0.05417046 -0.11869750
v -0.18798934 -0.05417046 -0.11311335
v -0.11031302 -0.04340199 -0.13530858
v -0.11046251 -0.04215615 -0.13460172
v -0.10920678 -0.04109534 -0.13433312
v -0.11008877 -0.03914641 -0.13301837
v -0.03981233 -0.02040950 -0.13781084
v -0.10968514 -0.03628468 -0.13132192
v -0.11144916 -0.02995681 -0.12674150
v -0.18604595 0.06448014 -0.04538257
v -0.04126241 -0.04340199 -0.13889940
v -0.15614743 -0.05417046 -0.11150172
v -0.03981233 0.04832125 -0.01426684
v -0.18900591 -0.05417046 -0.11280234
v -0.18882651 -0.05327001 -0.11273165
v -0.11195743 -0.04340199 -0.13481378
v -0.11046251 -0.04340199 -0.13526617
v -0.11137441 -0.04240285 -0.13447449
v -0.19072506 -0.04366102 -0.10989010
v -0.03981233 -0.01963240 -0.13720295
v -0.19186121 0.00402618 -0.08015980
v -0.19186121 0.01233999 -0.07484426
v -0.18779500 0.07160978 -0.03486458
v -0.17253181 0.07160978 -0.03486458
v -0.03981233 0.03498709 -0.07531078
v -0.03981233 0.03295181 -0.07798269
v -0.03981233 0.03221171 -0.07887333
v -0.03981233 -0.00955468 -0.12863587
v -0.03981233 -0.01024544 -0.12941341
v -0.03981233 -0.01102255 -0.13013440
v -0.03981233 -0.01611692 -0.13433312
v -0.03981233 -0.01859625 -0.13636886
v -0.04238360 -0.04340199 -0.13837633
v -0.16786764 -0.05417046 -0.10823605
v -0.05144285 0.04573090 -0.01426684
v -0.12593499 0.02921430 -0.01426684
v -0.03981233 0.05436541 -0.01426684
v -0.14903159 0.06448014 -0.00886647
v -0.19253392 -0.05417046 -0.11133208
v -0.19018688 -0.04744788 -0.11112003
v -0.18963377 -0.04632539 -0.11102106
v -0.18957398 -0.04482051 -0.11062523
v -0.19118849 -0.04479585 -0.11008801
v -0.19216018 -0.04528925 -0.10974873
v -0.19175656 -0.04425310 -0.10948012
v -0.19253392 -0.04461082 -0.10905601
v -0.19253392 -0.04340199 -0.10816538
v -0.19186121 0.01233999 -0.06354873
v -0.18604595 0.05952146 -0.03706996
v -0.18604595 0.06064394 -0.03664585
v -0.17638874 0.07184415 -0.02202810
v -0.17688205 0.07184415 -0.02262186
v -0.17721094 0.07184415 -0.02307425
v -0.17731559 0.07184415 -0.02322976
v -0.17740528 0.07184415 -0.02337112
v -0.17745013 0.07184415 -0.02348422
v -0.16387620 0.07184415 -0.02348422
v -0.16115543 0.07184415 -0.02347008
v -0.17238234 0.07160978 -0.03475148
v -0.03981233 0.05363765 -0.03192406
v -0.03981233 0.05342796 -0.03291366
v -0.03981233 0.05321826 -0.03373361
v -0.03981233 0.05281120 -0.03526041
v -0.03981233 0.05193542 -0.03844126
v -0.03981233 0.05108430 -0.04146659
v -0.03981233 0.05060323 -0.04309236
v -0.03981233 0.05041821 -0.04364371
v -0.03981233 0.04877765 -0.04839377
v -0.03981233 0.04822257 -0.04989230
v -0.03981233 0.04767983 -0.05124946
v -0.03981233 0.04404100 -0.06008514
v -0.03981233 0.04312821 -0.06223398
v -0.03981233 0.04277049 -0.06302565
v -0.03981233 0.04225242 -0.06394456
v -0.03981233 0.04152466 -0.06516035
v -0.03981233 0.03745410 -0.07164928
v -0.03981233 0.03655364 -0.07306299
v -0.03981233 0.03628227 -0.07345882
v -0.16854037 -0.05417046 -0.10805227
v -0.15982496 0.06448014 -0.00886647
v -0.13719178 0.03228572 -0.01720736
v -0.13641442 0.03171831 -0.01720736
v -0.19253392 -0.05417046 -0.10224193
v -0.17097710 -0.05417046 -0.10743025
v -0.16955691 -0.05417046 -0.10778367
v -0.03981233 0.05448877 -0.01579365
v -0.15211114 0.07184415 -0.00886647
v -0.19253392 -0.04636239 -0.10983354
v -0.19112870 -0.04636239 -0.11052626
v -0.19253392 -0.04494387 -0.10925393
v -0.19253392 -0.04340199 -0.09746360
v -0.16326328 0.07184415 -0.00886647
v -0.17148537 0.07160978 -0.03398808
v -0.16081160 0.07184415 -0.02311666
v -0.03981233 0.05414339 -0.02822015
v -0.14474115 0.03845324 -0.01720736
v -0.03981233 0.05477247 -0.02199983
v -0.15246992 0.07184415 -0.00981366
v -0.03981233 0.05472313 -0.02355491
v -0.16007908 0.07184415 -0.02221188
v -0.03981233 0.05455044 -0.02510999
v -0.15294829 0.07184415 -0.01102945
v -0.15882336 0.07184415 -0.02051543
v -0.15771711 0.07184415 -0.01881898
v -0.15445816 0.07184415 -0.01380032
v -0.15369576 0.07184415 -0.01258453
v -0.15323233 0.07184415 -0.01170803
f 1 2 3
f 1 3 4
f 1 4 12
f 1 12 25
f 1 25 37
f 1 37 36
f 1 36 35
f 1 35 34
f 1 34 33
f 1 33 32
f 1 32 31
f 1 31 30
f 1 30 83
f 1 83 82
f 1 82 81
f 1 81 80
f 1 80 79
f 1 79 78
f 1 78 77
f 1 77 76
f 1 76 75
f 1 75 74
f 1 74 73
f 1 73 72
f 1 72 71
f 1 71 70
f 1 70 69
f 1 69 68
f 1 68 67
f 1 67 66
f 1 66 65
f 1 65 100
f 1 100 106
f 1 106 104
f 1 104 102
f 1 102 91
f 1 91 42
f 1 42 18
f 1 18 5
f 1 5 17
f 1 17 6
f 1 6 7
f 1 7 8
f 1 8 9
f 1 9 10
f 1 10 11
f 1 11 2
f 2 12 4
f 2 4 3
f 2 11 13
f 2 13 14
f 2 14 15
f 2 15 12
f 5 16 17
f 5 18 16
f 6 17 39
f 6 39 84
f 6 84 90
f 6 90 89
f 6 89 88
f 6 88 44
f 6 44 19
f 6 19 7
f 7 19 20
f 7 20 21
f 7 21 22
f 7 22 8
f 8 22 9
f 9 22 23
f 9 23 11
f 9 11 10
f 11 23 24
f 11 24 15
f 11 15 13
f 12 15 25
f 13 15 14
f 15 24 26
f 15 26 27
f 15 27 28
f 15 28 29
f 15 29 30
f 15 30 31
f 15 31 32
f 15 32 33
f 15 33 34
f 15 34 35
f 15 35 36
f 15 36 37
f 15 37 25
f 16 38 17
f 16 18 38
f 17 38 18
f 17 18 40
f 17 40 41
f 17 41 39
f 18 42 43
f 18 43 40
f 19 44 20
f 20 44 45
f 20 45 21
f 21 23 22
f 21 45 46
f 21 46 47
f 21 47 24
f 21 24 23
f 24 47 48
f 24 48 49
f 24 49 50
f 24 50 26
f 26 50 51
f 26 51 27
f 27 51 52
f 27 52 96
f 27 96 53
f 27 53 28
f 28 53 54
f 28 54 55
f 28 55 56
f 28 56 57
f 28 57 58
f 28 58 59
f 28 59 60
f 28 60 61
f 28 61 62
f 28 62 29
f 29 62 63
f 29 63 64
f 29 64 65
f 29 65 66
f 29 66 67
f 29 67 68
f 29 68 69
f 29 69 70
f 29 70 71
f 29 71 72
f 29 72 73
f 29 73 74
f 29 74 75
f 29 75 76
f 29 76 77
f 29 77 78
f 29 78 79
f 29 79 80
f 29 80 81
f 29 81 82
f 29 82 83
f 29 83 30
f 39 41 84
f 40 43 41
f 41 43 85
f 41 85 86
f 41 86 87
f 41 87 88
f 41 88 89
f 41 89 90
f 41 90 84
f 42 91 92
f 42 92 43
f 43 92 97
f 43 97 85
f 44 93 94
f 44 94 45
f 44 88 96
f 44 96 52
f 44 52 51
f 44 51 95
f 44 95 93
f 45 94 46
f 46 94 48
f 46 48 47
f 48 94 49
f 49 94 93
f 49 93 95
f 49 95 50
f 50 95 51
f 53 96 88
f 53 88 85
f 53 85 97
f 53 97 54
f 54 97 56
f 54 56 55
f 56 97 92
f 56 92 103
f 56 103 107
f 56 107 112
f 56 112 111
f 56 111 110
f 56 110 109
f 56 109 108
f 56 108 105
f 56 105 99
f 56 99 63
f 56 63 62
f 56 62 61
f 56 61 60
f 56 60 59
f 56 59 58
f 56 58 57
f 63 98 64
f 63 99 65
f 63 65 98
f 64 98 65
f 65 99 100
f 85 88 101
f 85 101 86
f 86 101 88
f 86 88 87
f 91 102 92
f 92 102 104
f 92 104 103
f 99 105 106
f 99 106 100
f 103 104 107
f 104 106 105
f 104 105 108
f 104 108 109
f 104 109 110
f 104 110 111
f 104 111 112
f 104 112 107

