# https://github.com/mikedh/trimesh
v -0.18624217 -0.17318329 -0.10468876
v -0.20019760 -0.17318329 -0.10468876
v -0.17850744 -0.21364115 -0.10468876
v -0.17199710 -0.21364115 -0.10524619
v -0.18902009 -0.11938353 -0.11761007
v -0.22145329 -0.17123298 -0.12309293
v -0.22136771 -0.17358222 -0.12370519
v -0.19371359 -0.11938353 -0.11761007
v -0.20285045 -0.13650415 -0.11761007
v -0.21511411 -0.13651523 -0.12673904
v -0.20572051 -0.20779022 -0.13799721
v -0.19343054 -0.22114319 -0.15037022
v -0.21833964 -0.18220347 -0.12663853
v -0.21674663 -0.18678005 -0.12822856
v -0.22205232 -0.18898523 -0.13620614
v -0.22157177 -0.19100202 -0.13741236
v -0.17239206 -0.21364115 -0.10816125
v -0.18902009 -0.11008631 -0.15603586
v -0.18917149 -0.11122769 -0.14687032
v -0.19116607 -0.11113904 -0.14609358
v -0.19564234 -0.10922197 -0.15159473
v -0.19747892 -0.10895602 -0.15212473
v -0.22282251 -0.17122190 -0.12490229
v -0.22142696 -0.13397761 -0.13287073
v -0.22311214 -0.13432113 -0.13428713
v -0.22293441 -0.16877292 -0.12513987
v -0.22288832 -0.17382601 -0.12624559
v -0.22301999 -0.17846907 -0.12963583
v -0.22311214 -0.18025315 -0.13105224
v -0.22283567 -0.18348891 -0.13305349
v -0.22465250 -0.17169839 -0.12795441
v -0.19969072 -0.10888954 -0.15282838
v -0.20757028 -0.11080660 -0.14984935
v -0.21228353 -0.11231366 -0.14717187
v -0.21378439 -0.11379855 -0.14517063
v -0.21849106 -0.12015922 -0.13808858
v -0.21990634 -0.12154439 -0.13747634
v -0.21471256 -0.13481979 -0.12703146
v -0.21616076 -0.13504142 -0.12808234
v -0.21977469 -0.13418816 -0.13139949
v -0.20725430 -0.20705885 -0.14007156
v -0.20575343 -0.20838860 -0.13987966
v -0.19343054 -0.22055588 -0.15693138
v -0.17286603 -0.21364115 -0.11114027
v -0.20141540 -0.21353032 -0.14763793
v -0.20181037 -0.21325330 -0.15009608
v -0.20240282 -0.21274357 -0.15228009
v -0.20399585 -0.21125867 -0.15537791
v -0.20518731 -0.21008405 -0.15847573
v -0.22286857 -0.18981633 -0.13831704
v -0.22291466 -0.18519543 -0.13446989
v -0.22210497 -0.19129014 -0.13982483
v -0.20517415 -0.13990611 -0.19803466
v -0.20507541 -0.13712470 -0.19771481
v -0.20506225 -0.13412167 -0.19691981
v -0.20506225 -0.13165054 -0.19597857
v -0.20506225 -0.12859210 -0.19472665
v -0.20520048 -0.12306253 -0.19170193
v -0.20507541 -0.12095708 -0.19021242
v -0.20506225 -0.11971596 -0.18908843
v -0.20506225 -0.11823108 -0.18755323
v -0.20506225 -0.11553832 -0.18460161
v -0.20506225 -0.11436370 -0.18318520
v -0.20506225 -0.11331097 -0.18180535
v -0.20506225 -0.11226933 -0.18038894
v -0.20479235 -0.10996442 -0.17656921
v -0.20480551 -0.10912224 -0.17450400
v -0.20491085 -0.10866790 -0.17167118
v -0.20491085 -0.10834655 -0.16895716
v -0.19813720 -0.10825790 -0.15570687
v -0.19736702 -0.10850169 -0.15382443
v -0.17381395 -0.21364115 -0.11593778
v -0.17701975 -0.21364115 -0.12593489
v -0.19343054 -0.20275930 -0.16850939
v -0.22392841 -0.17045729 -0.12648318
v -0.22169686 -0.12731775 -0.13632493
v -0.22300024 -0.13079728 -0.13593200
v -0.22426412 -0.13460925 -0.13548422
v -0.22447477 -0.13638226 -0.13521922
v -0.22449452 -0.16345391 -0.12823770
v -0.23230165 -0.15887732 -0.14089399
v -0.22437602 -0.17318329 -0.12842960
v -0.22627844 -0.17400330 -0.13240467
v -0.22566626 -0.17275112 -0.13044912
v -0.22546877 -0.17045729 -0.12903271
v -0.22810845 -0.16891698 -0.13326366
v -0.22781880 -0.17126621 -0.13353780
v -0.20085587 -0.10855709 -0.15523170
v -0.20357455 -0.10959873 -0.15227095
v -0.20965043 -0.11098390 -0.15085454
v -0.21053910 -0.11148256 -0.14919140
v -0.21024286 -0.11057389 -0.15360511
v -0.21306686 -0.11210311 -0.14991331
v -0.21616076 -0.11377639 -0.14919140
v -0.21458089 -0.11346611 -0.14709877
v -0.22165077 -0.11702321 -0.14887157
v -0.22055804 -0.11825324 -0.14465889
v -0.21525893 -0.11539426 -0.14368112
v -0.21941264 -0.11988219 -0.13956896
v -0.22154546 -0.12049166 -0.14185349
v -0.22138087 -0.12243089 -0.13916688
v -0.23070864 -0.13089701 -0.14682463
v -0.23424357 -0.13484196 -0.14918227
v -0.23242015 -0.13733525 -0.14462234
v -0.22117681 -0.12366091 -0.13786013
v -0.20994006 -0.20497557 -0.14570064
v -0.19818985 -0.21626743 -0.15789090
v -0.19968415 -0.21466063 -0.15924334
v -0.19343054 -0.22006830 -0.15880471
v -0.20859718 -0.20653802 -0.15037022
v -0.20559545 -0.20974053 -0.15615466
v -0.20716873 -0.20821131 -0.15693138
v -0.20732013 -0.20797860 -0.15925248
v -0.20730038 -0.20679289 -0.16351084
v -0.22609412 -0.18531732 -0.14205453
v -0.22762132 -0.18372160 -0.14714447
v -0.22827302 -0.18353324 -0.15382443
v -0.22436944 -0.19003796 -0.15820159
v -0.22290149 -0.19218774 -0.15847573
v -0.22142696 -0.19379453 -0.15769900
v -0.21355399 -0.20150711 -0.14986763
v -0.20859718 -0.13869826 -0.19648116
v -0.20666185 -0.13869826 -0.19734015
v -0.19343712 -0.21367438 -0.16850026
v -0.20616156 -0.16499420 -0.19501907
v -0.20609573 -0.14954686 -0.19753206
v -0.20797840 -0.15032255 -0.19671875
v -0.21206629 -0.15187393 -0.19491855
v -0.21751023 -0.15497670 -0.19249695
v -0.21581188 -0.14411702 -0.19330110
v -0.20721481 -0.13657064 -0.19675531
v -0.21677296 -0.13709146 -0.19185729
v -0.21747731 -0.13326842 -0.18987432
v -0.20940686 -0.12351686 -0.19015759
v -0.20793891 -0.12273009 -0.19055966
v -0.20525315 -0.12620961 -0.19352041
v -0.20635905 -0.12434795 -0.19208573
v -0.20689225 -0.12145574 -0.19014845
v -0.20789941 -0.12029220 -0.18879601
v -0.20558228 -0.11697888 -0.18604545
v -0.20776776 -0.11867433 -0.18700494
v -0.20780066 -0.11367666 -0.18059911
v -0.21028236 -0.11866325 -0.18547887
v -0.21090773 -0.11681267 -0.18275571
v -0.21067074 -0.11537210 -0.18104689
v -0.20812323 -0.11060714 -0.17621281
v -0.20527948 -0.11098390 -0.17839684
v -0.20647753 -0.10932170 -0.17467763
v -0.20666185 -0.10881196 -0.17167118
v -0.20491085 -0.10810276 -0.16623400
v -0.20666185 -0.10859034 -0.16934095
v -0.20470020 -0.10794762 -0.16391291
v -0.20588510 -0.10830223 -0.16158270
v -0.19343054 -0.21917072 -0.16065060
v -0.19343054 -0.21807368 -0.16245082
v -0.23062305 -0.16427391 -0.13765909
v -0.22759499 -0.13558440 -0.13910292
v -0.22560042 -0.13638226 -0.13652597
v -0.22918802 -0.14307537 -0.13903895
v -0.23087979 -0.13948503 -0.14197229
v -0.23062963 -0.14319727 -0.14072950
v -0.22921435 -0.14977956 -0.13744892
v -0.22768715 -0.15496562 -0.13432368
v -0.22893129 -0.15420100 -0.13632493
v -0.22750284 -0.14063748 -0.13766824
v -0.23365770 -0.15807947 -0.14320593
v -0.23227532 -0.16165873 -0.14060157
v -0.23000429 -0.15187393 -0.13833531
v -0.23140640 -0.14570164 -0.14145141
v -0.23244649 -0.15549751 -0.14162504
v -0.22940525 -0.16736561 -0.13552992
v -0.22908270 -0.16953753 -0.13537457
v -0.22769374 -0.18241402 -0.14348921
v -0.20820880 -0.10866790 -0.16158270
v -0.20512150 -0.10842411 -0.16003836
v -0.20821538 -0.10972063 -0.15603586
v -0.20976233 -0.11014172 -0.15538704
v -0.20911721 -0.10918873 -0.15980990
v -0.21131586 -0.11014172 -0.15848486
v -0.21185564 -0.11066254 -0.15643793
v -0.22021574 -0.11402018 -0.16028509
v -0.21793811 -0.11363233 -0.15533221
v -0.21689144 -0.11380963 -0.15107385
v -0.22290149 -0.11544967 -0.15933471
v -0.22200624 -0.11551616 -0.15649276
v -0.22311214 -0.11708970 -0.15174093
v -0.21858979 -0.11526128 -0.14867966
v -0.22390866 -0.11823108 -0.14980366
v -0.22283567 -0.11833081 -0.14765620
v -0.23091270 -0.12903535 -0.14952038
v -0.22712762 -0.12708504 -0.14454010
v -0.23238065 -0.13182784 -0.14892639
v -0.23394077 -0.13336815 -0.15011435
v -0.23531655 -0.13466465 -0.15158560
v -0.23554037 -0.13721336 -0.15018746
v -0.23372353 -0.13756796 -0.14666928
v -0.23234773 -0.13952935 -0.14390957
v -0.23095879 -0.13759012 -0.14256626
v -0.21166474 -0.20340201 -0.14918227
v -0.20572051 -0.20685939 -0.16781488
v -0.20162605 -0.20967405 -0.16850939
v -0.20872226 -0.20665992 -0.15693138
v -0.20943320 -0.20582883 -0.15382443
v -0.22018941 -0.19488049 -0.16002920
v -0.20940028 -0.20580667 -0.16002920
v -0.20955168 -0.20517504 -0.16158270
v -0.20865643 -0.20505313 -0.16468052
v -0.21014413 -0.20230497 -0.16850939
v -0.20725430 -0.20518611 -0.16850939
v -0.22751600 -0.18351107 -0.14507925
v -0.23860793 -0.16010734 -0.15482048
v -0.23075472 -0.17838042 -0.15847573
v -0.22895104 -0.18218131 -0.15615466
v -0.22792414 -0.18423136 -0.15537791
v -0.23696225 -0.16446229 -0.15848486
v -0.22402055 -0.19012662 -0.16002920
v -0.22669974 -0.18599328 -0.15769900
v -0.22759499 -0.18367728 -0.16082422
v -0.22160469 -0.19320720 -0.16054095
v -0.22274351 -0.19196610 -0.16023026
v -0.21951137 -0.19575592 -0.15693138
v -0.21869513 -0.19650944 -0.15537791
v -0.21555514 -0.14197832 -0.19336507
v -0.21204654 -0.13983962 -0.19490941
v -0.21097356 -0.13792256 -0.19516528
v -0.19826227 -0.21181272 -0.16850939
v -0.20696466 -0.17287300 -0.19205832
v -0.20609573 -0.17078973 -0.19319144
v -0.21069708 -0.16369769 -0.19345646
v -0.21208605 -0.16193575 -0.19337421
v -0.21077608 -0.15651701 -0.19501907
v -0.20720165 -0.15523156 -0.19664565
v -0.20637880 -0.15278259 -0.19724877
v -0.20976233 -0.15187393 -0.19590547
v -0.21200046 -0.15341423 -0.19490028
v -0.21464014 -0.15581887 -0.19360266
v -0.21899792 -0.15575239 -0.19179330
v -0.21943239 -0.15341423 -0.19159227
v -0.21853056 -0.14954686 -0.19198522
v -0.21976152 -0.13700281 -0.19014845
v -0.21952454 -0.13464250 -0.18931687
v -0.21644383 -0.14032720 -0.19266142
v -0.21852398 -0.13947395 -0.19136383
v -0.21426493 -0.12647557 -0.18862238
v -0.21190173 -0.12342820 -0.18858584
v -0.20996640 -0.12184358 -0.18899704
v -0.20942661 -0.11984894 -0.18748013
v -0.21219794 -0.11380963 -0.17796734
v -0.21172400 -0.11839729 -0.18425436
v -0.21331701 -0.11677942 -0.18122966
v -0.20994665 -0.11054065 -0.17457710
v -0.20798498 -0.10931061 -0.17374552
v -0.20855768 -0.10914440 -0.17158894
v -0.20743203 -0.10829114 -0.16391291
v -0.19978288 -0.21092622 -0.16850939
v -0.23241357 -0.14287591 -0.14349836
v -0.23341413 -0.14286482 -0.14513408
v -0.23468462 -0.15032255 -0.14609358
v -0.23529680 -0.15652808 -0.14615755
v -0.23550745 -0.15807947 -0.14656876
v -0.23719263 -0.15807947 -0.15026056
v -0.23828538 -0.15807947 -0.15292888
v -0.23078103 -0.16993646 -0.14037311
v -0.23079420 -0.17467926 -0.14504270
v -0.23234115 -0.16999186 -0.14499700
v -0.21023630 -0.10905575 -0.16426930
v -0.21067074 -0.10941035 -0.16188424
v -0.21369881 -0.11076227 -0.16215840
v -0.22074236 -0.11420856 -0.16158270
v -0.21939289 -0.11409774 -0.15694052
v -0.22307922 -0.11559372 -0.16197563
v -0.22460642 -0.11685700 -0.16003836
v -0.22452086 -0.11730025 -0.15673035
v -0.22365850 -0.11706753 -0.15382443
v -0.22471834 -0.11826433 -0.15227095
v -0.22607437 -0.12003733 -0.15210646
v -0.23393418 -0.13226001 -0.15180490
v -0.22739092 -0.12194331 -0.15227095
v -0.23602092 -0.13559549 -0.15382443
v -0.23625130 -0.13715795 -0.15227095
v -0.23373012 -0.12946752 -0.15737001
v -0.23635663 -0.14334132 -0.15074488
v -0.23561278 -0.14100316 -0.14946555
v -0.23538897 -0.14877116 -0.14754654
v -0.23352605 -0.14024963 -0.14579202
v -0.23287435 -0.14100316 -0.14454010
v -0.21341576 -0.17316112 -0.18870462
v -0.21827382 -0.19607727 -0.16235943
v -0.21280356 -0.20027708 -0.16658123
v -0.21182273 -0.20066493 -0.16835404
v -0.22223006 -0.17301706 -0.18254554
v -0.21952454 -0.17315004 -0.18461988
v -0.21770113 -0.17316112 -0.18596319
v -0.21610151 -0.17301706 -0.18719684
v -0.23910821 -0.15807947 -0.15631913
v -0.23865402 -0.16019599 -0.15717811
v -0.23242673 -0.17476791 -0.16002920
v -0.23306525 -0.17338275 -0.16158270
v -0.23227532 -0.17481224 -0.16216753
v -0.23521123 -0.16848482 -0.16254219
v -0.22441552 -0.18853090 -0.16184770
v -0.23103777 -0.17710607 -0.16203046
v -0.23238065 -0.17318329 -0.16532018
v -0.22003142 -0.19400507 -0.16273409
v -0.22442210 -0.18664707 -0.16524708
v -0.22303316 -0.18844225 -0.16565830
v -0.21778011 -0.14101424 -0.19198522
v -0.21729299 -0.15947571 -0.19174763
v -0.21837256 -0.15810163 -0.19168366
v -0.21595669 -0.15806838 -0.19267971
v -0.22111099 -0.15528697 -0.19054139
v -0.22080159 -0.15722620 -0.19057795
v -0.22238146 -0.13869826 -0.18886911
v -0.22048562 -0.13947395 -0.19019415
v -0.22147304 -0.13608307 -0.18880515
v -0.22280276 -0.13186109 -0.18553370
v -0.22282251 -0.12643125 -0.18244501
v -0.21365273 -0.12317334 -0.18718770
v -0.21130270 -0.12087950 -0.18716030
v -0.22134139 -0.12478013 -0.18248157
v -0.21181614 -0.11202554 -0.17527159
v -0.21414644 -0.11590399 -0.17936546
v -0.21567364 -0.11669077 -0.17910046
v -0.21428468 -0.11462964 -0.17707180
v -0.21378439 -0.11840837 -0.18264605
v -0.21523918 -0.11767701 -0.18066308
v -0.21516676 -0.11389828 -0.17472330
v -0.21360666 -0.11235799 -0.17315155
v -0.21182273 -0.11078443 -0.17167118
v -0.20958460 -0.10893386 -0.16623400
v -0.23609332 -0.15575239 -0.14764706
v -0.23686350 -0.15575239 -0.14922795
v -0.23773902 -0.15652808 -0.15150334
v -0.23890415 -0.15652808 -0.15538704
v -0.21131586 -0.10979819 -0.16623400
v -0.21983394 -0.11388720 -0.16350170
v -0.21683219 -0.11228041 -0.16250563
v -0.22309897 -0.11685700 -0.16672746
v -0.22380990 -0.11692348 -0.16468966
v -0.22431021 -0.11685700 -0.16262443
v -0.21530501 -0.11226933 -0.16884749
v -0.22606781 -0.11849703 -0.16077853
v -0.23099168 -0.12438120 -0.16003836
v -0.22625869 -0.11982678 -0.15382443
v -0.22768057 -0.12152222 -0.15426306
v -0.23196593 -0.12911292 -0.15203336
v -0.23012935 -0.12444769 -0.15604499
v -0.22929992 -0.12319550 -0.15604499
v -0.23687667 -0.13739066 -0.15649276
v -0.23774560 -0.13947395 -0.15848486
v -0.23371037 -0.12879156 -0.16081509
v -0.23692275 -0.13852095 -0.15445496
v -0.23203177 -0.12577745 -0.15983731
v -0.23291385 -0.12706288 -0.16081509
v -0.23688325 -0.15196258 -0.15001383
v -0.23569835 -0.14286482 -0.14926451
v -0.23581027 -0.14721977 -0.14863398
v -0.21753656 -0.17122190 -0.18716943
v -0.22009724 -0.15920976 -0.19042259
v -0.21330384 -0.19902491 -0.16833576
v -0.22391524 -0.17316112 -0.18081843
v -0.22313847 -0.17156542 -0.18273744
v -0.22275009 -0.17025782 -0.18393452
v -0.22110441 -0.17244085 -0.18384315
v -0.22152571 -0.17139919 -0.18418125
v -0.21982736 -0.17121081 -0.18560680
v -0.22161786 -0.16916077 -0.18551543
v -0.23895023 -0.15341423 -0.15694052
v -0.23915430 -0.15341423 -0.15848486
v -0.23915430 -0.15575239 -0.15770813
v -0.23921355 -0.15497670 -0.16003836
v -0.23916088 -0.15651701 -0.16003836
v -0.23904240 -0.15806838 -0.15848486
v -0.23872641 -0.15864461 -0.16003836
v -0.23692275 -0.16049519 -0.16876526
v -0.23625130 -0.16581422 -0.16159184
v -0.23403292 -0.17116648 -0.16313618
v -0.23388810 -0.17049054 -0.16534759
v -0.23498083 -0.16830751 -0.16468966
v -0.23099168 -0.17373735 -0.16850939
v -0.22600855 -0.18215914 -0.16850939
v -0.23220292 -0.17116648 -0.16924045
v -0.21682561 -0.19463671 -0.16850939
v -0.21525234 -0.19705242 -0.16776920
v -0.22457350 -0.18459703 -0.16844543
v -0.22326354 -0.18641436 -0.16850939
v -0.22383624 -0.15651701 -0.18810152
v -0.23077445 -0.15237259 -0.18260037
v -0.23077445 -0.14954686 -0.18259124
v -0.23072180 -0.14662139 -0.18255468
v -0.22856265 -0.14411702 -0.18422695
v -0.22679190 -0.14256563 -0.18558853
v -0.22461300 -0.14101424 -0.18726994
v -0.22146646 -0.16138169 -0.18879601
v -0.22221031 -0.15792432 -0.18922550
v -0.22452086 -0.13908610 -0.18720597
v -0.22292124 -0.13511899 -0.18720597
v -0.22454061 -0.12925697 -0.18259124
v -0.22472492 -0.12612097 -0.18060827
v -0.22349394 -0.12492419 -0.18077274
v -0.21643724 -0.12189899 -0.18382488
v -0.21808951 -0.12025895 -0.18080016
v -0.21838572 -0.11692348 -0.17643214
v -0.21968252 -0.11867433 -0.17770233
v -0.21755631 -0.11849703 -0.17945686
v -0.22067652 -0.11765484 -0.17497003
v -0.22283567 -0.11859676 -0.17359018
v -0.23881858 -0.14489270 -0.16003836
v -0.22340179 -0.11848594 -0.17152496
v -0.22444185 -0.11858567 -0.16838146
v -0.22624552 -0.11906217 -0.16259702
v -0.23205152 -0.12585502 -0.16235029
v -0.22931967 -0.12297387 -0.15694052
v -0.22779247 -0.12138925 -0.15538704
v -0.23727163 -0.13792256 -0.16003836
v -0.23796940 -0.13968449 -0.16081509
v -0.23863427 -0.14193399 -0.16081509
v -0.23356555 -0.12917941 -0.16398601
v -0.23692275 -0.13708039 -0.16257875
v -0.23230823 -0.12691883 -0.16468966
v -0.22152571 -0.16524906 -0.18726080
v -0.22808870 -0.17316112 -0.17560056
v -0.23542847 -0.16015167 -0.17528986
v -0.23228848 -0.16203550 -0.17791251
v -0.22460642 -0.16623530 -0.18420868
v -0.22276326 -0.16688911 -0.18573473
v -0.23908846 -0.14877116 -0.16003836
v -0.23906213 -0.14489270 -0.16236857
v -0.23914113 -0.14721977 -0.16468966
v -0.23923988 -0.15109823 -0.16701073
v -0.23921355 -0.15341423 -0.16546639
v -0.23904240 -0.15651701 -0.16159184
v -0.23903582 -0.15341423 -0.16778748
v -0.23885150 -0.15497670 -0.16623400
v -0.23775875 -0.15651701 -0.17090357
v -0.23658045 -0.16058384 -0.17090357
v -0.23612623 -0.16272254 -0.16935009
v -0.23530338 -0.16644585 -0.16672746
v -0.23538897 -0.16516041 -0.16877439
v -0.23531655 -0.16316579 -0.17225601
v -0.23229507 -0.16980350 -0.17106806
v -0.23003718 -0.17318329 -0.17224687
v -0.23113650 -0.17094486 -0.17263981
v -0.22930650 -0.17316112 -0.17380035
v -0.22835200 -0.15512075 -0.18419954
v -0.23049799 -0.15444479 -0.18233537
v -0.23221608 -0.15336990 -0.18096464
v -0.23191985 -0.15165230 -0.18141240
v -0.23062963 -0.14454918 -0.18246330
v -0.22216422 -0.15961976 -0.18873204
v -0.23032684 -0.14256563 -0.18211605
v -0.23230165 -0.14163480 -0.17950255
v -0.23215683 -0.13423249 -0.17618541
v -0.22751600 -0.12957833 -0.17931979
v -0.22607437 -0.12680801 -0.17925582
v -0.22467226 -0.12449201 -0.17907306
v -0.22296074 -0.12317334 -0.17944772
v -0.22360586 -0.12054706 -0.17585644
v -0.22429046 -0.11998193 -0.17369984
v -0.22598880 -0.12168845 -0.17304189
v -0.22950399 -0.12515690 -0.17116858
v -0.22935917 -0.12448094 -0.16934095
v -0.23114308 -0.12575528 -0.16623400
v -0.23075472 -0.12649773 -0.17059287
v -0.23856185 -0.14190075 -0.16385808
v -0.23230823 -0.12769451 -0.16669090
v -0.23351288 -0.12996618 -0.16623400
v -0.23527048 -0.13576171 -0.17128738
v -0.23560620 -0.13590577 -0.16956941
v -0.23625130 -0.13792256 -0.17089443
v -0.23707415 -0.13930773 -0.16860076
v -0.23203835 -0.12824858 -0.16934095
v -0.23540872 -0.16169196 -0.17397398
v -0.23669893 -0.15907678 -0.17285913
v -0.23699517 -0.15651701 -0.17340742
v -0.23540872 -0.15771378 -0.17612144
v -0.23426990 -0.15961976 -0.17680680
v -0.23401975 -0.16081655 -0.17656007
v -0.22650225 -0.16427391 -0.18300244
v -0.22496189 -0.16427391 -0.18454678
v -0.23893706 -0.14489270 -0.16468966
v -0.23917405 -0.14877116 -0.16623400
v -0.23889098 -0.14799547 -0.16778748
v -0.23875933 -0.15071039 -0.16969734
v -0.23858160 -0.15366910 -0.16991665
v -0.23612623 -0.16117115 -0.17243877
v -0.23245307 -0.16857346 -0.17243877
v -0.22903662 -0.15853380 -0.18241761
v -0.23177503 -0.15525372 -0.18079101
v -0.23386177 -0.15750324 -0.17793078
v -0.23525073 -0.14084803 -0.17543608
v -0.23552062 -0.13856527 -0.17428467
v -0.23382885 -0.13397761 -0.17327035
v -0.22904320 -0.13033186 -0.17771148
v -0.23428307 -0.13600550 -0.17434864
v -0.22709470 -0.12587718 -0.17670627
v -0.22840467 -0.12849237 -0.17708093
v -0.22448136 -0.12318441 -0.17785768
v -0.22812162 -0.12491311 -0.17385518
v -0.22938550 -0.12596582 -0.17292310
v -0.23060330 -0.12762802 -0.17266723
v -0.23205152 -0.12907968 -0.17118686
v -0.23685033 -0.13960692 -0.17089443
v -0.23732430 -0.14178994 -0.17090357
v -0.23373012 -0.13260353 -0.17136962
v -0.23574443 -0.13741282 -0.17266723
v -0.23679766 -0.14256563 -0.17299620
v -0.23859476 -0.14856061 -0.16976131
v -0.23648828 -0.14090343 -0.17325206
f 1 2 3
f 1 3 4
f 1 4 5
f 1 5 8
f 1 8 2
f 2 6 7
f 2 7 3
f 2 8 9
f 2 9 10
f 2 10 6
f 3 11 12
f 3 12 4
f 3 7 13
f 3 13 14
f 3 14 15
f 3 15 16
f 3 16 11
f 4 12 17
f 4 17 18
f 4 18 19
f 4 19 5
f 5 19 20
f 5 20 21
f 5 21 22
f 5 22 8
f 6 23 7
f 6 10 24
f 6 24 25
f 6 25 26
f 6 26 23
f 7 27 28
f 7 28 29
f 7 29 30
f 7 30 15
f 7 15 13
f 7 23 31
f 7 31 27
f 8 22 32
f 8 32 33
f 8 33 34
f 8 34 35
f 8 35 36
f 8 36 37
f 8 37 38
f 8 38 9
f 9 38 10
f 10 38 39
f 10 39 40
f 10 40 24
f 11 41 42
f 11 42 12
f 11 16 41
f 12 43 44
f 12 44 17
f 12 42 45
f 12 45 46
f 12 46 47
f 12 47 48
f 12 48 49
f 12 49 43
f 13 15 14
f 15 50 16
f 15 30 51
f 15 51 50
f 16 50 52
f 16 52 41
f 17 44 18
f 18 53 54
f 18 54 55
f 18 55 56
f 18 56 57
f 18 57 58
f 18 58 59
f 18 59 60
f 18 60 61
f 18 61 62
f 18 62 63
f 18 63 64
f 18 64 65
f 18 65 66
f 18 66 67
f 18 67 68
f 18 68 69
f 18 69 70
f 18 70 71
f 18 71 19
f 18 44 72
f 18 72 73
f 18 73 74
f 18 74 53
f 19 71 21
f 19 21 20
f 21 71 22
f 22 71 32
f 23 26 75
f 23 75 31
f 24 40 37
f 24 37 76
f 24 76 25
f 25 76 77
f 25 77 78
f 25 78 79
f 25 79 26
f 26 80 81
f 26 81 75
f 26 79 80
f 27 31 82
f 27 82 28
f 28 82 83
f 28 83 29
f 29 83 51
f 29 51 30
f 31 84 82
f 31 75 85
f 31 85 86
f 31 86 87
f 31 87 84
f 32 71 88
f 32 88 89
f 32 89 33
f 33 89 90
f 33 90 91
f 33 91 34
f 34 91 92
f 34 92 93
f 34 93 94
f 34 94 95
f 34 95 35
f 35 95 96
f 35 96 97
f 35 97 98
f 35 98 36
f 36 98 99
f 36 99 37
f 37 99 100
f 37 100 101
f 37 101 102
f 37 102 103
f 37 103 104
f 37 104 105
f 37 105 76
f 37 40 39
f 37 39 38
f 41 45 42
f 41 52 106
f 41 106 45
f 43 49 107
f 43 107 108
f 43 108 109
f 43 109 72
f 43 72 44
f 45 106 110
f 45 110 46
f 46 110 111
f 46 111 47
f 47 111 48
f 48 111 49
f 49 111 112
f 49 112 113
f 49 113 114
f 49 114 108
f 49 108 107
f 50 51 83
f 50 83 87
f 50 87 115
f 50 115 52
f 52 115 116
f 52 116 117
f 52 117 118
f 52 118 119
f 52 119 120
f 52 120 121
f 52 121 106
f 53 122 123
f 53 123 54
f 53 74 124
f 53 124 125
f 53 125 126
f 53 126 127
f 53 127 128
f 53 128 129
f 53 129 130
f 53 130 122
f 54 123 131
f 54 131 55
f 55 131 56
f 56 131 132
f 56 132 57
f 57 132 133
f 57 133 134
f 57 134 135
f 57 135 136
f 57 136 58
f 58 136 137
f 58 137 138
f 58 138 59
f 59 138 60
f 60 138 139
f 60 139 61
f 61 139 140
f 61 140 62
f 62 140 141
f 62 141 63
f 63 142 64
f 63 141 143
f 63 143 144
f 63 144 145
f 63 145 142
f 64 142 65
f 65 142 146
f 65 146 147
f 65 147 66
f 66 148 67
f 66 147 148
f 67 148 149
f 67 149 68
f 68 149 69
f 69 150 70
f 69 149 151
f 69 151 150
f 70 150 152
f 70 152 153
f 70 153 88
f 70 88 71
f 72 109 73
f 73 109 154
f 73 154 155
f 73 155 124
f 73 124 74
f 75 81 156
f 75 156 86
f 75 86 85
f 76 105 77
f 77 105 157
f 77 157 78
f 78 157 158
f 78 158 79
f 79 158 80
f 80 159 160
f 80 160 161
f 80 161 162
f 80 162 163
f 80 163 164
f 80 164 81
f 80 158 165
f 80 165 159
f 81 166 167
f 81 167 156
f 81 164 168
f 81 168 169
f 81 169 170
f 81 170 166
f 82 84 83
f 83 84 87
f 86 156 171
f 86 171 172
f 86 172 87
f 87 173 115
f 87 172 173
f 88 174 89
f 88 153 175
f 88 175 174
f 89 174 176
f 89 176 90
f 90 176 177
f 90 177 92
f 90 92 91
f 92 177 178
f 92 178 93
f 93 178 179
f 93 179 180
f 93 180 181
f 93 181 182
f 93 182 183
f 93 183 94
f 94 183 184
f 94 184 185
f 94 185 186
f 94 186 187
f 94 187 95
f 95 187 96
f 96 187 186
f 96 186 188
f 96 188 189
f 96 189 97
f 97 189 99
f 97 99 98
f 99 189 100
f 100 189 188
f 100 188 190
f 100 190 191
f 100 191 101
f 101 191 102
f 102 191 192
f 102 192 193
f 102 193 103
f 103 193 194
f 103 194 195
f 103 195 196
f 103 196 104
f 104 196 197
f 104 197 198
f 104 198 157
f 104 157 105
f 106 121 199
f 106 199 110
f 108 114 200
f 108 200 109
f 109 200 201
f 109 201 154
f 110 202 112
f 110 112 111
f 110 199 203
f 110 203 202
f 112 202 113
f 113 202 120
f 113 120 204
f 113 204 205
f 113 205 114
f 114 205 206
f 114 206 207
f 114 207 208
f 114 208 209
f 114 209 200
f 115 173 210
f 115 210 116
f 116 210 211
f 116 211 117
f 117 212 213
f 117 213 214
f 117 214 118
f 117 211 215
f 117 215 212
f 118 216 119
f 118 214 217
f 118 217 218
f 118 218 216
f 119 219 204
f 119 204 120
f 119 216 220
f 119 220 219
f 120 221 222
f 120 222 121
f 120 202 221
f 121 222 221
f 121 221 199
f 122 130 223
f 122 223 224
f 122 224 225
f 122 225 131
f 122 131 123
f 124 155 226
f 124 226 227
f 124 227 228
f 124 228 125
f 125 229 230
f 125 230 231
f 125 231 232
f 125 232 233
f 125 233 126
f 125 228 229
f 126 233 127
f 127 233 234
f 127 234 235
f 127 235 129
f 127 129 128
f 129 235 236
f 129 236 237
f 129 237 238
f 129 238 130
f 130 238 239
f 130 239 223
f 131 225 132
f 132 240 241
f 132 241 133
f 132 225 242
f 132 242 243
f 132 243 240
f 133 241 134
f 134 244 245
f 134 245 246
f 134 246 135
f 134 241 244
f 135 137 136
f 135 246 138
f 135 138 137
f 138 246 139
f 139 246 247
f 139 247 141
f 139 141 140
f 141 247 143
f 142 145 248
f 142 248 146
f 143 247 249
f 143 249 250
f 143 250 144
f 144 250 145
f 145 250 248
f 146 248 251
f 146 251 252
f 146 252 148
f 146 148 147
f 148 252 149
f 149 252 253
f 149 253 151
f 150 151 254
f 150 254 152
f 151 253 254
f 152 254 153
f 153 254 174
f 153 174 175
f 154 201 255
f 154 255 226
f 154 226 155
f 156 167 171
f 157 198 160
f 157 160 158
f 158 160 165
f 159 165 160
f 160 198 197
f 160 197 161
f 161 197 162
f 162 197 169
f 162 169 168
f 162 168 164
f 162 164 163
f 166 170 256
f 166 256 257
f 166 257 258
f 166 258 259
f 166 259 167
f 167 259 260
f 167 260 171
f 169 256 170
f 169 197 256
f 171 260 261
f 171 261 172
f 172 261 262
f 172 262 211
f 172 211 263
f 172 263 173
f 173 264 211
f 173 211 210
f 173 263 265
f 173 265 264
f 174 254 266
f 174 266 267
f 174 267 178
f 174 178 177
f 174 177 176
f 178 267 179
f 179 267 268
f 179 268 181
f 179 181 180
f 181 269 184
f 181 184 270
f 181 270 182
f 181 268 269
f 182 270 184
f 182 184 183
f 184 271 272
f 184 272 273
f 184 273 274
f 184 274 186
f 184 186 185
f 184 269 271
f 186 274 275
f 186 275 188
f 188 275 276
f 188 276 190
f 190 277 193
f 190 193 192
f 190 192 191
f 190 276 278
f 190 278 277
f 193 277 194
f 194 279 280
f 194 280 195
f 194 277 281
f 194 281 279
f 195 280 282
f 195 282 283
f 195 283 196
f 196 283 284
f 196 284 285
f 196 285 197
f 197 285 286
f 197 286 256
f 199 221 203
f 200 209 201
f 201 209 287
f 201 287 227
f 201 227 255
f 202 203 221
f 204 219 288
f 204 288 289
f 204 289 206
f 204 206 205
f 206 289 207
f 207 289 208
f 208 289 290
f 208 290 291
f 208 291 209
f 209 291 292
f 209 292 293
f 209 293 294
f 209 294 287
f 211 262 295
f 211 295 296
f 211 296 215
f 211 264 265
f 211 265 263
f 212 297 298
f 212 298 299
f 212 299 214
f 212 214 213
f 212 215 297
f 214 299 217
f 215 296 300
f 215 300 298
f 215 298 297
f 216 218 301
f 216 301 220
f 217 299 218
f 218 299 302
f 218 302 303
f 218 303 301
f 219 304 290
f 219 290 288
f 219 220 304
f 220 301 305
f 220 305 306
f 220 306 304
f 223 307 242
f 223 242 224
f 223 239 307
f 224 242 225
f 226 255 227
f 227 287 308
f 227 308 229
f 227 229 228
f 229 308 230
f 230 308 309
f 230 309 310
f 230 310 231
f 231 310 236
f 231 236 232
f 232 236 233
f 233 236 235
f 233 235 234
f 236 310 309
f 236 309 237
f 237 311 238
f 237 309 312
f 237 312 311
f 238 311 313
f 238 313 314
f 238 314 239
f 239 314 307
f 240 315 241
f 240 243 314
f 240 314 313
f 240 313 315
f 241 315 244
f 242 307 243
f 243 307 314
f 244 316 317
f 244 317 318
f 244 318 245
f 244 315 316
f 245 318 246
f 246 319 247
f 246 318 320
f 246 320 319
f 247 319 249
f 248 321 251
f 248 250 322
f 248 322 323
f 248 323 324
f 248 324 321
f 249 325 250
f 249 319 325
f 250 323 322
f 250 325 326
f 250 326 323
f 251 321 327
f 251 327 328
f 251 328 329
f 251 329 252
f 252 329 253
f 253 330 254
f 253 329 330
f 254 330 266
f 256 286 257
f 257 284 258
f 257 286 285
f 257 285 284
f 258 284 259
f 259 284 331
f 259 331 260
f 260 331 332
f 260 332 261
f 261 332 262
f 262 332 333
f 262 333 334
f 262 334 295
f 266 335 336
f 266 336 337
f 266 337 268
f 266 268 267
f 266 330 335
f 268 337 269
f 269 337 336
f 269 336 271
f 271 338 339
f 271 339 340
f 271 340 272
f 271 336 341
f 271 341 338
f 272 275 273
f 272 340 342
f 272 342 343
f 272 343 275
f 273 275 274
f 275 343 344
f 275 344 345
f 275 345 276
f 276 345 278
f 277 278 346
f 277 346 347
f 277 347 281
f 278 345 348
f 278 348 347
f 278 347 346
f 279 349 350
f 279 350 280
f 279 281 351
f 279 351 349
f 280 350 352
f 280 352 334
f 280 334 282
f 281 347 353
f 281 353 354
f 281 354 351
f 282 334 333
f 282 333 355
f 282 355 283
f 283 355 356
f 283 356 284
f 284 356 357
f 284 357 331
f 287 294 358
f 287 358 359
f 287 359 308
f 288 290 289
f 290 360 361
f 290 361 291
f 290 304 360
f 291 361 362
f 291 362 363
f 291 363 364
f 291 364 292
f 292 364 365
f 292 365 366
f 292 366 293
f 293 366 294
f 294 366 367
f 294 367 358
f 295 334 368
f 295 368 369
f 295 369 370
f 295 370 371
f 295 371 372
f 295 372 373
f 295 373 296
f 296 373 374
f 296 374 375
f 296 375 376
f 296 376 300
f 298 300 377
f 298 377 299
f 299 377 378
f 299 378 302
f 300 376 379
f 300 379 377
f 301 303 305
f 302 378 303
f 303 380 381
f 303 381 305
f 303 378 382
f 303 382 380
f 304 306 383
f 304 383 384
f 304 384 360
f 305 381 385
f 305 385 306
f 306 385 386
f 306 386 383
f 308 359 309
f 309 359 312
f 311 312 387
f 311 387 388
f 311 388 389
f 311 389 390
f 311 390 391
f 311 391 392
f 311 392 393
f 311 393 313
f 312 359 394
f 312 394 395
f 312 395 387
f 313 393 396
f 313 396 315
f 315 397 316
f 315 396 397
f 316 398 317
f 316 397 398
f 317 399 400
f 317 400 320
f 317 320 318
f 317 398 399
f 319 320 401
f 319 401 325
f 320 400 402
f 320 402 401
f 321 324 403
f 321 403 327
f 323 403 324
f 323 326 404
f 323 404 403
f 325 401 402
f 325 402 326
f 326 402 405
f 326 405 404
f 327 403 406
f 327 406 407
f 327 407 328
f 328 407 341
f 328 341 329
f 329 341 336
f 329 336 335
f 329 335 330
f 331 357 332
f 332 357 355
f 332 355 333
f 334 352 408
f 334 408 368
f 338 407 409
f 338 409 339
f 338 341 407
f 339 409 410
f 339 410 340
f 340 410 411
f 340 411 342
f 342 411 412
f 342 412 343
f 343 412 353
f 343 353 413
f 343 413 414
f 343 414 344
f 344 414 345
f 345 414 413
f 345 413 353
f 345 353 348
f 347 348 353
f 349 351 415
f 349 415 416
f 349 416 350
f 350 416 417
f 350 417 352
f 351 354 418
f 351 418 419
f 351 419 416
f 351 416 415
f 352 417 408
f 353 412 354
f 354 412 420
f 354 420 418
f 355 357 356
f 358 367 421
f 358 421 359
f 359 421 394
f 360 384 383
f 360 383 361
f 361 422 423
f 361 423 424
f 361 424 362
f 361 383 422
f 362 424 425
f 362 425 363
f 363 365 364
f 363 425 426
f 363 426 367
f 363 367 365
f 365 367 366
f 367 426 421
f 368 408 427
f 368 427 369
f 369 371 370
f 369 427 428
f 369 428 371
f 371 428 429
f 371 429 430
f 371 430 431
f 371 431 372
f 372 431 432
f 372 432 373
f 373 432 374
f 374 432 433
f 374 433 434
f 374 434 435
f 374 435 375
f 375 436 437
f 375 437 376
f 375 435 436
f 376 437 438
f 376 438 379
f 377 379 378
f 378 379 439
f 378 439 440
f 378 440 441
f 378 441 382
f 379 438 439
f 380 382 442
f 380 442 381
f 381 442 385
f 382 441 443
f 382 443 442
f 383 386 422
f 385 442 444
f 385 444 386
f 386 444 422
f 387 395 445
f 387 445 388
f 388 445 446
f 388 446 447
f 388 447 448
f 388 448 389
f 389 448 390
f 390 449 391
f 390 448 449
f 391 449 396
f 391 396 392
f 392 396 393
f 394 421 426
f 394 426 450
f 394 450 395
f 395 450 445
f 396 449 451
f 396 451 452
f 396 452 397
f 397 452 398
f 398 452 453
f 398 453 454
f 398 454 399
f 399 454 455
f 399 455 456
f 399 456 400
f 400 456 457
f 400 457 402
f 402 457 405
f 403 404 406
f 404 458 406
f 404 405 457
f 404 457 458
f 406 458 407
f 407 458 459
f 407 459 409
f 408 428 427
f 408 417 428
f 409 459 410
f 410 459 460
f 410 460 461
f 410 461 462
f 410 462 411
f 411 462 463
f 411 463 412
f 412 463 464
f 412 464 420
f 416 465 417
f 416 419 465
f 417 465 428
f 418 420 466
f 418 466 467
f 418 467 468
f 418 468 469
f 418 469 419
f 419 469 470
f 419 470 471
f 419 471 465
f 420 464 472
f 420 472 466
f 422 444 423
f 423 473 474
f 423 474 475
f 423 475 476
f 423 476 477
f 423 477 478
f 423 478 424
f 423 444 473
f 424 478 477
f 424 477 425
f 425 477 479
f 425 479 480
f 425 480 426
f 426 480 450
f 428 481 429
f 428 465 481
f 429 481 482
f 429 482 430
f 430 482 483
f 430 483 484
f 430 484 433
f 430 433 431
f 431 433 432
f 433 485 435
f 433 435 434
f 433 484 485
f 435 474 436
f 435 485 474
f 436 474 486
f 436 486 437
f 437 486 438
f 438 486 439
f 439 486 440
f 440 486 473
f 440 473 487
f 440 487 441
f 441 487 443
f 442 443 444
f 443 487 473
f 443 473 444
f 445 450 480
f 445 480 446
f 446 480 488
f 446 488 489
f 446 489 447
f 447 489 490
f 447 490 476
f 447 476 448
f 448 476 491
f 448 491 449
f 449 491 452
f 449 452 451
f 452 491 492
f 452 492 453
f 453 493 494
f 453 494 454
f 453 492 495
f 453 495 493
f 454 494 455
f 455 496 456
f 455 494 497
f 455 497 496
f 456 498 457
f 456 496 498
f 457 498 458
f 458 498 499
f 458 499 459
f 459 499 460
f 460 499 500
f 460 500 461
f 461 500 464
f 461 464 463
f 461 463 462
f 464 500 501
f 464 501 502
f 464 502 472
f 465 471 503
f 465 503 504
f 465 504 481
f 466 472 467
f 467 472 505
f 467 505 468
f 468 506 470
f 468 470 469
f 468 505 506
f 470 506 503
f 470 503 471
f 472 502 505
f 473 486 474
f 474 485 475
f 475 485 484
f 475 484 507
f 475 507 476
f 476 507 491
f 476 490 477
f 477 480 479
f 477 490 489
f 477 489 480
f 480 489 488
f 481 483 482
f 481 504 483
f 483 508 484
f 483 504 508
f 484 508 507
f 491 507 509
f 491 509 492
f 492 509 506
f 492 506 495
f 493 502 501
f 493 501 497
f 493 497 494
f 493 495 506
f 493 506 502
f 496 497 501
f 496 501 500
f 496 500 499
f 496 499 498
f 502 506 505
f 503 509 504
f 503 506 509
f 504 507 508
f 504 509 507

