# https://github.com/mikedh/trimesh
v -0.00633094 0.04328014 -0.06747372
v -0.03980099 0.03080927 -0.06745187
v -0.00633094 0.04922005 -0.06747372
v 0.01976320 0.04328014 -0.06747372
v 0.09892857 0.03441037 -0.06746280
v -0.03978741 0.03582885 0.04412701
v -0.03980099 0.04426379 0.01575709
v -0.03980099 0.04008432 -0.06745187
v 0.09896932 0.01853260 -0.02197480
v 0.09896932 0.01851571 -0.02190925
v 0.09896932 0.01822442 -0.02067483
v 0.09896932 0.01818220 -0.02041265
v 0.09896932 0.01722388 -0.01421868
v 0.09896932 0.01709722 -0.01265653
v -0.03909464 0.04038828 -0.06745187
v -0.03859205 0.04059936 -0.06745187
v -0.03754611 0.04102997 -0.06745187
v -0.03685334 0.04130016 -0.06745187
v -0.03647301 0.04143103 -0.06745187
v -0.01895013 0.04715564 -0.06745187
v -0.01802644 0.04744694 -0.06745187
v -0.01771402 0.04752715 -0.06745187
v -0.01706200 0.04768335 -0.06745187
v -0.01583948 0.04789022 -0.06745187
v 0.01723665 0.05290981 -0.06747372
v 0.01878518 0.05314200 -0.06747372
v 0.09892857 0.04523900 -0.06746280
v 0.09896932 0.03791015 -0.06746280
v 0.09896932 0.03783416 -0.06746280
v 0.09896932 0.03442303 -0.06694937
v -0.03978741 0.04380362 0.04412701
v 0.09896932 0.01734208 -0.01120362
v 0.07013128 0.03517449 0.04412701
v -0.03980099 0.05150398 0.01575709
v -0.03980099 0.04154502 -0.06512504
v -0.03852413 0.04135504 -0.06631577
v -0.03802154 0.04271443 -0.06443682
v -0.01961573 0.04897941 -0.06455698
v -0.01904521 0.04861635 -0.06534352
v -0.01895013 0.04776779 -0.06659980
v -0.01858337 0.04913139 -0.06481916
v -0.01738801 0.04874300 -0.06575864
v -0.01738801 0.04924538 -0.06498303
v 0.02188225 0.05364015 -0.06746280
v 0.02243918 0.05372459 -0.06746280
v 0.02446314 0.05400744 -0.06746280
v 0.02500648 0.05406655 -0.06746280
v 0.03690574 0.05445494 -0.06746280
v 0.03845427 0.05448449 -0.06746280
v 0.05550172 0.05437895 -0.06746280
v 0.05601790 0.05436206 -0.06746280
v 0.05706384 0.05430718 -0.06746280
v 0.05756643 0.05427341 -0.06746280
v 0.05910138 0.05409610 -0.06746280
v 0.07325552 0.05239898 -0.06746280
v 0.07464104 0.05223011 -0.06746280
v 0.07598582 0.05205702 -0.06746280
v 0.07609449 0.05204014 -0.06746280
v 0.07716760 0.05184594 -0.06746280
v 0.07769736 0.05173195 -0.06746280
v 0.07925948 0.05136467 -0.06746280
v 0.08072651 0.05099738 -0.06746280
v 0.08167737 0.05073986 -0.06746280
v 0.08279122 0.05042745 -0.06746280
v 0.09208241 0.04751027 -0.06746280
v 0.09678235 0.04597357 -0.06746280
v 0.09896932 0.04531077 -0.06697121
v -0.03978741 0.04448332 0.04229176
v -0.03910823 0.04400204 0.04412701
v -0.03531840 0.04749760 0.03780195
v -0.03635075 0.04734984 0.03738683
v 0.09896932 0.02447673 -0.01120362
v 0.08859142 0.03877137 0.01723184
v 0.07013128 0.04408226 0.04412701
v -0.03980099 0.05159686 0.01524365
v -0.03978741 0.04528121 0.04000862
v -0.03978741 0.04635774 0.03691710
v -0.03978741 0.04664060 0.03609779
v -0.03978741 0.04687701 0.03536587
v -0.03978741 0.04714720 0.03443732
v -0.03978741 0.04726963 0.03400036
v -0.03978741 0.04753138 0.03298441
v -0.03978741 0.04905118 0.02703077
v -0.03978741 0.04928337 0.02610222
v -0.03978741 0.05058787 0.02077126
v -0.01738801 0.05463648 0.02920467
v -0.03980099 0.04226693 -0.06390154
v -0.03921690 0.04253290 -0.06387969
v -0.03906748 0.04167589 -0.06541999
v -0.03876864 0.04298884 -0.06339903
v -0.02132726 0.04903852 -0.06312593
v -0.02049866 0.04916939 -0.06344273
v -0.01904521 0.04938047 -0.06396709
v -0.03522331 0.04437355 -0.06306038
v -0.01738801 0.04973087 -0.06384692
v -0.00902050 0.05058365 -0.06464438
v -0.01665449 0.05368237 -0.05224551
v -0.01583948 0.05450560 -0.04987498
v -0.01583948 0.05491933 -0.04833468
v -0.01434528 0.05508397 -0.04825821
v -0.01385627 0.05524862 -0.04769015
v -0.00633094 0.05605918 -0.04678346
v -0.00032698 0.05654468 -0.04678346
v 0.00107213 0.05666711 -0.04673976
v 0.00147964 0.05681487 -0.04620448
v -0.00195701 0.05806871 -0.03897271
v -0.00187551 0.05827135 -0.03798955
v -0.00343763 0.05858375 -0.03592489
v -0.00187551 0.05841911 -0.03722486
v -0.00343763 0.05887083 -0.03438459
v 0.03845427 0.05457315 -0.06694937
v 0.05550172 0.05449294 -0.06694937
v 0.05706384 0.05441272 -0.06694937
v 0.05861237 0.05423964 -0.06694937
v 0.06418165 0.05369082 -0.06628299
v 0.07411128 0.05237787 -0.06694937
v 0.07556473 0.05220478 -0.06690567
v 0.07656992 0.05214568 -0.06635947
v 0.07875689 0.05154620 -0.06694937
v 0.08171811 0.05075674 -0.06694937
v 0.08030542 0.05113669 -0.06694937
v 0.08249238 0.05052033 -0.06694937
v 0.09691819 0.04601156 -0.06579141
v 0.09690460 0.04601156 -0.06694937
v 0.09896932 0.04532343 -0.06541999
v -0.03755970 0.04656461 0.03850109
v -0.03694843 0.04752715 0.03634904
v -0.01570364 0.05081585 0.04412701
v -0.03590249 0.04766225 0.03690617
v 0.09896932 0.04100464 -0.05298835
v 0.09896932 0.04343634 -0.05921510
v 0.09896932 0.04407381 -0.06088648
v 0.09896932 0.04454242 -0.06225200
v 0.09896932 0.04457197 -0.06233939
v 0.09896932 0.04500259 -0.06386877
v 0.07013128 0.04714298 0.03337768
v 0.07013128 0.04706699 0.03385834
v 0.07013128 0.04692767 0.03468858
v 0.07013128 0.04678836 0.03547511
v 0.07013128 0.04651817 0.03696079
v 0.07013128 0.04615510 0.03851202
v 0.07013128 0.04593980 0.03934225
v 0.07004978 0.04410759 0.04412701
v -0.03980099 0.05187549 0.01367058
v -0.03798079 0.04735406 0.03582468
v -0.03750536 0.04767491 0.03534402
v -0.03846980 0.04751871 0.03478689
v -0.03950215 0.04733717 0.03412052
v -0.03755970 0.04808019 0.03385834
v -0.03811662 0.04894986 0.02970718
v -0.03910823 0.04951979 0.02610222
v -0.03708427 0.04912295 0.03039540
v -0.03484297 0.04890764 0.03416422
v -0.03381061 0.04905540 0.03473227
v -0.01738801 0.05430718 0.03075589
v -0.01583948 0.05467869 0.03075589
v -0.01573081 0.05503331 0.02910635
v -0.03980099 0.05201481 0.01278573
v -0.03980099 0.04278197 -0.06300576
v -0.03980099 0.04328436 -0.06190242
v -0.03917615 0.04328436 -0.06240494
v -0.03601116 0.04455931 -0.06196797
v -0.03127047 0.04924116 -0.05450680
v -0.03135198 0.04980264 -0.05298835
v -0.02049866 0.04959578 -0.06228477
v -0.01895013 0.04999684 -0.06228477
v -0.03746461 0.04397671 -0.06218645
v -0.01768685 0.05052455 -0.06136714
v -0.02003682 0.05374570 -0.04935062
v -0.01738801 0.05422275 -0.04987498
v -0.01865129 0.05068075 -0.06035120
v -0.01907238 0.05043590 -0.06081002
v -0.03084938 0.05063431 -0.05086907
v -0.01738801 0.05464914 -0.04833468
v -0.01732009 0.05504176 -0.04669606
v -0.01780910 0.05516841 -0.04574567
v -0.01677675 0.05524018 -0.04611708
v -0.01583948 0.05514730 -0.04719857
v -0.01488862 0.05520218 -0.04748260
v -0.00633094 0.05770564 -0.03897271
v -0.00498616 0.05781963 -0.03897271
v -0.00343763 0.05795050 -0.03897271
v -0.00490466 0.05844022 -0.03597951
v -0.00498616 0.05873573 -0.03438459
v -0.00536650 0.05829246 -0.03651479
v -0.01210398 0.05832623 -0.03212330
v -0.01316351 0.05830090 -0.03128214
v -0.00809681 0.05926767 -0.02196387
v -0.00654828 0.05945342 -0.02041265
v -0.00187551 0.05891726 -0.03282244
v -0.00187551 0.05884972 -0.03438459
v 0.01207487 0.06022599 0.01214121
v 0.01362340 0.06006979 0.01214121
v 0.07411128 0.05250452 -0.06539814
v 0.07565982 0.05231454 -0.06539814
v 0.07663784 0.05216679 -0.06539814
v 0.07742569 0.05197259 -0.06539814
v 0.07875689 0.05160530 -0.06539814
v 0.08237013 0.05048234 -0.06384692
v 0.08228863 0.05045700 -0.06229569
v 0.06573019 0.04907229 0.03339953
v 0.06790357 0.04811397 0.03385834
v 0.07013128 0.04729496 0.03230712
v -0.03599758 0.04816040 0.03539864
v -0.01502446 0.05100582 0.04412701
v -0.03438113 0.04868389 0.03531125
v 0.06935702 0.04715987 0.03543142
v 0.06856917 0.04742583 0.03595577
v 0.06945210 0.04681791 0.03696079
v 0.06634145 0.04837149 0.03540957
v 0.06638220 0.04777623 0.03703726
v 0.06824316 0.04455509 0.04412701
v -0.03587533 0.04868389 0.03372725
v -0.01429094 0.05120846 0.04412701
v -0.01488862 0.05208658 0.04071869
v -0.01583948 0.05424386 0.03230712
v -0.01518746 0.05369926 0.03474320
v -0.01429094 0.05454782 0.03230712
v -0.00892541 0.05523173 0.03311550
v -0.01429094 0.05493199 0.03075589
v -0.01429094 0.05516418 0.02964164
v -0.01514671 0.05524018 0.02852737
v -0.01544555 0.05531617 0.02765345
v -0.03980099 0.05205702 0.01247985
v -0.01353026 0.05677687 0.02071663
v -0.03980099 0.04378252 -0.06071170
v -0.03855130 0.04444532 -0.06015457
v -0.03568515 0.04917361 -0.05103294
v -0.03450338 0.04937625 -0.05151360
v -0.03290051 0.04991241 -0.05142620
v -0.02514426 0.04991663 -0.05763110
v -0.02049866 0.05010660 -0.06074447
v -0.02106917 0.05361905 -0.04893551
v -0.01895013 0.05429874 -0.04833468
v -0.03356611 0.05054144 -0.04900105
v -0.03135198 0.05034302 -0.05140435
v -0.03298201 0.05040212 -0.04991868
v -0.02123218 0.05521062 -0.04287263
v -0.01954781 0.05519374 -0.04433646
v -0.02204719 0.05585654 -0.03903826
v -0.01732009 0.05533305 -0.04524316
v -0.01583948 0.05611828 -0.04212978
v -0.01583948 0.05529928 -0.04642296
v -0.01429094 0.05629982 -0.04212978
v -0.01429094 0.05570034 -0.04524316
v -0.00633094 0.05836423 -0.03566271
v -0.00654828 0.05858375 -0.03438459
v -0.01046036 0.05832623 -0.03364175
v -0.01266091 0.05822069 -0.03271320
v -0.00809681 0.05934788 -0.02041265
v -0.01429094 0.05803071 -0.03283336
v -0.02968119 0.05666711 -0.02343863
v -0.02909709 0.05678109 -0.02287057
v -0.01668166 0.05833045 -0.02127565
v 0.00469896 0.05990514 0.01483946
v 0.00586715 0.05998535 0.01369243
v 0.01051275 0.06021755 0.01214121
v 0.01051275 0.06012467 0.01369243
v 0.01207487 0.06011200 0.01369243
v 0.01373207 0.05998113 0.01379075
v 0.01460142 0.05990514 0.01334286
v 0.04001639 0.05625338 0.01369243
v 0.07658351 0.05215412 -0.06452422
v 0.08151436 0.05069342 -0.06229569
v 0.06536343 0.04898363 0.03443732
v 0.06628711 0.04877677 0.03389112
v 0.04155133 0.05594098 0.01369243
v 0.03755775 0.05520218 0.02664843
v 0.06482009 0.04917783 0.03389112
v 0.06589319 0.04754826 0.03793304
v 0.06640937 0.04499836 0.04412701
v -0.01268808 0.05151665 0.04412701
v -0.01259299 0.05185016 0.04301275
v -0.01385627 0.05217945 0.04104641
v -0.01429094 0.05281693 0.03850109
v -0.01119388 0.05197681 0.04341694
v -0.00509483 0.05392301 0.04018340
v -0.00953668 0.05496154 0.03372725
v -0.01173723 0.05519374 0.03135672
v -0.00179401 0.05537527 0.03696079
v -0.00034056 0.05561590 0.03696079
v 0.00120797 0.05586077 0.03696079
v -0.00034056 0.05597053 0.03539864
v -0.01429094 0.05551037 0.02765345
v 0.00120797 0.05618161 0.03539864
v -0.00347838 0.05665866 0.02919375
v -0.00946876 0.05822069 0.01575709
v -0.01119388 0.05754100 0.01834610
v -0.01119388 0.05779852 0.01679488
v -0.03980099 0.05215835 0.01167147
v -0.01119388 0.05804338 0.01524365
v -0.01039245 0.05832201 0.01436973
v -0.03980099 0.04468173 -0.05853780
v -0.03671751 0.04899630 -0.05060689
v -0.03611983 0.04943535 -0.05000607
v -0.03444904 0.05001373 -0.04987498
v -0.03679901 0.05057099 -0.04604062
v -0.03980099 0.05194304 -0.03841558
v -0.03980099 0.05304912 -0.03438459
v -0.03722011 0.05377103 -0.03399132
v -0.03458488 0.05044434 -0.04842208
v -0.02662488 0.05537105 -0.03744334
v -0.02514426 0.05567501 -0.03749796
v -0.02359573 0.05593254 -0.03749796
v -0.02003682 0.05681487 -0.03538961
v -0.01583948 0.05757477 -0.03438459
v -0.01429094 0.05777741 -0.03438459
v -0.01472562 0.05673466 -0.03960631
v -0.01274241 0.05795472 -0.03438459
v -0.01668166 0.05833045 -0.02110087
v -0.00979476 0.05840644 0.01379075
v -0.00809681 0.05860486 0.01369243
v -0.00654828 0.05877795 0.01369243
v -0.00498616 0.05894682 0.01369243
v 0.00277009 0.05973628 0.01524365
v -0.01738801 0.05735946 -0.03438459
v -0.01895013 0.05713149 -0.03438459
v -0.02670638 0.05593254 -0.03438459
v -0.02980345 0.05634626 -0.02661754
v -0.02980345 0.05651512 -0.02506632
v -0.03135198 0.05641803 -0.02351509
v -0.02909709 0.05678109 -0.02264117
v 0.00423712 0.05985026 0.01532012
v 0.00586715 0.05994314 0.01504702
v 0.00741569 0.06005712 0.01369243
v 0.00897780 0.06009934 0.01369243
v 0.00741569 0.05996847 0.01502517
v 0.01207487 0.05977005 0.01575709
v 0.01517194 0.05927189 0.01834610
v 0.01674764 0.05897215 0.01989733
v 0.01327023 0.05990936 0.01466468
v 0.01430258 0.05987137 0.01436973
v 0.00897780 0.05996002 0.01494870
v 0.01514477 0.05979538 0.01379075
v 0.02072764 0.05834312 0.02243172
v 0.02295535 0.05786184 0.02455100
v 0.02449030 0.05748189 0.02610222
v 0.02834805 0.05676843 0.02681229
v 0.02731570 0.05685286 0.02717279
v 0.02449030 0.05719060 0.02765345
v 0.04309987 0.05266073 0.03385834
v 0.06431749 0.04906385 0.03476504
v 0.03815543 0.05069342 0.04412701
v 0.06482009 0.04876411 0.03533310
v 0.06548568 0.04590180 0.04234638
v 0.06540418 0.04520944 0.04412701
v -0.01202248 0.05163063 0.04412701
v -0.00463299 0.05374148 0.04103548
v -0.00567893 0.05365282 0.04077330
v -0.00034056 0.05508397 0.03881789
v -0.00034056 0.05531194 0.03804228
v -0.00179401 0.05497421 0.03839185
v 0.00130306 0.05540904 0.03855571
v 0.00277009 0.05561169 0.03850109
v 0.00277009 0.05604652 0.03696079
v 0.00120797 0.05645180 0.03385834
v 0.00277009 0.05635048 0.03539864
v 0.00229466 0.05674310 0.03289702
v 0.00120797 0.05778585 0.02610222
v -0.00763497 0.05836423 0.01625960
v 0.00277009 0.05957163 0.01679488
v -0.00936009 0.05838956 0.01482854
v -0.00979476 0.05825446 0.01530920
v -0.00975402 0.05818269 0.01575709
v -0.03980099 0.05219634 0.01131097
v 0.00120797 0.05956318 0.01524365
v -0.03135198 0.05640958 -0.02196387
v -0.03290051 0.05615206 -0.02196387
v -0.03569874 0.05531194 -0.01575898
v -0.03754611 0.05487711 -0.01420775
v -0.03980099 0.04769180 -0.05120772
v -0.03754611 0.04915673 -0.04945987
v -0.03980099 0.04822795 -0.04985313
v -0.03754611 0.04956623 -0.04833468
v -0.03601116 0.05007283 -0.04833468
v -0.03840188 0.05058787 -0.04452216
v -0.03980099 0.05153353 -0.03989034
v -0.03980099 0.05322643 -0.03370729
v -0.02928727 0.05527817 -0.03538961
v -0.03825246 0.05364860 -0.03351066
v -0.02670638 0.05569612 -0.03593581
v -0.02514426 0.05597475 -0.03593581
v -0.02359573 0.05621539 -0.03593581
v -0.02204719 0.05643491 -0.03593581
v 0.00277009 0.05968562 0.01575709
v -0.02825491 0.05566234 -0.03438459
v -0.02825491 0.05586499 -0.03283336
v -0.02980345 0.05616472 -0.02816877
v -0.03135198 0.05627449 -0.02506632
v -0.03290051 0.05613517 -0.02351509
v 0.00380244 0.05977005 0.01575709
v 0.00425070 0.05980382 0.01575709
v 0.00431862 0.05968983 0.01679488
v 0.00586715 0.05985448 0.01583356
v 0.00741569 0.05985026 0.01575709
v 0.00893705 0.05982493 0.01575709
v 0.01662539 0.05844022 0.02305440
v 0.01663897 0.05871462 0.02144855
v 0.01984470 0.05812359 0.02455100
v 0.01984470 0.05829246 0.02346951
v 0.01517194 0.05949986 0.01679488
v 0.01674764 0.05918745 0.01834610
v 0.02140682 0.05804760 0.02455100
v 0.02295535 0.05770986 0.02610222
v 0.02295535 0.05741434 0.02765345
v 0.02247993 0.05682331 0.03016599
v 0.01843201 0.05353461 0.04412701
v -0.01046036 0.05187549 0.04412701
v -0.00343763 0.05383013 0.04129766
v 0.00082763 0.05516841 0.03911284
v -0.00911558 0.05207391 0.04412701
v 0.00185998 0.05524018 0.03933132
v 0.00191432 0.05356417 0.04412701
v 0.00277009 0.05527817 0.03945149
v 0.00431862 0.05532039 0.03954981
v 0.00431862 0.05567079 0.03850109
v 0.00431862 0.05610140 0.03696079
v 0.00431862 0.05641381 0.03539864
v 0.00315043 0.05837689 0.02405941
v 0.00332701 0.05679376 0.03320290
v -0.03909464 0.05453938 -0.01420775
v -0.03980099 0.05437473 -0.01420775
v -0.03444904 0.05584810 -0.02196387
v -0.03587533 0.05535416 -0.01732112
v -0.03444904 0.05570456 -0.01886142
v -0.03980099 0.05449716 -0.01575898
v -0.03833396 0.04901741 -0.04909937
v -0.03980099 0.04852347 -0.04905567
v -0.03980099 0.04877677 -0.04833468
v -0.03980099 0.04932981 -0.04675068
v -0.03980099 0.05053721 -0.04326589
v -0.03980099 0.05060476 -0.04306926
v -0.03980099 0.05069764 -0.04276338
v -0.03980099 0.05108603 -0.04145249
v -0.03980099 0.05343752 -0.03288798
v -0.03031962 0.05515997 -0.03479970
v -0.02980345 0.05534994 -0.03431904
v -0.03980099 0.05364860 -0.03189389
v -0.02980345 0.05597053 -0.02973092
v -0.03601116 0.05471246 -0.02973092
v -0.03290051 0.05575944 -0.02661754
v -0.03135198 0.05607185 -0.02661754
v -0.03290051 0.05596631 -0.02506632
v -0.03686693 0.05523595 -0.02443272
v -0.03601116 0.05550192 -0.02351509
v -0.03980099 0.05475046 -0.02283780
v -0.03980099 0.05476735 -0.02196387
v 0.00431862 0.05826290 0.02497704
v 0.00586715 0.05969406 0.01679488
v 0.00741569 0.05967295 0.01679488
v 0.01662539 0.05831356 0.02378631
v 0.01984470 0.05785762 0.02610222
v 0.02140682 0.05781963 0.02610222
v 0.02140682 0.05752833 0.02765345
v 0.02140682 0.05717371 0.02920467
v 0.02140682 0.05687397 0.03036262
v 0.01772566 0.05362749 0.04412701
v -0.00034056 0.05326443 0.04412701
v 0.00120797 0.05347129 0.04412701
v 0.00232183 0.05359794 0.04412701
v 0.00308251 0.05364015 0.04412701
v 0.00431862 0.05367393 0.04412701
v 0.00741569 0.05371193 0.04412701
v 0.01206129 0.05376259 0.04412701
v 0.01362340 0.05377525 0.04412701
v 0.00586715 0.05532039 0.03957166
v 0.00741569 0.05530350 0.03953888
v 0.00586715 0.05563701 0.03850109
v 0.00586715 0.05603807 0.03696079
v 0.01206129 0.05673043 0.03287517
v 0.01051275 0.05675998 0.03298441
v 0.00586715 0.05638003 0.03539864
v 0.00586715 0.05665444 0.03394573
v 0.00431862 0.05680220 0.03322475
v -0.03980099 0.05460692 -0.01818413
v -0.03980099 0.05414676 -0.02816877
v -0.03754611 0.05481378 -0.02661754
v -0.03745102 0.05504598 -0.02498985
v -0.03980099 0.05463225 -0.02438903
v -0.03980099 0.05472513 -0.02351509
v 0.00586715 0.05914524 0.01989733
v 0.01662539 0.05788717 0.02620054
v 0.01984470 0.05757477 0.02765345
v 0.01674764 0.05762543 0.02765345
v 0.01984470 0.05724126 0.02920467
v 0.01517194 0.05684442 0.03180461
v 0.01206129 0.05649824 0.03385834
v 0.01674764 0.05680642 0.03165167
v 0.01674764 0.05393567 0.04316568
v 0.01745399 0.05365282 0.04412701
v 0.01517194 0.05375414 0.04412701
v 0.00741569 0.05557369 0.03850109
v 0.01674764 0.05369082 0.04412701
v 0.00741569 0.05596631 0.03696079
v -0.03980099 0.05434940 -0.02661754
v -0.03980099 0.05454782 -0.02506632
f 1 2 8
f 1 8 3
f 1 3 25
f 1 25 26
f 1 26 4
f 1 4 5
f 1 5 2
f 2 6 7
f 2 7 34
f 2 34 75
f 2 75 144
f 2 144 158
f 2 158 224
f 2 224 290
f 2 290 365
f 2 365 422
f 2 422 426
f 2 426 475
f 2 475 447
f 2 447 446
f 2 446 480
f 2 480 479
f 2 479 496
f 2 496 495
f 2 495 476
f 2 476 438
f 2 438 435
f 2 435 378
f 2 378 299
f 2 299 298
f 2 298 377
f 2 377 434
f 2 434 433
f 2 433 432
f 2 432 431
f 2 431 430
f 2 430 429
f 2 429 428
f 2 428 373
f 2 373 371
f 2 371 293
f 2 293 226
f 2 226 160
f 2 160 159
f 2 159 87
f 2 87 35
f 2 35 8
f 2 5 9
f 2 9 10
f 2 10 11
f 2 11 12
f 2 12 13
f 2 13 14
f 2 14 6
f 3 8 15
f 3 15 16
f 3 16 17
f 3 17 18
f 3 18 19
f 3 19 20
f 3 20 21
f 3 21 22
f 3 22 23
f 3 23 24
f 3 24 25
f 4 26 27
f 4 27 28
f 4 28 29
f 4 29 5
f 5 29 30
f 5 30 9
f 6 31 34
f 6 34 7
f 6 14 32
f 6 32 33
f 6 33 74
f 6 74 143
f 6 143 212
f 6 212 271
f 6 271 346
f 6 346 343
f 6 343 407
f 6 407 457
f 6 457 490
f 6 490 493
f 6 493 491
f 6 491 465
f 6 465 464
f 6 464 463
f 6 463 462
f 6 462 461
f 6 461 460
f 6 460 413
f 6 413 459
f 6 459 458
f 6 458 411
f 6 411 408
f 6 408 347
f 6 347 272
f 6 272 214
f 6 214 205
f 6 205 128
f 6 128 69
f 6 69 31
f 8 35 36
f 8 36 15
f 9 30 29
f 9 29 28
f 9 28 67
f 9 67 125
f 9 125 135
f 9 135 134
f 9 134 133
f 9 133 132
f 9 132 131
f 9 131 130
f 9 130 72
f 9 72 32
f 9 32 14
f 9 14 13
f 9 13 12
f 9 12 11
f 9 11 10
f 15 36 16
f 16 36 17
f 17 36 18
f 18 36 37
f 18 37 38
f 18 38 19
f 19 38 39
f 19 39 40
f 19 40 20
f 20 40 21
f 21 40 41
f 21 41 22
f 22 41 23
f 23 41 42
f 23 42 24
f 24 42 43
f 24 43 44
f 24 44 25
f 25 44 45
f 25 45 26
f 26 45 46
f 26 46 47
f 26 47 48
f 26 48 49
f 26 49 50
f 26 50 51
f 26 51 52
f 26 52 53
f 26 53 54
f 26 54 55
f 26 55 56
f 26 56 57
f 26 57 58
f 26 58 59
f 26 59 60
f 26 60 61
f 26 61 62
f 26 62 63
f 26 63 64
f 26 64 65
f 26 65 66
f 26 66 27
f 27 67 28
f 27 66 67
f 31 68 34
f 31 69 70
f 31 70 71
f 31 71 68
f 32 72 73
f 32 73 33
f 33 73 74
f 34 68 76
f 34 76 77
f 34 77 78
f 34 78 79
f 34 79 80
f 34 80 81
f 34 81 82
f 34 82 83
f 34 83 84
f 34 84 85
f 34 85 86
f 34 86 75
f 35 87 88
f 35 88 37
f 35 37 89
f 35 89 36
f 36 89 37
f 37 88 90
f 37 90 38
f 38 91 92
f 38 92 93
f 38 93 41
f 38 41 39
f 38 90 94
f 38 94 91
f 39 41 40
f 41 95 43
f 41 43 42
f 41 93 95
f 43 95 96
f 43 96 45
f 43 45 44
f 45 96 46
f 46 96 97
f 46 97 98
f 46 98 47
f 47 98 99
f 47 99 100
f 47 100 101
f 47 101 102
f 47 102 103
f 47 103 104
f 47 104 105
f 47 105 106
f 47 106 107
f 47 107 108
f 47 108 109
f 47 109 110
f 47 110 48
f 48 111 49
f 48 110 111
f 49 111 112
f 49 112 50
f 50 112 51
f 51 113 52
f 51 112 113
f 52 113 53
f 53 113 114
f 53 114 54
f 54 114 115
f 54 115 55
f 55 116 56
f 55 115 116
f 56 116 117
f 56 117 57
f 57 117 118
f 57 118 58
f 58 118 59
f 59 118 60
f 60 118 61
f 61 119 62
f 61 118 119
f 62 120 63
f 62 119 121
f 62 121 120
f 63 120 64
f 64 122 123
f 64 123 124
f 64 124 65
f 64 120 122
f 65 124 66
f 66 124 67
f 67 124 125
f 68 71 126
f 68 126 127
f 68 127 76
f 69 128 70
f 70 129 71
f 70 128 129
f 71 127 126
f 71 129 127
f 72 130 73
f 73 130 131
f 73 131 132
f 73 132 133
f 73 133 134
f 73 134 135
f 73 135 125
f 73 125 136
f 73 136 137
f 73 137 138
f 73 138 139
f 73 139 140
f 73 140 141
f 73 141 142
f 73 142 74
f 74 142 143
f 75 86 144
f 76 127 77
f 77 127 78
f 78 127 145
f 78 145 146
f 78 146 79
f 79 147 80
f 79 146 147
f 80 147 81
f 81 147 148
f 81 148 149
f 81 149 82
f 82 149 150
f 82 150 83
f 83 150 151
f 83 151 84
f 84 151 85
f 85 151 152
f 85 152 153
f 85 153 154
f 85 154 155
f 85 155 86
f 86 155 156
f 86 156 157
f 86 157 158
f 86 158 144
f 87 159 88
f 88 159 90
f 90 159 160
f 90 160 161
f 90 161 94
f 91 94 162
f 91 162 163
f 91 163 164
f 91 164 92
f 92 164 165
f 92 165 93
f 93 165 166
f 93 166 95
f 94 161 167
f 94 167 162
f 95 166 168
f 95 168 96
f 96 168 97
f 97 169 170
f 97 170 98
f 97 168 171
f 97 171 172
f 97 172 173
f 97 173 169
f 98 170 174
f 98 174 99
f 99 174 175
f 99 175 176
f 99 176 177
f 99 177 178
f 99 178 179
f 99 179 100
f 100 179 101
f 101 179 180
f 101 180 181
f 101 181 182
f 101 182 102
f 102 182 105
f 102 105 103
f 103 105 104
f 105 182 106
f 106 182 108
f 106 108 107
f 108 183 184
f 108 184 110
f 108 110 109
f 108 182 181
f 108 181 180
f 108 180 185
f 108 185 183
f 110 184 186
f 110 186 187
f 110 187 188
f 110 188 189
f 110 189 190
f 110 190 191
f 110 191 112
f 110 112 111
f 112 192 113
f 112 191 192
f 113 115 114
f 113 192 193
f 113 193 115
f 115 194 195
f 115 195 118
f 115 118 117
f 115 117 116
f 115 193 194
f 118 195 196
f 118 196 197
f 118 197 119
f 119 197 121
f 120 121 197
f 120 197 198
f 120 198 199
f 120 199 122
f 122 199 123
f 123 199 200
f 123 200 201
f 123 201 125
f 123 125 124
f 125 201 202
f 125 202 203
f 125 203 136
f 127 146 145
f 127 129 204
f 127 204 146
f 128 205 154
f 128 154 206
f 128 206 129
f 129 206 204
f 136 203 202
f 136 202 137
f 137 202 138
f 138 202 207
f 138 207 139
f 139 207 140
f 140 207 208
f 140 208 209
f 140 209 141
f 141 209 208
f 141 208 142
f 142 208 210
f 142 210 211
f 142 211 143
f 143 211 212
f 146 204 147
f 147 149 148
f 147 204 153
f 147 153 213
f 147 213 149
f 149 213 150
f 150 213 152
f 150 152 151
f 152 213 153
f 153 204 154
f 154 204 206
f 154 205 214
f 154 214 215
f 154 215 155
f 155 215 216
f 155 216 156
f 156 216 217
f 156 217 218
f 156 218 219
f 156 219 220
f 156 220 221
f 156 221 157
f 157 221 222
f 157 222 223
f 157 223 158
f 158 223 225
f 158 225 224
f 160 226 167
f 160 167 161
f 162 167 163
f 163 167 227
f 163 227 228
f 163 228 229
f 163 229 164
f 164 229 230
f 164 230 231
f 164 231 165
f 165 232 166
f 165 231 232
f 166 171 168
f 166 232 172
f 166 172 171
f 167 226 227
f 169 233 234
f 169 234 170
f 169 173 235
f 169 235 233
f 170 234 174
f 172 232 173
f 173 236 237
f 173 237 235
f 173 232 236
f 174 234 238
f 174 238 239
f 174 239 175
f 175 239 176
f 176 239 240
f 176 240 241
f 176 241 177
f 177 241 242
f 177 242 243
f 177 243 178
f 178 243 179
f 179 244 245
f 179 245 185
f 179 185 180
f 179 243 244
f 183 185 246
f 183 246 184
f 184 246 247
f 184 247 248
f 184 248 186
f 185 245 246
f 186 248 249
f 186 249 187
f 187 250 188
f 187 249 251
f 187 251 252
f 187 252 253
f 187 253 254
f 187 254 250
f 188 250 189
f 189 250 255
f 189 255 256
f 189 256 257
f 189 257 192
f 189 192 190
f 190 192 191
f 192 257 258
f 192 258 259
f 192 259 260
f 192 260 193
f 193 260 261
f 193 261 262
f 193 262 195
f 193 195 194
f 195 262 196
f 196 263 197
f 196 262 263
f 197 263 264
f 197 264 198
f 198 264 199
f 199 264 200
f 200 264 201
f 201 265 266
f 201 266 202
f 201 264 263
f 201 263 267
f 201 267 262
f 201 262 268
f 201 268 269
f 201 269 265
f 202 208 207
f 202 266 208
f 208 266 265
f 208 265 210
f 210 265 211
f 211 265 270
f 211 270 212
f 212 270 271
f 214 272 215
f 215 272 273
f 215 273 274
f 215 274 275
f 215 275 218
f 215 218 217
f 215 217 216
f 218 275 273
f 218 273 276
f 218 276 277
f 218 277 278
f 218 278 219
f 219 279 220
f 219 278 280
f 219 280 281
f 219 281 282
f 219 282 283
f 219 283 279
f 220 279 221
f 221 284 222
f 221 279 285
f 221 285 286
f 221 286 287
f 221 287 284
f 222 284 288
f 222 288 289
f 222 289 225
f 222 225 223
f 224 225 291
f 224 291 290
f 225 289 292
f 225 292 291
f 226 293 227
f 227 293 294
f 227 294 228
f 228 294 295
f 228 295 229
f 229 295 296
f 229 296 230
f 230 237 236
f 230 236 231
f 230 296 237
f 231 236 232
f 233 235 297
f 233 297 298
f 233 298 299
f 233 299 234
f 234 299 300
f 234 300 238
f 235 237 296
f 235 296 301
f 235 301 297
f 238 300 302
f 238 302 303
f 238 303 239
f 239 303 304
f 239 304 240
f 240 304 305
f 240 305 306
f 240 306 241
f 241 306 242
f 242 306 307
f 242 307 308
f 242 308 243
f 243 308 244
f 244 308 309
f 244 309 245
f 245 309 246
f 246 309 247
f 247 309 248
f 248 309 251
f 248 251 249
f 250 254 310
f 250 310 311
f 250 311 312
f 250 312 313
f 250 313 314
f 250 314 315
f 250 315 255
f 251 309 307
f 251 307 306
f 251 306 316
f 251 316 317
f 251 317 318
f 251 318 319
f 251 319 320
f 251 320 252
f 252 320 321
f 252 321 253
f 253 321 322
f 253 322 310
f 253 310 254
f 255 323 324
f 255 324 325
f 255 325 256
f 255 315 323
f 256 325 257
f 257 325 326
f 257 326 258
f 258 326 324
f 258 324 327
f 258 327 259
f 259 328 329
f 259 329 330
f 259 330 331
f 259 331 332
f 259 332 260
f 259 327 333
f 259 333 328
f 260 332 261
f 261 332 334
f 261 334 262
f 262 335 336
f 262 336 337
f 262 337 338
f 262 338 268
f 262 267 263
f 262 334 335
f 265 269 338
f 265 338 339
f 265 339 340
f 265 340 341
f 265 341 342
f 265 342 343
f 265 343 344
f 265 344 270
f 268 338 269
f 270 344 343
f 270 343 345
f 270 345 271
f 271 345 346
f 272 347 276
f 272 276 273
f 273 275 274
f 276 347 348
f 276 348 349
f 276 349 277
f 277 349 348
f 277 348 350
f 277 350 351
f 277 351 352
f 277 352 280
f 277 280 278
f 279 283 285
f 280 352 281
f 281 352 351
f 281 351 282
f 282 353 354
f 282 354 355
f 282 355 285
f 282 285 283
f 282 351 353
f 284 287 288
f 285 356 286
f 285 355 357
f 285 357 358
f 285 358 356
f 286 356 287
f 287 356 359
f 287 359 360
f 287 360 361
f 287 361 362
f 287 362 363
f 287 363 364
f 287 364 288
f 288 364 363
f 288 363 292
f 288 292 289
f 290 291 292
f 290 292 365
f 292 363 362
f 292 362 361
f 292 361 366
f 292 366 315
f 292 315 313
f 292 313 312
f 292 312 311
f 292 311 310
f 292 310 322
f 292 322 367
f 292 367 368
f 292 368 369
f 292 369 370
f 292 370 365
f 293 371 294
f 294 372 295
f 294 371 373
f 294 373 372
f 295 372 374
f 295 374 375
f 295 375 296
f 296 375 301
f 297 301 375
f 297 375 376
f 297 376 377
f 297 377 298
f 299 378 300
f 300 379 302
f 300 378 380
f 300 380 379
f 302 379 303
f 303 379 381
f 303 381 382
f 303 382 304
f 304 382 383
f 304 383 384
f 304 384 305
f 305 384 383
f 305 383 316
f 305 316 306
f 307 309 308
f 313 315 314
f 315 385 323
f 315 366 385
f 316 383 317
f 317 383 318
f 318 386 387
f 318 387 388
f 318 388 319
f 318 383 382
f 318 382 386
f 319 388 389
f 319 389 320
f 320 389 321
f 321 389 390
f 321 390 368
f 321 368 367
f 321 367 322
f 323 391 392
f 323 392 324
f 323 385 391
f 324 392 393
f 324 393 394
f 324 394 327
f 324 326 325
f 327 395 333
f 327 394 395
f 328 333 396
f 328 396 397
f 328 397 329
f 329 397 398
f 329 398 399
f 329 399 330
f 330 399 400
f 330 400 331
f 331 401 332
f 331 400 401
f 332 401 402
f 332 402 403
f 332 403 335
f 332 335 334
f 333 395 396
f 335 403 404
f 335 404 336
f 336 404 337
f 337 404 340
f 337 340 338
f 338 340 339
f 340 404 405
f 340 405 406
f 340 406 343
f 340 343 341
f 341 343 342
f 343 406 407
f 343 346 345
f 347 408 348
f 348 409 410
f 348 410 350
f 348 408 411
f 348 411 409
f 350 410 353
f 350 353 351
f 353 412 354
f 353 410 412
f 354 412 413
f 354 413 414
f 354 414 415
f 354 415 416
f 354 416 355
f 355 416 417
f 355 417 418
f 355 418 357
f 356 358 419
f 356 419 359
f 357 418 420
f 357 420 358
f 358 420 419
f 359 419 361
f 359 361 360
f 361 419 393
f 361 393 391
f 361 391 385
f 361 385 366
f 365 370 421
f 365 421 422
f 368 390 423
f 368 423 424
f 368 424 425
f 368 425 369
f 369 425 424
f 369 424 370
f 370 424 426
f 370 426 421
f 372 373 427
f 372 427 374
f 373 428 427
f 374 427 428
f 374 428 429
f 374 429 430
f 374 430 431
f 374 431 376
f 374 376 375
f 376 431 432
f 376 432 433
f 376 433 434
f 376 434 377
f 378 435 380
f 379 436 437
f 379 437 386
f 379 386 381
f 379 380 435
f 379 435 438
f 379 438 436
f 381 386 382
f 386 439 387
f 386 437 438
f 386 438 440
f 386 440 441
f 386 441 439
f 387 439 389
f 387 389 388
f 389 442 443
f 389 443 390
f 389 439 442
f 390 443 444
f 390 444 445
f 390 445 446
f 390 446 447
f 390 447 423
f 391 393 392
f 393 419 420
f 393 420 448
f 393 448 449
f 393 449 394
f 394 449 395
f 395 450 396
f 395 449 450
f 396 450 397
f 397 450 451
f 397 451 452
f 397 452 399
f 397 399 398
f 399 452 453
f 399 453 400
f 400 453 403
f 400 403 401
f 401 403 402
f 403 453 404
f 404 453 454
f 404 454 405
f 405 454 455
f 405 455 406
f 406 455 456
f 406 456 457
f 406 457 407
f 409 411 412
f 409 412 410
f 411 458 412
f 412 458 459
f 412 459 413
f 413 460 414
f 414 461 415
f 414 460 461
f 415 461 462
f 415 462 463
f 415 463 464
f 415 464 465
f 415 465 466
f 415 466 416
f 416 466 467
f 416 467 468
f 416 468 417
f 417 468 467
f 417 467 469
f 417 469 470
f 417 470 471
f 417 471 472
f 417 472 418
f 418 472 471
f 418 471 473
f 418 473 474
f 418 474 420
f 420 474 448
f 421 426 422
f 423 447 475
f 423 475 424
f 424 475 426
f 436 438 437
f 438 476 440
f 439 441 443
f 439 443 442
f 440 477 443
f 440 443 441
f 440 476 477
f 443 477 478
f 443 478 444
f 444 478 479
f 444 479 480
f 444 480 445
f 445 480 446
f 448 474 481
f 448 481 449
f 449 481 482
f 449 482 451
f 449 451 450
f 451 482 452
f 452 483 453
f 452 482 484
f 452 484 471
f 452 471 483
f 453 483 454
f 454 485 455
f 454 483 471
f 454 471 470
f 454 470 485
f 455 485 486
f 455 486 487
f 455 487 488
f 455 488 489
f 455 489 490
f 455 490 456
f 456 490 457
f 465 491 466
f 466 491 467
f 467 492 469
f 467 491 493
f 467 493 492
f 469 492 494
f 469 494 487
f 469 487 470
f 470 487 486
f 470 486 485
f 471 484 473
f 473 481 474
f 473 484 482
f 473 482 481
f 476 495 477
f 477 495 478
f 478 495 496
f 478 496 479
f 487 494 488
f 488 494 489
f 489 493 490
f 489 494 493
f 492 493 494

