# https://github.com/mikedh/trimesh
v -0.23994394 -0.12000292 0.09979318
v -0.23890380 -0.13169824 0.09979318
v -0.22328795 -0.12859859 0.11252427
v -0.22590908 -0.12083644 0.11060036
v -0.22590908 -0.12000292 0.11060036
v -0.22524340 -0.09911284 0.11073099
v -0.22524340 -0.09754999 0.11068349
v -0.22524340 -0.07736319 0.10897334
v -0.22524340 -0.07697248 0.10893772
v -0.22524340 -0.07569615 0.10875958
v -0.22524340 -0.07447192 0.10853393
v -0.22524340 -0.07272674 0.10817765
v -0.22968129 0.01239644 0.08305987
v -0.22968129 0.01567842 0.08202665
v -0.22968129 0.06443931 0.06560211
v -0.22968129 0.06443931 0.05295415
v -0.23872351 -0.13323505 0.09979318
v -0.22141571 -0.13102101 0.11379501
v -0.22330182 -0.12703575 0.11248865
v -0.22141571 -0.13055216 0.11379501
v -0.22137410 -0.09679462 0.11220362
v -0.22059747 -0.07736319 0.11136043
v -0.22172080 -0.07736319 0.11082601
v -0.22162374 -0.07608686 0.11076663
v -0.22463318 -0.07613896 0.10917524
v -0.22385654 -0.07569615 0.10951964
v -0.22428648 -0.07426354 0.10899710
v -0.22136023 -0.07504496 0.11062411
v -0.22600615 -0.03089448 0.09701419
v -0.22600615 -0.02987863 0.09674104
v -0.21982083 0.10056717 0.06417699
v -0.21983470 0.10056717 0.04638671
v -0.21983470 0.10056717 0.04340583
v -0.21885004 0.10056717 0.04010430
v -0.23244110 -0.15459398 0.09979318
v -0.23689288 -0.14024181 0.09979318
v -0.23827972 -0.13518860 0.09979318
v -0.23850162 -0.13425090 0.09979318
v -0.21245669 -0.15336975 0.11251240
v -0.21125014 -0.15336975 0.11315370
v -0.21018228 -0.15336975 0.11364062
v -0.16967259 -0.14967101 0.13177531
v -0.21699167 -0.09601319 0.11387814
v -0.11755500 -0.09476290 0.14792669
v -0.21686686 -0.09445034 0.11381876
v -0.12060606 -0.08739147 0.14633531
v -0.12332427 -0.08048889 0.14469642
v -0.12444761 -0.07738924 0.14394823
v -0.22075001 -0.07567010 0.11101602
v -0.21210999 0.10056717 0.06724100
v -0.21316398 0.10056717 0.06684909
v -0.21438441 0.10056717 0.06637405
v -0.21792086 0.10056717 0.06496080
v -0.21966828 0.10056717 0.06424824
v -0.21982083 0.10043693 0.06421262
v -0.17707833 0.08043246 0.03082912
v -0.16247486 0.06443931 0.02898834
v -0.23196958 -0.15547959 0.09979318
v -0.15526327 0.10056717 0.04010430
v -0.21223480 -0.15430745 0.11232238
v -0.20912827 -0.15433350 0.11384251
v -0.16068583 -0.16553393 0.13177531
v -0.16068583 -0.16545578 0.13178718
v -0.11361637 -0.13229733 0.14898365
v -0.11482293 -0.13229733 0.14862737
v -0.11289521 -0.10330648 0.14944682
v -0.11289521 -0.10270740 0.14944682
v -0.11741632 -0.09372101 0.14785543
v -0.11263171 -0.10169154 0.14939932
v -0.11824842 -0.08976180 0.14709537
v -0.11666743 -0.07431564 0.14487456
v -0.12290822 -0.07738924 0.14435201
v -0.12283888 -0.07897814 0.14461328
v -0.12290822 -0.07582639 0.14405511
v -0.12460017 -0.07572220 0.14358007
v -0.20550861 0.10056717 0.06962808
v -0.15285016 0.08043246 0.03082912
v -0.16379236 0.07339964 0.02898834
v -0.15042319 0.06443931 0.02898834
v -0.12716583 0.01231829 0.03301431
v -0.23091559 -0.15623497 0.09979318
v -0.21292822 -0.15623497 0.11062411
v -0.09826401 -0.00836341 0.10378352
v -0.15125530 0.07339964 0.02898834
v -0.16253034 0.10056717 0.05164779
v -0.20961367 -0.15623497 0.11255990
v -0.20824070 -0.15623497 0.11334372
v -0.20697866 -0.15623497 0.11404441
v -0.20475973 -0.15623497 0.11514887
v -0.16068583 -0.16540368 0.12847377
v -0.12963441 -0.15157247 0.13178718
v -0.11045437 -0.13229733 0.14930432
v -0.11099524 -0.13229733 0.14930432
v -0.11315872 -0.13229733 0.14906680
v -0.11050984 -0.10687499 0.15010000
v -0.11050984 -0.10531215 0.15005250
v -0.11680610 -0.09432010 0.14800983
v -0.11637618 -0.09330426 0.14792669
v -0.11515576 -0.08976180 0.14755853
v -0.11443460 -0.08119217 0.14633531
v -0.11670903 -0.08822499 0.14709537
v -0.11363024 -0.09911284 0.14897178
v -0.11515576 -0.09598714 0.14841362
v -0.11050984 -0.10374929 0.14989812
v -0.11360250 -0.07275279 0.14511208
v -0.11453169 -0.07184113 0.14479142
v -0.11715282 -0.07384678 0.14470829
v -0.11981556 -0.07275279 0.14398386
v -0.11981556 -0.06980942 0.14331879
v -0.12290822 -0.07428959 0.14368695
v -0.12405930 -0.07428959 0.14335443
v -0.20505095 0.10056717 0.06977059
v -0.09826401 -0.01935545 0.10378352
v -0.10447707 -0.11997688 0.13631195
v -0.11045437 -0.13477184 0.13618131
v -0.12873296 -0.15071290 0.13178718
v -0.12924609 -0.15133804 0.13178718
v -0.13107673 -0.15123385 0.13061145
v -0.13767811 -0.14951472 0.12614607
v -0.17036601 -0.15623497 0.11384251
v -0.17104556 -0.15623497 0.11350998
v -0.18022645 -0.15623497 0.10942463
v -0.18108630 -0.15623497 0.10908022
v -0.21262311 -0.15623497 0.09979318
v -0.16068583 -0.16498693 0.12578979
v -0.16068583 -0.16529949 0.12692988
v -0.09826401 -0.01425014 0.11128916
v -0.17135067 0.10056717 0.05984224
v -0.09826401 -0.02870649 0.12915070
v -0.09826401 -0.02800321 0.12836689
v -0.09826401 -0.02722179 0.12745243
v -0.16068583 -0.16462225 0.12506535
v -0.11045437 -0.13477184 0.14145427
v -0.10447707 -0.11997688 0.15006438
v -0.10585004 -0.11997688 0.15021876
v -0.10741718 -0.11997688 0.15011188
v -0.10741718 -0.11771075 0.15019502
v -0.10895657 -0.10841180 0.15031378
v -0.10895657 -0.10687499 0.15030190
v -0.10895657 -0.10531215 0.15020689
v -0.11515576 -0.09442429 0.14821171
v -0.10449094 -0.08687052 0.14840173
v -0.10585004 -0.08668819 0.14822359
v -0.10449094 -0.08374483 0.14795045
v -0.10740331 -0.07738924 0.14664409
v -0.11050984 -0.07275279 0.14556337
v -0.11203536 -0.07275279 0.14534960
v -0.10666829 -0.09671647 0.14943495
v -0.10449094 -0.08840732 0.14860363
v -0.10895657 -0.10374929 0.15005250
v -0.11203536 -0.07118994 0.14508832
v -0.11203536 -0.06999176 0.14486268
v -0.11350542 -0.06980942 0.14454203
v -0.11360250 -0.06189099 0.14272499
v -0.11360250 -0.06032814 0.14236871
v -0.11365797 -0.05871319 0.14192931
v -0.12066153 -0.07030432 0.14323567
v -0.12220093 -0.07189322 0.14323567
v -0.20363637 0.10056717 0.07018625
v -0.09826401 -0.06978337 0.13420989
v -0.09826401 -0.06980942 0.13548062
v -0.16068583 -0.16425760 0.12468532
v -0.16068583 -0.16264265 0.12324832
v -0.16068583 -0.16003790 0.12137191
v -0.17221050 0.10056717 0.06062606
v -0.17323677 0.10056717 0.06151676
v -0.17417982 0.10056717 0.06225307
v -0.17474842 0.10056717 0.06265686
v -0.18279212 0.10056717 0.06716975
v -0.18344394 0.10056717 0.06741914
v -0.18381838 0.10056717 0.06754978
v -0.19111318 0.10056717 0.06981810
v -0.09826401 -0.03818778 0.13536186
v -0.09826401 -0.06980942 0.14569400
v -0.10447707 -0.10239482 0.14999312
v -0.10741718 -0.11461110 0.15026627
v -0.10741718 -0.11617394 0.15024252
v -0.10447707 -0.10085802 0.14993374
v -0.10741718 -0.10374929 0.15012376
v -0.10741718 -0.10221249 0.14998124
v -0.10449094 -0.08212988 0.14770106
v -0.10449094 -0.08048889 0.14743977
v -0.10894270 -0.07275279 0.14571775
v -0.11050984 -0.07118994 0.14530209
v -0.10585004 -0.09648204 0.14945870
v -0.10449094 -0.09507549 0.14938744
v -0.10449094 -0.08997017 0.14879364
v -0.11123100 -0.06887171 0.14476767
v -0.11317258 -0.05772339 0.14176304
v -0.11469810 -0.05920809 0.14177491
v -0.20288747 0.10056717 0.07035252
v -0.19148762 0.10056717 0.06991311
v -0.09826401 -0.03899525 0.13586066
v -0.19256937 0.10056717 0.07017438
v -0.19277739 0.10056717 0.07022188
v -0.09826401 -0.06827262 0.14540898
v -0.09963698 -0.06980942 0.14565837
v -0.10449094 -0.09752394 0.14963684
v -0.10447707 -0.09929517 0.14980310
v -0.10585004 -0.10067569 0.14989812
v -0.10449094 -0.07738924 0.14686973
v -0.10894270 -0.07118994 0.14542085
v -0.10894270 -0.06980942 0.14514770
v -0.11060691 -0.06980942 0.14501707
v -0.10673762 -0.06725677 0.14477955
v -0.09826401 -0.06051047 0.14392448
v -0.09963698 -0.06032814 0.14375821
v -0.09826401 -0.05876529 0.14349694
v -0.09826401 -0.05790572 0.14323567
v -0.09826401 -0.05728058 0.14303377
v -0.09826401 -0.05293065 0.14148989
v -0.09826401 -0.04344937 0.13809335
v -0.20199990 0.10056717 0.07050691
v -0.09826401 -0.04027157 0.13660885
v -0.19360949 0.10056717 0.07040002
v -0.09826401 -0.06543344 0.14487456
v -0.09826401 -0.06462597 0.14472017
v -0.09963698 -0.06189099 0.14412637
v -0.10449094 -0.06983547 0.14540898
v -0.09826401 -0.04326704 0.13802209
v -0.20043277 0.10056717 0.07068505
v -0.09826401 -0.04094881 0.13700075
v -0.19423358 0.10056717 0.07048316
v -0.09826401 -0.04165209 0.13733328
v -0.19889337 0.10056717 0.07068505
v -0.19463576 0.10056717 0.07053066
v -0.19575910 0.10056717 0.07062567
v -0.19732624 0.10056717 0.07066130
f 1 2 3
f 1 3 4
f 1 4 5
f 1 5 6
f 1 6 7
f 1 7 8
f 1 8 9
f 1 9 10
f 1 10 11
f 1 11 12
f 1 12 13
f 1 13 14
f 1 14 15
f 1 15 16
f 1 16 2
f 2 17 18
f 2 18 3
f 2 16 17
f 3 19 6
f 3 6 5
f 3 5 4
f 3 18 20
f 3 20 19
f 6 19 20
f 6 20 7
f 7 20 21
f 7 21 22
f 7 22 23
f 7 23 8
f 8 23 24
f 8 24 9
f 9 24 25
f 9 25 10
f 10 26 11
f 10 25 26
f 11 26 12
f 12 26 27
f 12 27 24
f 12 24 28
f 12 28 29
f 12 29 13
f 13 29 30
f 13 30 31
f 13 31 14
f 14 31 15
f 15 31 32
f 15 32 33
f 15 33 16
f 16 33 34
f 16 34 35
f 16 35 36
f 16 36 37
f 16 37 38
f 16 38 17
f 17 38 18
f 18 38 37
f 18 37 36
f 18 36 35
f 18 35 39
f 18 39 40
f 18 40 41
f 18 41 42
f 18 42 20
f 20 43 21
f 20 42 44
f 20 44 43
f 21 43 22
f 22 45 44
f 22 44 46
f 22 46 47
f 22 47 48
f 22 48 49
f 22 49 24
f 22 24 23
f 22 43 45
f 24 49 28
f 24 27 26
f 24 26 25
f 28 49 50
f 28 50 51
f 28 51 29
f 29 51 52
f 29 52 53
f 29 53 30
f 30 53 54
f 30 54 55
f 30 55 31
f 31 54 53
f 31 53 52
f 31 52 51
f 31 51 50
f 31 50 76
f 31 76 112
f 31 112 159
f 31 159 191
f 31 191 213
f 31 213 221
f 31 221 225
f 31 225 228
f 31 228 227
f 31 227 226
f 31 226 223
f 31 223 215
f 31 215 195
f 31 195 194
f 31 194 192
f 31 192 172
f 31 172 171
f 31 171 170
f 31 170 169
f 31 169 168
f 31 168 167
f 31 167 166
f 31 166 165
f 31 165 128
f 31 128 85
f 31 85 59
f 31 59 34
f 31 34 33
f 31 33 32
f 31 55 54
f 34 56 57
f 34 57 58
f 34 58 35
f 34 59 77
f 34 77 56
f 35 58 39
f 39 58 60
f 39 60 40
f 40 60 61
f 40 61 41
f 41 61 62
f 41 62 42
f 42 62 63
f 42 63 64
f 42 64 65
f 42 65 66
f 42 66 67
f 42 67 44
f 43 44 45
f 44 68 46
f 44 67 69
f 44 69 68
f 46 68 70
f 46 70 71
f 46 71 72
f 46 72 73
f 46 73 47
f 47 73 48
f 48 73 72
f 48 72 74
f 48 74 75
f 48 75 49
f 49 75 76
f 49 76 50
f 56 77 84
f 56 84 78
f 56 78 57
f 57 78 84
f 57 84 79
f 57 79 80
f 57 80 58
f 58 81 82
f 58 82 60
f 58 80 81
f 59 83 80
f 59 80 84
f 59 84 77
f 59 85 83
f 60 82 86
f 60 86 87
f 60 87 88
f 60 88 89
f 60 89 61
f 61 89 62
f 62 89 88
f 62 88 87
f 62 87 86
f 62 86 82
f 62 82 81
f 62 81 90
f 62 90 91
f 62 91 92
f 62 92 93
f 62 93 94
f 62 94 64
f 62 64 63
f 64 94 95
f 64 95 66
f 64 66 65
f 66 95 67
f 67 95 96
f 67 96 69
f 68 69 97
f 68 97 98
f 68 98 99
f 68 99 100
f 68 100 101
f 68 101 70
f 69 102 103
f 69 103 97
f 69 96 104
f 69 104 102
f 70 101 100
f 70 100 71
f 71 105 106
f 71 106 107
f 71 107 72
f 71 100 105
f 72 107 74
f 74 107 106
f 74 106 108
f 74 108 109
f 74 109 110
f 74 110 75
f 75 110 111
f 75 111 76
f 76 111 112
f 79 84 80
f 80 83 113
f 80 113 114
f 80 114 115
f 80 115 116
f 80 116 117
f 80 117 118
f 80 118 119
f 80 119 120
f 80 120 121
f 80 121 122
f 80 122 123
f 80 123 124
f 80 124 81
f 81 124 125
f 81 125 126
f 81 126 90
f 83 127 131
f 83 131 130
f 83 130 129
f 83 129 173
f 83 173 193
f 83 193 214
f 83 214 222
f 83 222 224
f 83 224 220
f 83 220 212
f 83 212 211
f 83 211 210
f 83 210 209
f 83 209 208
f 83 208 206
f 83 206 217
f 83 217 216
f 83 216 196
f 83 196 174
f 83 174 161
f 83 161 160
f 83 160 113
f 83 85 127
f 85 128 129
f 85 129 130
f 85 130 131
f 85 131 127
f 90 126 91
f 91 126 125
f 91 125 132
f 91 132 117
f 91 117 92
f 92 117 133
f 92 133 134
f 92 134 135
f 92 135 93
f 93 135 136
f 93 136 137
f 93 137 94
f 94 137 138
f 94 138 95
f 95 138 139
f 95 139 96
f 96 139 140
f 96 140 150
f 96 150 104
f 97 141 98
f 97 103 141
f 98 141 142
f 98 142 143
f 98 143 99
f 99 143 144
f 99 144 145
f 99 145 146
f 99 146 100
f 100 146 147
f 100 147 105
f 102 104 103
f 103 104 148
f 103 148 149
f 103 149 141
f 104 150 148
f 105 147 151
f 105 151 106
f 106 151 152
f 106 152 108
f 108 152 153
f 108 153 109
f 109 153 154
f 109 154 155
f 109 155 156
f 109 156 157
f 109 157 110
f 110 158 111
f 110 157 158
f 111 158 112
f 112 158 157
f 112 157 159
f 113 160 114
f 114 134 133
f 114 133 115
f 114 160 161
f 114 161 174
f 114 174 134
f 115 133 117
f 115 117 116
f 117 132 162
f 117 162 118
f 118 162 163
f 118 163 164
f 118 164 120
f 118 120 119
f 120 164 163
f 120 163 121
f 121 163 122
f 122 163 162
f 122 162 123
f 123 162 132
f 123 132 124
f 124 132 125
f 128 165 129
f 129 165 166
f 129 166 167
f 129 167 168
f 129 168 169
f 129 169 170
f 129 170 171
f 129 171 172
f 129 172 173
f 134 174 175
f 134 175 135
f 135 175 139
f 135 139 138
f 135 138 176
f 135 176 177
f 135 177 137
f 135 137 136
f 137 177 138
f 138 177 176
f 139 175 178
f 139 178 179
f 139 179 140
f 140 179 180
f 140 180 150
f 141 149 142
f 142 144 143
f 142 149 174
f 142 174 144
f 144 181 145
f 144 174 181
f 145 181 182
f 145 182 183
f 145 183 146
f 146 183 184
f 146 184 151
f 146 151 147
f 148 150 180
f 148 180 185
f 148 185 186
f 148 186 187
f 148 187 149
f 149 187 174
f 151 184 188
f 151 188 152
f 152 188 153
f 153 188 154
f 154 188 155
f 155 189 156
f 155 188 189
f 156 190 157
f 156 189 159
f 156 159 190
f 157 190 159
f 159 189 191
f 172 192 173
f 173 192 194
f 173 194 195
f 173 195 193
f 174 196 197
f 174 197 182
f 174 182 181
f 174 187 186
f 174 186 198
f 174 198 199
f 174 199 178
f 174 178 175
f 178 199 200
f 178 200 179
f 179 200 180
f 180 200 186
f 180 186 185
f 182 201 183
f 182 197 201
f 183 201 202
f 183 202 184
f 184 202 203
f 184 203 204
f 184 204 188
f 186 200 198
f 188 204 205
f 188 205 206
f 188 206 207
f 188 207 189
f 189 207 208
f 189 208 209
f 189 209 210
f 189 210 211
f 189 211 212
f 189 212 213
f 189 213 191
f 193 195 215
f 193 215 214
f 196 216 197
f 197 216 217
f 197 217 206
f 197 206 218
f 197 218 219
f 197 219 201
f 198 200 199
f 201 219 202
f 202 219 205
f 202 205 203
f 203 205 204
f 205 218 206
f 205 219 218
f 206 208 207
f 212 220 221
f 212 221 213
f 214 215 222
f 215 223 222
f 220 224 221
f 221 224 225
f 222 223 226
f 222 226 227
f 222 227 228
f 222 228 225
f 222 225 224

