# https://github.com/mikedh/trimesh
v 0.09897850 0.03214539 -0.10654109
v 0.09897850 0.02719594 -0.11412560
v 0.09897850 0.02183648 -0.10654109
v 0.11504770 0.02719594 -0.10654109
v 0.10837251 0.02620019 -0.11208591
v 0.10792249 0.02586340 -0.11290773
v 0.10520367 0.02704951 -0.11220472
v 0.10364738 0.02659556 -0.11352161
v 0.09897850 0.02662485 -0.11494743
v 0.10210984 0.02608305 -0.11476920
v 0.09897850 -0.03024986 -0.16312789
v 0.09899725 -0.11740700 -0.19658490
v 0.27660220 -0.11740700 -0.10655099
v 0.26057051 -0.08614348 -0.10654109
v 0.11521645 0.02713737 -0.10654109
v 0.10895378 0.02568768 -0.11267999
v 0.10675996 0.02605376 -0.11313546
v 0.11915406 0.00834997 -0.13244330
v 0.11759776 0.00793995 -0.13368097
v 0.10512867 0.02620019 -0.11357112
v 0.10456616 0.02577554 -0.11438304
v 0.10364738 0.02589268 -0.11453156
v 0.09897850 0.02584876 -0.11603658
v 0.10257860 0.02409155 -0.11731387
v 0.09897850 0.02261258 -0.12047244
v 0.09897850 -0.01280965 -0.16312789
v 0.09899725 -0.11742163 -0.20766465
v 0.09899725 -0.11742163 -0.20750622
v 0.09929726 -0.11742163 -0.19658490
v 0.21375045 -0.11742163 -0.17389078
v 0.29053385 -0.11740700 -0.10655099
v 0.27030204 -0.08614348 -0.10654109
v 0.12618550 0.02299331 -0.10654109
v 0.12582924 0.02251007 -0.10786788
v 0.12751679 0.02100181 -0.10952143
v 0.12648551 0.02119217 -0.10982837
v 0.14334224 0.00407412 -0.12678957
v 0.11840404 0.00711993 -0.13446319
v 0.11686650 0.00403019 -0.13912677
v 0.09897850 0.02214399 -0.12108632
v 0.09897850 -0.01111102 -0.16125653
v 0.09899725 -0.01279501 -0.16313781
v 0.09899725 -0.01332217 -0.16370218
v 0.09899725 -0.01409826 -0.16443490
v 0.09899725 -0.03013272 -0.17631663
v 0.09899725 -0.04006090 -0.18313873
v 0.09899725 -0.05162913 -0.19041630
v 0.09899725 -0.05367920 -0.19166389
v 0.09899725 -0.05445530 -0.19210945
v 0.09899725 -0.05659322 -0.19331743
v 0.09899725 -0.05738397 -0.19375310
v 0.09899725 -0.05893616 -0.19459472
v 0.09899725 -0.05958046 -0.19493136
v 0.09899725 -0.06028334 -0.19526802
v 0.09899725 -0.06206983 -0.19611955
v 0.09899725 -0.06597960 -0.19794142
v 0.09899725 -0.06921578 -0.19943653
v 0.09899725 -0.06999188 -0.19978308
v 0.09899725 -0.07119263 -0.20027815
v 0.09899725 -0.07274482 -0.20084255
v 0.09899725 -0.07365271 -0.20111977
v 0.10051604 -0.11616231 -0.20751611
v 0.10051604 -0.11742163 -0.20769434
v 0.22824460 -0.11742163 -0.17389078
v 0.28280864 -0.11150573 -0.12059125
v 0.28273364 -0.11067106 -0.12051204
v 0.28999009 -0.11417082 -0.10655099
v 0.28273364 -0.11740700 -0.12203686
v 0.26717070 -0.07968577 -0.10654109
v 0.28976507 -0.11302864 -0.10655099
v 0.28952132 -0.11198896 -0.10655099
v 0.28909005 -0.11077357 -0.10655099
v 0.12770431 0.02234900 -0.10654109
v 0.12644802 0.02275901 -0.10682823
v 0.12693553 0.02231971 -0.10733321
v 0.12809806 0.02126539 -0.10849168
v 0.12854807 0.02081145 -0.10895705
v 0.16166151 0.00392768 -0.11106605
v 0.11111009 -0.00971991 -0.15804845
v 0.11707276 0.00256585 -0.14078032
v 0.16361156 0.00265371 -0.11142251
v 0.19001228 -0.01433256 -0.11152152
v 0.20523771 -0.05952189 -0.15773160
v 0.17703693 -0.04263812 -0.15752367
v 0.17497437 -0.04274063 -0.15899900
v 0.17414936 -0.04253562 -0.15923663
v 0.10985381 -0.00952954 -0.15829600
v 0.09897850 0.02123610 -0.12227450
v 0.09897850 -0.01033493 -0.16034560
v 0.10829751 -0.01005670 -0.15916732
v 0.10364738 -0.01130139 -0.16101890
v 0.10985381 -0.01020314 -0.15906831
v 0.11058507 -0.02856588 -0.17322737
v 0.10891627 -0.03013272 -0.17476210
v 0.10672247 -0.02989842 -0.17494033
v 0.10518492 -0.05218558 -0.19005986
v 0.10362863 -0.05198057 -0.19017867
v 0.10244735 -0.05186342 -0.19023809
v 0.10051604 -0.05381099 -0.19157478
v 0.10051604 -0.05568534 -0.19263424
v 0.10207234 -0.05474816 -0.19192133
v 0.10769749 -0.05637357 -0.19187182
v 0.11137259 -0.06302165 -0.19474324
v 0.11137259 -0.06379774 -0.19513929
v 0.11137259 -0.06498386 -0.19573339
v 0.11137259 -0.06618461 -0.19629777
v 0.11249763 -0.06710714 -0.19656512
v 0.10051604 -0.07273018 -0.20066432
v 0.10051604 -0.07385772 -0.20106037
v 0.12687928 -0.10375941 -0.20550612
v 0.12534174 -0.10375941 -0.20553582
v 0.12067286 -0.10558982 -0.20590218
v 0.11913532 -0.10560446 -0.20592199
v 0.10518492 -0.10996818 -0.20664479
v 0.10362863 -0.11152038 -0.20688242
v 0.10207234 -0.11434654 -0.20727848
v 0.10207234 -0.11512263 -0.20738740
v 0.10207234 -0.11616231 -0.20752602
v 0.10207234 -0.11742163 -0.20768443
v 0.21915061 -0.11742163 -0.18100001
v 0.23340101 -0.11740700 -0.17034607
v 0.26810822 -0.11740700 -0.14153283
v 0.26880199 -0.11740700 -0.14085953
v 0.28237737 -0.10963139 -0.12021500
v 0.28284615 -0.10906030 -0.11918525
v 0.26552065 -0.07683031 -0.10654109
v 0.28901504 -0.11062713 -0.10655099
v 0.28901504 -0.11062713 -0.10666981
v 0.12911058 0.02103110 -0.10797681
v 0.16293654 0.00537737 -0.10654109
v 0.16261778 0.00372268 -0.11049177
v 0.16798042 -0.04095414 -0.16080105
v 0.16484909 -0.04098343 -0.16233578
v 0.14480478 -0.04249169 -0.17323729
v 0.16411782 0.00287336 -0.11038285
v 0.16505534 0.00256585 -0.10983828
v 0.18965602 -0.01310252 -0.10958084
v 0.19051856 -0.01408362 -0.11037296
v 0.24242000 -0.05487995 -0.11121458
v 0.23775112 -0.05337169 -0.11430384
v 0.22113816 -0.05922903 -0.14109717
v 0.20520021 -0.09210330 -0.17946531
v 0.20385017 -0.09346514 -0.18111885
v 0.17431810 -0.05168771 -0.16706868
v 0.17141177 -0.05003301 -0.16717759
v 0.17497437 -0.04351673 -0.15972180
v 0.17606191 -0.04385352 -0.15943467
v 0.17656816 -0.04325314 -0.15852372
v 0.22063189 -0.05962439 -0.14213682
v 0.23293224 -0.07374057 -0.14666178
v 0.22224445 -0.07355021 -0.15612756
v 0.22158818 -0.07420916 -0.15699890
v 0.17356808 -0.04316529 -0.16010796
v 0.09897850 0.00240478 -0.14523598
v 0.14396100 -0.04230133 -0.17339571
v 0.11137259 -0.02871231 -0.17309867
v 0.11137259 -0.02948841 -0.17366304
v 0.10983505 -0.03033772 -0.17467300
v 0.12687928 -0.05596356 -0.18753499
v 0.12307293 -0.05643215 -0.18874295
v 0.11851654 -0.05483603 -0.18876276
v 0.10747248 -0.05337169 -0.19027768
v 0.10642246 -0.05318133 -0.19037671
v 0.10518492 -0.05296168 -0.19048561
v 0.10207234 -0.05398671 -0.19149557
v 0.10824125 -0.05578784 -0.19144605
v 0.11448519 -0.05545105 -0.18998065
v 0.12226665 -0.05722288 -0.18934694
v 0.12327918 -0.05944867 -0.19034699
v 0.11366016 -0.06422240 -0.19492147
v 0.11306014 -0.06483742 -0.19537693
v 0.11296639 -0.06656533 -0.19622846
v 0.12534174 -0.07232016 -0.19634727
v 0.12641051 -0.07330127 -0.19656512
v 0.12114162 -0.07989077 -0.19953554
v 0.12843557 -0.09910282 -0.20386248
v 0.18884976 -0.10843063 -0.19516901
v 0.15946769 -0.11742163 -0.20311987
v 0.15793015 -0.11742163 -0.20331790
v 0.14549855 -0.11742163 -0.20474371
v 0.14512354 -0.11742163 -0.20478332
v 0.12687928 -0.10531160 -0.20557544
v 0.10364738 -0.11742163 -0.20758542
v 0.10362863 -0.11305792 -0.20710025
v 0.21913186 -0.11567909 -0.18098023
v 0.23227597 -0.11740700 -0.17120749
v 0.21714430 -0.11742163 -0.18226741
v 0.23473230 -0.11345329 -0.16863311
v 0.21896311 -0.11152038 -0.18086141
v 0.23461979 -0.11244290 -0.16853410
v 0.23525731 -0.10995353 -0.16752414
v 0.23570733 -0.10840135 -0.16661321
v 0.23634484 -0.10744953 -0.16559336
v 0.23332600 -0.07478025 -0.14702814
v 0.23484479 -0.07480953 -0.14553302
v 0.25181402 -0.07494132 -0.12682917
v 0.25320157 -0.07514633 -0.12505681
v 0.26537064 -0.07661067 -0.10654109
v 0.28427117 -0.10607305 -0.11273940
v 0.28432743 -0.10753739 -0.11445235
v 0.28586496 -0.10758132 -0.11124428
v 0.16408031 0.00468914 -0.10654109
v 0.16409907 0.00438163 -0.10724409
v 0.16357406 0.00414733 -0.10842237
v 0.16316154 0.00391304 -0.10945211
v 0.16634913 -0.04872975 -0.16851429
v 0.16833668 -0.05003301 -0.16870242
v 0.15397379 -0.04564001 -0.17163325
v 0.15907393 -0.07485346 -0.18892119
v 0.14396100 -0.04304814 -0.17388089
v 0.16409907 0.00360553 -0.10890754
v 0.17060549 0.00060365 -0.10654109
v 0.18999353 -0.01286822 -0.10854118
v 0.19049981 -0.01342467 -0.10898675
v 0.19102481 -0.01321967 -0.10770946
v 0.24264502 -0.05468959 -0.11041256
v 0.26413311 -0.07504383 -0.10654109
v 0.25215153 -0.07463381 -0.12592814
v 0.23340101 -0.07328662 -0.14563203
v 0.22216945 -0.05965368 -0.14051297
v 0.20557522 -0.09290870 -0.17972274
v 0.20488145 -0.09400694 -0.18082180
v 0.22241320 -0.10283688 -0.17491063
v 0.20283764 -0.09314298 -0.18136637
v 0.16936796 -0.05038445 -0.16847468
v 0.20437520 -0.09449017 -0.18135648
v 0.20079385 -0.09649631 -0.18423780
v 0.20023132 -0.09547128 -0.18398037
v 0.20167512 -0.09393373 -0.18240603
v 0.17032424 -0.04972550 -0.16746474
v 0.23443227 -0.07376986 -0.14501814
v 0.22263820 -0.07458988 -0.15649392
v 0.17032424 -0.04894940 -0.16678153
v 0.12817306 -0.05622714 -0.18734685
v 0.12695428 -0.05729610 -0.18836670
v 0.12534174 -0.05687145 -0.18848552
v 0.12410420 -0.05663715 -0.18863405
v 0.12534174 -0.05763290 -0.18893108
v 0.12751679 -0.05807220 -0.18870336
v 0.11791652 -0.06286057 -0.19328773
v 0.12652301 -0.07015295 -0.19506998
v 0.12534174 -0.06988937 -0.19519871
v 0.12534174 -0.07117799 -0.19583240
v 0.12689803 -0.07275946 -0.19619876
v 0.15727388 -0.07637637 -0.19035690
v 0.18980604 -0.10440371 -0.19343625
v 0.12969186 -0.09639381 -0.20282282
v 0.18986229 -0.10897244 -0.19501059
v 0.18892477 -0.10996818 -0.19549576
v 0.18581217 -0.11616231 -0.19723840
v 0.18581217 -0.11742163 -0.19728792
v 0.21633804 -0.11616231 -0.18274269
v 0.21708805 -0.11462476 -0.18222780
v 0.21826934 -0.11305792 -0.18143568
v 0.21909435 -0.11462476 -0.18096042
v 0.21903810 -0.11305792 -0.18092081
v 0.21525050 -0.11742163 -0.18342588
v 0.21819433 -0.11152038 -0.18135648
v 0.21868184 -0.10996818 -0.18072279
v 0.21967561 -0.10996818 -0.17995046
v 0.22235694 -0.10576555 -0.17645525
v 0.22380074 -0.10447692 -0.17481162
v 0.22344448 -0.10345189 -0.17450466
v 0.17011799 0.00091116 -0.10654109
v 0.16151150 -0.07365271 -0.18708941
v 0.16312404 -0.04880297 -0.17001932
v 0.15783639 -0.07584921 -0.18990143
v 0.12920434 -0.05647608 -0.18717853
v 0.19256237 -0.10003999 -0.19019848
v 0.19104357 -0.10159219 -0.19175301
v 0.19072481 -0.10148969 -0.19182232
v 0.19147483 -0.01305859 -0.10654109
v 0.19134357 -0.01300001 -0.10667971
v 0.24206374 -0.05357670 -0.10887783
v 0.24320753 -0.05445530 -0.10871942
v 0.24397631 -0.05489460 -0.10810551
v 0.24375129 -0.05517282 -0.10913527
v 0.24412630 -0.05473352 -0.10731340
v 0.24425756 -0.05458709 -0.10654109
v 0.22209444 -0.10474051 -0.17626713
v 0.21765057 -0.10911886 -0.18102973
v 0.22295696 -0.10389120 -0.17514826
v 0.20437520 -0.09602773 -0.18209909
v 0.20336267 -0.09552985 -0.18240603
v 0.20679400 -0.09979106 -0.18258426
v 0.19972507 -0.10375941 -0.18832711
v 0.19871254 -0.10324688 -0.18861425
v 0.19207485 -0.10214864 -0.19152527
v 0.12757305 -0.06114730 -0.19025789
v 0.12699179 -0.07106084 -0.19538684
v 0.19014355 -0.10148969 -0.19203025
v 0.19049981 -0.10214864 -0.19223818
v 0.19036855 -0.10383262 -0.19299069
v 0.19454993 -0.10583876 -0.19193122
v 0.19655623 -0.11742163 -0.19298079
v 0.18821224 -0.11682126 -0.19652551
v 0.19599370 -0.10747881 -0.19189163
v 0.19749376 -0.11191574 -0.19189163
v 0.19758750 -0.11305792 -0.19199064
v 0.18740596 -0.11625018 -0.19678294
v 0.18699347 -0.11462476 -0.19670374
v 0.18736846 -0.11742163 -0.19690176
v 0.18706845 -0.11742163 -0.19698098
v 0.21630053 -0.11462476 -0.18271297
v 0.21791308 -0.10996818 -0.18116835
v 0.21620678 -0.11357044 -0.18264366
v 0.19687499 -0.10841598 -0.19162428
v 0.21945061 -0.10869422 -0.17971283
v 0.22089441 -0.10721523 -0.17808899
v 0.19158734 -0.10263187 -0.19200053
v 0.19254362 -0.01387861 -0.10654109
v 0.23910116 -0.05038445 -0.10654109
v 0.24330129 -0.05376706 -0.10654109
v 0.20874406 -0.02657438 -0.10654109
v 0.19818753 -0.10696630 -0.19059453
v 0.19869378 -0.10652699 -0.19013906
v 0.19764375 -0.10583876 -0.19041630
v 0.19972507 -0.10535553 -0.18907961
v 0.20126260 -0.10381797 -0.18752508
v 0.20527522 -0.10131397 -0.18414869
v 0.20379394 -0.09970320 -0.18417839
v 0.19818753 -0.10531160 -0.18988162
v 0.19411866 -0.10481373 -0.19173320
v 0.19207485 -0.10373011 -0.19221838
v 0.19558119 -0.10645378 -0.19170350
v 0.18828725 -0.11742163 -0.19654531
v 0.19657497 -0.10692237 -0.19142626
f 1 2 9
f 1 9 23
f 1 23 25
f 1 25 40
f 1 40 88
f 1 88 154
f 1 154 89
f 1 89 41
f 1 41 26
f 1 26 11
f 1 11 3
f 1 3 14
f 1 14 32
f 1 32 69
f 1 69 126
f 1 126 198
f 1 198 217
f 1 217 279
f 1 279 313
f 1 313 312
f 1 312 314
f 1 314 311
f 1 311 272
f 1 272 212
f 1 212 264
f 1 264 202
f 1 202 130
f 1 130 73
f 1 73 33
f 1 33 15
f 1 15 4
f 1 4 5
f 1 5 6
f 1 6 7
f 1 7 8
f 1 8 2
f 2 8 10
f 2 10 9
f 3 11 12
f 3 12 13
f 3 13 14
f 4 15 16
f 4 16 5
f 5 16 6
f 6 17 7
f 6 16 18
f 6 18 19
f 6 19 17
f 7 17 20
f 7 20 8
f 8 21 22
f 8 22 10
f 8 20 21
f 9 10 23
f 10 22 24
f 10 24 25
f 10 25 23
f 11 26 27
f 11 27 28
f 11 28 12
f 12 28 29
f 12 29 13
f 13 30 64
f 13 64 31
f 13 31 32
f 13 32 14
f 13 29 30
f 15 33 34
f 15 34 35
f 15 35 36
f 15 36 16
f 16 36 37
f 16 37 18
f 17 19 21
f 17 21 20
f 18 37 38
f 18 38 19
f 19 39 24
f 19 24 21
f 19 38 39
f 21 24 22
f 24 39 25
f 25 39 40
f 26 41 42
f 26 42 43
f 26 43 44
f 26 44 45
f 26 45 46
f 26 46 47
f 26 47 48
f 26 48 49
f 26 49 50
f 26 50 51
f 26 51 52
f 26 52 53
f 26 53 54
f 26 54 55
f 26 55 56
f 26 56 57
f 26 57 58
f 26 58 59
f 26 59 60
f 26 60 61
f 26 61 27
f 27 61 62
f 27 62 63
f 27 63 119
f 27 119 183
f 27 183 181
f 27 181 180
f 27 180 179
f 27 179 178
f 27 178 251
f 27 251 303
f 27 303 302
f 27 302 326
f 27 326 295
f 27 295 257
f 27 257 187
f 27 187 120
f 27 120 64
f 27 64 30
f 27 30 29
f 27 29 28
f 31 65 66
f 31 66 67
f 31 67 32
f 31 64 68
f 31 68 65
f 32 67 70
f 32 70 71
f 32 71 72
f 32 72 69
f 33 73 74
f 33 74 34
f 34 74 75
f 34 75 35
f 35 75 76
f 35 76 77
f 35 77 78
f 35 78 37
f 35 37 36
f 37 79 80
f 37 80 39
f 37 39 38
f 37 78 81
f 37 81 82
f 37 82 83
f 37 83 84
f 37 84 85
f 37 85 86
f 37 86 79
f 39 80 79
f 39 79 87
f 39 87 88
f 39 88 40
f 41 89 90
f 41 90 91
f 41 91 42
f 42 91 90
f 42 90 43
f 43 90 92
f 43 92 44
f 44 92 93
f 44 93 94
f 44 94 95
f 44 95 45
f 45 95 94
f 45 94 46
f 46 94 96
f 46 96 97
f 46 97 98
f 46 98 47
f 47 98 48
f 48 99 49
f 48 98 97
f 48 97 99
f 49 99 100
f 49 100 50
f 50 100 51
f 51 100 52
f 52 100 101
f 52 101 53
f 53 101 102
f 53 102 103
f 53 103 104
f 53 104 105
f 53 105 54
f 54 105 55
f 55 105 106
f 55 106 56
f 56 106 57
f 57 106 107
f 57 107 58
f 58 107 59
f 59 107 108
f 59 108 60
f 60 108 109
f 60 109 61
f 61 109 110
f 61 110 111
f 61 111 112
f 61 112 113
f 61 113 114
f 61 114 115
f 61 115 116
f 61 116 62
f 62 116 63
f 63 116 117
f 63 117 118
f 63 118 119
f 64 120 121
f 64 121 122
f 64 122 123
f 64 123 68
f 65 68 66
f 66 68 123
f 66 123 124
f 66 124 125
f 66 125 71
f 66 71 70
f 66 70 67
f 69 72 127
f 69 127 126
f 71 125 128
f 71 128 72
f 72 128 127
f 73 129 76
f 73 76 75
f 73 75 74
f 73 130 129
f 76 129 78
f 76 78 77
f 78 130 131
f 78 131 81
f 78 129 130
f 79 92 87
f 79 86 132
f 79 132 133
f 79 133 134
f 79 134 92
f 81 131 135
f 81 135 136
f 81 136 82
f 82 137 138
f 82 138 139
f 82 139 140
f 82 140 141
f 82 141 83
f 82 136 137
f 83 142 143
f 83 143 144
f 83 144 145
f 83 145 146
f 83 146 147
f 83 147 85
f 83 85 148
f 83 148 84
f 83 141 149
f 83 149 150
f 83 150 151
f 83 151 152
f 83 152 142
f 84 148 85
f 85 147 146
f 85 146 86
f 86 146 153
f 86 153 132
f 87 92 90
f 87 90 88
f 88 90 154
f 89 154 90
f 92 134 155
f 92 155 156
f 92 156 93
f 93 156 155
f 93 155 157
f 93 157 158
f 93 158 94
f 94 158 159
f 94 159 160
f 94 160 161
f 94 161 96
f 96 162 163
f 96 163 164
f 96 164 97
f 96 161 160
f 96 160 162
f 97 164 101
f 97 101 165
f 97 165 99
f 99 165 100
f 100 165 101
f 101 164 102
f 102 164 163
f 102 163 162
f 102 162 166
f 102 166 103
f 103 166 167
f 103 167 168
f 103 168 169
f 103 169 170
f 103 170 171
f 103 171 104
f 104 171 105
f 105 171 172
f 105 172 107
f 105 107 106
f 107 172 173
f 107 173 174
f 107 174 108
f 108 174 109
f 109 174 175
f 109 175 110
f 110 176 177
f 110 177 178
f 110 178 179
f 110 179 180
f 110 180 181
f 110 181 182
f 110 182 183
f 110 183 119
f 110 119 112
f 110 112 111
f 110 175 176
f 112 119 118
f 112 118 184
f 112 184 113
f 113 184 115
f 113 115 114
f 115 184 116
f 116 184 117
f 117 184 118
f 120 185 186
f 120 186 121
f 120 187 185
f 121 188 122
f 121 186 189
f 121 189 188
f 122 188 190
f 122 190 191
f 122 191 192
f 122 192 193
f 122 193 194
f 122 194 123
f 123 194 195
f 123 195 124
f 124 195 196
f 124 196 125
f 125 197 198
f 125 198 199
f 125 199 200
f 125 200 201
f 125 201 128
f 125 196 197
f 126 127 198
f 127 128 198
f 128 201 198
f 130 202 203
f 130 203 204
f 130 204 205
f 130 205 131
f 131 205 135
f 132 153 133
f 133 206 134
f 133 153 206
f 134 206 207
f 134 207 208
f 134 208 209
f 134 209 210
f 134 210 155
f 135 205 211
f 135 211 136
f 136 211 212
f 136 212 137
f 137 213 214
f 137 214 138
f 137 212 213
f 138 214 215
f 138 215 139
f 139 216 217
f 139 217 197
f 139 197 218
f 139 218 196
f 139 196 219
f 139 219 220
f 139 220 141
f 139 141 140
f 139 215 216
f 141 220 219
f 141 219 149
f 142 221 222
f 142 222 143
f 142 152 223
f 142 223 221
f 143 224 225
f 143 225 144
f 143 222 226
f 143 226 227
f 143 227 228
f 143 228 229
f 143 229 224
f 144 225 145
f 145 225 207
f 145 207 230
f 145 230 146
f 146 230 153
f 149 219 150
f 150 219 231
f 150 231 196
f 150 196 195
f 150 195 194
f 150 194 232
f 150 232 151
f 151 232 223
f 151 223 152
f 153 230 233
f 153 233 207
f 153 207 206
f 155 210 234
f 155 234 159
f 155 159 157
f 157 159 158
f 159 234 235
f 159 235 236
f 159 236 237
f 159 237 160
f 160 168 167
f 160 167 162
f 160 237 238
f 160 238 168
f 162 167 166
f 168 238 169
f 169 238 239
f 169 239 240
f 169 240 171
f 169 171 170
f 171 240 241
f 171 241 242
f 171 242 243
f 171 243 172
f 172 243 173
f 173 243 174
f 174 243 244
f 174 244 245
f 174 245 246
f 174 246 177
f 174 177 175
f 175 177 247
f 175 247 176
f 176 247 177
f 177 246 248
f 177 248 249
f 177 249 178
f 178 249 250
f 178 250 251
f 181 183 182
f 185 187 252
f 185 252 253
f 185 253 254
f 185 254 255
f 185 255 186
f 186 255 256
f 186 256 189
f 187 257 252
f 188 189 190
f 189 256 254
f 189 254 258
f 189 258 259
f 189 259 260
f 189 260 191
f 189 191 190
f 191 260 261
f 191 261 192
f 192 261 262
f 192 262 193
f 193 262 263
f 193 263 232
f 193 232 194
f 196 231 219
f 196 218 197
f 197 217 198
f 198 201 199
f 199 201 200
f 202 264 203
f 203 211 204
f 203 264 212
f 203 212 211
f 204 211 205
f 207 233 230
f 207 225 265
f 207 265 209
f 207 209 266
f 207 266 208
f 208 266 209
f 209 267 239
f 209 239 268
f 209 268 210
f 209 265 229
f 209 229 269
f 209 269 270
f 209 270 271
f 209 271 267
f 210 268 234
f 212 272 273
f 212 273 213
f 213 273 215
f 213 215 214
f 215 273 216
f 216 273 274
f 216 274 275
f 216 275 276
f 216 276 277
f 216 277 217
f 217 277 276
f 217 276 278
f 217 278 279
f 221 223 280
f 221 280 222
f 222 280 281
f 222 281 226
f 223 232 263
f 223 263 282
f 223 282 280
f 224 229 225
f 225 229 265
f 226 283 284
f 226 284 227
f 226 281 285
f 226 285 283
f 227 286 287
f 227 287 288
f 227 288 269
f 227 269 228
f 227 284 286
f 228 269 229
f 234 268 239
f 234 239 235
f 235 239 237
f 235 237 236
f 237 239 238
f 239 267 245
f 239 245 289
f 239 289 240
f 240 289 241
f 241 289 245
f 241 245 290
f 241 290 243
f 241 243 242
f 243 290 244
f 244 290 245
f 245 267 291
f 245 291 292
f 245 292 246
f 246 292 293
f 246 293 294
f 246 294 248
f 248 295 296
f 248 296 249
f 248 294 297
f 248 297 298
f 248 298 299
f 248 299 295
f 249 296 300
f 249 300 301
f 249 301 250
f 250 301 300
f 250 300 302
f 250 302 303
f 250 303 251
f 252 257 304
f 252 304 253
f 253 304 254
f 254 304 258
f 254 256 255
f 257 295 304
f 258 305 259
f 258 304 306
f 258 306 298
f 258 298 307
f 258 307 297
f 258 297 305
f 259 305 281
f 259 281 308
f 259 308 260
f 260 308 309
f 260 309 261
f 261 309 280
f 261 280 262
f 262 280 282
f 262 282 263
f 267 271 291
f 269 288 270
f 270 292 271
f 270 288 310
f 270 310 292
f 271 292 291
f 272 311 273
f 273 311 274
f 274 312 313
f 274 313 275
f 274 311 314
f 274 314 312
f 275 313 278
f 275 278 276
f 278 313 279
f 280 309 308
f 280 308 281
f 281 305 315
f 281 315 316
f 281 316 317
f 281 317 318
f 281 318 319
f 281 319 320
f 281 320 285
f 283 285 320
f 283 320 321
f 283 321 319
f 283 319 286
f 283 286 284
f 286 319 318
f 286 318 322
f 286 322 287
f 287 322 288
f 288 322 317
f 288 317 323
f 288 323 310
f 292 310 293
f 293 310 324
f 293 324 294
f 294 323 325
f 294 325 297
f 294 324 323
f 295 326 296
f 295 299 304
f 296 326 302
f 296 302 300
f 297 325 327
f 297 327 305
f 297 307 298
f 298 306 299
f 299 306 304
f 305 327 315
f 310 323 324
f 315 317 316
f 315 327 317
f 317 322 318
f 317 327 323
f 319 321 320
f 323 327 325

