# https://github.com/mikedh/trimesh
v -0.12602927 -0.27096411 0.10678128
v -0.12487710 -0.27081795 0.10832826
v -0.12474909 -0.27080670 0.10990651
v -0.12463936 -0.27073922 0.11143787
v -0.12464850 -0.27067176 0.11300049
v -0.12602927 -0.27089665 0.10832826
v -0.13186324 -0.27076171 0.09593673
v -0.13338117 -0.27076171 0.09128013
v -0.13491739 -0.27073922 0.08663916
v -0.13419500 -0.27073922 0.08663916
v -0.13437788 -0.27068300 0.08509217
v -0.12600184 -0.27082919 0.10531241
v -0.12504171 -0.27071674 0.10678128
v -0.12000326 -0.26951360 0.12136048
v -0.12071651 -0.26983968 0.12136048
v -0.12137489 -0.27003084 0.12136048
v -0.12229846 -0.27015452 0.12136048
v -0.12554463 -0.27067176 0.11300049
v -0.12292026 -0.27016576 0.12136048
v -0.13167121 -0.27067176 0.09748371
v -0.14395182 -0.26970476 0.06715334
v -0.13624330 -0.27062679 0.08324828
v -0.13633473 -0.27066052 0.08198257
v -0.13586838 -0.27066052 0.08198257
v -0.13601469 -0.27060430 0.08096687
v -0.12517887 -0.27060430 0.10589059
v -0.12423702 -0.26958106 0.10692191
v -0.12368837 -0.26897387 0.10751571
v -0.12341404 -0.26820928 0.10692191
v -0.12353292 -0.26769204 0.10574995
v -0.12255450 -0.26663509 0.10832826
v -0.12211557 -0.26445369 0.10901581
v -0.11983868 -0.26815304 0.12136048
v -0.13082081 -0.19125364 0.21433612
v -0.13082081 -0.19233309 0.21369544
v -0.13082081 -0.19324387 0.21307038
v -0.13082081 -0.20673696 0.20358532
v -0.13082081 -0.20780518 0.20278838
v -0.13082081 -0.20931190 0.20160080
v -0.13082081 -0.21283136 0.19880371
v -0.13082081 -0.21454047 0.19742861
v -0.13082081 -0.21626084 0.19602226
v -0.13083910 -0.25453627 0.15653496
v -0.13083910 -0.25599802 0.15498797
v -0.13083910 -0.25724613 0.15345661
v -0.13083910 -0.25987729 0.14987822
v -0.13083910 -0.26076558 0.14850311
v -0.13083910 -0.26146272 0.14703426
v -0.12538003 -0.27059306 0.11426621
v -0.12384381 -0.27006457 0.12136048
v -0.13083910 -0.26201369 0.14542476
v -0.12447476 -0.26992963 0.12136048
v -0.13083910 -0.26548817 0.13306447
v -0.14436330 -0.26950236 0.06715334
v -0.14317456 -0.26973849 0.06715334
v -0.13766064 -0.27052558 0.07815416
v -0.14249790 -0.26968227 0.06715334
v -0.14048618 -0.26933369 0.06990355
v -0.13916942 -0.26904135 0.07184119
v -0.13451504 -0.27054806 0.08423274
v -0.12384381 -0.26872650 0.10650001
v -0.12296598 -0.26663509 0.10678128
v -0.12211557 -0.26354291 0.10903144
v -0.12213386 -0.26273332 0.10909394
v -0.13438703 -0.15610412 0.20878883
v -0.13082081 -0.17943593 0.20822628
v -0.13082081 -0.17943593 0.22028969
v -0.13082081 -0.19036534 0.21480491
v -0.13505455 -0.19612239 0.21149215
v -0.13444190 -0.19612239 0.21149215
v -0.13687424 -0.17619760 0.22249296
v -0.14065992 -0.20385843 0.20683556
v -0.14151947 -0.20467927 0.20633552
v -0.14151947 -0.20569126 0.20553859
v -0.14308313 -0.20566877 0.20553859
v -0.13154320 -0.21624960 0.19600663
v -0.17608439 -0.20838988 0.19277202
v -0.17684334 -0.20882839 0.19174069
v -0.13122315 -0.26106918 0.14745616
v -0.19350401 -0.19922581 0.19135003
v -0.19101678 -0.20722047 0.17950541
v -0.13254905 -0.26092299 0.14556540
v -0.13312513 -0.26129407 0.14348712
v -0.13083910 -0.26473480 0.13639285
v -0.13083910 -0.26516207 0.13465834
v -0.13159806 -0.26441996 0.13584593
v -0.14520457 -0.26883895 0.06715334
v -0.13485339 -0.26142899 0.13936181
v -0.13645361 -0.25996724 0.14092443
v -0.13961749 -0.25689756 0.14400278
v -0.14040389 -0.25629037 0.14400278
v -0.14207726 -0.26933369 0.06715334
v -0.14176636 -0.26818679 0.06715334
v -0.14174808 -0.26719728 0.06715334
v -0.13916942 -0.26864779 0.07184119
v -0.13779780 -0.26507212 0.07534145
v -0.13753262 -0.26388023 0.07629465
v -0.13768807 -0.26285701 0.07666968
v -0.15308683 -0.20069881 0.09356156
v -0.17142086 -0.15609288 0.20399159
v -0.13438703 -0.15610412 0.22677453
v -0.16550459 -0.17943593 0.12139173
v -0.18192750 -0.15609288 0.19350644
v -0.13438703 -0.15655390 0.22679016
v -0.13438703 -0.15963482 0.22647763
v -0.13438703 -0.16118652 0.22630574
v -0.13438703 -0.16273822 0.22610260
v -0.13438703 -0.16430118 0.22586822
v -0.13438703 -0.16586413 0.22561820
v -0.13438703 -0.16676367 0.22546194
v -0.13438703 -0.16819169 0.22511816
v -0.13438703 -0.16957472 0.22477438
v -0.13438703 -0.17119391 0.22436810
v -0.13438703 -0.17258820 0.22397746
v -0.13438703 -0.17357769 0.22363368
v -0.13438703 -0.17424109 0.22335241
v -0.13532888 -0.17515188 0.22296175
v -0.14151947 -0.20181199 0.20810127
v -0.14308313 -0.20391467 0.20686681
v -0.14151947 -0.20391467 0.20686681
v -0.13687424 -0.17515188 0.22299300
v -0.13804469 -0.17613012 0.22246171
v -0.13925172 -0.17905363 0.22078971
v -0.14308313 -0.20467927 0.20633552
v -0.14417127 -0.20550010 0.20538233
v -0.14390610 -0.20384719 0.20683556
v -0.17560888 -0.19337880 0.20711683
v -0.17560888 -0.19416590 0.20646053
v -0.19210495 -0.19775281 0.19447527
v -0.19312909 -0.19740425 0.19419400
v -0.17560888 -0.19498673 0.20569486
v -0.17670618 -0.19475060 0.20544484
v -0.17688908 -0.20104738 0.19936626
v -0.19263530 -0.19813511 0.19366271
v -0.19371431 -0.19787649 0.19313141
v -0.13730402 -0.25788705 0.14556540
v -0.13304284 -0.25968613 0.14790932
v -0.20592177 -0.18996055 0.18986555
v -0.19675931 -0.20090121 0.18384947
v -0.19508595 -0.20391467 0.18053673
v -0.19190376 -0.20695061 0.17889599
v -0.13543860 -0.26019213 0.14253392
v -0.13443275 -0.26114788 0.14144009
v -0.13417671 -0.26136153 0.14122132
v -0.13468878 -0.26129407 0.14040876
v -0.13318915 -0.26290199 0.13781482
v -0.14614641 -0.26807433 0.06715334
v -0.13630730 -0.25977608 0.14206513
v -0.13787095 -0.25823562 0.14361213
v -0.13940717 -0.25669516 0.14509661
v -0.14175722 -0.26663509 0.06715334
v -0.13896825 -0.26507212 0.07296628
v -0.13832816 -0.26507212 0.07423199
v -0.13907798 -0.26408263 0.07318504
v -0.14069650 -0.26421756 0.07024733
v -0.14205897 -0.26540945 0.06715334
v -0.14227844 -0.26500466 0.06715334
v -0.17169519 -0.21596849 0.06716897
v -0.17226213 -0.21529384 0.06716897
v -0.15474193 -0.20086746 0.09209269
v -0.15577521 -0.20045143 0.09173329
v -0.17142086 -0.15609288 0.21877393
v -0.13644446 -0.15610412 0.22664952
v -0.16983893 -0.19178212 0.09648364
v -0.17087221 -0.19178212 0.09585860
v -0.17642271 -0.19178212 0.09276461
v -0.17623068 -0.17943593 0.12139173
v -0.20660757 -0.15609288 0.19358457
v -0.13687424 -0.15655390 0.22661827
v -0.13532888 -0.15963482 0.22641513
v -0.14543317 -0.16045565 0.22543069
v -0.15348918 -0.16686486 0.22391495
v -0.15397382 -0.16739335 0.22378994
v -0.15239188 -0.16788810 0.22382120
v -0.15549173 -0.16893380 0.22336803
v -0.13572208 -0.17274561 0.22385245
v -0.13687424 -0.17361142 0.22353992
v -0.13525572 -0.17345399 0.22366493
v -0.15082823 -0.19238931 0.21269537
v -0.14773749 -0.19773033 0.20996079
v -0.14856962 -0.19767411 0.20992953
v -0.15718341 -0.17065418 0.22261797
v -0.15718341 -0.17196975 0.22211795
v -0.15858247 -0.17669233 0.22016468
v -0.15847273 -0.17836773 0.21949274
v -0.15890250 -0.17895244 0.21918022
v -0.15643358 -0.18219078 0.21769574
v -0.15604953 -0.18522672 0.21611750
v -0.15358976 -0.18843134 0.21461739
v -0.15237359 -0.19066893 0.21350792
v -0.15317826 -0.19145604 0.21300790
v -0.17503280 -0.19152350 0.20841380
v -0.17557231 -0.19210820 0.20792938
v -0.17662389 -0.19315391 0.20696057
v -0.19480247 -0.19592001 0.19424088
v -0.19376918 -0.19636977 0.19456903
v -0.19966716 -0.19146728 0.19441277
v -0.20612293 -0.18899353 0.19042810
v -0.20685447 -0.18895980 0.18883423
v -0.20585775 -0.19145604 0.18666219
v -0.20290419 -0.19625733 0.18223998
v -0.20133141 -0.19776406 0.18219310
v -0.19814922 -0.20077751 0.18205247
v -0.20126738 -0.18996055 0.19444402
v -0.20284932 -0.18844258 0.19447527
v -0.20437641 -0.18844258 0.19291264
v -0.20588519 -0.18838635 0.19131878
v -0.19729882 -0.20111484 0.18266189
v -0.19671360 -0.20244167 0.18077113
v -0.19518653 -0.20400462 0.17967730
v -0.14646646 -0.26779323 0.06715334
v -0.14194925 -0.26576926 0.06715334
v -0.13937059 -0.26507212 0.07220060
v -0.14251618 -0.26464485 0.06715334
v -0.14788381 -0.25734732 0.06715334
v -0.14963034 -0.25506473 0.06715334
v -0.15942372 -0.24250491 0.06715334
v -0.17316739 -0.21446176 0.06716897
v -0.17576433 -0.21262895 0.06716897
v -0.17642271 -0.21223541 0.06716897
v -0.17465790 -0.15609288 0.21775824
v -0.17142086 -0.15655390 0.21878956
v -0.16787293 -0.15610412 0.21988340
v -0.16505654 -0.15610412 0.22075846
v -0.15958832 -0.15610412 0.22239920
v -0.15549173 -0.15610412 0.22360243
v -0.15452246 -0.15610412 0.22388370
v -0.15346174 -0.15610412 0.22408683
v -0.15239188 -0.15610412 0.22428997
v -0.14306484 -0.15610412 0.22589948
v -0.14153776 -0.15610412 0.22614948
v -0.13997411 -0.15610412 0.22633700
v -0.13841961 -0.15610412 0.22649326
v -0.13841961 -0.15655390 0.22650889
v -0.20795177 -0.17943593 0.15675372
v -0.20676304 -0.15667758 0.19350644
v -0.20765916 -0.16739335 0.19472530
v -0.19915509 -0.15609288 0.20361658
v -0.20905820 -0.17943593 0.15848822
v -0.21051213 -0.17942468 0.16298857
v -0.21231352 -0.17942468 0.16884838
v -0.20951541 -0.16449233 0.18755287
v -0.15449503 -0.16586413 0.22385245
v -0.15549173 -0.16739335 0.22363368
v -0.13997411 -0.15655390 0.22635262
v -0.14153776 -0.15655390 0.22614948
v -0.15703711 -0.16893380 0.22313364
v -0.15858247 -0.17017067 0.22247733
v -0.15779607 -0.17126137 0.22230544
v -0.16013696 -0.17669233 0.21991465
v -0.16013696 -0.17792920 0.21944587
v -0.16013696 -0.17870506 0.21907083
v -0.17513338 -0.18857751 0.21005454
v -0.17605694 -0.19124239 0.20827316
v -0.19360459 -0.17919981 0.20692932
v -0.19493050 -0.18048165 0.20521044
v -0.19824067 -0.18384368 0.20072573
v -0.20721110 -0.18756553 0.18924051
v -0.20741226 -0.18834137 0.18822480
v -0.20702820 -0.18928590 0.18741225
v -0.20603150 -0.19173715 0.18516208
v -0.20588519 -0.19305272 0.18213060
v -0.20574803 -0.19287282 0.18319319
v -0.20445870 -0.19471687 0.18231811
v -0.20457757 -0.19481806 0.18122429
v -0.20301392 -0.19634728 0.18122429
v -0.20144112 -0.19787649 0.18122429
v -0.19904536 -0.20017033 0.18122429
v -0.19826811 -0.20090121 0.18122429
v -0.20300477 -0.18756553 0.19466279
v -0.19516824 -0.17944717 0.20544484
v -0.19654901 -0.18053787 0.20367908
v -0.20378204 -0.18756553 0.19383460
v -0.20131312 -0.16852902 0.20227271
v -0.20433068 -0.16825915 0.19910061
v -0.20765916 -0.17048551 0.19466279
v -0.20849127 -0.17050799 0.19358457
v -0.20903993 -0.17001326 0.19300640
v -0.20654357 -0.18756553 0.19053748
v -0.19683247 -0.20254286 0.17967730
v -0.14692367 -0.26738844 0.06715334
v -0.16073134 -0.24248243 0.06715334
v -0.17843444 -0.21987024 0.06716897
v -0.16976577 -0.24248243 0.06715334
v -0.17674276 -0.15609288 0.21707068
v -0.18044614 -0.16118652 0.21592998
v -0.18182692 -0.16586413 0.21553932
v -0.16057589 -0.16739335 0.22221169
v -0.15858247 -0.16739335 0.22283674
v -0.15703711 -0.16586413 0.22330553
v -0.15467791 -0.15810560 0.22388370
v -0.15465962 -0.15963482 0.22388370
v -0.14462849 -0.15810560 0.22561820
v -0.20861014 -0.16449233 0.19208447
v -0.20896677 -0.16806800 0.19289704
v -0.20776889 -0.16273822 0.19350644
v -0.20852785 -0.16894505 0.19378772
v -0.20775974 -0.16894505 0.19481903
v -0.20569316 -0.16739335 0.19731923
v -0.19968545 -0.16017454 0.20374159
v -0.19843270 -0.15609288 0.20453851
v -0.21267929 -0.17942468 0.17036411
v -0.21061271 -0.17229583 0.18755287
v -0.20890275 -0.16705602 0.19252200
v -0.21292619 -0.17942468 0.17191110
v -0.21310906 -0.17942468 0.17345809
v -0.21320051 -0.17942468 0.17500507
v -0.21320051 -0.17942468 0.17655206
v -0.21311821 -0.17942468 0.17811469
v -0.21308164 -0.17942468 0.17847408
v -0.21294448 -0.17942468 0.17967730
v -0.15549173 -0.16586413 0.22366493
v -0.15703711 -0.16739335 0.22330553
v -0.15858247 -0.16893380 0.22274298
v -0.15945116 -0.16981086 0.22233670
v -0.16732427 -0.17302672 0.21928960
v -0.16625442 -0.17357769 0.21941461
v -0.16480049 -0.17361142 0.21978964
v -0.16013696 -0.17205971 0.22147727
v -0.15952432 -0.17451096 0.22082096
v -0.16169148 -0.17673731 0.21950837
v -0.16117026 -0.17764809 0.21930523
v -0.16169148 -0.17819906 0.21891457
v -0.16475477 -0.17975078 0.21733633
v -0.16941829 -0.18246064 0.21474240
v -0.17405437 -0.18582267 0.21180467
v -0.17512425 -0.18554156 0.21161716
v -0.19457387 -0.17824404 0.20642928
v -0.19188549 -0.17746819 0.20836692
v -0.19380575 -0.17824404 0.20708558
v -0.20854614 -0.18589013 0.18728724
v -0.20887533 -0.18633991 0.18631841
v -0.21046642 -0.18513678 0.18338070
v -0.21205749 -0.18369751 0.18041172
v -0.20746713 -0.18940958 0.18516208
v -0.20755857 -0.19012921 0.18277128
v -0.20594006 -0.19313142 0.18122429
v -0.20535482 -0.19390728 0.18122429
v -0.21213978 -0.18379870 0.17939603
v -0.21035668 -0.18654229 0.17967730
v -0.20542798 -0.19403098 0.17967730
v -0.20556514 -0.19422212 0.17655206
v -0.20562914 -0.19431207 0.17500507
v -0.15948774 -0.25358051 0.08162317
v -0.19665873 -0.17470210 0.20535108
v -0.19533282 -0.17824404 0.20566360
v -0.20143199 -0.16739335 0.20238210
v -0.20221839 -0.16739335 0.20155392
v -0.20224581 -0.16586413 0.20152267
v -0.20433068 -0.16788810 0.19910061
v -0.20902162 -0.16894505 0.19299077
v -0.21050300 -0.17282431 0.18822480
v -0.21302677 -0.18136995 0.17967730
v -0.21237755 -0.18129124 0.18133367
v -0.21138083 -0.18292165 0.18277128
v -0.16423356 -0.24902658 0.06715334
v -0.17413668 -0.23715265 0.06716897
v -0.17310338 -0.23926659 0.06716897
v -0.17371605 -0.23845700 0.06716897
v -0.17831556 -0.15609288 0.21650816
v -0.17954087 -0.15716109 0.21614875
v -0.18182692 -0.15963482 0.21542994
v -0.18182692 -0.16118652 0.21546119
v -0.18336312 -0.16739335 0.21497678
v -0.18182692 -0.16739335 0.21553932
v -0.17489564 -0.16829289 0.21769574
v -0.15965233 -0.16893380 0.22241483
v -0.19972202 -0.16118652 0.20377284
v -0.19792063 -0.15655390 0.20513231
v -0.20136798 -0.16430118 0.20233522
v -0.20145941 -0.16586413 0.20241335
v -0.19780174 -0.15609288 0.20519481
v -0.21206663 -0.18220202 0.17106728
v -0.21283474 -0.17981824 0.17191110
v -0.21288047 -0.17942468 0.18003669
v -0.21300850 -0.17981824 0.17308305
v -0.21305421 -0.17982949 0.17345809
v -0.21320051 -0.17982949 0.17500507
v -0.21325537 -0.17982949 0.17655206
v -0.21316395 -0.17982949 0.17811469
v -0.21299019 -0.17982949 0.17967730
v -0.16418784 -0.17005823 0.22083659
v -0.16390437 -0.17108145 0.22074283
v -0.16763517 -0.17205971 0.21939899
v -0.16843073 -0.17205971 0.21914897
v -0.17335028 -0.17132883 0.21769574
v -0.16943658 -0.17361142 0.21836767
v -0.16785464 -0.17357769 0.21893020
v -0.16569662 -0.17447723 0.21925835
v -0.16725114 -0.18070654 0.21618000
v -0.17333199 -0.18373124 0.21302351
v -0.17250901 -0.18395613 0.21314852
v -0.19475674 -0.17669233 0.20661679
v -0.17300280 -0.18030174 0.21446113
v -0.18026327 -0.17048551 0.21541431
v -0.18278706 -0.16993454 0.21464864
v -0.18420439 -0.16827040 0.21461739
v -0.19034011 -0.17438728 0.20991391
v -0.19205923 -0.17643371 0.20849193
v -0.19397949 -0.17669233 0.20721059
v -0.21063100 -0.18407981 0.18377134
v -0.21229523 -0.18265178 0.18088051
v -0.21247813 -0.18306783 0.17981794
v -0.20733910 -0.19290655 0.17036411
v -0.21220381 -0.18393364 0.17811469
v -0.19675931 -0.17361142 0.20541358
v -0.19960315 -0.16925989 0.20367908
v -0.20046269 -0.16739335 0.20317904
v -0.21319137 -0.18136995 0.17811469
v -0.21272502 -0.18292165 0.17811469
v -0.21058529 -0.18696959 0.17089539
v -0.21158201 -0.18446211 0.17191110
v -0.20780547 -0.19209696 0.17036411
v -0.20865587 -0.19056774 0.17027035
v -0.17939458 -0.15609288 0.21608624
v -0.18182692 -0.15810560 0.21532056
v -0.18326254 -0.15963482 0.21485177
v -0.18412210 -0.16118652 0.21455488
v -0.18334483 -0.16118652 0.21486739
v -0.18415868 -0.16318800 0.21458614
v -0.18420439 -0.16586413 0.21461739
v -0.18421355 -0.16739335 0.21461739
v -0.17965061 -0.16847280 0.21618000
v -0.20049014 -0.16586413 0.20319467
v -0.19973118 -0.16273822 0.20377284
v -0.19972202 -0.16586413 0.20377284
v -0.19789319 -0.16118652 0.20513231
v -0.19714337 -0.15655390 0.20569486
v -0.19713423 -0.15609288 0.20569486
v -0.21192949 -0.18319151 0.17191110
v -0.21242326 -0.18136995 0.17191110
v -0.21287132 -0.18136995 0.17500507
v -0.21307250 -0.18136995 0.17655206
v -0.17358802 -0.17048551 0.21777387
v -0.17937629 -0.16949602 0.21608624
v -0.17880020 -0.17058672 0.21592998
v -0.16929942 -0.17506193 0.21785200
v -0.16870505 -0.17598395 0.21769574
v -0.16913482 -0.17943593 0.21613312
v -0.18182692 -0.16894505 0.21533618
v -0.18611552 -0.16739335 0.21332041
v -0.18606065 -0.16894505 0.21328915
v -0.18787119 -0.17048551 0.21191406
v -0.19696963 -0.16894505 0.20556985
v -0.19968545 -0.16739335 0.20374159
v -0.21021952 -0.18782415 0.17191110
v -0.21222208 -0.18398986 0.17655206
v -0.21263358 -0.18292165 0.17655206
v -0.21064014 -0.18703705 0.17191110
v -0.21106993 -0.18600257 0.17191110
v -0.21177402 -0.18438340 0.17308305
v -0.21199349 -0.18360754 0.17308305
v -0.20900335 -0.18997180 0.17070789
v -0.18138799 -0.15609288 0.21521117
v -0.18305222 -0.15810560 0.21477365
v -0.18403979 -0.15963482 0.21452363
v -0.18492679 -0.15963482 0.21396108
v -0.18681963 -0.15963482 0.21272662
v -0.19335769 -0.15655390 0.20830441
v -0.18879476 -0.16213103 0.21147652
v -0.18881305 -0.16318800 0.21147652
v -0.18881305 -0.16368275 0.21147652
v -0.19526882 -0.15655390 0.20700745
v -0.19526882 -0.15609288 0.20700745
v -0.21245068 -0.18292165 0.17500507
v -0.21214894 -0.18392240 0.17500507
v -0.21183804 -0.18468700 0.17500507
v -0.21208494 -0.18377621 0.17406751
v -0.21183804 -0.18436092 0.17352059
v -0.18268646 -0.15609288 0.21461739
v -0.18382949 -0.15810560 0.21439862
v -0.18492679 -0.15810560 0.21378920
v -0.18957202 -0.15655390 0.21072647
v -0.18872160 -0.15810560 0.21141401
v -0.19258045 -0.15655390 0.20882008
v -0.19333025 -0.15609288 0.20828879
v -0.18344543 -0.15609288 0.21424236
v -0.18494508 -0.15609288 0.21339854
v -0.18851128 -0.15609288 0.21128900
v -0.18960858 -0.15609288 0.21063272
v -0.19055959 -0.15609288 0.21003892
v -0.19255300 -0.15609288 0.20878883
f 1 2 3
f 1 3 4
f 1 4 5
f 1 5 6
f 1 6 7
f 1 7 8
f 1 8 9
f 1 9 10
f 1 10 11
f 1 11 12
f 1 12 2
f 2 12 13
f 2 13 14
f 2 14 15
f 2 15 16
f 2 16 3
f 3 16 17
f 3 17 4
f 4 17 5
f 5 18 6
f 5 17 19
f 5 19 18
f 6 18 7
f 7 20 8
f 7 18 20
f 8 20 9
f 9 20 21
f 9 21 22
f 9 22 23
f 9 23 24
f 9 24 10
f 10 24 11
f 11 24 25
f 11 25 26
f 11 26 13
f 11 13 12
f 13 26 14
f 14 26 27
f 14 27 28
f 14 28 29
f 14 29 30
f 14 30 31
f 14 31 32
f 14 32 33
f 14 33 34
f 14 34 35
f 14 35 36
f 14 36 37
f 14 37 38
f 14 38 39
f 14 39 40
f 14 40 41
f 14 41 42
f 14 42 43
f 14 43 44
f 14 44 45
f 14 45 46
f 14 46 47
f 14 47 15
f 15 47 48
f 15 48 16
f 16 48 17
f 17 48 19
f 18 19 49
f 18 49 20
f 19 50 49
f 19 48 51
f 19 51 50
f 20 49 52
f 20 52 53
f 20 53 21
f 21 54 87
f 21 87 147
f 21 147 211
f 21 211 281
f 21 281 356
f 21 356 284
f 21 284 282
f 21 282 217
f 21 217 216
f 21 216 215
f 21 215 214
f 21 214 157
f 21 157 156
f 21 156 212
f 21 212 151
f 21 151 94
f 21 94 93
f 21 93 92
f 21 92 57
f 21 57 55
f 21 55 56
f 21 56 23
f 21 23 22
f 21 53 54
f 23 56 24
f 24 56 25
f 25 56 57
f 25 57 58
f 25 58 59
f 25 59 60
f 25 60 26
f 26 30 61
f 26 61 27
f 26 60 30
f 27 61 28
f 28 61 29
f 29 61 30
f 30 62 31
f 30 60 59
f 30 59 62
f 31 62 32
f 32 62 63
f 32 63 33
f 33 63 64
f 33 64 65
f 33 65 66
f 33 66 67
f 33 67 68
f 33 68 34
f 34 69 70
f 34 70 35
f 34 68 71
f 34 71 69
f 35 70 36
f 36 70 72
f 36 72 37
f 37 72 73
f 37 73 38
f 38 73 74
f 38 74 39
f 39 74 40
f 40 74 41
f 41 74 42
f 42 74 75
f 42 75 76
f 42 76 43
f 43 76 75
f 43 75 44
f 44 77 45
f 44 75 77
f 45 77 78
f 45 78 46
f 46 78 47
f 47 79 48
f 47 78 80
f 47 80 81
f 47 81 79
f 48 79 82
f 48 82 83
f 48 83 51
f 49 50 52
f 50 51 84
f 50 84 52
f 51 83 84
f 52 84 85
f 52 85 53
f 53 85 86
f 53 86 54
f 54 86 88
f 54 88 89
f 54 89 90
f 54 90 91
f 54 91 87
f 55 57 56
f 57 92 58
f 58 92 59
f 59 92 93
f 59 93 94
f 59 94 95
f 59 95 62
f 62 95 64
f 62 64 63
f 64 95 96
f 64 96 97
f 64 97 98
f 64 98 99
f 64 99 65
f 65 100 162
f 65 162 101
f 65 101 67
f 65 67 66
f 65 99 102
f 65 102 103
f 65 103 100
f 67 101 104
f 67 104 105
f 67 105 106
f 67 106 107
f 67 107 108
f 67 108 109
f 67 109 110
f 67 110 111
f 67 111 112
f 67 112 113
f 67 113 114
f 67 114 115
f 67 115 116
f 67 116 68
f 68 116 117
f 68 117 71
f 69 118 119
f 69 119 120
f 69 120 70
f 69 71 118
f 70 120 72
f 71 117 121
f 71 121 122
f 71 122 123
f 71 123 119
f 71 119 118
f 72 120 73
f 73 120 119
f 73 119 124
f 73 124 74
f 74 124 75
f 75 125 77
f 75 124 126
f 75 126 127
f 75 127 128
f 75 128 125
f 77 129 130
f 77 130 78
f 77 125 131
f 77 131 132
f 77 132 133
f 77 133 129
f 78 130 134
f 78 134 135
f 78 135 80
f 79 136 82
f 79 81 137
f 79 137 136
f 80 135 138
f 80 138 139
f 80 139 140
f 80 140 141
f 80 141 81
f 81 141 137
f 82 136 142
f 82 142 83
f 83 142 143
f 83 143 144
f 83 144 84
f 84 145 86
f 84 86 85
f 84 144 143
f 84 143 145
f 86 145 146
f 86 146 88
f 87 91 147
f 88 146 145
f 88 145 89
f 89 145 148
f 89 148 90
f 90 148 149
f 90 149 150
f 90 150 141
f 90 141 91
f 91 141 147
f 94 151 95
f 95 151 152
f 95 152 153
f 95 153 96
f 96 153 97
f 97 153 152
f 97 152 154
f 97 154 98
f 98 154 99
f 99 154 155
f 99 155 156
f 99 156 157
f 99 157 158
f 99 158 159
f 99 159 160
f 99 160 161
f 99 161 102
f 100 103 168
f 100 168 238
f 100 238 301
f 100 301 372
f 100 372 429
f 100 429 464
f 100 464 476
f 100 476 482
f 100 482 481
f 100 481 480
f 100 480 479
f 100 479 478
f 100 478 477
f 100 477 470
f 100 470 454
f 100 454 415
f 100 415 360
f 100 360 285
f 100 285 221
f 100 221 162
f 101 162 163
f 101 163 104
f 102 161 164
f 102 164 165
f 102 165 166
f 102 166 167
f 102 167 103
f 103 167 168
f 104 163 169
f 104 169 170
f 104 170 105
f 105 170 106
f 106 170 171
f 106 171 172
f 106 172 107
f 107 172 108
f 108 172 109
f 109 172 173
f 109 173 110
f 110 173 174
f 110 174 175
f 110 175 111
f 111 175 112
f 112 175 113
f 113 176 114
f 113 175 177
f 113 177 176
f 114 176 177
f 114 177 178
f 114 178 115
f 115 178 121
f 115 121 116
f 116 121 117
f 119 126 124
f 119 123 179
f 119 179 180
f 119 180 181
f 119 181 126
f 121 178 177
f 121 177 182
f 121 182 183
f 121 183 184
f 121 184 185
f 121 185 122
f 122 185 186
f 122 186 187
f 122 187 188
f 122 188 189
f 122 189 190
f 122 190 123
f 123 190 179
f 125 128 131
f 126 181 127
f 127 181 191
f 127 191 192
f 127 192 193
f 127 193 194
f 127 194 128
f 128 194 132
f 128 132 131
f 129 133 132
f 129 132 194
f 129 194 130
f 130 195 135
f 130 135 134
f 130 194 196
f 130 196 195
f 135 195 197
f 135 197 138
f 136 137 141
f 136 141 150
f 136 150 149
f 136 149 142
f 138 198 199
f 138 199 200
f 138 200 201
f 138 201 202
f 138 202 203
f 138 203 139
f 138 197 204
f 138 204 205
f 138 205 206
f 138 206 207
f 138 207 198
f 139 203 208
f 139 208 140
f 140 209 210
f 140 210 141
f 140 208 203
f 140 203 209
f 141 210 147
f 142 149 148
f 142 148 145
f 142 145 143
f 147 210 211
f 151 212 213
f 151 213 152
f 152 213 154
f 154 213 212
f 154 212 156
f 154 156 155
f 157 214 158
f 158 214 215
f 158 215 216
f 158 216 217
f 158 217 159
f 159 218 160
f 159 217 218
f 160 218 161
f 161 166 165
f 161 165 164
f 161 218 219
f 161 219 220
f 161 220 166
f 162 221 222
f 162 222 223
f 162 223 224
f 162 224 225
f 162 225 226
f 162 226 227
f 162 227 228
f 162 228 229
f 162 229 230
f 162 230 231
f 162 231 232
f 162 232 233
f 162 233 163
f 163 233 234
f 163 234 169
f 166 220 235
f 166 235 168
f 166 168 167
f 168 236 237
f 168 237 238
f 168 235 239
f 168 239 240
f 168 240 241
f 168 241 242
f 168 242 236
f 169 234 170
f 170 234 171
f 171 243 244
f 171 244 172
f 171 234 245
f 171 245 246
f 171 246 243
f 172 244 173
f 173 244 175
f 173 175 174
f 175 244 247
f 175 247 182
f 175 182 177
f 179 190 191
f 179 191 181
f 179 181 180
f 182 248 249
f 182 249 184
f 182 184 183
f 182 247 248
f 184 250 251
f 184 251 185
f 184 249 250
f 185 251 186
f 186 251 252
f 186 252 188
f 186 188 187
f 188 252 192
f 188 192 191
f 188 191 189
f 189 191 190
f 192 253 193
f 192 252 253
f 193 254 194
f 193 253 254
f 194 254 255
f 194 255 196
f 195 196 197
f 196 255 256
f 196 256 197
f 197 256 257
f 197 257 204
f 198 258 259
f 198 259 199
f 198 207 258
f 199 259 200
f 200 259 260
f 200 260 261
f 200 261 262
f 200 262 263
f 200 263 264
f 200 264 201
f 201 264 265
f 201 265 266
f 201 266 267
f 201 267 268
f 201 268 202
f 202 268 269
f 202 269 203
f 203 269 209
f 204 257 205
f 205 270 206
f 205 257 271
f 205 271 272
f 205 272 270
f 206 270 273
f 206 273 207
f 207 273 274
f 207 274 275
f 207 275 276
f 207 276 277
f 207 277 278
f 207 278 279
f 207 279 258
f 209 269 280
f 209 280 210
f 210 280 281
f 210 281 211
f 217 282 220
f 217 220 219
f 217 219 218
f 220 283 239
f 220 239 235
f 220 282 284
f 220 284 283
f 221 285 286
f 221 286 287
f 221 287 222
f 222 224 223
f 222 287 288
f 222 288 289
f 222 289 224
f 224 289 290
f 224 290 225
f 225 290 291
f 225 291 226
f 226 291 227
f 227 291 228
f 228 291 229
f 229 291 292
f 229 292 230
f 230 292 293
f 230 293 246
f 230 246 231
f 231 246 245
f 231 245 232
f 232 245 234
f 232 234 233
f 236 294 295
f 236 295 296
f 236 296 237
f 236 242 294
f 237 296 297
f 237 297 298
f 237 298 299
f 237 299 238
f 238 299 300
f 238 300 301
f 239 283 240
f 240 283 241
f 241 302 242
f 241 283 302
f 242 303 304
f 242 304 294
f 242 302 305
f 242 305 306
f 242 306 307
f 242 307 308
f 242 308 309
f 242 309 310
f 242 310 311
f 242 311 303
f 243 246 293
f 243 293 292
f 243 292 312
f 243 312 244
f 244 312 313
f 244 313 247
f 247 313 314
f 247 314 315
f 247 315 248
f 248 315 316
f 248 316 317
f 248 317 318
f 248 318 319
f 248 319 320
f 248 320 249
f 249 320 250
f 250 321 322
f 250 322 251
f 250 320 321
f 251 322 323
f 251 323 252
f 252 323 324
f 252 324 325
f 252 325 326
f 252 326 253
f 253 326 327
f 253 327 255
f 253 255 254
f 255 328 271
f 255 271 256
f 255 327 329
f 255 329 330
f 255 330 328
f 256 271 257
f 258 279 278
f 258 278 331
f 258 331 332
f 258 332 259
f 259 332 333
f 259 333 334
f 259 334 260
f 260 335 261
f 260 334 335
f 261 335 334
f 261 334 336
f 261 336 262
f 262 337 338
f 262 338 264
f 262 264 263
f 262 336 334
f 262 334 339
f 262 339 340
f 262 340 337
f 264 338 265
f 265 338 341
f 265 341 342
f 265 342 343
f 265 343 344
f 265 344 266
f 266 344 267
f 267 344 280
f 267 280 268
f 268 280 269
f 270 272 345
f 270 345 273
f 271 328 346
f 271 346 272
f 272 346 345
f 273 345 274
f 274 345 347
f 274 347 348
f 274 348 275
f 275 348 349
f 275 349 350
f 275 350 298
f 275 298 276
f 276 278 277
f 276 298 278
f 278 298 297
f 278 297 351
f 278 351 352
f 278 352 353
f 278 353 354
f 278 354 355
f 278 355 331
f 280 344 281
f 281 344 356
f 283 284 357
f 283 357 302
f 284 356 358
f 284 358 359
f 284 359 357
f 285 360 361
f 285 361 286
f 286 361 362
f 286 362 363
f 286 363 287
f 287 363 364
f 287 364 365
f 287 365 288
f 288 365 366
f 288 366 289
f 289 366 367
f 289 367 314
f 289 314 313
f 289 313 290
f 290 313 291
f 291 313 292
f 292 313 312
f 294 304 295
f 295 304 303
f 295 303 352
f 295 352 351
f 295 351 297
f 295 297 296
f 298 350 299
f 299 350 349
f 299 349 300
f 300 368 369
f 300 369 301
f 300 349 370
f 300 370 371
f 300 371 368
f 301 369 372
f 302 357 373
f 302 373 374
f 302 374 305
f 303 311 375
f 303 375 352
f 305 374 376
f 305 376 377
f 305 377 306
f 306 377 378
f 306 378 307
f 307 378 379
f 307 379 308
f 308 379 309
f 309 379 380
f 309 380 310
f 310 380 381
f 310 381 311
f 311 381 375
f 314 367 315
f 315 367 382
f 315 382 383
f 315 383 316
f 316 383 384
f 316 384 385
f 316 385 386
f 316 386 387
f 316 387 388
f 316 388 317
f 317 388 389
f 317 389 318
f 318 389 321
f 318 321 320
f 318 320 319
f 321 389 322
f 322 389 390
f 322 390 324
f 322 324 323
f 324 390 325
f 325 390 391
f 325 391 392
f 325 392 326
f 326 392 391
f 326 391 327
f 327 391 329
f 328 330 393
f 328 393 345
f 328 345 346
f 329 391 394
f 329 394 387
f 329 387 395
f 329 395 396
f 329 396 397
f 329 397 398
f 329 398 399
f 329 399 330
f 330 399 400
f 330 400 393
f 331 355 401
f 331 401 332
f 332 401 402
f 332 402 333
f 333 402 334
f 334 402 403
f 334 403 339
f 337 340 404
f 337 404 338
f 338 404 341
f 339 405 340
f 339 403 405
f 340 405 404
f 341 404 342
f 342 404 343
f 343 404 344
f 344 358 356
f 344 404 358
f 345 393 406
f 345 406 407
f 345 407 347
f 347 407 408
f 347 408 371
f 347 371 348
f 348 371 349
f 349 371 370
f 352 375 381
f 352 381 353
f 353 381 380
f 353 380 409
f 353 409 410
f 353 410 403
f 353 403 402
f 353 402 354
f 354 402 355
f 355 402 401
f 357 359 411
f 357 411 412
f 357 412 373
f 358 404 359
f 359 404 413
f 359 413 414
f 359 414 411
f 360 415 361
f 361 415 416
f 361 416 362
f 362 416 417
f 362 417 418
f 362 418 419
f 362 419 363
f 363 419 364
f 364 419 420
f 364 420 421
f 364 421 422
f 364 422 397
f 364 397 365
f 365 423 366
f 365 397 423
f 366 423 367
f 367 423 382
f 368 371 424
f 368 424 425
f 368 425 369
f 369 425 426
f 369 426 427
f 369 427 428
f 369 428 429
f 369 429 372
f 371 408 424
f 373 412 430
f 373 430 431
f 373 431 374
f 374 431 376
f 376 432 433
f 376 433 377
f 376 431 432
f 377 433 378
f 378 433 409
f 378 409 379
f 379 409 380
f 382 423 434
f 382 434 385
f 382 385 384
f 382 384 383
f 385 434 386
f 386 435 436
f 386 436 387
f 386 434 435
f 387 437 388
f 387 436 395
f 387 394 391
f 387 391 437
f 388 437 438
f 388 438 389
f 389 438 439
f 389 439 390
f 390 439 391
f 391 439 438
f 391 438 437
f 393 400 406
f 395 436 435
f 395 435 396
f 396 435 440
f 396 440 397
f 397 422 441
f 397 441 442
f 397 442 398
f 397 440 423
f 398 400 399
f 398 442 400
f 400 442 443
f 400 443 444
f 400 444 445
f 400 445 407
f 400 407 406
f 403 410 405
f 404 405 446
f 404 446 413
f 405 410 447
f 405 447 446
f 407 445 408
f 408 445 426
f 408 426 424
f 409 433 448
f 409 448 410
f 410 448 447
f 411 414 449
f 411 449 450
f 411 450 412
f 412 450 451
f 412 451 452
f 412 452 430
f 413 453 414
f 413 446 453
f 414 453 449
f 415 454 416
f 416 454 455
f 416 455 456
f 416 456 417
f 417 456 418
f 418 456 457
f 418 457 458
f 418 458 420
f 418 420 419
f 420 458 459
f 420 459 460
f 420 460 421
f 421 460 461
f 421 461 422
f 422 461 441
f 423 440 435
f 423 435 434
f 424 426 425
f 426 445 441
f 426 441 427
f 427 441 462
f 427 462 428
f 428 463 464
f 428 464 429
f 428 462 463
f 430 452 431
f 431 452 432
f 432 452 465
f 432 465 433
f 433 465 448
f 441 461 462
f 441 445 442
f 442 445 444
f 442 444 443
f 446 449 453
f 446 447 449
f 447 448 466
f 447 466 467
f 447 467 449
f 448 465 468
f 448 468 466
f 449 467 450
f 450 467 466
f 450 466 469
f 450 469 451
f 451 469 468
f 451 468 452
f 452 468 465
f 454 470 455
f 455 470 471
f 455 471 456
f 456 471 472
f 456 472 473
f 456 473 474
f 456 474 457
f 457 474 458
f 458 474 475
f 458 475 459
f 459 475 464
f 459 464 460
f 460 464 461
f 461 464 463
f 461 463 462
f 464 475 476
f 466 468 469
f 470 477 471
f 471 477 472
f 472 477 478
f 472 478 479
f 472 479 480
f 472 480 473
f 473 480 481
f 473 481 482
f 473 482 475
f 473 475 474
f 475 482 476

