# https://github.com/mikedh/trimesh
v -0.22527436 -0.11998971 0.11097195
v -0.22596913 -0.11998971 0.11058740
v -0.23399983 -0.15752499 0.09834394
v -0.23250812 -0.15463051 0.09975744
v -0.23204836 -0.15552010 0.09975744
v -0.22038033 -0.17489187 0.09976784
v -0.21192048 -0.17956552 0.09976784
v -0.20136613 -0.17956552 0.09976784
v -0.20136613 -0.17309941 0.09976784
v -0.22527436 -0.09913087 0.11071211
v -0.22575456 -0.09913087 0.11049386
v -0.22596913 -0.11928601 0.11059779
v -0.23875082 -0.13325386 0.09975744
v -0.23855671 -0.13424967 0.09975744
v -0.23837280 -0.13524547 0.09973666
v -0.23821953 -0.13636078 0.09965351
v -0.23694239 -0.14027761 0.09975744
v -0.23582872 -0.10533143 0.10472550
v -0.23660523 -0.10533143 0.10422662
v -0.23655413 -0.10688489 0.10419544
v -0.27004610 -0.07896247 0.08309679
v -0.27081238 -0.07896247 0.08256672
v -0.27073064 -0.08051593 0.08249396
v -0.23207900 -0.15554666 0.09973666
v -0.23579806 -0.15805610 0.09707594
v -0.23559372 -0.15914483 0.09692004
v -0.22159616 -0.17627272 0.09840630
v -0.22062554 -0.17653827 0.09864535
v -0.22062554 -0.17730834 0.09815686
v -0.22176987 -0.17778634 0.09712791
v -0.23154770 -0.19166125 0.06712209
v -0.21491413 -0.19166125 0.06712209
v -0.20136613 -0.17956552 0.09428011
v -0.22527436 -0.08696876 0.10136842
v -0.22527436 -0.08696876 0.10836321
v -0.22528457 -0.08696876 0.10969356
v -0.22527436 -0.08826994 0.10981828
v -0.22527436 -0.09137686 0.11010929
v -0.22527436 -0.09602396 0.11052504
v -0.22527436 -0.09757742 0.11066015
v -0.22569325 -0.09757742 0.11048347
v -0.22683758 -0.09913087 0.10991182
v -0.23373419 -0.10377797 0.10594153
v -0.25713157 -0.07027904 0.09200395
v -0.23937408 -0.13325386 0.09930013
v -0.23909821 -0.13475421 0.09927934
v -0.24018123 -0.13480732 0.09841670
v -0.24007906 -0.13576329 0.09830237
v -0.25713157 -0.07081013 0.09200395
v -0.25713157 -0.07188560 0.09197277
v -0.26892220 -0.07740901 0.08389708
v -0.27006653 -0.07740901 0.08311757
v -0.27084304 -0.07740901 0.08258751
v -0.27257996 -0.07820566 0.08117400
v -0.26841134 -0.11308545 0.08018662
v -0.26746115 -0.11308545 0.08096613
v -0.26690942 -0.11153199 0.08160013
v -0.26821723 -0.11437336 0.07997876
v -0.25518007 -0.16302184 0.06681029
v -0.25555812 -0.16359277 0.06578134
v -0.23697305 -0.18989535 0.06569819
v -0.25406641 -0.14659767 0.08280577
v -0.23559372 -0.19154175 0.06430547
v -0.23460266 -0.19166125 0.06492908
v -0.23310072 -0.19166125 0.06600999
v -0.24964237 -0.19168781 0.03770870
v -0.24898846 -0.19168781 0.03785420
v -0.23270226 -0.19168781 0.03785420
v -0.23949669 -0.19168781 0.00479272
v -0.29338216 -0.05605891 0.00480311
v -0.25713157 -0.05605891 0.07926161
v -0.25713157 -0.05605891 0.09047612
v -0.22635738 -0.08696876 0.10923625
v -0.22528457 -0.08826994 0.10981828
v -0.22554001 -0.09602396 0.11042110
v -0.22528457 -0.09293032 0.11024441
v -0.22683758 -0.09757742 0.10985986
v -0.22646976 -0.08826994 0.10929860
v -0.22724627 -0.08826994 0.10891405
v -0.22683758 -0.09447050 0.10964159
v -0.25713157 -0.06936289 0.09193119
v -0.27016870 -0.05605891 0.08313836
v -0.27095542 -0.05605891 0.08267065
v -0.25899110 -0.07122173 0.09073595
v -0.27094521 -0.05879406 0.08266026
v -0.27262083 -0.06811481 0.08120518
v -0.27765791 -0.07122173 0.07688151
v -0.27764768 -0.07277519 0.07687112
v -0.27842419 -0.07277519 0.07617477
v -0.27921092 -0.07277519 0.07540565
v -0.28351235 -0.09704632 0.06575016
v -0.27997720 -0.07277519 0.07453260
v -0.28355322 -0.09786953 0.06531364
v -0.26944327 -0.14169830 0.06404563
v -0.25552746 -0.16198620 0.06723642
v -0.26821723 -0.14375630 0.06441980
v -0.26870763 -0.14410151 0.06331810
v -0.26795158 -0.15886600 0.05021199
v -0.25395401 -0.18054804 0.05018081
v -0.23725913 -0.19014763 0.06486671
v -0.23663587 -0.19123636 0.06365069
v -0.26929002 -0.14257461 0.06374423
v -0.25437292 -0.14714205 0.08188076
v -0.23599220 -0.19166125 0.06349478
v -0.23499091 -0.19166125 0.06460688
v -0.23617611 -0.19166125 0.06323495
v -0.25041887 -0.19168781 0.03659660
v -0.25327969 -0.19168781 0.00479272
v -0.27821984 -0.11998971 0.00479272
v -0.30531585 -0.05605891 0.00480311
v -0.25780590 -0.05605891 0.09017470
v -0.22713389 -0.08696876 0.10885169
v -0.25824523 -0.05879406 0.09029943
v -0.25713157 -0.06811481 0.09181686
v -0.25841894 -0.06034752 0.09036179
v -0.25950196 -0.05605891 0.08931205
v -0.27236539 -0.05605891 0.08140266
v -0.27261061 -0.05624480 0.08119479
v -0.27264127 -0.05725388 0.08122597
v -0.27265147 -0.05879406 0.08123636
v -0.27842419 -0.07122173 0.07619555
v -0.27431689 -0.06190098 0.07978128
v -0.27922113 -0.07122173 0.07541604
v -0.28000786 -0.07122173 0.07454299
v -0.28371670 -0.09733843 0.06531364
v -0.28059023 -0.07277519 0.07375309
v -0.28189804 -0.07366478 0.07189267
v -0.28832465 -0.07588211 0.06288157
v -0.28964268 -0.07519168 0.06102115
v -0.28419692 -0.09601068 0.06487711
v -0.28485082 -0.09601068 0.06376501
v -0.28388017 -0.09755086 0.06494986
v -0.28637317 -0.11616581 0.05137605
v -0.26951480 -0.14341109 0.06264252
v -0.26820700 -0.15919795 0.04939091
v -0.25380076 -0.18960324 0.03388391
v -0.25274840 -0.19021401 0.03514152
v -0.25090930 -0.19144881 0.03626401
v -0.23766782 -0.19058577 0.06318298
v -0.23697305 -0.19143553 0.06262174
v -0.23710586 -0.19166125 0.06175908
v -0.25108298 -0.19168781 0.03543254
v -0.25399488 -0.19168781 0.00906442
v -0.25898087 -0.18508892 0.00479272
v -0.28603600 -0.11998971 0.00479272
v -0.30556107 -0.05694850 0.00480311
v -0.30525453 -0.05605891 0.00595678
v -0.27260040 -0.05605891 0.08118440
v -0.28359409 -0.05605891 0.06894094
v -0.27913939 -0.06966827 0.07537447
v -0.27590055 -0.06345444 0.07830542
v -0.27842419 -0.06966827 0.07614358
v -0.27759660 -0.06811481 0.07688151
v -0.27597208 -0.06500790 0.07832620
v -0.28059023 -0.07122173 0.07376349
v -0.28377800 -0.05605891 0.06873307
v -0.28506537 -0.05725388 0.06729878
v -0.28326714 -0.07277519 0.07008422
v -0.28839618 -0.07432865 0.06296472
v -0.28513688 -0.07431537 0.06741311
v -0.28916246 -0.07432865 0.06181105
v -0.28965289 -0.07432865 0.06103154
v -0.29273848 -0.07513857 0.05481628
v -0.29465932 -0.07588211 0.05090835
v -0.29419953 -0.07742229 0.05152156
v -0.29369890 -0.07747540 0.05248814
v -0.29457758 -0.07742229 0.05075244
v -0.29748947 -0.07851104 0.04418380
v -0.30206678 -0.08135240 0.03319795
v -0.28649578 -0.11502395 0.05165667
v -0.28672056 -0.11616581 0.05059654
v -0.28657752 -0.11700229 0.05028474
v -0.26879960 -0.15804282 0.04939091
v -0.26931046 -0.15810921 0.04798779
v -0.26842155 -0.15970248 0.04782150
v -0.25391314 -0.18980240 0.03233529
v -0.25303448 -0.19050611 0.03388391
v -0.26935133 -0.15862702 0.04628327
v -0.27099629 -0.16190653 0.02827147
v -0.25437292 -0.18903231 0.03233529
v -0.25227840 -0.19127620 0.03388391
v -0.23735108 -0.19166125 0.06130177
v -0.25175732 -0.19168781 0.03388391
v -0.25413792 -0.19168781 0.01008297
v -0.25995152 -0.18393379 0.00479272
v -0.25420945 -0.19168781 0.01061303
v -0.28586231 -0.12045442 0.00479272
v -0.28604622 -0.11997643 0.00480311
v -0.28630164 -0.11928601 0.00480311
v -0.30294546 -0.06811481 0.00480311
v -0.30537714 -0.06046702 0.00480311
v -0.30573475 -0.05880734 0.00480311
v -0.30562235 -0.05725388 0.00480311
v -0.30549974 -0.05725388 0.00595678
v -0.30511151 -0.05605891 0.00722478
v -0.28501427 -0.05605891 0.06723642
v -0.28502450 -0.05624480 0.06725720
v -0.28563753 -0.05725388 0.06643612
v -0.28642425 -0.06190098 0.06547993
v -0.28838595 -0.07277519 0.06295433
v -0.28382910 -0.07277519 0.06930471
v -0.28915225 -0.07277519 0.06181105
v -0.28965289 -0.07277519 0.06103154
v -0.29006157 -0.07432865 0.06021046
v -0.30205655 -0.05818330 0.03623283
v -0.30211786 -0.08052921 0.03329149
v -0.30513192 -0.07164661 0.02524698
v -0.30364023 -0.07678497 0.02867681
v -0.29060310 -0.11927273 0.02923805
v -0.28973462 -0.12187510 0.03030858
v -0.28694534 -0.12860676 0.03388391
v -0.28653665 -0.12942996 0.03468421
v -0.28609730 -0.13002744 0.03529742
v -0.26947393 -0.15727271 0.04861140
v -0.26979066 -0.15785693 0.04628327
v -0.28631187 -0.13035938 0.03388391
v -0.25240101 -0.19140897 0.03301087
v -0.27065913 -0.16261025 0.02772061
v -0.26058498 -0.18276539 0.00751579
v -0.26017629 -0.18368151 0.00547869
v -0.25426052 -0.19168781 0.01233835
v -0.27262083 -0.15429858 0.04108656
v -0.27104738 -0.16199947 0.02724252
v -0.25210470 -0.19168781 0.03271985
v -0.26017629 -0.18368151 0.00505255
v -0.26027847 -0.18337612 0.00479272
v -0.25427075 -0.19168781 0.01217205
v -0.28505514 -0.12799600 0.01272290
v -0.26062585 -0.18256622 0.00479272
v -0.28802836 -0.11987021 0.01324257
v -0.28970398 -0.11559489 0.01417798
v -0.30158656 -0.08052921 0.01526929
v -0.30121874 -0.08052921 0.01371028
v -0.28645491 -0.12450403 0.01335690
v -0.30202591 -0.07966617 0.01650611
v -0.30519325 -0.07212460 0.02355285
v -0.30526474 -0.07118190 0.02302279
v -0.30533627 -0.06966827 0.02302279
v -0.30569388 -0.05880734 0.00595678
v -0.30557127 -0.05880734 0.00751579
v -0.30205655 -0.05643068 0.03471539
v -0.30254698 -0.05882062 0.03388391
v -0.30208722 -0.05605891 0.03371762
v -0.28516754 -0.05605891 0.06700776
v -0.28830421 -0.05605891 0.06220600
v -0.29060310 -0.05605891 0.05867224
v -0.28637317 -0.05725388 0.06530324
v -0.28924420 -0.07108896 0.06163436
v -0.28836552 -0.07122173 0.06293354
v -0.28964268 -0.07151383 0.06101075
v -0.29117524 -0.05848868 0.05789273
v -0.29118547 -0.05952432 0.05789273
v -0.30205655 -0.05798414 0.03623283
v -0.30515238 -0.07061097 0.02536131
v -0.30525453 -0.07116862 0.02466495
v -0.30519325 -0.07212460 0.02421803
v -0.29125698 -0.11717489 0.02877035
v -0.29011267 -0.12085275 0.02922766
v -0.28972442 -0.12183527 0.02922766
v -0.28664903 -0.12958929 0.03278221
v -0.28662859 -0.12958929 0.03388391
v -0.27068977 -0.16280940 0.02612003
v -0.25217623 -0.19168781 0.03217939
v -0.26053389 -0.18301764 0.00597757
v -0.26141257 -0.18118537 0.00608150
v -0.28561710 -0.12705330 0.01371028
v -0.28813053 -0.12021543 0.01427152
v -0.28980615 -0.11587371 0.01526929
v -0.29032722 -0.11928601 0.02612003
v -0.29056223 -0.11927273 0.02767904
v -0.28654686 -0.12476959 0.01439624
v -0.29125698 -0.11717489 0.02794927
v -0.30523411 -0.06978777 0.02455062
v -0.30522391 -0.06819448 0.02289806
v -0.30516259 -0.06259141 0.01618391
v -0.30212808 -0.05738666 0.03530781
v -0.30190331 -0.05694850 0.03574434
v -0.30172960 -0.05605891 0.03540135
v -0.30182157 -0.05605891 0.03507916
v -0.30199525 -0.05605891 0.03440359
v -0.30517279 -0.06875213 0.02403095
v -0.30512172 -0.06933634 0.02505990
v -0.30368110 -0.06377310 0.03026700
v -0.29113437 -0.05605891 0.05784076
v -0.29116503 -0.05725388 0.05787194
v -0.28963245 -0.07047820 0.06098997
v -0.29156351 -0.05725388 0.05711322
v -0.29154306 -0.05605891 0.05706125
v -0.30083049 -0.05605891 0.03775027
v -0.30117788 -0.05605891 0.03694998
v -0.30131071 -0.05605891 0.03662778
v -0.30515238 -0.07037197 0.02536131
v -0.29029658 -0.11998971 0.02761668
v -0.28963245 -0.12162284 0.02693071
v -0.28645491 -0.12605749 0.01681791
v -0.28634251 -0.12575211 0.01527969
v -0.28821227 -0.12044114 0.01527969
v -0.28984702 -0.12068013 0.02612003
v -0.29123656 -0.05605891 0.05766407
v -0.28957115 -0.12145023 0.02612003
v -0.28808966 -0.12320285 0.02063230
f 1 2 3
f 1 3 4
f 1 4 5
f 1 5 6
f 1 6 7
f 1 7 8
f 1 8 9
f 1 9 10
f 1 10 11
f 1 11 12
f 1 12 2
f 2 13 14
f 2 14 15
f 2 15 16
f 2 16 17
f 2 17 3
f 2 12 18
f 2 18 19
f 2 19 20
f 2 20 21
f 2 21 22
f 2 22 23
f 2 23 13
f 3 24 4
f 3 17 25
f 3 25 26
f 3 26 6
f 3 6 24
f 4 24 5
f 5 24 6
f 6 26 27
f 6 27 28
f 6 28 7
f 7 28 29
f 7 29 30
f 7 30 31
f 7 31 32
f 7 32 8
f 8 32 33
f 8 33 9
f 9 33 34
f 9 34 35
f 9 35 36
f 9 36 37
f 9 37 38
f 9 38 39
f 9 39 40
f 9 40 10
f 10 40 41
f 10 41 11
f 11 41 42
f 11 42 12
f 12 42 43
f 12 43 44
f 12 44 18
f 13 45 14
f 13 23 45
f 14 45 46
f 14 46 15
f 15 46 16
f 16 46 47
f 16 47 48
f 16 48 25
f 16 25 17
f 18 44 49
f 18 49 19
f 19 49 50
f 19 50 21
f 19 21 20
f 21 51 52
f 21 52 53
f 21 53 22
f 21 50 51
f 22 53 54
f 22 54 23
f 23 54 55
f 23 55 56
f 23 56 57
f 23 57 45
f 25 48 56
f 25 56 55
f 25 55 58
f 25 58 26
f 26 59 60
f 26 60 61
f 26 61 30
f 26 30 27
f 26 58 62
f 26 62 59
f 27 30 29
f 27 29 28
f 30 61 63
f 30 63 64
f 30 64 65
f 30 65 31
f 31 65 66
f 31 66 67
f 31 67 68
f 31 68 32
f 32 68 69
f 32 69 33
f 33 69 34
f 34 70 71
f 34 71 72
f 34 72 35
f 34 69 70
f 35 72 36
f 36 73 74
f 36 74 37
f 36 72 73
f 37 74 38
f 38 74 73
f 38 73 75
f 38 75 76
f 38 76 39
f 39 75 40
f 39 76 75
f 40 75 41
f 41 77 42
f 41 75 78
f 41 78 79
f 41 79 80
f 41 80 81
f 41 81 44
f 41 44 77
f 42 77 44
f 42 44 43
f 44 81 82
f 44 82 83
f 44 83 49
f 45 57 56
f 45 56 46
f 46 56 47
f 47 56 48
f 49 84 51
f 49 51 50
f 49 83 84
f 51 84 52
f 52 84 53
f 53 84 85
f 53 85 54
f 54 85 83
f 54 83 86
f 54 86 87
f 54 87 88
f 54 88 89
f 54 89 90
f 54 90 55
f 55 91 58
f 55 90 92
f 55 92 91
f 58 91 93
f 58 93 94
f 58 94 62
f 59 62 60
f 60 62 95
f 60 95 96
f 60 96 97
f 60 97 98
f 60 98 99
f 60 99 61
f 61 99 100
f 61 100 101
f 61 101 63
f 62 94 102
f 62 102 96
f 62 96 103
f 62 103 95
f 63 104 105
f 63 105 64
f 63 101 104
f 64 105 66
f 64 66 65
f 66 105 104
f 66 104 106
f 66 106 107
f 66 107 142
f 66 142 183
f 66 183 224
f 66 224 263
f 66 263 221
f 66 221 227
f 66 227 186
f 66 186 184
f 66 184 143
f 66 143 108
f 66 108 69
f 66 69 68
f 66 68 67
f 69 108 144
f 69 144 185
f 69 185 226
f 69 226 229
f 69 229 187
f 69 187 145
f 69 145 109
f 69 109 70
f 70 110 147
f 70 147 195
f 70 195 243
f 70 243 280
f 70 280 279
f 70 279 278
f 70 278 291
f 70 291 290
f 70 290 289
f 70 289 288
f 70 288 299
f 70 299 284
f 70 284 246
f 70 246 245
f 70 245 244
f 70 244 196
f 70 196 156
f 70 156 149
f 70 149 148
f 70 148 117
f 70 117 83
f 70 83 82
f 70 82 116
f 70 116 111
f 70 111 72
f 70 72 71
f 70 109 145
f 70 145 110
f 72 111 73
f 73 112 79
f 73 79 78
f 73 78 75
f 73 111 113
f 73 113 112
f 79 112 114
f 79 114 81
f 79 81 80
f 81 114 115
f 81 115 82
f 82 115 116
f 83 117 118
f 83 118 119
f 83 119 120
f 83 120 86
f 83 85 84
f 86 120 87
f 87 121 88
f 87 120 122
f 87 122 121
f 88 121 89
f 89 121 90
f 90 121 123
f 90 123 124
f 90 124 92
f 91 125 93
f 91 92 126
f 91 126 127
f 91 127 128
f 91 128 129
f 91 129 130
f 91 130 131
f 91 131 125
f 92 124 126
f 93 125 132
f 93 132 133
f 93 133 94
f 94 133 102
f 95 103 96
f 96 102 134
f 96 134 97
f 97 134 98
f 98 135 99
f 98 134 135
f 99 136 137
f 99 137 100
f 99 135 136
f 100 137 138
f 100 138 139
f 100 139 140
f 100 140 101
f 101 140 106
f 101 106 104
f 102 133 134
f 106 141 107
f 106 140 141
f 107 141 142
f 108 143 144
f 110 145 146
f 110 146 147
f 111 116 113
f 112 113 114
f 113 116 115
f 113 115 114
f 117 148 118
f 118 148 149
f 118 149 150
f 118 150 151
f 118 151 152
f 118 152 119
f 119 152 153
f 119 153 154
f 119 154 122
f 119 122 120
f 121 122 154
f 121 154 153
f 121 153 152
f 121 152 123
f 123 152 150
f 123 150 124
f 124 155 126
f 124 150 156
f 124 156 157
f 124 157 155
f 125 131 132
f 126 155 158
f 126 158 159
f 126 159 127
f 127 159 160
f 127 160 128
f 128 160 159
f 128 159 129
f 129 159 161
f 129 161 162
f 129 162 163
f 129 163 164
f 129 164 165
f 129 165 166
f 129 166 131
f 129 131 130
f 131 166 165
f 131 165 167
f 131 167 168
f 131 168 169
f 131 169 170
f 131 170 133
f 131 133 132
f 133 170 169
f 133 169 171
f 133 171 172
f 133 172 134
f 134 173 135
f 134 172 173
f 135 173 174
f 135 174 175
f 135 175 136
f 136 176 177
f 136 177 137
f 136 175 178
f 136 178 179
f 136 179 180
f 136 180 176
f 137 177 181
f 137 181 142
f 137 142 138
f 138 142 139
f 139 142 140
f 140 142 182
f 140 182 141
f 141 182 142
f 142 181 183
f 143 184 144
f 144 184 186
f 144 186 185
f 145 187 188
f 145 188 189
f 145 189 190
f 145 190 191
f 145 191 192
f 145 192 193
f 145 193 146
f 146 193 194
f 146 194 147
f 147 194 195
f 149 156 150
f 150 152 151
f 155 157 158
f 156 196 197
f 156 197 157
f 157 197 198
f 157 198 199
f 157 199 200
f 157 200 201
f 157 201 158
f 158 201 159
f 159 201 200
f 159 200 202
f 159 202 161
f 161 202 203
f 161 203 162
f 162 204 163
f 162 203 253
f 162 253 205
f 162 205 204
f 163 204 205
f 163 205 164
f 164 168 167
f 164 167 165
f 164 205 168
f 168 206 169
f 168 205 206
f 169 172 171
f 169 206 207
f 169 207 208
f 169 208 209
f 169 209 210
f 169 210 211
f 169 211 212
f 169 212 172
f 172 212 213
f 172 213 214
f 172 214 173
f 173 214 174
f 174 215 178
f 174 178 175
f 174 214 213
f 174 213 216
f 174 216 215
f 176 217 177
f 176 180 218
f 176 218 219
f 176 219 220
f 176 220 221
f 176 221 217
f 177 217 181
f 178 215 179
f 179 215 222
f 179 222 216
f 179 216 223
f 179 223 218
f 179 218 180
f 181 217 183
f 183 217 224
f 185 186 225
f 185 225 226
f 186 227 225
f 187 228 188
f 187 229 228
f 188 228 189
f 189 230 231
f 189 231 232
f 189 232 233
f 189 233 190
f 189 228 234
f 189 234 230
f 190 233 191
f 191 233 232
f 191 232 235
f 191 235 236
f 191 236 192
f 192 236 237
f 192 237 238
f 192 238 239
f 192 239 193
f 193 239 240
f 193 240 194
f 194 241 195
f 194 240 242
f 194 242 241
f 195 241 243
f 196 244 197
f 197 244 245
f 197 245 198
f 198 245 246
f 198 246 247
f 198 247 199
f 199 248 249
f 199 249 200
f 199 247 248
f 200 249 248
f 200 248 202
f 202 248 203
f 203 248 250
f 203 250 251
f 203 251 252
f 203 252 253
f 205 253 292
f 205 292 254
f 205 254 206
f 206 254 207
f 207 254 255
f 207 255 256
f 207 256 208
f 208 256 209
f 209 256 257
f 209 257 258
f 209 258 210
f 210 258 259
f 210 259 260
f 210 260 261
f 210 261 211
f 211 261 212
f 212 261 216
f 212 216 213
f 215 216 222
f 216 261 260
f 216 260 262
f 216 262 223
f 217 221 263
f 217 263 224
f 218 223 262
f 218 262 219
f 219 264 220
f 219 262 264
f 220 264 225
f 220 225 227
f 220 227 221
f 225 264 265
f 225 265 226
f 226 265 229
f 228 266 234
f 228 229 266
f 229 265 266
f 230 234 231
f 231 234 267
f 231 267 268
f 231 268 232
f 232 268 269
f 232 269 270
f 232 270 235
f 234 266 271
f 234 271 267
f 235 270 236
f 236 256 237
f 236 270 272
f 236 272 257
f 236 257 256
f 237 256 255
f 237 255 238
f 238 255 273
f 238 273 239
f 239 273 274
f 239 274 240
f 240 274 275
f 240 275 242
f 241 242 276
f 241 276 253
f 241 253 277
f 241 277 278
f 241 278 279
f 241 279 280
f 241 280 243
f 242 275 274
f 242 274 281
f 242 281 282
f 242 282 283
f 242 283 253
f 242 253 276
f 246 284 285
f 246 285 247
f 247 285 248
f 248 286 250
f 248 285 286
f 250 286 285
f 250 285 251
f 251 285 287
f 251 287 252
f 252 287 253
f 253 287 288
f 253 288 289
f 253 289 290
f 253 290 291
f 253 291 277
f 253 283 292
f 254 292 255
f 255 292 273
f 257 272 258
f 258 293 294
f 258 294 259
f 258 272 270
f 258 270 293
f 259 294 260
f 260 294 265
f 260 265 262
f 262 265 264
f 265 294 295
f 265 295 266
f 266 295 296
f 266 296 271
f 267 271 296
f 267 296 297
f 267 297 268
f 268 297 298
f 268 298 269
f 269 298 270
f 270 298 294
f 270 294 293
f 273 292 282
f 273 282 281
f 273 281 274
f 277 291 278
f 282 292 283
f 284 299 285
f 285 299 287
f 287 299 288
f 294 298 300
f 294 300 296
f 294 296 295
f 296 300 301
f 296 301 297
f 297 301 298
f 298 301 300

