# https://github.com/mikedh/trimesh
v -0.09824993 -0.05314416 0.13022208
v -0.03980954 -0.05314416 0.14029272
v -0.09824993 -0.05314416 0.14156146
v -0.12713670 -0.03750327 0.10376882
v -0.12594841 0.02920731 -0.01425585
v -0.03980954 -0.05314416 0.14776243
v -0.05144461 0.04573234 -0.01425585
v -0.03981809 0.04832161 -0.01425585
v -0.03980954 0.04161687 0.02459936
v -0.09747197 -0.05314416 0.14170419
v -0.09824993 -0.05293365 0.14149802
v -0.12713670 -0.02653571 0.10373711
v -0.12713670 -0.02698830 0.10376882
v -0.12713670 -0.03733487 0.10356265
v -0.12712816 0.01233494 0.03303649
v -0.12712816 0.00860892 0.03768325
v -0.12594841 0.04080641 -0.01425585
v -0.03980954 -0.05101801 0.14706462
v -0.08099821 -0.04449220 0.14154560
v -0.08208392 -0.04545002 0.14172005
v -0.08409292 -0.04947076 0.14257646
v -0.08564882 -0.05101801 0.14283020
v -0.08943599 -0.05314416 0.14300466
v -0.03981809 0.05438430 -0.01425585
v -0.03980954 0.04964783 0.02459936
v -0.09395837 -0.05314416 0.14233857
v -0.09651449 -0.05294418 0.14181521
v -0.09824993 -0.04956549 0.14029272
v -0.09824993 -0.04655520 0.13921428
v -0.09824993 -0.04327125 0.13802484
v -0.09824993 -0.04162927 0.13734290
v -0.09824993 -0.04094511 0.13700985
v -0.09824993 -0.04026096 0.13662923
v -0.09824993 -0.03885053 0.13578868
v -0.09824993 -0.03816638 0.13537635
v -0.09824993 -0.02866186 0.12915951
v -0.12470028 -0.02444113 0.10376882
v -0.12713670 -0.02245182 0.09805949
v -0.12713670 -0.02998807 0.09482420
v -0.12713670 -0.02027304 0.09482420
v -0.12712816 0.01233494 0.04938739
v -0.12594841 0.04089061 -0.01268579
v -0.09451405 0.05067932 -0.01425585
v -0.03980954 -0.04636574 0.14552628
v -0.08257976 -0.04488165 0.14143459
v -0.07944231 -0.04431327 0.14160903
v -0.08099821 -0.04327125 0.14099053
v -0.08255412 -0.04327125 0.14073678
v -0.09299234 -0.04237657 0.13862749
v -0.09402676 -0.04256604 0.13853234
v -0.09241101 -0.05314416 0.14260817
v -0.09082946 -0.05314416 0.14284606
v -0.08720472 -0.05101801 0.14267160
v -0.08311835 -0.04570263 0.14164076
v -0.07645874 0.05361594 -0.01425585
v -0.07636470 0.05354225 -0.01265406
v -0.07480880 0.05332122 -0.00799144
v -0.07326999 0.05318439 -0.00489888
v -0.07326999 0.05305809 -0.00334468
v -0.03981809 0.05215289 0.01168991
v -0.03980954 0.04890052 0.02756504
v -0.03981809 0.05204764 0.01248288
v -0.03981809 0.05184765 0.01368818
v -0.03981809 0.05158452 0.01525825
v -0.03981809 0.05056355 0.02077727
v -0.07480880 0.05256339 -0.00179047
v -0.08409292 -0.04481849 0.14114912
v -0.09185534 -0.04220817 0.13872266
v -0.08255412 -0.03551396 0.13631204
v -0.09601866 -0.03776641 0.13551908
v -0.08352014 -0.04243974 0.14014999
v -0.09824993 -0.02795665 0.12838240
v -0.12382828 -0.02373593 0.10376882
v -0.12461478 -0.02436746 0.10376882
v -0.08490507 -0.03472454 0.13547150
v -0.08099821 -0.03345096 0.13528119
v -0.09715566 -0.02855660 0.12923881
v -0.06394313 0.00234625 0.11055659
v -0.06549903 0.00216732 0.11042972
v -0.06549903 0.00304093 0.10965261
v -0.06704638 0.00356721 0.10866933
v -0.06705493 0.00870365 0.10376882
v -0.06614874 0.01486106 0.09818636
v -0.06706348 0.01469266 0.09802777
v -0.07403085 0.01178762 0.09820222
v -0.07739912 0.01033510 0.09832910
v -0.08257121 0.00695642 0.09961369
v -0.08410147 0.00736691 0.09848769
v -0.08493927 0.00716693 0.09826566
v -0.08798267 0.00557758 0.09823393
v -0.09097480 0.00396718 0.09815464
v -0.09388143 0.00230415 0.09805949
v -0.12712816 0.00614595 0.05814171
v -0.12712816 0.00860892 0.05468439
v -0.12712816 0.01232442 0.04943497
v -0.12713670 -0.02171503 0.09698105
v -0.12594841 0.03919601 0.00442636
v -0.12594841 0.03982754 0.00131795
v -0.12594841 0.04012226 -0.00028384
v -0.12594841 0.04031171 -0.00182219
v -0.12594841 0.04083799 -0.01114744
v -0.12594841 0.04089061 -0.01265406
v -0.09649740 0.04980571 -0.01109985
v -0.09489875 0.05040566 -0.01263820
v -0.09434307 0.05059512 -0.01314570
v -0.09340269 0.05094246 -0.01425585
v -0.03980954 -0.04506058 0.14501878
v -0.07944231 -0.04327125 0.14113326
v -0.07944231 -0.04196608 0.14041959
v -0.08099821 -0.04210292 0.14034029
v -0.08454601 -0.04258708 0.14007069
v -0.07778382 0.05356331 -0.01425585
v -0.07480880 0.05318439 -0.00645309
v -0.07480880 0.05303703 -0.00489888
v -0.07480880 0.05285810 -0.00334468
v -0.07326999 0.05271074 -0.00179047
v -0.03980954 0.04732169 0.03375015
v -0.07594581 0.05218447 -0.00077547
v -0.08096402 -0.03564026 0.13662923
v -0.08099821 -0.03422985 0.13578868
v -0.09565960 0.00243045 0.09658457
v -0.07944231 -0.03332465 0.13536048
v -0.06394313 0.00157789 0.11112753
v -0.05929252 0.00078848 0.11211080
v -0.05691592 0.00091478 0.11220595
v -0.05464191 0.00103056 0.11228524
v -0.05153865 0.00115687 0.11239627
v -0.03980954 0.00069375 0.11356986
v -0.04378478 0.00144106 0.11266587
v -0.06136990 0.00245151 0.11063588
v -0.06084842 0.00411453 0.10919270
v -0.06201107 0.00407243 0.10914511
v -0.06394313 0.00318829 0.10977949
v -0.06426798 0.00552495 0.10749575
v -0.06463559 0.00866155 0.10443492
v -0.06539644 0.00956674 0.10343578
v -0.06582389 0.01014564 0.10278555
v -0.06499464 0.01339802 0.09981987
v -0.06511433 0.01496632 0.09828152
v -0.06609746 0.01640831 0.09661630
v -0.06706348 0.01546102 0.09725066
v -0.06950847 0.01493474 0.09672731
v -0.07843354 0.01012459 0.09809121
v -0.08069900 0.00886153 0.09844011
v -0.08257121 0.00770373 0.09883659
v -0.08173342 0.00865102 0.09820222
v -0.08257121 0.00847209 0.09793261
v -0.08353724 0.00877733 0.09683833
v -0.08299865 0.01039825 0.09480833
v -0.08178471 0.01487159 0.08890869
v -0.08348595 0.01189287 0.09215984
v -0.09370190 0.00377772 0.09626739
v -0.09462519 0.00273569 0.09701277
v -0.12594841 0.02470240 0.03244969
v -0.12594841 0.03253337 0.01988915
v -0.12594841 0.03325963 0.01869971
v -0.12594841 0.03365960 0.01789088
v -0.12594841 0.03796453 0.00907313
v -0.12594841 0.03849080 0.00751892
v -0.08511879 0.05062670 -0.00232968
v -0.09495005 0.04986886 -0.00956151
v -0.09495005 0.05019515 -0.01109985
v -0.09399256 0.05053197 -0.01209899
v -0.09181259 0.05122665 -0.01425585
v -0.03980954 -0.04429222 0.14465402
v -0.04067298 -0.04435537 0.14462230
v -0.07944231 -0.04118720 0.13997554
v -0.04687949 -0.04257656 0.14317911
v -0.08043399 -0.03622969 0.13704157
v -0.08256266 0.05278442 -0.01425585
v -0.07790351 0.05337385 -0.01265406
v -0.08874354 0.05175292 -0.01425585
v -0.08918807 0.05047934 -0.00607247
v -0.03980954 0.04712171 0.03447968
v -0.07945941 0.05110034 0.00131795
v -0.07790351 0.05133191 0.00131795
v -0.07944231 -0.03538765 0.13664509
v -0.07944231 -0.03410354 0.13586798
v -0.09428323 0.00409348 0.09522068
v -0.07479170 -0.03509294 0.13681954
v -0.07169699 -0.03492453 0.13689883
v -0.06755932 -0.03475612 0.13700985
v -0.03980954 -0.00150608 0.11517164
v -0.03980954 -0.00116927 0.11493375
v -0.03980954 -0.00008514 0.11415665
v -0.03980954 0.00158841 0.11279275
v -0.04843539 0.00205154 0.11182533
v -0.03980954 0.00565126 0.10917683
v -0.04994855 0.00959832 0.10500584
v -0.05044439 0.01020879 0.10441905
v -0.06239578 0.00956674 0.10381640
v -0.06405426 0.00942991 0.10376882
v -0.05147881 0.01080875 0.10376882
v -0.05083764 0.01180867 0.10288070
v -0.06396877 0.01504000 0.09836081
v -0.06506303 0.01647146 0.09671145
v -0.06396877 0.01776610 0.09466560
v -0.06499464 0.01805029 0.09369819
v -0.06706348 0.01666092 0.09558544
v -0.06805516 0.01650304 0.09525240
v -0.06706348 0.01621885 0.09634668
v -0.07095324 0.01642936 0.09357132
v -0.07785222 0.01605045 0.08971751
v -0.07482590 0.01300858 0.09618809
v -0.08257121 0.00899836 0.09715551
v -0.08037415 0.01648199 0.08743377
v -0.08140856 0.01625043 0.08706902
v -0.08206683 0.01656619 0.08605402
v -0.08257121 0.01596624 0.08657738
v -0.09392418 0.00546180 0.09334929
v -0.09414645 0.00713535 0.09043118
v -0.08029720 0.01799766 0.08430950
v -0.07627067 0.02286044 0.07571378
v -0.06309679 0.02415508 0.08109007
v -0.06206236 0.02429191 0.08142311
v -0.06249836 0.02456557 0.08050328
v -0.05073505 0.03193342 0.06871984
v -0.03980954 0.04331148 0.04535914
v -0.08043399 0.05062670 0.00225365
v -0.08093837 0.01672408 0.08657738
v -0.08201554 0.05063722 0.00074701
v -0.08357144 0.05063722 -0.00077547
v -0.03980954 -0.04327125 0.14401964
v -0.04067298 -0.04327125 0.14397206
v -0.04587072 -0.04251341 0.14321083
v -0.05412042 -0.04090301 0.14168833
v -0.03980954 0.04684804 0.03541538
v -0.07945941 0.05073195 0.00252325
v -0.03980954 -0.04149244 0.14286192
v -0.04533214 -0.03779799 0.14014999
v -0.03980954 -0.03486137 0.13848477
v -0.03980954 -0.00569523 0.11810560
v -0.03980954 0.00771425 0.10728958
v -0.04068153 0.00726166 0.10767020
v -0.04533214 0.00874575 0.10605256
v -0.04687949 0.01032458 0.10453006
v -0.04868332 0.01104031 0.10376882
v -0.04997420 0.01094558 0.10376882
v -0.05000839 0.01182972 0.10292828
v -0.06241287 0.01510315 0.09845597
v -0.03980954 0.01665040 0.09802777
v -0.03980954 0.01882917 0.09509380
v -0.03980954 0.01974489 0.09385678
v -0.03980954 0.02103953 0.09204883
v -0.03980954 0.02568127 0.08484872
v -0.06241287 0.01782925 0.09484006
v -0.03980954 0.01647146 0.09824980
v -0.05620636 0.02100795 0.09030431
v -0.06396877 0.01813449 0.09390435
v -0.06241287 0.02129214 0.08778269
v -0.06086552 0.02407087 0.08243811
v -0.06479802 0.01955543 0.09049462
v -0.06706348 0.01722930 0.09433256
v -0.07637325 0.01739771 0.08814744
v -0.07748461 0.01657672 0.08913072
v -0.07785222 0.01836605 0.08502317
v -0.07119260 0.02116584 0.08286630
v -0.07946796 0.01719772 0.08657738
v -0.06086552 0.02441821 0.08166100
v -0.06086552 0.02498659 0.08037640
v -0.04138254 0.03501739 0.06561142
v -0.04690514 0.03422797 0.06488190
v -0.03980954 0.04235366 0.04780147
v -0.03980954 0.04437456 0.04252033
v -0.03980954 0.04660596 0.03614490
v -0.03980954 0.04553235 0.03925332
v -0.03980954 0.04633229 0.03695373
v -0.03980954 -0.03562974 0.13899226
v -0.03980954 0.01049298 0.10468866
v -0.04222888 0.01044036 0.10464108
v -0.04533214 0.01036668 0.10457764
v -0.04787972 0.01109294 0.10376882
v -0.04845249 0.01189287 0.10296000
v -0.04224598 0.01495579 0.09983572
v -0.03980954 0.02588126 0.08451568
v -0.04069862 0.02584968 0.08445224
v -0.04191257 0.02578653 0.08435708
v -0.04690514 0.02433401 0.08605402
v -0.04381043 0.01274544 0.10223048
v -0.03980954 0.01498737 0.09989916
v -0.04921334 0.02417613 0.08581614
v -0.03980954 0.03514369 0.06588103
v -0.03980954 0.03557524 0.06492947
v -0.03981809 0.01142975 0.10376882
v -0.04069862 0.01139818 0.10376882
v -0.04533214 0.01114556 0.10383226
v -0.04690514 0.01114556 0.10376882
v -0.03980954 0.01141923 0.10376882
v -0.04690514 0.01191393 0.10300758
v -0.03980954 0.02622860 0.08391302
v -0.03980954 0.02677592 0.08283459
v -0.04294699 0.02572338 0.08423020
v -0.03981809 0.01204023 0.10313446
v -0.03980954 0.01320856 0.10184985
v -0.03980954 0.01236652 0.10276969
f 1 2 6
f 1 6 23
f 1 23 52
f 1 52 51
f 1 51 26
f 1 26 10
f 1 10 3
f 1 3 4
f 1 4 5
f 1 5 2
f 2 5 7
f 2 7 8
f 2 8 9
f 2 9 25
f 2 25 61
f 2 61 117
f 2 117 174
f 2 174 227
f 2 227 265
f 2 265 267
f 2 267 266
f 2 266 264
f 2 264 218
f 2 218 263
f 2 263 283
f 2 283 282
f 2 282 291
f 2 291 290
f 2 290 275
f 2 275 245
f 2 245 244
f 2 244 243
f 2 243 242
f 2 242 241
f 2 241 247
f 2 247 280
f 2 280 294
f 2 294 295
f 2 295 288
f 2 288 269
f 2 269 233
f 2 233 188
f 2 188 186
f 2 186 128
f 2 128 185
f 2 185 184
f 2 184 183
f 2 183 232
f 2 232 231
f 2 231 268
f 2 268 229
f 2 229 223
f 2 223 165
f 2 165 107
f 2 107 44
f 2 44 18
f 2 18 6
f 3 10 11
f 3 11 12
f 3 12 13
f 3 13 4
f 4 13 12
f 4 12 38
f 4 38 96
f 4 96 40
f 4 40 39
f 4 39 14
f 4 14 15
f 4 15 16
f 4 16 5
f 5 16 15
f 5 15 17
f 5 17 43
f 5 43 106
f 5 106 164
f 5 164 172
f 5 172 170
f 5 170 112
f 5 112 55
f 5 55 24
f 5 24 8
f 5 8 7
f 6 18 19
f 6 19 20
f 6 20 21
f 6 21 22
f 6 22 23
f 8 24 25
f 8 25 9
f 10 26 27
f 10 27 11
f 11 28 12
f 11 27 28
f 12 28 29
f 12 29 30
f 12 30 31
f 12 31 32
f 12 32 33
f 12 33 34
f 12 34 35
f 12 35 36
f 12 36 37
f 12 37 38
f 14 39 15
f 15 39 40
f 15 40 41
f 15 41 102
f 15 102 42
f 15 42 17
f 17 42 43
f 18 44 19
f 19 45 20
f 19 44 46
f 19 46 47
f 19 47 48
f 19 48 49
f 19 49 50
f 19 50 45
f 20 51 52
f 20 52 23
f 20 23 53
f 20 53 22
f 20 22 21
f 20 45 54
f 20 54 51
f 22 53 23
f 24 55 56
f 24 56 57
f 24 57 58
f 24 58 59
f 24 59 60
f 24 60 25
f 25 60 62
f 25 62 63
f 25 63 64
f 25 64 65
f 25 65 66
f 25 66 61
f 26 51 54
f 26 54 27
f 27 54 67
f 27 67 28
f 28 67 29
f 29 67 30
f 30 50 31
f 30 67 50
f 31 50 49
f 31 49 32
f 32 49 68
f 32 68 33
f 33 69 70
f 33 70 34
f 33 68 71
f 33 71 69
f 34 70 35
f 35 70 36
f 36 72 73
f 36 73 74
f 36 74 37
f 36 70 75
f 36 75 76
f 36 76 77
f 36 77 78
f 36 78 79
f 36 79 80
f 36 80 81
f 36 81 82
f 36 82 83
f 36 83 84
f 36 84 85
f 36 85 86
f 36 86 87
f 36 87 88
f 36 88 89
f 36 89 90
f 36 90 91
f 36 91 92
f 36 92 72
f 37 74 93
f 37 93 38
f 38 93 94
f 38 94 95
f 38 95 96
f 40 96 95
f 40 95 41
f 41 95 97
f 41 97 98
f 41 98 99
f 41 99 100
f 41 100 101
f 41 101 102
f 42 102 43
f 43 102 101
f 43 101 100
f 43 100 103
f 43 103 104
f 43 104 105
f 43 105 106
f 44 107 46
f 45 67 54
f 45 50 67
f 46 108 47
f 46 107 108
f 47 108 109
f 47 109 110
f 47 110 71
f 47 71 111
f 47 111 68
f 47 68 49
f 47 49 48
f 55 112 56
f 56 112 57
f 57 113 59
f 57 59 58
f 57 112 113
f 59 113 114
f 59 114 115
f 59 115 66
f 59 66 116
f 59 116 65
f 59 65 64
f 59 64 63
f 59 63 62
f 59 62 60
f 61 66 118
f 61 118 117
f 65 116 66
f 66 115 118
f 68 111 71
f 69 71 119
f 69 119 120
f 69 120 75
f 69 75 70
f 71 110 119
f 72 92 121
f 72 121 73
f 73 121 94
f 73 94 93
f 73 93 74
f 75 120 76
f 76 120 178
f 76 178 122
f 76 122 78
f 76 78 77
f 78 122 123
f 78 123 124
f 78 124 125
f 78 125 126
f 78 126 127
f 78 127 128
f 78 128 129
f 78 129 130
f 78 130 131
f 78 131 132
f 78 132 133
f 78 133 80
f 78 80 79
f 80 133 134
f 80 134 135
f 80 135 136
f 80 136 137
f 80 137 81
f 81 137 83
f 81 83 82
f 83 137 136
f 83 136 138
f 83 138 139
f 83 139 140
f 83 140 141
f 83 141 84
f 84 141 85
f 85 141 86
f 86 141 142
f 86 142 143
f 86 143 146
f 86 146 144
f 86 144 87
f 87 144 145
f 87 145 88
f 88 145 146
f 88 146 89
f 89 146 147
f 89 147 148
f 89 148 149
f 89 149 150
f 89 150 151
f 89 151 90
f 90 151 152
f 90 152 91
f 91 152 153
f 91 153 92
f 92 153 121
f 94 121 95
f 95 154 155
f 95 155 156
f 95 156 157
f 95 157 158
f 95 158 159
f 95 159 97
f 95 121 154
f 97 159 160
f 97 160 161
f 97 161 162
f 97 162 103
f 97 103 98
f 98 103 99
f 99 103 100
f 103 162 104
f 104 162 105
f 105 162 163
f 105 163 106
f 106 163 115
f 106 115 164
f 107 165 166
f 107 166 108
f 108 166 165
f 108 165 109
f 109 167 110
f 109 165 168
f 109 168 167
f 110 167 169
f 110 169 119
f 112 170 171
f 112 171 114
f 112 114 113
f 114 171 170
f 114 170 172
f 114 172 115
f 115 173 118
f 115 172 164
f 115 163 162
f 115 162 173
f 117 118 174
f 118 173 160
f 118 160 175
f 118 175 176
f 118 176 174
f 119 169 120
f 120 169 177
f 120 177 178
f 121 153 152
f 121 152 179
f 121 179 154
f 122 178 180
f 122 180 181
f 122 181 182
f 122 182 183
f 122 183 184
f 122 184 185
f 122 185 125
f 122 125 124
f 122 124 123
f 125 185 126
f 126 185 128
f 126 128 127
f 128 186 129
f 129 186 130
f 130 186 187
f 130 187 131
f 131 188 189
f 131 189 190
f 131 190 132
f 131 187 186
f 131 186 188
f 132 191 192
f 132 192 133
f 132 190 193
f 132 193 194
f 132 194 191
f 133 192 134
f 134 192 135
f 135 192 138
f 135 138 136
f 138 195 139
f 138 192 195
f 139 195 196
f 139 196 140
f 140 196 197
f 140 197 198
f 140 198 199
f 140 199 200
f 140 200 201
f 140 201 142
f 140 142 141
f 142 201 202
f 142 202 203
f 142 203 204
f 142 204 146
f 142 146 143
f 144 146 145
f 146 204 147
f 147 204 205
f 147 205 149
f 147 149 148
f 149 205 204
f 149 204 203
f 149 203 206
f 149 206 150
f 150 206 207
f 150 207 208
f 150 208 151
f 151 208 209
f 151 209 152
f 152 209 210
f 152 210 179
f 154 179 155
f 155 179 210
f 155 210 211
f 155 211 209
f 155 209 156
f 156 209 208
f 156 208 157
f 157 208 158
f 158 212 213
f 158 213 214
f 158 214 215
f 158 215 216
f 158 216 217
f 158 217 218
f 158 218 219
f 158 219 159
f 158 208 220
f 158 220 212
f 159 219 175
f 159 175 221
f 159 221 222
f 159 222 160
f 160 222 175
f 160 173 161
f 161 173 162
f 165 223 224
f 165 224 225
f 165 225 168
f 167 168 226
f 167 226 177
f 167 177 169
f 168 225 180
f 168 180 226
f 174 176 227
f 175 222 221
f 175 219 228
f 175 228 227
f 175 227 176
f 177 226 180
f 177 180 178
f 180 225 181
f 181 225 182
f 182 225 229
f 182 229 230
f 182 230 231
f 182 231 232
f 182 232 183
f 188 233 234
f 188 234 235
f 188 235 189
f 189 235 236
f 189 236 237
f 189 237 190
f 190 237 238
f 190 238 193
f 191 194 195
f 191 195 192
f 193 238 194
f 194 239 240
f 194 240 195
f 194 238 239
f 195 240 196
f 196 241 242
f 196 242 243
f 196 243 244
f 196 244 245
f 196 245 246
f 196 246 197
f 196 240 247
f 196 247 241
f 197 248 249
f 197 249 198
f 197 246 248
f 198 249 250
f 198 250 251
f 198 251 215
f 198 215 252
f 198 252 199
f 199 252 253
f 199 253 254
f 199 254 255
f 199 255 202
f 199 202 200
f 200 202 201
f 202 255 206
f 202 206 203
f 206 220 208
f 206 208 207
f 206 255 220
f 209 211 210
f 212 256 257
f 212 257 213
f 212 220 258
f 212 258 254
f 212 254 256
f 213 257 214
f 214 257 215
f 215 251 259
f 215 259 260
f 215 260 216
f 215 257 252
f 216 260 217
f 217 260 261
f 217 261 262
f 217 262 218
f 218 262 263
f 218 264 219
f 219 264 228
f 220 255 258
f 223 229 225
f 223 225 224
f 227 228 265
f 228 264 266
f 228 266 267
f 228 267 265
f 229 268 230
f 230 268 231
f 233 269 270
f 233 270 271
f 233 271 234
f 234 271 236
f 234 236 235
f 236 271 272
f 236 272 237
f 237 272 239
f 237 239 238
f 239 273 240
f 239 272 273
f 240 273 274
f 240 274 247
f 245 275 276
f 245 276 246
f 246 276 277
f 246 277 278
f 246 278 248
f 247 274 279
f 247 279 280
f 248 278 281
f 248 281 282
f 248 282 249
f 249 282 250
f 250 282 251
f 251 282 261
f 251 261 259
f 252 254 253
f 252 257 254
f 254 258 255
f 254 257 256
f 259 261 260
f 261 283 263
f 261 263 262
f 261 282 283
f 269 284 285
f 269 285 286
f 269 286 287
f 269 287 270
f 269 288 284
f 270 287 271
f 271 287 272
f 272 287 273
f 273 287 289
f 273 289 279
f 273 279 274
f 275 290 276
f 276 290 277
f 277 290 291
f 277 291 282
f 277 282 292
f 277 292 281
f 277 281 278
f 279 289 293
f 279 293 280
f 280 293 294
f 281 292 282
f 284 293 289
f 284 289 285
f 284 288 293
f 285 289 286
f 286 289 287
f 288 295 293
f 293 295 294

