# https://github.com/mikedh/trimesh
v -0.11591616 -0.27007395 -0.10465090
v -0.11609762 -0.27095916 -0.10465090
v -0.17440218 -0.21979613 -0.10466772
v -0.17440218 -0.20989021 -0.10466772
v -0.11657221 -0.26819816 -0.10465090
v -0.14204643 -0.26540553 0.06709361
v -0.14194871 -0.26579544 0.06709361
v -0.14176726 -0.26663849 0.06709361
v -0.14175330 -0.26720756 0.06709361
v -0.14176726 -0.26819816 0.06709361
v -0.11668387 -0.27152823 -0.10465090
v -0.14208829 -0.26933628 0.06709361
v -0.11791222 -0.27205514 -0.10465090
v -0.11981057 -0.27203406 -0.10465090
v -0.12135996 -0.27163362 -0.10465090
v -0.15234777 -0.25439308 -0.10465090
v -0.15352028 -0.25371865 -0.10465090
v -0.15917348 -0.24980897 -0.10465090
v -0.15985745 -0.24927151 -0.10465090
v -0.17796158 -0.21468508 -0.10466772
v -0.11720034 -0.27180222 -0.10465090
v -0.18237247 -0.19136402 -0.10466772
v -0.11721429 -0.26713380 -0.10465090
v -0.17168026 -0.21607614 0.06709361
v -0.14226976 -0.26500507 0.06709361
v -0.15734492 -0.24567798 0.06711043
v -0.15734492 -0.25504646 0.06711043
v -0.14249310 -0.26968405 0.06709361
v -0.11981057 -0.27203406 -0.10263275
v -0.14386102 -0.27051655 0.06564727
v -0.14535458 -0.27055872 0.06299004
v -0.14669460 -0.27069571 0.05088115
v -0.14719710 -0.27069571 0.05088115
v -0.12135996 -0.27198138 -0.10108550
v -0.12135996 -0.27190761 -0.10263275
v -0.12135996 -0.27170737 -0.10417999
v -0.13022360 -0.27081162 -0.08246808
v -0.15561406 -0.25469869 -0.09642693
v -0.15472072 -0.25501484 -0.09723420
v -0.15446948 -0.25488839 -0.09826009
v -0.15416239 -0.25473031 -0.09952144
v -0.15533490 -0.25450901 -0.09783965
v -0.15508364 -0.25373972 -0.10106868
v -0.15653533 -0.25368703 -0.09797419
v -0.15684242 -0.25391887 -0.09642693
v -0.25015482 -0.17825447 -0.05455034
v -0.25141110 -0.17668429 -0.05455034
v -0.25378402 -0.16439672 -0.06294248
v -0.25328152 -0.16439672 -0.06349747
v -0.23949055 -0.16439672 -0.07828041
v -0.23882054 -0.16439672 -0.07896995
v -0.16068098 -0.24793316 -0.10465090
v -0.15939681 -0.25037802 -0.10196003
v -0.25099233 -0.19157478 -0.03388112
v -0.25062941 -0.19136402 -0.03485657
v -0.17824076 -0.21421087 -0.10466772
v -0.18942149 -0.19136402 -0.10466772
v -0.18753711 -0.16439672 -0.10465090
v -0.17180590 -0.21589698 0.06709361
v -0.16669709 -0.22925944 0.06711043
v -0.20109078 -0.20034258 0.06714407
v -0.20109078 -0.21006935 0.06714407
v -0.20167703 -0.20996397 0.06714407
v -0.20346372 -0.20959514 0.06714407
v -0.20508290 -0.20923682 0.06714407
v -0.20657647 -0.20877316 0.06714407
v -0.20730230 -0.20844647 0.06714407
v -0.20767918 -0.20821462 0.06714407
v -0.22509936 -0.19649613 0.06714407
v -0.14436353 -0.26948381 0.06709361
v -0.14395874 -0.26970511 0.06709361
v -0.14317706 -0.26973673 0.06709361
v -0.14387498 -0.27051655 0.06564727
v -0.14549417 -0.27055872 0.06299004
v -0.14715523 -0.27065356 0.05242839
v -0.14809045 -0.27045333 0.04312809
v -0.14725293 -0.27069571 0.04935072
v -0.14591292 -0.27081162 0.01998664
v -0.14266060 -0.27104348 -0.03591610
v -0.13488573 -0.27087487 -0.06541471
v -0.13328051 -0.27082216 -0.07162052
v -0.14252101 -0.27091701 -0.03746334
v -0.15761013 -0.25328657 -0.09642693
v -0.23937887 -0.20501101 -0.01733230
v -0.24042576 -0.20424171 -0.01733230
v -0.24027222 -0.20410472 -0.01886273
v -0.24314766 -0.20081679 -0.02288221
v -0.24465519 -0.19922553 -0.02436219
v -0.25319777 -0.17419726 -0.05455034
v -0.25111795 -0.19136402 -0.03396521
v -0.25406321 -0.16527138 -0.06173159
v -0.25425862 -0.16439672 -0.06220249
v -0.25358861 -0.17363873 -0.05455034
v -0.22169349 -0.16439672 -0.09314744
v -0.20590646 -0.16457588 -0.10465090
v -0.22081411 -0.16439672 -0.09385380
v -0.25111795 -0.19172231 -0.03280478
v -0.25146693 -0.19136402 -0.03280478
v -0.25125753 -0.19136402 -0.03356158
v -0.17892471 -0.21285144 -0.10466772
v -0.20597625 -0.16439672 -0.10465090
v -0.18855607 -0.16439672 -0.10305319
v -0.21488175 -0.19171177 0.06714407
v -0.17702637 -0.21193461 0.06709361
v -0.17650990 -0.21222968 0.06709361
v -0.17582593 -0.21263014 0.06709361
v -0.17331341 -0.21441109 0.06709361
v -0.17311799 -0.21456917 0.06709361
v -0.17232236 -0.21530684 0.06709361
v -0.23149234 -0.19170123 0.06714407
v -0.14521500 -0.26884099 0.06709361
v -0.14528479 -0.26887259 0.06700953
v -0.14455895 -0.26975782 0.06633681
v -0.14595480 -0.26950489 0.06485683
v -0.14700169 -0.27056926 0.05522017
v -0.14707148 -0.27061140 0.05399246
v -0.25104816 -0.19171177 0.03540867
v -0.25170421 -0.19171177 0.03386142
v -0.25206714 -0.19171177 0.03268417
v -0.23854138 -0.20551684 0.02092845
v -0.23688031 -0.20696058 0.01916257
v -0.23692219 -0.20698166 0.01833849
v -0.14811837 -0.27035848 0.04469215
v -0.14591292 -0.27081162 0.01988574
v -0.14729482 -0.27069571 0.04780347
v -0.23697802 -0.20701326 0.01679124
v -0.23700593 -0.20704489 0.01524399
v -0.23701989 -0.20705543 0.01367993
v -0.23701989 -0.20705543 0.01213268
v -0.14542437 -0.27055872 -0.01886273
v -0.14416811 -0.27082216 -0.02661579
v -0.14408436 -0.27080110 -0.02816304
v -0.14541041 -0.27053763 -0.01978772
v -0.23942076 -0.20500047 -0.01576824
v -0.24120743 -0.20355674 -0.01733230
v -0.24103994 -0.20344081 -0.01886273
v -0.24465519 -0.20077465 -0.01509552
v -0.25219276 -0.19436742 -0.01110967
v -0.25444007 -0.17224769 -0.05455034
v -0.25851595 -0.16439672 -0.05455034
v -0.25300236 -0.19358758 -0.01110967
v -0.25389570 -0.19297636 -0.00956243
v -0.25439820 -0.19202792 -0.01110967
v -0.25488674 -0.19135348 -0.01110967
v -0.18935170 -0.16439672 -0.10227957
v -0.24568811 -0.16439672 -0.05455034
v -0.23453529 -0.19171177 0.06492411
v -0.23305569 -0.19171177 0.06600044
v -0.14615021 -0.26809277 0.06709361
v -0.14564771 -0.26917820 0.06596682
v -0.23706178 -0.19171177 0.06176234
v -0.23731302 -0.19171177 0.06130825
v -0.24314766 -0.19613783 0.04092494
v -0.24610686 -0.19445172 0.03900770
v -0.23861117 -0.20558006 0.01990255
v -0.25425862 -0.19171177 0.01213268
v -0.25418883 -0.19183823 0.01213268
v -0.25365840 -0.19261806 0.01213268
v -0.25279298 -0.19340844 0.01367993
v -0.25092254 -0.19308175 0.03032966
v -0.25083879 -0.19455709 0.01914575
v -0.24621854 -0.19922553 0.01166178
v -0.25222067 -0.19443064 -0.00956243
v -0.24465519 -0.20077465 -0.01469189
v -0.23614051 -0.19171177 0.06324231
v -0.23594510 -0.19171177 0.06347777
v -0.23495404 -0.19171177 0.06460456
v -0.25499842 -0.19135348 -0.00956243
v -0.25445403 -0.19218600 -0.00956243
v -0.25201130 -0.19424094 0.01213268
v -0.25286277 -0.19346113 0.01213268
v -0.25195547 -0.19417772 0.01367993
f 1 2 3
f 1 3 4
f 1 4 5
f 1 5 6
f 1 6 7
f 1 7 8
f 1 8 9
f 1 9 10
f 1 10 2
f 2 11 3
f 2 10 12
f 2 12 11
f 3 13 14
f 3 14 15
f 3 15 16
f 3 16 17
f 3 17 18
f 3 18 19
f 3 19 20
f 3 20 56
f 3 56 100
f 3 100 57
f 3 57 22
f 3 22 4
f 3 11 21
f 3 21 13
f 4 22 5
f 5 22 23
f 5 23 24
f 5 24 25
f 5 25 6
f 6 25 26
f 6 26 7
f 7 26 8
f 8 26 9
f 9 26 27
f 9 27 10
f 10 27 12
f 11 12 28
f 11 28 21
f 12 27 28
f 13 29 14
f 13 21 30
f 13 30 31
f 13 31 32
f 13 32 33
f 13 33 29
f 14 29 34
f 14 34 35
f 14 35 36
f 14 36 15
f 15 36 37
f 15 37 38
f 15 38 39
f 15 39 40
f 15 40 41
f 15 41 16
f 16 41 42
f 16 42 17
f 17 43 18
f 17 42 43
f 18 43 44
f 18 44 45
f 18 45 19
f 19 46 47
f 19 47 48
f 19 48 49
f 19 49 50
f 19 50 51
f 19 51 52
f 19 52 20
f 19 45 53
f 19 53 54
f 19 54 55
f 19 55 46
f 20 52 56
f 21 28 30
f 22 57 101
f 22 101 58
f 22 58 23
f 23 58 24
f 24 59 60
f 24 60 25
f 24 58 59
f 25 60 26
f 26 60 61
f 26 61 62
f 26 62 27
f 27 62 63
f 27 63 64
f 27 64 65
f 27 65 66
f 27 66 67
f 27 67 68
f 27 68 69
f 27 69 70
f 27 70 71
f 27 71 72
f 27 72 28
f 28 72 30
f 29 33 34
f 30 72 73
f 30 73 74
f 30 74 31
f 31 74 33
f 31 33 32
f 33 74 75
f 33 75 76
f 33 76 77
f 33 77 78
f 33 78 34
f 34 78 79
f 34 79 35
f 35 79 80
f 35 80 81
f 35 81 37
f 35 37 36
f 37 81 38
f 38 45 42
f 38 42 39
f 38 81 82
f 38 82 79
f 38 79 45
f 39 42 40
f 40 42 41
f 42 44 43
f 42 45 44
f 45 83 53
f 45 79 84
f 45 84 85
f 45 85 86
f 45 86 87
f 45 87 88
f 45 88 83
f 46 55 47
f 47 89 48
f 47 55 90
f 47 90 89
f 48 91 92
f 48 92 140
f 48 140 146
f 48 146 145
f 48 145 102
f 48 102 58
f 48 58 101
f 48 101 96
f 48 96 94
f 48 94 51
f 48 51 50
f 48 50 49
f 48 89 93
f 48 93 91
f 51 94 52
f 52 95 56
f 52 94 96
f 52 96 95
f 53 83 54
f 54 88 97
f 54 97 98
f 54 98 99
f 54 99 90
f 54 90 55
f 54 83 88
f 56 95 100
f 57 100 95
f 57 95 101
f 58 102 103
f 58 103 104
f 58 104 105
f 58 105 106
f 58 106 107
f 58 107 108
f 58 108 109
f 58 109 59
f 59 109 61
f 59 61 60
f 61 109 108
f 61 108 107
f 61 107 106
f 61 106 103
f 61 103 110
f 61 110 69
f 61 69 68
f 61 68 67
f 61 67 66
f 61 66 65
f 61 65 64
f 61 64 63
f 61 63 62
f 69 110 70
f 70 111 112
f 70 112 113
f 70 113 73
f 70 73 71
f 70 110 111
f 71 73 72
f 73 114 74
f 73 113 114
f 74 115 116
f 74 116 75
f 74 114 117
f 74 117 118
f 74 118 119
f 74 119 120
f 74 120 115
f 75 116 121
f 75 121 122
f 75 122 123
f 75 123 76
f 76 124 125
f 76 125 77
f 76 123 122
f 76 122 126
f 76 126 127
f 76 127 128
f 76 128 129
f 76 129 84
f 76 84 130
f 76 130 131
f 76 131 124
f 77 125 78
f 78 125 124
f 78 124 79
f 79 124 131
f 79 131 132
f 79 132 84
f 79 82 80
f 80 82 81
f 84 132 133
f 84 133 130
f 84 129 134
f 84 134 85
f 85 135 136
f 85 136 86
f 85 134 129
f 85 129 137
f 85 137 135
f 86 136 88
f 86 88 87
f 88 136 135
f 88 135 137
f 88 137 138
f 88 138 97
f 89 90 93
f 90 99 139
f 90 139 93
f 91 93 139
f 91 139 92
f 92 139 140
f 95 96 101
f 97 138 141
f 97 141 142
f 97 142 98
f 98 142 143
f 98 143 144
f 98 144 140
f 98 140 99
f 99 140 139
f 102 145 103
f 103 106 105
f 103 105 104
f 103 145 146
f 103 146 110
f 110 147 148
f 110 148 149
f 110 149 111
f 110 146 140
f 110 140 147
f 111 149 112
f 112 149 150
f 112 150 113
f 113 150 114
f 114 150 151
f 114 151 152
f 114 152 153
f 114 153 154
f 114 154 117
f 115 120 155
f 115 155 121
f 115 121 116
f 117 154 152
f 117 152 140
f 117 140 118
f 118 140 119
f 119 156 157
f 119 157 158
f 119 158 159
f 119 159 160
f 119 160 120
f 119 140 156
f 120 160 161
f 120 161 155
f 121 155 122
f 122 155 126
f 126 155 127
f 127 162 163
f 127 163 128
f 127 155 162
f 128 163 164
f 128 164 137
f 128 137 129
f 130 133 131
f 131 133 132
f 137 164 163
f 137 163 142
f 137 142 138
f 138 142 141
f 140 152 151
f 140 151 165
f 140 165 166
f 140 166 167
f 140 167 147
f 140 144 168
f 140 168 156
f 142 169 144
f 142 144 143
f 142 163 170
f 142 170 171
f 142 171 158
f 142 158 169
f 144 169 168
f 147 167 149
f 147 149 148
f 149 167 166
f 149 166 165
f 149 165 150
f 150 165 151
f 152 154 153
f 155 161 172
f 155 172 170
f 155 170 162
f 156 168 157
f 157 168 169
f 157 169 158
f 158 171 159
f 159 171 172
f 159 172 161
f 159 161 160
f 162 170 163
f 170 172 171

