# https://github.com/mikedh/trimesh
v 0.09445471 -0.04629113 0.15402020
v 0.03228486 -0.06399145 0.16668902
v 0.03385245 -0.06399145 0.16670167
v 0.04002274 -0.06501756 0.16746697
v 0.04002274 -0.06580944 0.16804254
v 0.04465879 -0.06580944 0.16804254
v 0.04932820 -0.06589867 0.16798562
v 0.09445471 -0.04679303 0.15434910
v 0.09895735 -0.05168934 0.15729019
v 0.09585553 -0.04687110 0.15431115
v 0.09585553 -0.04646959 0.15402020
v -0.09822514 -0.05316158 0.13023850
v -0.09822514 -0.05316158 0.14157908
v -0.09395596 -0.05316158 0.14235073
v -0.09238837 -0.05316158 0.14262270
v -0.09082078 -0.05316158 0.14285671
v -0.08941996 -0.05316158 0.14301484
v 0.01670905 -0.06390223 0.16614508
v 0.01814322 -0.06390223 0.16625260
v 0.01857681 -0.06390223 0.16627790
v 0.02117834 -0.06390223 0.16636644
v 0.02141181 -0.06390223 0.16637276
v 0.02451363 -0.06390223 0.16644868
v 0.02761545 -0.06405837 0.16663841
v 0.03071727 -0.07086190 0.17090142
v 0.03692092 -0.06868700 0.16972499
v 0.02451363 -0.06410298 0.16659414
v 0.02117834 -0.06416990 0.16654987
v 0.02691504 -0.06889891 0.16960480
v 0.05553185 -0.07164263 0.17136314
v 0.07564366 -0.07682893 0.17417140
v 0.07877883 -0.07685123 0.17413978
v 0.07721124 -0.07588089 0.17357686
v 0.07721124 -0.07400714 0.17241939
v 0.07410943 -0.06914429 0.16944669
v 0.07564366 -0.06995848 0.16990840
v 0.07661089 -0.07197723 0.17116074
v 0.10359340 -0.05663026 0.16020597
v 0.10005799 -0.05175626 0.15725224
v 0.07877883 -0.07482133 0.17288111
v 0.09895735 -0.04902370 0.15543066
v 0.09892400 -0.04709417 0.15402020
v -0.05553339 -0.14607990 0.12844222
v -0.06854103 -0.14713946 0.12787298
v -0.11043230 -0.13944368 0.13624717
v -0.11043230 -0.13788221 0.13620922
v -0.11043230 -0.12392940 0.13596255
v -0.11043230 -0.12242371 0.13594990
v -0.11043230 -0.12237909 0.13594990
v -0.10442877 -0.06983579 0.13328711
v 0.10826282 -0.04907946 0.15402020
v 0.10933011 -0.04931368 0.15402020
v 0.10983040 -0.04942522 0.15402020
v 0.11059753 -0.04961482 0.15402020
v 0.11136464 -0.04981558 0.15402020
v 0.11756829 -0.05145512 0.15402020
v 0.11850217 -0.05171165 0.15402020
v 0.11943605 -0.05200163 0.15402020
v 0.17123314 -0.06877623 0.15402020
v 0.17213365 -0.06909967 0.15402020
v 0.17336773 -0.06955696 0.15402020
v 0.17803713 -0.07133034 0.15402020
v 0.17917114 -0.07176532 0.15402020
v 0.21899451 -0.08754726 0.15402020
v 0.22219639 -0.08907528 0.15402020
v 0.22299686 -0.08947679 0.15402020
v 0.22429762 -0.09019061 0.15402020
v 0.22679909 -0.09161823 0.15402020
v 0.22809986 -0.09238781 0.15402020
v 0.23030116 -0.09370390 0.15402020
v -0.10442877 -0.06983579 0.14541831
v -0.09822514 -0.05794635 0.14326151
v 0.01360722 -0.07628241 0.17282419
v 0.01360722 -0.07550168 0.17252692
v 0.01517481 -0.07520054 0.17265341
v 0.01360722 -0.07434173 0.17193871
v 0.01360722 -0.07324871 0.17132518
v 0.01570846 -0.06728168 0.16808051
v 0.01517481 -0.06390223 0.16594268
v 0.01610869 -0.06390223 0.16607549
v 0.01784304 -0.06427029 0.16646765
v 0.01981086 -0.06420337 0.16651192
v 0.03228486 -0.07160917 0.17139476
v 0.03071727 -0.07276912 0.17205255
v 0.03385245 -0.07157571 0.17139476
v 0.05863367 -0.07378407 0.17258384
v 0.02141181 -0.06501756 0.16706851
v 0.02608121 -0.06892122 0.16958583
v 0.02914968 -0.07167609 0.17134415
v 0.06016790 -0.07378407 0.17257119
v 0.07877883 -0.07762081 0.17453192
v 0.07410943 -0.07682893 0.17417773
v 0.07877883 -0.07588089 0.17353890
v 0.08031306 -0.07767658 0.17451927
v 0.08031306 -0.07689585 0.17410814
v 0.10359340 -0.05741099 0.16069932
v 0.10516099 -0.05947436 0.16192002
v 0.10516099 -0.05870478 0.16143302
v 0.10516099 -0.05753368 0.16066137
v 0.10516099 -0.05674179 0.16011743
v 0.10576135 -0.05496841 0.15873227
v 0.10826282 -0.04973751 0.15450722
v -0.06854103 -0.14893516 0.12836001
v -0.06854103 -0.14873439 0.12825881
v 0.23030116 -0.11383564 0.15402020
v 0.23030116 -0.14350349 0.16197064
v -0.11043230 -0.14560031 0.13730976
v -0.11043230 -0.14523225 0.13722754
v -0.11043230 -0.14408345 0.13700617
v -0.11043230 -0.14098283 0.13643692
v -0.11043230 -0.11999228 0.13600051
v -0.11043230 -0.11998113 0.13846723
v 0.10766246 -0.05334003 0.15723326
v 0.10672858 -0.05768982 0.16054119
v 0.10826282 -0.05603914 0.15907381
v 0.12223769 -0.05755599 0.15754318
v 0.11843546 -0.05181202 0.15411508
v 0.17493531 -0.07651663 0.16040205
v 0.17570243 -0.07663932 0.16030716
v 0.17336773 -0.07465403 0.15917501
v 0.17493531 -0.07489940 0.15894731
v 0.17220036 -0.07057191 0.15551921
v 0.17336773 -0.07078383 0.15530416
v 0.22072887 -0.09213128 0.15878919
v 0.21926134 -0.08898605 0.15572161
v 0.22146264 -0.09029099 0.15606947
v 0.22239652 -0.09051405 0.15576588
v 0.22343044 -0.09080404 0.15541169
v 0.22256327 -0.09196398 0.15745463
v 0.22359721 -0.09226513 0.15708779
v 0.22536492 -0.09214244 0.15567733
v 0.23006769 -0.09367044 0.15414670
v 0.23030116 -0.09403850 0.15438072
v -0.09822514 -0.05870478 0.14348921
v -0.11043230 -0.11998113 0.14560173
v -0.11043230 -0.11999228 0.14901086
v -0.11043230 -0.13204903 0.15165468
v -0.10442877 -0.07494401 0.14640500
v 0.00119993 -0.09143978 0.17386781
v 0.00276752 -0.08984485 0.17387413
v 0.01360722 -0.07742005 0.17315309
v 0.01517481 -0.07742005 0.17337446
v 0.01517481 -0.07595896 0.17293803
v 0.01620875 -0.07513362 0.17267871
v 0.01517481 -0.07434173 0.17216007
v 0.01670905 -0.06721477 0.16811845
v 0.02117834 -0.06912198 0.16946566
v 0.02141181 -0.06700285 0.16824494
v 0.02141181 -0.06623327 0.16779589
v 0.02914968 -0.07276912 0.17198298
v 0.01827663 -0.07503324 0.17272933
v 0.03071727 -0.07382868 0.17260282
v 0.03228486 -0.07276912 0.17207152
v 0.04932820 -0.08103373 0.17592972
v 0.04932820 -0.08208214 0.17635350
v 0.07877883 -0.07898152 0.17507586
v 0.03228486 -0.07380638 0.17260914
v 0.08031306 -0.07898152 0.17501262
v 0.15942621 -0.09249934 0.17413346
v 0.15942621 -0.09139516 0.17364643
v 0.10609487 -0.05955243 0.16186943
v 0.10662852 -0.05895015 0.16139505
v -0.06854103 -0.14980511 0.12890395
v -0.11043230 -0.14726215 0.13797388
v 0.23030116 -0.14353694 0.16304586
v 0.09442135 -0.16021116 0.18443042
v -0.06854103 -0.15373108 0.13460902
v -0.06854103 -0.15315111 0.13327446
v -0.06854103 -0.15310649 0.13317326
v -0.06854103 -0.15257113 0.13221821
v -0.06854103 -0.15200231 0.13142759
v -0.06854103 -0.15064160 0.12968823
v 0.10826282 -0.05789059 0.16040205
v 0.16099379 -0.09039136 0.17285582
v 0.16512955 -0.08898605 0.17120501
v 0.17646954 -0.08547275 0.16684081
v 0.12317157 -0.05954128 0.15878287
v 0.12377192 -0.05776790 0.15739771
v 0.12167068 -0.05486804 0.15570264
v 0.17696984 -0.08292979 0.16489274
v 0.17520213 -0.07833463 0.16174926
v 0.17580249 -0.07505555 0.15879552
v 0.18013836 -0.08604157 0.16643603
v 0.19884934 -0.08910873 0.16336212
v 0.20818817 -0.09064789 0.16182515
v 0.22136257 -0.09295663 0.15906749
v 0.22252992 -0.09346968 0.15891569
v 0.22179615 -0.09244358 0.15849192
v 0.22136257 -0.09175207 0.15797960
v 0.22052874 -0.09067020 0.15712574
v 0.21612617 -0.09213128 0.16031983
v 0.20521976 -0.10451147 0.17271033
v 0.20748776 -0.10400957 0.17152125
v 0.22146264 -0.09089326 0.15684112
v 0.22546497 -0.09362583 0.15729019
v 0.23030116 -0.09497538 0.15535476
v -0.10442877 -0.09933633 0.14983310
v -0.10442877 -0.09539921 0.14942831
v -0.10442877 -0.09157362 0.14899822
v -0.10442877 -0.08828338 0.14859342
v -0.10442877 -0.08673308 0.14839103
v -0.10442877 -0.08537237 0.14820127
v -0.10442877 -0.08390014 0.14797991
v -0.10442877 -0.08306363 0.14785341
v -0.10442877 -0.08052067 0.14744861
v -0.10442877 -0.07898152 0.14717032
v -0.10442877 -0.07743120 0.14687937
v -0.11043230 -0.14573415 0.15165468
v 0.00183364 -0.12391825 0.17740975
v 0.00276752 -0.12236794 0.17760583
v 0.00970493 -0.11522982 0.17890877
v 0.00983834 -0.11419255 0.17886449
v 0.01007181 -0.11306607 0.17882655
v 0.00613617 -0.10841513 0.17747301
v 0.00276752 -0.10378651 0.17623964
v 0.00210046 -0.09226513 0.17422832
v 0.00260076 -0.09143978 0.17416508
v 0.00426841 -0.08982255 0.17412713
v 0.00897117 -0.08362130 0.17365908
v 0.01360722 -0.07898152 0.17346933
v 0.01517481 -0.07898152 0.17370968
v 0.01670905 -0.08013031 0.17417140
v 0.01670905 -0.07898152 0.17389943
v 0.01670905 -0.07742005 0.17348198
v 0.01670905 -0.07573590 0.17291906
v 0.01670905 -0.07446442 0.17232452
v 0.02117834 -0.07289181 0.17165409
v 0.02117834 -0.07494401 0.17277992
v 0.04932820 -0.08363246 0.17681521
v 0.07564366 -0.08827223 0.17818772
v 0.07721124 -0.08363246 0.17663812
v 0.07877883 -0.08045376 0.17556921
v 0.07961265 -0.08125679 0.17580956
v 0.15909267 -0.13541732 0.18825700
v 0.17960472 -0.10531451 0.17671402
v 0.17960472 -0.10376420 0.17618905
v 0.18050524 -0.10297231 0.17581588
v 0.15942621 -0.09021291 0.17298231
v 0.19578089 -0.10457839 0.17423465
v -0.11043230 -0.14845556 0.13934006
v 0.23030116 -0.14353694 0.17556921
v 0.09442135 -0.16021116 0.19247572
v 0.03025033 -0.16021116 0.17305822
v -0.06854103 -0.15385376 0.13624085
v -0.11043230 -0.14967127 0.14267329
v -0.11043230 -0.14963780 0.14250885
v -0.11043230 -0.14921399 0.14118061
v -0.11043230 -0.14916936 0.14104146
v -0.11043230 -0.14912476 0.14092761
v 0.16199438 -0.09052520 0.17275462
v 0.16616350 -0.08913104 0.17111647
v 0.17803713 -0.08567351 0.16668902
v 0.17646954 -0.08469202 0.16629687
v 0.17910441 -0.08586312 0.16657517
v 0.18267319 -0.08731304 0.16664473
v 0.19974988 -0.09005677 0.16379853
v 0.20665394 -0.09218705 0.16338742
v 0.20648717 -0.09845522 0.16798562
v 0.23030116 -0.10480146 0.16195164
v 0.23030116 -0.10427725 0.16162908
v 0.22356387 -0.09390466 0.15863107
v 0.20855506 -0.10436648 0.17128091
v 0.18537476 -0.09048059 0.16814375
v 0.20438594 -0.10531451 0.17315941
v 0.20582010 -0.10537028 0.17286214
v 0.20628704 -0.10489069 0.17254590
v 0.20438594 -0.10252618 0.17151493
v 0.23030116 -0.09547728 0.15579750
v 0.23006769 -0.09519844 0.15570896
v 0.00200040 -0.10146661 0.17579059
v 0.00183364 -0.12475475 0.17740342
v -0.11043230 -0.14881247 0.14556378
v 0.03025033 -0.16021116 0.18092641
v 0.02758210 -0.15504717 0.18124265
v 0.02758210 -0.14874555 0.18172968
v 0.02604786 -0.14564492 0.18158421
v 0.00276752 -0.12391825 0.17759950
v 0.02664821 -0.13479274 0.18202695
v 0.01207299 -0.11460522 0.17931355
v 0.01043870 -0.11467215 0.17902261
v 0.01083893 -0.11306607 0.17900363
v 0.00636964 -0.10727749 0.17740975
v 0.02451363 -0.10068588 0.17926928
v 0.00370141 -0.09077057 0.17421567
v 0.02514733 -0.09817638 0.17893406
v 0.01981086 -0.08828338 0.17623332
v 0.02294604 -0.08827223 0.17670769
v 0.02294604 -0.08673308 0.17635983
v 0.01827663 -0.07980687 0.17422832
v 0.04779397 -0.08518276 0.17714412
v 0.04876121 -0.08595234 0.17734650
v 0.07410943 -0.09078173 0.17886449
v 0.07564366 -0.09071481 0.17887082
v 0.07564366 -0.08983370 0.17864944
v 0.02451363 -0.08827223 0.17687213
v 0.02608121 -0.08827223 0.17694804
v 0.02998351 -0.08906412 0.17734650
v 0.15785862 -0.13787106 0.18912351
v 0.15942621 -0.13787106 0.18903497
v 0.18113894 -0.10531451 0.17656854
v 0.18107224 -0.10369728 0.17601827
v 0.18377383 -0.11370181 0.17894039
v 0.18577500 -0.11616669 0.17945271
v 0.19894941 -0.10609525 0.17424097
v 0.20281835 -0.10531451 0.17339976
v 0.23030116 -0.14300158 0.17551229
v 0.22799980 -0.14353694 0.17615110
v 0.21722681 -0.14353694 0.17882022
v 0.21108987 -0.14353694 0.18021170
v 0.21065629 -0.14353694 0.18030657
v 0.17493531 -0.14353694 0.18725766
v 0.16072696 -0.14353694 0.18984456
v 0.15992649 -0.14353694 0.18997737
v 0.15945955 -0.14353694 0.19004694
v 0.15842560 -0.14353694 0.19012916
v 0.15785862 -0.14353694 0.19017345
v 0.13217686 -0.14353694 0.19107159
v 0.13157651 -0.14353694 0.19108423
v 0.13044251 -0.14353694 0.19108423
v 0.09442135 -0.15339648 0.19183058
v 0.07721124 -0.15494679 0.19062883
v 0.07877883 -0.16021116 0.19112851
v -0.11043230 -0.14968243 0.14360306
v 0.23030116 -0.10532566 0.16222994
v 0.20958899 -0.10477915 0.17105320
v 0.23030116 -0.09605725 0.15622127
v 0.22819993 -0.09548844 0.15705616
v 0.18577500 -0.11772816 0.17994606
v 0.18544147 -0.11965768 0.18057222
v 0.20438594 -0.10686482 0.17360849
v 0.20595353 -0.10686482 0.17324163
v 0.20685405 -0.10592794 0.17276095
v 0.20742105 -0.10537028 0.17227393
v 0.23030116 -0.10842628 0.16378588
v 0.23030116 -0.10740018 0.16329253
v 0.01110575 -0.11205112 0.17893406
v 0.02604786 -0.14408345 0.18166643
v 0.02604786 -0.14254430 0.18171703
v 0.02678163 -0.13726877 0.18200165
v 0.02671492 -0.13634305 0.18200797
v -0.11043230 -0.14935897 0.14443162
v 0.07721124 -0.16021116 0.19090713
v 0.02758210 -0.14718408 0.18182454
v 0.02668157 -0.13354357 0.18202062
v 0.01207299 -0.11306607 0.17921236
v 0.07721124 -0.15649711 0.19071740
v 0.02451363 -0.10224734 0.17951595
v 0.02608121 -0.10068588 0.17951595
v 0.02501392 -0.09040251 0.17739078
v 0.04622638 -0.08827223 0.17779558
v 0.04779397 -0.08600811 0.17733385
v 0.04779397 -0.09759641 0.17989546
v 0.09118612 -0.13852910 0.18980659
v 0.09245353 -0.13848449 0.18981924
v 0.13304403 -0.13942137 0.19031259
v 0.13314410 -0.13775952 0.18992045
v 0.13397791 -0.13707917 0.18975600
v 0.02608121 -0.08947679 0.17727061
v 0.04932820 -0.10376420 0.18128060
v 0.14625180 -0.13864063 0.18974967
v 0.15785862 -0.13943253 0.18950932
v 0.15942621 -0.13943253 0.18940813
v 0.16099379 -0.13787106 0.18881992
v 0.18457431 -0.11863157 0.18040776
v 0.18267319 -0.11352336 0.17899731
v 0.18047189 -0.10760094 0.17735915
v 0.23030116 -0.14156281 0.17531621
v 0.22943398 -0.14252199 0.17566408
v 0.21679322 -0.14242161 0.17876961
v 0.21625957 -0.14286774 0.17895304
v 0.21569257 -0.14098283 0.17882655
v 0.21462528 -0.14000134 0.17892774
v 0.21062293 -0.14252199 0.18016741
v 0.16099379 -0.13943253 0.18917411
v 0.16099379 -0.14098283 0.18942078
v 0.16046013 -0.14294582 0.18980659
v 0.21369140 -0.13946598 0.17904158
v 0.21422505 -0.13896408 0.17884552
v 0.15999319 -0.14190856 0.18973070
v 0.15899261 -0.14155166 0.18979394
v 0.15785862 -0.14057016 0.18969908
v 0.15312250 -0.13932099 0.18964848
v 0.13304403 -0.14097168 0.19059089
v 0.13147644 -0.14252199 0.19090081
v 0.09442135 -0.14563377 0.19099569
v 0.09442135 -0.14720639 0.19117278
v 0.09442135 -0.15029586 0.19150801
v 0.09442135 -0.15184616 0.19167245
v 0.09272036 -0.14098283 0.19035054
v 0.09428794 -0.14253314 0.19059089
v 0.09428794 -0.14409460 0.19080594
v 0.09428794 -0.15184616 0.19166613
v 0.09272036 -0.14253314 0.19055294
v 0.09118612 -0.14098283 0.19025567
v 0.02608121 -0.10224734 0.17973733
v 0.23030116 -0.10706558 0.16312809
v 0.18420741 -0.12236794 0.18135019
v 0.22666568 -0.13888601 0.17574630
v 0.23030116 -0.13943253 0.17496835
v 0.23030116 -0.13787106 0.17455722
v 0.23030116 -0.12331597 0.16954156
v 0.23030116 -0.12131953 0.16878889
v 0.23030116 -0.11924501 0.16799827
v 0.23030116 -0.11302146 0.16562011
v 0.23030116 -0.10993199 0.16443734
v 0.23030116 -0.10887242 0.16398196
v 0.09118612 -0.13944368 0.19000267
v 0.04932820 -0.10224734 0.18095171
v 0.13147644 -0.14097168 0.19060354
v 0.13454492 -0.13774837 0.18990780
v 0.23030116 -0.14102745 0.17523399
v 0.22816657 -0.14071515 0.17572100
v 0.21679322 -0.14098283 0.17856090
v 0.22086227 -0.13994557 0.17739078
v 0.09428794 -0.14563377 0.19098937
v 0.09428794 -0.14718408 0.19116645
v 0.23030116 -0.13992327 0.17505689
v 0.22709928 -0.13992327 0.17584751
f 1 2 3
f 1 3 4
f 1 4 5
f 1 5 6
f 1 6 7
f 1 7 8
f 1 8 9
f 1 9 10
f 1 10 11
f 1 11 12
f 1 12 13
f 1 13 14
f 1 14 15
f 1 15 16
f 1 16 17
f 1 17 18
f 1 18 19
f 1 19 20
f 1 20 21
f 1 21 22
f 1 22 23
f 1 23 2
f 2 5 3
f 2 23 24
f 2 24 5
f 3 5 4
f 5 25 26
f 5 26 6
f 5 24 27
f 5 27 28
f 5 28 29
f 5 29 25
f 6 26 30
f 6 30 31
f 6 31 32
f 6 32 33
f 6 33 34
f 6 34 35
f 6 35 7
f 7 35 8
f 8 35 36
f 8 36 37
f 8 37 9
f 9 38 39
f 9 39 10
f 9 37 40
f 9 40 38
f 10 39 41
f 10 41 11
f 11 41 42
f 11 42 12
f 12 43 44
f 12 44 45
f 12 45 46
f 12 46 47
f 12 47 48
f 12 48 49
f 12 49 50
f 12 50 71
f 12 71 13
f 12 42 51
f 12 51 52
f 12 52 53
f 12 53 54
f 12 54 55
f 12 55 56
f 12 56 57
f 12 57 58
f 12 58 59
f 12 59 60
f 12 60 61
f 12 61 62
f 12 62 63
f 12 63 64
f 12 64 65
f 12 65 66
f 12 66 67
f 12 67 68
f 12 68 69
f 12 69 70
f 12 70 43
f 13 71 72
f 13 72 73
f 13 73 74
f 13 74 14
f 14 74 75
f 14 75 76
f 14 76 15
f 15 76 77
f 15 77 78
f 15 78 79
f 15 79 16
f 16 79 80
f 16 80 18
f 16 18 17
f 18 80 78
f 18 78 81
f 18 81 19
f 19 81 20
f 20 81 82
f 20 82 28
f 20 28 21
f 21 28 22
f 22 28 27
f 22 27 24
f 22 24 23
f 25 83 26
f 25 29 84
f 25 84 83
f 26 83 85
f 26 85 86
f 26 86 30
f 28 87 29
f 28 82 87
f 29 87 88
f 29 88 89
f 29 89 84
f 30 86 90
f 30 90 31
f 31 91 32
f 31 90 86
f 31 86 92
f 31 92 91
f 32 93 34
f 32 34 33
f 32 91 94
f 32 94 95
f 32 95 93
f 34 93 40
f 34 40 37
f 34 37 35
f 35 37 36
f 38 40 96
f 38 96 97
f 38 97 98
f 38 98 99
f 38 99 39
f 39 99 100
f 39 100 41
f 40 93 95
f 40 95 97
f 40 97 96
f 41 100 101
f 41 101 102
f 41 102 42
f 42 102 51
f 43 103 104
f 43 104 44
f 43 70 105
f 43 105 106
f 43 106 103
f 44 104 107
f 44 107 108
f 44 108 109
f 44 109 110
f 44 110 45
f 45 110 109
f 45 109 108
f 45 108 107
f 45 107 164
f 45 164 240
f 45 240 249
f 45 249 248
f 45 248 247
f 45 247 246
f 45 246 245
f 45 245 323
f 45 323 341
f 45 341 272
f 45 272 208
f 45 208 137
f 45 137 136
f 45 136 135
f 45 135 112
f 45 112 111
f 45 111 49
f 45 49 48
f 45 48 47
f 45 47 46
f 49 111 50
f 50 111 112
f 50 112 135
f 50 135 71
f 51 102 52
f 52 102 53
f 53 102 113
f 53 113 114
f 53 114 54
f 54 114 115
f 54 115 116
f 54 116 55
f 55 117 56
f 55 116 117
f 56 117 57
f 57 117 118
f 57 118 119
f 57 119 58
f 58 119 120
f 58 120 121
f 58 121 122
f 58 122 59
f 59 122 60
f 60 122 123
f 60 123 61
f 61 123 62
f 62 123 124
f 62 124 63
f 63 124 125
f 63 125 64
f 64 125 126
f 64 126 65
f 65 126 127
f 65 127 66
f 66 127 128
f 66 128 67
f 67 128 68
f 68 128 129
f 68 129 130
f 68 130 131
f 68 131 69
f 69 131 130
f 69 130 70
f 70 132 133
f 70 133 196
f 70 196 268
f 70 268 326
f 70 326 260
f 70 260 259
f 70 259 324
f 70 324 396
f 70 396 335
f 70 335 334
f 70 334 406
f 70 406 405
f 70 405 404
f 70 404 403
f 70 403 402
f 70 402 401
f 70 401 400
f 70 400 399
f 70 399 417
f 70 417 411
f 70 411 367
f 70 367 306
f 70 306 241
f 70 241 165
f 70 165 106
f 70 106 105
f 70 130 132
f 71 134 72
f 71 135 136
f 71 136 137
f 71 137 138
f 71 138 139
f 71 139 140
f 71 140 141
f 71 141 73
f 71 73 134
f 72 134 73
f 73 141 142
f 73 142 143
f 73 143 75
f 73 75 74
f 75 77 76
f 75 143 144
f 75 144 145
f 75 145 77
f 77 145 78
f 78 80 79
f 78 145 146
f 78 146 81
f 81 146 147
f 81 147 148
f 81 148 149
f 81 149 87
f 81 87 82
f 83 84 85
f 84 89 150
f 84 150 151
f 84 151 152
f 84 152 153
f 84 153 85
f 85 153 86
f 86 153 92
f 87 149 88
f 88 149 89
f 89 149 150
f 91 92 154
f 91 154 155
f 91 155 156
f 91 156 94
f 92 153 157
f 92 157 154
f 94 156 158
f 94 158 159
f 94 159 160
f 94 160 95
f 95 160 161
f 95 161 97
f 97 161 98
f 98 161 99
f 99 161 162
f 99 162 114
f 99 114 100
f 100 114 101
f 101 114 113
f 101 113 102
f 103 106 163
f 103 163 164
f 103 164 104
f 104 164 107
f 106 165 166
f 106 166 167
f 106 167 168
f 106 168 169
f 106 169 170
f 106 170 171
f 106 171 172
f 106 172 163
f 114 173 115
f 114 162 174
f 114 174 175
f 114 175 176
f 114 176 173
f 115 173 116
f 116 177 178
f 116 178 179
f 116 179 117
f 116 173 177
f 117 179 180
f 117 180 181
f 117 181 118
f 118 181 180
f 118 180 119
f 119 182 121
f 119 121 120
f 119 180 183
f 119 183 184
f 119 184 185
f 119 185 124
f 119 124 182
f 121 182 122
f 122 182 123
f 123 182 124
f 124 186 187
f 124 187 188
f 124 188 189
f 124 189 190
f 124 190 125
f 124 185 191
f 124 191 192
f 124 192 193
f 124 193 186
f 125 190 126
f 126 190 194
f 126 194 127
f 127 194 189
f 127 189 129
f 127 129 128
f 129 188 130
f 129 189 188
f 130 195 132
f 130 188 195
f 132 195 133
f 133 195 196
f 137 197 198
f 137 198 199
f 137 199 200
f 137 200 201
f 137 201 202
f 137 202 203
f 137 203 204
f 137 204 205
f 137 205 206
f 137 206 207
f 137 207 138
f 137 208 209
f 137 209 210
f 137 210 211
f 137 211 212
f 137 212 213
f 137 213 214
f 137 214 215
f 137 215 197
f 138 207 139
f 139 216 140
f 139 207 206
f 139 206 216
f 140 216 217
f 140 217 218
f 140 218 219
f 140 219 141
f 141 219 220
f 141 220 221
f 141 221 142
f 142 221 222
f 142 222 223
f 142 223 224
f 142 224 143
f 143 224 155
f 143 155 225
f 143 225 151
f 143 151 144
f 144 226 145
f 144 151 226
f 145 226 146
f 146 226 227
f 146 227 147
f 147 227 150
f 147 150 148
f 148 150 149
f 150 227 151
f 151 228 152
f 151 227 226
f 151 225 155
f 151 155 228
f 152 228 155
f 152 155 154
f 152 154 157
f 152 157 153
f 155 229 230
f 155 230 231
f 155 231 232
f 155 232 156
f 155 224 229
f 156 232 233
f 156 233 158
f 158 233 159
f 159 233 234
f 159 234 235
f 159 235 236
f 159 236 237
f 159 237 160
f 160 238 161
f 160 237 239
f 160 239 192
f 160 192 174
f 160 174 238
f 161 238 174
f 161 174 162
f 163 172 164
f 164 172 240
f 165 241 242
f 165 242 166
f 166 242 322
f 166 322 342
f 166 342 273
f 166 273 243
f 166 243 167
f 167 244 245
f 167 245 246
f 167 246 247
f 167 247 248
f 167 248 249
f 167 249 240
f 167 240 168
f 167 243 244
f 168 240 169
f 169 240 170
f 170 240 171
f 171 240 172
f 173 176 177
f 174 192 250
f 174 250 251
f 174 251 175
f 175 251 176
f 176 251 252
f 176 252 177
f 177 252 253
f 177 253 178
f 178 253 179
f 179 253 180
f 180 253 252
f 180 252 254
f 180 254 183
f 183 254 263
f 183 263 192
f 183 192 255
f 183 255 184
f 184 255 256
f 184 256 185
f 185 256 257
f 185 257 258
f 185 258 191
f 186 193 187
f 187 259 260
f 187 260 261
f 187 261 195
f 187 195 188
f 187 193 262
f 187 262 259
f 189 194 190
f 191 258 192
f 192 263 252
f 192 252 251
f 192 251 250
f 192 239 264
f 192 264 265
f 192 265 266
f 192 266 193
f 192 258 267
f 192 267 255
f 193 266 262
f 195 261 268
f 195 268 269
f 195 269 196
f 196 269 268
f 197 215 198
f 198 215 199
f 199 215 270
f 199 270 200
f 200 270 201
f 201 270 202
f 202 270 203
f 203 270 204
f 204 270 205
f 205 270 216
f 205 216 206
f 208 271 209
f 208 272 273
f 208 273 274
f 208 274 275
f 208 275 276
f 208 276 271
f 209 271 277
f 209 277 210
f 210 277 278
f 210 278 211
f 211 279 280
f 211 280 281
f 211 281 212
f 211 278 279
f 212 281 213
f 213 281 214
f 214 281 282
f 214 282 215
f 215 282 270
f 216 270 283
f 216 283 217
f 217 284 218
f 217 283 285
f 217 285 284
f 218 284 285
f 218 285 286
f 218 286 219
f 219 286 222
f 219 222 220
f 220 222 221
f 222 286 287
f 222 287 288
f 222 288 223
f 223 289 224
f 223 288 289
f 224 289 229
f 229 290 291
f 229 291 292
f 229 292 293
f 229 293 294
f 229 294 230
f 229 289 295
f 229 295 296
f 229 296 297
f 229 297 290
f 230 294 298
f 230 298 233
f 230 233 232
f 230 232 231
f 233 298 299
f 233 299 234
f 234 299 235
f 235 300 236
f 235 299 300
f 236 300 301
f 236 301 237
f 237 301 239
f 239 301 300
f 239 300 302
f 239 302 303
f 239 303 304
f 239 304 305
f 239 305 264
f 241 306 307
f 241 307 242
f 242 307 308
f 242 308 309
f 242 309 310
f 242 310 311
f 242 311 312
f 242 312 313
f 242 313 314
f 242 314 315
f 242 315 316
f 242 316 317
f 242 317 318
f 242 318 319
f 242 319 320
f 242 320 321
f 242 321 322
f 243 273 244
f 244 273 323
f 244 323 245
f 252 263 254
f 255 267 258
f 255 258 256
f 256 258 257
f 259 262 325
f 259 325 324
f 260 326 327
f 260 327 261
f 261 327 268
f 262 266 325
f 264 305 304
f 264 304 303
f 264 303 328
f 264 328 329
f 264 329 330
f 264 330 265
f 265 330 331
f 265 331 332
f 265 332 266
f 266 332 333
f 266 333 334
f 266 334 335
f 266 335 325
f 268 327 326
f 270 282 336
f 270 336 283
f 271 276 337
f 271 337 338
f 271 338 339
f 271 339 340
f 271 340 278
f 271 278 277
f 272 341 273
f 273 342 274
f 273 341 323
f 274 342 275
f 275 343 276
f 275 342 343
f 276 343 337
f 278 344 279
f 278 340 339
f 278 339 342
f 278 342 344
f 279 345 281
f 279 281 280
f 279 344 342
f 279 342 346
f 279 346 321
f 279 321 345
f 281 345 336
f 281 336 282
f 283 347 348
f 283 348 285
f 283 336 347
f 285 348 349
f 285 349 287
f 285 287 286
f 287 349 295
f 287 295 288
f 288 295 289
f 290 350 351
f 290 351 291
f 290 297 350
f 291 351 350
f 291 350 352
f 291 352 353
f 291 353 354
f 291 354 292
f 292 354 293
f 293 354 355
f 293 355 356
f 293 356 357
f 293 357 294
f 294 357 298
f 295 349 358
f 295 358 296
f 296 358 297
f 297 358 359
f 297 359 352
f 297 352 350
f 298 357 360
f 298 360 361
f 298 361 299
f 299 361 362
f 299 362 363
f 299 363 329
f 299 329 364
f 299 364 365
f 299 365 366
f 299 366 300
f 300 366 302
f 302 364 303
f 302 366 365
f 302 365 364
f 303 364 328
f 306 367 368
f 306 368 308
f 306 308 307
f 308 368 367
f 308 367 369
f 308 369 370
f 308 370 309
f 309 370 371
f 309 371 372
f 309 372 373
f 309 373 310
f 310 373 311
f 311 374 375
f 311 375 376
f 311 376 312
f 311 373 377
f 311 377 378
f 311 378 374
f 312 376 313
f 313 376 379
f 313 379 314
f 314 379 380
f 314 380 315
f 315 380 316
f 316 380 381
f 316 381 317
f 317 381 361
f 317 361 382
f 317 382 383
f 317 383 355
f 317 355 318
f 318 355 384
f 318 384 319
f 319 385 386
f 319 386 387
f 319 387 388
f 319 388 320
f 319 384 389
f 319 389 390
f 319 390 391
f 319 391 385
f 320 388 392
f 320 392 321
f 321 346 322
f 321 392 393
f 321 393 394
f 321 394 395
f 321 395 345
f 322 346 342
f 324 325 396
f 325 335 396
f 328 364 329
f 329 363 374
f 329 374 397
f 329 397 378
f 329 378 330
f 330 378 331
f 331 378 398
f 331 398 399
f 331 399 332
f 332 399 400
f 332 400 401
f 332 401 402
f 332 402 403
f 332 403 404
f 332 404 405
f 332 405 406
f 332 406 333
f 333 406 334
f 336 345 347
f 337 343 342
f 337 342 338
f 338 342 339
f 345 395 347
f 347 395 348
f 348 358 349
f 348 395 394
f 348 394 407
f 348 407 359
f 348 359 358
f 352 359 408
f 352 408 353
f 353 407 354
f 353 408 359
f 353 359 407
f 354 407 389
f 354 389 355
f 355 409 384
f 355 383 360
f 355 360 410
f 355 410 357
f 355 357 356
f 355 389 409
f 357 410 360
f 360 383 382
f 360 382 361
f 361 381 380
f 361 380 362
f 362 380 379
f 362 379 374
f 362 374 363
f 367 411 412
f 367 412 369
f 369 413 371
f 369 371 370
f 369 412 413
f 371 413 372
f 372 413 414
f 372 414 378
f 372 378 377
f 372 377 373
f 374 378 397
f 374 379 375
f 375 379 376
f 378 414 399
f 378 399 398
f 384 409 389
f 385 391 393
f 385 393 415
f 385 415 416
f 385 416 386
f 386 416 387
f 387 416 392
f 387 392 388
f 389 407 394
f 389 394 393
f 389 393 391
f 389 391 390
f 392 416 393
f 393 416 415
f 399 414 418
f 399 418 417
f 411 417 412
f 412 417 418
f 412 418 414
f 412 414 413

