# https://github.com/mikedh/trimesh
v 0.27620346 -0.23152751 -0.07460366
v 0.28066823 -0.22665595 -0.07461636
v 0.28141446 -0.22581281 -0.07461636
v 0.28227452 -0.22467298 -0.07461636
v 0.28313459 -0.22337703 -0.07461636
v 0.28615748 -0.21830249 -0.07461636
v 0.28689105 -0.21702215 -0.07461636
v 0.28739697 -0.21610092 -0.07461636
v 0.28775113 -0.21538268 -0.07461636
v 0.28839617 -0.21393058 -0.07461636
v 0.28880090 -0.21286882 -0.07461636
v 0.28907918 -0.21199445 -0.07461636
v 0.28924360 -0.21140111 -0.07461636
v 0.26227798 -0.23152751 -0.07460366
v 0.27252288 -0.23554031 -0.07460366
v 0.26865259 -0.23622731 -0.09489245
v 0.28266662 -0.22389229 -0.07784326
v 0.28141446 -0.22579718 -0.07474341
v 0.28274251 -0.22397035 -0.07676340
v 0.28275514 -0.22401719 -0.07573435
v 0.28275514 -0.22401719 -0.07513725
v 0.28403260 -0.22201861 -0.07784326
v 0.28450057 -0.22123791 -0.07784326
v 0.28571479 -0.21911441 -0.07629334
v 0.28615748 -0.21833372 -0.07629334
v 0.28689105 -0.21702215 -0.07474341
v 0.28735902 -0.21616337 -0.07474341
v 0.28775113 -0.21538268 -0.07474341
v 0.28839617 -0.21393058 -0.07474341
v 0.28883885 -0.21277514 -0.07474341
v 0.28907918 -0.21199445 -0.07474341
v 0.28925624 -0.21140111 -0.07467989
v 0.30516748 -0.15550314 -0.07661095
v 0.30687494 -0.14412056 -0.07661095
v 0.30697613 -0.14257477 -0.07661095
v 0.30568603 -0.12505591 -0.07661095
v 0.30544572 -0.12365065 -0.07661095
v 0.30477537 -0.12210487 -0.07661095
v 0.30462361 -0.12180821 -0.07661095
v 0.30262521 -0.11796718 -0.07661095
v 0.30233430 -0.11745191 -0.07661095
v 0.27631730 -0.21140111 -0.07461636
v 0.24836514 -0.24542395 -0.07460366
v 0.24123166 -0.26936015 -0.07460366
v 0.26842493 -0.23594626 -0.09645508
v 0.28441203 -0.22106617 -0.08040953
v 0.28395670 -0.22198738 -0.07939319
v 0.28318519 -0.22292422 -0.07939319
v 0.23938504 -0.27056241 -0.07732238
v 0.26762809 -0.23672697 -0.09645508
v 0.28448793 -0.22120669 -0.07939319
v 0.28513299 -0.22012933 -0.07784326
v 0.28570214 -0.21903634 -0.07784326
v 0.28608159 -0.21827126 -0.07784326
v 0.28729580 -0.21600723 -0.07629334
v 0.28820645 -0.21393058 -0.07629334
v 0.28901593 -0.21171340 -0.07744942
v 0.28905388 -0.21186953 -0.07629334
v 0.28920565 -0.21140111 -0.07629334
v 0.28924360 -0.21140111 -0.07551837
v 0.28925624 -0.21140111 -0.07474341
v 0.30547101 -0.15550314 -0.08095582
v 0.30609078 -0.15002264 -0.08053657
v 0.30682435 -0.14412056 -0.07785597
v 0.30674847 -0.14412056 -0.07940589
v 0.30678642 -0.14257477 -0.07940589
v 0.30619195 -0.13792181 -0.08227707
v 0.30612872 -0.13690691 -0.08194675
v 0.30458566 -0.12141786 -0.07907558
v 0.30644491 -0.13946760 -0.08095582
v 0.30622990 -0.13814040 -0.08208650
v 0.30458566 -0.12141786 -0.07784326
v 0.30300465 -0.11837314 -0.07784326
v 0.30258727 -0.11760805 -0.07784326
v 0.23851233 -0.11743630 -0.15531416
v 0.28882620 -0.11745191 -0.07661095
v 0.30248607 -0.11745191 -0.07784326
v 0.28780172 -0.11748314 -0.07661095
v 0.24683474 -0.24698534 -0.07460366
v 0.24765685 -0.24614218 -0.07460366
v 0.24005538 -0.26946944 -0.07460366
v 0.23938504 -0.27056241 -0.07695396
v 0.25793971 -0.23177735 -0.12211779
v 0.26571824 -0.22559421 -0.11590539
v 0.26738778 -0.22423579 -0.11455872
v 0.26879173 -0.23485329 -0.09723004
v 0.26895615 -0.23516558 -0.09645508
v 0.25180541 -0.23647715 -0.12685650
v 0.28590450 -0.21789652 -0.08028248
v 0.28562626 -0.21884897 -0.07939319
v 0.28503180 -0.22012933 -0.07939319
v 0.27052451 -0.23207401 -0.09754766
v 0.27366122 -0.22593771 -0.09919921
v 0.27483748 -0.22372053 -0.09955493
v 0.27507780 -0.22261193 -0.10050776
v 0.28298281 -0.19937836 -0.11142076
v 0.23471791 -0.27209259 -0.08648219
v 0.23323809 -0.27213943 -0.08964557
v 0.28665074 -0.21702215 -0.07784326
v 0.28894004 -0.21155727 -0.07847848
v 0.28910446 -0.21140111 -0.07762729
v 0.28915505 -0.21140111 -0.07709371
v 0.30531924 -0.15550314 -0.08250575
v 0.30497774 -0.15188070 -0.08870546
v 0.30652081 -0.14412056 -0.08095582
v 0.30655875 -0.14257477 -0.08095582
v 0.30652081 -0.14101337 -0.08095582
v 0.30619195 -0.13814040 -0.08232788
v 0.30602753 -0.13881181 -0.08326800
v 0.30297935 -0.13826532 -0.09428264
v 0.30385207 -0.12085576 -0.08095582
v 0.30430740 -0.12088698 -0.07952023
v 0.30357381 -0.11929436 -0.07940589
v 0.30291612 -0.13814040 -0.09443510
v 0.30273905 -0.13781251 -0.09484163
v 0.23320016 -0.11743630 -0.15531416
v 0.23851233 -0.11743630 -0.16443586
v 0.28763728 -0.11745191 -0.07774163
v 0.17777647 -0.11743630 -0.18458489
v 0.30297935 -0.11838874 -0.07940589
v 0.30235960 -0.11745191 -0.07940589
v 0.23914473 -0.25891439 -0.07460366
v 0.23967595 -0.25758721 -0.07460366
v 0.23980244 -0.25727494 -0.07460366
v 0.24054865 -0.25604144 -0.07460366
v 0.24171229 -0.25426145 -0.07460366
v 0.24409011 -0.25063899 -0.07460366
v 0.24489959 -0.24946796 -0.07460366
v 0.24593672 -0.24806270 -0.07460366
v 0.23927122 -0.27056241 -0.07695396
v 0.23930916 -0.26901663 -0.07460366
v 0.23471791 -0.27209259 -0.08629162
v 0.25322198 -0.23477521 -0.12664052
v 0.25458798 -0.23293277 -0.12633563
v 0.26594591 -0.22465737 -0.11651519
v 0.26707159 -0.22375176 -0.11561318
v 0.26770399 -0.22322090 -0.11509231
v 0.26872848 -0.22236211 -0.11420300
v 0.26846287 -0.22325211 -0.11361861
v 0.22228490 -0.27362275 -0.10652960
v 0.22091891 -0.27376327 -0.10837173
v 0.21919878 -0.27363838 -0.11121749
v 0.21114198 -0.27509046 -0.12014862
v 0.22228490 -0.25191935 -0.14219060
v 0.22238609 -0.25046725 -0.14385487
v 0.22406827 -0.23664889 -0.15793125
v 0.22557339 -0.23507189 -0.15791854
v 0.25196984 -0.22111301 -0.14238117
v 0.25210896 -0.23554031 -0.12741549
v 0.28737167 -0.21464882 -0.08000299
v 0.28848471 -0.21140111 -0.08101934
v 0.28713138 -0.21538268 -0.07945671
v 0.27038537 -0.21944230 -0.11440628
v 0.27202961 -0.21650689 -0.11457142
v 0.27335766 -0.21457076 -0.11407596
v 0.27048656 -0.20716973 -0.12697084
v 0.27066363 -0.20599868 -0.12749171
v 0.29884344 -0.15038175 -0.11053146
v 0.29902053 -0.15036614 -0.11018844
v 0.29962762 -0.15031930 -0.10885449
v 0.29989323 -0.16371608 -0.09734438
v 0.28369111 -0.19837907 -0.11041712
v 0.27363592 -0.21352461 -0.11473658
v 0.27338296 -0.21300935 -0.11577834
v 0.22387856 -0.27365398 -0.10350598
v 0.28887679 -0.21140111 -0.07939319
v 0.30448447 -0.15422279 -0.08954393
v 0.30481332 -0.15342647 -0.08870546
v 0.30462361 -0.15342647 -0.08973450
v 0.30472478 -0.15188070 -0.08986154
v 0.30450976 -0.14313688 -0.08956934
v 0.29950115 -0.14877351 -0.10885449
v 0.29063487 -0.12283873 -0.11286905
v 0.30306789 -0.11988769 -0.08195946
v 0.30325761 -0.11934120 -0.08080337
v 0.30241020 -0.13637604 -0.09490515
v 0.30175251 -0.13643849 -0.09649319
v 0.30291612 -0.11851366 -0.08020627
v 0.29884344 -0.14874230 -0.11051875
v 0.23490765 -0.11743630 -0.16880614
v 0.30172721 -0.11745191 -0.08119721
v 0.29215264 -0.11745191 -0.10356949
v 0.28275514 -0.11745191 -0.12202886
v 0.26881701 -0.11745191 -0.14086936
v 0.17777647 -0.11743630 -0.19796254
v 0.17776382 -0.14722774 -0.18890436
v 0.17778912 -0.26931331 -0.14849195
v 0.17780177 -0.27440345 -0.14403273
v 0.23910678 -0.25907054 -0.07460366
v 0.23461674 -0.27209259 -0.08629162
v 0.17780177 -0.27683924 -0.14512530
v 0.17780177 -0.27690169 -0.14527775
v 0.23874000 -0.26815787 -0.07460366
v 0.21153408 -0.27519977 -0.11890360
v 0.22387856 -0.27365398 -0.10322648
v 0.25299432 -0.22039475 -0.14174595
v 0.26880438 -0.21005832 -0.12675486
v 0.21153408 -0.27519977 -0.11911957
v 0.19130986 -0.27674555 -0.13759165
v 0.20968746 -0.27512169 -0.12182559
v 0.20355316 -0.25493284 -0.15753741
v 0.20527329 -0.25349635 -0.15772798
v 0.20676576 -0.27516853 -0.12511601
v 0.20526065 -0.27519977 -0.12672946
v 0.20068206 -0.27524661 -0.13148087
v 0.22085567 -0.25045162 -0.14543021
v 0.21756719 -0.24409676 -0.15606371
v 0.20691753 -0.25199743 -0.15780420
v 0.20373025 -0.25348074 -0.15927790
v 0.20670252 -0.23791363 -0.17315102
v 0.22425799 -0.23524363 -0.15906193
v 0.22456155 -0.23558714 -0.15843943
v 0.22523189 -0.23524363 -0.15809641
v 0.22508012 -0.23440048 -0.15894759
v 0.25328523 -0.21936425 -0.14219060
v 0.22545955 -0.23336996 -0.15929061
v 0.22831802 -0.22685894 -0.16066267
v 0.29975411 -0.16466852 -0.09674727
v 0.29996913 -0.16404397 -0.09674727
v 0.27010711 -0.20640465 -0.12799988
v 0.27033478 -0.20538974 -0.12827938
v 0.27650702 -0.17730023 -0.13130301
v 0.29841341 -0.14989772 -0.11125560
v 0.29841341 -0.14924193 -0.11125560
v 0.29900788 -0.14905456 -0.11018844
v 0.28592980 -0.13687567 -0.12692002
v 0.27345885 -0.12160523 -0.13916698
v 0.28549977 -0.13793743 -0.12786014
v 0.23421199 -0.11743630 -0.16958110
v 0.26877908 -0.11854489 -0.14220331
v 0.27032213 -0.12166768 -0.14375323
v 0.26810872 -0.11745191 -0.14154268
v 0.23345312 -0.11743630 -0.17033066
v 0.18583327 -0.11743630 -0.19726381
v 0.17777647 -0.12981816 -0.20400979
v 0.17777647 -0.13027097 -0.20417495
v 0.17777647 -0.13083308 -0.20426388
v 0.17777647 -0.13172308 -0.20439092
v 0.17777647 -0.19684891 -0.20157057
v 0.17777647 -0.19800433 -0.20145623
v 0.17777647 -0.19834785 -0.20140541
v 0.17777647 -0.19922222 -0.20125296
v 0.17777647 -0.19972188 -0.20115132
v 0.17777647 -0.20571763 -0.19971573
v 0.17777647 -0.21057359 -0.19854694
v 0.17777647 -0.21544513 -0.19736544
v 0.17777647 -0.21706899 -0.19688267
v 0.17777647 -0.21780284 -0.19664129
v 0.17777647 -0.21819320 -0.19650154
v 0.17777647 -0.22966946 -0.19167391
v 0.17777647 -0.23265172 -0.19040347
v 0.17777647 -0.23594626 -0.18890436
v 0.17777647 -0.23717976 -0.18831997
v 0.17777647 -0.23821028 -0.18773557
v 0.17777647 -0.23847573 -0.18757041
v 0.17777647 -0.23927204 -0.18698602
v 0.17777647 -0.25241899 -0.17665742
v 0.17777647 -0.25390232 -0.17527265
v 0.17777647 -0.25423022 -0.17484069
v 0.17777647 -0.25474548 -0.17401490
v 0.17777647 -0.25533880 -0.17298586
v 0.17778912 -0.27552766 -0.14845383
v 0.17778912 -0.27059365 -0.14845383
v 0.17780177 -0.27591800 -0.14454090
v 0.23772815 -0.26751770 -0.07541674
v 0.23825937 -0.26664332 -0.07460366
v 0.23825937 -0.26659647 -0.07460366
v 0.23834791 -0.26519121 -0.07460366
v 0.23868940 -0.26178738 -0.07460366
v 0.23887912 -0.26030404 -0.07460366
v 0.18015430 -0.27687045 -0.14356268
v 0.18301275 -0.27691731 -0.14188570
v 0.18771782 -0.27690169 -0.13883667
v 0.21139494 -0.27519977 -0.11890360
v 0.17780177 -0.27624590 -0.14471876
v 0.17780177 -0.27691731 -0.14611624
v 0.17963573 -0.27694853 -0.14449008
v 0.18120409 -0.27693292 -0.14324506
v 0.23870205 -0.26807981 -0.07460366
v 0.19050040 -0.27677677 -0.13746460
v 0.19130986 -0.27674555 -0.13750272
v 0.19910105 -0.27521538 -0.13296728
v 0.18864114 -0.27690169 -0.13947188
v 0.18798343 -0.27662063 -0.14050094
v 0.18905852 -0.27640203 -0.13992923
v 0.20250337 -0.25522950 -0.15799477
v 0.20298399 -0.25455811 -0.15849024
v 0.20194687 -0.25335583 -0.16067538
v 0.20039115 -0.25024865 -0.16529975
v 0.20049234 -0.24874971 -0.16692590
v 0.20056822 -0.24725076 -0.16853935
v 0.20230100 -0.24278519 -0.17177895
v 0.20080855 -0.25515143 -0.15939224
v 0.20567804 -0.23827275 -0.17344322
v 0.20605748 -0.23722660 -0.17401490
v 0.20723374 -0.23688310 -0.17355756
v 0.20825823 -0.23630539 -0.17313831
v 0.22865951 -0.22581281 -0.16092947
v 0.22233549 -0.20854376 -0.17480258
v 0.22249991 -0.20768499 -0.17495503
v 0.23928387 -0.20768499 -0.15916356
v 0.27502720 -0.17291271 -0.13449179
v 0.27506515 -0.17764373 -0.13299269
v 0.27517897 -0.17667567 -0.13317055
v 0.28305870 -0.14722774 -0.13018503
v 0.28471559 -0.14106021 -0.12871133
v 0.28556302 -0.13949882 -0.12777121
v 0.27663349 -0.15937540 -0.13615606
v 0.27673468 -0.15809504 -0.13633392
v 0.27681058 -0.15653367 -0.13648637
v 0.27053716 -0.12268259 -0.14403273
v 0.27058774 -0.12396294 -0.14410896
v 0.28479148 -0.13949882 -0.12871133
v 0.25487889 -0.13244131 -0.16085324
v 0.23231479 -0.11743630 -0.17119455
v 0.18707278 -0.11743630 -0.19698431
v 0.18738897 -0.11743630 -0.19689538
v 0.18829964 -0.11743630 -0.19653965
v 0.19662205 -0.11743630 -0.19296973
v 0.19619200 -0.11932558 -0.19349062
v 0.20604483 -0.13781251 -0.19167391
v 0.20556420 -0.13824971 -0.19194069
v 0.20694283 -0.17512989 -0.19190258
v 0.17892744 -0.19777012 -0.20116402
v 0.17808003 -0.19684891 -0.20149434
v 0.17811796 -0.19833223 -0.20132918
v 0.17867448 -0.19881627 -0.20107509
v 0.17811796 -0.20003415 -0.20098616
v 0.17808003 -0.20148625 -0.20066855
v 0.17976222 -0.21560126 -0.19679374
v 0.18036931 -0.21619460 -0.19646343
v 0.17813061 -0.21710021 -0.19679374
v 0.17868713 -0.21766231 -0.19643802
v 0.19137311 -0.22409527 -0.19032724
v 0.19132251 -0.22713999 -0.18875190
v 0.17909186 -0.23810099 -0.18727820
v 0.17808003 -0.23919397 -0.18690979
v 0.17900333 -0.25204425 -0.17641603
v 0.19879751 -0.24554885 -0.17151216
v 0.19878486 -0.24712586 -0.16994953
v 0.19767182 -0.24892147 -0.16866640
v 0.19449717 -0.25354319 -0.16552843
v 0.19132251 -0.25813371 -0.16236505
v 0.18923559 -0.26095983 -0.16048481
v 0.17778912 -0.26756453 -0.15957011
v 0.17780177 -0.27651132 -0.14725963
v 0.17780177 -0.27687045 -0.14662441
v 0.17780177 -0.27691731 -0.14635762
v 0.18431550 -0.27694853 -0.14140293
v 0.18430285 -0.27690169 -0.14248280
v 0.18695894 -0.27687045 -0.14086936
v 0.17877567 -0.26736155 -0.15917627
v 0.19000713 -0.26136580 -0.15945577
v 0.19104427 -0.26108475 -0.15906193
v 0.19299207 -0.25974194 -0.15935413
v 0.19595171 -0.25810247 -0.15925249
v 0.19889868 -0.25647863 -0.15913815
v 0.19812715 -0.24951480 -0.16768817
v 0.19946785 -0.24906199 -0.16728163
v 0.19953110 -0.24609534 -0.17048312
v 0.19753270 -0.24420606 -0.17325265
v 0.19439599 -0.25502653 -0.16390227
v 0.19122134 -0.25963265 -0.16075160
v 0.18828699 -0.23647715 -0.18414026
v 0.18931149 -0.23610242 -0.18387346
v 0.20539978 -0.23653960 -0.17485340
v 0.20644956 -0.23602434 -0.17458660
v 0.20756260 -0.23564960 -0.17401490
v 0.20828353 -0.23324506 -0.17473906
v 0.20991512 -0.22720244 -0.17636521
v 0.20988983 -0.22403282 -0.17787703
v 0.21013014 -0.22322090 -0.17805489
v 0.21149614 -0.22101932 -0.17791514
v 0.21068666 -0.22159703 -0.17828355
v 0.20940920 -0.22167511 -0.17913475
v 0.19457306 -0.22278369 -0.18886625
v 0.19485132 -0.22167511 -0.18904411
v 0.19918959 -0.21811512 -0.18727820
v 0.20065676 -0.21489864 -0.18722739
v 0.19953110 -0.21082340 -0.18905681
v 0.19745681 -0.20535852 -0.19182635
v 0.21004161 -0.17925196 -0.19040347
v 0.22545955 -0.18379563 -0.17791514
v 0.22714174 -0.18404545 -0.17654307
v 0.24290120 -0.16426257 -0.16740867
v 0.24305297 -0.16274802 -0.16759924
v 0.25499271 -0.13425253 -0.16100569
v 0.26989210 -0.12396294 -0.14488392
v 0.25499271 -0.13328447 -0.16100569
v 0.26475699 -0.12863151 -0.15052463
v 0.26845022 -0.12552433 -0.14651008
v 0.21919878 -0.11743630 -0.18098958
v 0.21422810 -0.11743630 -0.18396239
v 0.21432929 -0.11776419 -0.18398780
v 0.21530319 -0.11743630 -0.18340340
v 0.20749935 -0.13793743 -0.19088624
v 0.20632309 -0.13949882 -0.19158496
v 0.21009219 -0.17822146 -0.19044158
v 0.20911829 -0.17822146 -0.19087353
v 0.20689224 -0.17611357 -0.19187717
v 0.18655421 -0.20033082 -0.19800065
v 0.18221594 -0.19967504 -0.19969032
v 0.18133056 -0.20008099 -0.19991901
v 0.17962308 -0.19992485 -0.20052880
v 0.18023019 -0.20357853 -0.19952517
v 0.18370841 -0.21190077 -0.19656506
v 0.18335425 -0.21293129 -0.19643802
v 0.18231711 -0.21355584 -0.19659047
v 0.18273451 -0.21547636 -0.19599336
v 0.18520088 -0.21638197 -0.19498973
v 0.18413844 -0.21695968 -0.19510407
v 0.19165136 -0.22322090 -0.19045429
v 0.19244820 -0.22322090 -0.19008587
v 0.19195492 -0.22468860 -0.18975556
v 0.19191698 -0.22623439 -0.18896788
v 0.18977946 -0.22098809 -0.19185176
v 0.18965297 -0.23327627 -0.18560125
v 0.18515028 -0.23646152 -0.18566476
v 0.19291617 -0.22567229 -0.18879002
v 0.19235965 -0.22670281 -0.18845970
v 0.18642772 -0.23785116 -0.18398780
v 0.18665540 -0.23953747 -0.18255222
v 0.18727515 -0.24022449 -0.18168831
v 0.19610348 -0.24545516 -0.17298586
v 0.18043256 -0.27672994 -0.14530316
v 0.17861123 -0.27657379 -0.14667522
v 0.17963573 -0.27687045 -0.14555725
v 0.19669792 -0.24447150 -0.17346863
v 0.19096837 -0.24088028 -0.17927450
v 0.18898263 -0.23870994 -0.18201863
v 0.18738897 -0.23677381 -0.18435621
v 0.18998183 -0.23507189 -0.18422917
v 0.20686696 -0.23499382 -0.17482799
v 0.19318178 -0.22478229 -0.18901870
v 0.19367506 -0.22326772 -0.18928549
v 0.19271381 -0.22225282 -0.19022560
v 0.19464895 -0.21702215 -0.19044158
v 0.19585052 -0.22072265 -0.18867570
v 0.19677382 -0.21057359 -0.19086083
v 0.19619200 -0.20768499 -0.19199151
v 0.19668528 -0.20459342 -0.19247428
v 0.24264824 -0.15809504 -0.16870451
v 0.24242058 -0.16039030 -0.16855206
v 0.19597699 -0.20239187 -0.19340169
v 0.19278968 -0.20220450 -0.19491350
v 0.18902058 -0.20145503 -0.19678104
v 0.18738897 -0.20148625 -0.19750517
v 0.24218026 -0.16274802 -0.16836149
v 0.24273676 -0.15653367 -0.16871721
v 0.21642886 -0.11743630 -0.18273008
v 0.18628860 -0.20148625 -0.19792442
v 0.18427756 -0.20148625 -0.19862317
v 0.18429021 -0.21393058 -0.19590445
v 0.18577003 -0.20301642 -0.19778467
v 0.18474553 -0.21110446 -0.19637449
v 0.18429021 -0.21547636 -0.19553602
v 0.18814787 -0.21775599 -0.19337628
v 0.18545382 -0.21547636 -0.19510407
v 0.19213199 -0.22170633 -0.19063215
v 0.19447189 -0.21182269 -0.19188987
v 0.19516751 -0.20295397 -0.19365578
v 0.18859055 -0.20303203 -0.19667940
v 0.18961504 -0.20195467 -0.19642531
v 0.18738897 -0.20303203 -0.19717488
v 0.18641507 -0.20816902 -0.19641261
v 0.18583327 -0.20459342 -0.19741626
v 0.19204347 -0.22012933 -0.19105140
v 0.18623800 -0.21547636 -0.19476105
v 0.18671863 -0.20713852 -0.19652695
f 1 2 3
f 1 3 4
f 1 4 5
f 1 5 6
f 1 6 7
f 1 7 8
f 1 8 9
f 1 9 10
f 1 10 11
f 1 11 12
f 1 12 13
f 1 13 42
f 1 42 14
f 1 14 43
f 1 43 80
f 1 80 79
f 1 79 129
f 1 129 128
f 1 128 127
f 1 127 126
f 1 126 125
f 1 125 124
f 1 124 123
f 1 123 122
f 1 122 189
f 1 189 270
f 1 270 269
f 1 269 268
f 1 268 267
f 1 267 266
f 1 266 279
f 1 279 193
f 1 193 131
f 1 131 81
f 1 81 44
f 1 44 15
f 1 15 16
f 1 16 2
f 2 16 17
f 2 17 18
f 2 18 3
f 3 18 19
f 3 19 20
f 3 20 4
f 4 20 21
f 4 21 5
f 5 21 22
f 5 22 23
f 5 23 6
f 6 23 24
f 6 24 7
f 7 24 25
f 7 25 26
f 7 26 8
f 8 27 28
f 8 28 9
f 8 26 25
f 8 25 27
f 9 28 29
f 9 29 10
f 10 29 30
f 10 30 11
f 11 30 12
f 12 30 31
f 12 31 61
f 12 61 32
f 12 32 33
f 12 33 13
f 13 33 34
f 13 34 35
f 13 35 36
f 13 36 37
f 13 37 38
f 13 38 39
f 13 39 40
f 13 40 41
f 13 41 76
f 13 76 42
f 14 42 43
f 15 44 16
f 16 45 46
f 16 46 47
f 16 47 48
f 16 48 17
f 16 44 49
f 16 49 50
f 16 50 45
f 17 48 47
f 17 47 19
f 17 19 18
f 19 47 22
f 19 22 20
f 20 22 21
f 22 47 51
f 22 51 23
f 23 51 52
f 23 52 24
f 24 52 25
f 25 52 51
f 25 51 53
f 25 53 27
f 27 53 28
f 28 53 54
f 28 54 55
f 28 55 29
f 29 55 56
f 29 56 57
f 29 57 30
f 30 57 58
f 30 58 59
f 30 59 60
f 30 60 31
f 31 60 61
f 32 61 62
f 32 62 33
f 33 62 34
f 34 63 64
f 34 64 35
f 34 62 63
f 35 64 65
f 35 65 66
f 35 66 36
f 36 67 68
f 36 68 69
f 36 69 37
f 36 66 70
f 36 70 71
f 36 71 67
f 37 69 72
f 37 72 38
f 38 72 39
f 39 72 73
f 39 73 40
f 40 73 74
f 40 74 41
f 41 75 116
f 41 116 76
f 41 74 77
f 41 77 75
f 42 76 78
f 42 78 79
f 42 79 80
f 42 80 43
f 44 81 82
f 44 82 49
f 45 83 84
f 45 84 85
f 45 85 86
f 45 86 87
f 45 87 46
f 45 50 88
f 45 88 83
f 46 89 90
f 46 90 91
f 46 91 51
f 46 51 47
f 46 87 92
f 46 92 93
f 46 93 94
f 46 94 95
f 46 95 96
f 46 96 89
f 49 82 132
f 49 132 97
f 49 97 50
f 50 97 98
f 50 98 88
f 51 91 53
f 53 91 54
f 54 91 90
f 54 90 99
f 54 99 55
f 55 99 56
f 56 99 57
f 57 100 101
f 57 101 102
f 57 102 58
f 57 99 100
f 58 102 59
f 59 102 62
f 59 62 60
f 60 62 61
f 62 103 63
f 62 102 101
f 62 101 103
f 63 104 65
f 63 65 64
f 63 103 104
f 65 105 106
f 65 106 66
f 65 104 105
f 66 106 107
f 66 107 70
f 67 69 68
f 67 71 107
f 67 107 108
f 67 108 109
f 67 109 110
f 67 110 69
f 69 111 112
f 69 112 113
f 69 113 72
f 69 110 114
f 69 114 115
f 69 115 111
f 70 107 71
f 72 113 73
f 73 113 74
f 74 113 77
f 75 77 117
f 75 117 180
f 75 180 229
f 75 229 233
f 75 233 315
f 75 315 392
f 75 392 450
f 75 450 395
f 75 395 393
f 75 393 319
f 75 319 318
f 75 318 317
f 75 317 316
f 75 316 234
f 75 234 185
f 75 185 119
f 75 119 116
f 76 118 78
f 76 116 119
f 76 119 118
f 77 113 120
f 77 120 121
f 77 121 117
f 78 118 119
f 78 119 122
f 78 122 123
f 78 123 124
f 78 124 125
f 78 125 126
f 78 126 127
f 78 127 128
f 78 128 129
f 78 129 79
f 81 130 82
f 81 131 130
f 82 130 190
f 82 190 132
f 83 88 133
f 83 133 134
f 83 134 135
f 83 135 84
f 84 135 136
f 84 136 85
f 85 136 137
f 85 137 138
f 85 138 139
f 85 139 93
f 85 93 92
f 85 92 86
f 86 92 87
f 88 98 140
f 88 140 141
f 88 141 142
f 88 142 143
f 88 143 144
f 88 144 145
f 88 145 146
f 88 146 147
f 88 147 148
f 88 148 149
f 88 149 133
f 89 150 90
f 89 96 151
f 89 151 150
f 90 150 152
f 90 152 99
f 93 139 95
f 93 95 94
f 95 139 138
f 95 138 153
f 95 153 154
f 95 154 155
f 95 155 96
f 96 156 157
f 96 157 158
f 96 158 159
f 96 159 160
f 96 160 161
f 96 161 162
f 96 162 151
f 96 155 163
f 96 163 164
f 96 164 156
f 97 132 195
f 97 195 165
f 97 165 98
f 98 165 140
f 99 152 166
f 99 166 100
f 100 166 101
f 101 166 103
f 103 167 168
f 103 168 104
f 103 166 167
f 104 168 169
f 104 169 170
f 104 170 109
f 104 109 106
f 104 106 105
f 106 109 108
f 106 108 107
f 109 170 171
f 109 171 160
f 109 160 110
f 110 160 172
f 110 172 114
f 111 173 174
f 111 174 175
f 111 175 112
f 111 115 176
f 111 176 177
f 111 177 173
f 112 175 113
f 113 175 178
f 113 178 120
f 114 172 115
f 115 172 179
f 115 179 176
f 117 121 181
f 117 181 182
f 117 182 183
f 117 183 184
f 117 184 180
f 119 185 186
f 119 186 187
f 119 187 188
f 119 188 189
f 119 189 122
f 120 178 121
f 121 178 181
f 130 131 191
f 130 191 192
f 130 192 190
f 131 193 191
f 132 190 274
f 132 274 194
f 132 194 195
f 133 149 196
f 133 196 134
f 134 196 135
f 135 196 197
f 135 197 136
f 136 197 156
f 136 156 137
f 137 153 138
f 137 156 153
f 140 165 198
f 140 198 141
f 141 198 143
f 141 143 142
f 143 198 199
f 143 199 200
f 143 200 144
f 144 201 202
f 144 202 145
f 144 200 203
f 144 203 204
f 144 204 205
f 144 205 201
f 145 202 206
f 145 206 207
f 145 207 146
f 146 207 208
f 146 208 209
f 146 209 210
f 146 210 211
f 146 211 212
f 146 212 213
f 146 213 147
f 147 213 211
f 147 211 214
f 147 214 148
f 148 215 196
f 148 196 149
f 148 214 216
f 148 216 217
f 148 217 215
f 150 151 166
f 150 166 152
f 151 162 218
f 151 218 219
f 151 219 166
f 153 156 154
f 154 164 163
f 154 163 155
f 154 156 164
f 156 197 196
f 156 196 215
f 156 215 220
f 156 220 157
f 157 220 221
f 157 221 158
f 158 222 223
f 158 223 224
f 158 224 179
f 158 179 159
f 158 221 222
f 159 179 225
f 159 225 160
f 160 225 172
f 160 171 170
f 160 170 169
f 160 169 161
f 161 167 219
f 161 219 218
f 161 218 162
f 161 169 167
f 165 195 194
f 165 194 198
f 166 219 167
f 167 169 168
f 172 225 179
f 173 177 179
f 173 179 226
f 173 226 227
f 173 227 183
f 173 183 182
f 173 182 174
f 174 182 175
f 175 182 181
f 175 181 178
f 176 179 177
f 179 224 228
f 179 228 226
f 180 184 229
f 183 230 184
f 183 227 231
f 183 231 230
f 184 232 233
f 184 233 229
f 184 230 232
f 185 234 235
f 185 235 186
f 186 235 236
f 186 236 237
f 186 237 238
f 186 238 239
f 186 239 240
f 186 240 241
f 186 241 242
f 186 242 243
f 186 243 244
f 186 244 245
f 186 245 246
f 186 246 247
f 186 247 248
f 186 248 249
f 186 249 250
f 186 250 251
f 186 251 252
f 186 252 253
f 186 253 254
f 186 254 255
f 186 255 256
f 186 256 257
f 186 257 258
f 186 258 259
f 186 259 260
f 186 260 261
f 186 261 262
f 186 262 263
f 186 263 187
f 187 263 188
f 188 263 262
f 188 262 264
f 188 264 265
f 188 265 266
f 188 266 267
f 188 267 268
f 188 268 269
f 188 269 270
f 188 270 189
f 190 192 271
f 190 271 272
f 190 272 273
f 190 273 274
f 191 275 262
f 191 262 192
f 191 193 275
f 192 276 277
f 192 277 278
f 192 278 272
f 192 272 271
f 192 262 276
f 193 279 264
f 193 264 275
f 194 274 273
f 194 273 280
f 194 280 281
f 194 281 199
f 194 199 198
f 199 282 205
f 199 205 204
f 199 204 203
f 199 203 200
f 199 281 283
f 199 283 284
f 199 284 285
f 199 285 201
f 199 201 282
f 201 286 287
f 201 287 209
f 201 209 202
f 201 205 282
f 201 285 286
f 202 209 208
f 202 208 206
f 206 208 207
f 209 288 289
f 209 289 290
f 209 290 291
f 209 291 292
f 209 292 210
f 209 287 293
f 209 293 288
f 210 292 294
f 210 294 295
f 210 295 296
f 210 296 297
f 210 297 211
f 211 213 212
f 211 297 214
f 214 297 216
f 215 217 298
f 215 298 299
f 215 299 300
f 215 300 301
f 215 301 302
f 215 302 303
f 215 303 221
f 215 221 220
f 216 297 217
f 217 297 298
f 221 303 222
f 222 303 304
f 222 304 302
f 222 302 223
f 223 305 306
f 223 306 307
f 223 307 228
f 223 228 224
f 223 302 308
f 223 308 309
f 223 309 310
f 223 310 305
f 226 228 311
f 226 311 227
f 227 311 231
f 228 312 311
f 228 307 313
f 228 313 312
f 230 233 232
f 230 231 233
f 231 311 314
f 231 314 233
f 233 314 315
f 234 316 235
f 235 316 236
f 236 316 317
f 236 317 318
f 236 318 319
f 236 319 320
f 236 320 321
f 236 321 237
f 237 321 238
f 238 321 322
f 238 322 323
f 238 323 324
f 238 324 325
f 238 325 239
f 239 325 240
f 240 325 326
f 240 326 241
f 241 326 242
f 242 326 327
f 242 327 243
f 243 327 328
f 243 328 329
f 243 329 244
f 244 329 245
f 245 329 330
f 245 330 246
f 246 330 331
f 246 331 332
f 246 332 247
f 247 332 248
f 248 332 333
f 248 333 249
f 249 333 334
f 249 334 250
f 250 334 251
f 251 334 252
f 252 334 253
f 253 334 335
f 253 335 254
f 254 335 336
f 254 336 255
f 255 336 256
f 256 336 337
f 256 337 338
f 256 338 257
f 257 338 258
f 258 338 339
f 258 339 340
f 258 340 341
f 258 341 342
f 258 342 343
f 258 343 344
f 258 344 345
f 258 345 259
f 259 345 262
f 259 262 260
f 260 262 261
f 262 346 347
f 262 347 348
f 262 348 276
f 262 275 264
f 262 345 346
f 264 279 265
f 265 279 266
f 272 278 349
f 272 349 273
f 273 349 283
f 273 283 280
f 276 348 277
f 277 349 278
f 277 348 350
f 277 350 349
f 280 283 281
f 283 349 350
f 283 350 351
f 283 351 284
f 284 351 352
f 284 352 353
f 284 353 354
f 284 354 355
f 284 355 356
f 284 356 357
f 284 357 286
f 284 286 285
f 286 357 293
f 286 293 287
f 288 358 289
f 288 293 358
f 289 358 359
f 289 359 340
f 289 340 290
f 290 340 291
f 291 340 360
f 291 360 292
f 292 360 339
f 292 339 361
f 292 361 294
f 293 362 358
f 293 357 363
f 293 363 362
f 294 364 365
f 294 365 295
f 294 361 364
f 295 366 367
f 295 367 296
f 295 365 366
f 296 367 368
f 296 368 297
f 297 368 369
f 297 369 298
f 298 369 370
f 298 370 299
f 299 370 371
f 299 371 372
f 299 372 373
f 299 373 374
f 299 374 375
f 299 375 376
f 299 376 377
f 299 377 378
f 299 378 300
f 300 378 379
f 300 379 380
f 300 380 381
f 300 381 382
f 300 382 383
f 300 383 384
f 300 384 385
f 300 385 301
f 301 385 302
f 302 385 308
f 302 304 303
f 305 310 306
f 306 313 307
f 306 310 313
f 308 385 386
f 308 386 309
f 309 386 387
f 309 387 310
f 310 387 313
f 311 312 388
f 311 388 389
f 311 389 314
f 312 313 388
f 313 387 390
f 313 390 391
f 313 391 388
f 314 389 392
f 314 392 315
f 319 393 394
f 319 394 321
f 319 321 320
f 321 394 395
f 321 395 396
f 321 396 397
f 321 397 322
f 322 397 398
f 322 398 323
f 323 398 399
f 323 399 400
f 323 400 324
f 324 327 326
f 324 326 325
f 324 400 399
f 324 399 401
f 324 401 402
f 324 402 327
f 327 402 403
f 327 403 404
f 327 404 328
f 328 404 405
f 328 405 406
f 328 406 329
f 329 406 407
f 329 407 408
f 329 408 330
f 330 408 409
f 330 409 331
f 331 410 411
f 331 411 333
f 331 333 332
f 331 409 410
f 333 411 334
f 334 412 413
f 334 413 414
f 334 414 415
f 334 415 335
f 334 411 410
f 334 410 416
f 334 416 412
f 335 417 418
f 335 418 336
f 335 415 419
f 335 419 420
f 335 420 366
f 335 366 417
f 336 418 421
f 336 421 337
f 337 421 338
f 338 421 422
f 338 422 423
f 338 423 424
f 338 424 339
f 339 360 340
f 339 424 361
f 340 359 358
f 340 358 341
f 341 358 342
f 342 362 363
f 342 363 343
f 342 358 362
f 343 363 344
f 344 363 353
f 344 353 345
f 345 353 352
f 345 352 351
f 345 351 425
f 345 425 426
f 345 426 346
f 346 426 427
f 346 427 347
f 347 427 348
f 348 427 350
f 350 427 351
f 351 427 425
f 353 363 355
f 353 355 354
f 355 363 356
f 356 363 357
f 361 424 428
f 361 428 429
f 361 429 430
f 361 430 364
f 364 430 422
f 364 422 431
f 364 431 418
f 364 418 417
f 364 417 432
f 364 432 365
f 365 432 366
f 366 432 417
f 366 420 367
f 367 420 419
f 367 419 433
f 367 433 368
f 368 433 369
f 369 433 419
f 369 419 434
f 369 434 371
f 369 371 370
f 371 434 372
f 372 434 376
f 372 376 375
f 372 375 374
f 372 374 373
f 376 434 435
f 376 435 413
f 376 413 377
f 377 413 436
f 377 436 437
f 377 437 438
f 377 438 378
f 378 438 380
f 378 380 379
f 380 439 381
f 380 438 437
f 380 437 439
f 381 439 440
f 381 440 441
f 381 441 382
f 382 399 398
f 382 398 442
f 382 442 443
f 382 443 383
f 382 441 444
f 382 444 445
f 382 445 446
f 382 446 447
f 382 447 401
f 382 401 399
f 383 443 448
f 383 448 384
f 384 448 385
f 385 448 386
f 386 448 443
f 386 443 442
f 386 442 387
f 387 389 390
f 387 442 449
f 387 449 398
f 387 398 389
f 388 391 389
f 389 391 390
f 389 398 396
f 389 396 450
f 389 450 392
f 393 395 394
f 395 450 396
f 396 398 397
f 398 449 442
f 401 447 451
f 401 451 402
f 402 451 452
f 402 452 403
f 403 452 404
f 404 452 406
f 404 406 405
f 406 453 407
f 406 452 454
f 406 454 455
f 406 455 453
f 407 453 456
f 407 456 408
f 408 456 409
f 409 456 410
f 410 457 416
f 410 456 453
f 410 453 458
f 410 458 457
f 412 459 436
f 412 436 413
f 412 416 459
f 413 435 434
f 413 434 414
f 414 434 419
f 414 419 415
f 416 457 459
f 418 431 421
f 421 431 422
f 422 430 423
f 423 430 429
f 423 429 424
f 424 429 428
f 425 427 426
f 436 459 460
f 436 460 440
f 436 440 437
f 437 440 439
f 440 460 444
f 440 444 441
f 444 460 461
f 444 461 462
f 444 462 445
f 445 463 446
f 445 462 463
f 446 463 447
f 447 463 462
f 447 462 464
f 447 464 451
f 451 454 452
f 451 464 454
f 453 455 465
f 453 465 458
f 454 464 466
f 454 466 455
f 455 466 465
f 457 467 459
f 457 458 468
f 457 468 462
f 457 462 467
f 458 465 469
f 458 469 468
f 459 467 460
f 460 462 461
f 460 467 462
f 462 469 464
f 462 468 469
f 464 469 466
f 465 466 469

