# https://github.com/mikedh/trimesh
v 0.09444964 0.00052132 0.10814699
v 0.09444964 -0.00823645 0.11858626
v 0.09539742 -0.00833517 0.11848728
v 0.09644821 -0.00844799 0.11836190
v 0.10260873 -0.00844799 0.11680460
v 0.10363891 -0.00856081 0.11665942
v 0.11140651 -0.00339923 0.10814699
v 0.09541802 -0.00887107 0.10814699
v 0.09444964 -0.00840569 0.10816679
v 0.09444964 -0.02469430 0.13483906
v 0.11332265 -0.02707766 0.13385585
v 0.11604234 -0.02733151 0.13360509
v 0.11760823 -0.02748664 0.13345992
v 0.11915351 -0.02689432 0.13250310
v 0.12020430 -0.02680971 0.13214676
v 0.12813672 -0.01757244 0.12009738
v 0.13001167 -0.01631730 0.11824973
v 0.13196902 -0.01583781 0.11720053
v 0.13889187 -0.01451216 0.11387473
v 0.14239450 -0.01424420 0.11262096
v 0.14239450 -0.01346855 0.11167734
v 0.11295179 -0.00378000 0.10814699
v 0.14239450 -0.01289034 0.11090528
v 0.14330107 -0.01300317 0.11074691
v 0.23026937 -0.06587418 0.10814699
v 0.28732106 -0.14355184 0.10816679
v 0.09444964 -0.05732795 0.15399533
v 0.09444964 -0.02620329 0.13631059
v 0.11604234 -0.02810715 0.13435076
v 0.11760823 -0.02826229 0.13420558
v 0.11915351 -0.02766997 0.13328175
v 0.12181138 -0.02721868 0.13214676
v 0.13817074 -0.02709176 0.12763319
v 0.14084922 -0.02669688 0.12649820
v 0.13196902 -0.02453917 0.12656419
v 0.14084922 -0.01475190 0.11361078
v 0.14239450 -0.01494934 0.11339962
v 0.14365132 -0.01442754 0.11241640
v 0.14154975 -0.01150828 0.10909722
v 0.14095224 -0.01078904 0.10814699
v 0.14470211 -0.01461087 0.11220525
v 0.14435185 -0.01321470 0.11043017
v 0.14534083 -0.01208649 0.10814699
v 0.14431064 -0.01169161 0.10814699
v 0.14344530 -0.01143777 0.10814699
v 0.14239450 -0.01162110 0.10891905
v 0.23026937 -0.05459202 0.10814699
v 0.30260901 -0.12705170 0.10816679
v 0.30491664 -0.14355184 0.10826577
v 0.23031057 -0.14355184 0.16194685
v 0.09444964 -0.04614451 0.15390955
v 0.23028997 -0.14355184 0.16303567
v 0.23028997 -0.14336851 0.17556015
v 0.09444964 -0.03191489 0.14146424
v 0.10986123 -0.04373295 0.14973251
v 0.11138591 -0.04223806 0.14812241
v 0.11604234 -0.02972897 0.13584868
v 0.11247790 -0.04397269 0.14949496
v 0.14342469 -0.04397269 0.14330530
v 0.14084922 -0.02745843 0.12727026
v 0.14202363 -0.02686612 0.12632003
v 0.14192061 -0.02535713 0.12473633
v 0.19050419 -0.04518552 0.12816110
v 0.19050419 -0.04440988 0.12725046
v 0.19136954 -0.04402910 0.12629364
v 0.16095845 -0.01860194 0.10814699
v 0.20908874 -0.04232268 0.10814699
v 0.23362777 -0.05641127 0.10817339
v 0.23618262 -0.05806129 0.10817339
v 0.23710979 -0.05868180 0.10817339
v 0.25713661 -0.07305246 0.10817339
v 0.25783713 -0.07360246 0.10817339
v 0.27157981 -0.08458846 0.10817339
v 0.27563875 -0.08836799 0.10817339
v 0.29535652 -0.11138359 0.10816679
v 0.29646911 -0.11324515 0.10816679
v 0.29803500 -0.11592466 0.10816679
v 0.29840585 -0.11662979 0.10816679
v 0.30170246 -0.12389268 0.10816679
v 0.30227936 -0.12548629 0.10816679
v 0.29972449 -0.12517603 0.11360418
v 0.30133158 -0.12637476 0.11064133
v 0.30129037 -0.14355184 0.11620410
v 0.30450455 -0.14355184 0.10924239
v 0.09745779 -0.04676502 0.15399533
v 0.09589191 -0.04627143 0.15386996
v 0.09444964 -0.04479064 0.15295932
v 0.23028997 -0.14104156 0.17524341
v 0.23028997 -0.13968771 0.17501245
v 0.23028997 -0.13810821 0.17461652
v 0.23134076 -0.14355184 0.17526979
v 0.23356597 -0.14099926 0.17438557
v 0.23235033 -0.14099926 0.17472210
v 0.09444964 -0.04374705 0.15212128
v 0.10421581 -0.04409961 0.15094010
v 0.11138591 -0.04387397 0.14960054
v 0.10675007 -0.04435346 0.15074872
v 0.10986123 -0.04466372 0.15050457
v 0.11140651 -0.04495988 0.15046498
v 0.11192160 -0.04567912 0.15093349
v 0.17128092 -0.06873703 0.15399533
v 0.19161678 -0.06095234 0.14335809
v 0.19050419 -0.05918950 0.14207133
v 0.14311563 -0.02857255 0.12770578
v 0.11855600 -0.05170097 0.15399533
v 0.12071939 -0.05237790 0.15399533
v 0.19169921 -0.05941515 0.14187337
v 0.19272938 -0.05964079 0.14163581
v 0.22147157 -0.07546402 0.14280380
v 0.22241934 -0.07497042 0.14180078
v 0.19149316 -0.04543937 0.12787075
v 0.17185782 -0.02332634 0.10814699
v 0.17121910 -0.02303018 0.10814699
v 0.17051858 -0.02271992 0.10814699
v 0.22075045 -0.05955617 0.12591091
v 0.22147157 -0.05931643 0.12501348
v 0.20671931 -0.04253421 0.11220525
v 0.19685014 -0.03604698 0.10814699
v 0.20847062 -0.04242139 0.10938756
v 0.23498761 -0.05783564 0.10949315
v 0.23599720 -0.05816001 0.10877387
v 0.23546150 -0.05762410 0.10829217
v 0.25470537 -0.07360246 0.11359099
v 0.25501442 -0.07337682 0.11256158
v 0.27209491 -0.08571668 0.10949315
v 0.27479399 -0.08764875 0.10842414
v 0.27337235 -0.08747952 0.11063474
v 0.28742408 -0.10135657 0.10918960
v 0.28769193 -0.10106042 0.10817339
v 0.28845427 -0.10192068 0.10817339
v 0.28913417 -0.10272454 0.10817339
v 0.29055585 -0.10441686 0.10817339
v 0.29125636 -0.10533353 0.10817339
v 0.29236897 -0.10684253 0.10817339
v 0.29379063 -0.10885921 0.10817339
v 0.29051463 -0.10602457 0.11073371
v 0.29218354 -0.11049513 0.11245600
v 0.29245139 -0.11139770 0.11291131
v 0.29541832 -0.11627723 0.11289152
v 0.29795257 -0.12228498 0.11464679
v 0.29819982 -0.11703878 0.10903123
v 0.29972449 -0.12332858 0.11204027
v 0.30145522 -0.12451321 0.10934137
v 0.29995113 -0.12437218 0.11256817
v 0.29844707 -0.12430167 0.11565640
v 0.29861189 -0.12548629 0.11592695
v 0.29941544 -0.12561321 0.11440924
v 0.29980691 -0.12621964 0.11378895
v 0.29949784 -0.12703759 0.11469298
v 0.30077528 -0.14355184 0.11715433
v 0.09941514 -0.04717400 0.15399533
v 0.10052774 -0.04550989 0.15260298
v 0.09589191 -0.04504449 0.15296592
v 0.09455267 -0.04426885 0.15255020
v 0.23333932 -0.13991335 0.17430638
v 0.23239155 -0.13941976 0.17445155
v 0.23294785 -0.13886976 0.17420739
v 0.23191766 -0.13841846 0.17433277
v 0.23028997 -0.12332858 0.16953546
v 0.10986123 -0.04940223 0.15399533
v 0.23284483 -0.14355184 0.17478810
v 0.23432829 -0.14099926 0.17414801
v 0.09589191 -0.04426885 0.15235883
v 0.10986123 -0.04543937 0.15110506
v 0.11089141 -0.04555219 0.15101928
v 0.11138591 -0.04745606 0.15231264
v 0.11429103 -0.05054455 0.15399533
v 0.11604234 -0.05069968 0.15377097
v 0.23026937 -0.10760407 0.16337880
v 0.23026937 -0.10531943 0.16221740
v 0.17344430 -0.06952678 0.15399533
v 0.21809257 -0.08712695 0.15399533
v 0.21904034 -0.08752183 0.15399533
v 0.22229571 -0.08907312 0.15399533
v 0.22243996 -0.07647941 0.14330530
v 0.17923396 -0.07169860 0.15399533
v 0.23026937 -0.11139770 0.16498890
v 0.23026937 -0.10864767 0.16387370
v 0.23902595 -0.07368708 0.12909812
v 0.22155399 -0.05986643 0.12568656
v 0.22229571 -0.05954207 0.12468354
v 0.22386160 -0.05951386 0.12315922
v 0.23070204 -0.05923181 0.11603254
v 0.23449311 -0.05813180 0.11052255
v 0.23537908 -0.05918950 0.11137380
v 0.23546150 -0.05841385 0.10996166
v 0.25330431 -0.07346144 0.11537926
v 0.25361338 -0.07327810 0.11454781
v 0.25439630 -0.07388452 0.11454781
v 0.27203311 -0.08732439 0.11248240
v 0.27236276 -0.08702823 0.11145298
v 0.26863349 -0.09223212 0.12597030
v 0.28820703 -0.10369762 0.11153217
v 0.28882512 -0.10468481 0.11202707
v 0.28890755 -0.10299249 0.10908401
v 0.28907237 -0.10434635 0.11099766
v 0.29014376 -0.10496687 0.10989567
v 0.28917539 -0.10571431 0.11259457
v 0.29051463 -0.10912716 0.11380214
v 0.29653091 -0.12033881 0.11505591
v 0.29817922 -0.12325806 0.11522088
v 0.29846767 -0.12275037 0.11418488
v 0.29951846 -0.12389268 0.11304988
v 0.29875612 -0.12383627 0.11464679
v 0.29789075 -0.12383627 0.11614471
v 0.29372881 -0.12296191 0.12171409
v 0.29199810 -0.12332858 0.12456476
v 0.29671636 -0.12466833 0.11845429
v 0.29813800 -0.12548629 0.11670561
v 0.29822042 -0.12640296 0.11683759
v 0.30005416 -0.14355184 0.11835530
v 0.10839837 -0.04779452 0.15305830
v 0.10986123 -0.04638425 0.15179793
v 0.23387502 -0.13941976 0.17406882
v 0.23389562 -0.13789666 0.17364651
v 0.23453433 -0.13565434 0.17266329
v 0.23476096 -0.12772862 0.16962124
v 0.23420467 -0.12669912 0.16942988
v 0.23548210 -0.11136949 0.16312804
v 0.23455494 -0.14355184 0.17420739
v 0.23368957 -0.14255056 0.17445155
v 0.23544090 -0.14099926 0.17372569
v 0.23544090 -0.13944797 0.17355412
v 0.23387502 -0.10725150 0.16202604
v 0.23026937 -0.10479763 0.16192707
v 0.23387502 -0.10647585 0.16162351
v 0.23111411 -0.10481173 0.16165652
v 0.23026937 -0.10427583 0.16160372
v 0.23026937 -0.09601165 0.15619932
v 0.23026937 -0.09543344 0.15577699
v 0.22388220 -0.08990518 0.15399533
v 0.26556353 -0.10615149 0.14314693
v 0.23183524 -0.10897203 0.16349097
v 0.23051660 -0.10994512 0.16433561
v 0.23478158 -0.10753355 0.16186107
v 0.23968527 -0.07323579 0.12806212
v 0.26727365 -0.09207700 0.12777837
v 0.24125115 -0.07323579 0.12657079
v 0.23482278 -0.05947156 0.11238340
v 0.26873651 -0.09056801 0.12303385
v 0.26910738 -0.09328983 0.12663018
v 0.28740348 -0.10450147 0.11380214
v 0.28849547 -0.10522071 0.11306969
v 0.28882512 -0.10623610 0.11362398
v 0.29681936 -0.12296191 0.11705535
v 0.29683996 -0.12136830 0.11554423
v 0.28913417 -0.10885921 0.11561681
v 0.28870152 -0.12083240 0.12734284
v 0.29234837 -0.12266575 0.12352875
v 0.29059706 -0.12296191 0.12633983
v 0.28740348 -0.12311704 0.13085340
v 0.28882512 -0.12365294 0.12911792
v 0.29548012 -0.12548629 0.12044052
v 0.29352278 -0.12971710 0.12451857
v 0.29698421 -0.12703759 0.11881722
v 0.28894875 -0.12471064 0.12928949
v 0.29644851 -0.14355184 0.12423483
v 0.29766413 -0.14355184 0.12226839
v 0.23552330 -0.13784025 0.17307900
v 0.23504943 -0.13669794 0.17284805
v 0.23659470 -0.12586706 0.16818930
v 0.23838723 -0.11139770 0.16204585
v 0.23626505 -0.11689774 0.16495591
v 0.23605900 -0.11245540 0.16333260
v 0.23713039 -0.11139770 0.16253415
v 0.23739824 -0.10950793 0.16170930
v 0.23692437 -0.10846433 0.16147834
v 0.23544090 -0.14355184 0.17384447
v 0.23688315 -0.14099926 0.17304601
v 0.23673892 -0.13944797 0.17296683
v 0.23649169 -0.13829155 0.17283484
v 0.23535848 -0.10694124 0.16135956
v 0.23647107 -0.10591174 0.16036974
v 0.23750126 -0.10623610 0.16016519
v 0.23772791 -0.10454378 0.15872006
v 0.23630625 -0.09979117 0.15569122
v 0.24405324 -0.09980527 0.15101268
v 0.26432732 -0.10744894 0.14490221
v 0.26614043 -0.10718099 0.14354286
v 0.26657311 -0.10674380 0.14290278
v 0.26731485 -0.10602457 0.14175459
v 0.24116873 -0.10739253 0.15889823
v 0.25641548 -0.10912716 0.15100608
v 0.23581175 -0.10799895 0.16168951
v 0.23818118 -0.10727971 0.16047534
v 0.26875711 -0.10605277 0.14015109
v 0.26869529 -0.09376932 0.12766619
v 0.28758891 -0.11978880 0.12797633
v 0.26875711 -0.10763227 0.14168200
v 0.28754769 -0.12138240 0.12950065
v 0.28892815 -0.12163625 0.12771237
v 0.28775373 -0.12252472 0.13003515
v 0.28711503 -0.12208754 0.13053666
v 0.28262342 -0.12187600 0.13532737
v 0.28287067 -0.12289140 0.13561112
v 0.28379782 -0.12393499 0.13494465
v 0.28699139 -0.12548629 0.13196199
v 0.28750649 -0.12393499 0.13097218
v 0.28892815 -0.12943505 0.13081381
v 0.28835123 -0.12409012 0.12990317
v 0.29034981 -0.13012608 0.12907173
v 0.29070006 -0.13322868 0.12956003
v 0.29086490 -0.13479407 0.12979759
v 0.29043221 -0.13590818 0.13073462
v 0.29053524 -0.13695179 0.13087320
v 0.29560376 -0.14355184 0.12535661
v 0.25291286 -0.12203113 0.16013880
v 0.25132637 -0.12112855 0.16045553
v 0.23958224 -0.11136949 0.16155093
v 0.23863448 -0.10829510 0.16073928
v 0.23793394 -0.11053743 0.16189408
v 0.23708919 -0.14355184 0.17306582
v 0.24475378 -0.14099926 0.16886898
v 0.24656691 -0.13944797 0.16778019
v 0.24566034 -0.13847487 0.16811011
v 0.23956164 -0.13836206 0.17126434
v 0.25332491 -0.12307473 0.16031036
v 0.23698617 -0.10680021 0.16068649
v 0.23923197 -0.10770279 0.16023778
v 0.23863448 -0.10680021 0.15992763
v 0.23853145 -0.10562969 0.15908959
v 0.26719122 -0.10767458 0.14319312
v 0.26766512 -0.10685663 0.14209773
v 0.26844804 -0.10685663 0.14130587
v 0.24219890 -0.10782971 0.15859468
v 0.24868909 -0.10912716 0.15567142
v 0.25219172 -0.11031179 0.15435826
v 0.25320131 -0.11079128 0.15404152
v 0.26813899 -0.10815407 0.14258604
v 0.26906616 -0.10867587 0.14196575
v 0.27036420 -0.11060794 0.14173479
v 0.27215671 -0.11151052 0.14038864
v 0.27978010 -0.11981701 0.13716184
v 0.28105753 -0.12187600 0.13691108
v 0.28130478 -0.12291960 0.13715524
v 0.27916200 -0.12393499 0.13968257
v 0.27654532 -0.12626194 0.14322611
v 0.27809060 -0.12626194 0.14168860
v 0.28099571 -0.12548629 0.13837601
v 0.28435411 -0.13383509 0.13708924
v 0.28820703 -0.13466715 0.13318937
v 0.28888693 -0.13421586 0.13231833
v 0.28946384 -0.13475176 0.13172444
v 0.29014376 -0.13322868 0.13033209
v 0.28901057 -0.13524536 0.13246350
v 0.28911357 -0.13634537 0.13255588
v 0.29057646 -0.13789666 0.13093259
v 0.29434693 -0.14355184 0.12682815
v 0.28993772 -0.13789666 0.13170464
v 0.28917539 -0.13789666 0.13261527
v 0.25243897 -0.12087471 0.15987484
v 0.25140878 -0.12040932 0.16014539
v 0.25394303 -0.12249652 0.15977586
v 0.25495262 -0.12143882 0.15882564
v 0.25402545 -0.12087471 0.15908299
v 0.24582517 -0.11507850 0.16040934
v 0.24178685 -0.11139770 0.16065350
v 0.23972647 -0.10873228 0.16046213
v 0.24432109 -0.11349900 0.16042254
v 0.24475378 -0.14355184 0.16898776
v 0.24666992 -0.14099926 0.16782638
v 0.24784433 -0.14099926 0.16717309
v 0.24883330 -0.14099926 0.16661879
v 0.24875090 -0.13970182 0.16656601
v 0.24800916 -0.13930693 0.16694213
v 0.24862727 -0.13868642 0.16648683
v 0.24770011 -0.13789666 0.16686295
v 0.25229474 -0.12857478 0.16218441
v 0.25351036 -0.12393499 0.16042914
v 0.25429330 -0.12393499 0.15996722
v 0.25519987 -0.12238370 0.15899061
v 0.24574275 -0.10898613 0.15730132
v 0.24230193 -0.11086179 0.16022458
v 0.25132637 -0.11794135 0.15903680
v 0.25132637 -0.11736314 0.15873325
v 0.25132637 -0.11617851 0.15810637
v 0.25132637 -0.11190540 0.15579680
v 0.25120273 -0.11132718 0.15555264
v 0.26723244 -0.11387977 0.14631435
v 0.26750029 -0.10868998 0.14346367
v 0.25412846 -0.11139770 0.15378417
v 0.25332491 -0.11380925 0.15565822
v 0.25268621 -0.11138359 0.15470800
v 0.26855106 -0.10962075 0.14300176
v 0.27059084 -0.11139770 0.14191296
v 0.27351657 -0.11368233 0.14021707
v 0.27687497 -0.11772980 0.13895670
v 0.27351657 -0.11681313 0.14176778
v 0.27638048 -0.11884392 0.13997951
v 0.27497943 -0.12631835 0.14475703
v 0.27364019 -0.12740426 0.14651231
v 0.27232155 -0.12857478 0.14828078
v 0.27386684 -0.12857478 0.14675647
v 0.27687497 -0.13012608 0.14402457
v 0.27965647 -0.13242482 0.14170180
v 0.27891475 -0.12684015 0.14096933
v 0.27462916 -0.12857478 0.14596461
v 0.27537091 -0.12857478 0.14519255
v 0.28750649 -0.13511843 0.13404721
v 0.28837185 -0.13634537 0.13333454
v 0.28925782 -0.14355184 0.13272086
v 0.28608484 -0.13789666 0.13571670
v 0.28027459 -0.14355184 0.14176778
v 0.28878392 -0.14355184 0.13322236
v 0.24535128 -0.11404900 0.16020478
v 0.25348976 -0.11983111 0.15885203
v 0.25598279 -0.12238370 0.15842971
v 0.25798137 -0.12307473 0.15721553
v 0.25717783 -0.12249652 0.15758506
v 0.25839344 -0.12083240 0.15598156
v 0.25340733 -0.11681313 0.15726173
v 0.25132637 -0.14355184 0.16534524
v 0.25484960 -0.14342493 0.16339200
v 0.25470537 -0.14226851 0.16330621
v 0.24848305 -0.13789666 0.16641424
v 0.25373700 -0.14099926 0.16368894
v 0.25132637 -0.13944797 0.16492292
v 0.25132637 -0.13332739 0.16372853
v 0.25641548 -0.13236841 0.16030376
v 0.25458175 -0.12548629 0.16012559
v 0.25379881 -0.12548629 0.16061390
v 0.25567374 -0.12407602 0.15910278
v 0.25623004 -0.12363883 0.15862768
v 0.25182085 -0.11220155 0.15567802
v 0.25212992 -0.11139770 0.15504454
v 0.26154580 -0.11928111 0.15291973
v 0.26710880 -0.11720800 0.14777268
v 0.27042602 -0.12765811 0.14948176
v 0.27026117 -0.12330037 0.14781227
v 0.26877771 -0.11695416 0.14632095
v 0.26902496 -0.11462721 0.14501438
v 0.26855106 -0.11273746 0.14455247
v 0.27036420 -0.11689774 0.14480323
v 0.27180646 -0.12640296 0.14780567
v 0.27273363 -0.12691066 0.14715899
v 0.27252758 -0.13012608 0.14848535
v 0.27331052 -0.13012608 0.14773309
v 0.27205371 -0.12744657 0.14803662
v 0.27141499 -0.12857478 0.14905944
v 0.27168284 -0.13012608 0.14925740
v 0.27407287 -0.13012608 0.14696103
v 0.27557693 -0.13012608 0.14539052
v 0.28134598 -0.13634537 0.14028966
v 0.28680596 -0.13634537 0.13489845
v 0.28758891 -0.13634537 0.13411979
v 0.27493823 -0.13167738 0.14628135
v 0.27337235 -0.13167738 0.14781887
v 0.27357837 -0.13789666 0.14801024
v 0.28074848 -0.14255056 0.14124648
v 0.27844086 -0.14355184 0.14356926
v 0.26098950 -0.12485167 0.15559884
v 0.26570776 -0.12621964 0.15254360
v 0.25767230 -0.14355184 0.16166312
v 0.25674513 -0.14255056 0.16207224
v 0.25604461 -0.13789666 0.16161693
v 0.25752808 -0.14255056 0.16157073
v 0.25847585 -0.14099926 0.16064689
v 0.26525447 -0.13012608 0.15377097
v 0.25651849 -0.12548629 0.15882564
v 0.26692338 -0.12857478 0.15230604
v 0.26871589 -0.12802478 0.15092030
v 0.26974608 -0.11772980 0.14576665
v 0.27261000 -0.13167738 0.14855793
v 0.27065265 -0.12857478 0.14964013
v 0.27089989 -0.13012608 0.14984469
v 0.27003453 -0.13167738 0.15074872
v 0.26471877 -0.13910950 0.15582979
v 0.27100292 -0.13167738 0.14997007
v 0.27176526 -0.13167738 0.14932999
v 0.27291905 -0.14355184 0.14895386
v 0.27374320 -0.14355184 0.14818180
v 0.25917638 -0.14355184 0.16066670
v 0.25969146 -0.14331210 0.16026417
v 0.26593441 -0.13479407 0.15425268
v 0.26982850 -0.13012608 0.15062335
v 0.27182706 -0.13322868 0.14936959
v 0.26671735 -0.13479407 0.15370498
v 0.26129857 -0.14255056 0.15894441
v 0.26160762 -0.14355184 0.15875965
v 0.26533689 -0.13944797 0.15532828
v 0.26780934 -0.13634537 0.15301871
v 0.26943703 -0.13479407 0.15152739
v 0.27213611 -0.14355184 0.14964673
v 0.26074225 -0.14355184 0.15947891
v 0.26471877 -0.14349544 0.15609374
v 0.27075567 -0.14355184 0.15085431
v 0.26329713 -0.14355184 0.15731451
v 0.26579016 -0.14355184 0.15515671
f 1 2 3
f 1 3 4
f 1 4 5
f 1 5 6
f 1 6 7
f 1 7 22
f 1 22 40
f 1 40 45
f 1 45 44
f 1 44 43
f 1 43 66
f 1 66 114
f 1 114 113
f 1 113 112
f 1 112 118
f 1 118 67
f 1 67 47
f 1 47 25
f 1 25 8
f 1 8 9
f 1 9 27
f 1 27 51
f 1 51 87
f 1 87 94
f 1 94 54
f 1 54 28
f 1 28 10
f 1 10 2
f 2 10 11
f 2 11 12
f 2 12 13
f 2 13 3
f 3 13 14
f 3 14 4
f 4 14 15
f 4 15 5
f 5 15 16
f 5 16 17
f 5 17 6
f 6 17 18
f 6 18 19
f 6 19 20
f 6 20 21
f 6 21 7
f 7 21 23
f 7 23 24
f 7 24 22
f 8 25 26
f 8 26 9
f 9 26 27
f 10 28 11
f 11 29 12
f 11 28 29
f 12 29 30
f 12 30 13
f 13 30 31
f 13 31 14
f 14 31 32
f 14 32 15
f 15 32 33
f 15 33 34
f 15 34 35
f 15 35 17
f 15 17 16
f 17 35 34
f 17 34 18
f 18 34 36
f 18 36 19
f 19 36 20
f 20 36 37
f 20 37 38
f 20 38 21
f 21 38 24
f 21 24 23
f 22 24 39
f 22 39 40
f 24 38 41
f 24 41 42
f 24 42 43
f 24 43 44
f 24 44 45
f 24 45 46
f 24 46 39
f 25 47 48
f 25 48 26
f 26 48 49
f 26 49 84
f 26 84 83
f 26 83 150
f 26 150 211
f 26 211 258
f 26 258 257
f 26 257 306
f 26 306 348
f 26 348 401
f 26 401 404
f 26 404 403
f 26 403 450
f 26 450 471
f 26 471 470
f 26 470 483
f 26 483 486
f 26 486 488
f 26 488 487
f 26 487 479
f 26 479 484
f 26 484 472
f 26 472 453
f 26 453 412
f 26 412 360
f 26 360 312
f 26 312 268
f 26 268 220
f 26 220 161
f 26 161 91
f 26 91 52
f 26 52 50
f 26 50 27
f 27 50 52
f 27 52 53
f 27 53 51
f 28 54 55
f 28 55 56
f 28 56 57
f 28 57 29
f 29 57 30
f 30 57 58
f 30 58 59
f 30 59 31
f 31 59 32
f 32 59 33
f 33 59 60
f 33 60 34
f 34 59 61
f 34 61 62
f 34 62 37
f 34 37 36
f 34 60 59
f 37 62 38
f 38 62 61
f 38 61 63
f 38 63 41
f 39 46 40
f 40 46 45
f 41 63 64
f 41 64 65
f 41 65 42
f 42 65 66
f 42 66 43
f 47 67 68
f 47 68 69
f 47 69 70
f 47 70 71
f 47 71 72
f 47 72 73
f 47 73 74
f 47 74 75
f 47 75 76
f 47 76 77
f 47 77 78
f 47 78 79
f 47 79 80
f 47 80 48
f 48 80 81
f 48 81 82
f 48 82 83
f 48 83 84
f 48 84 49
f 51 85 86
f 51 86 87
f 51 53 88
f 51 88 89
f 51 89 90
f 51 90 85
f 52 91 53
f 53 91 92
f 53 92 93
f 53 93 88
f 54 94 95
f 54 95 55
f 55 96 56
f 55 95 97
f 55 97 98
f 55 98 96
f 56 96 58
f 56 58 57
f 58 96 98
f 58 98 99
f 58 99 100
f 58 100 59
f 59 101 102
f 59 102 103
f 59 103 63
f 59 63 104
f 59 104 61
f 59 100 105
f 59 105 106
f 59 106 101
f 61 104 63
f 63 103 107
f 63 107 108
f 63 108 109
f 63 109 110
f 63 110 111
f 63 111 65
f 63 65 64
f 65 112 113
f 65 113 114
f 65 114 66
f 65 111 115
f 65 115 116
f 65 116 117
f 65 117 112
f 67 118 119
f 67 119 68
f 68 120 121
f 68 121 122
f 68 122 69
f 68 119 117
f 68 117 120
f 69 122 121
f 69 121 70
f 70 121 123
f 70 123 124
f 70 124 71
f 71 124 72
f 72 124 123
f 72 123 73
f 73 123 125
f 73 125 126
f 73 126 74
f 74 126 127
f 74 127 128
f 74 128 129
f 74 129 75
f 75 129 130
f 75 130 131
f 75 131 132
f 75 132 133
f 75 133 134
f 75 134 135
f 75 135 136
f 75 136 137
f 75 137 138
f 75 138 139
f 75 139 140
f 75 140 76
f 76 140 141
f 76 141 77
f 77 141 78
f 78 141 142
f 78 142 79
f 79 142 143
f 79 143 80
f 80 143 81
f 81 143 144
f 81 144 145
f 81 145 146
f 81 146 147
f 81 147 82
f 82 147 148
f 82 148 83
f 83 148 149
f 83 149 146
f 83 146 150
f 85 151 152
f 85 152 153
f 85 153 86
f 85 90 151
f 86 153 87
f 87 153 154
f 87 154 94
f 88 93 155
f 88 155 89
f 89 155 156
f 89 156 157
f 89 157 158
f 89 158 90
f 90 159 160
f 90 160 151
f 90 158 159
f 91 161 162
f 91 162 92
f 92 162 155
f 92 155 93
f 94 154 163
f 94 163 95
f 95 163 97
f 97 163 153
f 97 153 164
f 97 164 98
f 98 164 165
f 98 165 99
f 99 165 100
f 100 165 160
f 100 160 166
f 100 166 167
f 100 167 168
f 100 168 105
f 101 169 170
f 101 170 171
f 101 171 102
f 101 106 169
f 102 172 173
f 102 173 174
f 102 174 175
f 102 175 108
f 102 108 107
f 102 107 103
f 102 171 176
f 102 176 172
f 105 168 167
f 105 167 159
f 105 159 177
f 105 177 178
f 105 178 106
f 106 178 169
f 108 175 109
f 109 175 110
f 110 115 111
f 110 175 179
f 110 179 115
f 112 117 118
f 115 179 180
f 115 180 181
f 115 181 116
f 116 181 117
f 117 119 118
f 117 181 182
f 117 182 183
f 117 183 184
f 117 184 120
f 120 185 186
f 120 186 187
f 120 187 121
f 120 184 185
f 121 187 188
f 121 188 123
f 123 188 187
f 123 187 189
f 123 189 190
f 123 190 125
f 125 190 191
f 125 191 127
f 125 127 126
f 127 191 190
f 127 190 192
f 127 192 128
f 128 193 194
f 128 194 195
f 128 195 130
f 128 130 129
f 128 192 193
f 130 195 131
f 131 195 132
f 132 195 196
f 132 196 197
f 132 197 133
f 133 197 136
f 133 136 134
f 134 136 135
f 136 197 194
f 136 194 198
f 136 198 137
f 137 198 199
f 137 199 138
f 138 200 139
f 138 199 200
f 139 200 140
f 140 201 141
f 140 200 201
f 141 201 202
f 141 202 142
f 142 203 144
f 142 144 143
f 142 202 204
f 142 204 203
f 144 203 204
f 144 204 145
f 145 204 201
f 145 201 205
f 145 205 206
f 145 206 207
f 145 207 208
f 145 208 209
f 145 209 146
f 146 209 210
f 146 210 150
f 146 149 147
f 147 149 148
f 150 210 211
f 151 160 212
f 151 212 213
f 151 213 152
f 152 213 164
f 152 164 153
f 153 163 154
f 155 162 214
f 155 214 157
f 155 157 156
f 157 214 215
f 157 215 158
f 158 215 159
f 159 215 216
f 159 216 217
f 159 217 218
f 159 218 219
f 159 219 177
f 159 167 160
f 160 167 166
f 160 165 213
f 160 213 212
f 161 220 221
f 161 221 162
f 162 221 220
f 162 220 222
f 162 222 223
f 162 223 214
f 164 213 165
f 169 178 224
f 169 224 170
f 170 225 171
f 170 224 226
f 170 226 227
f 170 227 225
f 171 225 176
f 172 225 228
f 172 228 173
f 172 176 225
f 173 228 229
f 173 229 174
f 174 229 230
f 174 230 231
f 174 231 175
f 175 231 230
f 175 230 232
f 175 232 179
f 177 219 233
f 177 233 234
f 177 234 178
f 178 234 233
f 178 233 235
f 178 235 224
f 179 236 180
f 179 232 237
f 179 237 236
f 180 236 181
f 181 236 182
f 182 236 238
f 182 238 187
f 182 187 239
f 182 239 183
f 183 239 184
f 184 239 185
f 185 239 187
f 185 187 186
f 187 238 237
f 187 237 189
f 189 237 240
f 189 240 190
f 190 240 192
f 192 240 237
f 192 237 241
f 192 241 194
f 192 194 193
f 194 241 242
f 194 242 243
f 194 243 198
f 194 197 196
f 194 196 195
f 198 243 244
f 198 244 199
f 199 245 246
f 199 246 200
f 199 244 247
f 199 247 248
f 199 248 245
f 200 246 201
f 201 246 245
f 201 245 205
f 201 204 202
f 205 245 206
f 206 245 249
f 206 249 207
f 207 249 250
f 207 250 251
f 207 251 252
f 207 252 208
f 208 253 254
f 208 254 255
f 208 255 209
f 208 252 256
f 208 256 253
f 209 255 257
f 209 257 210
f 210 257 258
f 210 258 211
f 214 223 215
f 215 223 259
f 215 259 260
f 215 260 216
f 216 260 217
f 217 260 261
f 217 261 262
f 217 262 263
f 217 263 218
f 218 263 219
f 219 263 264
f 219 264 265
f 219 265 266
f 219 266 267
f 219 267 233
f 220 268 222
f 222 268 269
f 222 269 270
f 222 270 223
f 223 270 271
f 223 271 259
f 224 235 272
f 224 272 226
f 225 227 228
f 226 272 227
f 227 272 273
f 227 273 229
f 227 229 228
f 229 273 274
f 229 274 230
f 230 274 275
f 230 275 276
f 230 276 277
f 230 277 232
f 232 278 279
f 232 279 280
f 232 280 281
f 232 281 237
f 232 277 275
f 232 275 282
f 232 282 283
f 232 283 278
f 233 267 284
f 233 284 235
f 235 284 285
f 235 285 272
f 236 237 238
f 237 281 286
f 237 286 287
f 237 287 241
f 241 287 286
f 241 286 242
f 242 286 243
f 243 286 244
f 244 288 247
f 244 286 289
f 244 289 288
f 245 248 249
f 247 288 248
f 248 288 290
f 248 290 291
f 248 291 249
f 249 291 250
f 250 291 290
f 250 290 292
f 250 292 251
f 251 293 294
f 251 294 295
f 251 295 296
f 251 296 297
f 251 297 298
f 251 298 299
f 251 299 300
f 251 300 252
f 251 292 293
f 252 300 256
f 253 301 254
f 253 256 301
f 254 301 302
f 254 302 303
f 254 303 255
f 255 303 304
f 255 304 257
f 256 300 299
f 256 299 301
f 257 304 305
f 257 305 306
f 259 271 307
f 259 307 308
f 259 308 260
f 260 308 261
f 261 308 262
f 262 308 309
f 262 309 310
f 262 310 311
f 262 311 265
f 262 265 263
f 263 265 264
f 265 311 266
f 266 311 310
f 266 310 267
f 267 310 285
f 267 285 284
f 268 312 269
f 269 312 313
f 269 313 314
f 269 314 270
f 270 314 315
f 270 315 316
f 270 316 271
f 271 316 317
f 271 317 307
f 272 285 318
f 272 318 273
f 273 318 274
f 274 318 285
f 274 285 319
f 274 319 320
f 274 320 282
f 274 282 321
f 274 321 275
f 275 277 276
f 275 321 282
f 278 322 279
f 278 283 322
f 279 322 280
f 280 322 281
f 281 322 323
f 281 323 289
f 281 289 324
f 281 324 286
f 282 320 319
f 282 319 325
f 282 325 326
f 282 326 283
f 283 326 327
f 283 327 328
f 283 328 322
f 285 310 319
f 286 324 289
f 288 289 290
f 289 323 322
f 289 322 329
f 289 329 330
f 289 330 331
f 289 331 332
f 289 332 293
f 289 293 290
f 290 293 292
f 293 332 294
f 294 332 333
f 294 333 295
f 295 333 334
f 295 334 335
f 295 335 336
f 295 336 337
f 295 337 338
f 295 338 296
f 296 338 339
f 296 339 297
f 297 339 340
f 297 340 341
f 297 341 298
f 298 341 342
f 298 342 299
f 299 343 344
f 299 344 301
f 299 342 343
f 301 344 302
f 302 344 304
f 302 304 303
f 304 344 343
f 304 343 345
f 304 345 305
f 305 345 346
f 305 346 347
f 305 347 306
f 306 347 349
f 306 349 350
f 306 350 348
f 307 351 352
f 307 352 308
f 307 317 353
f 307 353 354
f 307 354 355
f 307 355 351
f 308 352 356
f 308 356 309
f 309 357 358
f 309 358 310
f 309 356 359
f 309 359 357
f 310 358 319
f 312 360 313
f 313 360 361
f 313 361 314
f 314 361 362
f 314 362 363
f 314 363 364
f 314 364 365
f 314 365 366
f 314 366 367
f 314 367 315
f 315 367 368
f 315 368 369
f 315 369 316
f 316 369 317
f 317 369 370
f 317 370 371
f 317 371 353
f 319 372 325
f 319 358 373
f 319 373 374
f 319 374 375
f 319 375 376
f 319 376 377
f 319 377 378
f 319 378 372
f 322 379 380
f 322 380 329
f 322 328 381
f 322 381 382
f 322 382 354
f 322 354 379
f 325 372 326
f 326 372 327
f 327 372 378
f 327 378 383
f 327 383 328
f 328 383 381
f 329 384 330
f 329 380 384
f 330 384 331
f 331 384 385
f 331 385 386
f 331 386 332
f 332 386 333
f 333 387 388
f 333 388 389
f 333 389 334
f 333 386 387
f 334 336 335
f 334 389 336
f 336 389 388
f 336 388 390
f 336 390 337
f 337 390 391
f 337 391 392
f 337 392 393
f 337 393 338
f 338 394 395
f 338 395 340
f 338 340 396
f 338 396 339
f 338 393 397
f 338 397 398
f 338 398 394
f 339 396 340
f 340 399 341
f 340 395 399
f 341 345 342
f 341 399 345
f 342 345 343
f 345 399 346
f 346 399 400
f 346 400 350
f 346 350 349
f 346 349 347
f 348 350 401
f 350 400 402
f 350 402 403
f 350 403 404
f 350 404 401
f 351 405 352
f 351 355 405
f 352 405 356
f 353 371 354
f 354 406 355
f 354 371 407
f 354 407 408
f 354 408 409
f 354 409 410
f 354 410 379
f 354 382 411
f 354 411 406
f 355 406 373
f 355 373 405
f 356 405 359
f 357 359 358
f 358 359 373
f 359 405 373
f 360 412 413
f 360 413 361
f 361 413 362
f 362 413 363
f 363 413 364
f 364 366 365
f 364 413 414
f 364 414 366
f 366 415 367
f 366 414 416
f 366 416 417
f 366 417 418
f 366 418 368
f 366 368 415
f 367 415 368
f 368 418 419
f 368 419 420
f 368 420 421
f 368 421 369
f 369 421 370
f 370 421 420
f 370 420 422
f 370 422 371
f 371 422 423
f 371 423 408
f 371 408 407
f 373 406 374
f 374 406 375
f 375 406 376
f 376 424 377
f 376 406 424
f 377 424 378
f 378 424 425
f 378 425 383
f 379 410 426
f 379 426 427
f 379 427 428
f 379 428 429
f 379 429 430
f 379 430 431
f 379 431 432
f 379 432 384
f 379 384 380
f 381 383 382
f 382 383 411
f 383 425 424
f 383 424 411
f 384 432 385
f 385 432 386
f 386 432 388
f 386 388 387
f 388 432 431
f 388 431 433
f 388 433 390
f 390 433 434
f 390 434 435
f 390 435 391
f 391 435 392
f 392 436 437
f 392 437 393
f 392 435 438
f 392 438 439
f 392 439 440
f 392 440 436
f 393 441 397
f 393 437 441
f 394 398 442
f 394 442 395
f 395 443 402
f 395 402 444
f 395 444 445
f 395 445 400
f 395 400 399
f 395 442 441
f 395 441 437
f 395 437 446
f 395 446 447
f 395 447 448
f 395 448 443
f 397 441 398
f 398 441 442
f 400 445 402
f 402 445 444
f 402 443 449
f 402 449 403
f 403 449 450
f 406 411 424
f 408 410 409
f 408 423 451
f 408 451 452
f 408 452 426
f 408 426 410
f 412 453 413
f 413 453 414
f 414 453 454
f 414 454 416
f 416 454 455
f 416 455 417
f 417 455 419
f 417 419 418
f 419 455 456
f 419 456 457
f 419 457 458
f 419 458 459
f 419 459 420
f 420 459 422
f 422 459 423
f 423 459 460
f 423 460 451
f 426 452 427
f 427 452 428
f 428 461 439
f 428 439 429
f 428 452 461
f 429 439 438
f 429 438 434
f 429 434 430
f 430 434 462
f 430 462 433
f 430 433 431
f 433 462 434
f 434 438 435
f 436 463 437
f 436 440 469
f 436 469 463
f 437 463 447
f 437 447 446
f 439 461 464
f 439 464 440
f 440 464 465
f 440 465 466
f 440 466 467
f 440 467 468
f 440 468 469
f 443 448 449
f 447 463 448
f 448 463 470
f 448 470 471
f 448 471 449
f 449 471 450
f 451 460 461
f 451 461 452
f 453 472 456
f 453 456 454
f 454 456 455
f 456 472 457
f 457 472 473
f 457 473 474
f 457 474 458
f 458 474 475
f 458 475 460
f 458 460 459
f 460 475 461
f 461 475 465
f 461 465 464
f 463 469 476
f 463 476 470
f 465 475 466
f 466 475 477
f 466 477 473
f 466 473 478
f 466 478 467
f 467 478 479
f 467 479 480
f 467 480 481
f 467 481 468
f 468 481 469
f 469 481 482
f 469 482 476
f 470 476 483
f 472 484 473
f 473 484 478
f 473 477 474
f 474 477 475
f 476 482 485
f 476 485 486
f 476 486 483
f 478 484 479
f 479 487 480
f 480 487 485
f 480 485 482
f 480 482 481
f 485 487 488
f 485 488 486

