# https://github.com/mikedh/trimesh
v 0.03933721 0.05444459 -0.06747678
v 0.05596357 0.05436044 -0.06747678
v 0.03841352 0.05449508 -0.06750427
v 0.03683782 0.05444459 -0.06750427
v 0.02472123 0.05402385 -0.06750427
v 0.02317270 0.05382189 -0.06750427
v -0.00423906 0.04947986 -0.06749053
v -0.00961818 0.04873935 -0.06749053
v -0.01583948 0.04788104 -0.06749053
v -0.01703484 0.04767909 -0.06749053
v -0.01802644 0.04744347 -0.06749053
v -0.03755970 0.04099773 -0.06749053
v -0.03908106 0.04035820 -0.06749053
v -0.03980099 0.04005528 -0.06749053
v 0.03933721 0.04345485 -0.06747678
v 0.03841352 0.05430995 -0.06853511
v 0.05726760 0.05427629 -0.06747678
v 0.05789245 0.05212210 -0.07869224
v 0.05702309 0.05213893 -0.07876096
v 0.03375434 0.05318237 -0.07476133
v 0.03531646 0.05363677 -0.07227359
v 0.03065727 0.05420897 -0.06853511
v 0.02603884 0.05404068 -0.06853511
v 0.02434089 0.05385556 -0.06870004
v 0.02218109 0.05365360 -0.06773793
v 0.02375679 0.05367043 -0.06930479
v 0.02826655 0.05215577 -0.08025911
v 0.01764416 0.03811987 -0.10341847
v 0.01476443 0.03344123 -0.11108787
v 0.01363699 0.03327294 -0.11077174
v -0.03655451 0.04130067 -0.06760049
v -0.03499239 0.03808621 -0.07388169
v -0.03716577 0.03987015 -0.06959343
v -0.03554932 0.03672301 -0.07575093
v -0.03658167 0.03650422 -0.07539357
v -0.03980099 0.03675666 -0.07276839
v -0.03980099 0.03078215 -0.06749053
v 0.07045730 0.04064430 -0.06747678
v 0.05908780 0.05409117 -0.06747678
v 0.08338891 0.04953034 -0.07940695
v 0.05859879 0.05126379 -0.08096007
v 0.05702309 0.05190332 -0.07953065
v 0.08338891 0.04919375 -0.08061646
v 0.03065727 0.05261016 -0.07785383
v 0.02750587 0.05382189 -0.07025316
v 0.02603884 0.05382189 -0.06989581
v 0.02974717 0.04592881 -0.09265658
v 0.02196375 0.04126700 -0.09891030
v 0.05702309 0.05138160 -0.08096007
v 0.05702309 0.05080940 -0.08230703
v 0.05084254 0.04549124 -0.09492441
v 0.05084254 0.04478439 -0.09646379
v 0.04956568 0.04438048 -0.09731594
v 0.05084254 0.04286582 -0.10050465
v 0.05239108 0.04030772 -0.10576877
v 0.05239108 0.03980282 -0.10678586
v 0.05239108 0.03786742 -0.11064805
v 0.03531646 0.03827133 -0.10835273
v 0.03120062 0.04283215 -0.09891030
v 0.02295536 0.04136798 -0.09904775
v 0.02108082 0.03960087 -0.10175540
v 0.02295536 0.03934843 -0.10282746
v 0.03065727 0.03796840 -0.10777546
v 0.01523986 0.03302049 -0.11184381
v 0.01408525 0.03204437 -0.11286090
v 0.01359624 0.03244829 -0.11204998
v 0.03424335 0.03663886 -0.11126654
v 0.01305289 0.03185925 -0.11265473
v -0.03472072 0.03640325 -0.07678176
v -0.03603833 0.03616763 -0.07628696
v -0.03515539 0.03502322 -0.07859603
v -0.03980099 0.03610031 -0.07373050
v -0.03980099 0.00550407 -0.09716476
v -0.03978741 -0.05610915 -0.14566886
v 0.00603016 -0.11743628 -0.18317742
v 0.09891500 0.03438369 -0.06749053
v 0.07094631 0.04325290 -0.06747678
v 0.07094631 0.05266065 -0.06747678
v 0.07595867 0.05205479 -0.06749053
v 0.08338891 0.04969863 -0.07785383
v 0.08495103 0.04937888 -0.07785383
v 0.08496461 0.04921058 -0.07928325
v 0.08447560 0.04910961 -0.08043779
v 0.07409771 0.04411121 -0.09661498
v 0.07552399 0.04404389 -0.09631260
v 0.03027693 0.04268069 -0.09891030
v 0.07253559 0.04412804 -0.09672494
v 0.07253559 0.04355583 -0.09801691
v 0.05084254 0.04375779 -0.09864915
v 0.05393961 0.03790108 -0.11068928
v 0.05233674 0.03700911 -0.11210495
v 0.03531646 0.03670618 -0.11137650
v 0.03531646 0.03721107 -0.11041439
v 0.03375434 0.03820401 -0.10824277
v 0.03375434 0.03530932 -0.11309455
v 0.01519911 0.03216218 -0.11301209
v 0.01275405 0.02423543 -0.12208341
v 0.00194149 0.01646015 -0.12826841
v -0.00032698 0.01676308 -0.12711387
v -0.03415021 0.03525883 -0.07889841
v -0.00040848 0.01760456 -0.12589062
v -0.00097899 0.01794115 -0.12505221
v -0.03980099 0.03345806 -0.07733154
v -0.03980099 0.03492224 -0.07537983
v -0.03690768 0.03512420 -0.07719410
v -0.00131858 0.01657796 -0.12685273
v -0.03980099 0.00409038 -0.09888281
v -0.03978741 -0.05610915 -0.16596939
v -0.03980099 0.00064031 -0.10340473
v 0.00603016 -0.11743628 -0.19318336
v 0.06020166 -0.11743628 -0.19667445
v 0.09892857 -0.11740262 -0.19657825
v 0.09894216 0.03433320 -0.06853511
v 0.09894216 0.03785059 -0.06749053
v 0.09891500 0.04522196 -0.06749053
v 0.09752947 0.04571002 -0.06749053
v 0.08279123 0.05042231 -0.06749053
v 0.08071294 0.05099452 -0.06749053
v 0.07925949 0.05134794 -0.06749053
v 0.07741211 0.05176868 -0.06749053
v 0.08338891 0.05022036 -0.06853511
v 0.08495103 0.04968181 -0.07008823
v 0.09205527 0.04749396 -0.06777916
v 0.08572530 0.04902545 -0.07869224
v 0.08552154 0.04892448 -0.07973682
v 0.09894216 0.04300046 -0.08248570
v 0.09894216 0.04202434 -0.08561943
v 0.09894216 0.04126700 -0.08801096
v 0.09894216 0.04103139 -0.08872568
v 0.09894216 0.04049284 -0.09027879
v 0.09278878 0.04010576 -0.09656000
v 0.09115874 0.04067797 -0.09646379
v 0.08961021 0.04054333 -0.09801691
v 0.08860502 0.04119969 -0.09708229
v 0.08806168 0.04096407 -0.09794819
v 0.07651560 0.04281533 -0.09882783
v 0.07561908 0.04332021 -0.09801691
v 0.07409771 0.04348852 -0.09801691
v 0.07253559 0.04298363 -0.09917144
v 0.05702309 0.03822084 -0.10978214
v 0.08185396 0.03635276 -0.11071677
v 0.06943853 0.03498956 -0.11419411
v 0.05393961 0.03714375 -0.11196751
v 0.05278500 0.03662203 -0.11277843
v 0.03531646 0.03616763 -0.11214618
v 0.03531646 0.03539347 -0.11319076
v 0.03375434 0.03334025 -0.11567851
v 0.03220581 0.02854382 -0.12167108
v 0.03065727 0.02702915 -0.12326543
v 0.02913591 0.02546399 -0.12480481
v 0.01909761 0.01797482 -0.13134716
v 0.01207487 0.01442377 -0.13384865
v 0.01052634 0.01346448 -0.13457710
v 0.00973849 0.01336350 -0.13443965
v 0.00431862 0.01469304 -0.13111351
v 0.00088197 0.01630868 -0.12808973
v -0.00032698 0.01612356 -0.12786982
v -0.03980099 0.03291951 -0.07800502
v -0.00144083 0.01509695 -0.12847457
v -0.00247319 0.01477719 -0.12811722
v -0.03978741 -0.00957527 -0.12870823
v -0.03980099 0.03219584 -0.07889841
v -0.03980099 0.00074129 -0.11633824
v -0.03978741 -0.05501523 -0.16555705
v -0.03697560 -0.05587354 -0.16906188
v -0.03840188 -0.05610915 -0.16753625
v 0.00603016 -0.11149542 -0.19464027
v 0.00832579 -0.11743628 -0.19484644
v -0.03537273 -0.05610915 -0.17091738
v -0.03381061 -0.05610915 -0.17258046
v -0.03223491 -0.05610915 -0.17405111
v 0.06020166 -0.11743628 -0.20698276
v 0.09895575 -0.11741945 -0.20757377
v 0.09896933 -0.00015068 -0.13219931
v 0.09894216 0.04505367 -0.06853511
v 0.09894216 0.04367364 -0.07942070
v 0.09894216 0.04340436 -0.08097381
v 0.09896933 0.00062348 -0.14715326
v 0.09894216 0.03990380 -0.09177694
v 0.09894216 0.03726156 -0.09805815
v 0.09232693 0.03983649 -0.09759084
v 0.09166134 0.03961770 -0.09860792
v 0.08342966 0.03626861 -0.11038690
v 0.08291349 0.03667252 -0.10983712
v 0.08648598 0.03995430 -0.10091699
v 0.07561908 0.04288265 -0.09896528
v 0.08338891 0.03547761 -0.11161016
v 0.08185396 0.03559542 -0.11178883
v 0.07561908 0.03529249 -0.11306706
v 0.07095989 0.03492224 -0.11413913
v 0.06912610 0.03359270 -0.11596714
v 0.06790358 0.03362636 -0.11603586
v 0.05393961 0.03662203 -0.11277843
v 0.05393961 0.03522517 -0.11452397
v 0.05239108 0.03382831 -0.11625578
v 0.04774548 0.02694500 -0.12472234
v 0.04618336 0.02615401 -0.12565696
v 0.03375434 0.02724793 -0.12352658
v 0.03399885 0.03192657 -0.11753401
v 0.03220581 0.02716379 -0.12344411
v 0.03065727 0.02561546 -0.12498349
v 0.02913591 0.02399982 -0.12649538
v 0.02913591 0.02322565 -0.12730630
v 0.01363699 0.01306057 -0.13569040
v 0.01207487 0.01294276 -0.13556670
v 0.01207487 0.01363278 -0.13478327
v 0.01052634 0.01275763 -0.13536053
v 0.00857030 0.01166371 -0.13585533
v 0.00122156 0.00516748 -0.14019858
v -0.00188909 0.00609311 -0.13808194
v -0.00032698 0.01385156 -0.13033007
v 0.00071896 0.01479402 -0.12969783
v -0.00343763 0.00129667 -0.14256262
v -0.00307087 0.00582383 -0.13779330
v -0.00286711 0.00881951 -0.13460459
v -0.03978741 -0.01026528 -0.12946417
v -0.00449715 0.00084227 -0.14243892
v -0.03978741 -0.01103944 -0.13019263
v -0.03978741 -0.01373218 -0.13243297
v -0.03978741 -0.05031977 -0.16242332
v -0.03978741 -0.05186809 -0.16364658
v -0.03978741 -0.05282738 -0.16434754
v -0.03978741 -0.05395496 -0.16504851
v -0.03837471 -0.05479644 -0.16705520
v 0.00603016 -0.11018271 -0.19487392
v 0.00897781 -0.11743628 -0.19523128
v -0.03686693 -0.05476279 -0.16863581
v -0.03324010 -0.05563792 -0.17278662
v -0.03246584 -0.05563792 -0.17351508
v -0.03155573 -0.05582305 -0.17443596
v -0.03098522 -0.05610915 -0.17498573
v 0.05859879 -0.11743628 -0.20677661
v 0.06314930 -0.11741945 -0.20738136
v 0.06464350 -0.11741945 -0.20754629
v 0.06635504 -0.11741945 -0.20765625
v 0.06760474 -0.11741945 -0.20772497
v 0.06913968 -0.11741945 -0.20777995
v 0.07070180 -0.11741945 -0.20780745
v 0.07549682 -0.11741945 -0.20788990
v 0.07877048 -0.09288187 -0.20644674
v 0.08030543 -0.09288187 -0.20640552
v 0.08030543 -0.09133354 -0.20626806
v 0.09892857 -0.07366244 -0.20112765
v 0.09895575 -0.07277048 -0.20085276
v 0.09896933 -0.01553295 -0.16533714
v 0.09896933 -0.03162206 -0.16547460
v 0.09896933 -0.03217744 -0.16492481
v 0.09896933 0.00062348 -0.13265288
v 0.09895575 0.00242425 -0.14522904
v 0.09891500 0.02125659 -0.12226209
v 0.09895575 0.01654430 -0.12714136
v 0.09896933 -0.01031577 -0.16033417
v 0.09891500 0.03642007 -0.10000985
v 0.09811356 0.03657154 -0.10033972
v 0.09891500 0.02721428 -0.11413913
v 0.09891500 0.03524200 -0.10225020
v 0.09891500 0.03586470 -0.10115064
v 0.08446202 0.03524200 -0.11139024
v 0.09675520 0.01960729 -0.12524463
v 0.09896933 -0.01108993 -0.16125505
v 0.07871614 0.03510736 -0.11283341
v 0.07719478 0.03520834 -0.11294337
v 0.06635504 0.03014263 -0.12024166
v 0.06479292 0.03024360 -0.12033787
v 0.06635504 0.03162363 -0.11856484
v 0.05546097 0.03520834 -0.11452397
v 0.06325798 0.03031093 -0.12039285
v 0.04926684 0.02694500 -0.12472234
v 0.04618336 0.02551448 -0.12644040
v 0.03933721 0.02576693 -0.12565696
v 0.03220581 0.02571644 -0.12510719
v 0.02913591 0.02248515 -0.12806224
v 0.02137966 0.01055295 -0.13936017
v 0.01984471 0.00892048 -0.14084457
v 0.01733174 0.01026685 -0.13909902
v 0.01207487 0.01216860 -0.13635013
v 0.01052634 0.01198347 -0.13618520
v -0.00216077 0.00070763 -0.14370340
v -0.00220152 0.00234010 -0.14198535
v 0.00852955 0.01014904 -0.13743594
v -0.00343763 0.00053933 -0.14334605
v -0.00441565 -0.00048727 -0.14386834
v -0.00614077 -0.00344929 -0.14555890
v -0.00878958 -0.01151067 -0.15144152
v -0.01054186 -0.01292436 -0.15159271
v -0.01847470 -0.04373939 -0.17502697
v -0.01952064 -0.04577577 -0.17618151
v -0.02445150 -0.04858631 -0.17480706
v -0.02769798 -0.04998318 -0.17340513
v -0.03213983 -0.04710531 -0.16701396
v -0.03544065 -0.04533820 -0.16253328
v -0.03690768 -0.04697067 -0.16246456
v 0.00603016 -0.10841560 -0.19503886
v 0.01055351 -0.11743628 -0.19593224
v -0.02874392 -0.05057221 -0.17293782
v -0.03049621 -0.05496474 -0.17468336
v -0.02946386 -0.05440936 -0.17498573
v -0.01996890 -0.04680238 -0.17644264
v -0.02873034 -0.05610915 -0.17619525
v 0.00541890 -0.07095288 -0.19604220
v 0.00545965 -0.07275365 -0.19624837
v 0.00532381 -0.07428514 -0.19624837
v 0.00532381 -0.08823689 -0.19624837
v 0.00545965 -0.08978522 -0.19627585
v 0.00551398 -0.09138403 -0.19624837
v 0.06169586 -0.11741945 -0.20718894
v 0.05705026 -0.11743628 -0.20654295
v 0.01208846 -0.06964016 -0.19846123
v 0.01208846 -0.06809184 -0.19840625
v 0.06145135 -0.09443019 -0.20574577
v 0.06241579 -0.09362237 -0.20580075
v 0.04926684 -0.04944463 -0.19741665
v 0.05085613 -0.04944463 -0.19740291
v 0.08030543 -0.09005449 -0.20596569
v 0.09895575 -0.07120532 -0.20027549
v 0.06741457 -0.05163247 -0.19653701
v 0.09895575 -0.07001042 -0.19978070
v 0.09895575 -0.06921943 -0.19942333
v 0.09895575 -0.06343004 -0.19675692
v 0.09895575 -0.06199952 -0.19608344
v 0.09895575 -0.05957606 -0.19492890
v 0.09895575 -0.05737138 -0.19376063
v 0.09895575 -0.05445985 -0.19211130
v 0.09895575 -0.05257493 -0.19099801
v 0.09895575 -0.05159882 -0.19039324
v 0.09895575 -0.04000321 -0.18312244
v 0.09895575 -0.03012423 -0.17627770
v 0.09894216 -0.01408560 -0.16438878
v 0.09891500 0.02216539 -0.12109381
v 0.09891500 0.02261979 -0.12047531
v 0.09891500 0.02665890 -0.11493630
v 0.09894216 -0.01331144 -0.16364658
v 0.09894216 -0.01258777 -0.16287689
v 0.09733929 -0.01462415 -0.16540586
v 0.06479292 0.02946944 -0.12120377
v 0.05859879 0.02965457 -0.12127249
v 0.06420883 0.02731525 -0.12362279
v 0.05859879 0.02893090 -0.12213839
v 0.04460766 0.02546399 -0.12638542
v 0.06945211 -0.00809426 -0.16107637
v 0.04808507 -0.03926271 -0.19189139
v 0.02137966 0.00977879 -0.14014360
v 0.01628580 0.01018270 -0.13901656
v 0.01984471 0.00812949 -0.14162800
v 0.01207487 0.01137761 -0.13713357
v 0.00953473 0.01030051 -0.13760088
v 0.00744286 -0.00164852 -0.14892629
v 0.00589432 -0.00260781 -0.14951730
v 0.00589432 -0.00026849 -0.14720824
v -0.00031339 0.00062348 -0.14439063
v -0.00119633 -0.00058825 -0.14532525
v -0.00224227 -0.00079021 -0.14514657
v -0.00343763 -0.00023483 -0.14412949
v -0.00186193 -0.01433805 -0.15794264
v -0.00270411 -0.01455683 -0.15770898
v -0.01768685 -0.04431159 -0.17607155
v -0.01846112 -0.04533820 -0.17645638
v -0.01695334 -0.04680238 -0.17803701
v -0.02749423 -0.05175028 -0.17475208
v -0.02701880 -0.05074051 -0.17443596
v 0.00603016 -0.10388843 -0.19545119
v 0.01620430 -0.11743628 -0.19781524
v 0.00603016 -0.09443019 -0.19620714
v -0.00610002 -0.05610915 -0.18826287
v -0.01928972 -0.05597452 -0.18117074
v 0.00653275 -0.07120532 -0.19655075
v 0.00532381 -0.06433884 -0.19510758
v 0.00802695 -0.06654352 -0.19657825
v 0.01113760 -0.06809184 -0.19811761
v 0.01021392 -0.06964016 -0.19787022
v 0.00636975 -0.07275365 -0.19659199
v 0.01100177 -0.06964016 -0.19815885
v 0.00744286 -0.07275365 -0.19696308
v 0.01098818 -0.07120532 -0.19815885
v 0.00635617 -0.08823689 -0.19659199
v 0.00636975 -0.08978522 -0.19657825
v 0.00603016 -0.09284821 -0.19631709
v 0.05393961 -0.11743628 -0.20604814
v 0.04618336 -0.11743628 -0.20474243
v 0.03390376 -0.11743628 -0.20237838
v 0.01102893 -0.08202676 -0.19813135
v 0.01100177 -0.08047844 -0.19813135
v 0.01127344 -0.06726719 -0.19806264
v 0.01219713 -0.06666133 -0.19817259
v 0.01431617 -0.06410322 -0.19806264
v 0.01363699 -0.06654352 -0.19835127
v 0.04942984 -0.04777849 -0.19678440
v 0.05076104 -0.04774484 -0.19677066
v 0.01674764 -0.06031656 -0.19752661
v 0.01674764 -0.05878506 -0.19708678
v 0.01674764 -0.05769114 -0.19666071
v 0.06631429 -0.05063953 -0.19628961
v 0.09682311 -0.06878185 -0.19961576
v 0.09785547 -0.06895015 -0.19953328
v 0.09504367 -0.06420420 -0.19802140
v 0.07963983 -0.04239302 -0.19028328
v 0.08021034 -0.04178715 -0.18984347
v 0.08262823 -0.04091201 -0.18870268
v 0.08745041 -0.04084469 -0.18721829
v 0.09699970 -0.04069323 -0.18416701
v 0.09670087 -0.01607150 -0.16706894
v 0.09581793 -0.01600418 -0.16713766
v 0.06563511 0.02576693 -0.12516216
v 0.07100064 -0.00668057 -0.15944079
v 0.06945211 -0.00732010 -0.16025171
v 0.04926684 -0.03924588 -0.19190513
v 0.04762322 -0.03998638 -0.19224874
v 0.01365057 -0.04363841 -0.18895007
v 0.01365057 -0.04288108 -0.18835906
v 0.01519911 -0.04185447 -0.18775432
v 0.00589432 -0.00496395 -0.15178513
v 0.00744286 -0.00323050 -0.15042444
v 0.01984471 0.00735533 -0.14238394
v 0.04926684 -0.04131592 -0.19312838
v 0.04900875 -0.04720629 -0.19642705
v 0.01738607 0.00871853 -0.14063840
v 0.00435937 -0.00280976 -0.14932488
v 0.00589432 -0.00338197 -0.15027324
v 0.00435937 -0.00358392 -0.15009457
v 0.00353077 -0.00370173 -0.14997087
v 0.00248483 -0.00388686 -0.14980593
v 0.00361227 -0.00683204 -0.15303588
v 0.00044729 -0.01304217 -0.15770898
v -0.00043565 -0.01386682 -0.15810757
v -0.00198418 -0.01534782 -0.15879480
v -0.00760780 -0.04229204 -0.17954889
v -0.01358460 -0.04397500 -0.17788581
v 0.00177848 -0.05001683 -0.18882637
v 0.00025712 -0.05148101 -0.18888135
v -0.01028378 -0.05186809 -0.18398834
v 0.01706006 -0.11743628 -0.19809013
v -0.00456507 -0.05610915 -0.18903255
v 0.00532381 -0.06300930 -0.19487392
v 0.01029542 -0.08360875 -0.19788396
v 0.01106968 -0.08360875 -0.19810387
v 0.00899139 -0.08668857 -0.19741665
v 0.02110799 -0.11743628 -0.19928589
v 0.01969529 -0.11743628 -0.19888730
v 0.01807884 -0.11743628 -0.19840625
v 0.03224656 -0.11743628 -0.20200729
v 0.01585112 -0.05792675 -0.19653701
v 0.05009544 -0.04710531 -0.19644079
v 0.01570170 -0.05161565 -0.19345825
v 0.05123647 -0.04713897 -0.19644079
v 0.06479292 -0.04944463 -0.19595974
v 0.01363699 -0.05610915 -0.19508010
v 0.06631429 -0.04944463 -0.19573983
v 0.09441882 -0.06482690 -0.19837877
v 0.06285047 -0.04692018 -0.19502512
v 0.07872972 -0.04148422 -0.18996717
v 0.08029184 -0.04052493 -0.18904629
v 0.07872972 -0.04039029 -0.18919749
v 0.05705026 -0.04054176 -0.19211130
v 0.05043503 -0.03929637 -0.19185015
v 0.05705026 -0.04230887 -0.19347199
v 0.05547456 -0.04224155 -0.19348573
v 0.01365057 -0.04479965 -0.18956858
v 0.01259105 -0.04385719 -0.18879889
v 0.01131419 -0.04246034 -0.18717705
v 0.00435937 -0.00514908 -0.15160645
v -0.00050356 -0.01479245 -0.15889100
v -0.00153592 -0.01586954 -0.15942705
v 0.00661426 -0.04708848 -0.18874392
v 0.00365302 -0.04870412 -0.18868894
v 0.00278367 -0.04971390 -0.18899131
v 0.00278367 -0.05099295 -0.18963730
v -0.00091107 -0.05501523 -0.19020082
v -0.00226944 -0.05610915 -0.19009087
v -0.00146800 -0.05610915 -0.19044822
v 0.01278122 -0.05637843 -0.19497014
v 0.00598941 -0.04956243 -0.18984347
v 0.01365057 -0.04587675 -0.19010461
v 0.05809620 -0.04237618 -0.19341702
v 0.00556832 -0.05045440 -0.19015959
v 0.05705026 -0.04153471 -0.19289473
v 0.05547456 -0.04045761 -0.19222126
v 0.01055351 -0.04636481 -0.18949986
v 0.00361227 -0.05180078 -0.19024206
f 1 2 3
f 1 3 4
f 1 4 5
f 1 5 6
f 1 6 7
f 1 7 8
f 1 8 9
f 1 9 10
f 1 10 11
f 1 11 12
f 1 12 13
f 1 13 14
f 1 14 37
f 1 37 15
f 1 15 38
f 1 38 77
f 1 77 78
f 1 78 39
f 1 39 17
f 1 17 2
f 2 16 3
f 2 17 18
f 2 18 19
f 2 19 20
f 2 20 21
f 2 21 16
f 3 16 21
f 3 21 22
f 3 22 4
f 4 22 5
f 5 23 24
f 5 24 6
f 5 22 23
f 6 24 25
f 6 25 9
f 6 9 8
f 6 8 7
f 9 25 24
f 9 24 26
f 9 26 27
f 9 27 10
f 10 27 11
f 11 27 28
f 11 28 29
f 11 29 30
f 11 30 31
f 11 31 12
f 12 31 32
f 12 32 33
f 12 33 13
f 13 33 14
f 14 33 34
f 14 34 35
f 14 35 36
f 14 36 72
f 14 72 104
f 14 104 103
f 14 103 158
f 14 158 162
f 14 162 163
f 14 163 109
f 14 109 107
f 14 107 73
f 14 73 37
f 15 37 38
f 17 39 40
f 17 40 18
f 18 41 42
f 18 42 19
f 18 40 43
f 18 43 41
f 19 42 27
f 19 27 44
f 19 44 20
f 20 44 21
f 21 44 22
f 22 45 23
f 22 44 27
f 22 27 45
f 23 45 46
f 23 46 24
f 24 46 27
f 24 27 26
f 27 47 48
f 27 48 28
f 27 46 45
f 27 42 49
f 27 49 50
f 27 50 51
f 27 51 52
f 27 52 53
f 27 53 54
f 27 54 55
f 27 55 56
f 27 56 57
f 27 57 58
f 27 58 59
f 27 59 47
f 28 48 60
f 28 60 61
f 28 61 62
f 28 62 63
f 28 63 29
f 29 64 65
f 29 65 66
f 29 66 30
f 29 63 67
f 29 67 64
f 30 66 68
f 30 68 69
f 30 69 32
f 30 32 31
f 32 69 34
f 32 34 33
f 34 69 70
f 34 70 35
f 35 70 36
f 36 70 71
f 36 71 72
f 37 73 74
f 37 74 75
f 37 75 76
f 37 76 38
f 38 76 77
f 39 78 79
f 39 79 40
f 40 80 81
f 40 81 82
f 40 82 83
f 40 83 43
f 40 79 80
f 41 49 42
f 41 43 84
f 41 84 49
f 43 83 85
f 43 85 84
f 47 59 86
f 47 86 60
f 47 60 48
f 49 84 87
f 49 87 50
f 50 87 51
f 51 87 88
f 51 88 52
f 52 88 89
f 52 89 53
f 53 89 54
f 54 89 55
f 55 90 56
f 55 89 88
f 55 88 90
f 56 90 57
f 57 90 91
f 57 91 92
f 57 92 93
f 57 93 58
f 58 93 59
f 59 93 94
f 59 94 63
f 59 63 86
f 60 86 62
f 60 62 61
f 62 86 63
f 63 94 67
f 64 67 95
f 64 95 96
f 64 96 65
f 65 96 97
f 65 97 98
f 65 98 99
f 65 99 68
f 65 68 66
f 67 94 92
f 67 92 95
f 68 100 69
f 68 99 101
f 68 101 102
f 68 102 100
f 69 100 70
f 70 100 71
f 71 103 104
f 71 104 105
f 71 105 72
f 71 100 106
f 71 106 103
f 72 105 104
f 73 107 74
f 74 108 110
f 74 110 75
f 74 107 109
f 74 109 108
f 75 110 168
f 75 168 226
f 75 226 294
f 75 294 362
f 75 362 431
f 75 431 439
f 75 439 438
f 75 438 437
f 75 437 440
f 75 440 380
f 75 380 379
f 75 379 378
f 75 378 307
f 75 307 232
f 75 232 172
f 75 172 111
f 75 111 112
f 75 112 76
f 76 113 114
f 76 114 77
f 76 112 113
f 77 114 78
f 78 115 116
f 78 116 117
f 78 117 118
f 78 118 119
f 78 119 120
f 78 120 79
f 78 114 115
f 79 120 80
f 80 120 81
f 81 120 119
f 81 119 118
f 81 118 121
f 81 121 122
f 81 122 123
f 81 123 116
f 81 116 115
f 81 115 124
f 81 124 82
f 82 124 125
f 82 125 83
f 83 125 126
f 83 126 127
f 83 127 128
f 83 128 129
f 83 129 130
f 83 130 131
f 83 131 132
f 83 132 133
f 83 133 134
f 83 134 135
f 83 135 136
f 83 136 137
f 83 137 85
f 84 85 137
f 84 137 138
f 84 138 88
f 84 88 87
f 88 138 139
f 88 139 90
f 90 139 140
f 90 140 141
f 90 141 142
f 90 142 143
f 90 143 91
f 91 144 92
f 91 143 144
f 92 144 145
f 92 145 95
f 92 94 93
f 95 146 147
f 95 147 148
f 95 148 96
f 95 145 146
f 96 148 149
f 96 149 150
f 96 150 97
f 97 150 151
f 97 151 152
f 97 152 153
f 97 153 98
f 98 153 154
f 98 154 155
f 98 155 156
f 98 156 99
f 99 156 157
f 99 157 106
f 99 106 101
f 100 102 106
f 101 106 102
f 103 106 158
f 106 157 159
f 106 159 160
f 106 160 161
f 106 161 162
f 106 162 158
f 108 109 163
f 108 163 164
f 108 164 165
f 108 165 166
f 108 166 110
f 110 167 168
f 110 166 169
f 110 169 170
f 110 170 171
f 110 171 167
f 111 172 173
f 111 173 112
f 112 173 113
f 113 173 174
f 113 174 114
f 114 175 115
f 114 174 175
f 115 175 176
f 115 176 124
f 116 123 117
f 117 123 121
f 117 121 118
f 121 123 122
f 124 176 177
f 124 177 125
f 125 177 126
f 126 177 178
f 126 178 127
f 127 178 128
f 128 178 129
f 129 178 130
f 130 178 179
f 130 179 131
f 131 179 180
f 131 180 181
f 131 181 132
f 132 181 133
f 133 135 134
f 133 181 182
f 133 182 183
f 133 183 184
f 133 184 135
f 135 184 185
f 135 185 136
f 136 186 137
f 136 185 184
f 136 184 186
f 137 186 138
f 138 186 141
f 138 141 139
f 139 141 140
f 141 186 184
f 141 184 183
f 141 183 187
f 141 187 188
f 141 188 189
f 141 189 142
f 142 189 190
f 142 190 191
f 142 191 192
f 142 192 193
f 142 193 143
f 143 193 144
f 144 193 194
f 144 194 195
f 144 195 196
f 144 196 197
f 144 197 198
f 144 198 146
f 144 146 145
f 146 198 199
f 146 199 147
f 147 199 148
f 148 199 198
f 148 198 200
f 148 200 149
f 149 200 201
f 149 201 150
f 150 201 151
f 151 202 203
f 151 203 204
f 151 204 205
f 151 205 206
f 151 206 152
f 151 201 202
f 152 206 153
f 153 206 205
f 153 205 207
f 153 207 154
f 154 207 208
f 154 208 155
f 155 208 209
f 155 209 210
f 155 210 211
f 155 211 212
f 155 212 157
f 155 157 156
f 157 212 211
f 157 211 210
f 157 210 159
f 159 210 213
f 159 213 214
f 159 214 215
f 159 215 160
f 160 215 161
f 161 216 163
f 161 163 162
f 161 215 217
f 161 217 216
f 163 216 218
f 163 218 219
f 163 219 220
f 163 220 221
f 163 221 222
f 163 222 223
f 163 223 164
f 164 223 224
f 164 224 165
f 165 169 166
f 165 224 169
f 167 225 226
f 167 226 168
f 167 171 225
f 169 224 170
f 170 224 227
f 170 227 228
f 170 228 229
f 170 229 171
f 171 229 230
f 171 230 231
f 171 231 225
f 172 232 233
f 172 233 234
f 172 234 235
f 172 235 236
f 172 236 237
f 172 237 238
f 172 238 239
f 172 239 173
f 173 239 240
f 173 240 241
f 173 241 242
f 173 242 243
f 173 243 244
f 173 244 245
f 173 245 246
f 173 246 247
f 173 247 174
f 174 248 175
f 174 247 246
f 174 246 245
f 174 245 260
f 174 260 252
f 174 252 178
f 174 178 248
f 175 248 178
f 175 178 176
f 176 178 177
f 178 249 250
f 178 250 251
f 178 251 180
f 178 180 179
f 178 252 249
f 180 253 254
f 180 254 181
f 180 251 255
f 180 255 256
f 180 256 257
f 180 257 253
f 181 254 182
f 182 254 183
f 183 254 257
f 183 257 256
f 183 256 258
f 183 258 187
f 187 258 250
f 187 250 259
f 187 259 249
f 187 249 260
f 187 260 188
f 188 261 262
f 188 262 189
f 188 260 261
f 189 262 191
f 189 191 190
f 191 262 261
f 191 261 263
f 191 263 264
f 191 264 265
f 191 265 192
f 192 266 193
f 192 265 267
f 192 267 266
f 193 266 194
f 194 266 195
f 195 266 268
f 195 268 196
f 196 268 269
f 196 269 197
f 197 269 198
f 198 269 270
f 198 270 271
f 198 271 200
f 200 271 201
f 201 271 202
f 202 271 203
f 203 272 273
f 203 273 274
f 203 274 204
f 203 271 272
f 204 274 275
f 204 275 205
f 205 275 276
f 205 276 277
f 205 277 207
f 207 277 208
f 208 277 209
f 209 278 279
f 209 279 210
f 209 277 280
f 209 280 278
f 210 279 213
f 213 217 214
f 213 279 278
f 213 278 281
f 213 281 282
f 213 282 217
f 214 217 215
f 216 217 282
f 216 282 283
f 216 283 284
f 216 284 218
f 218 284 285
f 218 285 286
f 218 286 287
f 218 287 288
f 218 288 289
f 218 289 219
f 219 289 290
f 219 290 291
f 219 291 292
f 219 292 220
f 220 292 229
f 220 229 228
f 220 228 221
f 221 228 227
f 221 227 222
f 222 227 223
f 223 227 224
f 225 293 294
f 225 294 226
f 225 231 293
f 229 292 291
f 229 291 290
f 229 290 295
f 229 295 289
f 229 289 230
f 230 289 296
f 230 296 231
f 231 296 297
f 231 297 298
f 231 298 299
f 231 299 300
f 231 300 301
f 231 301 302
f 231 302 303
f 231 303 304
f 231 304 305
f 231 305 293
f 232 306 233
f 232 307 308
f 232 308 309
f 232 309 306
f 233 310 234
f 233 306 309
f 233 309 310
f 234 310 311
f 234 311 235
f 235 311 236
f 236 311 240
f 236 240 237
f 237 240 238
f 238 240 239
f 240 311 242
f 240 242 241
f 242 312 313
f 242 313 314
f 242 314 243
f 242 311 312
f 243 314 313
f 243 313 244
f 244 315 245
f 244 313 316
f 244 316 315
f 245 315 317
f 245 317 318
f 245 318 319
f 245 319 320
f 245 320 321
f 245 321 322
f 245 322 323
f 245 323 324
f 245 324 325
f 245 325 326
f 245 326 327
f 245 327 328
f 245 328 260
f 249 259 250
f 249 252 260
f 250 258 329
f 250 329 251
f 251 329 330
f 251 330 331
f 251 331 255
f 253 257 254
f 255 331 258
f 255 258 256
f 258 331 330
f 258 330 329
f 260 328 332
f 260 332 333
f 260 333 334
f 260 334 263
f 260 263 261
f 263 335 264
f 263 334 335
f 264 267 265
f 264 335 267
f 266 267 336
f 266 336 268
f 267 335 337
f 267 337 338
f 267 338 268
f 267 268 336
f 268 338 269
f 269 339 270
f 269 338 337
f 269 337 340
f 269 340 341
f 269 341 339
f 270 339 341
f 270 341 271
f 271 341 342
f 271 342 273
f 271 273 272
f 273 342 274
f 274 343 275
f 274 342 341
f 274 341 344
f 274 344 343
f 275 343 276
f 276 343 345
f 276 345 277
f 277 346 280
f 277 345 347
f 277 347 348
f 277 348 349
f 277 349 346
f 278 350 351
f 278 351 352
f 278 352 353
f 278 353 281
f 278 280 350
f 280 346 350
f 281 353 282
f 282 353 354
f 282 354 355
f 282 355 284
f 282 284 283
f 284 355 356
f 284 356 286
f 284 286 285
f 286 356 287
f 287 356 357
f 287 357 358
f 287 358 298
f 287 298 297
f 287 297 359
f 287 359 288
f 288 359 360
f 288 360 289
f 289 295 290
f 289 360 296
f 293 305 361
f 293 361 294
f 294 361 363
f 294 363 362
f 296 360 359
f 296 359 297
f 298 358 364
f 298 364 365
f 298 365 299
f 299 365 364
f 299 364 300
f 300 366 301
f 300 364 367
f 300 367 368
f 300 368 369
f 300 369 366
f 301 366 369
f 301 369 370
f 301 370 371
f 301 371 302
f 302 371 372
f 302 372 373
f 302 373 374
f 302 374 303
f 303 374 375
f 303 375 304
f 304 376 305
f 304 375 376
f 305 376 377
f 305 377 363
f 305 363 361
f 307 378 308
f 308 372 309
f 308 378 379
f 308 379 380
f 308 380 381
f 308 381 382
f 308 382 374
f 308 374 372
f 309 372 369
f 309 369 383
f 309 383 384
f 309 384 385
f 309 385 386
f 309 386 311
f 309 311 310
f 311 386 385
f 311 385 312
f 312 387 388
f 312 388 313
f 312 385 389
f 312 389 390
f 312 390 391
f 312 391 387
f 313 388 392
f 313 392 316
f 315 316 393
f 315 393 394
f 315 394 317
f 316 392 393
f 317 394 395
f 317 395 318
f 318 395 319
f 319 395 320
f 320 395 321
f 321 395 396
f 321 396 397
f 321 397 322
f 322 397 323
f 323 397 398
f 323 398 324
f 324 398 399
f 324 399 325
f 325 399 400
f 325 400 326
f 326 400 399
f 326 399 327
f 327 401 328
f 327 399 398
f 327 398 401
f 328 401 332
f 332 401 334
f 332 334 333
f 334 401 402
f 334 402 335
f 335 402 403
f 335 403 337
f 337 403 404
f 337 404 405
f 337 405 340
f 340 405 404
f 340 404 402
f 340 402 406
f 340 406 341
f 341 407 408
f 341 408 409
f 341 409 410
f 341 410 411
f 341 411 412
f 341 412 347
f 341 347 413
f 341 413 344
f 341 406 414
f 341 414 387
f 341 387 415
f 341 415 407
f 343 344 416
f 343 416 345
f 344 413 416
f 345 416 347
f 346 349 417
f 346 417 350
f 347 412 411
f 347 411 418
f 347 418 348
f 347 416 413
f 348 418 419
f 348 419 349
f 349 419 417
f 350 417 420
f 350 420 351
f 351 420 421
f 351 421 352
f 352 421 422
f 352 422 423
f 352 423 353
f 353 423 424
f 353 424 354
f 354 425 355
f 354 424 425
f 355 425 356
f 356 425 426
f 356 426 427
f 356 427 357
f 357 427 428
f 357 428 358
f 358 428 429
f 358 429 430
f 358 430 364
f 362 363 431
f 363 377 431
f 364 432 367
f 364 430 432
f 367 432 433
f 367 433 383
f 367 383 368
f 368 383 369
f 369 372 370
f 370 372 371
f 372 374 373
f 374 382 375
f 375 382 381
f 375 381 434
f 375 434 376
f 376 434 435
f 376 435 436
f 376 436 437
f 376 437 438
f 376 438 377
f 377 438 439
f 377 439 431
f 380 440 435
f 380 435 381
f 381 435 434
f 383 433 384
f 384 433 385
f 385 433 441
f 385 441 390
f 385 390 389
f 387 414 442
f 387 442 388
f 387 391 443
f 387 443 415
f 388 442 444
f 388 444 445
f 388 445 392
f 390 441 391
f 391 441 446
f 391 446 443
f 392 445 447
f 392 447 395
f 392 395 448
f 392 448 393
f 393 448 394
f 394 448 395
f 395 447 396
f 396 447 449
f 396 449 450
f 396 450 397
f 397 450 451
f 397 451 398
f 398 451 401
f 401 451 452
f 401 452 402
f 402 452 453
f 402 453 454
f 402 454 406
f 402 404 403
f 406 454 455
f 406 455 456
f 406 456 414
f 407 415 408
f 408 415 457
f 408 457 458
f 408 458 409
f 409 458 459
f 409 459 423
f 409 423 422
f 409 422 410
f 410 422 411
f 411 422 460
f 411 460 418
f 414 456 444
f 414 444 442
f 415 443 457
f 417 419 420
f 418 460 419
f 419 460 422
f 419 422 420
f 420 422 421
f 423 461 424
f 423 459 461
f 424 461 425
f 425 461 462
f 425 462 426
f 426 459 458
f 426 458 463
f 426 463 464
f 426 464 428
f 426 428 427
f 426 462 459
f 428 464 465
f 428 465 466
f 428 466 467
f 428 467 429
f 429 467 432
f 429 432 430
f 432 467 468
f 432 468 433
f 433 468 469
f 433 469 441
f 435 440 437
f 435 437 436
f 441 469 467
f 441 467 470
f 441 470 446
f 443 471 472
f 443 472 457
f 443 446 471
f 444 456 455
f 444 455 473
f 444 473 449
f 444 449 445
f 445 449 447
f 446 470 474
f 446 474 471
f 449 473 450
f 450 452 451
f 450 473 452
f 452 473 475
f 452 475 453
f 453 476 454
f 453 475 476
f 454 476 475
f 454 475 455
f 455 475 473
f 457 472 471
f 457 471 477
f 457 477 458
f 458 477 471
f 458 471 463
f 459 462 461
f 463 471 465
f 463 465 464
f 465 471 466
f 466 471 474
f 466 474 470
f 466 470 478
f 466 478 467
f 467 469 468
f 467 478 470

